<?xml version="1.0" standalone="no"?>
<!DOCTYPE svg PUBLIC "-//W3C//DTD SVG 1.1//EN" "http://www.w3.org/Graphics/SVG/1.1/DTD/svg11.dtd" >
<svg xmlns="http://www.w3.org/2000/svg" xmlns:xlink="http://www.w3.org/1999/xlink" version="1.1">
<metadata>
Created by FontForge 20170731 at Sat May 21 23:58:17 2022
 By Aleksey,,,
Copyright 2017 Indian Type Foundry
</metadata>
<defs>
<font id="Ekster-ExtraboldItalic" horiz-adv-x="1247" >
  <font-face 
    font-family="Ekster Extrabold"
    font-weight="800"
    font-style="italic"
    font-stretch="normal"
    units-per-em="2048"
    panose-1="2 0 9 0 3 0 0 9 0 0"
    ascent="1638"
    descent="-410"
    x-height="1047"
    cap-height="1536"
    bbox="-422 -676 3115 2023"
    underline-thickness="184"
    underline-position="-470"
    slope="-11"
    unicode-range="U+0020-FB02"
  />
<missing-glyph horiz-adv-x="1138" 
d="M6 0l299 1536h832l-299 -1536h-832zM115 86h647l266 1364h-647zM676 555l-113 139l-170 -143l-59 78l168 141l-113 139l78 68l115 -141l174 147l61 -78l-174 -145l113 -137z" />
    <glyph glyph-name="fi" unicode="fi" horiz-adv-x="1335" 
d="M723 754h-248l-145 -754h-361l211 1098q43 220 183 340.5t348 120.5q87 0 166 -27l-58 -289q-45 10 -78 10q-76 0 -129.5 -37.5t-66.5 -107.5l-13 -61h248zM940 1341q0 92 66 151.5t159 59.5q82 0 134.5 -48.5t52.5 -123.5q0 -94 -66.5 -150t-159.5 -56
q-81 0 -133.5 47.5t-52.5 119.5zM702 0l205 1047h363l-205 -1047h-363z" />
    <glyph glyph-name="fl" unicode="fl" horiz-adv-x="1333" 
d="M723 754h-248l-145 -754h-361l211 1098q43 220 183 340.5t348 120.5q87 0 166 -27l-58 -289q-45 10 -78 10q-76 0 -129.5 -37.5t-66.5 -107.5l-13 -61h248zM702 0l299 1536h363l-299 -1536h-363z" />
    <glyph glyph-name=".notdef" horiz-adv-x="1138" 
d="M6 0l299 1536h832l-299 -1536h-832zM115 86h647l266 1364h-647zM676 555l-113 139l-170 -143l-59 78l168 141l-113 139l78 68l115 -141l174 147l61 -78l-174 -145l113 -137z" />
    <glyph glyph-name=".null" horiz-adv-x="0" 
 />
    <glyph glyph-name="nonmarkingreturn" horiz-adv-x="682" 
 />
    <glyph glyph-name="space" unicode=" " horiz-adv-x="450" 
 />
    <glyph glyph-name="exclam" unicode="!" horiz-adv-x="665" 
d="M270 1536h424l-78 -401l-202 -615h-256l35 615zM201 -23q-88 0 -143.5 53t-55.5 138q0 98 71 161.5t173 63.5q86 0 142 -53.5t56 -136.5q0 -100 -70.5 -163t-172.5 -63z" />
    <glyph glyph-name="quotedbl" unicode="&#x22;" horiz-adv-x="931" 
d="M137 926l105 610h319l-139 -610h-285zM563 926l105 610h321l-141 -610h-285z" />
    <glyph glyph-name="numbersign" unicode="#" horiz-adv-x="1497" 
d="M473 0l154 319h-189l-153 -319h-305l153 319h-190l57 289h270l156 326h-223l57 289h305l150 313h307l-150 -313h189l149 313h308l-150 -313h188l-57 -289h-270l-156 -326h219l-55 -289h-303l-154 -319h-307zM578 608h188l156 326h-189z" />
    <glyph glyph-name="dollar" unicode="$" horiz-adv-x="1212" 
d="M1106 461q0 -192 -140.5 -320t-357.5 -155l-47 -242h-315l49 258q-185 45 -322 170l76 367q116 -125 242 -190.5t248 -65.5q47 0 85.5 10t67.5 39.5t29 75.5q0 74 -84 127l-217 129q-144 86 -214.5 190t-70.5 236q0 186 128 308t333 152l49 252h313l-49 -264
q147 -38 275 -123l-78 -360q-100 98 -206.5 148t-203.5 50q-77 0 -124.5 -32t-47.5 -93q0 -74 84 -131l226 -139q140 -86 206 -180t66 -217z" />
    <glyph glyph-name="percent" unicode="%" horiz-adv-x="2269" 
d="M137 1098q0 127 63.5 233t172.5 167t237 61q177 0 291.5 -112t114.5 -284q0 -193 -139.5 -323.5t-337.5 -130.5q-175 0 -288.5 109t-113.5 280zM584 0h-316l1418 1536h317zM754 1147q0 71 -43.5 117.5t-116.5 46.5q-82 0 -137.5 -57t-55.5 -138q0 -71 43.5 -116.5
t116.5 -45.5q80 0 136.5 55.5t56.5 137.5zM1249 367q0 126 64 231.5t173 166t236 60.5q177 0 292.5 -111t115.5 -284q0 -127 -65 -231.5t-174.5 -163t-239.5 -58.5q-175 0 -288.5 109t-113.5 281zM1866 414q0 71 -43.5 117.5t-116.5 46.5q-81 0 -137 -57.5t-56 -137.5
q0 -71 44.5 -116.5t115.5 -45.5q80 0 136.5 56t56.5 137z" />
    <glyph glyph-name="ampersand" unicode="&#x26;" horiz-adv-x="1615" 
d="M1073 0l-90 109q-210 -132 -451 -132q-235 0 -375.5 123.5t-140.5 329.5q0 160 88.5 280.5t251.5 188.5q-47 100 -47 205q0 137 67.5 241.5t183 159t261.5 54.5q189 0 313.5 -93t155.5 -256q10 -52 10 -90h-350q-3 35 -14 60q-37 86 -129 86q-64 0 -99.5 -41.5
t-35.5 -106.5q0 -55 32.5 -115.5t120.5 -166.5l205 -250q78 116 121 262h342q-83 -296 -258 -512l274 -336h-436zM387 461q0 -75 52 -124.5t141 -49.5q100 0 204 61l-254 305q-68 -28 -105.5 -78t-37.5 -114z" />
    <glyph glyph-name="quotesingle" unicode="'" horiz-adv-x="505" 
d="M137 926l105 610h319l-139 -610h-285z" />
    <glyph glyph-name="parenleft" unicode="(" horiz-adv-x="905" 
d="M78 514q0 283 118 517.5t334 386.5t500 200l-67 -338q-257 -65 -403 -272.5t-146 -485.5q0 -181 73.5 -326t221.5 -227l-64 -338q-182 75 -310.5 207.5t-192.5 304.5t-64 371z" />
    <glyph glyph-name="parenright" unicode=")" horiz-adv-x="905" 
d="M770 731q0 -284 -117.5 -517.5t-333 -384t-499.5 -198.5l65 338q257 63 403 270.5t146 487.5q0 180 -74 324.5t-223 228.5l68 338q272 -114 418.5 -349.5t146.5 -537.5z" />
    <glyph glyph-name="asterisk" unicode="*" horiz-adv-x="950" 
d="M498 1556l250 -51l-117 -268l254 152l82 -240l-291 -35l256 -143l-166 -193l-176 236l4 -293l-250 49l117 268l-252 -151l-84 239l291 35l-256 144l164 192l178 -235z" />
    <glyph glyph-name="plus" unicode="+" horiz-adv-x="1347" 
d="M1149 651h-356l-70 -354h-285l68 354h-352l55 289h354l68 354h287l-70 -354h358z" />
    <glyph glyph-name="comma" unicode="," horiz-adv-x="600" 
d="M61 -344h-231l246 336q-107 54 -107 174q0 97 68 161t170 64q91 0 148 -54t57 -140q0 -37 -15.5 -76.5t-31 -63t-48.5 -67.5z" />
    <glyph glyph-name="hyphen" unicode="-" horiz-adv-x="890" 
d="M37 436l59 307h686l-59 -307h-686z" />
    <glyph glyph-name="period" unicode="." horiz-adv-x="600" 
d="M164 -23q-88 0 -142.5 53t-54.5 138q0 98 70 161.5t172 63.5q88 0 143.5 -53.5t55.5 -136.5q0 -101 -70 -163.5t-174 -62.5z" />
    <glyph glyph-name="slash" unicode="/" horiz-adv-x="1214" 
d="M98 -362h-354l1329 2045h354z" />
    <glyph glyph-name="zero" unicode="0" horiz-adv-x="1423" 
d="M1364 938q0 -140 -34.5 -278.5t-102 -261t-159.5 -217t-215.5 -149.5t-260.5 -55q-248 0 -391.5 168.5t-143.5 454.5q0 141 34.5 280t102.5 260.5t160 215.5t215 148.5t260 54.5q245 0 390 -167.5t145 -453.5zM629 324q78 0 145.5 59.5t109.5 151t65.5 195.5t23.5 200
q0 133 -46.5 206.5t-135.5 73.5q-79 0 -146 -59t-108.5 -150.5t-64.5 -195t-23 -199.5q0 -134 46 -208t134 -74z" />
    <glyph glyph-name="one" unicode="1" horiz-adv-x="882" 
d="M219 0l203 1040l-356 -141l69 367l772 315l-309 -1581h-379z" />
    <glyph glyph-name="two" unicode="2" horiz-adv-x="1206" 
d="M1075 332l-65 -332h-1160l650 711q9 10 36 38.5t37 39.5t33 36.5t32.5 39t26.5 36t24 39t16 37.5t12.5 40.5t3.5 39.5q0 72 -48.5 113.5t-133.5 41.5q-165 0 -398 -174l78 402q96 57 210.5 88t219.5 31q206 0 337.5 -117.5t131.5 -304.5q0 -78 -24.5 -156.5t-73 -156.5
t-101 -144.5t-128.5 -149.5l-187 -198h471z" />
    <glyph glyph-name="three" unicode="3" horiz-adv-x="1150" 
d="M1028 479q0 -150 -90 -266t-236.5 -176t-320.5 -60q-126 0 -247.5 31.5t-217.5 91.5l68 340q177 -137 395 -137q115 0 184.5 47.5t69.5 132.5q0 73 -57 111.5t-156 38.5q-67 0 -187 -19l52 277l200 41q84 15 139.5 59.5t55.5 112.5q0 61 -43.5 92t-122.5 31
q-95 0 -201 -42t-204 -112l69 365q193 121 428 121q198 0 328.5 -101.5t130.5 -271.5q0 -116 -60.5 -210.5t-164.5 -160.5q188 -114 188 -336z" />
    <glyph glyph-name="four" unicode="4" horiz-adv-x="1357" 
d="M1229 299h-154l-57 -299h-367l58 299h-791l709 1237h395l-526 -934h272l72 377h366l-71 -377h153z" />
    <glyph glyph-name="five" unicode="5" horiz-adv-x="1171" 
d="M1055 526q0 -162 -89.5 -288.5t-241 -193.5t-335.5 -67q-247 0 -426 113l64 330q73 -58 165.5 -89.5t180.5 -31.5q120 0 203 56t83 153q0 88 -73 137t-191 49q-68 0 -149.5 -18t-149.5 -53l176 913h904l-66 -332h-535l-47 -227q12 2 35 2q218 0 355 -122t137 -331z" />
    <glyph glyph-name="six" unicode="6" horiz-adv-x="1271" 
d="M1182 526q0 -154 -91.5 -281.5t-242 -197.5t-324.5 -70q-232 0 -381 124t-149 323q0 127 59.5 242t165.5 247l496 623h428l-443 -547q128 -5 237 -61.5t177 -162.5t68 -239zM563 311q98 0 165 61t67 150q0 76 -51 124t-136 48q-91 0 -153 -53q-35 -29 -54.5 -72.5
t-19.5 -89.5q0 -75 50 -121.5t132 -46.5z" />
    <glyph glyph-name="seven" unicode="7" horiz-adv-x="1200" 
d="M1366 1536l-1032 -1536h-410l795 1202h-592l66 334h1173z" />
    <glyph glyph-name="eight" unicode="8" horiz-adv-x="1284" 
d="M-8 406q0 148 90 265.5t242 166.5q-136 119 -136 288q0 127 76 227.5t199.5 153t269.5 52.5q134 0 242 -45t172.5 -132t64.5 -202q0 -121 -65.5 -214.5t-181.5 -154.5q198 -119 198 -336q0 -151 -89.5 -266.5t-232.5 -173.5t-313 -58q-149 0 -269.5 49t-193.5 148
t-73 232zM856 1135q0 57 -40 91t-103 34q-73 0 -122.5 -45t-49.5 -111q0 -58 38.5 -94.5t102.5 -36.5q75 0 124.5 48t49.5 114zM776 487q0 75 -50.5 118.5t-129.5 43.5q-89 0 -152 -51t-63 -137q0 -71 51.5 -110.5t128.5 -39.5q90 0 152.5 48.5t62.5 127.5z" />
    <glyph glyph-name="nine" unicode="9" horiz-adv-x="1273" 
d="M1051 612l-494 -620h-428l440 545q-96 4 -182.5 38t-153 92.5t-106 144.5t-39.5 187q0 155 86 282t232.5 198t320.5 71q154 0 280 -56t199.5 -159t73.5 -233q0 -87 -36 -180t-80 -158.5t-113 -151.5zM702 1212q-97 0 -162 -58.5t-65 -147.5q0 -76 51 -125.5t136 -49.5
q83 0 149 50q80 63 80 161q0 77 -52.5 123.5t-136.5 46.5z" />
    <glyph glyph-name="colon" unicode=":" horiz-adv-x="630" 
d="M311 653q-88 0 -143 54t-55 139q0 97 70 160t173 63q87 0 143 -52.5t56 -135.5q0 -101 -71 -164.5t-173 -63.5zM178 -23q-88 0 -142 53t-54 138q0 98 70 161.5t171 63.5q88 0 143.5 -53.5t55.5 -136.5q0 -101 -70 -163.5t-174 -62.5z" />
    <glyph glyph-name="semicolon" unicode=";" horiz-adv-x="630" 
d="M313 653q-86 0 -141 54.5t-55 136.5q0 100 70 162.5t173 62.5q87 0 143 -52.5t56 -135.5q0 -102 -71 -165t-175 -63zM76 -344h-230l246 336q-106 53 -106 174q0 96 67.5 160.5t167.5 64.5q91 0 149 -54t58 -140q0 -93 -94 -205z" />
    <glyph glyph-name="less" unicode="&#x3c;" horiz-adv-x="1347" 
d="M1044 522l-57 -286l-774 387l61 311l926 387l-65 -320l-603 -239z" />
    <glyph glyph-name="equal" unicode="=" horiz-adv-x="1347" 
d="M195 868l53 283h997l-53 -283h-997zM102 393l56 283h997l-57 -283h-996z" />
    <glyph glyph-name="greater" unicode="&#x3e;" horiz-adv-x="1347" 
d="M1077 623l-925 -387l67 321l598 238l-508 239l56 287l774 -387z" />
    <glyph glyph-name="question" unicode="?" horiz-adv-x="1206" 
d="M737 696l-53 -16l-49 -160h-285l29 340l264 72q45 14 77 28t63.5 35t48 50t16.5 65q0 60 -47 94.5t-115 34.5q-84 0 -154 -51t-86 -139h-348q50 236 216 373t409 137q222 0 361 -111.5t139 -290.5q0 -90 -38 -165t-108 -130t-152.5 -94.5t-187.5 -71.5zM412 -23
q-88 0 -143.5 53t-55.5 138q0 98 71 161.5t173 63.5q86 0 142 -53.5t56 -136.5q0 -100 -70.5 -163t-172.5 -63z" />
    <glyph glyph-name="at" unicode="@" horiz-adv-x="1773" 
d="M1067 -219q-139 -53 -289 -53q-224 0 -397.5 92.5t-269 258.5t-95.5 378q0 181 68.5 343t186.5 279t284 185.5t354 68.5q220 0 392.5 -91.5t268 -255.5t95.5 -372q0 -160 -53 -287.5t-154.5 -202.5t-234.5 -75q-87 0 -149.5 38t-94.5 103q-121 -141 -295 -141
q-166 0 -261 114t-95 288q0 105 34.5 203t94 173t147 120.5t187.5 45.5q178 0 264 -137l22 117h287l-127 -645q-9 -51 17.5 -85t80.5 -34q73 0 125.5 60t75.5 148.5t23 192.5q0 274 -183 448.5t-471 174.5q-164 0 -309.5 -61.5t-248.5 -166t-162.5 -246.5t-59.5 -298
q0 -183 82 -327t232 -225t343 -81q155 0 303 63zM987 539q0 72 -40 120t-111 48q-82 0 -136.5 -62t-54.5 -151q0 -71 41 -117.5t111 -46.5q82 0 136 61.5t54 147.5z" />
    <glyph glyph-name="A" unicode="A" horiz-adv-x="1603" 
d="M1038 0l-49 188h-579l-119 -188h-434l1087 1581l506 -1581h-412zM580 457h338l-101 379z" />
    <glyph glyph-name="B" unicode="B" horiz-adv-x="1388" 
d="M-12 0l297 1536h532q130 0 237.5 -45t172.5 -131.5t65 -198.5q0 -247 -233 -366q203 -117 203 -324q0 -138 -78.5 -247t-208 -166.5t-283.5 -57.5h-704zM780 1221h-178l-55 -285h201q74 0 123 44t49 116q0 56 -39.5 90.5t-100.5 34.5zM713 631h-226l-61 -318h227
q98 0 159.5 48t61.5 131q0 62 -45.5 100.5t-115.5 38.5z" />
    <glyph glyph-name="C" unicode="C" horiz-adv-x="1402" 
d="M1440 1411l-76 -383q-84 84 -193 129t-225 45q-140 0 -252.5 -65t-173.5 -174.5t-61 -239.5q0 -173 109.5 -278t293.5 -105q211 0 410 135l-80 -401q-193 -97 -416 -97q-320 0 -516.5 194.5t-196.5 508.5q0 143 43 276t124 241.5t190 190t247 126.5t289 45
q275 0 484 -148z" />
    <glyph glyph-name="D" unicode="D" horiz-adv-x="1585" 
d="M-12 0l297 1536h538q203 0 361.5 -87t247 -245t88.5 -360q0 -175 -69.5 -331t-189 -268.5t-287 -178.5t-356.5 -66h-630zM786 1190h-196l-164 -846h207q216 0 354.5 138t138.5 341q0 163 -91 265t-249 102z" />
    <glyph glyph-name="E" unicode="E" 
d="M-12 0l297 1536h1018l-66 -336h-639l-49 -256h559l-66 -332h-559l-53 -280h662l-66 -332h-1038z" />
    <glyph glyph-name="F" unicode="F" horiz-adv-x="1159" 
d="M-12 0l297 1536h975l-66 -340h-596l-61 -309h510l-66 -340h-510l-106 -547h-377z" />
    <glyph glyph-name="G" unicode="G" horiz-adv-x="1572" 
d="M1352 131q-124 -75 -275 -114.5t-295 -39.5q-220 0 -384.5 92t-249.5 251.5t-85 363.5q0 180 68 341.5t186 279t284.5 186t354.5 68.5q281 0 502 -150l-78 -379q-86 86 -200 129t-230 43q-146 0 -259.5 -66.5t-173.5 -177t-60 -243.5q0 -171 101 -280t278 -109
q103 0 194 36l47 240h-282l53 277h649z" />
    <glyph glyph-name="H" unicode="H" horiz-adv-x="1619" 
d="M956 0l121 621h-592l-120 -621h-377l297 1536h379l-113 -580h592l112 580h379l-299 -1536h-379z" />
    <glyph glyph-name="I" unicode="I" horiz-adv-x="649" 
d="M-12 0l297 1536h379l-299 -1536h-377z" />
    <glyph glyph-name="J" unicode="J" horiz-adv-x="974" 
d="M225 -23q-169 0 -319 97l61 321q48 -38 110 -59t120 -21q91 0 152 50.5t79 148.5l199 1022h379l-201 -1032q-22 -116 -63.5 -207t-95.5 -150.5t-122.5 -98t-141.5 -55t-157 -16.5z" />
    <glyph glyph-name="K" unicode="K" horiz-adv-x="1536" 
d="M956 0l-294 596l-224 -217l-73 -379h-377l297 1536h379l-121 -616l618 616h471l-692 -672l444 -864h-428z" />
    <glyph glyph-name="L" unicode="L" horiz-adv-x="1185" 
d="M1059 338l-66 -338h-1005l297 1536h379l-234 -1198h629z" />
    <glyph glyph-name="M" unicode="M" horiz-adv-x="1927" 
d="M889 285l-381 456l-143 -741h-377l305 1581l672 -805l987 805l-310 -1581h-378l133 682z" />
    <glyph glyph-name="N" unicode="N" horiz-adv-x="1615" 
d="M1321 -45l-799 862l-157 -817h-377l305 1581l799 -862l159 817h379z" />
    <glyph glyph-name="O" unicode="O" horiz-adv-x="1761" 
d="M1696 852q0 -178 -70 -340t-189.5 -279t-286.5 -186.5t-353 -69.5q-212 0 -379 88t-261 249t-94 368q0 180 70.5 342t190.5 279.5t287 186.5t352 69q213 0 380 -89t260 -250.5t93 -367.5zM834 336q100 0 188.5 40t149.5 106.5t96 154t35 180.5q0 171 -106 276t-273 105
q-131 0 -239 -66.5t-168 -176.5t-60 -238q0 -170 105.5 -275.5t271.5 -105.5z" />
    <glyph glyph-name="P" unicode="P" horiz-adv-x="1355" 
d="M-12 0l297 1536h512q239 0 392.5 -136t153.5 -364q0 -171 -87.5 -315.5t-242 -229.5t-341.5 -85h-228l-79 -406h-377zM745 1214h-145l-94 -487h158q124 0 205 82t81 197q0 93 -55.5 150.5t-149.5 57.5z" />
    <glyph glyph-name="Q" unicode="Q" horiz-adv-x="1755" 
d="M1696 852q0 -225 -107.5 -416.5t-292.5 -312.5l254 -348h-442l-154 215q-83 -13 -157 -13q-212 0 -379 88t-261 249t-94 368q0 180 70.5 342t190.5 279.5t287 186.5t352 69q213 0 380 -89t260 -250.5t93 -367.5zM834 336q100 0 188.5 40t149.5 106.5t96 154t35 180.5
q0 171 -106 276t-273 105q-131 0 -239 -66.5t-168 -176.5t-60 -238q0 -170 105.5 -275.5t271.5 -105.5z" />
    <glyph glyph-name="R" unicode="R" horiz-adv-x="1372" 
d="M-12 0l297 1536h524q236 0 382 -132t146 -343q0 -180 -108.5 -320t-288.5 -209l260 -532h-422l-209 475h-112l-92 -475h-377zM752 1214h-152l-80 -417h152q116 0 194 68.5t78 168.5q0 81 -52 130.5t-140 49.5z" />
    <glyph glyph-name="S" unicode="S" horiz-adv-x="1306" 
d="M723 1249q-76 0 -125 -30.5t-49 -92.5q0 -77 86 -122l283 -148q137 -73 204.5 -168.5t67.5 -222.5q0 -147 -84.5 -259.5t-225 -170.5t-311.5 -58q-152 0 -300 49t-263 146l78 369q116 -113 254.5 -182.5t269.5 -69.5q83 0 138 31t55 96q0 73 -84 119l-277 139
q-286 141 -286 411q0 216 164.5 345t416.5 129q275 0 520 -154l-77 -365q-108 95 -226 152t-229 57z" />
    <glyph glyph-name="T" unicode="T" horiz-adv-x="1341" 
d="M113 1196l67 340h1280l-65 -340h-451l-233 -1196h-379l233 1196h-452z" />
    <glyph glyph-name="U" unicode="U" horiz-adv-x="1568" 
d="M104 664l170 872h379l-178 -907q-25 -123 41 -210t195 -87q127 0 214.5 81.5t114.5 211.5l174 911h377l-178 -922q-56 -293 -251.5 -465t-489.5 -172q-121 0 -224 34.5t-175 96.5t-119.5 148t-58.5 189t9 219z" />
    <glyph glyph-name="V" unicode="V" horiz-adv-x="1589" 
d="M1733 1536l-1082 -1581l-495 1581h411l217 -782l506 782h443z" />
    <glyph glyph-name="W" unicode="W" horiz-adv-x="2306" 
d="M2447 1536l-1036 -1581l-250 840l-567 -840l-438 1581h411l187 -750l536 795l252 -788l463 743h442z" />
    <glyph glyph-name="X" unicode="X" horiz-adv-x="1558" 
d="M965 0l-244 477l-402 -477h-452l686 807l-373 729h428l228 -446l381 446h452l-670 -766l394 -770h-428z" />
    <glyph glyph-name="Y" unicode="Y" horiz-adv-x="1550" 
d="M1696 1536l-756 -993l-104 -543h-379l102 524l-405 1012h413l232 -629l463 629h434z" />
    <glyph glyph-name="Z" unicode="Z" horiz-adv-x="1413" 
d="M1247 336l-67 -336h-1305l965 1198h-664l66 338h1294l-961 -1200h672z" />
    <glyph glyph-name="bracketleft" unicode="[" horiz-adv-x="856" 
d="M-70 -369l385 1987h668l-61 -320h-312l-262 -1347h311l-63 -320h-666z" />
    <glyph glyph-name="backslash" unicode="\" horiz-adv-x="1284" 
d="M780 -362l-639 2045h320l639 -2045h-320z" />
    <glyph glyph-name="bracketright" unicode="]" horiz-adv-x="858" 
d="M487 -369h-667l61 320h309l265 1347h-312l62 320h669z" />
    <glyph glyph-name="asciicircum" unicode="^" horiz-adv-x="1347" 
d="M905 668l-127 581l-342 -581h-311l545 868h307l207 -868h-279z" />
    <glyph glyph-name="underscore" unicode="_" horiz-adv-x="1142" 
d="M-225 -397l49 262h1141l-50 -262h-1140z" />
    <glyph glyph-name="grave" unicode="`" horiz-adv-x="1226" 
d="M270 1464h424l162 -286h-299z" />
    <glyph glyph-name="a" unicode="a" horiz-adv-x="1318" 
d="M688 0l21 102q-138 -125 -301 -125q-175 0 -291.5 133t-116.5 345q0 167 75 308.5t204.5 223.5t283.5 82q207 0 305 -145l25 123h362l-204 -1047h-363zM602 737q-98 0 -162.5 -69.5t-64.5 -171.5q0 -86 48.5 -136.5t131.5 -50.5q99 0 166 68t67 168q0 85 -50.5 138.5
t-135.5 53.5z" />
    <glyph glyph-name="b" unicode="b" horiz-adv-x="1318" 
d="M1223 588q0 -168 -77.5 -309t-209 -221.5t-285.5 -80.5q-198 0 -297 146l-24 -123h-361l297 1536h363l-113 -582q131 115 297 115q179 0 294.5 -135.5t115.5 -345.5zM662 737q-96 0 -162 -69t-66 -168q0 -84 51 -137.5t136 -53.5q98 0 162.5 69.5t64.5 168.5
q0 83 -50.5 136.5t-135.5 53.5z" />
    <glyph glyph-name="c" unicode="c" horiz-adv-x="1034" 
d="M377 502q0 -90 61 -144.5t164 -54.5q131 0 270 74l-67 -338q-146 -62 -295 -62q-230 0 -369 136t-139 356q0 169 82.5 307t226 215.5t318.5 77.5q212 0 358 -100l-67 -330q-58 52 -131 80.5t-146 28.5q-122 0 -194 -71.5t-72 -174.5z" />
    <glyph glyph-name="d" unicode="d" horiz-adv-x="1318" 
d="M688 0l21 102q-138 -125 -301 -125q-175 0 -291.5 133t-116.5 345q0 167 75 308.5t204.5 223.5t283.5 82q203 0 305 -145l119 612h363l-299 -1536h-363zM602 737q-98 0 -162.5 -69.5t-64.5 -171.5q0 -86 48.5 -136.5t131.5 -50.5q99 0 166 68t67 168q0 85 -50.5 138.5
t-135.5 53.5z" />
    <glyph glyph-name="e" unicode="e" horiz-adv-x="1181" 
d="M1106 647q0 -96 -43 -231h-678q26 -72 94.5 -110t165.5 -38q163 0 326 82l-58 -293q-164 -80 -366 -80q-236 0 -390.5 135.5t-154.5 360.5q0 168 82.5 305t225 214t315.5 77q210 0 345.5 -117.5t135.5 -304.5zM602 807q-74 0 -127 -48.5t-82 -125.5h363q-2 82 -42 128
t-112 46z" />
    <glyph glyph-name="f" unicode="f" horiz-adv-x="835" 
d="M827 754h-352l-145 -754h-361l211 1098q41 215 183 338t344 123q144 0 274 -74l-59 -295q-78 63 -183 63q-71 0 -125.5 -38t-68.5 -107l-13 -61h353z" />
    <glyph glyph-name="g" unicode="g" horiz-adv-x="1316" 
d="M1053 0q-28 -140 -91.5 -244.5t-153.5 -167t-197.5 -93t-233.5 -30.5q-114 0 -225 37t-197 103l59 317q74 -70 169 -106.5t190 -36.5q127 0 209.5 58.5t107.5 168.5l19 98q-140 -127 -301 -127q-175 0 -291.5 133t-116.5 345q0 167 75 308.5t204.5 223.5t283.5 82
q207 0 305 -145l25 123h362zM602 737q-98 0 -162.5 -69.5t-64.5 -171.5q0 -86 48.5 -136.5t131.5 -50.5q99 0 166 68t67 168q0 85 -50.5 138.5t-135.5 53.5z" />
    <glyph glyph-name="h" unicode="h" horiz-adv-x="1253" 
d="M637 723q-74 0 -132 -56t-73 -137l-102 -530h-361l297 1536h363l-117 -602q129 135 301 135q177 0 264 -123.5t51 -306.5l-122 -639h-363l109 555q14 78 -16 123t-99 45z" />
    <glyph glyph-name="i" unicode="i" horiz-adv-x="595" 
d="M207 1341q0 92 66 151.5t159 59.5q82 0 134 -48.5t52 -123.5q0 -94 -66 -150t-159 -56q-81 0 -133.5 47.5t-52.5 119.5zM-33 0l201 1047h364l-204 -1047h-361z" />
    <glyph glyph-name="j" unicode="j" horiz-adv-x="595" 
d="M393 1174q-81 0 -133.5 47.5t-52.5 119.5q0 92 66 151.5t159 59.5q82 0 134 -48.5t52 -123.5q0 -94 -66 -150t-159 -56zM-162 -535q-158 0 -260 78l55 269q67 -45 154 -45q63 0 106.5 36.5t55.5 102.5l219 1141h364l-225 -1153q-38 -208 -161 -318.5t-308 -110.5z" />
    <glyph glyph-name="k" unicode="k" horiz-adv-x="1245" 
d="M702 0l-182 393l-137 -119l-53 -274h-361l297 1536h363l-158 -811l354 322h439l-473 -414l313 -633h-402z" />
    <glyph glyph-name="l" unicode="l" horiz-adv-x="595" 
d="M-31 0l297 1536h363l-299 -1536h-361z" />
    <glyph glyph-name="m" unicode="m" horiz-adv-x="1869" 
d="M623 723q-71 0 -124 -56t-67 -141l-102 -526h-361l201 1047h362l-20 -107q126 129 287 129q95 0 164.5 -39.5t107.5 -109.5q149 149 346 149q174 0 270.5 -123.5t59.5 -306.5l-123 -639h-362l108 555q12 79 -13 123.5t-89 44.5q-70 0 -122.5 -56.5t-66.5 -140.5h-2
l-100 -526h-363l109 555q14 78 -11.5 123t-88.5 45z" />
    <glyph glyph-name="n" unicode="n" horiz-adv-x="1253" 
d="M637 723q-75 0 -132.5 -56t-72.5 -141l-102 -526h-361l201 1047h362l-22 -115q131 137 303 137q177 0 264 -123.5t51 -306.5l-122 -639h-363l109 555q15 77 -15 122.5t-100 45.5z" />
    <glyph glyph-name="o" unicode="o" horiz-adv-x="1269" 
d="M2 479q0 165 85 301t229.5 212.5t316.5 76.5q234 0 386 -136.5t152 -361.5q0 -122 -49 -232t-133 -189.5t-201.5 -126t-248.5 -46.5q-236 0 -386.5 139.5t-150.5 362.5zM797 549q0 84 -50 136t-135 52q-101 0 -168 -69t-67 -170q0 -84 49 -136.5t135 -52.5
q102 0 169 72.5t67 167.5z" />
    <glyph glyph-name="p" unicode="p" horiz-adv-x="1316" 
d="M651 -23q-195 0 -299 148l-123 -637h-360l301 1559h362l-18 -95q136 117 299 117q179 0 294.5 -135.5t115.5 -345.5q0 -168 -77.5 -309t-209 -221.5t-285.5 -80.5zM662 737q-96 0 -162 -69t-66 -168q0 -84 51 -137.5t136 -53.5q98 0 162.5 69.5t64.5 168.5
q0 83 -50.5 136.5t-135.5 53.5z" />
    <glyph glyph-name="q" unicode="q" horiz-adv-x="1318" 
d="M1255 1047l-305 -1559h-362l119 610q-137 -121 -299 -121q-175 0 -291.5 133t-116.5 345q0 167 75 308.5t204.5 223.5t283.5 82q207 0 305 -145l25 123h362zM602 737q-98 0 -162.5 -69.5t-64.5 -171.5q0 -86 48.5 -136.5t131.5 -50.5q99 0 166 68t67 168
q0 85 -50.5 138.5t-135.5 53.5z" />
    <glyph glyph-name="r" unicode="r" horiz-adv-x="847" 
d="M815 676q-34 11 -74 11t-81.5 -10t-82 -32t-73.5 -52.5t-58 -75.5t-34 -97l-82 -420h-361l201 1047h362l-34 -175q175 197 393 197z" />
    <glyph glyph-name="s" unicode="s" horiz-adv-x="966" 
d="M20 393q79 -76 177.5 -121t183.5 -45q100 0 100 62q0 39 -49 63l-153 76q-99 47 -157.5 117.5t-58.5 179.5t60.5 188t161 117.5t227.5 38.5q196 0 367 -98l-56 -287q-67 67 -150.5 109.5t-156.5 42.5q-48 0 -73 -18.5t-25 -47.5q0 -41 55 -68l162 -79q102 -48 151.5 -116
t49.5 -167q0 -116 -66 -200t-171.5 -123.5t-236.5 -39.5q-110 0 -215 30.5t-182 86.5z" />
    <glyph glyph-name="t" unicode="t" horiz-adv-x="856" 
d="M668 35q-119 -58 -258 -58q-221 0 -322 126.5t-55 340.5l172 887h362l-55 -284h348l-55 -293h-348l-60 -308q-15 -73 21 -113t114 -40q95 0 195 41z" />
    <glyph glyph-name="u" unicode="u" horiz-adv-x="1212" 
d="M700 477l111 570h363l-115 -594q-45 -230 -197.5 -353t-374.5 -123q-110 0 -203 36.5t-155 101.5t-88 161.5t-4 208.5l108 562h363l-111 -574q-14 -75 23 -119.5t102 -44.5q69 0 117 44.5t61 123.5z" />
    <glyph glyph-name="v" unicode="v" horiz-adv-x="1200" 
d="M1255 1047l-809 -1088l-393 1088h396l122 -406l273 406h411z" />
    <glyph glyph-name="w" unicode="w" horiz-adv-x="1687" 
d="M1743 1047l-746 -1088l-209 506l-397 -506l-338 1088h396l116 -400l330 434l174 -436l262 402h412z" />
    <glyph glyph-name="x" unicode="x" horiz-adv-x="1222" 
d="M668 0l-160 279l-248 -279h-403l493 555l-282 492h401l147 -256l230 256h405l-479 -529l297 -518h-401z" />
    <glyph glyph-name="y" unicode="y" horiz-adv-x="1210" 
d="M1266 1047l-1047 -1559h-389l496 745l-273 814h396l129 -439l290 439h398z" />
    <glyph glyph-name="z" unicode="z" horiz-adv-x="1056" 
d="M905 293l-57 -293h-975l586 754h-391l55 293h962l-600 -754h420z" />
    <glyph glyph-name="braceleft" unicode="{" horiz-adv-x="931" 
d="M672 -369h-180q-84 0 -157 31t-122 84t-70.5 129.5t-5.5 161.5l47 246q20 102 -11 169.5t-124 73.5l53 275q94 4 146 53t71 141l46 211q95 412 475 412h219l-58 -295h-94q-155 0 -190 -164l-37 -190q-26 -130 -79 -209t-169 -119q66 -29 96.5 -83.5t28.5 -118.5t-14 -138
l-37 -199q-15 -81 23 -128.5t116 -47.5h84z" />
    <glyph glyph-name="bar" unicode="|" horiz-adv-x="546" 
d="M143 -676h-301l461 2376h301z" />
    <glyph glyph-name="braceright" unicode="}" horiz-adv-x="933" 
d="M205 1618h178q84 0 156.5 -31t121 -84t69.5 -130t5 -163l-43 -245q-11 -64 -6 -117t41 -88t100 -39l-53 -275q-95 -4 -147.5 -53t-71.5 -141l-43 -211q-85 -410 -475 -410h-217l57 295h92q154 0 189 162l39 191q26 130 79 208.5t168 118.5q-66 29 -96.5 83.5t-28.5 118.5
t13 138l37 199q15 82 -23 130t-115 48h-84z" />
    <glyph glyph-name="asciitilde" unicode="~" horiz-adv-x="1347" 
d="M496 971q76 0 206.5 -49.5t206.5 -49.5q166 0 291 107l-57 -297q-116 -96 -285 -96q-77 0 -207.5 48t-204.5 48q-152 0 -299 -117l58 297q130 109 291 109z" />
    <glyph glyph-name="uni00A0" unicode="&#xa0;" horiz-adv-x="450" 
 />
    <glyph glyph-name="exclamdown" unicode="&#xa1;" horiz-adv-x="665" 
d="M377 1069q88 0 143 -53.5t55 -136.5q0 -98 -70.5 -162t-172.5 -64q-88 0 -143.5 54t-55.5 137q0 101 70 163t174 62zM299 -487h-420l78 401l201 612h256l-37 -612z" />
    <glyph glyph-name="cent" unicode="&#xa2;" horiz-adv-x="1028" 
d="M801 39q-111 -46 -217 -57l-41 -213h-316l49 251q-131 56 -204.5 173.5t-73.5 275.5q0 220 133.5 380.5t347.5 205.5l41 215h314l-43 -219q107 -25 190 -82l-68 -330q-58 52 -130.5 80.5t-145.5 28.5q-122 0 -194 -71.5t-72 -174.5q0 -90 61 -144.5t164 -54.5
q131 0 270 74z" />
    <glyph glyph-name="sterling" unicode="&#xa3;" horiz-adv-x="1253" 
d="M1120 330l-65 -330h-1151l63 330h166l57 295h-167l49 258h170l18 96q53 265 233 422.5t433 157.5q191 0 358 -99l-65 -327q-139 90 -281 90q-126 0 -213.5 -71.5t-110.5 -190.5l-14 -78h408l-52 -258h-407l-57 -295h628z" />
    <glyph glyph-name="currency" unicode="&#xa4;" horiz-adv-x="1423" 
d="M713 301q-120 0 -226 45l-155 -158l-195 195l144 143q-64 106 -64 242q0 127 57 229l-137 136l201 198l143 -143q106 47 232 47q130 0 231 -49l150 149l192 -194l-137 -140q59 -100 59 -233q0 -136 -63 -240l137 -137l-199 -201l-151 152q-100 -41 -219 -41zM532 768
q0 -78 51.5 -129t129.5 -51t129 51t51 129t-51 128t-129 50t-129.5 -50t-51.5 -128z" />
    <glyph glyph-name="yen" unicode="&#xa5;" horiz-adv-x="1562" 
d="M1335 324h-432l-61 -324h-379l61 324h-450l45 227h436l-55 137h-355l45 227h220l-250 621h413l232 -629l463 629h432l-471 -621h223l-45 -227h-350l-105 -137h430z" />
    <glyph glyph-name="brokenbar" unicode="&#xa6;" horiz-adv-x="546" 
d="M410 696h-301l194 1004h301zM143 -676h-301l195 1004h301z" />
    <glyph glyph-name="section" unicode="&#xa7;" horiz-adv-x="1304" 
d="M969 -74q0 -138 -76 -244t-205 -161.5t-289 -55.5q-249 0 -473 148l74 348q97 -89 208 -144t216 -55q75 0 124.5 32.5t49.5 99.5q0 74 -84 120l-305 185q-104 63 -157.5 142.5t-53.5 188.5q0 131 78.5 226.5t208.5 138.5q-52 93 -52 203q0 137 75 243t203 162t286 56
q245 0 481 -148l-76 -350q-97 91 -207 146t-217 55q-73 0 -123.5 -33t-50.5 -99q0 -72 84 -124l305 -183q215 -131 215 -329q0 -130 -79.5 -226.5t-210.5 -138.5q51 -91 51 -203zM715 317q21 -8 47 -8q47 0 82 29t35 74q0 64 -76 110l-303 174q-31 17 -62 17q-46 0 -79 -30
t-33 -75q0 -68 73 -108z" />
    <glyph glyph-name="dieresis" unicode="&#xa8;" horiz-adv-x="1134" 
d="M455 1174q-68 0 -111 42t-43 107q0 73 52 120.5t126 47.5q68 0 111 -43t43 -107q0 -73 -52 -120t-126 -47zM872 1174q-68 0 -110.5 42.5t-42.5 106.5q0 73 52 120.5t126 47.5q69 0 111.5 -43t42.5 -107q0 -75 -51.5 -121t-127.5 -46z" />
    <glyph glyph-name="copyright" unicode="&#xa9;" horiz-adv-x="1726" 
d="M860 -23q-229 0 -408.5 100t-279.5 280t-100 409q0 228 100 409t280 282.5t408 101.5q172 0 319.5 -59t251.5 -163.5t163 -252t59 -318.5t-59 -318t-163.5 -250.5t-252 -162t-318.5 -58.5zM860 86q146 0 271 51t212.5 140.5t137 216t49.5 272.5q0 196 -84 351t-237 243
t-349 88q-195 0 -348 -88.5t-236 -243.5t-83 -350q0 -196 83.5 -350.5t235.5 -242t348 -87.5zM891 274q-215 0 -347 141t-132 359q0 215 135.5 353.5t351.5 138.5q138 0 289 -74v-248q-120 88 -268 88q-110 0 -179 -71.5t-69 -184.5q0 -117 68.5 -192.5t179.5 -75.5
q140 0 272 84v-248q-153 -70 -301 -70z" />
    <glyph glyph-name="ordfeminine" unicode="&#xaa;" horiz-adv-x="966" 
d="M608 805l13 65q-91 -84 -203 -84q-121 0 -202 91t-81 243q0 180 113 307t280 127q140 0 207 -96l17 80h252l-142 -733h-254zM391 1153q0 -60 35 -97.5t94 -37.5q69 0 113.5 50t44.5 118q0 59 -34.5 98t-94.5 39q-68 0 -113 -50.5t-45 -119.5zM61 516l31 158h739l-30 -158
h-740z" />
    <glyph glyph-name="guillemotleft" unicode="&#xab;" horiz-adv-x="1347" 
d="M1243 985l-366 -446l268 -437h-359l-260 439l355 444h362zM735 985l-366 -446l268 -437h-358l-261 439l355 444h362z" />
    <glyph glyph-name="logicalnot" unicode="&#xac;" horiz-adv-x="1347" 
d="M1235 1153l-129 -670h-287l74 381h-688l57 289h973z" />
    <glyph glyph-name="uni00AD" unicode="&#xad;" horiz-adv-x="0" 
 />
    <glyph glyph-name="registered" unicode="&#xae;" horiz-adv-x="1726" 
d="M860 -23q-229 0 -408.5 100t-279.5 280t-100 409q0 228 100 409t280 282.5t408 101.5q172 0 319.5 -59t251.5 -163.5t163 -252t59 -318.5t-59 -318t-163.5 -250.5t-252 -162t-318.5 -58.5zM860 86q146 0 271 51t212.5 140.5t137 216t49.5 272.5q0 196 -84 351t-237 243
t-349 88q-195 0 -348 -88.5t-236 -243.5t-83 -350q0 -196 83.5 -350.5t235.5 -242t348 -87.5zM522 293v967h383q148 0 246 -89t98 -237q0 -99 -47 -174.5t-127 -114.5l209 -352h-289l-172 315h-49v-315h-252zM864 1049h-90v-230h90q52 0 87.5 29.5t35.5 85.5q0 57 -35 86
t-88 29z" />
    <glyph glyph-name="macron" unicode="&#xaf;" horiz-adv-x="1226" 
d="M406 1450h702l-49 -256h-701z" />
    <glyph glyph-name="degree" unicode="&#xb0;" horiz-adv-x="989" 
d="M598 1559q177 0 292.5 -112t115.5 -284q0 -127 -65 -232t-175 -163.5t-240 -58.5q-174 0 -287.5 109t-113.5 280q0 192 139 326.5t334 134.5zM389 1116q0 -71 44.5 -116.5t115.5 -45.5q80 0 136 56t56 137q0 70 -43 117t-116 47q-81 0 -137 -57.5t-56 -137.5z" />
    <glyph glyph-name="plusminus" unicode="&#xb1;" horiz-adv-x="1347" 
d="M1192 868h-356l-48 -245h-286l47 245h-354l55 283h356l47 246h287l-47 -246h354zM74 246l55 282h997l-55 -282h-997z" />
    <glyph glyph-name="twosuperior" unicode="&#xb2;" horiz-adv-x="944" 
d="M895 772l-45 -223h-891l483 446q87 80 122.5 125t35.5 94q0 47 -33 75t-92 28q-138 0 -323 -121l53 272q163 91 354 91q150 0 246 -80t96 -205q0 -86 -50.5 -173t-156.5 -196l-135 -133h336z" />
    <glyph glyph-name="threesuperior" unicode="&#xb3;" horiz-adv-x="944" 
d="M879 836q0 -104 -66 -178t-165.5 -107t-219.5 -33q-210 0 -373 98l49 232q70 -50 157 -76.5t163 -26.5q69 0 114.5 25.5t45.5 75.5q0 44 -34 68t-91 26q-81 4 -191 -16l41 204l174 27q120 23 125 94q1 39 -28 59.5t-82 20.5q-70 0 -154 -29t-158 -79l50 249
q152 89 333 89q145 0 237.5 -66.5t92.5 -185.5q0 -78 -40.5 -141t-108.5 -105q60 -33 94.5 -91t34.5 -134z" />
    <glyph glyph-name="acute" unicode="&#xb4;" horiz-adv-x="1226" 
d="M770 1464h440l-379 -286h-307z" />
    <glyph glyph-name="paragraph" unicode="&#xb6;" horiz-adv-x="1302" 
d="M1071 1536l-299 -1536h-364l114 578q-172 2 -291.5 123.5t-119.5 308.5q0 155 76.5 276t209.5 185.5t299 64.5h375zM895 0l299 1536h123l-299 -1536h-123z" />
    <glyph glyph-name="periodcentered" unicode="&#xb7;" horiz-adv-x="733" 
d="M356 625q-82 0 -135 48.5t-53 121.5q0 92 66 150.5t159 58.5q82 0 134.5 -48.5t52.5 -124.5q0 -94 -66.5 -150t-157.5 -56z" />
    <glyph glyph-name="cedilla" unicode="&#xb8;" horiz-adv-x="1048" 
d="M608 -307q0 -72 -47.5 -123.5t-116 -73.5t-147.5 -22q-104 0 -197 49l29 155q67 -43 145 -43q39 0 67 15t28 47q0 27 -20 43t-52 16q-38 0 -84 -16l-31 43l187 287h202l-141 -197q79 -14 128.5 -62.5t49.5 -117.5z" />
    <glyph glyph-name="onesuperior" unicode="&#xb9;" horiz-adv-x="696" 
d="M233 547l129 665l-268 -88l49 244l570 199l-199 -1020h-281z" />
    <glyph glyph-name="ordmasculine" unicode="&#xba;" horiz-adv-x="923" 
d="M942 1200q0 -175 -125.5 -295.5t-310.5 -120.5q-163 0 -266 97.5t-103 255.5q0 179 125 297t311 118q164 0 266.5 -98t102.5 -254zM690 1184q0 63 -37 101t-100 38q-70 0 -116 -50.5t-46 -121.5q0 -63 36.5 -100t96.5 -37q73 0 119.5 50.5t46.5 119.5zM47 516l29 158h739
l-31 -158h-737z" />
    <glyph glyph-name="guillemotright" unicode="&#xbb;" horiz-adv-x="1347" 
d="M733 547l-354 -445h-365l365 451l-264 432h356zM1241 547l-354 -445h-365l365 451l-264 432h356z" />
    <glyph glyph-name="onequarter" unicode="&#xbc;" horiz-adv-x="2492" 
d="M346 547l129 665l-268 -88l49 244l569 199l-198 -1020h-281zM657 0h-315l1350 1536h315zM2267 186h-121l-37 -186h-282l37 186h-582l479 803h279l-340 -592h205l47 240h280l-47 -240h123z" />
    <glyph glyph-name="onehalf" unicode="&#xbd;" horiz-adv-x="2492" 
d="M346 547l129 665l-268 -88l49 244l569 199l-198 -1020h-281zM653 0h-315l1350 1536h315zM2271 225l-45 -223h-891l484 447q86 79 121.5 124.5t35.5 94.5q0 47 -33 74.5t-92 27.5q-138 0 -323 -121l53 273q161 90 354 90q150 0 246 -80t96 -205q0 -86 -50 -173t-156 -196
l-136 -133h336z" />
    <glyph glyph-name="threequarters" unicode="&#xbe;" horiz-adv-x="2564" 
d="M909 836q0 -79 -37.5 -141t-101 -100t-143 -57.5t-168.5 -19.5q-210 0 -373 98l49 232q70 -50 157 -76.5t163 -26.5q69 0 114 25.5t45 75.5q0 44 -34 68t-91 26q-80 4 -190 -16l41 204l174 27q120 23 125 94q1 39 -28 59.5t-83 20.5q-70 0 -153.5 -28.5t-157.5 -79.5
l49 249q75 44 164 66.5t170 22.5q145 0 237.5 -66.5t92.5 -185.5q0 -78 -41 -141t-109 -105q60 -33 94.5 -91t34.5 -134zM766 0h-315l1349 1536h316zM2353 186h-121l-37 -186h-282l37 186h-582l479 803h279l-340 -592h205l47 240h280l-47 -240h123z" />
    <glyph glyph-name="questiondown" unicode="&#xbf;" horiz-adv-x="1196" 
d="M707 1069q88 0 143 -53.5t55 -136.5q0 -98 -70.5 -162t-172.5 -64q-88 0 -143.5 54t-55.5 137q0 101 70 163t174 62zM1016 0q-50 -236 -215.5 -373t-409.5 -137q-222 0 -359.5 111t-137.5 290q0 73 26 136t68.5 110.5t106 88t131 69t149.5 53.5l55 19l49 159h285
l-31 -340l-262 -71q-95 -30 -150 -69.5t-55 -104.5q0 -62 47 -96.5t115 -34.5q84 0 154 51t86 139h348z" />
    <glyph glyph-name="Agrave" unicode="&#xc0;" horiz-adv-x="1603" 
d="M530 1935h424l162 -286h-299zM1038 0l-49 188h-579l-119 -188h-434l1087 1581l506 -1581h-412zM580 457h338l-101 379z" />
    <glyph glyph-name="Aacute" unicode="&#xc1;" horiz-adv-x="1603" 
d="M993 1935h441l-379 -286h-307zM1038 0l-49 188h-579l-119 -188h-434l1087 1581l506 -1581h-412zM580 457h338l-101 379z" />
    <glyph glyph-name="Acircumflex" unicode="&#xc2;" horiz-adv-x="1603" 
d="M1085 1649l-104 114l-154 -114h-305l291 286h393l180 -286h-301zM1038 0l-49 188h-579l-119 -188h-434l1087 1581l506 -1581h-412zM580 457h338l-101 379z" />
    <glyph glyph-name="Atilde" unicode="&#xc3;" horiz-adv-x="1603" 
d="M1096 1640q-52 0 -151 28t-120 28q-30 0 -54 -18t-28 -46h-165q39 312 276 312q51 0 154.5 -29t117.5 -29q31 0 54.5 17.5t27.5 46.5h174q-15 -148 -89 -229t-197 -81zM1038 0l-49 188h-579l-119 -188h-434l1087 1581l506 -1581h-412zM580 457h338l-101 379z" />
    <glyph glyph-name="Adieresis" unicode="&#xc4;" horiz-adv-x="1603" 
d="M764 1645q-68 0 -111 42t-43 107q0 73 52 120.5t126 47.5q68 0 111 -43t43 -107q0 -73 -52 -120t-126 -47zM1182 1645q-68 0 -111 42.5t-43 106.5q0 73 52 120.5t126 47.5q69 0 111.5 -43t42.5 -107q0 -75 -51.5 -121t-126.5 -46zM1038 0l-49 188h-579l-119 -188h-434
l1087 1581l506 -1581h-412zM580 457h338l-101 379z" />
    <glyph glyph-name="Aring" unicode="&#xc5;" horiz-adv-x="1603" 
d="M410 188l-119 -188h-434l1030 1497q-79 15 -125.5 74t-46.5 139q0 112 75.5 183t186.5 71q102 0 167.5 -61.5t65.5 -159.5q0 -105 -68 -173t-169 -77l477 -1493h-412l-49 188h-579zM874 1724q0 -35 22.5 -58.5t57.5 -23.5q39 0 67 26.5t28 66.5q0 34 -22.5 57t-57.5 23
q-39 0 -67 -25.5t-28 -65.5zM580 457h338l-101 379z" />
    <glyph glyph-name="AE" unicode="&#xc6;" horiz-adv-x="2154" 
d="M891 0l37 186h-473l-160 -186h-438l1355 1536h998l-66 -336h-641l-47 -250h559l-65 -334h-559l-56 -284h664l-66 -332h-1042zM686 467h297l90 455z" />
    <glyph glyph-name="Ccedilla" unicode="&#xc7;" horiz-adv-x="1402" 
d="M903 -307q0 -72 -47.5 -123.5t-116 -73.5t-147.5 -22q-104 0 -197 49l29 155q67 -43 145 -43q39 0 67 15t28 47q0 27 -20 43t-52 16q-38 0 -84 -16l-31 43l135 209q-253 47 -401 232t-148 456q0 143 43 276t124 241.5t190 190t247 126.5t289 45q275 0 484 -148l-76 -383
q-84 84 -193 129t-225 45q-140 0 -252.5 -65t-173.5 -174.5t-61 -239.5q0 -173 109.5 -278t293.5 -105q211 0 410 135l-80 -401q-183 -91 -391 -97l-76 -104q79 -14 128.5 -62.5t49.5 -117.5z" />
    <glyph glyph-name="Egrave" unicode="&#xc8;" 
d="M471 1935h424l162 -286h-299zM-12 0l297 1536h1018l-66 -336h-639l-49 -256h559l-66 -332h-559l-53 -280h662l-66 -332h-1038z" />
    <glyph glyph-name="Eacute" unicode="&#xc9;" 
d="M854 1935h440l-379 -286h-307zM-12 0l297 1536h1018l-66 -336h-639l-49 -256h559l-66 -332h-559l-53 -280h662l-66 -332h-1038z" />
    <glyph glyph-name="Ecircumflex" unicode="&#xca;" 
d="M969 1649l-105 114l-153 -114h-305l290 286h394l180 -286h-301zM-12 0l297 1536h1018l-66 -336h-639l-49 -256h559l-66 -332h-559l-53 -280h662l-66 -332h-1038z" />
    <glyph glyph-name="Edieresis" unicode="&#xcb;" 
d="M629 1645q-68 0 -111 42t-43 107q0 73 52 120.5t126 47.5q68 0 111 -43t43 -107q0 -73 -52 -120t-126 -47zM1047 1645q-68 0 -111 42.5t-43 106.5q0 73 52 120.5t126 47.5q69 0 111.5 -43t42.5 -107q0 -75 -51.5 -121t-126.5 -46zM-12 0l297 1536h1018l-66 -336h-639
l-49 -256h559l-66 -332h-559l-53 -280h662l-66 -332h-1038z" />
    <glyph glyph-name="Igrave" unicode="&#xcc;" horiz-adv-x="649" 
d="M98 1935h424l162 -286h-299zM-12 0l297 1536h379l-299 -1536h-377z" />
    <glyph glyph-name="Iacute" unicode="&#xcd;" horiz-adv-x="649" 
d="M549 1935h440l-379 -286h-307zM-12 0l297 1536h379l-299 -1536h-377z" />
    <glyph glyph-name="Icircumflex" unicode="&#xce;" horiz-adv-x="649" 
d="M623 1649l-105 114l-153 -114h-306l291 286h393l181 -286h-301zM-12 0l297 1536h379l-299 -1536h-377z" />
    <glyph glyph-name="Idieresis" unicode="&#xcf;" horiz-adv-x="649" 
d="M299 1645q-68 0 -111 42t-43 107q0 73 52.5 120.5t126.5 47.5q68 0 110.5 -43t42.5 -107q0 -73 -52 -120t-126 -47zM717 1645q-68 0 -111 42.5t-43 106.5q0 73 52 120.5t126 47.5q69 0 111.5 -43t42.5 -107q0 -75 -51.5 -121t-126.5 -46zM-12 0l297 1536h379l-299 -1536
h-377z" />
    <glyph glyph-name="Eth" unicode="&#xd0;" horiz-adv-x="1671" 
d="M61 909h185l123 627h540q202 0 361 -87t247.5 -245t88.5 -360q0 -175 -69.5 -331t-189 -268.5t-287 -178.5t-355.5 -66h-635l123 629h-185zM856 629h-291l-55 -285h207q108 0 201 37.5t156.5 102t99.5 152.5t36 187q0 163 -90.5 265t-247.5 102h-198l-56 -281h291z" />
    <glyph glyph-name="Ntilde" unicode="&#xd1;" horiz-adv-x="1615" 
d="M1090 1638q-52 0 -151 28t-120 28q-30 0 -54 -18t-28 -46h-166q19 152 88.5 232t188.5 80q51 0 154.5 -29t117.5 -29q31 0 54.5 17.5t27.5 46.5h174q-15 -148 -89 -229t-197 -81zM1321 -45l-799 862l-157 -817h-377l305 1581l799 -862l159 817h379z" />
    <glyph glyph-name="Ograve" unicode="&#xd2;" horiz-adv-x="1761" 
d="M633 1935h424l162 -286h-299zM1696 852q0 -178 -70 -340t-189.5 -279t-286.5 -186.5t-353 -69.5q-212 0 -379 88t-261 249t-94 368q0 180 70.5 342t190.5 279.5t287 186.5t352 69q213 0 380 -89t260 -250.5t93 -367.5zM834 336q100 0 188.5 40t149.5 106.5t96 154
t35 180.5q0 171 -106 276t-273 105q-131 0 -239 -66.5t-168 -176.5t-60 -238q0 -170 105.5 -275.5t271.5 -105.5z" />
    <glyph glyph-name="Oacute" unicode="&#xd3;" horiz-adv-x="1761" 
d="M1063 1935h440l-379 -286h-307zM1696 852q0 -178 -70 -340t-189.5 -279t-286.5 -186.5t-353 -69.5q-212 0 -379 88t-261 249t-94 368q0 180 70.5 342t190.5 279.5t287 186.5t352 69q213 0 380 -89t260 -250.5t93 -367.5zM834 336q100 0 188.5 40t149.5 106.5t96 154
t35 180.5q0 171 -106 276t-273 105q-131 0 -239 -66.5t-168 -176.5t-60 -238q0 -170 105.5 -275.5t271.5 -105.5z" />
    <glyph glyph-name="Ocircumflex" unicode="&#xd4;" horiz-adv-x="1761" 
d="M1167 1649l-104 114l-154 -114h-305l291 286h393l180 -286h-301zM1696 852q0 -178 -70 -340t-189.5 -279t-286.5 -186.5t-353 -69.5q-212 0 -379 88t-261 249t-94 368q0 180 70.5 342t190.5 279.5t287 186.5t352 69q213 0 380 -89t260 -250.5t93 -367.5zM834 336
q100 0 188.5 40t149.5 106.5t96 154t35 180.5q0 171 -106 276t-273 105q-131 0 -239 -66.5t-168 -176.5t-60 -238q0 -170 105.5 -275.5t271.5 -105.5z" />
    <glyph glyph-name="Otilde" unicode="&#xd5;" horiz-adv-x="1761" 
d="M1178 1638q-52 0 -151 28t-120 28q-30 0 -54 -18t-28 -46h-166q19 152 88.5 232t188.5 80q51 0 154.5 -29t117.5 -29q31 0 54.5 17.5t27.5 46.5h174q-15 -148 -89 -229t-197 -81zM1696 852q0 -178 -70 -340t-189.5 -279t-286.5 -186.5t-353 -69.5q-212 0 -379 88
t-261 249t-94 368q0 180 70.5 342t190.5 279.5t287 186.5t352 69q213 0 380 -89t260 -250.5t93 -367.5zM834 336q100 0 188.5 40t149.5 106.5t96 154t35 180.5q0 171 -106 276t-273 105q-131 0 -239 -66.5t-168 -176.5t-60 -238q0 -170 105.5 -275.5t271.5 -105.5z" />
    <glyph glyph-name="Odieresis" unicode="&#xd6;" horiz-adv-x="1761" 
d="M850 1645q-68 0 -111 42t-43 107q0 73 52 120.5t126 47.5q68 0 111 -43t43 -107q0 -73 -52 -120t-126 -47zM1268 1645q-68 0 -111 42.5t-43 106.5q0 73 52 120.5t126 47.5q69 0 111.5 -43t42.5 -107q0 -75 -51.5 -121t-126.5 -46zM1696 852q0 -178 -70 -340t-189.5 -279
t-286.5 -186.5t-353 -69.5q-212 0 -379 88t-261 249t-94 368q0 180 70.5 342t190.5 279.5t287 186.5t352 69q213 0 380 -89t260 -250.5t93 -367.5zM834 336q100 0 188.5 40t149.5 106.5t96 154t35 180.5q0 171 -106 276t-273 105q-131 0 -239 -66.5t-168 -176.5t-60 -238
q0 -170 105.5 -275.5t271.5 -105.5z" />
    <glyph glyph-name="multiply" unicode="&#xd7;" horiz-adv-x="1347" 
d="M1108 494l-225 -191l-234 289l-327 -289l-177 215l330 289l-219 272l223 191l217 -269l318 277l176 -213l-318 -279z" />
    <glyph glyph-name="Oslash" unicode="&#xd8;" horiz-adv-x="1767" 
d="M1698 854q0 -178 -70.5 -340t-190 -280t-286.5 -187.5t-352 -69.5q-281 0 -473 150l-146 -127h-348l338 297q-104 162 -104 385q0 180 70.5 342t190 279.5t286 186.5t350.5 69q278 0 477 -150l145 127h350l-342 -299q105 -164 105 -383zM461 717q0 -81 24 -146l652 572
q-93 55 -209 55q-132 0 -240 -66.5t-167.5 -176.5t-59.5 -238zM1305 823q0 71 -23 142l-655 -574q93 -55 209 -55q133 0 242 69t168 180t59 238z" />
    <glyph glyph-name="Ugrave" unicode="&#xd9;" horiz-adv-x="1568" 
d="M551 1935h424l162 -286h-299zM104 664l170 872h379l-178 -907q-25 -123 41 -210t195 -87q127 0 214.5 81.5t114.5 211.5l174 911h377l-178 -922q-56 -293 -251.5 -465t-489.5 -172q-121 0 -224 34.5t-175 96.5t-119.5 148t-58.5 189t9 219z" />
    <glyph glyph-name="Uacute" unicode="&#xda;" horiz-adv-x="1568" 
d="M975 1935h440l-379 -286h-307zM104 664l170 872h379l-178 -907q-25 -123 41 -210t195 -87q127 0 214.5 81.5t114.5 211.5l174 911h377l-178 -922q-56 -293 -251.5 -465t-489.5 -172q-121 0 -224 34.5t-175 96.5t-119.5 148t-58.5 189t9 219z" />
    <glyph glyph-name="Ucircumflex" unicode="&#xdb;" horiz-adv-x="1568" 
d="M1077 1649l-104 114l-154 -114h-305l291 286h393l180 -286h-301zM104 664l170 872h379l-178 -907q-25 -123 41 -210t195 -87q127 0 214.5 81.5t114.5 211.5l174 911h377l-178 -922q-56 -293 -251.5 -465t-489.5 -172q-121 0 -224 34.5t-175 96.5t-119.5 148t-58.5 189
t9 219z" />
    <glyph glyph-name="Udieresis" unicode="&#xdc;" horiz-adv-x="1568" 
d="M756 1645q-68 0 -111 42t-43 107q0 73 52 120.5t126 47.5q68 0 111 -43t43 -107q0 -73 -52 -120t-126 -47zM1174 1645q-68 0 -111 42.5t-43 106.5q0 73 52 120.5t126 47.5q69 0 111.5 -43t42.5 -107q0 -75 -51.5 -121t-126.5 -46zM104 664l170 872h379l-178 -907
q-25 -123 41 -210t195 -87q127 0 214.5 81.5t114.5 211.5l174 911h377l-178 -922q-56 -293 -251.5 -465t-489.5 -172q-121 0 -224 34.5t-175 96.5t-119.5 148t-58.5 189t9 219z" />
    <glyph glyph-name="Yacute" unicode="&#xdd;" horiz-adv-x="1550" 
d="M985 1935h440l-378 -286h-308zM1696 1536l-756 -993l-104 -543h-379l102 524l-405 1012h413l232 -629l463 629h434z" />
    <glyph glyph-name="Thorn" unicode="&#xde;" horiz-adv-x="1368" 
d="M633 201h-230l-38 -201h-377l297 1536h379l-39 -205h133q157 0 280.5 -60t195 -174.5t71.5 -265.5q0 -128 -52 -244t-141 -201t-214 -135t-265 -50zM709 1010h-148l-94 -488h160q122 0 202 82t80 197q0 94 -54 151.5t-146 57.5z" />
    <glyph glyph-name="germandbls" unicode="&#xdf;" horiz-adv-x="1363" 
d="M326 0h-361l197 1022q50 260 196.5 398.5t380.5 138.5q192 0 305 -88.5t113 -227.5q0 -94 -63 -213l-56 -104q-4 -7 -14 -23t-14 -23.5t-11 -20.5t-10 -21t-5.5 -19t-2.5 -20q0 -22 12 -39t41 -45l86 -76q71 -65 103 -127.5t32 -138.5q0 -181 -133 -288.5t-340 -107.5
q-85 0 -173.5 19.5t-149.5 58.5l61 301q145 -114 266 -114q45 0 73 20t28 55q0 44 -41 74l-117 88q-63 48 -93 94.5t-30 102.5q0 75 70 203l65 120q66 116 66 166q0 43 -31 70t-78 27q-64 0 -105.5 -51t-55.5 -132z" />
    <glyph glyph-name="agrave" unicode="&#xe0;" horiz-adv-x="1316" 
d="M377 1464h424l162 -286h-299zM688 0l21 102q-138 -125 -301 -125q-175 0 -291.5 133t-116.5 345q0 167 75 308.5t204.5 223.5t283.5 82q207 0 305 -145l25 123h362l-204 -1047h-363zM602 737q-98 0 -162.5 -69.5t-64.5 -171.5q0 -86 48.5 -136.5t131.5 -50.5q99 0 166 68
t67 168q0 85 -50.5 138.5t-135.5 53.5z" />
    <glyph glyph-name="aacute" unicode="&#xe1;" horiz-adv-x="1316" 
d="M778 1464h441l-379 -286h-308zM688 0l21 102q-138 -125 -301 -125q-175 0 -291.5 133t-116.5 345q0 167 75 308.5t204.5 223.5t283.5 82q207 0 305 -145l25 123h362l-204 -1047h-363zM602 737q-98 0 -162.5 -69.5t-64.5 -171.5q0 -86 48.5 -136.5t131.5 -50.5
q99 0 166 68t67 168q0 85 -50.5 138.5t-135.5 53.5z" />
    <glyph glyph-name="acircumflex" unicode="&#xe2;" horiz-adv-x="1316" 
d="M893 1178l-105 114l-153 -114h-305l291 286h393l180 -286h-301zM688 0l21 102q-138 -125 -301 -125q-175 0 -291.5 133t-116.5 345q0 167 75 308.5t204.5 223.5t283.5 82q207 0 305 -145l25 123h362l-204 -1047h-363zM602 737q-98 0 -162.5 -69.5t-64.5 -171.5
q0 -86 48.5 -136.5t131.5 -50.5q99 0 166 68t67 168q0 85 -50.5 138.5t-135.5 53.5z" />
    <glyph glyph-name="atilde" unicode="&#xe3;" horiz-adv-x="1316" 
d="M897 1180q-52 0 -150.5 27.5t-119.5 27.5q-30 0 -54 -18t-28 -46h-166q39 312 276 312q51 0 155 -29t118 -29q31 0 54.5 17.5t27.5 46.5h174q-15 -148 -89.5 -228.5t-197.5 -80.5zM688 0l21 102q-138 -125 -301 -125q-175 0 -291.5 133t-116.5 345q0 167 75 308.5
t204.5 223.5t283.5 82q207 0 305 -145l25 123h362l-204 -1047h-363zM602 737q-98 0 -162.5 -69.5t-64.5 -171.5q0 -86 48.5 -136.5t131.5 -50.5q99 0 166 68t67 168q0 85 -50.5 138.5t-135.5 53.5z" />
    <glyph glyph-name="adieresis" unicode="&#xe4;" horiz-adv-x="1316" 
d="M555 1174q-68 0 -111 42t-43 107q0 73 52.5 120.5t126.5 47.5q68 0 110.5 -43t42.5 -107q0 -73 -52 -120t-126 -47zM973 1174q-68 0 -111 42.5t-43 106.5q0 73 52 120.5t126 47.5q69 0 111.5 -43t42.5 -107q0 -75 -51.5 -121t-126.5 -46zM688 0l21 102
q-138 -125 -301 -125q-175 0 -291.5 133t-116.5 345q0 167 75 308.5t204.5 223.5t283.5 82q207 0 305 -145l25 123h362l-204 -1047h-363zM602 737q-98 0 -162.5 -69.5t-64.5 -171.5q0 -86 48.5 -136.5t131.5 -50.5q99 0 166 68t67 168q0 85 -50.5 138.5t-135.5 53.5z" />
    <glyph glyph-name="aring" unicode="&#xe5;" horiz-adv-x="1316" 
d="M795 1612q102 0 167.5 -61.5t65.5 -159.5q0 -113 -79 -182.5t-189 -69.5q-103 0 -165.5 62t-62.5 157q0 112 76 183t187 71zM692 1372q0 -35 22.5 -58.5t57.5 -23.5q39 0 66.5 26t27.5 66q0 34 -22.5 57t-57.5 23q-39 0 -66.5 -25t-27.5 -65zM688 0l21 102
q-138 -125 -301 -125q-175 0 -291.5 133t-116.5 345q0 167 75 308.5t204.5 223.5t283.5 82q207 0 305 -145l25 123h362l-204 -1047h-363zM602 737q-98 0 -162.5 -69.5t-64.5 -171.5q0 -86 48.5 -136.5t131.5 -50.5q99 0 166 68t67 168q0 85 -50.5 138.5t-135.5 53.5z" />
    <glyph glyph-name="ae" unicode="&#xe6;" horiz-adv-x="1779" 
d="M1509 59q-157 -82 -358 -82q-116 0 -219 36t-172 110q-214 -146 -428 -146q-161 0 -267 82.5t-106 227.5q0 112 59.5 191t157 116t223.5 37h242q0 11 -4 31q-9 58 -59.5 90t-124.5 32q-173 0 -351 -114l60 309q82 43 181.5 66.5t193.5 23.5q223 0 346 -131
q69 66 163 98.5t193 32.5q199 0 330 -120.5t131 -303.5q0 -47 -12.5 -114.5t-28.5 -114.5h-670q9 -30 27 -54q66 -94 237 -94q140 0 314 80zM1206 807q-77 0 -130.5 -48t-76.5 -126h351q2 8 2 22q-2 66 -42 109t-104 43zM442 231q119 0 224 78q-19 60 -25 115h-188
q-53 0 -87 -27.5t-34 -74.5q0 -41 30 -66t80 -25z" />
    <glyph glyph-name="ccedilla" unicode="&#xe7;" horiz-adv-x="1034" 
d="M643 -307q0 -72 -47.5 -123.5t-116 -73.5t-147.5 -22q-104 0 -197 49l29 155q67 -43 145 -43q39 0 66.5 15t27.5 47q0 27 -20 43t-51 16q-38 0 -84 -16l-31 43l139 213q-166 41 -260 167t-94 306q0 169 82.5 307t226 215.5t318.5 77.5q212 0 358 -100l-67 -330
q-58 52 -131 80.5t-146 28.5q-122 0 -194 -71.5t-72 -174.5q0 -90 61 -144.5t164 -54.5q131 0 270 74l-67 -338q-135 -56 -264 -62l-76 -104q79 -14 128.5 -62.5t49.5 -117.5z" />
    <glyph glyph-name="egrave" unicode="&#xe8;" horiz-adv-x="1181" 
d="M260 1464h424l162 -286h-299zM1106 647q0 -96 -43 -231h-678q26 -72 94.5 -110t165.5 -38q163 0 326 82l-58 -293q-164 -80 -366 -80q-236 0 -390.5 135.5t-154.5 360.5q0 168 82.5 305t225 214t315.5 77q210 0 345.5 -117.5t135.5 -304.5zM602 807q-74 0 -127 -48.5
t-82 -125.5h363q-2 82 -42 128t-112 46z" />
    <glyph glyph-name="eacute" unicode="&#xe9;" horiz-adv-x="1181" 
d="M694 1464h441l-379 -286h-307zM1106 647q0 -96 -43 -231h-678q26 -72 94.5 -110t165.5 -38q163 0 326 82l-58 -293q-164 -80 -366 -80q-236 0 -390.5 135.5t-154.5 360.5q0 168 82.5 305t225 214t315.5 77q210 0 345.5 -117.5t135.5 -304.5zM602 807q-74 0 -127 -48.5
t-82 -125.5h363q-2 82 -42 128t-112 46z" />
    <glyph glyph-name="ecircumflex" unicode="&#xea;" horiz-adv-x="1181" 
d="M801 1178l-105 114l-153 -114h-305l290 286h394l180 -286h-301zM1106 647q0 -96 -43 -231h-678q26 -72 94.5 -110t165.5 -38q163 0 326 82l-58 -293q-164 -80 -366 -80q-236 0 -390.5 135.5t-154.5 360.5q0 168 82.5 305t225 214t315.5 77q210 0 345.5 -117.5
t135.5 -304.5zM602 807q-74 0 -127 -48.5t-82 -125.5h363q-2 82 -42 128t-112 46z" />
    <glyph glyph-name="edieresis" unicode="&#xeb;" horiz-adv-x="1181" 
d="M477 1174q-68 0 -110.5 42t-42.5 107q0 73 52 120.5t126 47.5q68 0 110.5 -43t42.5 -107q0 -73 -52 -120t-126 -47zM895 1174q-68 0 -111 42.5t-43 106.5q0 73 52.5 120.5t126.5 47.5q69 0 111 -43t42 -107q0 -75 -51.5 -121t-126.5 -46zM1106 647q0 -96 -43 -231h-678
q26 -72 94.5 -110t165.5 -38q163 0 326 82l-58 -293q-164 -80 -366 -80q-236 0 -390.5 135.5t-154.5 360.5q0 168 82.5 305t225 214t315.5 77q210 0 345.5 -117.5t135.5 -304.5zM602 807q-74 0 -127 -48.5t-82 -125.5h363q-2 82 -42 128t-112 46z" />
    <glyph glyph-name="igrave" unicode="&#xec;" horiz-adv-x="595" 
d="M-25 1464h424l162 -286h-299zM-31 0l201 1047h362l-202 -1047h-361z" />
    <glyph glyph-name="iacute" unicode="&#xed;" horiz-adv-x="595" 
d="M438 1464h441l-379 -286h-307zM-31 0l201 1047h362l-202 -1047h-361z" />
    <glyph glyph-name="icircumflex" unicode="&#xee;" horiz-adv-x="595" 
d="M508 1178l-105 114l-153 -114h-305l291 286h393l180 -286h-301zM-31 0l201 1047h362l-202 -1047h-361z" />
    <glyph glyph-name="idieresis" unicode="&#xef;" horiz-adv-x="595" 
d="M188 1174q-68 0 -110.5 42t-42.5 107q0 73 52 120.5t126 47.5q68 0 111 -43t43 -107q0 -73 -52.5 -120t-126.5 -47zM606 1174q-68 0 -110.5 42.5t-42.5 106.5q0 73 52 120.5t126 47.5q69 0 111 -43t42 -107q0 -75 -51.5 -121t-126.5 -46zM-31 0l201 1047h362l-202 -1047
h-361z" />
    <glyph glyph-name="eth" unicode="&#xf0;" horiz-adv-x="1220" 
d="M1155 797q0 -139 -29 -263.5t-86 -226t-138 -175.5t-189.5 -114.5t-235.5 -40.5q-212 0 -348.5 126t-136.5 321q0 228 150 379t378 151q152 0 277 -96q0 32 -4 78q-17 127 -101 211l-125 -107h-325l250 211q-85 21 -185 21l53 278q226 0 396 -75l88 75h323l-229 -194
q152 -143 199 -375q18 -103 18 -184zM563 670q-88 0 -146.5 -55.5t-58.5 -143.5q0 -70 46.5 -116t119.5 -46q88 0 147.5 58.5t59.5 142.5q0 69 -47.5 114.5t-120.5 45.5z" />
    <glyph glyph-name="ntilde" unicode="&#xf1;" horiz-adv-x="1253" 
d="M858 1180q-52 0 -150.5 27.5t-119.5 27.5q-30 0 -54 -18t-28 -46h-166q39 312 276 312q51 0 155 -29t118 -29q31 0 54.5 17.5t27.5 46.5h174q-15 -148 -89.5 -228.5t-197.5 -80.5zM637 723q-75 0 -132.5 -56t-72.5 -141l-102 -526h-361l201 1047h362l-22 -115
q131 137 303 137q177 0 264 -123.5t51 -306.5l-122 -639h-363l109 555q15 77 -15 122.5t-100 45.5z" />
    <glyph glyph-name="ograve" unicode="&#xf2;" horiz-adv-x="1269" 
d="M272 1464h424l162 -286h-299zM2 479q0 165 85 301t229.5 212.5t316.5 76.5q234 0 386 -136.5t152 -361.5q0 -122 -49 -232t-133 -189.5t-201.5 -126t-248.5 -46.5q-236 0 -386.5 139.5t-150.5 362.5zM797 549q0 84 -50 136t-135 52q-101 0 -168 -69t-67 -170
q0 -84 49 -136.5t135 -52.5q102 0 169 72.5t67 167.5z" />
    <glyph glyph-name="oacute" unicode="&#xf3;" horiz-adv-x="1269" 
d="M715 1464h440l-379 -286h-307zM2 479q0 165 85 301t229.5 212.5t316.5 76.5q234 0 386 -136.5t152 -361.5q0 -122 -49 -232t-133 -189.5t-201.5 -126t-248.5 -46.5q-236 0 -386.5 139.5t-150.5 362.5zM797 549q0 84 -50 136t-135 52q-101 0 -168 -69t-67 -170
q0 -84 49 -136.5t135 -52.5q102 0 169 72.5t67 167.5z" />
    <glyph glyph-name="ocircumflex" unicode="&#xf4;" horiz-adv-x="1269" 
d="M825 1178l-104 114l-154 -114h-305l291 286h393l180 -286h-301zM2 479q0 165 85 301t229.5 212.5t316.5 76.5q234 0 386 -136.5t152 -361.5q0 -122 -49 -232t-133 -189.5t-201.5 -126t-248.5 -46.5q-236 0 -386.5 139.5t-150.5 362.5zM797 549q0 84 -50 136t-135 52
q-101 0 -168 -69t-67 -170q0 -84 49 -136.5t135 -52.5q102 0 169 72.5t67 167.5z" />
    <glyph glyph-name="otilde" unicode="&#xf5;" horiz-adv-x="1269" 
d="M834 1169q-52 0 -151 28t-120 28q-30 0 -54 -18t-28 -46h-166q19 152 88.5 232t188.5 80q51 0 154.5 -29t117.5 -29q31 0 54.5 17.5t27.5 46.5h174q-15 -148 -89 -229t-197 -81zM2 479q0 165 85 301t229.5 212.5t316.5 76.5q234 0 386 -136.5t152 -361.5q0 -122 -49 -232
t-133 -189.5t-201.5 -126t-248.5 -46.5q-236 0 -386.5 139.5t-150.5 362.5zM797 549q0 84 -50 136t-135 52q-101 0 -168 -69t-67 -170q0 -84 49 -136.5t135 -52.5q102 0 169 72.5t67 167.5z" />
    <glyph glyph-name="odieresis" unicode="&#xf6;" horiz-adv-x="1269" 
d="M512 1174q-68 0 -111 42t-43 107q0 73 52.5 120.5t126.5 47.5q68 0 110.5 -43t42.5 -107q0 -73 -52 -120t-126 -47zM930 1174q-68 0 -111 42.5t-43 106.5q0 73 52 120.5t126 47.5q69 0 111.5 -43t42.5 -107q0 -75 -51.5 -121t-126.5 -46zM2 479q0 165 85 301t229.5 212.5
t316.5 76.5q234 0 386 -136.5t152 -361.5q0 -122 -49 -232t-133 -189.5t-201.5 -126t-248.5 -46.5q-236 0 -386.5 139.5t-150.5 362.5zM797 549q0 84 -50 136t-135 52q-101 0 -168 -69t-67 -170q0 -84 49 -136.5t135 -52.5q102 0 169 72.5t67 167.5z" />
    <glyph glyph-name="divide" unicode="&#xf7;" horiz-adv-x="1347" 
d="M590 1235q10 68 61 107.5t123 39.5q74 0 119 -49t35 -121q-10 -66 -61.5 -105.5t-123.5 -39.5q-73 0 -117.5 48.5t-35.5 119.5zM154 651l55 289h997l-57 -289h-995zM426 385q10 68 61 106.5t123 38.5q74 0 119 -48.5t35 -121.5q-10 -66 -61 -104.5t-123 -38.5
q-75 0 -119 48.5t-35 119.5z" />
    <glyph glyph-name="oslash" unicode="&#xf8;" horiz-adv-x="1361" 
d="M1214 571q0 -122 -49 -232t-132.5 -189.5t-201 -126t-249.5 -46.5q-189 0 -332 97l-92 -74h-338l289 231q-62 111 -62 248q0 165 84.5 301t228.5 212.5t316 76.5q194 0 336 -96l94 74h342l-291 -236q57 -105 57 -240zM422 498q0 -30 6 -54l334 265q-45 28 -107 28
q-99 0 -166 -69.5t-67 -169.5zM840 549q0 31 -6 55l-334 -266q47 -29 104 -29q102 0 169 72.5t67 167.5z" />
    <glyph glyph-name="ugrave" unicode="&#xf9;" horiz-adv-x="1212" 
d="M293 1464h424l162 -286h-299zM700 477l111 570h363l-115 -594q-45 -230 -197.5 -353t-374.5 -123q-110 0 -203 36.5t-155 101.5t-88 161.5t-4 208.5l108 562h363l-111 -574q-14 -75 23 -119.5t102 -44.5q69 0 117 44.5t61 123.5z" />
    <glyph glyph-name="uacute" unicode="&#xfa;" horiz-adv-x="1212" 
d="M721 1464h440l-379 -286h-307zM700 477l111 570h363l-115 -594q-45 -230 -197.5 -353t-374.5 -123q-110 0 -203 36.5t-155 101.5t-88 161.5t-4 208.5l108 562h363l-111 -574q-14 -75 23 -119.5t102 -44.5q69 0 117 44.5t61 123.5z" />
    <glyph glyph-name="ucircumflex" unicode="&#xfb;" horiz-adv-x="1212" 
d="M813 1178l-104 114l-154 -114h-305l291 286h393l180 -286h-301zM700 477l111 570h363l-115 -594q-45 -230 -197.5 -353t-374.5 -123q-110 0 -203 36.5t-155 101.5t-88 161.5t-4 208.5l108 562h363l-111 -574q-14 -75 23 -119.5t102 -44.5q69 0 117 44.5t61 123.5z" />
    <glyph glyph-name="udieresis" unicode="&#xfc;" horiz-adv-x="1212" 
d="M494 1174q-68 0 -111 42t-43 107q0 73 52 120.5t126 47.5q68 0 111 -43t43 -107q0 -73 -52 -120t-126 -47zM911 1174q-68 0 -110.5 42.5t-42.5 106.5q0 73 52 120.5t126 47.5q69 0 111.5 -43t42.5 -107q0 -75 -51.5 -121t-127.5 -46zM700 477l111 570h363l-115 -594
q-45 -230 -197.5 -353t-374.5 -123q-110 0 -203 36.5t-155 101.5t-88 161.5t-4 208.5l108 562h363l-111 -574q-14 -75 23 -119.5t102 -44.5q69 0 117 44.5t61 123.5z" />
    <glyph glyph-name="yacute" unicode="&#xfd;" horiz-adv-x="1210" 
d="M719 1464h440l-379 -286h-307zM1266 1047l-1047 -1559h-389l496 745l-273 814h396l129 -439l290 439h398z" />
    <glyph glyph-name="thorn" unicode="&#xfe;" horiz-adv-x="1318" 
d="M651 -23q-196 0 -297 146l-125 -635h-360l397 2048h363l-113 -582q131 115 297 115q179 0 294.5 -135.5t115.5 -345.5q0 -168 -77.5 -309t-209 -221.5t-285.5 -80.5zM662 737q-96 0 -162 -69t-66 -168q0 -84 51 -137.5t136 -53.5q98 0 162.5 69.5t64.5 168.5
q0 83 -50.5 136.5t-135.5 53.5z" />
    <glyph glyph-name="ydieresis" unicode="&#xff;" horiz-adv-x="1210" 
d="M489 1174q-68 0 -110.5 42t-42.5 107q0 73 52 120.5t126 47.5q68 0 111 -43t43 -107q0 -73 -52.5 -120t-126.5 -47zM907 1174q-68 0 -110.5 42.5t-42.5 106.5q0 73 52 120.5t126 47.5q69 0 111 -43t42 -107q0 -75 -51.5 -121t-126.5 -46zM1266 1047l-1047 -1559h-389
l496 745l-273 814h396l129 -439l290 439h398z" />
    <glyph glyph-name="Amacron" unicode="&#x100;" horiz-adv-x="1603" 
d="M649 1921h703l-49 -256h-701zM1038 0l-49 188h-579l-119 -188h-434l1087 1581l506 -1581h-412zM580 457h338l-101 379z" />
    <glyph glyph-name="amacron" unicode="&#x101;" horiz-adv-x="1316" 
d="M451 1450h702l-49 -256h-701zM688 0l21 102q-138 -125 -301 -125q-175 0 -291.5 133t-116.5 345q0 167 75 308.5t204.5 223.5t283.5 82q207 0 305 -145l25 123h362l-204 -1047h-363zM602 737q-98 0 -162.5 -69.5t-64.5 -171.5q0 -86 48.5 -136.5t131.5 -50.5q99 0 166 68
t67 168q0 85 -50.5 138.5t-135.5 53.5z" />
    <glyph glyph-name="Abreve" unicode="&#x102;" horiz-adv-x="1603" 
d="M983 1851q44 0 77.5 27t45.5 70h256q-34 -148 -143.5 -234t-262.5 -86q-151 0 -245 88.5t-84 231.5h254q-3 -43 26 -70t76 -27zM1038 0l-49 188h-579l-119 -188h-434l1087 1581l506 -1581h-412zM580 457h338l-101 379z" />
    <glyph glyph-name="abreve" unicode="&#x103;" horiz-adv-x="1316" 
d="M793 1380q44 0 77 27t45 70h256q-34 -149 -143 -234.5t-262 -85.5q-151 0 -245.5 88.5t-84.5 231.5h254q-3 -43 26.5 -70t76.5 -27zM688 0l21 102q-138 -125 -301 -125q-175 0 -291.5 133t-116.5 345q0 167 75 308.5t204.5 223.5t283.5 82q207 0 305 -145l25 123h362
l-204 -1047h-363zM602 737q-98 0 -162.5 -69.5t-64.5 -171.5q0 -86 48.5 -136.5t131.5 -50.5q99 0 166 68t67 168q0 85 -50.5 138.5t-135.5 53.5z" />
    <glyph glyph-name="Aogonek" unicode="&#x104;" horiz-adv-x="1603" 
d="M1221 -496q-91 -32 -154 -32q-106 0 -173.5 58t-64.5 159q6 189 207 319l-47 180h-579l-119 -188h-434l1087 1581l506 -1581h-133q-92 -39 -152 -101.5t-57 -140.5q1 -33 24 -52t58 -19q36 0 70 12zM580 457h338l-101 379z" />
    <glyph glyph-name="aogonek" unicode="&#x105;" horiz-adv-x="1316" 
d="M877 -496q-91 -32 -154 -32q-106 0 -173.5 58t-64.5 159q6 186 205 317l19 96q-138 -125 -301 -125q-175 0 -291.5 133t-116.5 345q0 167 75 308.5t204.5 223.5t283.5 82q207 0 305 -145l25 123h362l-204 -1047h-78q-92 -39 -152 -101.5t-57 -140.5q1 -33 24 -52t58 -19
q34 0 69 12zM602 737q-98 0 -162.5 -69.5t-64.5 -171.5q0 -86 48.5 -136.5t131.5 -50.5q99 0 166 68t67 168q0 85 -50.5 138.5t-135.5 53.5z" />
    <glyph glyph-name="Cacute" unicode="&#x106;" horiz-adv-x="1402" 
d="M1020 1935h440l-379 -286h-307zM1440 1411l-76 -383q-84 84 -193 129t-225 45q-140 0 -252.5 -65t-173.5 -174.5t-61 -239.5q0 -173 109.5 -278t293.5 -105q211 0 410 135l-80 -401q-193 -97 -416 -97q-320 0 -516.5 194.5t-196.5 508.5q0 143 43 276t124 241.5t190 190
t247 126.5t289 45q275 0 484 -148z" />
    <glyph glyph-name="cacute" unicode="&#x107;" horiz-adv-x="1034" 
d="M698 1464h441l-379 -286h-307zM377 502q0 -90 61 -144.5t164 -54.5q131 0 270 74l-67 -338q-146 -62 -295 -62q-230 0 -369 136t-139 356q0 169 82.5 307t226 215.5t318.5 77.5q212 0 358 -100l-67 -330q-58 52 -131 80.5t-146 28.5q-122 0 -194 -71.5t-72 -174.5z" />
    <glyph glyph-name="Ccircumflex" unicode="&#x108;" horiz-adv-x="1402" 
d="M1090 1649l-105 114l-154 -114h-305l291 286h393l181 -286h-301zM1440 1411l-76 -383q-84 84 -193 129t-225 45q-140 0 -252.5 -65t-173.5 -174.5t-61 -239.5q0 -173 109.5 -278t293.5 -105q211 0 410 135l-80 -401q-193 -97 -416 -97q-320 0 -516.5 194.5t-196.5 508.5
q0 143 43 276t124 241.5t190 190t247 126.5t289 45q275 0 484 -148z" />
    <glyph glyph-name="ccircumflex" unicode="&#x109;" horiz-adv-x="1034" 
d="M791 1178l-105 114l-154 -114h-305l291 286h393l181 -286h-301zM377 502q0 -90 61 -144.5t164 -54.5q131 0 270 74l-67 -338q-146 -62 -295 -62q-230 0 -369 136t-139 356q0 169 82.5 307t226 215.5t318.5 77.5q212 0 358 -100l-67 -330q-58 52 -131 80.5t-146 28.5
q-122 0 -194 -71.5t-72 -174.5z" />
    <glyph glyph-name="Cdotaccent" unicode="&#x10a;" horiz-adv-x="1402" 
d="M991 1645q-83 0 -135.5 48t-52.5 122q0 90 66 149t159 59q82 0 134 -49t52 -125q0 -93 -66 -148.5t-157 -55.5zM1440 1411l-76 -383q-84 84 -193 129t-225 45q-140 0 -252.5 -65t-173.5 -174.5t-61 -239.5q0 -173 109.5 -278t293.5 -105q211 0 410 135l-80 -401
q-193 -97 -416 -97q-320 0 -516.5 194.5t-196.5 508.5q0 143 43 276t124 241.5t190 190t247 126.5t289 45q275 0 484 -148z" />
    <glyph glyph-name="cdotaccent" unicode="&#x10b;" horiz-adv-x="1034" 
d="M698 1174q-83 0 -135.5 47.5t-52.5 121.5q0 90 66 149.5t159 59.5q82 0 134.5 -49t52.5 -125q0 -93 -66.5 -148.5t-157.5 -55.5zM377 502q0 -90 61 -144.5t164 -54.5q131 0 270 74l-67 -338q-146 -62 -295 -62q-230 0 -369 136t-139 356q0 169 82.5 307t226 215.5
t318.5 77.5q212 0 358 -100l-67 -330q-58 52 -131 80.5t-146 28.5q-122 0 -194 -71.5t-72 -174.5z" />
    <glyph glyph-name="Ccaron" unicode="&#x10c;" horiz-adv-x="1402" 
d="M1464 1935l-290 -286h-394l-180 286h299l107 -114l151 114h307zM1440 1411l-76 -383q-84 84 -193 129t-225 45q-140 0 -252.5 -65t-173.5 -174.5t-61 -239.5q0 -173 109.5 -278t293.5 -105q211 0 410 135l-80 -401q-193 -97 -416 -97q-320 0 -516.5 194.5t-196.5 508.5
q0 143 43 276t124 241.5t190 190t247 126.5t289 45q275 0 484 -148z" />
    <glyph glyph-name="ccaron" unicode="&#x10d;" horiz-adv-x="1034" 
d="M1153 1464l-291 -286h-393l-180 286h299l106 -114l152 114h307zM377 502q0 -90 61 -144.5t164 -54.5q131 0 270 74l-67 -338q-146 -62 -295 -62q-230 0 -369 136t-139 356q0 169 82.5 307t226 215.5t318.5 77.5q212 0 358 -100l-67 -330q-58 52 -131 80.5t-146 28.5
q-122 0 -194 -71.5t-72 -174.5z" />
    <glyph glyph-name="Dcaron" unicode="&#x10e;" horiz-adv-x="1585" 
d="M1372 1935l-291 -286h-393l-180 286h299l106 -114l152 114h307zM-12 0l297 1536h538q203 0 361.5 -87t247 -245t88.5 -360q0 -175 -69.5 -331t-189 -268.5t-287 -178.5t-356.5 -66h-630zM786 1190h-196l-164 -846h207q216 0 354.5 138t138.5 341q0 163 -91 265t-249 102z
" />
    <glyph glyph-name="dcaron" unicode="&#x10f;" horiz-adv-x="1622" 
d="M688 0l21 102q-138 -125 -301 -125q-175 0 -291.5 133t-116.5 345q0 167 75 308.5t204.5 223.5t283.5 82q203 0 305 -145l119 612h363l-299 -1536h-363zM1567 1122h-215l141 414h319zM602 737q-98 0 -162.5 -69.5t-64.5 -171.5q0 -86 48.5 -136.5t131.5 -50.5
q99 0 166 68t67 168q0 85 -50.5 138.5t-135.5 53.5z" />
    <glyph glyph-name="Dcroat" unicode="&#x110;" horiz-adv-x="1656" 
d="M53 909h183l122 627h541q162 0 298.5 -59.5t227.5 -161.5t134.5 -245t25.5 -304q-37 -340 -285.5 -553t-605.5 -213h-635l123 629h-182zM846 629h-291l-55 -285h207q207 0 340.5 121.5t148.5 318.5q18 173 -74 289.5t-260 116.5h-198l-56 -281h291z" />
    <glyph glyph-name="dcroat" unicode="&#x111;" horiz-adv-x="1323" 
d="M686 0l19 98q-137 -121 -299 -121q-174 0 -290 133t-116 345q0 167 74.5 308.5t203.5 223.5t283 82q203 0 305 -145l49 254h-223l41 219h225l27 139h363l-27 -139h143l-41 -219h-145l-229 -1178h-363zM600 737q-98 0 -162.5 -69.5t-64.5 -171.5q0 -86 48.5 -136.5
t131.5 -50.5q98 0 165.5 68t67.5 168q0 85 -50.5 138.5t-135.5 53.5z" />
    <glyph glyph-name="Emacron" unicode="&#x112;" 
d="M518 1921h703l-50 -256h-700zM-12 0l297 1536h1018l-66 -336h-639l-49 -256h559l-66 -332h-559l-53 -280h662l-66 -332h-1038z" />
    <glyph glyph-name="emacron" unicode="&#x113;" horiz-adv-x="1181" 
d="M356 1450h703l-49 -256h-701zM1106 647q0 -96 -43 -231h-678q26 -72 94.5 -110t165.5 -38q163 0 326 82l-58 -293q-164 -80 -366 -80q-236 0 -390.5 135.5t-154.5 360.5q0 168 82.5 305t225 214t315.5 77q210 0 345.5 -117.5t135.5 -304.5zM602 807q-74 0 -127 -48.5
t-82 -125.5h363q-2 82 -42 128t-112 46z" />
    <glyph glyph-name="Ebreve" unicode="&#x114;" 
d="M862 1851q44 0 77.5 27t45.5 70h256q-34 -149 -143 -234.5t-262 -85.5q-151 0 -245.5 88.5t-84.5 231.5h254q-3 -43 26 -70t76 -27zM-12 0l297 1536h1018l-66 -336h-639l-49 -256h559l-66 -332h-559l-53 -280h662l-66 -332h-1038z" />
    <glyph glyph-name="ebreve" unicode="&#x115;" horiz-adv-x="1181" 
d="M713 1380q44 0 77.5 27t45.5 70h256q-34 -148 -143.5 -234t-262.5 -86q-151 0 -245.5 88.5t-84.5 231.5h254q-3 -43 26.5 -70t76.5 -27zM1106 647q0 -96 -43 -231h-678q26 -72 94.5 -110t165.5 -38q163 0 326 82l-58 -293q-164 -80 -366 -80q-236 0 -390.5 135.5
t-154.5 360.5q0 168 82.5 305t225 214t315.5 77q210 0 345.5 -117.5t135.5 -304.5zM602 807q-74 0 -127 -48.5t-82 -125.5h363q-2 82 -42 128t-112 46z" />
    <glyph glyph-name="Edotaccent" unicode="&#x116;" 
d="M842 1645q-83 0 -136 48t-53 122q0 90 66.5 149t159.5 59q82 0 134 -49t52 -125q0 -93 -66 -148.5t-157 -55.5zM-12 0l297 1536h1018l-66 -336h-639l-49 -256h559l-66 -332h-559l-53 -280h662l-66 -332h-1038z" />
    <glyph glyph-name="edotaccent" unicode="&#x117;" horiz-adv-x="1181" 
d="M690 1174q-83 0 -135.5 47.5t-52.5 121.5q0 90 66 149.5t159 59.5q82 0 134 -49t52 -125q0 -93 -66 -148.5t-157 -55.5zM1106 647q0 -96 -43 -231h-678q26 -72 94.5 -110t165.5 -38q163 0 326 82l-58 -293q-164 -80 -366 -80q-236 0 -390.5 135.5t-154.5 360.5
q0 168 82.5 305t225 214t315.5 77q210 0 345.5 -117.5t135.5 -304.5zM602 807q-74 0 -127 -48.5t-82 -125.5h363q-2 82 -42 128t-112 46z" />
    <glyph glyph-name="Eogonek" unicode="&#x118;" 
d="M-12 0l297 1536h1018l-66 -336h-639l-49 -256h559l-66 -332h-559l-53 -280h662l-66 -332q-92 -39 -152 -101.5t-57 -140.5q1 -33 24 -52t58 -19t70 12l-39 -195q-91 -32 -154 -32q-106 0 -173 58t-64 159q6 181 194 311h-745z" />
    <glyph glyph-name="eogonek" unicode="&#x119;" horiz-adv-x="1179" 
d="M1104 647q0 -96 -43 -231h-678q26 -72 94.5 -110t165.5 -38q163 0 326 82l-58 -293q-92 -45 -161 -130.5t-66 -164.5q0 -34 23.5 -53.5t58.5 -19.5q36 0 70 12l-37 -195q-91 -32 -158 -32q-105 0 -171.5 58t-63.5 159q6 163 165 286h-26q-154 0 -276.5 59t-194.5 173
t-72 264q0 168 82.5 305t224.5 214t314 77q211 0 346 -117.5t135 -304.5zM600 807q-74 0 -127 -48.5t-82 -125.5h365q-2 82 -43 128t-113 46z" />
    <glyph glyph-name="Ecaron" unicode="&#x11a;" 
d="M1311 1935l-291 -286h-393l-181 286h299l107 -114l152 114h307zM-12 0l297 1536h1018l-66 -336h-639l-49 -256h559l-66 -332h-559l-53 -280h662l-66 -332h-1038z" />
    <glyph glyph-name="ecaron" unicode="&#x11b;" horiz-adv-x="1181" 
d="M1163 1464l-291 -286h-393l-180 286h299l107 -114l151 114h307zM1106 647q0 -96 -43 -231h-678q26 -72 94.5 -110t165.5 -38q163 0 326 82l-58 -293q-164 -80 -366 -80q-236 0 -390.5 135.5t-154.5 360.5q0 168 82.5 305t225 214t315.5 77q210 0 345.5 -117.5
t135.5 -304.5zM602 807q-74 0 -127 -48.5t-82 -125.5h363q-2 82 -42 128t-112 46z" />
    <glyph glyph-name="Gcircumflex" unicode="&#x11c;" horiz-adv-x="1572" 
d="M1112 1649l-104 114l-154 -114h-305l291 286h393l180 -286h-301zM1352 131q-124 -75 -275 -114.5t-295 -39.5q-220 0 -384.5 92t-249.5 251.5t-85 363.5q0 180 68 341.5t186 279t284.5 186t354.5 68.5q281 0 502 -150l-78 -379q-86 86 -200 129t-230 43
q-146 0 -259.5 -66.5t-173.5 -177t-60 -243.5q0 -171 101 -280t278 -109q103 0 194 36l47 240h-282l53 277h649z" />
    <glyph glyph-name="gcircumflex" unicode="&#x11d;" horiz-adv-x="1314" 
d="M858 1178l-104 114l-154 -114h-305l291 286h393l180 -286h-301zM1053 0q-28 -140 -91.5 -244.5t-153.5 -167t-197.5 -93t-233.5 -30.5q-114 0 -225 37t-197 103l59 317q74 -70 169 -106.5t190 -36.5q127 0 209.5 58.5t107.5 168.5l19 98q-140 -127 -301 -127
q-175 0 -291.5 133t-116.5 345q0 167 75 308.5t204.5 223.5t283.5 82q207 0 305 -145l25 123h362zM602 737q-98 0 -162.5 -69.5t-64.5 -171.5q0 -86 48.5 -136.5t131.5 -50.5q99 0 166 68t67 168q0 85 -50.5 138.5t-135.5 53.5z" />
    <glyph glyph-name="Gbreve" unicode="&#x11e;" horiz-adv-x="1572" 
d="M1026 1851q44 0 77.5 27t45.5 70h256q-34 -148 -143.5 -234t-262.5 -86q-151 0 -245 88.5t-84 231.5h254q-3 -43 26 -70t76 -27zM1352 131q-124 -75 -275 -114.5t-295 -39.5q-220 0 -384.5 92t-249.5 251.5t-85 363.5q0 180 68 341.5t186 279t284.5 186t354.5 68.5
q281 0 502 -150l-78 -379q-86 86 -200 129t-230 43q-146 0 -259.5 -66.5t-173.5 -177t-60 -243.5q0 -171 101 -280t278 -109q103 0 194 36l47 240h-282l53 277h649z" />
    <glyph glyph-name="gbreve" unicode="&#x11f;" horiz-adv-x="1314" 
d="M770 1380q44 0 77.5 27t45.5 70h256q-34 -148 -143.5 -234t-262.5 -86q-151 0 -245 88.5t-84 231.5h254q-3 -43 26 -70t76 -27zM1053 0q-28 -140 -91.5 -244.5t-153.5 -167t-197.5 -93t-233.5 -30.5q-114 0 -225 37t-197 103l59 317q74 -70 169 -106.5t190 -36.5
q127 0 209.5 58.5t107.5 168.5l19 98q-140 -127 -301 -127q-175 0 -291.5 133t-116.5 345q0 167 75 308.5t204.5 223.5t283.5 82q207 0 305 -145l25 123h362zM602 737q-98 0 -162.5 -69.5t-64.5 -171.5q0 -86 48.5 -136.5t131.5 -50.5q99 0 166 68t67 168q0 85 -50.5 138.5
t-135.5 53.5z" />
    <glyph glyph-name="Gdotaccent" unicode="&#x120;" horiz-adv-x="1572" 
d="M1006 1645q-83 0 -136 48t-53 122q0 90 66 149t159 59q82 0 134.5 -49t52.5 -125q0 -93 -66 -148.5t-157 -55.5zM1352 131q-124 -75 -275 -114.5t-295 -39.5q-220 0 -384.5 92t-249.5 251.5t-85 363.5q0 180 68 341.5t186 279t284.5 186t354.5 68.5q281 0 502 -150
l-78 -379q-86 86 -200 129t-230 43q-146 0 -259.5 -66.5t-173.5 -177t-60 -243.5q0 -171 101 -280t278 -109q103 0 194 36l47 240h-282l53 277h649z" />
    <glyph glyph-name="gdotaccent" unicode="&#x121;" horiz-adv-x="1314" 
d="M750 1174q-83 0 -136 47.5t-53 121.5q0 90 66 149.5t159 59.5q82 0 134.5 -49t52.5 -125q0 -93 -66 -148.5t-157 -55.5zM1053 0q-28 -140 -91.5 -244.5t-153.5 -167t-197.5 -93t-233.5 -30.5q-114 0 -225 37t-197 103l59 317q74 -70 169 -106.5t190 -36.5
q127 0 209.5 58.5t107.5 168.5l19 98q-140 -127 -301 -127q-175 0 -291.5 133t-116.5 345q0 167 75 308.5t204.5 223.5t283.5 82q207 0 305 -145l25 123h362zM602 737q-98 0 -162.5 -69.5t-64.5 -171.5q0 -86 48.5 -136.5t131.5 -50.5q99 0 166 68t67 168q0 85 -50.5 138.5
t-135.5 53.5z" />
    <glyph glyph-name="Gcommaaccent" unicode="&#x122;" horiz-adv-x="1572" 
d="M1352 131q-124 -75 -275 -114.5t-295 -39.5q-220 0 -384.5 92t-249.5 251.5t-85 363.5q0 180 68 341.5t186 279t284.5 186t354.5 68.5q281 0 502 -150l-78 -379q-86 86 -200 129t-230 43q-146 0 -259.5 -66.5t-173.5 -177t-60 -243.5q0 -171 101 -280t278 -109
q103 0 194 36l47 240h-282l53 277h649zM553 -111h334l-307 -374h-209z" />
    <glyph glyph-name="gcommaaccent" unicode="&#x123;" horiz-adv-x="1314" 
d="M864 1552h213l-186 -376h-332zM1053 0q-28 -140 -91.5 -244.5t-153.5 -167t-197.5 -93t-233.5 -30.5q-114 0 -225 37t-197 103l59 317q74 -70 169 -106.5t190 -36.5q127 0 209.5 58.5t107.5 168.5l19 98q-140 -127 -301 -127q-175 0 -291.5 133t-116.5 345
q0 167 75 308.5t204.5 223.5t283.5 82q207 0 305 -145l25 123h362zM602 737q-98 0 -162.5 -69.5t-64.5 -171.5q0 -86 48.5 -136.5t131.5 -50.5q99 0 166 68t67 168q0 85 -50.5 138.5t-135.5 53.5z" />
    <glyph glyph-name="Hcircumflex" unicode="&#x124;" horiz-adv-x="1619" 
d="M1112 1649l-104 114l-154 -114h-305l291 286h393l180 -286h-301zM956 0l121 621h-592l-120 -621h-377l297 1536h379l-113 -580h592l112 580h379l-299 -1536h-379z" />
    <glyph glyph-name="hcircumflex" unicode="&#x125;" horiz-adv-x="1253" 
d="M903 1649l-104 114l-154 -114h-305l291 286h393l180 -286h-301zM637 723q-74 0 -132 -56t-73 -137l-102 -530h-361l297 1536h363l-117 -602q129 135 301 135q177 0 264 -123.5t51 -306.5l-122 -639h-363l109 555q14 78 -16 123t-99 45z" />
    <glyph glyph-name="Hbar" unicode="&#x126;" horiz-adv-x="1619" 
d="M956 0l121 621h-592l-120 -621h-377l219 1139h-131l43 219h131l35 178h379l-35 -178h592l34 178h379l-35 -178h132l-43 -219h-132l-221 -1139h-379zM551 956h592l35 183h-592z" />
    <glyph glyph-name="hbar" unicode="&#x127;" horiz-adv-x="1253" 
d="M637 723q-76 0 -132.5 -55.5t-70.5 -135.5l-104 -532h-361l228 1178h-156l43 219h156l26 139h363l-27 -139h215l-41 -219h-217l-47 -244q138 135 309 135q176 0 259.5 -123t47.5 -307l-122 -639h-363l109 555q14 76 -15 122t-100 46z" />
    <glyph glyph-name="Itilde" unicode="&#x128;" horiz-adv-x="649" 
d="M643 1640q-52 0 -150.5 28t-119.5 28q-30 0 -54 -18t-28 -46h-166q39 312 276 312q51 0 155 -29t118 -29q31 0 54.5 17.5t27.5 46.5h174q-15 -148 -89.5 -229t-197.5 -81zM-12 0l297 1536h379l-299 -1536h-377z" />
    <glyph glyph-name="itilde" unicode="&#x129;" horiz-adv-x="595" 
d="M520 1180q-52 0 -150.5 27.5t-119.5 27.5q-30 0 -54 -18t-28 -46h-166q19 152 88.5 232t188.5 80q51 0 154.5 -29t117.5 -29q31 0 54.5 17.5t27.5 46.5h174q-15 -148 -89.5 -228.5t-197.5 -80.5zM-31 0l201 1047h362l-202 -1047h-361z" />
    <glyph glyph-name="Imacron" unicode="&#x12a;" horiz-adv-x="649" 
d="M193 1921h702l-49 -256h-701zM-12 0l297 1536h379l-299 -1536h-377z" />
    <glyph glyph-name="imacron" unicode="&#x12b;" horiz-adv-x="595" 
d="M80 1450h702l-49 -256h-700zM-31 0l201 1047h362l-202 -1047h-361z" />
    <glyph glyph-name="Ibreve" unicode="&#x12c;" horiz-adv-x="649" 
d="M539 1851q44 0 77.5 27t45.5 70h256q-34 -148 -143.5 -234t-262.5 -86q-151 0 -245.5 88.5t-84.5 231.5h254q-3 -43 26.5 -70t76.5 -27zM-12 0l297 1536h379l-299 -1536h-377z" />
    <glyph glyph-name="ibreve" unicode="&#x12d;" horiz-adv-x="595" 
d="M424 1380q44 0 77.5 27t45.5 70h256q-34 -148 -143.5 -234t-262.5 -86q-151 0 -245 88.5t-84 231.5h254q-3 -43 26 -70t76 -27zM-31 0l201 1047h362l-202 -1047h-361z" />
    <glyph glyph-name="Iogonek" unicode="&#x12e;" horiz-adv-x="649" 
d="M176 -496q-91 -32 -153 -32q-106 0 -173.5 58t-64.5 159q6 186 205 317l295 1530h379l-299 -1536h-93q-92 -39 -152 -101.5t-57 -140.5q1 -33 24 -52t58 -19t70 12z" />
    <glyph glyph-name="iogonek" unicode="&#x12f;" horiz-adv-x="595" 
d="M207 1341q0 92 66 151.5t159 59.5q82 0 134 -48.5t52 -123.5q0 -94 -66 -150t-159 -56q-81 0 -133.5 47.5t-52.5 119.5zM154 -496q-91 -32 -154 -32q-106 0 -173.5 58t-64.5 159q6 186 207 319l199 1039h364l-204 -1047h-78q-92 -39 -152 -101.5t-57 -140.5q1 -33 24 -52
t58 -19t70 12z" />
    <glyph glyph-name="Idotaccent" unicode="&#x130;" horiz-adv-x="649" 
d="M514 1645q-83 0 -135.5 48t-52.5 122q0 90 66 149t159 59q82 0 134 -49t52 -125q0 -93 -66 -148.5t-157 -55.5zM-12 0l297 1536h379l-299 -1536h-377z" />
    <glyph glyph-name="dotlessi" unicode="&#x131;" horiz-adv-x="595" 
d="M-31 0l201 1047h362l-202 -1047h-361z" />
    <glyph glyph-name="IJ" unicode="&#x132;" horiz-adv-x="1624" 
d="M-12 0l297 1536h379l-299 -1536h-377zM874 -23q-169 0 -319 97l61 321q48 -38 110 -59t120 -21q91 0 152 50.5t79 148.5l199 1022h379l-201 -1032q-22 -116 -63.5 -207t-95.5 -150.5t-122.5 -98t-141.5 -55t-157 -16.5z" />
    <glyph glyph-name="ij" unicode="&#x133;" horiz-adv-x="1198" 
d="M207 1341q0 92 66 151.5t159 59.5q82 0 134 -48.5t52 -123.5q0 -94 -66 -150t-159 -56q-81 0 -133.5 47.5t-52.5 119.5zM993 1174q-81 0 -133.5 47.5t-52.5 119.5q0 92 66 151.5t159 59.5q82 0 134.5 -48.5t52.5 -123.5q0 -94 -66.5 -150t-159.5 -56zM-33 0l201 1047h364
l-204 -1047h-361zM438 -535q-158 0 -260 78l55 269q67 -45 154 -45q63 0 106.5 36.5t55.5 102.5l219 1141h365l-226 -1153q-38 -208 -161 -318.5t-308 -110.5z" />
    <glyph glyph-name="Jcircumflex" unicode="&#x134;" horiz-adv-x="974" 
d="M971 1649l-105 114l-153 -114h-305l290 286h394l180 -286h-301zM225 -23q-169 0 -319 97l61 321q48 -38 110 -59t120 -21q91 0 152 50.5t79 148.5l199 1022h379l-201 -1032q-22 -116 -63.5 -207t-95.5 -150.5t-122.5 -98t-141.5 -55t-157 -16.5z" />
    <glyph glyph-name="jcircumflex" unicode="&#x135;" horiz-adv-x="595" 
d="M508 1178l-105 114l-153 -114h-305l291 286h393l180 -286h-301zM-162 -535q-158 0 -260 78l55 269q67 -45 154 -45q63 0 106.5 36.5t55.5 102.5l219 1141h364l-225 -1153q-38 -208 -161 -318.5t-308 -110.5z" />
    <glyph glyph-name="Kcommaaccent" unicode="&#x136;" horiz-adv-x="1531" 
d="M956 0l-294 596l-224 -217l-73 -379h-377l297 1536h379l-121 -616l618 616h471l-692 -672l444 -864h-428zM449 -111h333l-307 -374h-209z" />
    <glyph glyph-name="kcommaaccent" unicode="&#x137;" horiz-adv-x="1245" 
d="M702 0l-182 393l-137 -119l-53 -274h-361l297 1536h363l-158 -811l354 322h439l-473 -414l313 -633h-402zM307 -111h334l-307 -374h-209z" />
    <glyph glyph-name="Lacute" unicode="&#x139;" horiz-adv-x="1185" 
d="M602 1935h440l-378 -286h-308zM1059 338l-66 -338h-1005l297 1536h379l-234 -1198h629z" />
    <glyph glyph-name="lacute" unicode="&#x13a;" horiz-adv-x="595" 
d="M528 1935h441l-379 -286h-307zM-31 0l297 1536h363l-299 -1536h-361z" />
    <glyph glyph-name="Lcommaaccent" unicode="&#x13b;" horiz-adv-x="1185" 
d="M1059 338l-66 -338h-1005l297 1536h379l-234 -1198h629zM340 -111h334l-307 -374h-209z" />
    <glyph glyph-name="lcommaaccent" unicode="&#x13c;" horiz-adv-x="595" 
d="M-31 0l297 1536h363l-299 -1536h-361zM-20 -111h333l-307 -374h-209z" />
    <glyph glyph-name="Lcaron" unicode="&#x13d;" horiz-adv-x="1185" 
d="M1059 338l-66 -338h-1005l297 1536h379l-234 -1198h629zM922 1122h-215l141 414h319z" />
    <glyph glyph-name="lcaron" unicode="&#x13e;" horiz-adv-x="909" 
d="M-31 0l297 1536h363l-299 -1536h-361zM854 1122h-215l141 414h320z" />
    <glyph glyph-name="Ldot" unicode="&#x13f;" horiz-adv-x="1185" 
d="M1059 338l-66 -338h-1005l297 1536h379l-234 -1198h629zM905 709q-82 0 -135 48.5t-53 121.5q0 92 66 150t159 58q82 0 134 -48t52 -124q0 -94 -66 -150t-157 -56z" />
    <glyph glyph-name="ldot" unicode="&#x140;" horiz-adv-x="954" 
d="M-31 0l297 1536h363l-299 -1536h-361zM766 598q-82 0 -135 48.5t-53 121.5q0 92 66 150.5t159 58.5q82 0 134 -48t52 -124q0 -94 -66 -150.5t-157 -56.5z" />
    <glyph glyph-name="Lslash" unicode="&#x141;" horiz-adv-x="1255" 
d="M1128 338l-65 -338h-1008l95 481l-228 -135l62 322l227 133l143 735h379l-94 -487l250 145l-62 -309l-249 -150l-78 -397h628z" />
    <glyph glyph-name="lslash" unicode="&#x142;" horiz-adv-x="780" 
d="M776 793l-223 -136l-129 -657h-363l80 412l-213 -127l62 313l213 125l157 813h363l-111 -571l224 131z" />
    <glyph glyph-name="Nacute" unicode="&#x143;" horiz-adv-x="1615" 
d="M967 1935h440l-379 -286h-307zM1321 -45l-799 862l-157 -817h-377l305 1581l799 -862l159 817h379z" />
    <glyph glyph-name="nacute" unicode="&#x144;" horiz-adv-x="1253" 
d="M741 1464h441l-379 -286h-307zM637 723q-75 0 -132.5 -56t-72.5 -141l-102 -526h-361l201 1047h362l-22 -115q131 137 303 137q177 0 264 -123.5t51 -306.5l-122 -639h-363l109 555q15 77 -15 122.5t-100 45.5z" />
    <glyph glyph-name="Ncommaaccent" unicode="&#x145;" horiz-adv-x="1615" 
d="M1321 -45l-799 862l-157 -817h-377l305 1581l799 -862l159 817h379zM528 -111h334l-307 -374h-209z" />
    <glyph glyph-name="ncommaaccent" unicode="&#x146;" horiz-adv-x="1253" 
d="M637 723q-75 0 -132.5 -56t-72.5 -141l-102 -526h-361l201 1047h362l-22 -115q131 137 303 137q177 0 264 -123.5t51 -306.5l-122 -639h-363l109 555q15 77 -15 122.5t-100 45.5zM311 -111h334l-307 -374h-209z" />
    <glyph glyph-name="Ncaron" unicode="&#x147;" horiz-adv-x="1615" 
d="M1425 1935l-290 -286h-394l-180 286h299l107 -114l151 114h307zM1321 -45l-799 862l-157 -817h-377l305 1581l799 -862l159 817h379z" />
    <glyph glyph-name="ncaron" unicode="&#x148;" horiz-adv-x="1253" 
d="M1206 1464l-291 -286h-393l-180 286h299l107 -114l151 114h307zM637 723q-75 0 -132.5 -56t-72.5 -141l-102 -526h-361l201 1047h362l-22 -115q131 137 303 137q177 0 264 -123.5t51 -306.5l-122 -639h-363l109 555q15 77 -15 122.5t-100 45.5z" />
    <glyph glyph-name="Omacron" unicode="&#x14c;" horiz-adv-x="1761" 
d="M741 1921h703l-49 -256h-701zM1696 852q0 -178 -70 -340t-189.5 -279t-286.5 -186.5t-353 -69.5q-212 0 -379 88t-261 249t-94 368q0 180 70.5 342t190.5 279.5t287 186.5t352 69q213 0 380 -89t260 -250.5t93 -367.5zM834 336q100 0 188.5 40t149.5 106.5t96 154
t35 180.5q0 171 -106 276t-273 105q-131 0 -239 -66.5t-168 -176.5t-60 -238q0 -170 105.5 -275.5t271.5 -105.5z" />
    <glyph glyph-name="omacron" unicode="&#x14d;" horiz-adv-x="1269" 
d="M395 1450h703l-49 -256h-701zM2 479q0 165 85 301t229.5 212.5t316.5 76.5q234 0 386 -136.5t152 -361.5q0 -122 -49 -232t-133 -189.5t-201.5 -126t-248.5 -46.5q-236 0 -386.5 139.5t-150.5 362.5zM797 549q0 84 -50 136t-135 52q-101 0 -168 -69t-67 -170
q0 -84 49 -136.5t135 -52.5q102 0 169 72.5t67 167.5z" />
    <glyph glyph-name="Obreve" unicode="&#x14e;" horiz-adv-x="1761" 
d="M1085 1851q44 0 77.5 27t45.5 70h256q-34 -149 -143 -234.5t-262 -85.5q-151 0 -245.5 88.5t-84.5 231.5h254q-3 -43 26 -70t76 -27zM1696 852q0 -178 -70 -340t-189.5 -279t-286.5 -186.5t-353 -69.5q-212 0 -379 88t-261 249t-94 368q0 180 70.5 342t190.5 279.5
t287 186.5t352 69q213 0 380 -89t260 -250.5t93 -367.5zM834 336q100 0 188.5 40t149.5 106.5t96 154t35 180.5q0 171 -106 276t-273 105q-131 0 -239 -66.5t-168 -176.5t-60 -238q0 -170 105.5 -275.5t271.5 -105.5z" />
    <glyph glyph-name="obreve" unicode="&#x14f;" horiz-adv-x="1269" 
d="M739 1380q44 0 77.5 27t45.5 70h256q-34 -149 -143 -234.5t-262 -85.5q-151 0 -245.5 88.5t-84.5 231.5h254q-3 -43 26 -70t76 -27zM2 479q0 165 85 301t229.5 212.5t316.5 76.5q234 0 386 -136.5t152 -361.5q0 -122 -49 -232t-133 -189.5t-201.5 -126t-248.5 -46.5
q-236 0 -386.5 139.5t-150.5 362.5zM797 549q0 84 -50 136t-135 52q-101 0 -168 -69t-67 -170q0 -84 49 -136.5t135 -52.5q102 0 169 72.5t67 167.5z" />
    <glyph glyph-name="Ohungarumlaut" unicode="&#x150;" horiz-adv-x="1761" 
d="M911 1649h-241l215 286h344zM1309 1649h-244l219 286h350zM1696 852q0 -178 -70 -340t-189.5 -279t-286.5 -186.5t-353 -69.5q-212 0 -379 88t-261 249t-94 368q0 180 70.5 342t190.5 279.5t287 186.5t352 69q213 0 380 -89t260 -250.5t93 -367.5zM834 336
q100 0 188.5 40t149.5 106.5t96 154t35 180.5q0 171 -106 276t-273 105q-131 0 -239 -66.5t-168 -176.5t-60 -238q0 -170 105.5 -275.5t271.5 -105.5z" />
    <glyph glyph-name="ohungarumlaut" unicode="&#x151;" horiz-adv-x="1269" 
d="M573 1178h-241l215 286h344zM971 1178h-244l219 286h350zM2 479q0 165 85 301t229.5 212.5t316.5 76.5q234 0 386 -136.5t152 -361.5q0 -122 -49 -232t-133 -189.5t-201.5 -126t-248.5 -46.5q-236 0 -386.5 139.5t-150.5 362.5zM797 549q0 84 -50 136t-135 52
q-101 0 -168 -69t-67 -170q0 -84 49 -136.5t135 -52.5q102 0 169 72.5t67 167.5z" />
    <glyph glyph-name="OE" unicode="&#x152;" horiz-adv-x="2121" 
d="M63 686q0 176 69.5 333.5t189.5 271t289 179.5t360 66h1204l-66 -336h-639l-49 -250h559l-63 -334h-559l-55 -284h661l-63 -332h-1141q-206 0 -365 86.5t-245.5 242.5t-86.5 357zM797 344h129l164 846h-138q-218 0 -356.5 -140.5t-138.5 -347.5q0 -161 89.5 -259.5
t250.5 -98.5z" />
    <glyph glyph-name="oe" unicode="&#x153;" horiz-adv-x="1972" 
d="M1343 -23q-239 0 -401 150q-184 -150 -414 -150q-229 0 -377.5 139t-148.5 361q0 123 49.5 233t134 188.5t200 124.5t243.5 46q229 0 377 -151q171 151 405 151q210 0 345.5 -117.5t135.5 -304.5q0 -96 -43 -231h-669q9 -27 24 -51q33 -47 96 -72t142 -25q152 0 315 82
l-57 -293q-164 -80 -357 -80zM1540 633v14q2 69 -38.5 114.5t-110.5 45.5q-69 0 -122 -46t-81 -128h352zM563 309q101 0 166.5 72t65.5 168q0 82 -49.5 135t-135.5 53q-99 0 -166 -69.5t-67 -169.5q0 -84 50 -136.5t136 -52.5z" />
    <glyph glyph-name="Racute" unicode="&#x154;" horiz-adv-x="1376" 
d="M836 1935h440l-379 -286h-307zM-12 0l297 1536h524q236 0 382 -132t146 -343q0 -180 -108.5 -320t-288.5 -209l260 -532h-422l-209 475h-112l-92 -475h-377zM752 1214h-152l-80 -417h152q116 0 194 68.5t78 168.5q0 81 -52 130.5t-140 49.5z" />
    <glyph glyph-name="racute" unicode="&#x155;" horiz-adv-x="847" 
d="M569 1464h441l-379 -286h-307zM815 676q-34 11 -74 11t-81.5 -10t-82 -32t-73.5 -52.5t-58 -75.5t-34 -97l-82 -420h-361l201 1047h362l-34 -175q175 197 393 197z" />
    <glyph glyph-name="Rcommaaccent" unicode="&#x156;" horiz-adv-x="1376" 
d="M-12 0l297 1536h524q236 0 382 -132t146 -343q0 -180 -108.5 -320t-288.5 -209l260 -532h-422l-209 475h-112l-92 -475h-377zM752 1214h-152l-80 -417h152q116 0 194 68.5t78 168.5q0 81 -52 130.5t-140 49.5zM375 -111h334l-308 -374h-208z" />
    <glyph glyph-name="rcommaaccent" unicode="&#x157;" horiz-adv-x="847" 
d="M815 676q-34 11 -74 11t-81.5 -10t-82 -32t-73.5 -52.5t-58 -75.5t-34 -97l-82 -420h-361l201 1047h362l-34 -175q175 197 393 197zM-27 -111h334l-307 -374h-209z" />
    <glyph glyph-name="Rcaron" unicode="&#x158;" horiz-adv-x="1376" 
d="M1282 1935l-291 -286h-393l-180 286h299l106 -114l152 114h307zM-12 0l297 1536h524q236 0 382 -132t146 -343q0 -180 -108.5 -320t-288.5 -209l260 -532h-422l-209 475h-112l-92 -475h-377zM752 1214h-152l-80 -417h152q116 0 194 68.5t78 168.5q0 81 -52 130.5
t-140 49.5z" />
    <glyph glyph-name="rcaron" unicode="&#x159;" horiz-adv-x="847" 
d="M1061 1464l-291 -286h-393l-180 286h299l106 -114l152 114h307zM815 676q-34 11 -74 11t-81.5 -10t-82 -32t-73.5 -52.5t-58 -75.5t-34 -97l-82 -420h-361l201 1047h362l-34 -175q175 197 393 197z" />
    <glyph glyph-name="Sacute" unicode="&#x15a;" horiz-adv-x="1306" 
d="M864 1935h441l-379 -286h-308zM723 1249q-76 0 -125 -30.5t-49 -92.5q0 -77 86 -122l283 -148q137 -73 204.5 -168.5t67.5 -222.5q0 -147 -84.5 -259.5t-225 -170.5t-311.5 -58q-152 0 -300 49t-263 146l78 369q116 -113 254.5 -182.5t269.5 -69.5q83 0 138 31t55 96
q0 73 -84 119l-277 139q-286 141 -286 411q0 216 164.5 345t416.5 129q275 0 520 -154l-77 -365q-108 95 -226 152t-229 57z" />
    <glyph glyph-name="sacute" unicode="&#x15b;" horiz-adv-x="968" 
d="M598 1464h440l-379 -286h-307zM20 393q79 -76 177.5 -121t183.5 -45q100 0 100 62q0 39 -49 63l-153 76q-99 47 -157.5 117.5t-58.5 179.5t60.5 188t161 117.5t227.5 38.5q196 0 367 -98l-56 -287q-67 67 -150.5 109.5t-156.5 42.5q-48 0 -73 -18.5t-25 -47.5
q0 -41 55 -68l162 -79q102 -48 151.5 -116t49.5 -167q0 -116 -66 -200t-171.5 -123.5t-236.5 -39.5q-110 0 -215 30.5t-182 86.5z" />
    <glyph glyph-name="Scircumflex" unicode="&#x15c;" horiz-adv-x="1306" 
d="M967 1649l-105 114l-153 -114h-306l291 286h393l181 -286h-301zM723 1249q-76 0 -125 -30.5t-49 -92.5q0 -77 86 -122l283 -148q137 -73 204.5 -168.5t67.5 -222.5q0 -147 -84.5 -259.5t-225 -170.5t-311.5 -58q-152 0 -300 49t-263 146l78 369q116 -113 254.5 -182.5
t269.5 -69.5q83 0 138 31t55 96q0 73 -84 119l-277 139q-286 141 -286 411q0 216 164.5 345t416.5 129q275 0 520 -154l-77 -365q-108 95 -226 152t-229 57z" />
    <glyph glyph-name="scircumflex" unicode="&#x15d;" horiz-adv-x="968" 
d="M690 1178l-104 114l-154 -114h-305l291 286h393l180 -286h-301zM20 393q79 -76 177.5 -121t183.5 -45q100 0 100 62q0 39 -49 63l-153 76q-99 47 -157.5 117.5t-58.5 179.5t60.5 188t161 117.5t227.5 38.5q196 0 367 -98l-56 -287q-67 67 -150.5 109.5t-156.5 42.5
q-48 0 -73 -18.5t-25 -47.5q0 -41 55 -68l162 -79q102 -48 151.5 -116t49.5 -167q0 -116 -66 -200t-171.5 -123.5t-236.5 -39.5q-110 0 -215 30.5t-182 86.5z" />
    <glyph glyph-name="Scedilla" unicode="&#x15e;" horiz-adv-x="1306" 
d="M737 -307q0 -72 -47.5 -123.5t-116 -73.5t-147.5 -22q-104 0 -197 49l29 155q67 -43 145 -43q39 0 67 15t28 47q0 27 -20 43t-52 16q-38 0 -84 -16l-31 43l131 203q-251 32 -436 186l78 369q116 -113 254.5 -182.5t269.5 -69.5q83 0 138 31t55 96q0 73 -84 119l-277 139
q-286 141 -286 411q0 216 164.5 345t416.5 129q275 0 520 -154l-77 -365q-108 95 -226 152t-229 57q-76 0 -125 -30.5t-49 -92.5q0 -77 86 -122l283 -148q137 -73 204.5 -168.5t67.5 -222.5q0 -138 -74.5 -245.5t-198.5 -167.5t-280 -72l-78 -107q79 -14 128.5 -62.5
t49.5 -117.5z" />
    <glyph glyph-name="scedilla" unicode="&#x15f;" horiz-adv-x="968" 
d="M555 -307q0 -72 -47.5 -123.5t-116 -73.5t-147.5 -22q-104 0 -197 49l29 155q67 -43 145 -43q39 0 66.5 15t27.5 47q0 27 -20 43t-51 16q-38 0 -84 -16l-31 43l131 201q-171 22 -295 110l55 299q79 -76 177.5 -121t183.5 -45q100 0 100 62q0 39 -49 63l-153 76
q-99 47 -157.5 117.5t-58.5 179.5t60.5 188t161 117.5t227.5 38.5q196 0 367 -98l-56 -287q-67 67 -150.5 109.5t-156.5 42.5q-48 0 -73 -18.5t-25 -47.5q0 -41 55 -68l162 -79q102 -48 151.5 -116t49.5 -167q0 -151 -105.5 -243t-273.5 -113l-80 -111q79 -14 128.5 -62.5
t49.5 -117.5z" />
    <glyph glyph-name="Scaron" unicode="&#x160;" horiz-adv-x="1306" 
d="M1329 1935l-291 -286h-393l-180 286h299l106 -114l152 114h307zM723 1249q-76 0 -125 -30.5t-49 -92.5q0 -77 86 -122l283 -148q137 -73 204.5 -168.5t67.5 -222.5q0 -147 -84.5 -259.5t-225 -170.5t-311.5 -58q-152 0 -300 49t-263 146l78 369q116 -113 254.5 -182.5
t269.5 -69.5q83 0 138 31t55 96q0 73 -84 119l-277 139q-286 141 -286 411q0 216 164.5 345t416.5 129q275 0 520 -154l-77 -365q-108 95 -226 152t-229 57z" />
    <glyph glyph-name="scaron" unicode="&#x161;" horiz-adv-x="968" 
d="M1055 1464l-291 -286h-393l-181 286h299l107 -114l152 114h307zM20 393q79 -76 177.5 -121t183.5 -45q100 0 100 62q0 39 -49 63l-153 76q-99 47 -157.5 117.5t-58.5 179.5t60.5 188t161 117.5t227.5 38.5q196 0 367 -98l-56 -287q-67 67 -150.5 109.5t-156.5 42.5
q-48 0 -73 -18.5t-25 -47.5q0 -41 55 -68l162 -79q102 -48 151.5 -116t49.5 -167q0 -116 -66 -200t-171.5 -123.5t-236.5 -39.5q-110 0 -215 30.5t-182 86.5z" />
    <glyph glyph-name="uni0162" unicode="&#x162;" horiz-adv-x="1341" 
d="M113 1196l67 340h1280l-65 -340h-451l-233 -1196h-379l233 1196h-452zM330 -111h334l-308 -374h-209z" />
    <glyph glyph-name="uni0163" unicode="&#x163;" horiz-adv-x="856" 
d="M668 35q-119 -58 -258 -58q-221 0 -322 126.5t-55 340.5l172 887h362l-55 -284h348l-55 -293h-348l-60 -308q-15 -73 21 -113t114 -40q95 0 195 41zM156 -111h333l-307 -374h-209z" />
    <glyph glyph-name="Tcaron" unicode="&#x164;" horiz-adv-x="1341" 
d="M1327 1935l-291 -286h-393l-180 286h299l106 -114l152 114h307zM113 1196l67 340h1280l-65 -340h-451l-233 -1196h-379l233 1196h-452z" />
    <glyph glyph-name="tcaron" unicode="&#x165;" horiz-adv-x="854" 
d="M854 1163h-215l141 414h320zM668 35q-119 -58 -258 -58q-221 0 -322 126.5t-55 340.5l172 887h362l-55 -284h348l-55 -293h-348l-60 -308q-15 -73 21 -113t114 -40q95 0 195 41z" />
    <glyph glyph-name="Tbar" unicode="&#x166;" horiz-adv-x="1341" 
d="M113 1196l67 340h1280l-65 -340h-451l-86 -434h254l-51 -268h-254l-96 -494h-379l96 494h-256l51 268h256l86 434h-452z" />
    <glyph glyph-name="tbar" unicode="&#x167;" horiz-adv-x="856" 
d="M668 35q-119 -58 -258 -58q-223 0 -323 126t-54 341l172 887h362l-55 -284h350l-57 -293h-348l-23 -119h348l-34 -180h-349l-2 -9q-15 -73 21 -113t114 -40q95 0 195 41z" />
    <glyph glyph-name="Utilde" unicode="&#x168;" horiz-adv-x="1568" 
d="M1087 1638q-52 0 -150.5 28t-119.5 28q-30 0 -54 -18t-28 -46h-166q19 152 88.5 232t188.5 80q51 0 154.5 -29t117.5 -29q31 0 54.5 17.5t27.5 46.5h174q-15 -148 -89.5 -229t-197.5 -81zM104 664l170 872h379l-178 -907q-25 -123 41 -210t195 -87q127 0 214.5 81.5
t114.5 211.5l174 911h377l-178 -922q-56 -293 -251.5 -465t-489.5 -172q-121 0 -224 34.5t-175 96.5t-119.5 148t-58.5 189t9 219z" />
    <glyph glyph-name="utilde" unicode="&#x169;" horiz-adv-x="1212" 
d="M838 1169q-52 0 -151 28t-120 28q-30 0 -54 -18t-28 -46h-166q19 152 88.5 232t188.5 80q51 0 154.5 -29t117.5 -29q31 0 54.5 17.5t27.5 46.5h174q-15 -148 -89 -229t-197 -81zM700 477l111 570h363l-115 -594q-45 -230 -197.5 -353t-374.5 -123q-110 0 -203 36.5
t-155 101.5t-88 161.5t-4 208.5l108 562h363l-111 -574q-14 -75 23 -119.5t102 -44.5q69 0 117 44.5t61 123.5z" />
    <glyph glyph-name="Umacron" unicode="&#x16a;" horiz-adv-x="1568" 
d="M647 1921h703l-50 -256h-700zM104 664l170 872h379l-178 -907q-25 -123 41 -210t195 -87q127 0 214.5 81.5t114.5 211.5l174 911h377l-178 -922q-56 -293 -251.5 -465t-489.5 -172q-121 0 -224 34.5t-175 96.5t-119.5 148t-58.5 189t9 219z" />
    <glyph glyph-name="umacron" unicode="&#x16b;" horiz-adv-x="1212" 
d="M385 1450h702l-49 -256h-700zM700 477l111 570h363l-115 -594q-45 -230 -197.5 -353t-374.5 -123q-110 0 -203 36.5t-155 101.5t-88 161.5t-4 208.5l108 562h363l-111 -574q-14 -75 23 -119.5t102 -44.5q69 0 117 44.5t61 123.5z" />
    <glyph glyph-name="Ubreve" unicode="&#x16c;" horiz-adv-x="1568" 
d="M985 1851q44 0 77.5 27t45.5 70h256q-34 -148 -143.5 -234t-262.5 -86q-151 0 -245 88.5t-84 231.5h254q-3 -43 26 -70t76 -27zM104 664l170 872h379l-178 -907q-25 -123 41 -210t195 -87q127 0 214.5 81.5t114.5 211.5l174 911h377l-178 -922q-56 -293 -251.5 -465
t-489.5 -172q-121 0 -224 34.5t-175 96.5t-119.5 148t-58.5 189t9 219z" />
    <glyph glyph-name="ubreve" unicode="&#x16d;" horiz-adv-x="1212" 
d="M727 1380q44 0 77.5 27t45.5 70h256q-34 -148 -143.5 -234t-262.5 -86q-151 0 -245 88.5t-84 231.5h254q-3 -43 26 -70t76 -27zM700 477l111 570h363l-115 -594q-45 -230 -197.5 -353t-374.5 -123q-110 0 -203 36.5t-155 101.5t-88 161.5t-4 208.5l108 562h363l-111 -574
q-14 -75 23 -119.5t102 -44.5q69 0 117 44.5t61 123.5z" />
    <glyph glyph-name="Uring" unicode="&#x16e;" horiz-adv-x="1568" 
d="M963 2021q102 0 167.5 -61.5t65.5 -159.5q0 -113 -79 -182.5t-189 -69.5q-103 0 -165.5 62t-62.5 157q0 112 76 183t187 71zM860 1782q0 -35 22.5 -58.5t57.5 -23.5q39 0 66.5 26t27.5 66q0 34 -22.5 57t-57.5 23q-39 0 -66.5 -25t-27.5 -65zM104 664l170 872h379
l-178 -907q-25 -123 41 -210t195 -87q127 0 214.5 81.5t114.5 211.5l174 911h377l-178 -922q-56 -293 -251.5 -465t-489.5 -172q-121 0 -224 34.5t-175 96.5t-119.5 148t-58.5 189t9 219z" />
    <glyph glyph-name="uring" unicode="&#x16f;" horiz-adv-x="1212" 
d="M735 1608q102 0 168 -62t66 -160q0 -113 -79.5 -182t-189.5 -69q-103 0 -165 62t-62 157q0 112 75.5 183t186.5 71zM633 1368q0 -35 22.5 -58.5t57.5 -23.5q39 0 66.5 26t27.5 66q0 34 -22.5 57t-57.5 23q-39 0 -66.5 -25t-27.5 -65zM700 477l111 570h363l-115 -594
q-45 -230 -197.5 -353t-374.5 -123q-110 0 -203 36.5t-155 101.5t-88 161.5t-4 208.5l108 562h363l-111 -574q-14 -75 23 -119.5t102 -44.5q69 0 117 44.5t61 123.5z" />
    <glyph glyph-name="Uhungarumlaut" unicode="&#x170;" horiz-adv-x="1568" 
d="M831 1649h-241l215 286h344zM1229 1649h-244l219 286h350zM104 664l170 872h379l-178 -907q-25 -123 41 -210t195 -87q127 0 214.5 81.5t114.5 211.5l174 911h377l-178 -922q-56 -293 -251.5 -465t-489.5 -172q-121 0 -224 34.5t-175 96.5t-119.5 148t-58.5 189t9 219z
" />
    <glyph glyph-name="uhungarumlaut" unicode="&#x171;" horiz-adv-x="1212" 
d="M573 1178h-241l215 286h344zM971 1178h-244l219 286h350zM700 477l111 570h363l-115 -594q-45 -230 -197.5 -353t-374.5 -123q-110 0 -203 36.5t-155 101.5t-88 161.5t-4 208.5l108 562h363l-111 -574q-14 -75 23 -119.5t102 -44.5q69 0 117 44.5t61 123.5z" />
    <glyph glyph-name="Uogonek" unicode="&#x172;" horiz-adv-x="1568" 
d="M858 -494q-91 -32 -156 -32q-104 0 -171 58t-64 155q6 170 166 290q-190 9 -324 102t-187.5 246.5t-17.5 338.5l170 872h379l-178 -907q-25 -123 40.5 -210t193.5 -87t215.5 81.5t113.5 211.5l176 911h377l-178 -922q-41 -221 -165.5 -376.5t-313.5 -219.5
q-195 -109 -189 -256q0 -33 23 -53t59 -20q38 0 68 12z" />
    <glyph glyph-name="uogonek" unicode="&#x173;" horiz-adv-x="1212" 
d="M655 -494q-91 -32 -153 -32q-106 0 -173.5 58t-64.5 159q6 170 178 289q-210 14 -327.5 153t-77.5 352l108 562h363l-111 -574q-14 -75 23 -119.5t102 -44.5q69 0 117 44.5t61 123.5l111 570h363l-115 -594q-57 -288 -283 -410q-236 -124 -233 -281q1 -33 24.5 -53
t57.5 -20q35 0 69 12z" />
    <glyph glyph-name="Wcircumflex" unicode="&#x174;" horiz-adv-x="2306" 
d="M1430 1649l-105 114l-154 -114h-305l291 286h393l181 -286h-301zM2447 1536l-1036 -1581l-250 840l-567 -840l-438 1581h411l187 -750l536 795l252 -788l463 743h442z" />
    <glyph glyph-name="wcircumflex" unicode="&#x175;" horiz-adv-x="1687" 
d="M1044 1178l-104 114l-154 -114h-305l291 286h393l181 -286h-302zM1743 1047l-746 -1088l-209 506l-397 -506l-338 1088h396l116 -400l330 434l174 -436l262 402h412z" />
    <glyph glyph-name="Ycircumflex" unicode="&#x176;" horiz-adv-x="1550" 
d="M1079 1649l-104 114l-154 -114h-305l291 286h393l180 -286h-301zM1696 1536l-756 -993l-104 -543h-379l102 524l-405 1012h413l232 -629l463 629h434z" />
    <glyph glyph-name="ycircumflex" unicode="&#x177;" horiz-adv-x="1210" 
d="M813 1178l-104 114l-154 -114h-305l291 286h393l180 -286h-301zM1266 1047l-1047 -1559h-389l496 745l-273 814h396l129 -439l290 439h398z" />
    <glyph glyph-name="Ydieresis" unicode="&#x178;" horiz-adv-x="1550" 
d="M762 1645q-68 0 -111 42t-43 107q0 73 52 120.5t126 47.5q68 0 111 -43t43 -107q0 -73 -52 -120t-126 -47zM1180 1645q-68 0 -111 42.5t-43 106.5q0 73 52 120.5t126 47.5q69 0 111.5 -43t42.5 -107q0 -75 -51.5 -121t-126.5 -46zM1696 1536l-756 -993l-104 -543h-379
l102 524l-405 1012h413l232 -629l463 629h434z" />
    <glyph glyph-name="Zacute" unicode="&#x179;" horiz-adv-x="1413" 
d="M899 1935h440l-378 -286h-308zM1247 336l-67 -336h-1305l965 1198h-664l66 338h1294l-961 -1200h672z" />
    <glyph glyph-name="zacute" unicode="&#x17a;" horiz-adv-x="1056" 
d="M633 1464h440l-379 -286h-307zM905 293l-57 -293h-975l586 754h-391l55 293h962l-600 -754h420z" />
    <glyph glyph-name="Zdotaccent" unicode="&#x17b;" horiz-adv-x="1413" 
d="M872 1645q-83 0 -135.5 48t-52.5 122q0 90 66 149t159 59q82 0 134.5 -49t52.5 -125q0 -93 -66.5 -148.5t-157.5 -55.5zM1247 336l-67 -336h-1305l965 1198h-664l66 338h1294l-961 -1200h672z" />
    <glyph glyph-name="zdotaccent" unicode="&#x17c;" horiz-adv-x="1056" 
d="M604 1174q-83 0 -135.5 47.5t-52.5 121.5q0 90 66 149.5t159 59.5q82 0 134 -49t52 -125q0 -93 -66 -148.5t-157 -55.5zM905 293l-57 -293h-975l586 754h-391l55 293h962l-600 -754h420z" />
    <glyph glyph-name="Zcaron" unicode="&#x17d;" horiz-adv-x="1413" 
d="M1368 1935l-291 -286h-393l-180 286h299l106 -114l152 114h307zM1247 336l-67 -336h-1305l965 1198h-664l66 338h1294l-961 -1200h672z" />
    <glyph glyph-name="zcaron" unicode="&#x17e;" horiz-adv-x="1056" 
d="M1100 1464l-291 -286h-393l-180 286h299l106 -114l152 114h307zM905 293l-57 -293h-975l586 754h-391l55 293h962l-600 -754h420z" />
    <glyph glyph-name="florin" unicode="&#x192;" horiz-adv-x="1155" 
d="M614 373q-147 -396 -524 -396q-125 0 -221 48l57 290q71 -39 154 -39q139 0 201 150l256 670q39 105 88.5 186t116 145t154.5 98t194 34q126 0 217 -52l-56 -288q-74 41 -147 41q-147 0 -211 -158l-21 -55h289l-55 -293h-346z" />
    <glyph glyph-name="uni0218" unicode="&#x218;" horiz-adv-x="1306" 
d="M723 1249q-76 0 -125 -30.5t-49 -92.5q0 -77 86 -122l283 -148q137 -73 204.5 -168.5t67.5 -222.5q0 -147 -84.5 -259.5t-225 -170.5t-311.5 -58q-152 0 -300 49t-263 146l78 369q116 -113 254.5 -182.5t269.5 -69.5q83 0 138 31t55 96q0 73 -84 119l-277 139
q-286 141 -286 411q0 216 164.5 345t416.5 129q275 0 520 -154l-77 -365q-108 95 -226 152t-229 57zM395 -111h334l-307 -374h-209z" />
    <glyph glyph-name="uni0219" unicode="&#x219;" horiz-adv-x="968" 
d="M20 393q79 -76 177.5 -121t183.5 -45q100 0 100 62q0 39 -49 63l-153 76q-99 47 -157.5 117.5t-58.5 179.5t60.5 188t161 117.5t227.5 38.5q196 0 367 -98l-56 -287q-67 67 -150.5 109.5t-156.5 42.5q-48 0 -73 -18.5t-25 -47.5q0 -41 55 -68l162 -79q102 -48 151.5 -116
t49.5 -167q0 -116 -66 -200t-171.5 -123.5t-236.5 -39.5q-110 0 -215 30.5t-182 86.5zM180 -111h334l-307 -374h-209z" />
    <glyph glyph-name="uni021A" unicode="&#x21a;" horiz-adv-x="1341" 
d="M113 1196l67 340h1280l-65 -340h-451l-233 -1196h-379l233 1196h-452zM330 -111h334l-308 -374h-209z" />
    <glyph glyph-name="uni021B" unicode="&#x21b;" horiz-adv-x="856" 
d="M668 35q-119 -58 -258 -58q-221 0 -322 126.5t-55 340.5l172 887h362l-55 -284h348l-55 -293h-348l-60 -308q-15 -73 21 -113t114 -40q95 0 195 41zM156 -111h333l-307 -374h-209z" />
    <glyph glyph-name="dotlessj" unicode="&#x237;" horiz-adv-x="595" 
d="M-162 -535q-158 0 -260 78l55 269q67 -45 154 -45q63 0 106.5 36.5t55.5 102.5l219 1141h364l-225 -1153q-38 -208 -161 -318.5t-308 -110.5z" />
    <glyph glyph-name="circumflex" unicode="&#x2c6;" horiz-adv-x="1226" 
d="M827 1178l-104 114l-154 -114h-305l291 286h393l180 -286h-301z" />
    <glyph glyph-name="caron" unicode="&#x2c7;" horiz-adv-x="1226" 
d="M1186 1464l-291 -286h-393l-180 286h299l106 -114l152 114h307z" />
    <glyph glyph-name="breve" unicode="&#x2d8;" horiz-adv-x="1226" 
d="M758 1380q44 0 77.5 27t45.5 70h256q-34 -148 -143.5 -234t-262.5 -86q-151 0 -245.5 88.5t-84.5 231.5h254q-3 -43 26.5 -70t76.5 -27z" />
    <glyph glyph-name="dotaccent" unicode="&#x2d9;" horiz-adv-x="1034" 
d="M672 1174q-83 0 -136 47.5t-53 121.5q0 90 66.5 149.5t159.5 59.5q82 0 134 -49t52 -125q0 -93 -66 -148.5t-157 -55.5z" />
    <glyph glyph-name="ring" unicode="&#x2da;" horiz-adv-x="1226" 
d="M754 1608q102 0 167.5 -62t65.5 -160q0 -113 -79 -182t-189 -69q-103 0 -165 62t-62 157q0 112 75.5 183t186.5 71zM651 1368q0 -35 22.5 -58.5t57.5 -23.5q39 0 66.5 26t27.5 66q0 34 -22.5 57t-57.5 23q-39 0 -66.5 -25t-27.5 -65z" />
    <glyph glyph-name="ogonek" unicode="&#x2db;" horiz-adv-x="1142" 
d="M299 -311q2 81 42.5 153t108.5 125.5t152.5 93.5t181.5 64l2 -125q-92 -39 -151.5 -101.5t-56.5 -140.5q1 -33 23.5 -52t57.5 -19t70 12l-39 -195q-91 -32 -153 -32q-106 0 -173.5 58t-64.5 159z" />
    <glyph glyph-name="tilde" unicode="&#x2dc;" horiz-adv-x="1226" 
d="M858 1169q-52 0 -150.5 28t-119.5 28q-30 0 -54 -18t-28 -46h-166q39 312 276 312q51 0 155 -29t118 -29q31 0 54.5 17.5t27.5 46.5h174q-15 -148 -89.5 -229t-197.5 -81z" />
    <glyph glyph-name="hungarumlaut" unicode="&#x2dd;" horiz-adv-x="1226" 
d="M573 1178h-241l215 286h344zM971 1178h-244l219 286h350z" />
    <glyph glyph-name="uni0394" unicode="&#x394;" horiz-adv-x="1611" 
d="M946 1581l508 -1581h-1593zM471 309h522l-159 555z" />
    <glyph glyph-name="uni03A9" unicode="&#x3a9;" horiz-adv-x="1480" 
d="M1204 0h-555l107 555q131 47 214 157.5t83 239.5q0 114 -66 187t-180 73q-129 0 -216.5 -91t-98.5 -226q-11 -104 30 -195.5t127 -144.5l-106 -555h-555l59 305h266l23 111q-100 88 -154.5 209.5t-54.5 265.5q0 189 92 342.5t252.5 239.5t357.5 86q267 0 430.5 -153.5
t163.5 -397.5q0 -200 -111.5 -364t-301.5 -267l-15 -72h269z" />
    <glyph glyph-name="mu" unicode="&#x3bc;" horiz-adv-x="1298" 
d="M-113 -512l301 1559h363l-113 -580q-14 -75 13.5 -116.5t93.5 -41.5q67 0 123.5 50t76.5 128l109 560h363l-203 -1047h-363l27 141q-141 -164 -338 -164q-19 0 -37 3l-96 -492h-320z" />
    <glyph glyph-name="pi" unicode="&#x3c0;" horiz-adv-x="1513" 
d="M1296 12q-96 -35 -194 -35q-179 0 -266 105t-50 283l68 352h-276l-140 -717h-366l139 717h-180l63 330h1366l-63 -330h-180l-64 -334q-10 -55 13 -87t73 -32q52 0 104 17z" />
    <glyph glyph-name="Wgrave" unicode="&#x1e80;" horiz-adv-x="2306" 
d="M897 1935h424l162 -286h-299zM2447 1536l-1036 -1581l-250 840l-567 -840l-438 1581h411l187 -750l536 795l252 -788l463 743h442z" />
    <glyph glyph-name="wgrave" unicode="&#x1e81;" horiz-adv-x="1687" 
d="M506 1464h424l162 -286h-299zM1743 1047l-746 -1088l-209 506l-397 -506l-338 1088h396l116 -400l330 434l174 -436l262 402h412z" />
    <glyph glyph-name="Wacute" unicode="&#x1e82;" horiz-adv-x="2306" 
d="M1341 1935h441l-379 -286h-307zM2447 1536l-1036 -1581l-250 840l-567 -840l-438 1581h411l187 -750l536 795l252 -788l463 743h442z" />
    <glyph glyph-name="wacute" unicode="&#x1e83;" horiz-adv-x="1687" 
d="M956 1464h441l-379 -286h-307zM1743 1047l-746 -1088l-209 506l-397 -506l-338 1088h396l116 -400l330 434l174 -436l262 402h412z" />
    <glyph glyph-name="Wdieresis" unicode="&#x1e84;" horiz-adv-x="2306" 
d="M1110 1645q-68 0 -111 42t-43 107q0 73 52.5 120.5t126.5 47.5q68 0 110.5 -43t42.5 -107q0 -73 -52 -120t-126 -47zM1528 1645q-68 0 -111 42.5t-43 106.5q0 73 52 120.5t126 47.5q69 0 111.5 -43t42.5 -107q0 -75 -51.5 -121t-126.5 -46zM2447 1536l-1036 -1581
l-250 840l-567 -840l-438 1581h411l187 -750l536 795l252 -788l463 743h442z" />
    <glyph glyph-name="wdieresis" unicode="&#x1e85;" horiz-adv-x="1687" 
d="M723 1174q-68 0 -111 42t-43 107q0 73 52.5 120.5t126.5 47.5q68 0 110.5 -43t42.5 -107q0 -73 -52 -120t-126 -47zM1141 1174q-68 0 -111 42.5t-43 106.5q0 73 52 120.5t126 47.5q69 0 111.5 -43t42.5 -107q0 -75 -51.5 -121t-126.5 -46zM1743 1047l-746 -1088l-209 506
l-397 -506l-338 1088h396l116 -400l330 434l174 -436l262 402h412z" />
    <glyph glyph-name="Ygrave" unicode="&#x1ef2;" horiz-adv-x="1550" 
d="M547 1935h424l162 -286h-299zM1696 1536l-756 -993l-104 -543h-379l102 524l-405 1012h413l232 -629l463 629h434z" />
    <glyph glyph-name="ygrave" unicode="&#x1ef3;" horiz-adv-x="1210" 
d="M285 1464h424l161 -286h-299zM1266 1047l-1047 -1559h-389l496 745l-273 814h396l129 -439l290 439h398z" />
    <glyph glyph-name="endash" unicode="&#x2013;" horiz-adv-x="1024" 
d="M-23 436l58 307h942l-59 -307h-941z" />
    <glyph glyph-name="emdash" unicode="&#x2014;" horiz-adv-x="2048" 
d="M35 743h1966l-59 -307h-1965z" />
    <glyph glyph-name="quoteleft" unicode="&#x2018;" horiz-adv-x="530" 
d="M428 1536h211l-225 -307q100 -52 100 -164q0 -87 -64 -146t-155 -59q-84 0 -136.5 50t-52.5 128q0 49 22 92t65 99z" />
    <glyph glyph-name="quoteright" unicode="&#x2019;" horiz-adv-x="530" 
d="M274 883h-211l226 307q-101 53 -101 164q0 87 64 146t156 59q84 0 136 -50t52 -129q0 -50 -21.5 -92t-64.5 -98z" />
    <glyph glyph-name="quotesinglbase" unicode="&#x201a;" horiz-adv-x="530" 
d="M31 -367h-209l223 308q-100 54 -100 159q0 89 63 147t156 58q84 0 136 -49.5t52 -126.5q0 -50 -21.5 -92t-64.5 -98z" />
    <glyph glyph-name="quotedblleft" unicode="&#x201c;" horiz-adv-x="1007" 
d="M905 1536h211l-225 -307q100 -52 100 -164q0 -87 -64 -146t-155 -59q-84 0 -136 49.5t-52 128.5q0 49 22 92.5t64 98.5zM428 1536h211l-225 -307q100 -52 100 -164q0 -87 -64 -146t-155 -59q-84 0 -136.5 50t-52.5 128q0 49 22 92t65 99z" />
    <glyph glyph-name="quotedblright" unicode="&#x201d;" horiz-adv-x="1007" 
d="M274 883h-211l226 307q-101 53 -101 164q0 87 64 146t156 59q84 0 136 -50t52 -129q0 -50 -21.5 -92t-64.5 -98zM752 883h-211l225 307q-100 52 -100 164q0 87 64 146t155 59q84 0 136 -50t52 -129q0 -50 -21.5 -92t-64.5 -98z" />
    <glyph glyph-name="quotedblbase" unicode="&#x201e;" horiz-adv-x="1007" 
d="M31 -367h-209l223 308q-100 54 -100 159q0 89 63 147t156 58q84 0 136 -49.5t52 -126.5q0 -50 -21.5 -92t-64.5 -98zM508 -367h-211l225 308q-100 52 -100 159q0 88 63.5 146.5t155.5 58.5q84 0 136 -49.5t52 -126.5q0 -50 -21.5 -92t-64.5 -98z" />
    <glyph glyph-name="dagger" unicode="&#x2020;" horiz-adv-x="985" 
d="M928 1012h-262l-111 -568h-250l111 568h-264l47 248h266l53 276h248l-53 -276h264z" />
    <glyph glyph-name="daggerdbl" unicode="&#x2021;" horiz-adv-x="985" 
d="M799 344h-264l-68 -344h-248l68 344h-267l50 248h264l74 375h-267l49 247h265l63 322h248l-64 -322h267l-49 -247h-265l-73 -375h264z" />
    <glyph glyph-name="bullet" unicode="&#x2022;" horiz-adv-x="980" 
d="M453 373q-161 0 -252.5 105t-71.5 259q19 141 124 229.5t251 88.5q159 0 251 -107t72 -264q-19 -140 -123 -225.5t-251 -85.5z" />
    <glyph glyph-name="ellipsis" unicode="&#x2026;" horiz-adv-x="1808" 
d="M164 -23q-88 0 -142.5 53t-54.5 138q0 98 70 161.5t172 63.5q88 0 143.5 -53.5t55.5 -136.5q0 -101 -70 -163.5t-174 -62.5zM1372 -23q-88 0 -144.5 53.5t-56.5 137.5q0 98 71 161.5t173 63.5q88 0 144.5 -53.5t56.5 -136.5q0 -100 -71 -163t-173 -63zM766 -23
q-87 0 -143 53.5t-56 137.5q0 98 71 161.5t173 63.5q88 0 143.5 -53.5t55.5 -136.5q0 -101 -70 -163.5t-174 -62.5z" />
    <glyph glyph-name="perthousand" unicode="&#x2030;" horiz-adv-x="3254" 
d="M610 1559q177 0 291.5 -112t114.5 -284q0 -193 -139.5 -323.5t-337.5 -130.5q-175 0 -288.5 109t-113.5 280q0 127 63.5 233t172.5 167t237 61zM268 0l1418 1536h317l-1419 -1536h-316zM401 1116q0 -71 43.5 -116.5t116.5 -45.5q80 0 136.5 55.5t56.5 137.5
q0 71 -43.5 117.5t-116.5 46.5q-82 0 -137.5 -57t-55.5 -138zM1249 367q0 126 64 231.5t173 166t236 60.5q177 0 292.5 -111t115.5 -284q0 -127 -65 -231.5t-174.5 -163t-239.5 -58.5q-175 0 -288.5 109t-113.5 281zM2234 367q0 126 64 231.5t173 166t236 60.5
q177 0 292.5 -111t115.5 -284q0 -127 -65 -231.5t-174.5 -163t-239.5 -58.5q-175 0 -288.5 109t-113.5 281zM1866 414q0 71 -43.5 117.5t-116.5 46.5q-81 0 -137 -57.5t-56 -137.5q0 -71 44.5 -116.5t115.5 -45.5q80 0 136.5 56t56.5 137zM2851 414q0 71 -43.5 117.5
t-116.5 46.5q-81 0 -136.5 -57.5t-55.5 -137.5q0 -71 44 -116.5t115 -45.5q80 0 136.5 56t56.5 137z" />
    <glyph glyph-name="guilsinglleft" unicode="&#x2039;" horiz-adv-x="839" 
d="M739 985l-370 -446l268 -437h-358l-261 439l355 444h366z" />
    <glyph glyph-name="guilsinglright" unicode="&#x203a;" horiz-adv-x="837" 
d="M733 547l-354 -445h-369l369 451l-264 432h356z" />
    <glyph glyph-name="fraction" unicode="&#x2044;" horiz-adv-x="966" 
d="M-33 0h-315l1349 1536h316z" />
    <glyph glyph-name="zerosuperior" unicode="&#x2070;" horiz-adv-x="1118" 
d="M1100 1114q0 -156 -71 -288t-198 -210.5t-282 -78.5q-197 0 -310.5 121.5t-113.5 322.5q0 158 69 290t194 210t280 78q198 0 315 -121t117 -324zM571 766q74 0 128 56t78 133.5t24 162.5q0 98 -36.5 153.5t-113.5 55.5q-74 0 -127.5 -54.5t-76.5 -131t-23 -162.5
q0 -100 36 -156.5t111 -56.5z" />
    <glyph glyph-name="foursuperior" unicode="&#x2074;" horiz-adv-x="987" 
d="M973 733h-121l-37 -186h-283l37 186h-581l479 803h278l-339 -592h204l47 240h281l-47 -240h123z" />
    <glyph glyph-name="Euro" unicode="&#x20ac;" horiz-adv-x="1419" 
d="M1204 43q-160 -66 -338 -66q-263 0 -439 139t-230 373h-209l37 211h151q3 66 12 131h-137l39 209h162q102 234 316.5 376.5t488.5 142.5q256 0 452 -127l-157 -297q-134 96 -303 96q-121 0 -219.5 -51t-165.5 -140h630l-112 -209h-611q-14 -57 -14 -126v-5h559l-115 -211
h-395q99 -174 355 -174q168 0 317 76z" />
    <glyph glyph-name="uni20B9" unicode="&#x20b9;" horiz-adv-x="1271" 
d="M172 1225l64 311h1144l-43 -215h-331q78 -97 96 -221h194l-43 -215h-168q-36 -122 -129 -215.5t-223 -145.5l254 -524h-420l-209 473h-331l57 283h377q81 0 147 35t103 94h-605l44 215h589q-19 57 -68 91t-120 34h-379z" />
    <glyph glyph-name="uni2113" unicode="&#x2113;" horiz-adv-x="1110" 
d="M864 53q-130 -76 -309 -76q-186 0 -307 104t-127 288q-78 -4 -121 -4h-41l49 264h41q31 0 109 4l88 467q39 212 168 335.5t331 123.5q213 0 322 -136.5t66 -351.5l-13 -55q-44 -221 -208 -368.5t-416 -219.5q10 -63 63.5 -97t132.5 -34q109 0 232 55zM618 1135l-73 -390
q207 116 248 322l10 53q10 51 -8.5 87t-65.5 36q-42 0 -72 -30t-39 -78z" />
    <glyph glyph-name="trademark" unicode="&#x2122;" horiz-adv-x="1775" 
d="M1311 961l-168 169l-58 -288h-202l139 712l319 -333l476 333l-140 -712h-204l51 262zM170 1354l37 182h690l-37 -182h-242l-100 -512h-203l101 512h-246z" />
    <glyph glyph-name="estimated" unicode="&#x212e;" horiz-adv-x="1597" 
d="M1489 625h-1194q-10 0 -10 -9v-360q0 -25 16 -41q88 -93 205 -145t248 -52q139 0 262 58.5t213 161.5h106q-102 -119 -255 -188.5t-328 -69.5q-150 0 -287 52.5t-235.5 141t-157 211.5t-58.5 258t58.5 258t157 212t235.5 141.5t287 52.5q201 0 370.5 -89t268 -241.5
t98.5 -333.5v-18zM1219 672v364q0 24 -19 43q-89 89 -204 139t-242 50q-129 0 -246 -52t-205 -143q-18 -18 -18 -45v-356q0 -10 10 -10h915q9 0 9 10z" />
    <glyph glyph-name="partialdiff" unicode="&#x2202;" horiz-adv-x="1265" 
d="M1167 793q0 -234 -78 -417.5t-232.5 -291t-364.5 -107.5q-212 0 -350 126t-138 321q0 150 68.5 271t190.5 190t272 69q149 0 274 -96q3 39 -4 78q-20 137 -123.5 217t-265.5 98l57 293q280 -17 454.5 -169t223.5 -398q16 -91 16 -184zM371 471q0 -70 47 -116t121 -46
q88 0 147 58.5t59 142.5q0 69 -47.5 114.5t-119.5 45.5q-88 0 -147.5 -55.5t-59.5 -143.5z" />
    <glyph glyph-name="product" unicode="&#x220f;" horiz-adv-x="1593" 
d="M-80 -350l365 1886h1323l-367 -1886h-369l304 1554h-588l-303 -1554h-365z" />
    <glyph glyph-name="summation" unicode="&#x2211;" horiz-adv-x="1251" 
d="M-125 -20l602 628l-366 596l65 330h1202l-63 -330h-785l379 -626l-579 -598h747l-65 -330h-1202z" />
    <glyph glyph-name="minus" unicode="&#x2212;" horiz-adv-x="1347" 
d="M154 651l55 289h995l-55 -289h-995z" />
    <glyph glyph-name="uni2215" unicode="&#x2215;" horiz-adv-x="966" 
d="M-33 0h-315l1349 1536h316z" />
    <glyph glyph-name="radical" unicode="&#x221a;" horiz-adv-x="1513" 
d="M1698 1536l-1116 -1577l-295 770h-293l59 318h506l141 -396l623 885h375z" />
    <glyph glyph-name="infinity" unicode="&#x221e;" horiz-adv-x="1902" 
d="M1352 264q-243 0 -428 228q-218 -228 -465 -228q-191 0 -299.5 123t-108.5 315q0 149 63 273.5t179 199t260 74.5q242 0 424 -235q100 110 208.5 172.5t239.5 62.5q192 0 306 -128t114 -324q0 -144 -62 -265.5t-176 -194.5t-255 -73zM1368 934q-23 0 -44 -4.5t-41.5 -17
t-34.5 -21.5t-35 -31t-29.5 -31.5t-32 -38.5t-29.5 -36q28 -43 45.5 -66.5t45.5 -52t58.5 -41t67.5 -12.5q76 0 123 55t47 137q0 70 -36 115t-105 45zM561 934q-77 0 -126.5 -58.5t-49.5 -140.5q0 -68 34.5 -110.5t102.5 -42.5q37 0 70 12t64 38.5t51.5 48t53.5 60.5l3 3
t2.5 3t3 3.5t2.5 3.5q-45 85 -93 132.5t-118 47.5z" />
    <glyph glyph-name="integral" unicode="&#x222b;" horiz-adv-x="884" 
d="M-129 -535q-134 0 -231 54l59 299q64 -37 149 -37q68 0 117 42t66 118l225 1149q43 212 184 340.5t342 128.5q134 0 236 -54l-57 -301q-67 43 -148 43q-78 0 -129.5 -47.5t-65.5 -126.5l-231 -1177q-40 -212 -180 -321.5t-336 -109.5z" />
    <glyph glyph-name="approxequal" unicode="&#x2248;" horiz-adv-x="1347" 
d="M535 1198q79 0 212 -48t211 -48q169 0 287 104l-57 -291q-110 -96 -277 -96q-53 0 -112 15.5t-102.5 34t-101.5 34t-110 15.5q-150 0 -292 -119l57 291q123 108 285 108zM442 727q81 0 219.5 -48t219.5 -48q159 0 272 104l-55 -291q-110 -96 -279 -96q-67 0 -141 24.5
t-147 49t-138 24.5q-153 0 -291 -118l56 290q124 109 284 109z" />
    <glyph glyph-name="notequal" unicode="&#x2260;" horiz-adv-x="1347" 
d="M1100 395h-539l-162 -258h-247l161 258h-211l56 283h334l120 192h-417l55 283h541l153 244h250l-154 -244h207l-55 -283h-330l-121 -192h414z" />
    <glyph glyph-name="lessequal" unicode="&#x2264;" horiz-adv-x="1347" 
d="M1118 782l-57 -293l-815 338l61 316l946 340l-59 -309l-627 -195zM219 700l817 -335l-57 -293l-817 336z" />
    <glyph glyph-name="greaterequal" unicode="&#x2265;" horiz-adv-x="1347" 
d="M1126 827l-946 -338l60 310l626 194l-551 197l56 293l817 -340zM1102 700l-58 -292l-948 -336l58 293z" />
    <glyph glyph-name="lozenge" unicode="&#x25ca;" horiz-adv-x="1210" 
d="M1217 756l-768 -797l-459 797l774 821zM391 762l158 -291l287 307l-160 289z" />
    <glyph glyph-name="commaaccent" unicode="&#xf6c3;" horiz-adv-x="1024" 
d="M180 -111h334l-307 -374h-209z" />
    <glyph glyph-name="CR" horiz-adv-x="0" 
 />
    <glyph glyph-name="a.alt" 
d="M1182 1047l-203 -1047h-475q-225 0 -364.5 128t-139.5 337q0 123 47.5 231t129.5 185t196.5 121.5t244.5 44.5h564zM756 723h-150q-102 0 -166.5 -66t-64.5 -161q0 -76 47 -124t125 -48h133z" />
    <glyph glyph-name="a.alt2" horiz-adv-x="1163" 
d="M143 782l52 265h905l-205 -1047h-557q-168 0 -271.5 82t-103.5 219q0 115 59.5 201t156.5 129t218 43h267l20 108h-541zM616 430h-174q-47 0 -78.5 -28t-31.5 -76q0 -38 26 -61t68 -23h156z" />
    <glyph glyph-name="b.alt" 
d="M530 0h-561l201 1047l96 489h363l-97 -489h115q223 0 362.5 -130t139.5 -337q0 -163 -81.5 -296.5t-223 -208.5t-314.5 -75zM393 324h152q101 0 165 66t64 161q0 75 -47 123.5t-125 48.5h-131z" />
    <glyph glyph-name="d.alt" 
d="M0 465q0 164 81 297.5t223 209t317 75.5h200l97 489h362l-96 -489l-203 -1047h-477q-225 0 -364.5 128t-139.5 337zM758 723h-152q-102 0 -165.5 -66t-63.5 -161q0 -76 47 -124t125 -48h131z" />
    <glyph glyph-name="e.alt" horiz-adv-x="1175" 
d="M-51 0l117 604q41 222 197 343.5t399 121.5q122 0 222 -36.5t162 -112.5t62 -179q0 -120 -65 -203t-172 -121t-248 -38h-244l-21 -100h254q204 0 357 30l-62 -309h-958zM420 596h184q58 0 98 25.5t46 76.5q4 47 -34.5 73t-95.5 26q-72 0 -124 -40t-62 -104z" />
    <glyph glyph-name="e.alt2" horiz-adv-x="1191" 
d="M-31 0l201 1047h985l-55 -281q-30 -183 -154.5 -287t-302.5 -104h-242l-20 -111h598l-53 -264h-957zM758 795h-275l-34 -181h159q53 0 91.5 31.5t48.5 85.5z" />
    <glyph glyph-name="h.alt2" horiz-adv-x="1263" 
d="M629 1536l-97 -489h668l-205 -1047h-362l143 729h-305l-141 -729h-361l297 1536h363z" />
    <glyph glyph-name="m.alt2" horiz-adv-x="1863" 
d="M-31 0l201 1047h1630l-205 -1047h-362l141 729h-270l-141 -729h-363l141 729h-270l-141 -729h-361z" />
    <glyph glyph-name="n.alt2" horiz-adv-x="1263" 
d="M-31 0l201 1047h1030l-205 -1047h-362l143 729h-305l-141 -729h-361z" />
    <glyph glyph-name="p.alt" 
d="M229 -512h-360l301 1559h477q223 0 362.5 -130t139.5 -337q0 -163 -81.5 -296.5t-223 -208.5t-314.5 -75h-200zM393 324h152q101 0 165 66t64 161q0 75 -47 123.5t-125 48.5h-131z" />
    <glyph glyph-name="q.alt" 
d="M516 -512l100 512h-112q-225 0 -364.5 128t-139.5 337q0 123 47.5 231t129.5 185t196.5 121.5t244.5 44.5h564l-303 -1559h-363zM756 723h-150q-102 0 -166.5 -66t-64.5 -161q0 -76 47 -124t125 -48h133z" />
    <glyph glyph-name="r.alt" horiz-adv-x="913" 
d="M932 831l-514 -372l-88 -459h-361l201 1047h362l-28 -152l248 180z" />
    <glyph glyph-name="r.alt2" horiz-adv-x="856" 
d="M-31 0l201 1047h698l-59 -318h-338l-141 -729h-361z" />
    <glyph glyph-name="aacute.alt" 
d="M795 1464h440l-379 -286h-307zM1182 1047l-203 -1047h-475q-225 0 -364.5 128t-139.5 337q0 123 47.5 231t129.5 185t196.5 121.5t244.5 44.5h564zM756 723h-150q-102 0 -166.5 -66t-64.5 -161q0 -76 47 -124t125 -48h133z" />
    <glyph glyph-name="acircumflex.alt" 
d="M887 1178l-105 114l-153 -114h-305l290 286h394l180 -286h-301zM1182 1047l-203 -1047h-475q-225 0 -364.5 128t-139.5 337q0 123 47.5 231t129.5 185t196.5 121.5t244.5 44.5h564zM756 723h-150q-102 0 -166.5 -66t-64.5 -161q0 -76 47 -124t125 -48h133z" />
    <glyph glyph-name="adieresis.alt" 
d="M543 1174q-68 0 -111 42t-43 107q0 73 52 120.5t126 47.5q68 0 111 -43t43 -107q0 -73 -52 -120t-126 -47zM961 1174q-68 0 -111 42.5t-43 106.5q0 73 52 120.5t126 47.5q69 0 111.5 -43t42.5 -107q0 -75 -51.5 -121t-126.5 -46zM1182 1047l-203 -1047h-475
q-225 0 -364.5 128t-139.5 337q0 123 47.5 231t129.5 185t196.5 121.5t244.5 44.5h564zM756 723h-150q-102 0 -166.5 -66t-64.5 -161q0 -76 47 -124t125 -48h133z" />
    <glyph glyph-name="agrave.alt" 
d="M383 1464h424l162 -286h-299zM1182 1047l-203 -1047h-475q-225 0 -364.5 128t-139.5 337q0 123 47.5 231t129.5 185t196.5 121.5t244.5 44.5h564zM756 723h-150q-102 0 -166.5 -66t-64.5 -161q0 -76 47 -124t125 -48h133z" />
    <glyph glyph-name="aring.alt" 
d="M805 1608q102 0 167.5 -62t65.5 -160q0 -113 -79 -182t-189 -69q-103 0 -165 62t-62 157q0 112 75.5 183t186.5 71zM702 1368q0 -35 22.5 -58.5t57.5 -23.5q39 0 67 26t28 66q0 34 -22.5 57t-57.5 23q-40 0 -67.5 -25t-27.5 -65zM1182 1047l-203 -1047h-475
q-225 0 -364.5 128t-139.5 337q0 123 47.5 231t129.5 185t196.5 121.5t244.5 44.5h564zM756 723h-150q-102 0 -166.5 -66t-64.5 -161q0 -76 47 -124t125 -48h133z" />
    <glyph glyph-name="atilde.alt" 
d="M874 1169q-52 0 -150.5 28t-119.5 28q-30 0 -54 -18t-28 -46h-166q19 152 88.5 232t188.5 80q51 0 154.5 -29t117.5 -29q31 0 54.5 17.5t27.5 46.5h174q-15 -148 -89.5 -229t-197.5 -81zM1182 1047l-203 -1047h-475q-225 0 -364.5 128t-139.5 337q0 123 47.5 231
t129.5 185t196.5 121.5t244.5 44.5h564zM756 723h-150q-102 0 -166.5 -66t-64.5 -161q0 -76 47 -124t125 -48h133z" />
    <glyph glyph-name="abreve.alt" 
d="M788 1380q44 0 77.5 27t45.5 70h256q-34 -149 -143 -234.5t-262 -85.5q-151 0 -245.5 88.5t-84.5 231.5h254q-3 -43 26 -70t76 -27zM1182 1047l-203 -1047h-475q-225 0 -364.5 128t-139.5 337q0 123 47.5 231t129.5 185t196.5 121.5t244.5 44.5h564zM756 723h-150
q-102 0 -166.5 -66t-64.5 -161q0 -76 47 -124t125 -48h133z" />
    <glyph glyph-name="amacron.alt" 
d="M446 1450h703l-49 -256h-701zM1182 1047l-203 -1047h-475q-225 0 -364.5 128t-139.5 337q0 123 47.5 231t129.5 185t196.5 121.5t244.5 44.5h564zM756 723h-150q-102 0 -166.5 -66t-64.5 -161q0 -76 47 -124t125 -48h133z" />
    <glyph glyph-name="aogonek.alt" 
d="M883 -496q-91 -32 -154 -32q-106 0 -173 58t-64 159q6 181 194 311h-182q-225 0 -364.5 128t-139.5 337q0 123 47.5 231t129.5 185t196.5 121.5t244.5 44.5h564l-203 -1047q-92 -39 -152 -101.5t-57 -140.5q1 -33 24 -52t58 -19q36 0 70 12zM756 723h-150
q-102 0 -166.5 -66t-64.5 -161q0 -76 47 -124t125 -48h133z" />
    <glyph glyph-name="aacute.alt2" horiz-adv-x="1163" 
d="M702 1464h441l-379 -286h-307zM143 782l52 265h905l-205 -1047h-557q-168 0 -271.5 82t-103.5 219q0 115 59.5 201t156.5 129t218 43h267l20 108h-541zM616 430h-174q-47 0 -78.5 -28t-31.5 -76q0 -38 26 -61t68 -23h156z" />
    <glyph glyph-name="acircumflex.alt2" horiz-adv-x="1163" 
d="M811 1178l-104 114l-154 -114h-305l291 286h393l180 -286h-301zM143 782l52 265h905l-205 -1047h-557q-168 0 -271.5 82t-103.5 219q0 115 59.5 201t156.5 129t218 43h267l20 108h-541zM616 430h-174q-47 0 -78.5 -28t-31.5 -76q0 -38 26 -61t68 -23h156z" />
    <glyph glyph-name="adieresis.alt2" horiz-adv-x="1163" 
d="M479 1174q-68 0 -110.5 42t-42.5 107q0 73 52 120.5t126 47.5q68 0 110.5 -43t42.5 -107q0 -73 -52 -120t-126 -47zM897 1174q-68 0 -111 42.5t-43 106.5q0 73 52.5 120.5t126.5 47.5q69 0 111 -43t42 -107q0 -75 -51.5 -121t-126.5 -46zM143 782l52 265h905l-205 -1047
h-557q-168 0 -271.5 82t-103.5 219q0 115 59.5 201t156.5 129t218 43h267l20 108h-541zM616 430h-174q-47 0 -78.5 -28t-31.5 -76q0 -38 26 -61t68 -23h156z" />
    <glyph glyph-name="agrave.alt2" horiz-adv-x="1163" 
d="M313 1464h424l162 -286h-299zM143 782l52 265h905l-205 -1047h-557q-168 0 -271.5 82t-103.5 219q0 115 59.5 201t156.5 129t218 43h267l20 108h-541zM616 430h-174q-47 0 -78.5 -28t-31.5 -76q0 -38 26 -61t68 -23h156z" />
    <glyph glyph-name="aring.alt2" horiz-adv-x="1163" 
d="M717 1608q102 0 167.5 -62t65.5 -160q0 -113 -79 -182t-189 -69q-103 0 -165 62t-62 157q0 112 75.5 183t186.5 71zM614 1368q0 -35 22.5 -58.5t57.5 -23.5q39 0 66.5 26t27.5 66q0 34 -22 57t-57 23q-40 0 -67.5 -25t-27.5 -65zM143 782l52 265h905l-205 -1047h-557
q-168 0 -271.5 82t-103.5 219q0 115 59.5 201t156.5 129t218 43h267l20 108h-541zM616 430h-174q-47 0 -78.5 -28t-31.5 -76q0 -38 26 -61t68 -23h156z" />
    <glyph glyph-name="atilde.alt2" horiz-adv-x="1163" 
d="M821 1169q-52 0 -150.5 28t-119.5 28q-30 0 -54 -18t-28 -46h-166q19 152 88.5 232t188.5 80q51 0 154.5 -29t117.5 -29q31 0 54.5 17.5t27.5 46.5h174q-15 -148 -89.5 -229t-197.5 -81zM143 782l52 265h905l-205 -1047h-557q-168 0 -271.5 82t-103.5 219q0 115 59.5 201
t156.5 129t218 43h267l20 108h-541zM616 430h-174q-47 0 -78.5 -28t-31.5 -76q0 -38 26 -61t68 -23h156z" />
    <glyph glyph-name="abreve.alt2" horiz-adv-x="1163" 
d="M711 1380q44 0 77.5 27t45.5 70h256q-34 -148 -143.5 -234t-262.5 -86q-151 0 -245.5 88.5t-84.5 231.5h254q-3 -43 26.5 -70t76.5 -27zM143 782l52 265h905l-205 -1047h-557q-168 0 -271.5 82t-103.5 219q0 115 59.5 201t156.5 129t218 43h267l20 108h-541zM616 430
h-174q-47 0 -78.5 -28t-31.5 -76q0 -38 26 -61t68 -23h156z" />
    <glyph glyph-name="amacron.alt2" horiz-adv-x="1163" 
d="M381 1450h702l-49 -256h-700zM143 782l52 265h905l-205 -1047h-557q-168 0 -271.5 82t-103.5 219q0 115 59.5 201t156.5 129t218 43h267l20 108h-541zM616 430h-174q-47 0 -78.5 -28t-31.5 -76q0 -38 26 -61t68 -23h156z" />
    <glyph glyph-name="aogonek.alt2" horiz-adv-x="1163" 
d="M143 782l52 265h905l-205 -1047q-92 -39 -152 -101.5t-57 -140.5q1 -33 24 -52t58 -19q36 0 70 12l-39 -195q-91 -32 -154 -32q-106 0 -173 58t-64 159q6 181 194 311h-264q-168 0 -271.5 82t-103.5 219q0 115 59.5 201t156.5 129t218 43h267l20 108h-541zM616 430h-174
q-47 0 -78.5 -28t-31.5 -76q0 -38 26 -61t68 -23h156z" />
    <glyph glyph-name="dcaron.alt" horiz-adv-x="1558" 
d="M0 465q0 164 81 297.5t223 209t317 75.5h200l97 489h362l-96 -489l-203 -1047h-477q-225 0 -364.5 128t-139.5 337zM1503 1122h-215l142 414h319zM758 723h-152q-102 0 -165.5 -66t-63.5 -161q0 -76 47 -124t125 -48h131z" />
    <glyph glyph-name="dcroat.alt" horiz-adv-x="1249" 
d="M-2 465q0 164 80 297t222 209t316 76h201l27 131h-232l41 219h234l26 139h363l-27 -139h137l-43 -219h-137l-26 -131l-203 -1047h-477q-225 0 -363.5 128t-138.5 337zM754 723h-152q-102 0 -165.5 -66t-63.5 -161q0 -76 47 -124t125 -48h131z" />
    <glyph glyph-name="eacute.alt" horiz-adv-x="1175" 
d="M717 1464h440l-379 -286h-307zM-51 0l117 604q41 222 197 343.5t399 121.5q122 0 222 -36.5t162 -112.5t62 -179q0 -120 -65 -203t-172 -121t-248 -38h-244l-21 -100h254q204 0 357 30l-62 -309h-958zM420 596h184q58 0 98 25.5t46 76.5q4 47 -34.5 73t-95.5 26
q-72 0 -124 -40t-62 -104z" />
    <glyph glyph-name="ecircumflex.alt" horiz-adv-x="1175" 
d="M827 1178l-104 114l-154 -114h-305l291 286h393l180 -286h-301zM-51 0l117 604q41 222 197 343.5t399 121.5q122 0 222 -36.5t162 -112.5t62 -179q0 -120 -65 -203t-172 -121t-248 -38h-244l-21 -100h254q204 0 357 30l-62 -309h-958zM420 596h184q58 0 98 25.5t46 76.5
q4 47 -34.5 73t-95.5 26q-72 0 -124 -40t-62 -104z" />
    <glyph glyph-name="edieresis.alt" horiz-adv-x="1175" 
d="M506 1174q-68 0 -111 42t-43 107q0 73 52 120.5t126 47.5q68 0 111 -43t43 -107q0 -73 -52 -120t-126 -47zM924 1174q-68 0 -111 42.5t-43 106.5q0 73 52 120.5t126 47.5q69 0 111.5 -43t42.5 -107q0 -75 -51.5 -121t-126.5 -46zM-51 0l117 604q41 222 197 343.5
t399 121.5q122 0 222 -36.5t162 -112.5t62 -179q0 -120 -65 -203t-172 -121t-248 -38h-244l-21 -100h254q204 0 357 30l-62 -309h-958zM420 596h184q58 0 98 25.5t46 76.5q4 47 -34.5 73t-95.5 26q-72 0 -124 -40t-62 -104z" />
    <glyph glyph-name="egrave.alt" horiz-adv-x="1175" 
d="M285 1464h424l161 -286h-299zM-51 0l117 604q41 222 197 343.5t399 121.5q122 0 222 -36.5t162 -112.5t62 -179q0 -120 -65 -203t-172 -121t-248 -38h-244l-21 -100h254q204 0 357 30l-62 -309h-958zM420 596h184q58 0 98 25.5t46 76.5q4 47 -34.5 73t-95.5 26
q-72 0 -124 -40t-62 -104z" />
    <glyph glyph-name="ebreve.alt" horiz-adv-x="1175" 
d="M735 1380q44 0 77.5 27t45.5 70h256q-34 -149 -143 -234.5t-262 -85.5q-151 0 -245.5 88.5t-84.5 231.5h254q-3 -43 26 -70t76 -27zM-51 0l117 604q41 222 197 343.5t399 121.5q122 0 222 -36.5t162 -112.5t62 -179q0 -120 -65 -203t-172 -121t-248 -38h-244l-21 -100
h254q204 0 357 30l-62 -309h-958zM420 596h184q58 0 98 25.5t46 76.5q4 47 -34.5 73t-95.5 26q-72 0 -124 -40t-62 -104z" />
    <glyph glyph-name="ecaron.alt" horiz-adv-x="1175" 
d="M1188 1464l-291 -286h-393l-180 286h299l106 -114l152 114h307zM-51 0l117 604q41 222 197 343.5t399 121.5q122 0 222 -36.5t162 -112.5t62 -179q0 -120 -65 -203t-172 -121t-248 -38h-244l-21 -100h254q204 0 357 30l-62 -309h-958zM420 596h184q58 0 98 25.5t46 76.5
q4 47 -34.5 73t-95.5 26q-72 0 -124 -40t-62 -104z" />
    <glyph glyph-name="edotaccent.alt" horiz-adv-x="1175" 
d="M713 1174q-83 0 -136 47.5t-53 121.5q0 90 66.5 149.5t159.5 59.5q82 0 134 -49t52 -125q0 -93 -66 -148.5t-157 -55.5zM-51 0l117 604q41 222 197 343.5t399 121.5q122 0 222 -36.5t162 -112.5t62 -179q0 -120 -65 -203t-172 -121t-248 -38h-244l-21 -100h254
q204 0 357 30l-62 -309h-958zM420 596h184q58 0 98 25.5t46 76.5q4 47 -34.5 73t-95.5 26q-72 0 -124 -40t-62 -104z" />
    <glyph glyph-name="emacron.alt" horiz-adv-x="1175" 
d="M397 1450h703l-49 -256h-701zM-51 0l117 604q41 222 197 343.5t399 121.5q122 0 222 -36.5t162 -112.5t62 -179q0 -120 -65 -203t-172 -121t-248 -38h-244l-21 -100h254q204 0 357 30l-62 -309h-958zM420 596h184q58 0 98 25.5t46 76.5q4 47 -34.5 73t-95.5 26
q-72 0 -124 -40t-62 -104z" />
    <glyph glyph-name="eogonek.alt" horiz-adv-x="1175" 
d="M811 -496q-91 -32 -154 -32q-106 0 -173 58t-64 159q6 181 194 311h-665l117 604q41 222 197 343.5t399 121.5q122 0 222 -36.5t162 -112.5t62 -179q0 -120 -65 -203t-172 -121t-248 -38h-244l-21 -100h254q204 0 357 30l-62 -309q-92 -39 -152 -101.5t-57 -140.5
q1 -33 24 -52t58 -19q36 0 70 12zM420 596h184q58 0 98 25.5t46 76.5q4 47 -34.5 73t-95.5 26q-72 0 -124 -40t-62 -104z" />
    <glyph glyph-name="eacute.alt2" horiz-adv-x="1191" 
d="M696 1464h441l-379 -286h-307zM-31 0l201 1047h985l-55 -281q-30 -183 -154.5 -287t-302.5 -104h-242l-20 -111h598l-53 -264h-957zM758 795h-275l-34 -181h159q53 0 91.5 31.5t48.5 85.5z" />
    <glyph glyph-name="ecircumflex.alt2" horiz-adv-x="1191" 
d="M825 1178l-104 114l-154 -114h-305l291 286h393l180 -286h-301zM-31 0l201 1047h985l-55 -281q-30 -183 -154.5 -287t-302.5 -104h-242l-20 -111h598l-53 -264h-957zM758 795h-275l-34 -181h159q53 0 91.5 31.5t48.5 85.5z" />
    <glyph glyph-name="edieresis.alt2" horiz-adv-x="1191" 
d="M506 1174q-68 0 -111 42t-43 107q0 73 52 120.5t126 47.5q68 0 111 -43t43 -107q0 -73 -52 -120t-126 -47zM924 1174q-68 0 -111 42.5t-43 106.5q0 73 52 120.5t126 47.5q69 0 111.5 -43t42.5 -107q0 -75 -51.5 -121t-126.5 -46zM-31 0l201 1047h985l-55 -281
q-30 -183 -154.5 -287t-302.5 -104h-242l-20 -111h598l-53 -264h-957zM758 795h-275l-34 -181h159q53 0 91.5 31.5t48.5 85.5z" />
    <glyph glyph-name="egrave.alt2" horiz-adv-x="1191" 
d="M307 1464h424l162 -286h-299zM-31 0l201 1047h985l-55 -281q-30 -183 -154.5 -287t-302.5 -104h-242l-20 -111h598l-53 -264h-957zM758 795h-275l-34 -181h159q53 0 91.5 31.5t48.5 85.5z" />
    <glyph glyph-name="ebreve.alt2" horiz-adv-x="1191" 
d="M725 1380q44 0 77.5 27t45.5 70h256q-34 -148 -143.5 -234t-262.5 -86q-151 0 -245 88.5t-84 231.5h254q-3 -43 26 -70t76 -27zM-31 0l201 1047h985l-55 -281q-30 -183 -154.5 -287t-302.5 -104h-242l-20 -111h598l-53 -264h-957zM758 795h-275l-34 -181h159
q53 0 91.5 31.5t48.5 85.5z" />
    <glyph glyph-name="ecaron.alt2" horiz-adv-x="1191" 
d="M1184 1464l-291 -286h-393l-181 286h299l107 -114l152 114h307zM-31 0l201 1047h985l-55 -281q-30 -183 -154.5 -287t-302.5 -104h-242l-20 -111h598l-53 -264h-957zM758 795h-275l-34 -181h159q53 0 91.5 31.5t48.5 85.5z" />
    <glyph glyph-name="edotaccent.alt2" horiz-adv-x="1191" 
d="M709 1174q-83 0 -136 47.5t-53 121.5q0 90 66 149.5t159 59.5q82 0 134.5 -49t52.5 -125q0 -93 -66 -148.5t-157 -55.5zM-31 0l201 1047h985l-55 -281q-30 -183 -154.5 -287t-302.5 -104h-242l-20 -111h598l-53 -264h-957zM758 795h-275l-34 -181h159q53 0 91.5 31.5
t48.5 85.5z" />
    <glyph glyph-name="emacron.alt2" horiz-adv-x="1191" 
d="M391 1450h703l-50 -256h-700zM-31 0l201 1047h985l-55 -281q-30 -183 -154.5 -287t-302.5 -104h-242l-20 -111h598l-53 -264h-957zM758 795h-275l-34 -181h159q53 0 91.5 31.5t48.5 85.5z" />
    <glyph glyph-name="eogonek.alt2" horiz-adv-x="1191" 
d="M-31 0l201 1047h985l-55 -281q-30 -183 -154.5 -287t-302.5 -104h-242l-20 -111h598l-53 -264q-92 -39 -152 -101.5t-57 -140.5q1 -33 24 -52t58 -19t69 12l-39 -195q-91 -32 -153 -32q-106 0 -173.5 58t-64.5 159q6 180 195 311h-664zM758 795h-275l-34 -181h159
q53 0 91.5 31.5t48.5 85.5z" />
    <glyph glyph-name="hbar.alt2" horiz-adv-x="1263" 
d="M770 1178h-211l-27 -131h668l-205 -1047h-362l143 729h-305l-141 -729h-361l228 1178h-160l41 219h162l26 139h363l-27 -139h209z" />
    <glyph glyph-name="hcircumflex.alt2" horiz-adv-x="1263" 
d="M905 1649l-104 114l-154 -114h-305l291 286h393l180 -286h-301zM629 1536l-97 -489h668l-205 -1047h-362l143 729h-305l-141 -729h-361l297 1536h363z" />
    <glyph glyph-name="i.dot" horiz-adv-x="600" 
d="M207 1341q0 92 66 151.5t159 59.5q82 0 134 -48.5t52 -123.5q0 -94 -66 -150t-159 -56q-81 0 -133.5 47.5t-52.5 119.5zM-33 0l201 1047h364l-204 -1047h-361z" />
    <glyph glyph-name="ntilde.alt2" horiz-adv-x="1263" 
d="M858 1169q-52 0 -150.5 28t-119.5 28q-30 0 -54 -18t-28 -46h-166q39 312 276 312q51 0 155 -29t118 -29q31 0 54.5 17.5t27.5 46.5h174q-15 -148 -89.5 -229t-197.5 -81zM-31 0l201 1047h1030l-205 -1047h-362l143 729h-305l-141 -729h-361z" />
    <glyph glyph-name="nacute.alt2" horiz-adv-x="1263" 
d="M735 1464h441l-379 -286h-308zM-31 0l201 1047h1030l-205 -1047h-362l143 729h-305l-141 -729h-361z" />
    <glyph glyph-name="ncaron.alt2" horiz-adv-x="1263" 
d="M1206 1464l-291 -286h-393l-180 286h299l107 -114l151 114h307zM-31 0l201 1047h1030l-205 -1047h-362l143 729h-305l-141 -729h-361z" />
    <glyph glyph-name="ncommaaccent.alt2" horiz-adv-x="1263" 
d="M-31 0l201 1047h1030l-205 -1047h-362l143 729h-305l-141 -729h-361zM305 -111h334l-307 -374h-209z" />
    <glyph glyph-name="racute.alt" horiz-adv-x="913" 
d="M580 1464h440l-379 -286h-307zM932 831l-514 -372l-88 -459h-361l201 1047h362l-28 -152l248 180z" />
    <glyph glyph-name="rcaron.alt" horiz-adv-x="913" 
d="M1065 1464l-291 -286h-393l-180 286h299l106 -114l152 114h307zM932 831l-514 -372l-88 -459h-361l201 1047h362l-28 -152l248 180z" />
    <glyph glyph-name="rcommaaccent.alt" horiz-adv-x="913" 
d="M932 831l-514 -372l-88 -459h-361l201 1047h362l-28 -152l248 180zM-12 -111h334l-308 -374h-209z" />
    <glyph glyph-name="racute.alt2" horiz-adv-x="856" 
d="M590 1464h440l-379 -286h-307zM-31 0l201 1047h698l-59 -318h-338l-141 -729h-361z" />
    <glyph glyph-name="rcaron.alt2" horiz-adv-x="856" 
d="M1071 1464l-291 -286h-393l-180 286h299l106 -114l152 114h307zM-31 0l201 1047h698l-59 -318h-338l-141 -729h-361z" />
    <glyph glyph-name="rcommaaccent.alt2" horiz-adv-x="856" 
d="M-31 0l201 1047h698l-59 -318h-338l-141 -729h-361zM-8 -111h334l-308 -374h-208z" />
    <glyph glyph-name="caron.alt" horiz-adv-x="710" 
d="M430 1122h-215l141 414h320z" />
    <glyph glyph-name="revcommaaccent" horiz-adv-x="1226" 
d="M821 1540h213l-186 -377h-332z" />
    <glyph glyph-name="ampersand.alt" horiz-adv-x="1658" 
d="M63 436q0 197 127.5 335.5t341.5 186.5l-299 578h1049l-57 -295h-428l297 -569q87 162 133 352h340q-105 -411 -310 -674l183 -350h-412l-49 94q-189 -117 -406 -117q-230 0 -370 125.5t-140 333.5zM436 477q0 -79 52 -128.5t139 -49.5q100 0 209 72l-166 321l-25 -6
q-209 -54 -209 -209z" />
    <glyph glyph-name="Omega" horiz-adv-x="1480" 
d="M1204 0h-555l107 555q131 47 214 157.5t83 239.5q0 114 -66 187t-180 73q-129 0 -216.5 -91t-98.5 -226q-11 -104 30 -195.5t127 -144.5l-106 -555h-555l59 305h266l23 111q-100 88 -154.5 209.5t-54.5 265.5q0 189 92 342.5t252.5 239.5t357.5 86q267 0 430.5 -153.5
t163.5 -397.5q0 -200 -111.5 -364t-301.5 -267l-15 -72h269z" />
    <glyph glyph-name="Delta" horiz-adv-x="1611" 
d="M946 1581l508 -1581h-1593zM471 309h522l-159 555z" />
    </font>
</defs>
</svg>
