<?xml version="1.0" standalone="no"?>
<!DOCTYPE svg PUBLIC "-//W3C//DTD SVG 1.1//EN" "http://www.w3.org/Graphics/SVG/1.1/DTD/svg11.dtd" >
<svg xmlns="http://www.w3.org/2000/svg" xmlns:xlink="http://www.w3.org/1999/xlink" version="1.1">
<metadata>
Created by FontForge 20170731 at Sat May 21 23:58:17 2022
 By Aleksey,,,
Copyright 2017 Indian Type Foundry
</metadata>
<defs>
<font id="Ekster-Black" horiz-adv-x="1325" >
  <font-face 
    font-family="Ekster Black"
    font-weight="900"
    font-stretch="normal"
    units-per-em="2048"
    panose-1="2 0 10 0 3 0 0 2 0 0"
    ascent="1638"
    descent="-410"
    x-height="1065"
    cap-height="1536"
    bbox="-236 -676 3406 2085"
    underline-thickness="245"
    underline-position="-511"
    unicode-range="U+0020-FB02"
  />
<missing-glyph horiz-adv-x="1138" 
d="M154 0v1536h831v-1536h-831zM246 86h647v1364h-647v-1364zM788 629l-73 -74l-142 141l-141 -141l-72 74l142 141l-142 139l72 74l141 -141l142 141l73 -74l-141 -139z" />
    <glyph glyph-name="fi" unicode="fi" horiz-adv-x="1402" 
d="M1085 1174q-107 0 -177 59.5t-70 161.5t69.5 160.5t177.5 58.5q106 0 175 -59.5t69 -159.5q0 -101 -69.5 -161t-174.5 -60zM758 717h-215v-717h-451v1065q0 217 139.5 356.5t360.5 139.5q86 0 166 -15v-352q-40 4 -62 4q-65 0 -109 -32.5t-44 -92.5v-8h215v-348zM860 0
v1065h451v-1065h-451z" />
    <glyph glyph-name="fl" unicode="fl" horiz-adv-x="1402" 
d="M758 717h-215v-717h-451v1065q0 217 139.5 356.5t360.5 139.5q86 0 166 -15v-352q-40 4 -62 4q-65 0 -109 -32.5t-44 -92.5v-8h215v-348zM860 0v1536h451v-1536h-451z" />
    <glyph glyph-name=".notdef" horiz-adv-x="1138" 
d="M154 0v1536h831v-1536h-831zM246 86h647v1364h-647v-1364zM788 629l-73 -74l-142 141l-141 -141l-72 74l142 141l-142 139l72 74l141 -141l142 141l73 -74l-141 -139z" />
    <glyph glyph-name=".null" horiz-adv-x="0" 
 />
    <glyph glyph-name="nonmarkingreturn" horiz-adv-x="682" 
 />
    <glyph glyph-name="space" unicode=" " horiz-adv-x="450" 
 />
    <glyph glyph-name="exclam" unicode="!" horiz-adv-x="696" 
d="M82 1536h532v-307l-112 -686h-307l-113 686v307zM356 465q115 0 186.5 -68t71.5 -176q0 -109 -71.5 -177.5t-186.5 -68.5q-117 0 -189.5 68.5t-72.5 177.5q0 108 72.5 176t189.5 68z" />
    <glyph glyph-name="quotedbl" unicode="&#x22;" horiz-adv-x="1064" 
d="M123 881l-31 655h389l-30 -655h-328zM614 881l-30 655h389l-31 -655h-328z" />
    <glyph glyph-name="numbersign" unicode="#" horiz-adv-x="1554" 
d="M664 0l81 287h-194l-82 -287h-338l82 287h-195v340h291l82 282h-229v340h325l82 287h338l-82 -287h195l82 287h338l-82 -287h176v-340h-272l-82 -282h211v-340h-308l-82 -287h-337zM647 627h195l82 282h-195z" />
    <glyph glyph-name="dollar" unicode="$" horiz-adv-x="1296" 
d="M1276 487q0 -173 -118.5 -306.5t-317.5 -182.5v-289h-369v279q-214 30 -401 135v473q177 -129 330 -191.5t264 -62.5q98 0 98 61q0 44 -49 64l-353 154q-309 131 -309 436q0 185 113.5 313.5t310.5 171.5v285h369v-279q184 -27 350 -112v-463q-157 109 -297.5 161
t-230.5 52q-107 0 -107 -64q0 -39 49 -61l344 -156q179 -82 251.5 -178t72.5 -240z" />
    <glyph glyph-name="percent" unicode="%" horiz-adv-x="2369" 
d="M539 653q-215 0 -356.5 129t-141.5 326q0 196 141.5 324.5t356.5 128.5q216 0 356.5 -128t140.5 -325t-140.5 -326t-356.5 -129zM838 0h-338l1032 1536h338zM539 1292q-83 0 -137 -52t-54 -132q0 -82 54 -135t137 -53t136.5 53t53.5 135q0 80 -53.5 132t-136.5 52z
M1831 -25q-215 0 -356.5 129t-141.5 326q0 196 141.5 324.5t356.5 128.5q217 0 357.5 -128t140.5 -325t-141 -326t-357 -129zM2021 430q0 80 -53.5 132t-136.5 52t-137 -52t-54 -132q0 -82 54 -135t137 -53t136.5 53t53.5 135z" />
    <glyph glyph-name="ampersand" unicode="&#x26;" horiz-adv-x="1687" 
d="M1208 0l-110 106q-204 -131 -465 -131q-157 0 -285 52.5t-207.5 159.5t-79.5 253q0 142 73.5 252.5t201.5 171.5q-82 122 -82 258q0 141 73.5 247t193.5 159t267 53q151 0 272 -60.5t191 -175t70 -262.5h-408q0 58 -30.5 96t-81.5 38q-44 0 -75.5 -28.5t-31.5 -74.5
q0 -35 11 -66.5t36 -63t43.5 -51t56.5 -54t52 -48.5l178 -174q38 90 62 222h417q-48 -297 -190 -508l379 -371h-531zM512 477q0 -67 43 -105t109 -38q89 0 161 35l-247 235q-66 -45 -66 -127z" />
    <glyph glyph-name="quotesingle" unicode="'" horiz-adv-x="573" 
d="M123 881l-31 655h389l-30 -655h-328z" />
    <glyph glyph-name="parenleft" unicode="(" horiz-adv-x="933" 
d="M92 627q0 250 99 458t283.5 346.5t428.5 186.5v-410q-176 -63 -268 -218.5t-92 -362.5q0 -206 92.5 -364t267.5 -222v-410q-244 48 -428.5 188t-283.5 349t-99 459z" />
    <glyph glyph-name="parenright" unicode=")" horiz-adv-x="933" 
d="M842 627q0 -250 -99 -459t-283.5 -349t-428.5 -188v410q175 66 267.5 223t92.5 363q0 207 -92 362.5t-268 218.5v410q244 -48 428.5 -186.5t283.5 -346.5t99 -458z" />
    <glyph glyph-name="asterisk" unicode="*" horiz-adv-x="890" 
d="M303 1536h283l-70 -270l203 194l139 -243l-268 -76l270 -78l-141 -244l-201 195l68 -273h-281l68 271l-201 -195l-141 244l270 76l-270 77l139 244l203 -194z" />
    <glyph glyph-name="plus" unicode="+" horiz-adv-x="1433" 
d="M1249 608h-366v-362h-332v362h-367v340h367v363h332v-363h366v-340z" />
    <glyph glyph-name="comma" unicode="," horiz-adv-x="643" 
d="M319 -358h-268l172 340q-153 70 -153 231q0 111 70 178.5t186 67.5q115 0 185.5 -67t70.5 -175q0 -91 -58 -201z" />
    <glyph glyph-name="hyphen" unicode="-" horiz-adv-x="942" 
d="M102 420v368h738v-368h-738z" />
    <glyph glyph-name="period" unicode="." horiz-adv-x="643" 
d="M324 -25q-117 0 -190 68.5t-73 177.5q0 108 73 176t190 68q115 0 186.5 -68t71.5 -176q0 -109 -71.5 -177.5t-186.5 -68.5z" />
    <glyph glyph-name="slash" unicode="/" horiz-adv-x="1239" 
d="M369 -360h-430l931 2043h430z" />
    <glyph glyph-name="zero" unicode="0" horiz-adv-x="1486" 
d="M1432 772q0 -164 -47 -308.5t-133.5 -253.5t-218 -172t-290.5 -63t-290.5 63t-217.5 172t-133 253.5t-47 308.5q0 130 29.5 248.5t88 217t140.5 171t192.5 112.5t237.5 40q211 0 369.5 -107.5t239 -285t80.5 -396.5zM743 406q100 0 143.5 85t43.5 281q0 189 -44.5 273.5
t-142.5 84.5t-142 -84.5t-44 -273.5q0 -196 43 -281t143 -85z" />
    <glyph glyph-name="one" unicode="1" horiz-adv-x="972" 
d="M379 0v926l-338 -140v451l809 350v-1587h-471z" />
    <glyph glyph-name="two" unicode="2" horiz-adv-x="1236" 
d="M1186 416v-416h-1206l495 723q82 120 103.5 165t21.5 95q0 68 -49 109t-121 41q-145 0 -336 -175v449q217 154 498 154q230 0 375 -135t145 -349q0 -123 -55.5 -246.5t-204.5 -336.5l-55 -78h389z" />
    <glyph glyph-name="three" unicode="3" horiz-adv-x="1218" 
d="M1174 477q0 -102 -35.5 -185.5t-97 -141.5t-146 -98t-181 -58.5t-202.5 -18.5q-273 0 -481 115v397q230 -116 440 -116q191 0 191 110q0 61 -49.5 91t-123.5 30q-90 0 -225 -27v328l234 45q46 9 76 39.5t30 71.5q0 50 -38.5 74t-96.5 24q-202 0 -401 -143v389
q236 158 532 158q139 0 252 -48.5t182.5 -146.5t69.5 -231q0 -93 -41 -172.5t-115 -137.5q106 -54 166 -144t60 -204z" />
    <glyph glyph-name="four" unicode="4" horiz-adv-x="1429" 
d="M1391 260h-134v-260h-450v260h-811l485 1276h449l-334 -918h211v345h450v-345h134v-358z" />
    <glyph glyph-name="five" unicode="5" horiz-adv-x="1193" 
d="M1141 504q0 -124 -49 -225.5t-134 -167t-197.5 -101t-240.5 -35.5q-267 0 -434 97v389q169 -107 346 -107q90 0 148.5 36t58.5 112t-57.5 111.5t-147.5 35.5q-166 0 -299 -55v942h969v-410h-518v-145h32q225 0 374 -131t149 -346z" />
    <glyph glyph-name="six" unicode="6" horiz-adv-x="1333" 
d="M1294 487q0 -161 -86 -279t-224.5 -175.5t-309.5 -57.5q-175 0 -317 62t-229 186.5t-87 292.5q0 190 123 373l432 647h532l-374 -547q153 -3 275 -64.5t193.5 -175.5t71.5 -262zM668 385q62 0 103.5 35.5t41.5 93.5t-41.5 93.5t-103.5 35.5q-55 0 -95 -29
q-51 -38 -51 -100q0 -58 42 -93.5t104 -35.5z" />
    <glyph glyph-name="seven" unicode="7" horiz-adv-x="1247" 
d="M1288 1536l-717 -1536h-512l519 1126h-531v410h1241z" />
    <glyph glyph-name="eight" unicode="8" horiz-adv-x="1318" 
d="M659 -25q-97 0 -186.5 19t-168 59t-136.5 97t-91.5 137.5t-33.5 175.5q0 129 69.5 227t190.5 141q-182 117 -182 310q0 103 43.5 184.5t119 132t171 77t204.5 26.5t205 -26.5t171 -77t119 -132t44 -184.5q0 -94 -46.5 -174t-131.5 -136q120 -44 188 -141.5t68 -226.5
q0 -95 -33.5 -175.5t-92 -137.5t-137 -97t-168 -59t-186.5 -19zM768 1114q0 45 -31 71.5t-78 26.5t-77.5 -26.5t-30.5 -71.5t30.5 -72.5t77.5 -27.5t78 27.5t31 72.5zM795 502q0 54 -39 85t-97 31t-96.5 -31t-38.5 -85t38.5 -85.5t96.5 -31.5t97 31.5t39 85.5z" />
    <glyph glyph-name="nine" unicode="9" horiz-adv-x="1333" 
d="M1169 647l-432 -647h-532l362 539q-149 6 -267.5 67.5t-189.5 176.5t-71 264q0 122 49 220.5t134.5 162t197 97.5t239.5 34q175 0 317 -62t229 -186.5t87 -292.5q0 -190 -123 -373zM666 1151q-62 0 -104 -35.5t-42 -93.5t42 -93.5t104 -35.5q66 0 108 39q37 37 37 90
q0 58 -41.5 93.5t-103.5 35.5z" />
    <glyph glyph-name="colon" unicode=":" horiz-adv-x="663" 
d="M334 600q-117 0 -189.5 68.5t-72.5 177.5q0 108 72.5 176t189.5 68q115 0 186.5 -68t71.5 -176q0 -109 -71.5 -177.5t-186.5 -68.5zM334 -25q-117 0 -189.5 68.5t-72.5 177.5q0 108 72.5 176t189.5 68q115 0 186.5 -68t71.5 -176q0 -109 -71.5 -177.5t-186.5 -68.5z" />
    <glyph glyph-name="semicolon" unicode=";" horiz-adv-x="663" 
d="M334 600q-117 0 -189.5 68.5t-72.5 177.5q0 108 72.5 176t189.5 68q115 0 186.5 -68t71.5 -176q0 -109 -71.5 -177.5t-186.5 -68.5zM330 -358h-269l172 340q-153 70 -153 231q0 111 70 178.5t186 67.5q114 0 185 -67.5t71 -174.5q0 -93 -57 -201z" />
    <glyph glyph-name="less" unicode="&#x3c;" horiz-adv-x="1433" 
d="M1167 565v-368l-901 393v368l901 394v-369l-544 -209z" />
    <glyph glyph-name="equal" unicode="=" horiz-adv-x="1433" 
d="M184 854v330h1065v-330h-1065zM184 350v330h1065v-330h-1065z" />
    <glyph glyph-name="greater" unicode="&#x3e;" horiz-adv-x="1433" 
d="M1167 590l-901 -393v368l545 209l-545 209v369l901 -394v-368z" />
    <glyph glyph-name="question" unicode="?" horiz-adv-x="1286" 
d="M834 676l-70 -14l-27 -119h-323l-47 334l284 61q133 27 133 115q0 59 -41.5 88.5t-103.5 29.5q-73 0 -120.5 -43.5t-47.5 -117.5h-420q0 251 165.5 401t449.5 150q257 0 413 -122.5t156 -322.5q0 -168 -98.5 -282.5t-302.5 -157.5zM582 -25q-117 0 -190 68.5t-73 177.5
q0 108 73 176t190 68q115 0 186.5 -68t71.5 -176q0 -109 -71.5 -177.5t-186.5 -68.5z" />
    <glyph glyph-name="at" unicode="@" horiz-adv-x="1761" 
d="M1235 -195q-164 -77 -383 -77q-175 0 -326 59t-257.5 164t-167 254.5t-60.5 324.5q0 182 64.5 335t176.5 257t266 161.5t331 57.5q239 0 429.5 -95.5t301 -275t110.5 -413.5q0 -111 -21 -199t-65.5 -156.5t-120.5 -105.5t-180 -37q-196 0 -278 142q-76 -142 -248 -142
q-191 0 -308.5 133t-117.5 332q0 204 116.5 339.5t309.5 135.5q122 0 197 -75v55h337v-666q0 -46 27.5 -74t73.5 -28q36 0 63.5 13.5t46 39t30.5 56.5t18.5 72.5t9 79.5t2.5 85q0 204 -96 361.5t-262.5 242t-374.5 84.5t-373 -87t-260.5 -250.5t-95.5 -377.5
q0 -153 52 -284.5t143.5 -224t222.5 -145t284 -52.5q193 0 383 80v-99zM999 524q0 62 -37 101t-98 39t-98 -39t-37 -101q0 -58 38 -93.5t97 -35.5t97 35.5t38 93.5z" />
    <glyph glyph-name="A" unicode="A" horiz-adv-x="1673" 
d="M1141 0l-54 113h-534l-51 -113h-502l805 1587l868 -1587h-532zM698 438h234l-121 254z" />
    <glyph glyph-name="B" unicode="B" horiz-adv-x="1449" 
d="M123 0v1536h715q142 0 252.5 -46t176.5 -142t66 -230q0 -184 -157 -315q219 -143 219 -367q0 -198 -143.5 -317t-366.5 -119h-762zM754 1159h-160v-196h160q48 0 78 26.5t30 71.5t-30.5 71.5t-77.5 26.5zM797 602h-203v-225h203q51 0 83.5 30.5t32.5 81.5q0 50 -33 81.5
t-83 31.5z" />
    <glyph glyph-name="C" unicode="C" horiz-adv-x="1400" 
d="M854 -25q-174 0 -322 60t-251.5 165t-161.5 252.5t-58 317.5t58 316.5t161 251t251 164t321 59.5q243 0 457 -117v-492q-201 158 -402 158q-157 0 -255.5 -92t-98.5 -240q0 -156 104.5 -254t270.5 -98q200 0 377 119v-465q-215 -105 -451 -105z" />
    <glyph glyph-name="D" unicode="D" horiz-adv-x="1579" 
d="M123 0v1536h637q220 0 393 -98t269 -272.5t96 -395.5q0 -165 -55 -308t-153 -244.5t-238.5 -159.5t-305.5 -58h-643zM692 1106h-108v-676h108q153 0 248.5 94t95.5 246q0 150 -96 243t-248 93z" />
    <glyph glyph-name="E" unicode="E" horiz-adv-x="1300" 
d="M123 0v1536h1079v-412h-608v-139h530v-407h-530v-168h631v-410h-1102z" />
    <glyph glyph-name="F" unicode="F" horiz-adv-x="1208" 
d="M123 0v1536h1034v-420h-563v-194h477v-420h-477v-502h-471z" />
    <glyph glyph-name="G" unicode="G" horiz-adv-x="1560" 
d="M1470 145q-302 -170 -604 -170q-174 0 -324 58.5t-255.5 161.5t-165.5 250t-60 319q0 234 109.5 416.5t301 281.5t431.5 99q230 0 451 -91v-471q-174 131 -414 131q-168 0 -277.5 -95.5t-109.5 -258.5q0 -157 103.5 -253.5t261.5 -96.5q44 0 102 10v142h-191v319h641
v-752z" />
    <glyph glyph-name="H" unicode="H" horiz-adv-x="1658" 
d="M1065 0v565h-471v-565h-471v1536h471v-551h471v551h471v-1536h-471z" />
    <glyph glyph-name="I" unicode="I" horiz-adv-x="716" 
d="M123 0v1536h471v-1536h-471z" />
    <glyph glyph-name="J" unicode="J" horiz-adv-x="997" 
d="M322 -25q-65 0 -142 20.5t-141 53.5v397q122 -57 227 -57q80 0 120 36t40 116v995h471v-1010q0 -277 -147.5 -414t-427.5 -137z" />
    <glyph glyph-name="K" unicode="K" horiz-adv-x="1636" 
d="M1061 0l-320 520l-147 -174v-346h-471v1536h471v-563l455 563h559l-549 -645l573 -891h-571z" />
    <glyph glyph-name="L" unicode="L" horiz-adv-x="1220" 
d="M1182 420v-420h-1059v1536h471v-1116h588z" />
    <glyph glyph-name="M" unicode="M" horiz-adv-x="1957" 
d="M979 309l-385 295v-604h-471v1587l858 -688l854 688v-1587h-471v610z" />
    <glyph glyph-name="N" unicode="N" horiz-adv-x="1650" 
d="M1528 -51l-934 710v-659h-471v1587l934 -710v659h471v-1587z" />
    <glyph glyph-name="O" unicode="O" horiz-adv-x="1744" 
d="M1683 774q0 -231 -103.5 -413.5t-288.5 -284t-419 -101.5t-419 101.5t-288.5 284t-103.5 413.5q0 172 61 319.5t167.5 250t257 160t325.5 57.5t325.5 -57.5t257 -160t167.5 -250t61 -319.5zM872 426q148 0 239 98t91 248q0 148 -91 243t-239 95t-238.5 -95t-90.5 -243
q0 -150 90.5 -248t238.5 -98z" />
    <glyph glyph-name="P" unicode="P" horiz-adv-x="1429" 
d="M123 0v1536h653q268 0 440.5 -162.5t172.5 -419.5q0 -169 -78.5 -302t-218.5 -206t-316 -73h-182v-373h-471zM725 1147h-131v-385h131q85 0 133.5 55t48.5 137t-48.5 137.5t-133.5 55.5z" />
    <glyph glyph-name="Q" unicode="Q" horiz-adv-x="1744" 
d="M1683 774q0 -194 -74 -354.5t-208 -267.5l334 -377h-570l-178 207q-65 -7 -115 -7q-234 0 -419 101.5t-288.5 284t-103.5 413.5q0 172 61 319.5t167.5 250t257 160t325.5 57.5t325.5 -57.5t257 -160t167.5 -250t61 -319.5zM543 772q0 -150 90.5 -248t238.5 -98t239 98
t91 248q0 148 -91 243t-239 95t-238.5 -95t-90.5 -243z" />
    <glyph glyph-name="R" unicode="R" horiz-adv-x="1476" 
d="M123 0v1536h694q259 0 423.5 -153.5t164.5 -401.5q0 -157 -71.5 -280t-198.5 -195l331 -506h-553l-258 426h-61v-426h-471zM754 1147h-160v-332h160q78 0 124 47t46 119q0 71 -47 118.5t-123 47.5z" />
    <glyph glyph-name="S" unicode="S" horiz-adv-x="1343" 
d="M698 1186q-106 0 -106 -64q0 -39 49 -61l344 -156q179 -82 251.5 -178t72.5 -240q0 -106 -46.5 -200t-129 -163t-202 -109t-257.5 -40q-309 0 -572 148v481q178 -128 331 -191t263 -63q99 0 99 62q0 42 -50 63l-352 154q-159 69 -234 174.5t-75 257.5q0 226 166.5 363
t441.5 137q292 0 525 -125v-463q-154 109 -292.5 161t-226.5 52z" />
    <glyph glyph-name="T" unicode="T" horiz-adv-x="1392" 
d="M1362 1116h-430v-1116h-471v1116h-430v420h1331v-420z" />
    <glyph glyph-name="U" unicode="U" horiz-adv-x="1540" 
d="M113 606v930h471v-911q0 -105 48 -157t138 -52t138 52t48 157v911h471v-930q0 -289 -181 -460t-476 -171t-476 171t-181 460z" />
    <glyph glyph-name="V" unicode="V" horiz-adv-x="1646" 
d="M1647 1536l-840 -1587l-807 1587h543l278 -616l303 616h523z" />
    <glyph glyph-name="W" unicode="W" horiz-adv-x="2289" 
d="M2290 1536l-766 -1587l-371 684l-387 -684l-766 1587h543l260 -580l352 631l350 -614l262 563h523z" />
    <glyph glyph-name="X" unicode="X" horiz-adv-x="1671" 
d="M1087 0l-276 403l-264 -403h-547l539 801l-506 735h583l242 -352l240 352h540l-516 -737l549 -799h-584z" />
    <glyph glyph-name="Y" unicode="Y" horiz-adv-x="1646" 
d="M1647 1536l-564 -1004v-532h-471v508l-612 1028h543l299 -549l282 549h523z" />
    <glyph glyph-name="Z" unicode="Z" horiz-adv-x="1476" 
d="M1374 420v-420h-1354l656 1116h-580v420h1360l-645 -1116h563z" />
    <glyph glyph-name="bracketleft" unicode="[" horiz-adv-x="937" 
d="M133 -369v1987h774v-389h-323v-1209h323v-389h-774z" />
    <glyph glyph-name="backslash" unicode="\" horiz-adv-x="1239" 
d="M870 -360l-931 2043h430l931 -2043h-430z" />
    <glyph glyph-name="bracketright" unicode="]" horiz-adv-x="937" 
d="M805 -369h-774v389h323v1209h-323v389h774v-1987z" />
    <glyph glyph-name="asciicircum" unicode="^" horiz-adv-x="1433" 
d="M926 635l-209 549l-209 -549h-350l374 901h369l375 -901h-350z" />
    <glyph glyph-name="underscore" unicode="_" horiz-adv-x="1228" 
d="M0 -420v307h1229v-307h-1229z" />
    <glyph glyph-name="grave" unicode="`" horiz-adv-x="1370" 
d="M244 1475h532l193 -297h-369z" />
    <glyph glyph-name="a" unicode="a" 
d="M782 0v70q-89 -95 -229 -95q-154 0 -274 72.5t-184 198t-64 282.5q0 158 63.5 285.5t183.5 202t275 74.5q137 0 229 -95v70h451v-1065h-451zM635 680q-64 0 -106 -43t-42 -109q0 -64 42 -103.5t106 -39.5q65 0 106 39t41 104q0 66 -41.5 109t-105.5 43z" />
    <glyph glyph-name="b" unicode="b" 
d="M1294 537q0 -158 -64 -285.5t-184 -202t-274 -74.5q-130 0 -229 86v-61h-451v1536h451v-532q99 86 229 86q152 0 272 -73t185 -198.5t65 -281.5zM690 385q64 0 106 43t42 109q0 64 -42 103.5t-106 39.5q-65 0 -106 -39t-41 -104q0 -66 41.5 -109t105.5 -43z" />
    <glyph glyph-name="c" unicode="c" horiz-adv-x="1030" 
d="M492 535q0 -79 62.5 -124.5t158.5 -45.5q124 0 239 63v-387q-161 -66 -315 -66q-171 0 -308.5 68t-217.5 196t-80 293t79.5 293.5t215.5 196.5t305 68q171 0 327 -78v-408q-105 94 -268 94q-86 0 -142 -42.5t-56 -120.5z" />
    <glyph glyph-name="d" unicode="d" 
d="M782 0v61q-99 -86 -229 -86q-152 0 -272 73t-185 198.5t-65 281.5q0 158 64 285.5t184 202t274 74.5q130 0 229 -86v532h451v-1536h-451zM635 680q-64 0 -106 -43t-42 -109q0 -64 42 -103.5t106 -39.5q65 0 106 39t41 104q0 66 -41.5 109t-105.5 43z" />
    <glyph glyph-name="e" unicode="e" horiz-adv-x="1183" 
d="M1167 561q0 -82 -8 -145h-633q68 -105 238 -105q145 0 319 74v-311q-180 -99 -428 -99q-174 0 -314.5 64t-225 190.5t-84.5 294.5q0 166 75.5 295.5t208.5 200t301 70.5q156 0 281.5 -66t197.5 -187t72 -276zM610 793q-55 0 -86 -39t-39 -105h242q-5 64 -33.5 104
t-83.5 40z" />
    <glyph glyph-name="f" unicode="f" horiz-adv-x="890" 
d="M870 717h-327v-717h-451v1065q0 217 139.5 356.5t360.5 139.5q165 0 289 -66v-346q-93 49 -185 49q-65 0 -109 -32.5t-44 -92.5v-8h327v-348z" />
    <glyph glyph-name="g" unicode="g" 
d="M1233 23q0 -168 -82 -296.5t-223.5 -196t-319.5 -67.5q-237 0 -440 101v385q196 -117 381 -117q99 0 166 49.5t67 136.5v43q-99 -86 -229 -86q-230 0 -376 160.5t-146 401.5q0 156 64 281.5t184 198.5t274 73q130 0 229 -86v61h451v-1042zM782 528q0 66 -41.5 109
t-105.5 43t-106 -43t-42 -109q0 -64 42 -103.5t106 -39.5q65 0 106 39t41 104z" />
    <glyph glyph-name="h" unicode="h" horiz-adv-x="1280" 
d="M543 537v-537h-451v1536h451v-555q115 109 274 109q176 0 283.5 -119.5t107.5 -302.5v-668h-450v514q0 70 -26 107.5t-73 37.5q-53 0 -84.5 -33.5t-31.5 -88.5z" />
    <glyph glyph-name="i" unicode="i" horiz-adv-x="634" 
d="M319 1174q-107 0 -177 59.5t-70 161.5t69.5 160.5t177.5 58.5q106 0 175 -59.5t69 -159.5q0 -101 -69.5 -161t-174.5 -60zM92 0v1065h451v-1065h-451z" />
    <glyph glyph-name="j" unicode="j" horiz-adv-x="634" 
d="M319 1174q-107 0 -177 59.5t-70 161.5t69.5 160.5t177.5 58.5q106 0 175 -59.5t69 -159.5q0 -101 -69.5 -161t-174.5 -60zM29 -537q-151 0 -265 60v338q87 -37 152 -37q77 0 126.5 39t49.5 117v1085h451v-1116q0 -150 -71.5 -262.5t-187 -168t-255.5 -55.5z" />
    <glyph glyph-name="k" unicode="k" horiz-adv-x="1351" 
d="M827 0l-215 334l-69 -74v-260h-451v1536h451v-758l260 287h512l-406 -422l443 -643h-525z" />
    <glyph glyph-name="l" unicode="l" horiz-adv-x="634" 
d="M92 0v1536h451v-1536h-451z" />
    <glyph glyph-name="m" unicode="m" horiz-adv-x="1904" 
d="M543 537v-537h-451v1065h451v-78q103 103 254 103q176 0 290 -127q134 127 334 127q185 0 298.5 -119.5t113.5 -302.5v-668h-451v524q0 135 -88 135q-47 0 -76.5 -33.5t-29.5 -88.5v-537h-451v524q0 135 -88 135q-47 0 -76.5 -33.5t-29.5 -88.5z" />
    <glyph glyph-name="n" unicode="n" horiz-adv-x="1280" 
d="M543 537v-537h-451v1065h451v-84q115 109 274 109q176 0 283.5 -119.5t107.5 -302.5v-668h-450v514q0 70 -26 107.5t-73 37.5q-53 0 -84.5 -33.5t-31.5 -88.5z" />
    <glyph glyph-name="o" unicode="o" horiz-adv-x="1269" 
d="M641 -25q-172 0 -310 68.5t-219 198t-81 297.5q0 166 82 292.5t219.5 192.5t308.5 66q168 0 303.5 -67t215 -193.5t79.5 -290.5q0 -167 -78.5 -296t-214.5 -198.5t-305 -69.5zM782 535q0 66 -39.5 105.5t-105.5 39.5q-68 0 -109 -39.5t-41 -105.5q0 -67 41.5 -108.5
t108.5 -41.5q66 0 105.5 41t39.5 109z" />
    <glyph glyph-name="p" unicode="p" 
d="M772 -25q-130 0 -229 86v-573h-451v1577h451v-61q99 86 229 86q152 0 272 -73t185 -198.5t65 -281.5q0 -158 -64 -285.5t-184 -202t-274 -74.5zM838 537q0 64 -42 103.5t-106 39.5q-65 0 -106 -39t-41 -104q0 -66 41.5 -109t105.5 -43t106 43t42 109z" />
    <glyph glyph-name="q" unicode="q" 
d="M1233 1065v-1577h-451v573q-99 -86 -229 -86q-152 0 -272 73t-185 198.5t-65 281.5q0 158 64 285.5t184 202t274 74.5q130 0 229 -86v61h451zM635 680q-64 0 -106 -43t-42 -109q0 -64 42 -103.5t106 -39.5q65 0 106 39t41 104q0 66 -41.5 109t-105.5 43z" />
    <glyph glyph-name="r" unicode="r" horiz-adv-x="921" 
d="M543 379v-379h-451v1065h451v-178q137 203 354 203v-478q-80 22 -161.5 0.5t-137 -84t-55.5 -149.5z" />
    <glyph glyph-name="s" unicode="s" horiz-adv-x="985" 
d="M53 444q86 -83 197 -130.5t207 -47.5q67 0 67 41q0 13 -7.5 20.5t-29.5 16.5l-139 55q-57 23 -96 42.5t-80 49t-65.5 62.5t-40 80.5t-15.5 105.5q0 167 126 259t341 92q202 0 377 -84v-344q-80 70 -174 113.5t-160 43.5q-78 0 -78 -45q0 -16 9.5 -23.5t35.5 -17.5
l162 -69q148 -64 211.5 -130t63.5 -180q0 -96 -42.5 -170.5t-116 -119t-164 -67t-193.5 -22.5q-100 0 -205 28t-191 77v364z" />
    <glyph glyph-name="t" unicode="t" horiz-adv-x="888" 
d="M850 57q-119 -82 -320 -82q-215 0 -336.5 119.5t-121.5 331.5v905h450v-266h328v-348h-328v-207q0 -69 42 -107t116 -38q104 0 170 34v-342z" />
    <glyph glyph-name="u" unicode="u" horiz-adv-x="1249" 
d="M727 492v573h451v-612q0 -147 -75.5 -257t-200 -165.5t-277.5 -55.5t-277.5 55.5t-200 165.5t-75.5 257v612h450v-573q0 -46 29 -76.5t74 -30.5t73.5 30.5t28.5 76.5z" />
    <glyph glyph-name="v" unicode="v" horiz-adv-x="1300" 
d="M1300 1065l-659 -1106l-641 1106h516l150 -287l163 287h471z" />
    <glyph glyph-name="w" unicode="w" horiz-adv-x="1736" 
d="M1737 1065l-590 -1106l-260 424l-285 -424l-602 1106h516l162 -285l209 316l198 -318l164 287h488z" />
    <glyph glyph-name="x" unicode="x" horiz-adv-x="1339" 
d="M807 0l-166 225l-158 -225h-483l399 559l-370 506h522l154 -211l155 211h479l-401 -530l391 -535h-522z" />
    <glyph glyph-name="y" unicode="y" horiz-adv-x="1308" 
d="M1309 1065l-791 -1577h-461l373 752l-430 825h514l160 -332l164 332h471z" />
    <glyph glyph-name="z" unicode="z" horiz-adv-x="1142" 
d="M1071 348v-348h-1061l455 717h-385v348h1053l-463 -717h401z" />
    <glyph glyph-name="braceleft" unicode="{" horiz-adv-x="976" 
d="M946 -369h-252q-86 0 -163.5 25.5t-140.5 75.5t-100.5 133t-37.5 190v176q0 226 -180 236v334q99 6 139.5 56t40.5 138v176q0 121 37 210.5t101 139.5t140 73.5t164 23.5h252v-348h-80q-80 0 -122 -44t-42 -128v-144q0 -43 -1.5 -71t-7 -64.5t-17.5 -61.5t-31 -51
t-50 -46t-73 -35q42 -14 73 -34t50 -46.5t31 -52.5t17.5 -63t7 -65t1.5 -71v-143q0 -98 39.5 -134t124.5 -36h80v-349z" />
    <glyph glyph-name="bar" unicode="|" horiz-adv-x="593" 
d="M471 -676h-348v2376h348v-2376z" />
    <glyph glyph-name="braceright" unicode="}" horiz-adv-x="976" 
d="M31 -369v349h80q85 0 124 36t39 134v143q0 43 1.5 71t7 65t17.5 63t31.5 52.5t50.5 46.5t73 34q-42 15 -73 35t-50.5 46t-31.5 51t-17.5 61.5t-7 64.5t-1.5 71v144q0 85 -41.5 128.5t-121.5 43.5h-80v348h252q88 0 164 -23.5t140 -73.5t101 -139.5t37 -210.5v-176
q0 -88 40.5 -138t139.5 -56v-334q-180 -10 -180 -236v-176q0 -107 -37.5 -190t-100.5 -133t-140.5 -75.5t-163.5 -25.5h-252z" />
    <glyph glyph-name="asciitilde" unicode="~" horiz-adv-x="1433" 
d="M494 991q79 0 225 -49t225 -49q73 0 157 29t128 73v-338q-42 -41 -125.5 -68.5t-159.5 -27.5q-79 0 -225 49t-225 49q-65 0 -150.5 -32t-138.5 -82v338q45 45 130 76.5t159 31.5z" />
    <glyph glyph-name="uni00A0" unicode="&#xa0;" horiz-adv-x="450" 
 />
    <glyph glyph-name="exclamdown" unicode="&#xa1;" horiz-adv-x="696" 
d="M340 600q-115 0 -186.5 68t-71.5 176q0 109 71.5 177.5t186.5 68.5q117 0 189.5 -68.5t72.5 -177.5q0 -108 -72.5 -176t-189.5 -68zM82 -471v307l113 686h307l112 -686v-307h-532z" />
    <glyph glyph-name="cent" unicode="&#xa2;" horiz-adv-x="1019" 
d="M942 41q-96 -41 -211 -57v-213h-369v254q-158 63 -250 195.5t-92 311.5q0 186 100 323.5t267 195.5v254h369v-228q100 -18 192 -65v-408q-105 94 -268 94q-86 0 -142.5 -42.5t-56.5 -120.5q0 -79 62.5 -124.5t158.5 -45.5q125 0 240 63v-387z" />
    <glyph glyph-name="sterling" unicode="&#xa3;" horiz-adv-x="1290" 
d="M1241 410v-410h-1196v410h166v215h-166v286h166v133q0 153 77.5 271.5t212 182t302.5 63.5q194 0 397 -107v-397q-180 90 -323 90q-96 0 -155.5 -45t-59.5 -121v-70h344v-286h-344v-215h579z" />
    <glyph glyph-name="currency" unicode="&#xa4;" horiz-adv-x="1318" 
d="M1251 393l-233 -235l-160 159q-90 -34 -203 -34q-116 0 -209 34l-159 -159l-226 225l142 141q-58 103 -58 234q0 122 52 221l-136 135l236 234l152 -152q96 35 206 35q120 0 215 -39l162 162l225 -226l-145 -145q53 -95 53 -225q0 -131 -53 -226zM514 758q0 -61 39.5 -99
t101.5 -38t102 38t40 99t-40 98t-102 37t-101.5 -37t-39.5 -98z" />
    <glyph glyph-name="yen" unicode="&#xa5;" horiz-adv-x="1646" 
d="M1493 299h-410v-299h-471v299h-438v236h422l-66 112h-356v236h215l-389 653h543l301 -526l280 526h523l-367 -653h213v-236h-346l-62 -112h408v-236z" />
    <glyph glyph-name="brokenbar" unicode="&#xa6;" horiz-adv-x="593" 
d="M471 696h-348v1004h348v-1004zM471 -676h-348v1004h348v-1004z" />
    <glyph glyph-name="section" unicode="&#xa7;" horiz-adv-x="1366" 
d="M1206 -70q0 -210 -159 -337.5t-420 -127.5t-484 117v443q122 -93 252 -151t219 -58q50 0 79.5 21.5t29.5 58.5q0 41 -49 65l-430 225q-113 58 -168.5 137t-55.5 189q0 239 224 352q-84 97 -84 232q0 210 159 337.5t420 127.5t484 -117v-443q-122 93 -252 151t-219 58
q-50 0 -79.5 -21.5t-29.5 -58.5q0 -41 49 -65l430 -225q113 -58 168.5 -137t55.5 -189q0 -239 -224 -352q84 -97 84 -232zM453 547l387 -199q32 -16 63 -10t45 37q15 29 4.5 59t-39.5 45l-387 199q-32 16 -63 10t-45 -37q-15 -29 -4.5 -59t39.5 -45z" />
    <glyph glyph-name="dieresis" unicode="&#xa8;" horiz-adv-x="1329" 
d="M475 1167q-83 0 -135.5 49.5t-52.5 126.5t52.5 126t135.5 49q81 0 132.5 -49t51.5 -126t-51.5 -126.5t-132.5 -49.5zM930 1167q-83 0 -136 49.5t-53 126.5t53 126t136 49q81 0 132.5 -49t51.5 -126t-51.5 -126.5t-132.5 -49.5z" />
    <glyph glyph-name="copyright" unicode="&#xa9;" horiz-adv-x="1662" 
d="M829 -25q-229 0 -408.5 100.5t-279.5 281t-100 409.5t100 410.5t280 283t408 101.5q172 0 319.5 -59t251.5 -163.5t163 -252.5t59 -320q0 -171 -59 -318.5t-163.5 -251t-252 -162.5t-318.5 -59zM829 72q199 0 356 89t244 247.5t87 357.5q0 201 -86.5 360t-243.5 248.5
t-357 89.5q-198 0 -354 -90t-242 -249t-86 -359t86 -358t241.5 -247t354.5 -89zM856 256q-218 0 -352.5 146.5t-134.5 371.5q0 224 139 368t360 144q149 0 301 -76v-272q-122 90 -272 90q-108 0 -175 -71t-67 -181q0 -112 67 -187t175 -75q140 0 279 88v-272
q-164 -74 -320 -74z" />
    <glyph glyph-name="ordfeminine" unicode="&#xaa;" horiz-adv-x="964" 
d="M553 805v47q-64 -64 -156 -64q-159 0 -257.5 108t-98.5 273t98 275t258 110q93 0 156 -63v45h309v-731h-309zM455 1067q43 0 70.5 27.5t27.5 74.5q0 45 -28 75t-70 30q-44 0 -72.5 -30t-28.5 -75t29 -73.5t72 -28.5zM109 680h753v-168h-753v168z" />
    <glyph glyph-name="guillemotleft" unicode="&#xab;" horiz-adv-x="1497" 
d="M401 78l-329 471l329 455h441l-330 -455l330 -471h-441zM975 78l-330 471l330 455h440l-330 -455l330 -471h-440z" />
    <glyph glyph-name="logicalnot" unicode="&#xac;" horiz-adv-x="1433" 
d="M205 1186h1024v-744h-332v404h-692v340z" />
    <glyph glyph-name="uni00AD" unicode="&#xad;" horiz-adv-x="0" 
 />
    <glyph glyph-name="registered" unicode="&#xae;" horiz-adv-x="1662" 
d="M829 -25q-229 0 -408.5 100.5t-279.5 281t-100 409.5t100 410.5t280 283t408 101.5q172 0 319.5 -59t251.5 -163.5t163 -252.5t59 -320q0 -171 -59 -318.5t-163.5 -251t-252 -162.5t-318.5 -59zM829 72q199 0 356 89t244 247.5t87 357.5q0 201 -86.5 360t-243.5 248.5
t-357 89.5q-198 0 -354 -90t-242 -249t-86 -359t86 -358t241.5 -247t354.5 -89zM473 274v1006h401q152 0 252.5 -94.5t100.5 -249.5q0 -103 -48 -182.5t-130 -120.5l215 -359h-316l-176 320h-22v-320h-277zM813 1053h-63v-232h63q54 0 90.5 29t36.5 86q0 58 -36 87.5
t-91 29.5z" />
    <glyph glyph-name="macron" unicode="&#xaf;" horiz-adv-x="1370" 
d="M317 1475h779v-297h-779v297z" />
    <glyph glyph-name="degree" unicode="&#xb0;" horiz-adv-x="1077" 
d="M539 653q-215 0 -356.5 129t-141.5 326q0 196 141.5 324.5t356.5 128.5q216 0 356.5 -128t140.5 -325t-140.5 -326t-356.5 -129zM729 1108q0 80 -53.5 132t-136.5 52t-137 -52t-54 -132q0 -82 54 -135t137 -53t136.5 53t53.5 135z" />
    <glyph glyph-name="plusminus" unicode="&#xb1;" horiz-adv-x="1433" 
d="M1249 856h-366v-235h-332v235h-367v330h367v235h332v-235h366v-330zM184 199v329h1065v-329h-1065z" />
    <glyph glyph-name="twosuperior" unicode="&#xb2;" horiz-adv-x="1007" 
d="M952 801v-258h-979l435 448q54 56 74 89.5t20 70.5q0 51 -40 82t-100 31q-140 0 -305 -117v307q202 105 432 105q180 0 294 -87.5t114 -228.5q0 -92 -44.5 -177.5t-150.5 -201.5l-57 -63h307z" />
    <glyph glyph-name="threesuperior" unicode="&#xb3;" horiz-adv-x="1028" 
d="M965 825q0 -98 -70 -173.5t-182 -113.5t-246 -38q-223 0 -387 73v281q184 -88 364 -88q138 0 138 74q0 75 -127 75q-89 0 -201 -16v234l203 28q32 5 53.5 22t21.5 42q0 29 -30.5 44t-73.5 15q-153 0 -311 -100v272q178 103 411 103q161 0 269 -77t108 -208t-125 -207
q88 -37 136.5 -100.5t48.5 -141.5z" />
    <glyph glyph-name="acute" unicode="&#xb4;" horiz-adv-x="1370" 
d="M694 1475h533l-357 -297h-368z" />
    <glyph glyph-name="paragraph" unicode="&#xb6;" horiz-adv-x="1370" 
d="M1014 1536v-1536h-451v510q-160 1 -279.5 68t-181 182t-61.5 262q0 226 146.5 370t396.5 144h430zM1124 0v1536h123v-1536h-123z" />
    <glyph glyph-name="periodcentered" unicode="&#xb7;" horiz-adv-x="532" 
d="M268 559q-106 0 -174.5 60t-68.5 163q0 102 69.5 162t173.5 60t172 -60t68 -162t-68 -162.5t-172 -60.5z" />
    <glyph glyph-name="cedilla" unicode="&#xb8;" horiz-adv-x="1069" 
d="M893 -311q0 -60 -28.5 -105.5t-78 -71t-107.5 -37.5t-124 -12q-103 0 -193 37v178q84 -43 158 -43q35 0 58.5 15t23.5 45q0 29 -22.5 45t-55.5 16q-40 0 -86 -16l-39 43l146 307h221l-109 -190q103 -11 169.5 -64.5t66.5 -146.5z" />
    <glyph glyph-name="onesuperior" unicode="&#xb9;" horiz-adv-x="772" 
d="M297 543v614l-279 -94v287l619 217v-1024h-340z" />
    <glyph glyph-name="ordmasculine" unicode="&#xba;" horiz-adv-x="909" 
d="M459 1550q177 0 293 -104.5t116 -274.5q0 -171 -116 -279t-293 -108q-180 0 -299 106.5t-119 280.5q0 171 120 275t298 104zM555 1169q0 44 -27.5 72.5t-70.5 28.5q-44 0 -73.5 -28.5t-29.5 -72.5q0 -47 29 -76.5t74 -29.5q43 0 70.5 29.5t27.5 76.5zM82 512v168h754
v-168h-754z" />
    <glyph glyph-name="guillemotright" unicode="&#xbb;" horiz-adv-x="1497" 
d="M1096 78h-441l330 471l-330 455h441l329 -455zM522 78h-440l330 471l-330 455h440l330 -455z" />
    <glyph glyph-name="onequarter" unicode="&#xbc;" horiz-adv-x="2652" 
d="M428 543v614l-278 -94v287l618 217v-1024h-340zM942 0h-338l1032 1536h338zM2550 174h-131v-174h-340v174h-600l317 819h336l-209 -581h156v223h340v-223h131v-238z" />
    <glyph glyph-name="onehalf" unicode="&#xbd;" horiz-adv-x="2652" 
d="M428 543v614l-278 -94v287l618 217v-1024h-340zM942 0h-338l1032 1536h338zM2550 258v-258h-979l434 449q54 56 74 89t20 70q0 51 -39.5 82t-99.5 31q-140 0 -305 -117v307q202 105 432 105q180 0 293.5 -87.5t113.5 -228.5q0 -93 -44 -177.5t-150 -200.5l-57 -64h307z
" />
    <glyph glyph-name="threequarters" unicode="&#xbe;" horiz-adv-x="2701" 
d="M1028 825q0 -98 -70 -173.5t-182 -113.5t-246 -38q-223 0 -387 73v281q184 -88 365 -88q137 0 137 74q0 75 -127 75q-89 0 -201 -16v234l203 28q32 5 54 22t22 42q0 29 -30.5 44t-73.5 15q-154 0 -312 -100v272q178 103 412 103q161 0 269 -77t108 -208t-125 -207
q88 -37 136 -100.5t48 -141.5zM991 0h-338l1033 1536h337zM2599 174h-131v-174h-340v174h-600l317 819h336l-209 -581h156v223h340v-223h131v-238z" />
    <glyph glyph-name="questiondown" unicode="&#xbf;" horiz-adv-x="1286" 
d="M705 1090q117 0 189.5 -68.5t72.5 -177.5q0 -108 -72.5 -176t-189.5 -68q-115 0 -187 68t-72 176q0 109 72 177.5t187 68.5zM1235 55q0 -251 -165 -401t-449 -150q-257 0 -413.5 122.5t-156.5 322.5q0 168 99 282.5t303 157.5l69 14l27 119h323l48 -334l-285 -61
q-133 -27 -133 -115q0 -59 41.5 -88.5t103.5 -29.5q73 0 120.5 43.5t47.5 117.5h420z" />
    <glyph glyph-name="Agrave" unicode="&#xc0;" horiz-adv-x="1673" 
d="M336 1948h532l193 -297h-369zM1141 0l-54 113h-534l-51 -113h-502l805 1587l868 -1587h-532zM698 438h234l-121 254z" />
    <glyph glyph-name="Aacute" unicode="&#xc1;" horiz-adv-x="1673" 
d="M764 1946h532l-356 -297h-369zM1141 0l-54 113h-534l-51 -113h-502l805 1587l868 -1587h-532zM698 438h234l-121 254z" />
    <glyph glyph-name="Acircumflex" unicode="&#xc2;" horiz-adv-x="1673" 
d="M926 1649l-121 110l-121 -110h-338l234 297h450l234 -297h-338zM1141 0l-54 113h-534l-51 -113h-502l805 1587l868 -1587h-532zM698 438h234l-121 254z" />
    <glyph glyph-name="Atilde" unicode="&#xc3;" horiz-adv-x="1673" 
d="M936 1632q-60 0 -164 24.5t-129 24.5q-27 0 -45 -14t-18 -39h-187q6 161 79 248.5t204 87.5q57 0 164.5 -24.5t124.5 -24.5q27 0 45 14t18 39h186q-1 -160 -74 -248t-204 -88zM1141 0l-54 113h-534l-51 -113h-502l805 1587l868 -1587h-532zM698 438h234l-121 254z" />
    <glyph glyph-name="Adieresis" unicode="&#xc4;" horiz-adv-x="1673" 
d="M580 1638q-83 0 -136 50t-53 127t53 125.5t136 48.5q82 0 133 -48.5t51 -125.5t-51.5 -127t-132.5 -50zM1034 1638q-83 0 -135.5 50t-52.5 127t52.5 125.5t135.5 48.5q82 0 133.5 -48.5t51.5 -125.5t-52 -127t-133 -50zM1141 0l-54 113h-534l-51 -113h-502l805 1587
l868 -1587h-532zM698 438h234l-121 254z" />
    <glyph glyph-name="Aring" unicode="&#xc5;" horiz-adv-x="1673" 
d="M553 113l-51 -113h-502l750 1477q-99 18 -159.5 86t-60.5 170q0 117 77.5 189.5t197.5 72.5t198 -70.5t78 -187.5q0 -101 -60 -170.5t-157 -87.5l809 -1479h-532l-54 113h-534zM721 1733q0 -37 23.5 -60.5t60.5 -23.5t60.5 24.5t23.5 61.5t-23.5 60.5t-60.5 23.5
t-60.5 -24.5t-23.5 -61.5zM698 438h234l-121 254z" />
    <glyph glyph-name="AE" unicode="&#xc6;" horiz-adv-x="2209" 
d="M1032 0v113h-438l-72 -113h-522l1073 1536h1038v-412h-608v-139h531v-407h-531v-168h631v-410h-1102zM1032 438v338l-229 -338h229z" />
    <glyph glyph-name="Ccedilla" unicode="&#xc7;" horiz-adv-x="1400" 
d="M1094 -311q0 -60 -28.5 -105.5t-78 -71t-107.5 -37.5t-124 -12q-103 0 -193 37v178q84 -43 158 -43q35 0 58.5 15t23.5 45q0 29 -22.5 45t-55.5 16q-40 0 -86 -16l-39 43l98 205q-289 51 -463 264.5t-174 517.5q0 170 58 316.5t161 251t251 164t321 59.5q243 0 457 -117
v-492q-201 158 -402 158q-157 0 -255.5 -92t-98.5 -240q0 -156 104.5 -254t270.5 -98q200 0 377 119v-465q-193 -94 -404 -103l-43 -77q103 -11 169.5 -64.5t66.5 -146.5z" />
    <glyph glyph-name="Egrave" unicode="&#xc8;" horiz-adv-x="1300" 
d="M229 1946h533l192 -297h-368zM123 0v1536h1079v-412h-608v-139h530v-407h-530v-168h631v-410h-1102z" />
    <glyph glyph-name="Eacute" unicode="&#xc9;" horiz-adv-x="1300" 
d="M639 1946h532l-356 -297h-369zM123 0v1536h1079v-412h-608v-139h530v-407h-530v-168h631v-410h-1102z" />
    <glyph glyph-name="Ecircumflex" unicode="&#xca;" horiz-adv-x="1300" 
d="M803 1649l-121 110l-121 -110h-338l234 297h450l234 -297h-338zM123 0v1536h1079v-412h-608v-139h530v-407h-530v-168h631v-410h-1102z" />
    <glyph glyph-name="Edieresis" unicode="&#xcb;" horiz-adv-x="1300" 
d="M455 1638q-83 0 -136 50t-53 127t53 125.5t136 48.5q82 0 133 -48.5t51 -125.5t-51.5 -127t-132.5 -50zM909 1638q-83 0 -135.5 50t-52.5 127t52.5 125.5t135.5 48.5q82 0 133.5 -48.5t51.5 -125.5t-52 -127t-133 -50zM123 0v1536h1079v-412h-608v-139h530v-407h-530
v-168h631v-410h-1102z" />
    <glyph glyph-name="Igrave" unicode="&#xcc;" horiz-adv-x="716" 
d="M-150 1946h533l192 -297h-368zM123 0v1536h471v-1536h-471z" />
    <glyph glyph-name="Iacute" unicode="&#xcd;" horiz-adv-x="716" 
d="M338 1946h532l-356 -297h-369zM123 0v1536h471v-1536h-471z" />
    <glyph glyph-name="Icircumflex" unicode="&#xce;" horiz-adv-x="716" 
d="M489 1649l-120 110l-121 -110h-338l233 297h451l233 -297h-338zM123 0v1536h471v-1536h-471z" />
    <glyph glyph-name="Idieresis" unicode="&#xcf;" horiz-adv-x="716" 
d="M168 1638q-83 0 -135.5 50t-52.5 127t52.5 125.5t135.5 48.5q82 0 133 -48.5t51 -125.5t-51.5 -127t-132.5 -50zM623 1638q-83 0 -136 50t-53 127t53 125.5t136 48.5q82 0 133 -48.5t51 -125.5t-51.5 -127t-132.5 -50zM123 0v1536h471v-1536h-471z" />
    <glyph glyph-name="Eth" unicode="&#xd0;" horiz-adv-x="1662" 
d="M31 930h176v606h637q220 0 393 -98t269 -272.5t96 -395.5q0 -165 -55 -308t-153 -244.5t-238.5 -159.5t-305.5 -58h-643v610h-176v320zM860 610h-192v-180h108q153 0 248.5 94t95.5 246q0 150 -96 243t-248 93h-108v-176h192v-320z" />
    <glyph glyph-name="Ntilde" unicode="&#xd1;" horiz-adv-x="1650" 
d="M950 1628q-60 0 -164 24.5t-129 24.5q-27 0 -45 -14t-18 -39h-186q6 161 78.5 248.5t203.5 87.5q57 0 164.5 -24.5t124.5 -24.5q27 0 45 14t18 39h187q-1 -160 -74.5 -248t-204.5 -88zM1528 -51l-934 710v-659h-471v1587l934 -710v659h471v-1587z" />
    <glyph glyph-name="Ograve" unicode="&#xd2;" horiz-adv-x="1744" 
d="M412 1946h532l193 -297h-369zM1683 774q0 -231 -103.5 -413.5t-288.5 -284t-419 -101.5t-419 101.5t-288.5 284t-103.5 413.5q0 172 61 319.5t167.5 250t257 160t325.5 57.5t325.5 -57.5t257 -160t167.5 -250t61 -319.5zM872 426q148 0 239 98t91 248q0 148 -91 243
t-239 95t-238.5 -95t-90.5 -243q0 -150 90.5 -248t238.5 -98z" />
    <glyph glyph-name="Oacute" unicode="&#xd3;" horiz-adv-x="1744" 
d="M842 1946h532l-356 -297h-369zM1683 774q0 -231 -103.5 -413.5t-288.5 -284t-419 -101.5t-419 101.5t-288.5 284t-103.5 413.5q0 172 61 319.5t167.5 250t257 160t325.5 57.5t325.5 -57.5t257 -160t167.5 -250t61 -319.5zM872 426q148 0 239 98t91 248q0 148 -91 243
t-239 95t-238.5 -95t-90.5 -243q0 -150 90.5 -248t238.5 -98z" />
    <glyph glyph-name="Ocircumflex" unicode="&#xd4;" horiz-adv-x="1744" 
d="M1006 1649l-121 110l-121 -110h-338l233 297h451l233 -297h-337zM1683 774q0 -231 -103.5 -413.5t-288.5 -284t-419 -101.5t-419 101.5t-288.5 284t-103.5 413.5q0 172 61 319.5t167.5 250t257 160t325.5 57.5t325.5 -57.5t257 -160t167.5 -250t61 -319.5zM872 426
q148 0 239 98t91 248q0 148 -91 243t-239 95t-238.5 -95t-90.5 -243q0 -150 90.5 -248t238.5 -98z" />
    <glyph glyph-name="Otilde" unicode="&#xd5;" horiz-adv-x="1744" 
d="M1012 1628q-60 0 -164 24.5t-129 24.5q-28 0 -46 -14t-18 -39h-186q6 161 79 248.5t204 87.5q57 0 164 -24.5t124 -24.5q28 0 46 14t18 39h186q-1 -160 -74 -248t-204 -88zM1683 774q0 -231 -103.5 -413.5t-288.5 -284t-419 -101.5t-419 101.5t-288.5 284t-103.5 413.5
q0 172 61 319.5t167.5 250t257 160t325.5 57.5t325.5 -57.5t257 -160t167.5 -250t61 -319.5zM872 426q148 0 239 98t91 248q0 148 -91 243t-239 95t-238.5 -95t-90.5 -243q0 -150 90.5 -248t238.5 -98z" />
    <glyph glyph-name="Odieresis" unicode="&#xd6;" horiz-adv-x="1744" 
d="M655 1638q-83 0 -135.5 50t-52.5 127t52.5 125.5t135.5 48.5q82 0 133.5 -48.5t51.5 -125.5t-52 -127t-133 -50zM1110 1638q-83 0 -135.5 50t-52.5 127t52.5 125.5t135.5 48.5q82 0 133 -48.5t51 -125.5t-51.5 -127t-132.5 -50zM1683 774q0 -231 -103.5 -413.5
t-288.5 -284t-419 -101.5t-419 101.5t-288.5 284t-103.5 413.5q0 172 61 319.5t167.5 250t257 160t325.5 57.5t325.5 -57.5t257 -160t167.5 -250t61 -319.5zM872 426q148 0 239 98t91 248q0 148 -91 243t-239 95t-238.5 -95t-90.5 -243q0 -150 90.5 -248t238.5 -98z" />
    <glyph glyph-name="multiply" unicode="&#xd7;" horiz-adv-x="1433" 
d="M1006 262l-285 285l-293 -293l-233 233l292 293l-292 293l225 225l293 -292l293 292l233 -233l-293 -293l285 -285z" />
    <glyph glyph-name="Oslash" unicode="&#xd8;" horiz-adv-x="1734" 
d="M1673 774q0 -231 -103.5 -413.5t-288.5 -284t-419 -101.5q-250 0 -446 119l-90 -94h-389l270 283q-156 209 -156 491q0 172 61 319.5t167.5 250t257 160t325.5 57.5q258 0 455 -121l92 96h389l-272 -285q147 -202 147 -477zM532 772q0 -70 21 -129l428 447
q-50 20 -119 20q-148 0 -239 -95t-91 -243zM1192 772q0 59 -16 115l-426 -445q56 -16 112 -16q148 0 239 98t91 248z" />
    <glyph glyph-name="Ugrave" unicode="&#xd9;" horiz-adv-x="1540" 
d="M309 1946h533l192 -297h-368zM113 606v930h471v-911q0 -105 48 -157t138 -52t138 52t48 157v911h471v-930q0 -289 -181 -460t-476 -171t-476 171t-181 460z" />
    <glyph glyph-name="Uacute" unicode="&#xda;" horiz-adv-x="1540" 
d="M739 1946h533l-357 -297h-368zM113 606v930h471v-911q0 -105 48 -157t138 -52t138 52t48 157v911h471v-930q0 -289 -181 -460t-476 -171t-476 171t-181 460z" />
    <glyph glyph-name="Ucircumflex" unicode="&#xdb;" horiz-adv-x="1540" 
d="M903 1649l-121 110l-120 -110h-338l233 297h451l233 -297h-338zM113 606v930h471v-911q0 -105 48 -157t138 -52t138 52t48 157v911h471v-930q0 -289 -181 -460t-476 -171t-476 171t-181 460z" />
    <glyph glyph-name="Udieresis" unicode="&#xdc;" horiz-adv-x="1540" 
d="M543 1638q-83 0 -136 50t-53 127t53 125.5t136 48.5q82 0 133 -48.5t51 -125.5t-51.5 -127t-132.5 -50zM997 1638q-83 0 -135.5 50t-52.5 127t52.5 125.5t135.5 48.5q82 0 133.5 -48.5t51.5 -125.5t-52 -127t-133 -50zM113 606v930h471v-911q0 -105 48 -157t138 -52
t138 52t48 157v911h471v-930q0 -289 -181 -460t-476 -171t-476 171t-181 460z" />
    <glyph glyph-name="Yacute" unicode="&#xdd;" horiz-adv-x="1646" 
d="M788 1946h533l-356 -297h-369zM1647 1536l-564 -1004v-532h-471v508l-612 1028h543l299 -549l282 549h523z" />
    <glyph glyph-name="Thorn" unicode="&#xde;" horiz-adv-x="1439" 
d="M797 211h-203v-211h-471v1536h471v-203h203q259 0 425.5 -156.5t166.5 -404.5t-166.5 -404.5t-425.5 -156.5zM745 944h-151v-344h151q75 0 118.5 49t43.5 123t-43.5 123t-118.5 49z" />
    <glyph glyph-name="germandbls" unicode="&#xdf;" horiz-adv-x="1431" 
d="M543 0h-451v963q0 271 156 434.5t436 163.5q217 0 353.5 -90t136.5 -250q0 -77 -46 -179l-47 -108q-28 -70 -28 -100q0 -41 63 -82l84 -56q54 -35 89 -64t66 -66.5t45.5 -82.5t14.5 -100q0 -191 -136 -299.5t-361 -108.5q-160 0 -275 45v365q77 -45 153.5 -74.5
t121.5 -29.5q57 0 57 45q0 19 -10 31t-35 24l-117 61q-176 93 -176 242q0 83 31 162l53 135q33 89 33 133q0 41 -28 66.5t-71 25.5q-112 0 -112 -151v-1055z" />
    <glyph glyph-name="agrave" unicode="&#xe0;" 
d="M254 1475h532l193 -297h-369zM782 0v70q-89 -95 -229 -95q-154 0 -274 72.5t-184 198t-64 282.5q0 158 63.5 285.5t183.5 202t275 74.5q137 0 229 -95v70h451v-1065h-451zM635 680q-64 0 -106 -43t-42 -109q0 -64 42 -103.5t106 -39.5q65 0 106 39t41 104q0 66 -41.5 109
t-105.5 43z" />
    <glyph glyph-name="aacute" unicode="&#xe1;" 
d="M664 1475h532l-356 -297h-369zM782 0v70q-89 -95 -229 -95q-154 0 -274 72.5t-184 198t-64 282.5q0 158 63.5 285.5t183.5 202t275 74.5q137 0 229 -95v70h451v-1065h-451zM635 680q-64 0 -106 -43t-42 -109q0 -64 42 -103.5t106 -39.5q65 0 106 39t41 104
q0 66 -41.5 109t-105.5 43z" />
    <glyph glyph-name="acircumflex" unicode="&#xe2;" 
d="M807 1178l-121 110l-121 -110h-338l234 297h450l234 -297h-338zM782 0v70q-89 -95 -229 -95q-154 0 -274 72.5t-184 198t-64 282.5q0 158 63.5 285.5t183.5 202t275 74.5q137 0 229 -95v70h451v-1065h-451zM635 680q-64 0 -106 -43t-42 -109q0 -64 42 -103.5t106 -39.5
q65 0 106 39t41 104q0 66 -41.5 109t-105.5 43z" />
    <glyph glyph-name="atilde" unicode="&#xe3;" 
d="M834 1178q-60 0 -164 24.5t-129 24.5q-28 0 -46 -14t-18 -39h-186q6 161 78.5 248t203.5 87q57 0 164.5 -24.5t124.5 -24.5q28 0 46 14t18 39h186q-1 -160 -74 -247.5t-204 -87.5zM782 0v70q-89 -95 -229 -95q-154 0 -274 72.5t-184 198t-64 282.5q0 158 63.5 285.5
t183.5 202t275 74.5q137 0 229 -95v70h451v-1065h-451zM635 680q-64 0 -106 -43t-42 -109q0 -64 42 -103.5t106 -39.5q65 0 106 39t41 104q0 66 -41.5 109t-105.5 43z" />
    <glyph glyph-name="adieresis" unicode="&#xe4;" 
d="M465 1167q-83 0 -136 49.5t-53 126.5t53 126t136 49q81 0 132.5 -49t51.5 -126t-51.5 -126.5t-132.5 -49.5zM920 1167q-83 0 -136 49.5t-53 126.5t53 126t136 49q81 0 132.5 -49t51.5 -126t-51.5 -126.5t-132.5 -49.5zM782 0v70q-89 -95 -229 -95q-154 0 -274 72.5
t-184 198t-64 282.5q0 158 63.5 285.5t183.5 202t275 74.5q137 0 229 -95v70h451v-1065h-451zM635 680q-64 0 -106 -43t-42 -109q0 -64 42 -103.5t106 -39.5q65 0 106 39t41 104q0 66 -41.5 109t-105.5 43z" />
    <glyph glyph-name="aring" unicode="&#xe5;" 
d="M692 1663q121 0 199 -70.5t78 -187.5t-78.5 -190.5t-198.5 -73.5t-197 71.5t-77 188.5t77 189.5t197 72.5zM608 1401q0 -37 23.5 -60.5t60.5 -23.5t60.5 24.5t23.5 61.5t-23.5 60.5t-60.5 23.5t-60.5 -24.5t-23.5 -61.5zM782 0v70q-89 -95 -229 -95q-154 0 -274 72.5
t-184 198t-64 282.5q0 158 63.5 285.5t183.5 202t275 74.5q137 0 229 -95v70h451v-1065h-451zM635 680q-64 0 -106 -43t-42 -109q0 -64 42 -103.5t106 -39.5q65 0 106 39t41 104q0 66 -41.5 109t-105.5 43z" />
    <glyph glyph-name="ae" unicode="&#xe6;" horiz-adv-x="1765" 
d="M1655 74q-170 -99 -383 -99q-244 0 -400 129q-189 -129 -440 -129q-114 0 -206 39t-149 119.5t-57 190.5q0 104 58 179t149.5 109.5t204.5 34.5h199q-12 55 -60.5 82t-119.5 27q-72 0 -161.5 -27t-172.5 -74v334q184 101 387 101q240 0 379 -121q147 121 356 121
q225 0 367.5 -150t142.5 -379q0 -80 -8 -145h-629q32 -53 88.5 -80t124.5 -27q162 0 330 76v-311zM1192 793q-56 0 -88.5 -40.5t-38.5 -103.5h244q-5 62 -34 103t-83 41zM578 258q76 0 147 43q-32 58 -57 127h-86q-51 0 -81 -23t-30 -63q0 -36 29.5 -60t77.5 -24z" />
    <glyph glyph-name="ccedilla" unicode="&#xe7;" horiz-adv-x="1030" 
d="M872 -311q0 -61 -28.5 -106t-77.5 -70.5t-107 -37.5t-124 -12q-103 0 -193 37v178q84 -43 158 -43q35 0 58.5 15t23.5 45q0 29 -22.5 45t-55.5 16q-40 0 -86 -16l-39 43l98 209q-200 44 -323 188t-123 352q0 165 79.5 293.5t215.5 196.5t305 68q171 0 327 -78v-408
q-105 94 -268 94q-86 0 -142 -42.5t-56 -120.5q0 -79 62.5 -124.5t158.5 -45.5q124 0 239 63v-387q-144 -59 -272 -64l-43 -77q103 -11 169 -64.5t66 -146.5z" />
    <glyph glyph-name="egrave" unicode="&#xe8;" horiz-adv-x="1183" 
d="M127 1475h532l193 -297h-369zM1167 561q0 -82 -8 -145h-633q68 -105 238 -105q145 0 319 74v-311q-180 -99 -428 -99q-174 0 -314.5 64t-225 190.5t-84.5 294.5q0 166 75.5 295.5t208.5 200t301 70.5q156 0 281.5 -66t197.5 -187t72 -276zM610 793q-55 0 -86 -39
t-39 -105h242q-5 64 -33.5 104t-83.5 40z" />
    <glyph glyph-name="eacute" unicode="&#xe9;" horiz-adv-x="1183" 
d="M539 1475h532l-356 -297h-369zM1167 561q0 -82 -8 -145h-633q68 -105 238 -105q145 0 319 74v-311q-180 -99 -428 -99q-174 0 -314.5 64t-225 190.5t-84.5 294.5q0 166 75.5 295.5t208.5 200t301 70.5q156 0 281.5 -66t197.5 -187t72 -276zM610 793q-55 0 -86 -39
t-39 -105h242q-5 64 -33.5 104t-83.5 40z" />
    <glyph glyph-name="ecircumflex" unicode="&#xea;" horiz-adv-x="1183" 
d="M702 1178l-120 110l-121 -110h-338l233 297h451l233 -297h-338zM1167 561q0 -82 -8 -145h-633q68 -105 238 -105q145 0 319 74v-311q-180 -99 -428 -99q-174 0 -314.5 64t-225 190.5t-84.5 294.5q0 166 75.5 295.5t208.5 200t301 70.5q156 0 281.5 -66t197.5 -187
t72 -276zM610 793q-55 0 -86 -39t-39 -105h242q-5 64 -33.5 104t-83.5 40z" />
    <glyph glyph-name="edieresis" unicode="&#xeb;" horiz-adv-x="1183" 
d="M360 1167q-83 0 -135.5 49.5t-52.5 126.5t52.5 126t135.5 49q82 0 133.5 -49t51.5 -126t-52 -126.5t-133 -49.5zM815 1167q-83 0 -135.5 49.5t-52.5 126.5t52.5 126t135.5 49q81 0 132.5 -49t51.5 -126t-51.5 -126.5t-132.5 -49.5zM1167 561q0 -82 -8 -145h-633
q68 -105 238 -105q145 0 319 74v-311q-180 -99 -428 -99q-174 0 -314.5 64t-225 190.5t-84.5 294.5q0 166 75.5 295.5t208.5 200t301 70.5q156 0 281.5 -66t197.5 -187t72 -276zM610 793q-55 0 -86 -39t-39 -105h242q-5 64 -33.5 104t-83.5 40z" />
    <glyph glyph-name="igrave" unicode="&#xec;" horiz-adv-x="634" 
d="M-178 1475h532l193 -297h-369zM92 0v1065h451v-1065h-451z" />
    <glyph glyph-name="iacute" unicode="&#xed;" horiz-adv-x="634" 
d="M287 1475h532l-356 -297h-369zM92 0v1065h451v-1065h-451z" />
    <glyph glyph-name="icircumflex" unicode="&#xee;" horiz-adv-x="634" 
d="M449 1178l-121 110l-121 -110h-338l233 297h451l233 -297h-337zM92 0v1065h451v-1065h-451z" />
    <glyph glyph-name="idieresis" unicode="&#xef;" horiz-adv-x="634" 
d="M94 1167q-83 0 -135.5 49.5t-52.5 126.5t52.5 126t135.5 49q82 0 133.5 -49t51.5 -126t-52 -126.5t-133 -49.5zM549 1167q-83 0 -136 49.5t-53 126.5t53 126t136 49q81 0 132.5 -49t51.5 -126t-51.5 -126.5t-132.5 -49.5zM92 0v1065h451v-1065h-451z" />
    <glyph glyph-name="eth" unicode="&#xf0;" horiz-adv-x="1249" 
d="M1219 592q0 -272 -175 -444.5t-446 -172.5q-158 0 -285.5 57t-204.5 171t-77 266q0 212 136 346.5t349 134.5q116 0 209 -71q-26 144 -121 229l-78 -80h-358l180 184q-90 11 -160 11v338q240 0 435 -66l63 66h358l-182 -189q175 -126 266 -325.5t91 -454.5zM614 385
q58 0 96 33.5t38 89.5q0 54 -38.5 86.5t-95.5 32.5t-95 -32.5t-38 -86.5q0 -56 37.5 -89.5t95.5 -33.5z" />
    <glyph glyph-name="ntilde" unicode="&#xf1;" horiz-adv-x="1280" 
d="M780 1178q-60 0 -164 24.5t-129 24.5q-27 0 -45 -14t-18 -39h-186q6 161 78.5 248t203.5 87q57 0 164.5 -24.5t124.5 -24.5q27 0 45 14t18 39h187q-1 -159 -74.5 -247t-204.5 -88zM543 537v-537h-451v1065h451v-84q115 109 274 109q176 0 283.5 -119.5t107.5 -302.5v-668
h-450v514q0 70 -26 107.5t-73 37.5q-53 0 -84.5 -33.5t-31.5 -88.5z" />
    <glyph glyph-name="ograve" unicode="&#xf2;" horiz-adv-x="1269" 
d="M145 1475h533l192 -297h-368zM641 -25q-172 0 -310 68.5t-219 198t-81 297.5q0 166 82 292.5t219.5 192.5t308.5 66q168 0 303.5 -67t215 -193.5t79.5 -290.5q0 -167 -78.5 -296t-214.5 -198.5t-305 -69.5zM782 535q0 66 -39.5 105.5t-105.5 39.5q-68 0 -109 -39.5
t-41 -105.5q0 -67 41.5 -108.5t108.5 -41.5q66 0 105.5 41t39.5 109z" />
    <glyph glyph-name="oacute" unicode="&#xf3;" horiz-adv-x="1269" 
d="M623 1475h532l-356 -297h-369zM641 -25q-172 0 -310 68.5t-219 198t-81 297.5q0 166 82 292.5t219.5 192.5t308.5 66q168 0 303.5 -67t215 -193.5t79.5 -290.5q0 -167 -78.5 -296t-214.5 -198.5t-305 -69.5zM782 535q0 66 -39.5 105.5t-105.5 39.5q-68 0 -109 -39.5
t-41 -105.5q0 -67 41.5 -108.5t108.5 -41.5q66 0 105.5 41t39.5 109z" />
    <glyph glyph-name="ocircumflex" unicode="&#xf4;" horiz-adv-x="1269" 
d="M760 1178l-121 110l-121 -110h-338l234 297h450l234 -297h-338zM641 -25q-172 0 -310 68.5t-219 198t-81 297.5q0 166 82 292.5t219.5 192.5t308.5 66q168 0 303.5 -67t215 -193.5t79.5 -290.5q0 -167 -78.5 -296t-214.5 -198.5t-305 -69.5zM782 535q0 66 -39.5 105.5
t-105.5 39.5q-68 0 -109 -39.5t-41 -105.5q0 -67 41.5 -108.5t108.5 -41.5q66 0 105.5 41t39.5 109z" />
    <glyph glyph-name="otilde" unicode="&#xf5;" horiz-adv-x="1269" 
d="M782 1157q-60 0 -164 24.5t-129 24.5q-27 0 -45 -14t-18 -39h-186q6 161 78.5 248.5t203.5 87.5q57 0 164.5 -24.5t124.5 -24.5q27 0 45 14t18 39h187q-1 -160 -74.5 -248t-204.5 -88zM641 -25q-172 0 -310 68.5t-219 198t-81 297.5q0 166 82 292.5t219.5 192.5t308.5 66
q168 0 303.5 -67t215 -193.5t79.5 -290.5q0 -167 -78.5 -296t-214.5 -198.5t-305 -69.5zM782 535q0 66 -39.5 105.5t-105.5 39.5q-68 0 -109 -39.5t-41 -105.5q0 -67 41.5 -108.5t108.5 -41.5q66 0 105.5 41t39.5 109z" />
    <glyph glyph-name="odieresis" unicode="&#xf6;" horiz-adv-x="1269" 
d="M418 1167q-83 0 -136 49.5t-53 126.5t53 126t136 49q81 0 132.5 -49t51.5 -126t-51.5 -126.5t-132.5 -49.5zM872 1167q-83 0 -135.5 49.5t-52.5 126.5t52.5 126t135.5 49q82 0 133.5 -49t51.5 -126t-52 -126.5t-133 -49.5zM641 -25q-172 0 -310 68.5t-219 198t-81 297.5
q0 166 82 292.5t219.5 192.5t308.5 66q168 0 303.5 -67t215 -193.5t79.5 -290.5q0 -167 -78.5 -296t-214.5 -198.5t-305 -69.5zM782 535q0 66 -39.5 105.5t-105.5 39.5q-68 0 -109 -39.5t-41 -105.5q0 -67 41.5 -108.5t108.5 -41.5q66 0 105.5 41t39.5 109z" />
    <glyph glyph-name="divide" unicode="&#xf7;" horiz-adv-x="1433" 
d="M717 1051q-89 0 -146 48t-57 132t57 131t146 47q87 0 142.5 -47.5t55.5 -130.5t-55.5 -131.5t-142.5 -48.5zM184 608v340h1065v-340h-1065zM717 147q-89 0 -146 48.5t-57 132.5t57 131t146 47q87 0 142.5 -47.5t55.5 -130.5t-55.5 -132t-142.5 -49z" />
    <glyph glyph-name="oslash" unicode="&#xf8;" horiz-adv-x="1378" 
d="M1292 539q0 -167 -78.5 -296t-214.5 -198.5t-305 -69.5q-178 0 -321 76l-56 -51h-378l239 221q-94 137 -94 318q0 166 82 292.5t219.5 192.5t308.5 66q172 0 314 -74l53 49h379l-236 -223q88 -134 88 -303zM541 535q0 -30 10 -60l207 191q-25 14 -68 14
q-68 0 -108.5 -39.5t-40.5 -105.5zM836 535q0 32 -13 61l-209 -195q37 -16 76 -16q66 0 106 41t40 109z" />
    <glyph glyph-name="ugrave" unicode="&#xf9;" horiz-adv-x="1249" 
d="M139 1475h533l192 -297h-368zM727 492v573h451v-612q0 -147 -75.5 -257t-200 -165.5t-277.5 -55.5t-277.5 55.5t-200 165.5t-75.5 257v612h450v-573q0 -46 29 -76.5t74 -30.5t73.5 30.5t28.5 76.5z" />
    <glyph glyph-name="uacute" unicode="&#xfa;" horiz-adv-x="1249" 
d="M567 1475h533l-357 -297h-368zM727 492v573h451v-612q0 -147 -75.5 -257t-200 -165.5t-277.5 -55.5t-277.5 55.5t-200 165.5t-75.5 257v612h450v-573q0 -46 29 -76.5t74 -30.5t73.5 30.5t28.5 76.5z" />
    <glyph glyph-name="ucircumflex" unicode="&#xfb;" horiz-adv-x="1249" 
d="M748 1178l-121 110l-121 -110h-338l233 297h451l233 -297h-337zM727 492v573h451v-612q0 -147 -75.5 -257t-200 -165.5t-277.5 -55.5t-277.5 55.5t-200 165.5t-75.5 257v612h450v-573q0 -46 29 -76.5t74 -30.5t73.5 30.5t28.5 76.5z" />
    <glyph glyph-name="udieresis" unicode="&#xfc;" horiz-adv-x="1249" 
d="M401 1167q-83 0 -135.5 49.5t-52.5 126.5t52.5 126t135.5 49q82 0 133.5 -49t51.5 -126t-52 -126.5t-133 -49.5zM856 1167q-83 0 -135.5 49.5t-52.5 126.5t52.5 126t135.5 49q81 0 132.5 -49t51.5 -126t-51.5 -126.5t-132.5 -49.5zM727 492v573h451v-612
q0 -147 -75.5 -257t-200 -165.5t-277.5 -55.5t-277.5 55.5t-200 165.5t-75.5 257v612h450v-573q0 -46 29 -76.5t74 -30.5t73.5 30.5t28.5 76.5z" />
    <glyph glyph-name="yacute" unicode="&#xfd;" horiz-adv-x="1308" 
d="M625 1475h532l-356 -297h-369zM1309 1065l-791 -1577h-461l373 752l-430 825h514l160 -332l164 332h471z" />
    <glyph glyph-name="thorn" unicode="&#xfe;" 
d="M772 -25q-130 0 -229 86v-573h-451v2048h451v-532q99 86 229 86q152 0 272 -73t185 -198.5t65 -281.5q0 -158 -64 -285.5t-184 -202t-274 -74.5zM838 537q0 64 -42 103.5t-106 39.5q-65 0 -106 -39t-41 -104q0 -66 41.5 -109t105.5 -43t106 43t42 109z" />
    <glyph glyph-name="ydieresis" unicode="&#xff;" horiz-adv-x="1308" 
d="M455 1167q-83 0 -136 49.5t-53 126.5t53 126t136 49q81 0 132.5 -49t51.5 -126t-51.5 -126.5t-132.5 -49.5zM909 1167q-83 0 -135.5 49.5t-52.5 126.5t52.5 126t135.5 49q82 0 133.5 -49t51.5 -126t-52 -126.5t-133 -49.5zM1309 1065l-791 -1577h-461l373 752l-430 825
h514l160 -332l164 332h471z" />
    <glyph glyph-name="Amacron" unicode="&#x100;" horiz-adv-x="1673" 
d="M416 1946h778v-297h-778v297zM1141 0l-54 113h-534l-51 -113h-502l805 1587l868 -1587h-532zM698 438h234l-121 254z" />
    <glyph glyph-name="amacron" unicode="&#x101;" 
d="M287 1475h778v-297h-778v297zM782 0v70q-89 -95 -229 -95q-154 0 -274 72.5t-184 198t-64 282.5q0 158 63.5 285.5t183.5 202t275 74.5q137 0 229 -95v70h451v-1065h-451zM635 680q-64 0 -106 -43t-42 -109q0 -64 42 -103.5t106 -39.5q65 0 106 39t41 104q0 66 -41.5 109
t-105.5 43z" />
    <glyph glyph-name="Abreve" unicode="&#x102;" horiz-adv-x="1673" 
d="M809 1888q37 0 64 21t34 57h303q-9 -153 -122.5 -245.5t-280.5 -92.5q-165 0 -277.5 93t-121.5 245h303q7 -36 34 -57t64 -21zM1141 0l-54 113h-534l-51 -113h-502l805 1587l868 -1587h-532zM698 438h234l-121 254z" />
    <glyph glyph-name="abreve" unicode="&#x103;" 
d="M702 1415q37 0 64.5 21t34.5 57h303q-9 -153 -123 -245.5t-281 -92.5q-165 0 -277.5 93t-121.5 245h303q7 -36 34 -57t64 -21zM782 0v70q-89 -95 -229 -95q-154 0 -274 72.5t-184 198t-64 282.5q0 158 63.5 285.5t183.5 202t275 74.5q137 0 229 -95v70h451v-1065h-451z
M635 680q-64 0 -106 -43t-42 -109q0 -64 42 -103.5t106 -39.5q65 0 106 39t41 104q0 66 -41.5 109t-105.5 43z" />
    <glyph glyph-name="Aogonek" unicode="&#x104;" horiz-adv-x="1673" 
d="M1458 -506q-103 -35 -164 -35q-112 0 -195 57.5t-100 159.5q-32 188 142 324l-54 113h-534l-51 -113h-502l805 1587l868 -1587h-215q-83 -36 -131 -95.5t-29 -131.5q7 -28 34.5 -44t60.5 -16q28 0 65 11v-230zM698 438h234l-121 254z" />
    <glyph glyph-name="aogonek" unicode="&#x105;" 
d="M1094 -506q-103 -35 -164 -35q-112 0 -195 57.5t-100 159.5q-32 193 147 328v66q-89 -95 -229 -95q-154 0 -274 72.5t-184 198t-64 282.5q0 158 63.5 285.5t183.5 202t275 74.5q137 0 229 -95v70h451v-1065h-139q-83 -36 -131 -95.5t-29 -131.5q7 -28 34 -44t60 -16
q29 0 66 11v-230zM635 680q-64 0 -106 -43t-42 -109q0 -64 42 -103.5t106 -39.5q65 0 106 39t41 104q0 66 -41.5 109t-105.5 43z" />
    <glyph glyph-name="Cacute" unicode="&#x106;" horiz-adv-x="1400" 
d="M791 1946h532l-356 -297h-369zM854 -25q-174 0 -322 60t-251.5 165t-161.5 252.5t-58 317.5t58 316.5t161 251t251 164t321 59.5q243 0 457 -117v-492q-201 158 -402 158q-157 0 -255.5 -92t-98.5 -240q0 -156 104.5 -254t270.5 -98q200 0 377 119v-465
q-215 -105 -451 -105z" />
    <glyph glyph-name="cacute" unicode="&#x107;" horiz-adv-x="1030" 
d="M582 1475h532l-356 -297h-369zM492 535q0 -79 62.5 -124.5t158.5 -45.5q124 0 239 63v-387q-161 -66 -315 -66q-171 0 -308.5 68t-217.5 196t-80 293t79.5 293.5t215.5 196.5t305 68q171 0 327 -78v-408q-105 94 -268 94q-86 0 -142 -42.5t-56 -120.5z" />
    <glyph glyph-name="Ccircumflex" unicode="&#x108;" horiz-adv-x="1400" 
d="M950 1649l-121 110l-120 -110h-338l233 297h451l233 -297h-338zM854 -25q-174 0 -322 60t-251.5 165t-161.5 252.5t-58 317.5t58 316.5t161 251t251 164t321 59.5q243 0 457 -117v-492q-201 158 -402 158q-157 0 -255.5 -92t-98.5 -240q0 -156 104.5 -254t270.5 -98
q200 0 377 119v-465q-215 -105 -451 -105z" />
    <glyph glyph-name="ccircumflex" unicode="&#x109;" horiz-adv-x="1030" 
d="M725 1178l-121 110l-121 -110h-338l234 297h450l234 -297h-338zM492 535q0 -79 62.5 -124.5t158.5 -45.5q124 0 239 63v-387q-161 -66 -315 -66q-171 0 -308.5 68t-217.5 196t-80 293t79.5 293.5t215.5 196.5t305 68q171 0 327 -78v-408q-105 94 -268 94
q-86 0 -142 -42.5t-56 -120.5z" />
    <glyph glyph-name="Cdotaccent" unicode="&#x10a;" horiz-adv-x="1400" 
d="M842 1645q-107 0 -177.5 59.5t-70.5 161.5q0 101 70 160t178 59q105 0 174 -59.5t69 -159.5q0 -101 -69 -161t-174 -60zM854 -25q-174 0 -322 60t-251.5 165t-161.5 252.5t-58 317.5t58 316.5t161 251t251 164t321 59.5q243 0 457 -117v-492q-201 158 -402 158
q-157 0 -255.5 -92t-98.5 -240q0 -156 104.5 -254t270.5 -98q200 0 377 119v-465q-215 -105 -451 -105z" />
    <glyph glyph-name="cdotaccent" unicode="&#x10b;" horiz-adv-x="1030" 
d="M573 1174q-107 0 -177 59.5t-70 161.5t69.5 160.5t177.5 58.5q106 0 175 -59.5t69 -159.5q0 -101 -69.5 -161t-174.5 -60zM492 535q0 -79 62.5 -124.5t158.5 -45.5q124 0 239 63v-387q-161 -66 -315 -66q-171 0 -308.5 68t-217.5 196t-80 293t79.5 293.5t215.5 196.5
t305 68q171 0 327 -78v-408q-105 94 -268 94q-86 0 -142 -42.5t-56 -120.5z" />
    <glyph glyph-name="Ccaron" unicode="&#x10c;" horiz-adv-x="1400" 
d="M1313 1946l-254 -297h-451l-254 297h359l121 -111l120 111h359zM854 -25q-174 0 -322 60t-251.5 165t-161.5 252.5t-58 317.5t58 316.5t161 251t251 164t321 59.5q243 0 457 -117v-492q-201 158 -402 158q-157 0 -255.5 -92t-98.5 -240q0 -156 104.5 -254t270.5 -98
q200 0 377 119v-465q-215 -105 -451 -105z" />
    <glyph glyph-name="ccaron" unicode="&#x10d;" horiz-adv-x="1030" 
d="M1083 1475l-254 -297h-450l-254 297h358l121 -111l121 111h358zM492 535q0 -79 62.5 -124.5t158.5 -45.5q124 0 239 63v-387q-161 -66 -315 -66q-171 0 -308.5 68t-217.5 196t-80 293t79.5 293.5t215.5 196.5t305 68q171 0 327 -78v-408q-105 94 -268 94
q-86 0 -142 -42.5t-56 -120.5z" />
    <glyph glyph-name="Dcaron" unicode="&#x10e;" horiz-adv-x="1579" 
d="M1214 1946l-253 -297h-451l-254 297h358l121 -111l121 111h358zM123 0v1536h637q220 0 393 -98t269 -272.5t96 -395.5q0 -165 -55 -308t-153 -244.5t-238.5 -159.5t-305.5 -58h-643zM692 1106h-108v-676h108q153 0 248.5 94t95.5 246q0 150 -96 243t-248 93z" />
    <glyph glyph-name="dcaron" unicode="&#x10f;" horiz-adv-x="1703" 
d="M782 0v61q-99 -86 -229 -86q-152 0 -272 73t-185 198.5t-65 281.5q0 158 64 285.5t184 202t274 74.5q130 0 229 -86v532h451v-1536h-451zM1563 1106h-258l61 430h369zM635 680q-64 0 -106 -43t-42 -109q0 -64 42 -103.5t106 -39.5q65 0 106 39t41 104q0 66 -41.5 109
t-105.5 43z" />
    <glyph glyph-name="Dcroat" unicode="&#x110;" horiz-adv-x="1662" 
d="M31 930h176v606h637q220 0 393 -98t269 -272.5t96 -395.5q0 -165 -55 -308t-153 -244.5t-238.5 -159.5t-305.5 -58h-643v610h-176v320zM860 610h-192v-180h108q153 0 248.5 94t95.5 246q0 150 -96 243t-248 93h-108v-176h192v-320z" />
    <glyph glyph-name="dcroat" unicode="&#x111;" 
d="M782 0v61q-99 -86 -229 -86q-152 0 -272 73t-185 198.5t-65 281.5q0 158 64 285.5t184 202t274 74.5q130 0 229 -86v174h-215v235h215v123h451v-123h164v-235h-164v-1178h-451zM782 528q0 66 -41.5 109t-105.5 43t-106 -43t-42 -109q0 -64 42 -103.5t106 -39.5
q65 0 106 39t41 104z" />
    <glyph glyph-name="Emacron" unicode="&#x112;" horiz-adv-x="1300" 
d="M276 1946h779v-297h-779v297zM123 0v1536h1079v-412h-608v-139h530v-407h-530v-168h631v-410h-1102z" />
    <glyph glyph-name="emacron" unicode="&#x113;" horiz-adv-x="1183" 
d="M182 1475h779v-297h-779v297zM1167 561q0 -82 -8 -145h-633q68 -105 238 -105q145 0 319 74v-311q-180 -99 -428 -99q-174 0 -314.5 64t-225 190.5t-84.5 294.5q0 166 75.5 295.5t208.5 200t301 70.5q156 0 281.5 -66t197.5 -187t72 -276zM610 793q-55 0 -86 -39
t-39 -105h242q-5 64 -33.5 104t-83.5 40z" />
    <glyph glyph-name="Ebreve" unicode="&#x114;" horiz-adv-x="1300" 
d="M682 1888q37 0 64 21t34 57h303q-9 -153 -122.5 -245.5t-280.5 -92.5q-165 0 -277.5 93t-121.5 245h303q7 -36 34 -57t64 -21zM123 0v1536h1079v-412h-608v-139h530v-407h-530v-168h631v-410h-1102z" />
    <glyph glyph-name="ebreve" unicode="&#x115;" horiz-adv-x="1183" 
d="M575 1417q37 0 64.5 21t34.5 57h303q-9 -153 -123 -245.5t-281 -92.5q-165 0 -277.5 93t-121.5 245h303q7 -36 34 -57t64 -21zM1167 561q0 -82 -8 -145h-633q68 -105 238 -105q145 0 319 74v-311q-180 -99 -428 -99q-174 0 -314.5 64t-225 190.5t-84.5 294.5
q0 166 75.5 295.5t208.5 200t301 70.5q156 0 281.5 -66t197.5 -187t72 -276zM610 793q-55 0 -86 -39t-39 -105h242q-5 64 -33.5 104t-83.5 40z" />
    <glyph glyph-name="Edotaccent" unicode="&#x116;" horiz-adv-x="1300" 
d="M692 1645q-107 0 -177.5 59.5t-70.5 161.5q0 101 70 160t178 59q106 0 175 -59.5t69 -159.5q0 -101 -69.5 -161t-174.5 -60zM123 0v1536h1079v-412h-608v-139h530v-407h-530v-168h631v-410h-1102z" />
    <glyph glyph-name="edotaccent" unicode="&#x117;" horiz-adv-x="1183" 
d="M580 1174q-107 0 -177.5 59.5t-70.5 161.5q0 101 70 160t178 59q105 0 174 -59.5t69 -159.5q0 -101 -69 -161t-174 -60zM1167 561q0 -82 -8 -145h-633q68 -105 238 -105q145 0 319 74v-311q-180 -99 -428 -99q-174 0 -314.5 64t-225 190.5t-84.5 294.5q0 166 75.5 295.5
t208.5 200t301 70.5q156 0 281.5 -66t197.5 -187t72 -276zM610 793q-55 0 -86 -39t-39 -105h242q-5 64 -33.5 104t-83.5 40z" />
    <glyph glyph-name="Eogonek" unicode="&#x118;" horiz-adv-x="1300" 
d="M1225 -506q-103 -35 -164 -35q-112 0 -195 57.5t-100 159.5q-32 188 141 324h-784v1536h1079v-412h-608v-139h530v-407h-530v-168h631v-410q-83 -36 -131 -95.5t-29 -131.5q7 -28 34 -44t60 -16q29 0 66 11v-230z" />
    <glyph glyph-name="eogonek" unicode="&#x119;" horiz-adv-x="1183" 
d="M1167 561q0 -82 -8 -145h-633q68 -105 238 -105q141 0 309 74v-311q-78 -49 -128.5 -136t-31.5 -161q7 -28 34.5 -44t60.5 -16q28 0 65 11v-230q-103 -35 -164 -35q-112 0 -195 58t-100 160q-26 169 105 296q-20 -2 -64 -2q-174 0 -314.5 64t-225 190.5t-84.5 294.5
q0 166 75.5 295.5t208.5 200t301 70.5q156 0 281.5 -66t197.5 -187t72 -276zM610 793q-55 0 -86 -39t-39 -105h242q-5 64 -33.5 104t-83.5 40z" />
    <glyph glyph-name="Ecaron" unicode="&#x11a;" horiz-adv-x="1300" 
d="M1176 1946l-254 -297h-451l-254 297h358l121 -111l121 111h359zM123 0v1536h1079v-412h-608v-139h530v-407h-530v-168h631v-410h-1102z" />
    <glyph glyph-name="ecaron" unicode="&#x11b;" horiz-adv-x="1183" 
d="M1059 1475l-254 -297h-451l-254 297h359l121 -111l120 111h359zM1167 561q0 -82 -8 -145h-633q68 -105 238 -105q145 0 319 74v-311q-180 -99 -428 -99q-174 0 -314.5 64t-225 190.5t-84.5 294.5q0 166 75.5 295.5t208.5 200t301 70.5q156 0 281.5 -66t197.5 -187
t72 -276zM610 793q-55 0 -86 -39t-39 -105h242q-5 64 -33.5 104t-83.5 40z" />
    <glyph glyph-name="Gcircumflex" unicode="&#x11c;" horiz-adv-x="1560" 
d="M975 1649l-121 110l-121 -110h-338l234 297h450l234 -297h-338zM1470 145q-302 -170 -604 -170q-174 0 -324 58.5t-255.5 161.5t-165.5 250t-60 319q0 234 109.5 416.5t301 281.5t431.5 99q230 0 451 -91v-471q-174 131 -414 131q-168 0 -277.5 -95.5t-109.5 -258.5
q0 -157 103.5 -253.5t261.5 -96.5q44 0 102 10v142h-191v319h641v-752z" />
    <glyph glyph-name="gcircumflex" unicode="&#x11d;" 
d="M821 1178l-121 110l-120 -110h-338l233 297h451l233 -297h-338zM1233 23q0 -168 -82 -296.5t-223.5 -196t-319.5 -67.5q-237 0 -440 101v385q196 -117 381 -117q99 0 166 49.5t67 136.5v43q-99 -86 -229 -86q-230 0 -376 160.5t-146 401.5q0 156 64 281.5t184 198.5
t274 73q130 0 229 -86v61h451v-1042zM782 528q0 66 -41.5 109t-105.5 43t-106 -43t-42 -109q0 -64 42 -103.5t106 -39.5q65 0 106 39t41 104z" />
    <glyph glyph-name="Gbreve" unicode="&#x11e;" horiz-adv-x="1560" 
d="M858 1888q37 0 64 21t34 57h304q-9 -153 -123 -245.5t-281 -92.5q-165 0 -277.5 93t-121.5 245h303q7 -36 34 -57t64 -21zM1470 145q-302 -170 -604 -170q-174 0 -324 58.5t-255.5 161.5t-165.5 250t-60 319q0 234 109.5 416.5t301 281.5t431.5 99q230 0 451 -91v-471
q-174 131 -414 131q-168 0 -277.5 -95.5t-109.5 -258.5q0 -157 103.5 -253.5t261.5 -96.5q44 0 102 10v142h-191v319h641v-752z" />
    <glyph glyph-name="gbreve" unicode="&#x11f;" 
d="M684 1417q37 0 64 21t34 57h303q-9 -153 -122.5 -245.5t-280.5 -92.5q-165 0 -277.5 93t-121.5 245h303q7 -36 34 -57t64 -21zM1233 23q0 -168 -82 -296.5t-223.5 -196t-319.5 -67.5q-237 0 -440 101v385q196 -117 381 -117q99 0 166 49.5t67 136.5v43q-99 -86 -229 -86
q-230 0 -376 160.5t-146 401.5q0 156 64 281.5t184 198.5t274 73q130 0 229 -86v61h451v-1042zM782 528q0 66 -41.5 109t-105.5 43t-106 -43t-42 -109q0 -64 42 -103.5t106 -39.5q65 0 106 39t41 104z" />
    <glyph glyph-name="Gdotaccent" unicode="&#x120;" horiz-adv-x="1560" 
d="M866 1645q-107 0 -177.5 59.5t-70.5 161.5q0 101 70 160t178 59q106 0 175 -59.5t69 -159.5q0 -101 -69.5 -161t-174.5 -60zM1470 145q-302 -170 -604 -170q-174 0 -324 58.5t-255.5 161.5t-165.5 250t-60 319q0 234 109.5 416.5t301 281.5t431.5 99q230 0 451 -91v-471
q-174 131 -414 131q-168 0 -277.5 -95.5t-109.5 -258.5q0 -157 103.5 -253.5t261.5 -96.5q44 0 102 10v142h-191v319h641v-752z" />
    <glyph glyph-name="gdotaccent" unicode="&#x121;" 
d="M717 1174q-107 0 -177.5 59.5t-70.5 161.5q0 101 70 160t178 59q106 0 175 -59.5t69 -159.5q0 -101 -69.5 -161t-174.5 -60zM1233 23q0 -168 -82 -296.5t-223.5 -196t-319.5 -67.5q-237 0 -440 101v385q196 -117 381 -117q99 0 166 49.5t67 136.5v43q-99 -86 -229 -86
q-230 0 -376 160.5t-146 401.5q0 156 64 281.5t184 198.5t274 73q130 0 229 -86v61h451v-1042zM782 528q0 66 -41.5 109t-105.5 43t-106 -43t-42 -109q0 -64 42 -103.5t106 -39.5q65 0 106 39t41 104z" />
    <glyph glyph-name="Gcommaaccent" unicode="&#x122;" horiz-adv-x="1560" 
d="M1470 145q-302 -170 -604 -170q-174 0 -324 58.5t-255.5 161.5t-165.5 250t-60 319q0 234 109.5 416.5t301 281.5t431.5 99q230 0 451 -91v-471q-174 131 -414 131q-168 0 -277.5 -95.5t-109.5 -258.5q0 -157 103.5 -253.5t261.5 -96.5q44 0 102 10v142h-191v319h641
v-752zM643 -102h397l-256 -410h-243z" />
    <glyph glyph-name="gcommaaccent" unicode="&#x123;" 
d="M735 1587h244l-102 -409h-398zM1233 23q0 -168 -82 -296.5t-223.5 -196t-319.5 -67.5q-237 0 -440 101v385q196 -117 381 -117q99 0 166 49.5t67 136.5v43q-99 -86 -229 -86q-230 0 -376 160.5t-146 401.5q0 156 64 281.5t184 198.5t274 73q130 0 229 -86v61h451v-1042z
M782 528q0 66 -41.5 109t-105.5 43t-106 -43t-42 -109q0 -64 42 -103.5t106 -39.5q65 0 106 39t41 104z" />
    <glyph glyph-name="Hcircumflex" unicode="&#x124;" horiz-adv-x="1658" 
d="M956 1649l-120 110l-121 -110h-338l233 297h451l233 -297h-338zM1065 0v565h-471v-565h-471v1536h471v-551h471v551h471v-1536h-471z" />
    <glyph glyph-name="hcircumflex" unicode="&#x125;" horiz-adv-x="1280" 
d="M788 1649l-120 110l-121 -110h-338l233 297h451l233 -297h-338zM543 537v-537h-451v1536h451v-555q115 109 274 109q176 0 283.5 -119.5t107.5 -302.5v-668h-450v514q0 70 -26 107.5t-73 37.5q-53 0 -84.5 -33.5t-31.5 -88.5z" />
    <glyph glyph-name="Hbar" unicode="&#x126;" horiz-adv-x="1658" 
d="M1065 0v565h-471v-565h-471v1151h-113v235h113v150h471v-150h471v150h471v-150h113v-235h-113v-1151h-471zM594 985h471v166h-471v-166z" />
    <glyph glyph-name="hbar" unicode="&#x127;" horiz-adv-x="1310" 
d="M573 537v-537h-450v1178h-164v235h164v123h450v-123h218v-235h-218v-197q115 109 275 109q176 0 283.5 -119.5t107.5 -302.5v-668h-451v514q0 70 -25.5 107.5t-72.5 37.5q-53 0 -85 -33.5t-32 -88.5z" />
    <glyph glyph-name="Itilde" unicode="&#x128;" horiz-adv-x="716" 
d="M487 1630q-61 0 -164 24.5t-128 24.5q-28 0 -46 -14t-18 -39h-186q6 161 78.5 248.5t203.5 87.5q57 0 164.5 -24.5t124.5 -24.5q28 0 46 14t18 39h186q-1 -160 -74.5 -248t-204.5 -88zM123 0v1536h471v-1536h-471z" />
    <glyph glyph-name="itilde" unicode="&#x129;" horiz-adv-x="634" 
d="M459 1178q-61 0 -165 24.5t-128 24.5q-28 0 -46 -14t-18 -39h-186q6 161 79 248t204 87q57 0 164 -24.5t124 -24.5q28 0 46 14t18 39h186q-1 -160 -74 -247.5t-204 -87.5zM92 0v1065h451v-1065h-451z" />
    <glyph glyph-name="Imacron" unicode="&#x12a;" horiz-adv-x="716" 
d="M-31 1946h779v-297h-779v297zM123 0v1536h471v-1536h-471z" />
    <glyph glyph-name="imacron" unicode="&#x12b;" horiz-adv-x="634" 
d="M-72 1475h779v-297h-779v297zM92 0v1065h451v-1065h-451z" />
    <glyph glyph-name="Ibreve" unicode="&#x12c;" horiz-adv-x="716" 
d="M360 1888q37 0 64.5 21t34.5 57h303q-9 -153 -123 -245.5t-281 -92.5q-165 0 -277.5 93t-121.5 245h303q7 -36 34 -57t64 -21zM123 0v1536h471v-1536h-471z" />
    <glyph glyph-name="ibreve" unicode="&#x12d;" horiz-adv-x="634" 
d="M324 1417q37 0 64 21t34 57h303q-9 -153 -122.5 -245.5t-280.5 -92.5q-165 0 -278 93t-122 245h303q7 -36 34.5 -57t64.5 -21zM92 0v1065h451v-1065h-451z" />
    <glyph glyph-name="Iogonek" unicode="&#x12e;" horiz-adv-x="716" 
d="M438 -506q-103 -35 -164 -35q-112 0 -194.5 57.5t-99.5 159.5q-32 191 143 326v1534h471v-1536h-156q-83 -36 -130.5 -95.5t-28.5 -131.5q7 -28 34 -44t60 -16q28 0 65 11v-230z" />
    <glyph glyph-name="iogonek" unicode="&#x12f;" horiz-adv-x="634" 
d="M319 1174q-107 0 -177 59.5t-70 161.5t69.5 160.5t177.5 58.5q106 0 175 -59.5t69 -159.5q0 -101 -69.5 -161t-174.5 -60zM406 -506q-103 -35 -164 -35q-112 0 -195 57.5t-100 159.5q-32 189 145 328v1061h451v-1065h-137q-83 -36 -131 -95.5t-29 -131.5q7 -28 34 -44
t60 -16q29 0 66 11v-230z" />
    <glyph glyph-name="Idotaccent" unicode="&#x130;" horiz-adv-x="716" 
d="M360 1645q-107 0 -177 59.5t-70 161.5t69.5 160.5t177.5 58.5q106 0 175 -59.5t69 -159.5q0 -101 -69.5 -161t-174.5 -60zM123 0v1536h471v-1536h-471z" />
    <glyph glyph-name="dotlessi" unicode="&#x131;" horiz-adv-x="634" 
d="M92 0v1065h451v-1065h-451z" />
    <glyph glyph-name="IJ" unicode="&#x132;" horiz-adv-x="1714" 
d="M123 0v1536h471v-1536h-471zM1038 -25q-137 0 -282 74v397q122 -57 227 -57q80 0 120 36t40 116v995h471v-1010q0 -277 -148 -414t-428 -137z" />
    <glyph glyph-name="ij" unicode="&#x133;" horiz-adv-x="1331" 
d="M319 1174q-107 0 -177 59.5t-70 161.5t69.5 160.5t177.5 58.5q106 0 175 -59.5t69 -159.5q0 -101 -69.5 -161t-174.5 -60zM1016 1174q-107 0 -177.5 59.5t-70.5 161.5q0 101 70 160t178 59q106 0 175 -59.5t69 -159.5q0 -101 -69.5 -161t-174.5 -60zM92 0v1065h451v-1065
h-451zM725 -537q-150 0 -264 60v338q87 -37 151 -37q77 0 126.5 39t49.5 117v1085h451v-1116q0 -150 -71.5 -262.5t-187 -168t-255.5 -55.5z" />
    <glyph glyph-name="Jcircumflex" unicode="&#x134;" horiz-adv-x="997" 
d="M768 1649l-121 110l-121 -110h-338l234 297h450l234 -297h-338zM322 -25q-65 0 -142 20.5t-141 53.5v397q122 -57 227 -57q80 0 120 36t40 116v995h471v-1010q0 -277 -147.5 -414t-427.5 -137z" />
    <glyph glyph-name="jcircumflex" unicode="&#x135;" horiz-adv-x="634" 
d="M442 1178l-120 110l-121 -110h-338l233 297h451l233 -297h-338zM68 -537q-179 0 -304 60v342q87 -43 191 -43q66 0 101.5 36.5t35.5 98.5v1108h451v-1145q0 -202 -134.5 -329.5t-340.5 -127.5z" />
    <glyph glyph-name="Kcommaaccent" unicode="&#x136;" horiz-adv-x="1636" 
d="M1061 0l-320 520l-147 -174v-346h-471v1536h471v-563l455 563h559l-549 -645l573 -891h-571zM604 -102h397l-256 -410h-243z" />
    <glyph glyph-name="kcommaaccent" unicode="&#x137;" horiz-adv-x="1351" 
d="M827 0l-215 334l-69 -74v-260h-451v1536h451v-758l260 287h512l-406 -422l443 -643h-525zM481 -102h398l-256 -410h-244z" />
    <glyph glyph-name="Lacute" unicode="&#x139;" horiz-adv-x="1220" 
d="M338 1946h532l-356 -297h-369zM1182 420v-420h-1059v1536h471v-1116h588z" />
    <glyph glyph-name="lacute" unicode="&#x13a;" horiz-adv-x="634" 
d="M283 1946h532l-356 -297h-369zM92 0v1536h451v-1536h-451z" />
    <glyph glyph-name="Lcommaaccent" unicode="&#x13b;" horiz-adv-x="1220" 
d="M1182 420v-420h-1059v1536h471v-1116h588zM446 -102h398l-256 -410h-244z" />
    <glyph glyph-name="lcommaaccent" unicode="&#x13c;" horiz-adv-x="634" 
d="M92 0v1536h451v-1536h-451zM117 -102h397l-256 -410h-244z" />
    <glyph glyph-name="Lcaron" unicode="&#x13d;" horiz-adv-x="1220" 
d="M1182 420v-420h-1059v1536h471v-1116h588zM977 1106h-258l61 430h369z" />
    <glyph glyph-name="lcaron" unicode="&#x13e;" horiz-adv-x="1024" 
d="M92 0v1536h451v-1536h-451zM883 1106h-258l61 430h369z" />
    <glyph glyph-name="Ldot" unicode="&#x13f;" horiz-adv-x="1220" 
d="M1182 420v-420h-1059v1536h471v-1116h588zM975 702q-106 0 -175 60.5t-69 163.5q0 101 69.5 161t174.5 60q104 0 171.5 -59.5t67.5 -161.5t-67.5 -163t-171.5 -61z" />
    <glyph glyph-name="ldot" unicode="&#x140;" horiz-adv-x="1107" 
d="M92 0v1536h451v-1536h-451zM872 569q-106 0 -174.5 60.5t-68.5 163.5q0 101 69 161t174 60q104 0 172 -59.5t68 -161.5t-68 -163t-172 -61z" />
    <glyph glyph-name="Lslash" unicode="&#x141;" horiz-adv-x="1261" 
d="M1223 420v-420h-1059v414l-187 -127v360l187 123v766h471v-455l192 127v-340l-192 -131v-317h588z" />
    <glyph glyph-name="lslash" unicode="&#x142;" horiz-adv-x="831" 
d="M831 750l-194 -134v-616h-451v307l-186 -127v361l186 123v872h451v-575l194 129v-340z" />
    <glyph glyph-name="Nacute" unicode="&#x143;" horiz-adv-x="1650" 
d="M713 1946h532l-356 -297h-369zM1528 -51l-934 710v-659h-471v1587l934 -710v659h471v-1587z" />
    <glyph glyph-name="nacute" unicode="&#x144;" horiz-adv-x="1280" 
d="M567 1475h533l-357 -297h-368zM543 537v-537h-451v1065h451v-84q115 109 274 109q176 0 283.5 -119.5t107.5 -302.5v-668h-450v514q0 70 -26 107.5t-73 37.5q-53 0 -84.5 -33.5t-31.5 -88.5z" />
    <glyph glyph-name="Ncommaaccent" unicode="&#x145;" horiz-adv-x="1650" 
d="M1528 -51l-934 710v-659h-471v1587l934 -710v659h471v-1587zM764 -102h397l-256 -410h-243z" />
    <glyph glyph-name="ncommaaccent" unicode="&#x146;" horiz-adv-x="1280" 
d="M543 537v-537h-451v1065h451v-84q115 109 274 109q176 0 283.5 -119.5t107.5 -302.5v-668h-450v514q0 70 -26 107.5t-73 37.5q-53 0 -84.5 -33.5t-31.5 -88.5zM471 -102h397l-256 -410h-243z" />
    <glyph glyph-name="Ncaron" unicode="&#x147;" horiz-adv-x="1650" 
d="M1321 1946l-254 -297h-451l-254 297h359l121 -111l121 111h358zM1528 -51l-934 710v-659h-471v1587l934 -710v659h471v-1587z" />
    <glyph glyph-name="ncaron" unicode="&#x148;" horiz-adv-x="1280" 
d="M1130 1475l-253 -297h-451l-254 297h358l121 -111l121 111h358zM543 537v-537h-451v1065h451v-84q115 109 274 109q176 0 283.5 -119.5t107.5 -302.5v-668h-450v514q0 70 -26 107.5t-73 37.5q-53 0 -84.5 -33.5t-31.5 -88.5z" />
    <glyph glyph-name="Omacron" unicode="&#x14c;" horiz-adv-x="1744" 
d="M481 1946h779v-297h-779v297zM1683 774q0 -231 -103.5 -413.5t-288.5 -284t-419 -101.5t-419 101.5t-288.5 284t-103.5 413.5q0 172 61 319.5t167.5 250t257 160t325.5 57.5t325.5 -57.5t257 -160t167.5 -250t61 -319.5zM872 426q148 0 239 98t91 248q0 148 -91 243
t-239 95t-238.5 -95t-90.5 -243q0 -150 90.5 -248t238.5 -98z" />
    <glyph glyph-name="omacron" unicode="&#x14d;" horiz-adv-x="1269" 
d="M238 1475h778v-297h-778v297zM641 -25q-172 0 -310 68.5t-219 198t-81 297.5q0 166 82 292.5t219.5 192.5t308.5 66q168 0 303.5 -67t215 -193.5t79.5 -290.5q0 -167 -78.5 -296t-214.5 -198.5t-305 -69.5zM782 535q0 66 -39.5 105.5t-105.5 39.5q-68 0 -109 -39.5
t-41 -105.5q0 -67 41.5 -108.5t108.5 -41.5q66 0 105.5 41t39.5 109z" />
    <glyph glyph-name="Obreve" unicode="&#x14e;" horiz-adv-x="1744" 
d="M870 1888q37 0 64.5 21t34.5 57h303q-9 -153 -123 -245.5t-281 -92.5q-165 0 -277.5 93t-121.5 245h303q7 -36 34 -57t64 -21zM1683 774q0 -231 -103.5 -413.5t-288.5 -284t-419 -101.5t-419 101.5t-288.5 284t-103.5 413.5q0 172 61 319.5t167.5 250t257 160t325.5 57.5
t325.5 -57.5t257 -160t167.5 -250t61 -319.5zM872 426q148 0 239 98t91 248q0 148 -91 243t-239 95t-238.5 -95t-90.5 -243q0 -150 90.5 -248t238.5 -98z" />
    <glyph glyph-name="obreve" unicode="&#x14f;" horiz-adv-x="1269" 
d="M635 1417q37 0 64 21t34 57h303q-9 -153 -122.5 -245.5t-280.5 -92.5q-165 0 -278 93t-122 245h304q7 -36 34 -57t64 -21zM641 -25q-172 0 -310 68.5t-219 198t-81 297.5q0 166 82 292.5t219.5 192.5t308.5 66q168 0 303.5 -67t215 -193.5t79.5 -290.5q0 -167 -78.5 -296
t-214.5 -198.5t-305 -69.5zM782 535q0 66 -39.5 105.5t-105.5 39.5q-68 0 -109 -39.5t-41 -105.5q0 -67 41.5 -108.5t108.5 -41.5q66 0 105.5 41t39.5 109z" />
    <glyph glyph-name="Ohungarumlaut" unicode="&#x150;" horiz-adv-x="1744" 
d="M748 1649h-277l172 297h408zM1208 1649h-276l172 297h407zM1683 774q0 -231 -103.5 -413.5t-288.5 -284t-419 -101.5t-419 101.5t-288.5 284t-103.5 413.5q0 172 61 319.5t167.5 250t257 160t325.5 57.5t325.5 -57.5t257 -160t167.5 -250t61 -319.5zM872 426
q148 0 239 98t91 248q0 148 -91 243t-239 95t-238.5 -95t-90.5 -243q0 -150 90.5 -248t238.5 -98z" />
    <glyph glyph-name="ohungarumlaut" unicode="&#x151;" horiz-adv-x="1269" 
d="M516 1178h-276l172 297h407zM977 1178h-277l172 297h408zM641 -25q-172 0 -310 68.5t-219 198t-81 297.5q0 166 82 292.5t219.5 192.5t308.5 66q168 0 303.5 -67t215 -193.5t79.5 -290.5q0 -167 -78.5 -296t-214.5 -198.5t-305 -69.5zM782 535q0 66 -39.5 105.5
t-105.5 39.5q-68 0 -109 -39.5t-41 -105.5q0 -67 41.5 -108.5t108.5 -41.5q66 0 105.5 41t39.5 109z" />
    <glyph glyph-name="OE" unicode="&#x152;" horiz-adv-x="2148" 
d="M61 766q0 223 99.5 399t276.5 273.5t401 97.5h1212v-412h-608v-139h530v-407h-530v-168h631v-410h-1229q-224 0 -402.5 96.5t-279.5 271.5t-101 398zM883 430h88v676h-88q-149 0 -244.5 -95.5t-95.5 -244.5t95 -242.5t245 -93.5z" />
    <glyph glyph-name="oe" unicode="&#x153;" horiz-adv-x="1941" 
d="M1831 74q-175 -99 -420 -99q-231 0 -381 123q-160 -123 -389 -123q-172 0 -310 68.5t-219 198t-81 297.5q0 166 82 292.5t219.5 192.5t308.5 66q236 0 397 -127q152 127 373 127q223 0 368.5 -147.5t145.5 -381.5q0 -82 -8 -145h-629q66 -107 213 -107q158 0 330 76v-311
zM1368 793q-58 0 -89 -40t-38 -104h244q-5 64 -33.5 104t-83.5 40zM637 385q66 0 105.5 41t39.5 109q0 66 -39.5 105.5t-105.5 39.5q-68 0 -109 -39.5t-41 -105.5q0 -67 41.5 -108.5t108.5 -41.5z" />
    <glyph glyph-name="Racute" unicode="&#x154;" horiz-adv-x="1476" 
d="M662 1946h532l-356 -297h-369zM123 0v1536h694q259 0 423.5 -153.5t164.5 -401.5q0 -157 -71.5 -280t-198.5 -195l331 -506h-553l-258 426h-61v-426h-471zM754 1147h-160v-332h160q78 0 124 47t46 119q0 71 -47 118.5t-123 47.5z" />
    <glyph glyph-name="racute" unicode="&#x155;" horiz-adv-x="921" 
d="M416 1475h532l-356 -297h-369zM543 379v-379h-451v1065h451v-178q137 203 354 203v-478q-80 22 -161.5 0.5t-137 -84t-55.5 -149.5z" />
    <glyph glyph-name="Rcommaaccent" unicode="&#x156;" horiz-adv-x="1476" 
d="M123 0v1536h694q259 0 423.5 -153.5t164.5 -401.5q0 -157 -71.5 -280t-198.5 -195l331 -506h-553l-258 426h-61v-426h-471zM754 1147h-160v-332h160q78 0 124 47t46 119q0 71 -47 118.5t-123 47.5zM573 -102h398l-256 -410h-244z" />
    <glyph glyph-name="rcommaaccent" unicode="&#x157;" horiz-adv-x="921" 
d="M543 379v-379h-451v1065h451v-178q137 203 354 203v-478q-80 22 -161.5 0.5t-137 -84t-55.5 -149.5zM143 -102h398l-256 -410h-244z" />
    <glyph glyph-name="Rcaron" unicode="&#x158;" horiz-adv-x="1476" 
d="M1217 1946l-254 -297h-451l-254 297h358l121 -111l121 111h359zM123 0v1536h694q259 0 423.5 -153.5t164.5 -401.5q0 -157 -71.5 -280t-198.5 -195l331 -506h-553l-258 426h-61v-426h-471zM754 1147h-160v-332h160q78 0 124 47t46 119q0 71 -47 118.5t-123 47.5z" />
    <glyph glyph-name="rcaron" unicode="&#x159;" horiz-adv-x="921" 
d="M985 1475l-254 -297h-450l-254 297h358l121 -111l121 111h358zM543 379v-379h-451v1065h451v-178q137 203 354 203v-478q-80 22 -161.5 0.5t-137 -84t-55.5 -149.5z" />
    <glyph glyph-name="Sacute" unicode="&#x15a;" horiz-adv-x="1343" 
d="M682 1946h532l-356 -297h-369zM698 1186q-106 0 -106 -64q0 -39 49 -61l344 -156q179 -82 251.5 -178t72.5 -240q0 -106 -46.5 -200t-129 -163t-202 -109t-257.5 -40q-309 0 -572 148v481q178 -128 331 -191t263 -63q99 0 99 62q0 42 -50 63l-352 154q-159 69 -234 174.5
t-75 257.5q0 226 166.5 363t441.5 137q292 0 525 -125v-463q-154 109 -292.5 161t-226.5 52z" />
    <glyph glyph-name="sacute" unicode="&#x15b;" horiz-adv-x="985" 
d="M446 1475h533l-356 -297h-369zM53 444q86 -83 197 -130.5t207 -47.5q67 0 67 41q0 13 -7.5 20.5t-29.5 16.5l-139 55q-57 23 -96 42.5t-80 49t-65.5 62.5t-40 80.5t-15.5 105.5q0 167 126 259t341 92q202 0 377 -84v-344q-80 70 -174 113.5t-160 43.5q-78 0 -78 -45
q0 -16 9.5 -23.5t35.5 -17.5l162 -69q148 -64 211.5 -130t63.5 -180q0 -96 -42.5 -170.5t-116 -119t-164 -67t-193.5 -22.5q-100 0 -205 28t-191 77v364z" />
    <glyph glyph-name="Scircumflex" unicode="&#x15c;" horiz-adv-x="1343" 
d="M852 1649l-121 110l-121 -110h-338l234 297h450l234 -297h-338zM698 1186q-106 0 -106 -64q0 -39 49 -61l344 -156q179 -82 251.5 -178t72.5 -240q0 -106 -46.5 -200t-129 -163t-202 -109t-257.5 -40q-309 0 -572 148v481q178 -128 331 -191t263 -63q99 0 99 62
q0 42 -50 63l-352 154q-159 69 -234 174.5t-75 257.5q0 226 166.5 363t441.5 137q292 0 525 -125v-463q-154 109 -292.5 161t-226.5 52z" />
    <glyph glyph-name="scircumflex" unicode="&#x15d;" horiz-adv-x="985" 
d="M631 1178l-121 110l-121 -110h-338l234 297h450l234 -297h-338zM53 444q86 -83 197 -130.5t207 -47.5q67 0 67 41q0 13 -7.5 20.5t-29.5 16.5l-139 55q-57 23 -96 42.5t-80 49t-65.5 62.5t-40 80.5t-15.5 105.5q0 167 126 259t341 92q202 0 377 -84v-344
q-80 70 -174 113.5t-160 43.5q-78 0 -78 -45q0 -16 9.5 -23.5t35.5 -17.5l162 -69q148 -64 211.5 -130t63.5 -180q0 -96 -42.5 -170.5t-116 -119t-164 -67t-193.5 -22.5q-100 0 -205 28t-191 77v364z" />
    <glyph glyph-name="Scedilla" unicode="&#x15e;" horiz-adv-x="1343" 
d="M965 -311q0 -60 -28.5 -105.5t-78 -71t-107.5 -37.5t-124 -12q-103 0 -193 37v178q84 -43 158 -43q35 0 58.5 15t23.5 45q0 29 -22.5 45t-55.5 16q-40 0 -86 -16l-39 43l94 197q-255 25 -463 143v481q178 -128 331 -191t263 -63q99 0 99 62q0 42 -50 63l-352 154
q-159 69 -234 174.5t-75 257.5q0 226 166.5 363t441.5 137q292 0 525 -125v-463q-154 109 -292.5 161t-226.5 52q-106 0 -106 -64q0 -39 49 -61l344 -156q179 -82 251.5 -178t72.5 -240q0 -195 -147.5 -336t-385.5 -169l-47 -82q103 -11 169.5 -64.5t66.5 -146.5z" />
    <glyph glyph-name="scedilla" unicode="&#x15f;" horiz-adv-x="985" 
d="M768 -311q0 -60 -28.5 -105.5t-78 -71t-107.5 -37.5t-124 -12q-102 0 -192 37v178q84 -43 157 -43q35 0 58.5 15t23.5 45q0 29 -22.5 45t-55.5 16q-40 0 -86 -16l-39 43l95 197q-175 19 -316 100v364q86 -83 197 -130.5t207 -47.5q67 0 67 41q0 13 -7.5 20.5t-29.5 16.5
l-139 55q-57 23 -96 42.5t-80 49t-65.5 62.5t-40 80.5t-15.5 105.5q0 167 126 259t341 92q202 0 377 -84v-344q-80 70 -174 113.5t-160 43.5q-78 0 -78 -45q0 -16 9.5 -23.5t35.5 -17.5l162 -69q148 -64 211.5 -130t63.5 -180q0 -80 -30 -145.5t-83 -109.5t-120.5 -72
t-149.5 -41l-50 -86q103 -11 169.5 -64.5t66.5 -146.5z" />
    <glyph glyph-name="Scaron" unicode="&#x160;" horiz-adv-x="1343" 
d="M1194 1946l-254 -297h-451l-253 297h358l121 -111l121 111h358zM698 1186q-106 0 -106 -64q0 -39 49 -61l344 -156q179 -82 251.5 -178t72.5 -240q0 -106 -46.5 -200t-129 -163t-202 -109t-257.5 -40q-309 0 -572 148v481q178 -128 331 -191t263 -63q99 0 99 62
q0 42 -50 63l-352 154q-159 69 -234 174.5t-75 257.5q0 226 166.5 363t441.5 137q292 0 525 -125v-463q-154 109 -292.5 161t-226.5 52z" />
    <glyph glyph-name="scaron" unicode="&#x161;" horiz-adv-x="985" 
d="M993 1475l-254 -297h-450l-254 297h358l121 -111l121 111h358zM53 444q86 -83 197 -130.5t207 -47.5q67 0 67 41q0 13 -7.5 20.5t-29.5 16.5l-139 55q-57 23 -96 42.5t-80 49t-65.5 62.5t-40 80.5t-15.5 105.5q0 167 126 259t341 92q202 0 377 -84v-344
q-80 70 -174 113.5t-160 43.5q-78 0 -78 -45q0 -16 9.5 -23.5t35.5 -17.5l162 -69q148 -64 211.5 -130t63.5 -180q0 -96 -42.5 -170.5t-116 -119t-164 -67t-193.5 -22.5q-100 0 -205 28t-191 77v364z" />
    <glyph glyph-name="uni0162" unicode="&#x162;" horiz-adv-x="1392" 
d="M1362 1116h-430v-1116h-471v1116h-430v420h1331v-420zM506 -102h397l-256 -410h-244z" />
    <glyph glyph-name="uni0163" unicode="&#x163;" horiz-adv-x="880" 
d="M850 57q-119 -82 -320 -82q-215 0 -336.5 119.5t-121.5 331.5v905h450v-266h328v-348h-328v-207q0 -69 42 -107t116 -38q104 0 170 34v-342zM309 -102h398l-256 -410h-244z" />
    <glyph glyph-name="Tcaron" unicode="&#x164;" horiz-adv-x="1392" 
d="M1194 1946l-254 -297h-451l-253 297h358l121 -111l121 111h358zM1362 1116h-430v-1116h-471v1116h-430v420h1331v-420z" />
    <glyph glyph-name="tcaron" unicode="&#x165;" horiz-adv-x="880" 
d="M874 1178h-258l62 430h369zM850 57q-119 -82 -320 -82q-215 0 -336.5 119.5t-121.5 331.5v905h450v-266h328v-348h-328v-207q0 -69 42 -107t116 -38q104 0 170 34v-342z" />
    <glyph glyph-name="Tbar" unicode="&#x166;" horiz-adv-x="1392" 
d="M1171 430h-239v-430h-471v430h-242v320h242v366h-430v420h1331v-420h-430v-366h239v-320z" />
    <glyph glyph-name="tbar" unicode="&#x167;" horiz-adv-x="913" 
d="M874 57q-119 -82 -319 -82q-215 0 -337 119.5t-122 331.5v905h451v-266h327v-348h-327v-90h327v-154h-323q10 -52 50.5 -80t103.5 -28q103 0 169 34v-342z" />
    <glyph glyph-name="Utilde" unicode="&#x168;" horiz-adv-x="1540" 
d="M930 1628q-60 0 -164 24.5t-129 24.5q-28 0 -46 -14t-18 -39h-186q6 161 79 248.5t204 87.5q57 0 164 -24.5t124 -24.5q28 0 46 14t18 39h186q-1 -160 -74 -248t-204 -88zM113 606v930h471v-911q0 -105 48 -157t138 -52t138 52t48 157v911h471v-930q0 -289 -181 -460
t-476 -171t-476 171t-181 460z" />
    <glyph glyph-name="utilde" unicode="&#x169;" horiz-adv-x="1249" 
d="M772 1159q-60 0 -164 24.5t-129 24.5q-27 0 -45 -14t-18 -39h-187q6 161 79 248.5t204 87.5q57 0 164.5 -24.5t124.5 -24.5q27 0 45 14t18 39h187q-1 -160 -74.5 -248t-204.5 -88zM727 492v573h451v-612q0 -147 -75.5 -257t-200 -165.5t-277.5 -55.5t-277.5 55.5
t-200 165.5t-75.5 257v612h450v-573q0 -46 29 -76.5t74 -30.5t73.5 30.5t28.5 76.5z" />
    <glyph glyph-name="Umacron" unicode="&#x16a;" horiz-adv-x="1540" 
d="M383 1946h778v-297h-778v297zM113 606v930h471v-911q0 -105 48 -157t138 -52t138 52t48 157v911h471v-930q0 -289 -181 -460t-476 -171t-476 171t-181 460z" />
    <glyph glyph-name="umacron" unicode="&#x16b;" horiz-adv-x="1249" 
d="M231 1475h779v-297h-779v297zM727 492v573h451v-612q0 -147 -75.5 -257t-200 -165.5t-277.5 -55.5t-277.5 55.5t-200 165.5t-75.5 257v612h450v-573q0 -46 29 -76.5t74 -30.5t73.5 30.5t28.5 76.5z" />
    <glyph glyph-name="Ubreve" unicode="&#x16c;" horiz-adv-x="1540" 
d="M772 1888q37 0 64 21t34 57h304q-9 -153 -123 -245.5t-281 -92.5q-165 0 -277.5 93t-121.5 245h303q7 -36 34 -57t64 -21zM113 606v930h471v-911q0 -105 48 -157t138 -52t138 52t48 157v911h471v-930q0 -289 -181 -460t-476 -171t-476 171t-181 460z" />
    <glyph glyph-name="ubreve" unicode="&#x16d;" horiz-adv-x="1249" 
d="M614 1417q37 0 64.5 21t34.5 57h303q-9 -153 -123 -245.5t-281 -92.5q-165 0 -277.5 93t-121.5 245h303q7 -36 34 -57t64 -21zM727 492v573h451v-612q0 -147 -75.5 -257t-200 -165.5t-277.5 -55.5t-277.5 55.5t-200 165.5t-75.5 257v612h450v-573q0 -46 29 -76.5
t74 -30.5t73.5 30.5t28.5 76.5z" />
    <glyph glyph-name="Uring" unicode="&#x16e;" horiz-adv-x="1540" 
d="M774 2058q121 0 199 -70.5t78 -187.5t-78.5 -190.5t-198.5 -73.5t-197 71.5t-77 188.5t77 189.5t197 72.5zM690 1796q0 -37 23.5 -60.5t60.5 -23.5t60.5 24.5t23.5 61.5t-23.5 60.5t-60.5 23.5t-60.5 -24.5t-23.5 -61.5zM113 606v930h471v-911q0 -105 48 -157t138 -52
t138 52t48 157v911h471v-930q0 -289 -181 -460t-476 -171t-476 171t-181 460z" />
    <glyph glyph-name="uring" unicode="&#x16f;" horiz-adv-x="1249" 
d="M618 1653q121 0 199 -70.5t78 -187.5t-78.5 -191t-198.5 -74t-197 72t-77 189t77 189.5t197 72.5zM535 1391q0 -37 23 -60.5t60 -23.5t60.5 24.5t23.5 61.5t-23.5 60.5t-60.5 23.5q-36 0 -59.5 -24.5t-23.5 -61.5zM727 492v573h451v-612q0 -147 -75.5 -257t-200 -165.5
t-277.5 -55.5t-277.5 55.5t-200 165.5t-75.5 257v612h450v-573q0 -46 29 -76.5t74 -30.5t73.5 30.5t28.5 76.5z" />
    <glyph glyph-name="Uhungarumlaut" unicode="&#x170;" horiz-adv-x="1540" 
d="M657 1649h-276l172 297h408zM1118 1649h-276l172 297h407zM113 606v930h471v-911q0 -105 48 -157t138 -52t138 52t48 157v911h471v-930q0 -289 -181 -460t-476 -171t-476 171t-181 460z" />
    <glyph glyph-name="uhungarumlaut" unicode="&#x171;" horiz-adv-x="1249" 
d="M489 1178h-276l172 297h408zM950 1178h-276l172 297h407zM727 492v573h451v-612q0 -147 -75.5 -257t-200 -165.5t-277.5 -55.5t-277.5 55.5t-200 165.5t-75.5 257v612h450v-573q0 -46 29 -76.5t74 -30.5t73.5 30.5t28.5 76.5z" />
    <glyph glyph-name="Uogonek" unicode="&#x172;" horiz-adv-x="1540" 
d="M1102 -502q-103 -35 -164 -35q-112 0 -195 58t-100 160q-28 172 123 299q-293 2 -473 172.5t-180 457.5v926h471v-907q0 -105 48 -157t138 -52t138 52t48 157v907h471v-926q0 -192 -83.5 -335.5t-233.5 -219.5q-109 -68 -148.5 -133t-19.5 -143q7 -28 34.5 -45t59.5 -17
q29 0 66 11v-230z" />
    <glyph glyph-name="uogonek" unicode="&#x173;" horiz-adv-x="1249" 
d="M940 -502q-103 -35 -164 -35q-112 0 -195 58t-100 160q-28 171 119 294q-148 5 -266.5 61.5t-190 165t-71.5 251.5v612h450v-573q0 -46 29 -76.5t74 -30.5t73.5 30.5t28.5 76.5v573h451v-612q0 -131 -60 -232.5t-166 -163.5q-112 -67 -152 -133t-20 -145q7 -28 34.5 -45
t59.5 -17q29 0 66 11v-230z" />
    <glyph glyph-name="Wcircumflex" unicode="&#x174;" horiz-adv-x="2289" 
d="M1276 1649l-121 110l-121 -110h-338l234 297h450l234 -297h-338zM2290 1536l-766 -1587l-371 684l-387 -684l-766 1587h543l260 -580l352 631l350 -614l262 563h523z" />
    <glyph glyph-name="wcircumflex" unicode="&#x175;" horiz-adv-x="1736" 
d="M1014 1178l-121 110l-121 -110h-338l234 297h450l234 -297h-338zM1737 1065l-590 -1106l-260 424l-285 -424l-602 1106h516l162 -285l209 316l198 -318l164 287h488z" />
    <glyph glyph-name="Ycircumflex" unicode="&#x176;" horiz-adv-x="1646" 
d="M944 1649l-121 110l-121 -110h-337l233 297h451l233 -297h-338zM1647 1536l-564 -1004v-532h-471v508l-612 1028h543l299 -549l282 549h523z" />
    <glyph glyph-name="ycircumflex" unicode="&#x177;" horiz-adv-x="1308" 
d="M809 1178l-121 110l-121 -110h-338l234 297h450l234 -297h-338zM1309 1065l-791 -1577h-461l373 752l-430 825h514l160 -332l164 332h471z" />
    <glyph glyph-name="Ydieresis" unicode="&#x178;" horiz-adv-x="1646" 
d="M596 1638q-83 0 -135.5 50t-52.5 127t52.5 125.5t135.5 48.5q82 0 133 -48.5t51 -125.5t-51.5 -127t-132.5 -50zM1051 1638q-83 0 -136 50t-53 127t53 125.5t136 48.5q82 0 133 -48.5t51 -125.5t-51.5 -127t-132.5 -50zM1647 1536l-564 -1004v-532h-471v508l-612 1028
h543l299 -549l282 549h523z" />
    <glyph glyph-name="Zacute" unicode="&#x179;" horiz-adv-x="1476" 
d="M688 1946h533l-357 -297h-368zM1374 420v-420h-1354l656 1116h-580v420h1360l-645 -1116h563z" />
    <glyph glyph-name="zacute" unicode="&#x17a;" horiz-adv-x="1142" 
d="M539 1475h532l-356 -297h-369zM1071 348v-348h-1061l455 717h-385v348h1053l-463 -717h401z" />
    <glyph glyph-name="Zdotaccent" unicode="&#x17b;" horiz-adv-x="1476" 
d="M760 1645q-107 0 -177.5 59.5t-70.5 161.5q0 101 70 160t178 59q106 0 175 -59.5t69 -159.5q0 -101 -69.5 -161t-174.5 -60zM1374 420v-420h-1354l656 1116h-580v420h1360l-645 -1116h563z" />
    <glyph glyph-name="zdotaccent" unicode="&#x17c;" horiz-adv-x="1142" 
d="M598 1174q-107 0 -177.5 59.5t-70.5 161.5q0 101 70 160t178 59q106 0 175 -59.5t69 -159.5q0 -101 -69.5 -161t-174.5 -60zM1071 348v-348h-1061l455 717h-385v348h1053l-463 -717h401z" />
    <glyph glyph-name="Zcaron" unicode="&#x17d;" horiz-adv-x="1476" 
d="M1231 1946l-254 -297h-451l-254 297h359l121 -111l120 111h359zM1374 420v-420h-1354l656 1116h-580v420h1360l-645 -1116h563z" />
    <glyph glyph-name="zcaron" unicode="&#x17e;" horiz-adv-x="1142" 
d="M1073 1475l-254 -297h-450l-254 297h358l121 -111l121 111h358zM1071 348v-348h-1061l455 717h-385v348h1053l-463 -717h401z" />
    <glyph glyph-name="florin" unicode="&#x192;" horiz-adv-x="1249" 
d="M782 412q-33 -198 -163.5 -317.5t-325.5 -119.5q-147 0 -273 60v332q81 -43 166 -43q63 0 107.5 37t54.5 98l103 606q18 109 57.5 198t101 156.5t151 104.5t200.5 37q147 0 268 -66v-336q-93 49 -174 49q-65 0 -109 -39.5t-55 -103.5h287v-348h-344z" />
    <glyph glyph-name="uni0218" unicode="&#x218;" horiz-adv-x="1343" 
d="M698 1186q-106 0 -106 -64q0 -39 49 -61l344 -156q179 -82 251.5 -178t72.5 -240q0 -106 -46.5 -200t-129 -163t-202 -109t-257.5 -40q-309 0 -572 148v481q178 -128 331 -191t263 -63q99 0 99 62q0 42 -50 63l-352 154q-159 69 -234 174.5t-75 257.5q0 226 166.5 363
t441.5 137q292 0 525 -125v-463q-154 109 -292.5 161t-226.5 52zM489 -102h398l-256 -410h-244z" />
    <glyph glyph-name="uni0219" unicode="&#x219;" horiz-adv-x="985" 
d="M53 444q86 -83 197 -130.5t207 -47.5q67 0 67 41q0 13 -7.5 20.5t-29.5 16.5l-139 55q-57 23 -96 42.5t-80 49t-65.5 62.5t-40 80.5t-15.5 105.5q0 167 126 259t341 92q202 0 377 -84v-344q-80 70 -174 113.5t-160 43.5q-78 0 -78 -45q0 -16 9.5 -23.5t35.5 -17.5
l162 -69q148 -64 211.5 -130t63.5 -180q0 -96 -42.5 -170.5t-116 -119t-164 -67t-193.5 -22.5q-100 0 -205 28t-191 77v364zM311 -102h398l-256 -410h-244z" />
    <glyph glyph-name="uni021A" unicode="&#x21a;" horiz-adv-x="1392" 
d="M1362 1116h-430v-1116h-471v1116h-430v420h1331v-420zM506 -102h397l-256 -410h-244z" />
    <glyph glyph-name="uni021B" unicode="&#x21b;" horiz-adv-x="880" 
d="M850 57q-119 -82 -320 -82q-215 0 -336.5 119.5t-121.5 331.5v905h450v-266h328v-348h-328v-207q0 -69 42 -107t116 -38q104 0 170 34v-342zM309 -102h398l-256 -410h-244z" />
    <glyph glyph-name="dotlessj" unicode="&#x237;" horiz-adv-x="634" 
d="M68 -537q-179 0 -304 60v342q87 -43 191 -43q66 0 101.5 36.5t35.5 98.5v1108h451v-1145q0 -202 -134.5 -329.5t-340.5 -127.5z" />
    <glyph glyph-name="circumflex" unicode="&#x2c6;" horiz-adv-x="1370" 
d="M817 1178l-121 110l-121 -110h-337l233 297h451l233 -297h-338z" />
    <glyph glyph-name="caron" unicode="&#x2c7;" horiz-adv-x="1370" 
d="M1176 1475l-254 -297h-451l-254 297h358l121 -111l121 111h359z" />
    <glyph glyph-name="breve" unicode="&#x2d8;" horiz-adv-x="1370" 
d="M717 1417q37 0 64 21t34 57h303q-9 -153 -122.5 -245.5t-280.5 -92.5q-165 0 -278 93t-122 245h303q7 -36 34.5 -57t64.5 -21z" />
    <glyph glyph-name="dotaccent" unicode="&#x2d9;" horiz-adv-x="1042" 
d="M623 1174q-107 0 -177.5 59.5t-70.5 161.5q0 101 70 160t178 59q105 0 174 -59.5t69 -159.5q0 -101 -69 -161t-174 -60z" />
    <glyph glyph-name="ring" unicode="&#x2da;" horiz-adv-x="1370" 
d="M702 1653q121 0 199 -70.5t78 -187.5t-78.5 -191t-198.5 -74t-197 72t-77 189t77 189.5t197 72.5zM618 1391q0 -37 23.5 -60.5t60.5 -23.5t60.5 24.5t23.5 61.5t-23.5 60.5t-60.5 23.5t-60.5 -24.5t-23.5 -61.5z" />
    <glyph glyph-name="ogonek" unicode="&#x2db;" horiz-adv-x="1228" 
d="M651 -324q-14 87 15 163t92 132t144.5 96.5t180.5 67.5l27 -135q-83 -36 -131 -95.5t-29 -131.5q7 -28 34 -44t60 -16q29 0 66 11v-230q-103 -35 -164 -35q-112 0 -195 57.5t-100 159.5z" />
    <glyph glyph-name="tilde" unicode="&#x2dc;" horiz-adv-x="1370" 
d="M864 1159q-60 0 -164 24.5t-129 24.5q-27 0 -45 -14t-18 -39h-186q6 161 78.5 248.5t203.5 87.5q57 0 164.5 -24.5t124.5 -24.5q27 0 45 14t18 39h187q-1 -160 -74.5 -248t-204.5 -88z" />
    <glyph glyph-name="hungarumlaut" unicode="&#x2dd;" horiz-adv-x="1370" 
d="M528 1178h-276l172 297h407zM989 1178h-276l172 297h407z" />
    <glyph glyph-name="uni0394" unicode="&#x394;" horiz-adv-x="1673" 
d="M827 1587l846 -1587h-1673zM664 377h342l-177 342z" />
    <glyph glyph-name="uni03A9" unicode="&#x3a9;" horiz-adv-x="1445" 
d="M1370 369v-369h-602v635q76 33 116 104.5t40 163.5q0 97 -55 162t-146 65q-92 0 -146.5 -66t-54.5 -165q0 -92 37 -162.5t111 -101.5v-635h-602v369h264v69q-128 89 -199.5 220t-71.5 294q0 182 88 322t237.5 213.5t336.5 73.5q139 0 260 -42t210 -118.5t140 -190
t51 -249.5q0 -166 -73.5 -300.5t-204.5 -226.5v-65h264z" />
    <glyph glyph-name="mu" unicode="&#x3bc;" horiz-adv-x="1353" 
d="M123 -512v1577h450v-557q0 -53 27 -88t76 -35t76.5 35t27.5 88v557h451v-1065h-451v123q-96 -139 -270 -148v-487h-387z" />
    <glyph glyph-name="pi" unicode="&#x3c0;" horiz-adv-x="1576" 
d="M1511 49q-106 -74 -278 -74q-174 0 -285.5 108.5t-111.5 281.5v290h-181v-655h-450v655h-164v410h1409v-410h-164v-227q0 -51 30.5 -84t80.5 -33q59 0 114 27v-289z" />
    <glyph glyph-name="Wgrave" unicode="&#x1e80;" horiz-adv-x="2289" 
d="M662 1946h532l192 -297h-368zM2290 1536l-766 -1587l-371 684l-387 -684l-766 1587h543l260 -580l352 631l350 -614l262 563h523z" />
    <glyph glyph-name="wgrave" unicode="&#x1e81;" horiz-adv-x="1736" 
d="M395 1475h533l192 -297h-368zM1737 1065l-590 -1106l-260 424l-285 -424l-602 1106h516l162 -285l209 316l198 -318l164 287h488z" />
    <glyph glyph-name="Wacute" unicode="&#x1e82;" horiz-adv-x="2289" 
d="M1120 1946h533l-357 -297h-368zM2290 1536l-766 -1587l-371 684l-387 -684l-766 1587h543l260 -580l352 631l350 -614l262 563h523z" />
    <glyph glyph-name="wacute" unicode="&#x1e83;" horiz-adv-x="1736" 
d="M838 1475h532l-356 -297h-369zM1737 1065l-590 -1106l-260 424l-285 -424l-602 1106h516l162 -285l209 316l198 -318l164 287h488z" />
    <glyph glyph-name="Wdieresis" unicode="&#x1e84;" horiz-adv-x="2289" 
d="M932 1638q-83 0 -136 50t-53 127t53 125.5t136 48.5q82 0 133 -48.5t51 -125.5t-51.5 -127t-132.5 -50zM1386 1638q-83 0 -135.5 50t-52.5 127t52.5 125.5t135.5 48.5q82 0 133.5 -48.5t51.5 -125.5t-52 -127t-133 -50zM2290 1536l-766 -1587l-371 684l-387 -684
l-766 1587h543l260 -580l352 631l350 -614l262 563h523z" />
    <glyph glyph-name="wdieresis" unicode="&#x1e85;" horiz-adv-x="1736" 
d="M670 1167q-83 0 -136 49.5t-53 126.5t53 126t136 49q81 0 132.5 -49t51.5 -126t-51.5 -126.5t-132.5 -49.5zM1124 1167q-83 0 -135.5 49.5t-52.5 126.5t52.5 126t135.5 49q82 0 133.5 -49t51.5 -126t-52 -126.5t-133 -49.5zM1737 1065l-590 -1106l-260 424l-285 -424
l-602 1106h516l162 -285l209 316l198 -318l164 287h488z" />
    <glyph glyph-name="Ygrave" unicode="&#x1ef2;" horiz-adv-x="1646" 
d="M373 1946h532l193 -297h-369zM1647 1536l-564 -1004v-532h-471v508l-612 1028h543l299 -549l282 549h523z" />
    <glyph glyph-name="ygrave" unicode="&#x1ef3;" horiz-adv-x="1308" 
d="M201 1475h532l193 -297h-369zM1309 1065l-791 -1577h-461l373 752l-430 825h514l160 -332l164 332h471z" />
    <glyph glyph-name="endash" unicode="&#x2013;" horiz-adv-x="1024" 
d="M41 420v368h942v-368h-942z" />
    <glyph glyph-name="emdash" unicode="&#x2014;" horiz-adv-x="2048" 
d="M41 788h1966v-368h-1966v368z" />
    <glyph glyph-name="quoteleft" unicode="&#x2018;" horiz-adv-x="583" 
d="M299 1536h233l-157 -303q68 -30 107.5 -85t39.5 -128q0 -100 -64 -161.5t-169 -61.5q-101 0 -164.5 63t-63.5 160q0 81 56 184z" />
    <glyph glyph-name="quoteright" unicode="&#x2019;" horiz-adv-x="583" 
d="M285 821h-234l158 303q-68 30 -108 85t-40 128q0 100 64.5 162t169.5 62q101 0 164 -63.5t63 -160.5q0 -83 -55 -184z" />
    <glyph glyph-name="quotesinglbase" unicode="&#x201a;" horiz-adv-x="583" 
d="M285 -412h-234l158 303q-68 30 -108 85t-40 128q0 100 64.5 162t169.5 62q101 0 164 -63t63 -161q0 -83 -55 -184z" />
    <glyph glyph-name="quotedblleft" unicode="&#x201c;" horiz-adv-x="1105" 
d="M299 1536h233l-157 -303q68 -30 107.5 -85t39.5 -128q0 -100 -64 -161.5t-169 -61.5q-101 0 -164.5 63t-63.5 160q0 81 56 184zM821 1536h234l-158 -303q68 -30 107.5 -85t39.5 -128q0 -100 -64 -161.5t-169 -61.5q-101 0 -164 63t-63 160q0 83 55 184z" />
    <glyph glyph-name="quotedblright" unicode="&#x201d;" horiz-adv-x="1105" 
d="M285 821h-234l158 303q-68 30 -108 85t-40 128q0 100 64.5 162t169.5 62q101 0 164 -63.5t63 -160.5q0 -83 -55 -184zM807 821h-234l158 303q-68 30 -107.5 85t-39.5 128q0 100 64 162t169 62q101 0 164 -63.5t63 -160.5q0 -83 -55 -184z" />
    <glyph glyph-name="quotedblbase" unicode="&#x201e;" horiz-adv-x="1105" 
d="M285 -412h-234l158 303q-68 30 -108 85t-40 128q0 100 64.5 162t169.5 62q101 0 164 -63t63 -161q0 -83 -55 -184zM807 -412h-234l158 303q-68 30 -107.5 85t-39.5 128q0 100 64 162t169 62q101 0 164 -63t63 -161q0 -83 -55 -184z" />
    <glyph glyph-name="dagger" unicode="&#x2020;" horiz-adv-x="1024" 
d="M918 977h-256v-506h-300v506h-256v299h256v260h300v-260h256v-299z" />
    <glyph glyph-name="daggerdbl" unicode="&#x2021;" horiz-adv-x="1024" 
d="M918 328h-256v-328h-300v328h-256v299h256v323h-256v299h256v287h300v-287h256v-299h-256v-323h256v-299z" />
    <glyph glyph-name="bullet" unicode="&#x2022;" horiz-adv-x="1046" 
d="M524 338q-157 0 -269 110.5t-112 264.5q0 155 112 266t269 111q155 0 267 -111t112 -266q0 -154 -112 -264.5t-267 -110.5z" />
    <glyph glyph-name="ellipsis" unicode="&#x2026;" horiz-adv-x="1961" 
d="M324 -25q-117 0 -190 68.5t-73 177.5q0 108 73 176t190 68q115 0 186.5 -68t71.5 -176q0 -109 -71.5 -177.5t-186.5 -68.5zM983 -25q-117 0 -189.5 68.5t-72.5 177.5q0 108 72.5 176t189.5 68q115 0 186.5 -68t71.5 -176q0 -109 -71.5 -177.5t-186.5 -68.5zM1642 -25
q-117 0 -189.5 68.5t-72.5 177.5q0 108 72.5 176t189.5 68q115 0 187 -68t72 -176q0 -109 -72 -177.5t-187 -68.5z" />
    <glyph glyph-name="perthousand" unicode="&#x2030;" horiz-adv-x="3446" 
d="M539 653q-215 0 -356.5 129t-141.5 326q0 196 141.5 324.5t356.5 128.5q216 0 356.5 -128t140.5 -325t-140.5 -326t-356.5 -129zM1870 1536l-1032 -1536h-338l1032 1536h338zM539 920q83 0 136.5 53t53.5 135q0 80 -53.5 132t-136.5 52t-137 -52t-54 -132q0 -82 54 -135
t137 -53zM2908 -25q-215 0 -356.5 129t-141.5 326q0 196 141.5 324.5t356.5 128.5q217 0 357.5 -128t140.5 -325t-141 -326t-357 -129zM1831 -25q-215 0 -356.5 129t-141.5 326q0 196 141.5 324.5t356.5 128.5q217 0 357.5 -128t140.5 -325t-141 -326t-357 -129zM2021 430
q0 80 -53.5 132t-136.5 52t-137 -52t-54 -132q0 -82 54 -135t137 -53t136.5 53t53.5 135zM3099 430q0 80 -54 132t-137 52t-136.5 -52t-53.5 -132q0 -82 53.5 -135t136.5 -53t137 53t54 135z" />
    <glyph glyph-name="guilsinglleft" unicode="&#x2039;" horiz-adv-x="923" 
d="M401 78l-329 471l329 455h441l-330 -455l330 -471h-441z" />
    <glyph glyph-name="guilsinglright" unicode="&#x203a;" horiz-adv-x="923" 
d="M522 78h-440l330 471l-330 455h440l330 -455z" />
    <glyph glyph-name="fraction" unicode="&#x2044;" horiz-adv-x="1021" 
d="M164 0h-338l1032 1536h338z" />
    <glyph glyph-name="zerosuperior" unicode="&#x2070;" horiz-adv-x="1228" 
d="M1167 1044q0 -107 -37 -200.5t-105.5 -164t-174.5 -111t-236 -40.5q-129 0 -235 40.5t-175 110.5t-106 164t-37 201t37 201t106 164.5t175 111t235 40.5t235 -40.5t175 -111t106 -164.5t37 -201zM614 797q92 0 136.5 69.5t44.5 177.5q0 106 -45 176t-136 70t-135.5 -70
t-44.5 -176q0 -108 44 -177.5t136 -69.5z" />
    <glyph glyph-name="foursuperior" unicode="&#x2074;" horiz-adv-x="1046" 
d="M1067 717h-131v-174h-340v174h-600l317 819h336l-209 -582h156v224h340v-224h131v-237z" />
    <glyph glyph-name="Euro" unicode="&#x20ac;" horiz-adv-x="1437" 
d="M1366 68q-197 -93 -397 -93q-279 0 -481 146t-275 393h-195v205h160q-2 16 -2 51t2 51h-160v205h195q74 245 275.5 390t478.5 145q236 0 440 -115l-123 -363q-136 68 -262 68q-180 0 -281 -125h519l-68 -205h-533q-2 -14 -2 -43q0 -14 5 -59h503l-69 -205h-348
q110 -129 294 -129q168 0 324 86v-403z" />
    <glyph glyph-name="uni20B9" unicode="&#x20b9;" horiz-adv-x="1298" 
d="M1272 848h-182q-42 -236 -244 -346l328 -502h-553l-259 426h-284v328h371q147 0 198 94h-569v225h567q-49 94 -196 94h-371v369h1194v-225h-281q79 -110 99 -238h182v-225z" />
    <glyph glyph-name="uni2113" unicode="&#x2113;" horiz-adv-x="1214" 
d="M1077 78q-151 -103 -401 -103q-211 0 -357 110.5t-161 301.5q-29 -2 -84 -2h-39v289h121v364q0 236 145.5 379.5t382.5 143.5q221 0 362.5 -136.5t141.5 -355.5v-31q0 -442 -533 -585q73 -88 211 -88q107 0 211 55v-342zM698 1182q-45 0 -68.5 -35t-23.5 -86v-303
q176 88 176 276v27q0 51 -20.5 86t-63.5 35z" />
    <glyph glyph-name="trademark" unicode="&#x2122;" horiz-adv-x="1794" 
d="M1296 928l-182 141v-244h-233v731l415 -339l416 339v-731h-233v248zM41 1331v205h725v-205h-246v-506h-233v506h-246z" />
    <glyph glyph-name="estimated" unicode="&#x212e;" horiz-adv-x="1597" 
d="M1536 625h-1194q-10 0 -10 -9v-360q0 -25 16 -41q88 -93 205 -145t248 -52q139 0 262 58.5t213 161.5h106q-102 -119 -255 -188.5t-328 -69.5q-150 0 -287 52.5t-235.5 141t-157 211.5t-58.5 258t58.5 258t157 212t235.5 141.5t287 52.5q201 0 370.5 -89t268 -241.5
t98.5 -333.5v-18zM1266 672v364q0 24 -19 43q-89 89 -204 139t-242 50q-129 0 -246 -52t-205 -143q-18 -18 -18 -45v-356q0 -10 10 -10h915q9 0 9 10z" />
    <glyph glyph-name="partialdiff" unicode="&#x2202;" horiz-adv-x="1302" 
d="M1241 653q0 -197 -83 -351.5t-233.5 -240.5t-342.5 -86q-151 0 -273 57t-197 174t-75 277q0 107 41 196t112 148t167 91t206 32q98 0 176 -37q-80 269 -422 269v379q289 0 498.5 -113t317.5 -317t108 -478zM641 385q58 0 95.5 33.5t37.5 89.5q0 54 -38 86.5t-95 32.5
t-95 -32.5t-38 -86.5q0 -56 37.5 -89.5t95.5 -33.5z" />
    <glyph glyph-name="product" unicode="&#x220f;" horiz-adv-x="1617" 
d="M123 -360v1896h1372v-1896h-451v1486h-471v-1486h-450z" />
    <glyph glyph-name="summation" unicode="&#x2211;" horiz-adv-x="1259" 
d="M23 49l444 547l-444 530v410h1220v-410h-670l435 -530l-455 -547h690v-409h-1220v409z" />
    <glyph glyph-name="minus" unicode="&#x2212;" horiz-adv-x="1433" 
d="M184 608v340h1065v-340h-1065z" />
    <glyph glyph-name="uni2215" unicode="&#x2215;" horiz-adv-x="1021" 
d="M164 0h-338l1032 1536h338z" />
    <glyph glyph-name="radical" unicode="&#x221a;" horiz-adv-x="1519" 
d="M721 -41l-440 717h-308v389h586l168 -303l408 774h471z" />
    <glyph glyph-name="infinity" unicode="&#x221e;" horiz-adv-x="1957" 
d="M1436 223q-140 0 -259 61.5t-198 170.5q-79 -110 -199.5 -171t-261.5 -61q-215 0 -346 149.5t-131 375.5q0 154 57 277.5t168 196t258 72.5q140 0 257.5 -64t195.5 -177q76 112 195.5 176.5t259.5 64.5q111 0 203 -42t153.5 -115.5t95 -173.5t33.5 -215
q0 -228 -131.5 -376.5t-349.5 -148.5zM1372 905q-27 0 -49 -10t-42.5 -32t-33.5 -40t-33 -51q-3 -5 -5.5 -8.5t-4.5 -7.5q4 -6 20 -29.5t21.5 -30.5t20 -25.5t23.5 -25t23.5 -16.5t29 -13.5t30.5 -3.5q62 0 94.5 42.5t32.5 103.5q0 62 -32 104.5t-95 42.5zM586 905
q-63 0 -95 -42.5t-32 -104.5q0 -61 31.5 -103.5t93.5 -42.5q14 0 28 4t24 8t23.5 15.5t20 17.5t20 23.5t17.5 23t19 27t18 25.5q-52 82 -74 105q-44 44 -94 44z" />
    <glyph glyph-name="integral" unicode="&#x222b;" horiz-adv-x="888" 
d="M80 -537q-178 0 -303 60v358q85 -43 186 -43q67 0 104 37t37 98v1092q0 232 132 364t368 132q165 0 289 -66v-358q-90 49 -195 49q-61 0 -102 -43.5t-41 -122.5v-1120q0 -209 -126.5 -323t-348.5 -114z" />
    <glyph glyph-name="approxequal" unicode="&#x2248;" horiz-adv-x="1433" 
d="M504 1231q75 0 215 -49t215 -49q71 0 162 30t133 72v-328q-40 -39 -130.5 -67.5t-164.5 -28.5q-75 0 -215 49t-215 49q-65 0 -156.5 -33t-142.5 -81v327q43 43 135 76t164 33zM504 727q75 0 215 -49t215 -49q71 0 162 30t133 72v-328q-40 -39 -130.5 -67.5t-164.5 -28.5
q-75 0 -215 49.5t-215 49.5q-64 0 -156 -33.5t-143 -81.5v327q43 43 135 76t164 33z" />
    <glyph glyph-name="notequal" unicode="&#x2260;" horiz-adv-x="1433" 
d="M1249 354h-600l-117 -250h-256l117 250h-209v330h365l80 172h-445v330h600l117 250h256l-117 -250h209v-330h-364l-80 -172h444v-330z" />
    <glyph glyph-name="lessequal" unicode="&#x2264;" horiz-adv-x="1433" 
d="M1188 827v-360l-942 352v361l942 352v-361l-545 -172zM246 700l942 -350v-340l-942 350v340z" />
    <glyph glyph-name="greaterequal" unicode="&#x2265;" horiz-adv-x="1433" 
d="M1188 819l-942 -352v360l545 172l-545 172v361l942 -352v-361zM1188 700v-340l-942 -350v340z" />
    <glyph glyph-name="lozenge" unicode="&#x25ca;" horiz-adv-x="1224" 
d="M1255 750l-641 -791l-645 791l645 827zM770 772l-158 197l-157 -197l157 -205z" />
    <glyph glyph-name="commaaccent" unicode="&#xf6c3;" horiz-adv-x="1024" 
d="M287 -102h397l-256 -410h-244z" />
    <glyph glyph-name="CR" horiz-adv-x="0" 
 />
    <glyph glyph-name="a.alt" horiz-adv-x="1263" 
d="M1171 1065v-1065h-600q-257 0 -398.5 139t-141.5 393q0 246 148 389.5t392 143.5h600zM721 666h-98q-69 0 -102.5 -36t-33.5 -98q0 -61 33 -97t103 -36h98v267z" />
    <glyph glyph-name="a.alt2" horiz-adv-x="1206" 
d="M123 768v297h991v-1065h-717q-177 0 -277 92t-100 256t108.5 256t299.5 92h236v72h-541zM664 434h-95q-47 0 -69.5 -23.5t-22.5 -62.5q0 -86 92 -86h95v172z" />
    <glyph glyph-name="b.alt" horiz-adv-x="1263" 
d="M92 0v1536h451v-471h149q257 0 399 -139.5t142 -393.5q0 -246 -148.5 -389t-392.5 -143h-600zM543 666v-267h98q69 0 102 35.5t33 97.5q0 61 -32.5 97.5t-102.5 36.5h-98z" />
    <glyph glyph-name="d.alt" horiz-adv-x="1263" 
d="M721 1536h450v-1536h-600q-257 0 -398.5 139t-141.5 393q0 246 148 389.5t392 143.5h150v471zM721 666h-98q-69 0 -102.5 -36t-33.5 -98q0 -61 33 -97t103 -36h98v267z" />
    <glyph glyph-name="e.alt" horiz-adv-x="1232" 
d="M82 0v625q0 204 157.5 334.5t419.5 130.5q153 0 273 -39.5t195 -125.5t75 -208q0 -101 -67 -178.5t-180 -117.5t-253 -40h-178v-62h240q184 0 358 54v-373h-1040zM524 600h92q76 0 111 18t35 66q0 43 -32 66.5t-87 23.5q-53 0 -86 -32.5t-33 -77.5v-64z" />
    <glyph glyph-name="e.alt2" horiz-adv-x="1243" 
d="M92 0v1065h1079v-268q0 -207 -133 -319.5t-346 -112.5h-149v-66h587v-299h-1038zM752 786h-209v-159h78q57 0 94 31t37 85v43z" />
    <glyph glyph-name="h.alt2" horiz-adv-x="1294" 
d="M543 1536v-471h659v-1065h-450v676h-209v-676h-451v1536h451z" />
    <glyph glyph-name="m.alt2" horiz-adv-x="1884" 
d="M92 0v1065h1700v-1065h-451v676h-174v-676h-450v676h-174v-676h-451z" />
    <glyph glyph-name="n.alt2" horiz-adv-x="1294" 
d="M92 0v1065h1110v-1065h-450v676h-209v-676h-451z" />
    <glyph glyph-name="p.alt" horiz-adv-x="1263" 
d="M692 0h-149v-512h-451v1577h600q257 0 399 -139.5t142 -393.5q0 -246 -148.5 -389t-392.5 -143zM543 666v-267h98q69 0 102 35.5t33 97.5q0 61 -32.5 97.5t-102.5 36.5h-98z" />
    <glyph glyph-name="q.alt" horiz-adv-x="1263" 
d="M571 1065h600v-1577h-450v512h-150q-257 0 -398.5 139t-141.5 393q0 246 148 389.5t392 143.5zM721 666h-98q-69 0 -102.5 -36t-33.5 -98q0 -61 33 -97t103 -36h98v267z" />
    <glyph glyph-name="r.alt" horiz-adv-x="983" 
d="M993 791l-450 -342v-449h-451v1065h451v-121l196 146z" />
    <glyph glyph-name="r.alt2" horiz-adv-x="907" 
d="M92 0v1065h774v-389h-323v-676h-451z" />
    <glyph glyph-name="aacute.alt" horiz-adv-x="1263" 
d="M647 1475h533l-357 -297h-368zM1171 1065v-1065h-600q-257 0 -398.5 139t-141.5 393q0 246 148 389.5t392 143.5h600zM721 666h-98q-69 0 -102.5 -36t-33.5 -98q0 -61 33 -97t103 -36h98v267z" />
    <glyph glyph-name="acircumflex.alt" horiz-adv-x="1263" 
d="M819 1178l-121 110l-120 -110h-338l233 297h451l233 -297h-338zM1171 1065v-1065h-600q-257 0 -398.5 139t-141.5 393q0 246 148 389.5t392 143.5h600zM721 666h-98q-69 0 -102.5 -36t-33.5 -98q0 -61 33 -97t103 -36h98v267z" />
    <glyph glyph-name="adieresis.alt" horiz-adv-x="1263" 
d="M475 1167q-83 0 -135.5 49.5t-52.5 126.5t52.5 126t135.5 49q81 0 132.5 -49t51.5 -126t-51.5 -126.5t-132.5 -49.5zM930 1167q-83 0 -136 49.5t-53 126.5t53 126t136 49q81 0 132.5 -49t51.5 -126t-51.5 -126.5t-132.5 -49.5zM1171 1065v-1065h-600q-257 0 -398.5 139
t-141.5 393q0 246 148 389.5t392 143.5h600zM721 666h-98q-69 0 -102.5 -36t-33.5 -98q0 -61 33 -97t103 -36h98v267z" />
    <glyph glyph-name="agrave.alt" horiz-adv-x="1263" 
d="M283 1475h532l193 -297h-369zM1171 1065v-1065h-600q-257 0 -398.5 139t-141.5 393q0 246 148 389.5t392 143.5h600zM721 666h-98q-69 0 -102.5 -36t-33.5 -98q0 -61 33 -97t103 -36h98v267z" />
    <glyph glyph-name="aring.alt" horiz-adv-x="1263" 
d="M713 1653q120 0 198 -70.5t78 -187.5t-78 -191t-198 -74t-197.5 72t-77.5 189t77.5 189.5t197.5 72.5zM629 1391q0 -37 23.5 -60.5t60.5 -23.5t60.5 24.5t23.5 61.5t-23.5 60.5t-60.5 23.5t-60.5 -24.5t-23.5 -61.5zM1171 1065v-1065h-600q-257 0 -398.5 139t-141.5 393
q0 246 148 389.5t392 143.5h600zM721 666h-98q-69 0 -102.5 -36t-33.5 -98q0 -61 33 -97t103 -36h98v267z" />
    <glyph glyph-name="atilde.alt" horiz-adv-x="1263" 
d="M813 1159q-61 0 -165 24.5t-128 24.5q-27 0 -45 -14t-18 -39h-187q6 161 79 248.5t204 87.5q57 0 164.5 -24.5t124.5 -24.5q27 0 45 14t18 39h187q-1 -160 -74.5 -248t-204.5 -88zM1171 1065v-1065h-600q-257 0 -398.5 139t-141.5 393q0 246 148 389.5t392 143.5h600z
M721 666h-98q-69 0 -102.5 -36t-33.5 -98q0 -61 33 -97t103 -36h98v267z" />
    <glyph glyph-name="abreve.alt" horiz-adv-x="1263" 
d="M688 1417q37 0 64 21t34 57h304q-9 -153 -123 -245.5t-281 -92.5q-165 0 -277.5 93t-121.5 245h303q7 -36 34 -57t64 -21zM1171 1065v-1065h-600q-257 0 -398.5 139t-141.5 393q0 246 148 389.5t392 143.5h600zM721 666h-98q-69 0 -102.5 -36t-33.5 -98q0 -61 33 -97
t103 -36h98v267z" />
    <glyph glyph-name="amacron.alt" horiz-adv-x="1263" 
d="M281 1475h778v-297h-778v297zM1171 1065v-1065h-600q-257 0 -398.5 139t-141.5 393q0 246 148 389.5t392 143.5h600zM721 666h-98q-69 0 -102.5 -36t-33.5 -98q0 -61 33 -97t103 -36h98v267z" />
    <glyph glyph-name="aogonek.alt" horiz-adv-x="1263" 
d="M1171 -506q-103 -35 -163 -35q-112 0 -195 57.5t-100 159.5q-32 188 141 324h-283q-257 0 -398.5 139t-141.5 393q0 246 148 389.5t392 143.5h600v-1065q-83 -36 -130.5 -95.5t-28.5 -131.5q7 -28 34 -44t60 -16q28 0 65 11v-230zM721 666h-98q-69 0 -102.5 -36
t-33.5 -98q0 -61 33 -97t103 -36h98v267z" />
    <glyph glyph-name="aacute.alt2" horiz-adv-x="1206" 
d="M545 1475h532l-356 -297h-369zM123 768v297h991v-1065h-717q-177 0 -277 92t-100 256t108.5 256t299.5 92h236v72h-541zM664 434h-95q-47 0 -69.5 -23.5t-22.5 -62.5q0 -86 92 -86h95v172z" />
    <glyph glyph-name="acircumflex.alt2" horiz-adv-x="1206" 
d="M750 1178l-121 110l-121 -110h-338l233 297h451l233 -297h-337zM123 768v297h991v-1065h-717q-177 0 -277 92t-100 256t108.5 256t299.5 92h236v72h-541zM664 434h-95q-47 0 -69.5 -23.5t-22.5 -62.5q0 -86 92 -86h95v172z" />
    <glyph glyph-name="adieresis.alt2" horiz-adv-x="1206" 
d="M408 1167q-83 0 -136 49.5t-53 126.5t53 126t136 49q81 0 132.5 -49t51.5 -126t-51.5 -126.5t-132.5 -49.5zM862 1167q-83 0 -135.5 49.5t-52.5 126.5t52.5 126t135.5 49q82 0 133.5 -49t51.5 -126t-52 -126.5t-133 -49.5zM123 768v297h991v-1065h-717q-177 0 -277 92
t-100 256t108.5 256t299.5 92h236v72h-541zM664 434h-95q-47 0 -69.5 -23.5t-22.5 -62.5q0 -86 92 -86h95v172z" />
    <glyph glyph-name="agrave.alt2" horiz-adv-x="1206" 
d="M211 1475h532l193 -297h-369zM123 768v297h991v-1065h-717q-177 0 -277 92t-100 256t108.5 256t299.5 92h236v72h-541zM664 434h-95q-47 0 -69.5 -23.5t-22.5 -62.5q0 -86 92 -86h95v172z" />
    <glyph glyph-name="aring.alt2" horiz-adv-x="1206" 
d="M633 1653q120 0 198 -70.5t78 -187.5t-78 -191t-198 -74t-197.5 72t-77.5 189t77.5 189.5t197.5 72.5zM549 1391q0 -37 23.5 -60.5t60.5 -23.5t60.5 24.5t23.5 61.5t-23.5 60.5t-60.5 23.5t-60.5 -24.5t-23.5 -61.5zM123 768v297h991v-1065h-717q-177 0 -277 92t-100 256
t108.5 256t299.5 92h236v72h-541zM664 434h-95q-47 0 -69.5 -23.5t-22.5 -62.5q0 -86 92 -86h95v172z" />
    <glyph glyph-name="atilde.alt2" horiz-adv-x="1206" 
d="M786 1159q-60 0 -164 24.5t-128 24.5q-28 0 -46 -14t-18 -39h-186q6 161 78.5 248.5t203.5 87.5q57 0 164.5 -24.5t124.5 -24.5q28 0 46 14t18 39h186q-1 -160 -74.5 -248t-204.5 -88zM123 768v297h991v-1065h-717q-177 0 -277 92t-100 256t108.5 256t299.5 92h236v72
h-541zM664 434h-95q-47 0 -69.5 -23.5t-22.5 -62.5q0 -86 92 -86h95v172z" />
    <glyph glyph-name="abreve.alt2" horiz-adv-x="1206" 
d="M637 1417q37 0 64 21t34 57h303q-9 -153 -122.5 -245.5t-280.5 -92.5q-165 0 -277.5 93t-121.5 245h303q7 -36 34 -57t64 -21zM123 768v297h991v-1065h-717q-177 0 -277 92t-100 256t108.5 256t299.5 92h236v72h-541zM664 434h-95q-47 0 -69.5 -23.5t-22.5 -62.5
q0 -86 92 -86h95v172z" />
    <glyph glyph-name="amacron.alt2" horiz-adv-x="1206" 
d="M238 1475h778v-297h-778v297zM123 768v297h991v-1065h-717q-177 0 -277 92t-100 256t108.5 256t299.5 92h236v72h-541zM664 434h-95q-47 0 -69.5 -23.5t-22.5 -62.5q0 -86 92 -86h95v172z" />
    <glyph glyph-name="aogonek.alt2" horiz-adv-x="1206" 
d="M1114 -506q-103 -35 -164 -35q-112 0 -195 57.5t-100 159.5q-32 188 142 324h-400q-177 0 -277 92t-100 256t108.5 256t299.5 92h236v72h-541v297h991v-1065q-83 -36 -131 -95.5t-29 -131.5q7 -28 34.5 -44t60.5 -16q28 0 65 11v-230zM664 434h-95q-47 0 -69.5 -23.5
t-22.5 -62.5q0 -86 92 -86h95v172z" />
    <glyph glyph-name="dcaron.alt" horiz-adv-x="1644" 
d="M721 1536h450v-1536h-600q-257 0 -398.5 139t-141.5 393q0 246 148 389.5t392 143.5h150v471zM1503 1106h-258l62 430h368zM721 666h-98q-69 0 -102.5 -36t-33.5 -98q0 -61 33 -97t103 -36h98v267z" />
    <glyph glyph-name="dcroat.alt" horiz-adv-x="1263" 
d="M1335 1178h-164v-1178h-600q-257 0 -398.5 139t-141.5 393q0 246 148 389.5t392 143.5h150v113h-215v235h215v123h450v-123h164v-235zM721 666h-98q-69 0 -102.5 -36t-33.5 -98q0 -61 33 -97t103 -36h98v267z" />
    <glyph glyph-name="eacute.alt" horiz-adv-x="1232" 
d="M598 1475h532l-356 -297h-368zM82 0v625q0 204 157.5 334.5t419.5 130.5q153 0 273 -39.5t195 -125.5t75 -208q0 -101 -67 -178.5t-180 -117.5t-253 -40h-178v-62h240q184 0 358 54v-373h-1040zM524 600h92q76 0 111 18t35 66q0 43 -32 66.5t-87 23.5q-53 0 -86 -32.5
t-33 -77.5v-64z" />
    <glyph glyph-name="ecircumflex.alt" horiz-adv-x="1232" 
d="M774 1178l-121 110l-121 -110h-337l233 297h451l233 -297h-338zM82 0v625q0 204 157.5 334.5t419.5 130.5q153 0 273 -39.5t195 -125.5t75 -208q0 -101 -67 -178.5t-180 -117.5t-253 -40h-178v-62h240q184 0 358 54v-373h-1040zM524 600h92q76 0 111 18t35 66
q0 43 -32 66.5t-87 23.5q-53 0 -86 -32.5t-33 -77.5v-64z" />
    <glyph glyph-name="edieresis.alt" horiz-adv-x="1232" 
d="M436 1167q-83 0 -135.5 49.5t-52.5 126.5t52.5 126t135.5 49q82 0 133.5 -49t51.5 -126t-52 -126.5t-133 -49.5zM891 1167q-83 0 -136 49.5t-53 126.5t53 126t136 49q81 0 132.5 -49t51.5 -126t-51.5 -126.5t-132.5 -49.5zM82 0v625q0 204 157.5 334.5t419.5 130.5
q153 0 273 -39.5t195 -125.5t75 -208q0 -101 -67 -178.5t-180 -117.5t-253 -40h-178v-62h240q184 0 358 54v-373h-1040zM524 600h92q76 0 111 18t35 66q0 43 -32 66.5t-87 23.5q-53 0 -86 -32.5t-33 -77.5v-64z" />
    <glyph glyph-name="egrave.alt" horiz-adv-x="1232" 
d="M172 1475h533l192 -297h-369zM82 0v625q0 204 157.5 334.5t419.5 130.5q153 0 273 -39.5t195 -125.5t75 -208q0 -101 -67 -178.5t-180 -117.5t-253 -40h-178v-62h240q184 0 358 54v-373h-1040zM524 600h92q76 0 111 18t35 66q0 43 -32 66.5t-87 23.5q-53 0 -86 -32.5
t-33 -77.5v-64z" />
    <glyph glyph-name="ebreve.alt" horiz-adv-x="1232" 
d="M635 1417q37 0 64 21t34 57h303q-9 -153 -122.5 -245.5t-280.5 -92.5q-165 0 -278 93t-122 245h304q7 -36 34 -57t64 -21zM82 0v625q0 204 157.5 334.5t419.5 130.5q153 0 273 -39.5t195 -125.5t75 -208q0 -101 -67 -178.5t-180 -117.5t-253 -40h-178v-62h240
q184 0 358 54v-373h-1040zM524 600h92q76 0 111 18t35 66q0 43 -32 66.5t-87 23.5q-53 0 -86 -32.5t-33 -77.5v-64z" />
    <glyph glyph-name="ecaron.alt" horiz-adv-x="1232" 
d="M1133 1475l-254 -297h-451l-254 297h358l121 -111l121 111h359zM82 0v625q0 204 157.5 334.5t419.5 130.5q153 0 273 -39.5t195 -125.5t75 -208q0 -101 -67 -178.5t-180 -117.5t-253 -40h-178v-62h240q184 0 358 54v-373h-1040zM524 600h92q76 0 111 18t35 66
q0 43 -32 66.5t-87 23.5q-53 0 -86 -32.5t-33 -77.5v-64z" />
    <glyph glyph-name="edotaccent.alt" horiz-adv-x="1232" 
d="M643 1174q-107 0 -177.5 59.5t-70.5 161.5q0 101 70 160t178 59q106 0 175 -59.5t69 -159.5q0 -101 -69.5 -161t-174.5 -60zM82 0v625q0 204 157.5 334.5t419.5 130.5q153 0 273 -39.5t195 -125.5t75 -208q0 -101 -67 -178.5t-180 -117.5t-253 -40h-178v-62h240
q184 0 358 54v-373h-1040zM524 600h92q76 0 111 18t35 66q0 43 -32 66.5t-87 23.5q-53 0 -86 -32.5t-33 -77.5v-64z" />
    <glyph glyph-name="emacron.alt" horiz-adv-x="1232" 
d="M244 1475h778v-297h-778v297zM82 0v625q0 204 157.5 334.5t419.5 130.5q153 0 273 -39.5t195 -125.5t75 -208q0 -101 -67 -178.5t-180 -117.5t-253 -40h-178v-62h240q184 0 358 54v-373h-1040zM524 600h92q76 0 111 18t35 66q0 43 -32 66.5t-87 23.5q-53 0 -86 -32.5
t-33 -77.5v-64z" />
    <glyph glyph-name="eogonek.alt" horiz-adv-x="1232" 
d="M1122 -506q-103 -35 -164 -35q-112 0 -194.5 57.5t-99.5 159.5q-32 188 141 324h-723v625q0 204 157.5 334.5t419.5 130.5q153 0 273 -39.5t195 -125.5t75 -208q0 -101 -67 -178.5t-180 -117.5t-253 -40h-178v-62h240q184 0 358 54v-373q-83 -36 -130.5 -95.5
t-28.5 -131.5q7 -28 34 -44t60 -16q28 0 65 11v-230zM524 600h92q76 0 111 18t35 66q0 43 -32 66.5t-87 23.5q-53 0 -86 -32.5t-33 -77.5v-64z" />
    <glyph glyph-name="eacute.alt2" horiz-adv-x="1243" 
d="M569 1475h533l-357 -297h-368zM92 0v1065h1079v-268q0 -207 -133 -319.5t-346 -112.5h-149v-66h587v-299h-1038zM752 786h-209v-159h78q57 0 94 31t37 85v43z" />
    <glyph glyph-name="ecircumflex.alt2" horiz-adv-x="1243" 
d="M762 1178l-121 110l-121 -110h-338l234 297h450l234 -297h-338zM92 0v1065h1079v-268q0 -207 -133 -319.5t-346 -112.5h-149v-66h587v-299h-1038zM752 786h-209v-159h78q57 0 94 31t37 85v43z" />
    <glyph glyph-name="edieresis.alt2" horiz-adv-x="1243" 
d="M418 1167q-83 0 -136 49.5t-53 126.5t53 126t136 49q81 0 132.5 -49t51.5 -126t-51.5 -126.5t-132.5 -49.5zM872 1167q-83 0 -135.5 49.5t-52.5 126.5t52.5 126t135.5 49q82 0 133.5 -49t51.5 -126t-52 -126.5t-133 -49.5zM92 0v1065h1079v-268q0 -207 -133 -319.5
t-346 -112.5h-149v-66h587v-299h-1038zM752 786h-209v-159h78q57 0 94 31t37 85v43z" />
    <glyph glyph-name="egrave.alt2" horiz-adv-x="1243" 
d="M201 1475h532l193 -297h-369zM92 0v1065h1079v-268q0 -207 -133 -319.5t-346 -112.5h-149v-66h587v-299h-1038zM752 786h-209v-159h78q57 0 94 31t37 85v43z" />
    <glyph glyph-name="ebreve.alt2" horiz-adv-x="1243" 
d="M645 1417q37 0 64 21t34 57h304q-9 -153 -123 -245.5t-281 -92.5q-165 0 -277.5 93t-121.5 245h303q7 -36 34 -57t64 -21zM92 0v1065h1079v-268q0 -207 -133 -319.5t-346 -112.5h-149v-66h587v-299h-1038zM752 786h-209v-159h78q57 0 94 31t37 85v43z" />
    <glyph glyph-name="ecaron.alt2" horiz-adv-x="1243" 
d="M1122 1475l-254 -297h-450l-254 297h358l121 -111l121 111h358zM92 0v1065h1079v-268q0 -207 -133 -319.5t-346 -112.5h-149v-66h587v-299h-1038zM752 786h-209v-159h78q57 0 94 31t37 85v43z" />
    <glyph glyph-name="edotaccent.alt2" horiz-adv-x="1243" 
d="M639 1174q-107 0 -177.5 59.5t-70.5 161.5q0 101 70 160t178 59q106 0 175 -59.5t69 -159.5q0 -101 -69.5 -161t-174.5 -60zM92 0v1065h1079v-268q0 -207 -133 -319.5t-346 -112.5h-149v-66h587v-299h-1038zM752 786h-209v-159h78q57 0 94 31t37 85v43z" />
    <glyph glyph-name="emacron.alt2" horiz-adv-x="1243" 
d="M248 1475h778v-297h-778v297zM92 0v1065h1079v-268q0 -207 -133 -319.5t-346 -112.5h-149v-66h587v-299h-1038zM752 786h-209v-159h78q57 0 94 31t37 85v43z" />
    <glyph glyph-name="eogonek.alt2" horiz-adv-x="1243" 
d="M1130 -506q-103 -35 -163 -35q-112 0 -195 57.5t-100 159.5q-32 188 141 324h-721v1065h1079v-268q0 -207 -133 -319.5t-346 -112.5h-149v-66h587v-299q-83 -36 -130.5 -95.5t-28.5 -131.5q7 -28 34 -44t60 -16q28 0 65 11v-230zM752 786h-209v-159h78q57 0 94 31t37 85
v43z" />
    <glyph glyph-name="hbar.alt2" horiz-adv-x="1294" 
d="M760 1178h-217v-113h659v-1065h-450v676h-209v-676h-451v1178h-164v235h164v123h451v-123h217v-235z" />
    <glyph glyph-name="hcircumflex.alt2" horiz-adv-x="1294" 
d="M788 1649l-120 110l-121 -110h-338l233 297h451l233 -297h-338zM543 1536v-471h659v-1065h-450v676h-209v-676h-451v1536h451z" />
    <glyph glyph-name="i.dot" horiz-adv-x="634" 
d="M319 1174q-107 0 -177 59.5t-70 161.5t69.5 160.5t177.5 58.5q106 0 175 -59.5t69 -159.5q0 -101 -69.5 -161t-174.5 -60zM92 0v1065h451v-1065h-451z" />
    <glyph glyph-name="ntilde.alt2" horiz-adv-x="1294" 
d="M827 1159q-61 0 -164 24.5t-128 24.5q-28 0 -46 -14t-18 -39h-186q6 161 78.5 248.5t203.5 87.5q57 0 164.5 -24.5t124.5 -24.5q28 0 46 14t18 39h186q-1 -160 -74.5 -248t-204.5 -88zM92 0v1065h1110v-1065h-450v676h-209v-676h-451z" />
    <glyph glyph-name="nacute.alt2" horiz-adv-x="1294" 
d="M584 1475h532l-356 -297h-369zM92 0v1065h1110v-1065h-450v676h-209v-676h-451z" />
    <glyph glyph-name="ncaron.alt2" horiz-adv-x="1294" 
d="M1139 1475l-254 -297h-451l-254 297h359l120 -111l121 111h359zM92 0v1065h1110v-1065h-450v676h-209v-676h-451z" />
    <glyph glyph-name="ncommaaccent.alt2" horiz-adv-x="1294" 
d="M92 0v1065h1110v-1065h-450v676h-209v-676h-451zM461 -102h397l-256 -410h-244z" />
    <glyph glyph-name="racute.alt" horiz-adv-x="983" 
d="M440 1475h533l-357 -297h-368zM993 791l-450 -342v-449h-451v1065h451v-121l196 146z" />
    <glyph glyph-name="rcaron.alt" horiz-adv-x="983" 
d="M1006 1475l-254 -297h-451l-254 297h359l120 -111l121 111h359zM993 791l-450 -342v-449h-451v1065h451v-121l196 146z" />
    <glyph glyph-name="rcommaaccent.alt" horiz-adv-x="983" 
d="M993 791l-450 -342v-449h-451v1065h451v-121l196 146zM164 -102h397l-256 -410h-244z" />
    <glyph glyph-name="racute.alt2" horiz-adv-x="907" 
d="M426 1475h532l-356 -297h-369zM92 0v1065h774v-389h-323v-676h-451z" />
    <glyph glyph-name="rcaron.alt2" horiz-adv-x="907" 
d="M1001 1475l-253 -297h-451l-254 297h358l121 -111l121 111h358zM92 0v1065h774v-389h-323v-676h-451z" />
    <glyph glyph-name="rcommaaccent.alt2" horiz-adv-x="907" 
d="M92 0v1065h774v-389h-323v-676h-451zM176 -102h397l-256 -410h-243z" />
    <glyph glyph-name="caron.alt" horiz-adv-x="491" 
d="M258 1106h-258l61 430h369z" />
    <glyph glyph-name="revcommaaccent" horiz-adv-x="1370" 
d="M768 1587h244l-103 -409h-397z" />
    <glyph glyph-name="ampersand.alt" horiz-adv-x="1687" 
d="M72 481q0 185 108 316t285 182l-375 557h1112v-348h-368l325 -486q58 145 70 322h407q-41 -431 -227 -692l221 -332h-510l-39 57q-184 -82 -405 -82q-123 0 -231.5 32.5t-192 94.5t-132 159.5t-48.5 219.5zM522 504q0 -71 50 -113.5t126 -42.5q89 0 168 31l-198 297
q-65 -12 -105.5 -58.5t-40.5 -113.5z" />
    <glyph glyph-name="Omega" horiz-adv-x="1445" 
d="M1370 369v-369h-602v635q76 33 116 104.5t40 163.5q0 97 -55 162t-146 65q-92 0 -146.5 -66t-54.5 -165q0 -92 37 -162.5t111 -101.5v-635h-602v369h264v69q-128 89 -199.5 220t-71.5 294q0 182 88 322t237.5 213.5t336.5 73.5q139 0 260 -42t210 -118.5t140 -190
t51 -249.5q0 -166 -73.5 -300.5t-204.5 -226.5v-65h264z" />
    <glyph glyph-name="Delta" horiz-adv-x="1673" 
d="M827 1587l846 -1587h-1673zM664 377h342l-177 342z" />
    </font>
</defs>
</svg>
