<?xml version="1.0" standalone="no"?>
<!DOCTYPE svg PUBLIC "-//W3C//DTD SVG 1.1//EN" "http://www.w3.org/Graphics/SVG/1.1/DTD/svg11.dtd" >
<svg xmlns="http://www.w3.org/2000/svg" xmlns:xlink="http://www.w3.org/1999/xlink" version="1.1">
<metadata>
Created by FontForge 20170731 at Sat May 21 23:58:18 2022
 By Aleksey,,,
Copyright 2017 Indian Type Foundry
</metadata>
<defs>
<font id="Ekster-Bold" horiz-adv-x="1306" >
  <font-face 
    font-family="Ekster"
    font-weight="700"
    font-stretch="normal"
    units-per-em="2048"
    panose-1="2 0 8 0 3 0 0 2 0 0"
    ascent="1638"
    descent="-410"
    x-height="1032"
    cap-height="1536"
    bbox="-254 -676 2972 1997"
    underline-thickness="184"
    underline-position="-470"
    unicode-range="U+0020-FB02"
  />
<missing-glyph horiz-adv-x="1138" 
d="M154 0v1536h831v-1536h-831zM246 86h647v1364h-647v-1364zM788 629l-73 -74l-142 141l-141 -141l-72 74l142 141l-142 139l72 74l141 -141l142 141l73 -74l-141 -139z" />
    <glyph glyph-name="fi" unicode="fi" horiz-adv-x="1271" 
d="M698 786h-274v-786h-285v1128q0 191 112 309.5t302 118.5q79 0 145 -14v-256q-49 14 -106 14q-76 0 -122 -43.5t-46 -119.5v-105h274v-246zM989 1174q-71 0 -120.5 45.5t-49.5 115.5t49.5 116t120.5 46q70 0 118 -46t48 -116t-48 -115.5t-118 -45.5zM846 0v1032h284
v-1032h-284z" />
    <glyph glyph-name="fl" unicode="fl" horiz-adv-x="1271" 
d="M698 786h-274v-786h-285v1128q0 191 112 309.5t302 118.5q79 0 145 -14v-256q-49 14 -106 14q-76 0 -122 -43.5t-46 -119.5v-105h274v-246zM846 0v1536h284v-1536h-284z" />
    <glyph glyph-name=".notdef" horiz-adv-x="1138" 
d="M154 0v1536h831v-1536h-831zM246 86h647v1364h-647v-1364zM788 629l-73 -74l-142 141l-141 -141l-72 74l142 141l-142 139l72 74l141 -141l142 141l73 -74l-141 -139z" />
    <glyph glyph-name=".null" horiz-adv-x="0" 
 />
    <glyph glyph-name="nonmarkingreturn" horiz-adv-x="682" 
 />
    <glyph glyph-name="space" unicode=" " horiz-adv-x="450" 
 />
    <glyph glyph-name="exclam" unicode="!" horiz-adv-x="626" 
d="M152 1536h323v-483l-55 -551h-211l-57 551v483zM315 334q80 0 131.5 -50t51.5 -128q0 -79 -51.5 -127.5t-131.5 -48.5q-82 0 -133 48.5t-51 127.5q0 78 51.5 128t132.5 50z" />
    <glyph glyph-name="quotedbl" unicode="&#x22;" horiz-adv-x="813" 
d="M98 967l-6 569h260l-6 -569h-248zM467 967l-8 569h262l-6 -569h-248z" />
    <glyph glyph-name="numbersign" unicode="#" horiz-adv-x="1447" 
d="M612 0l101 350h-211l-101 -350h-258l101 350h-205v244h274l103 362h-234v244h303l97 336h258l-97 -336h211l97 336h258l-97 -336h197v-244h-266l-103 -362h226v-244h-295l-101 -350h-258zM571 594h211l103 362h-211z" />
    <glyph glyph-name="dollar" unicode="$" horiz-adv-x="1153" 
d="M1100 451q0 -167 -98 -285t-261 -162v-274h-266v254q-220 17 -395 137v346q250 -223 485 -223q92 0 152.5 38.5t60.5 112.5q0 58 -29 92.5t-112 79.5l-275 138q-133 67 -200.5 161t-67.5 240q0 168 105 284t276 152v262h266v-256q156 -19 281 -96v-326q-208 168 -404 168
q-91 0 -150.5 -41.5t-59.5 -117.5q0 -52 31.5 -89.5t95.5 -72.5l301 -152q134 -68 199 -156t65 -214z" />
    <glyph glyph-name="percent" unicode="%" horiz-adv-x="2097" 
d="M492 760q-186 0 -307.5 113.5t-121.5 285.5t121.5 284.5t307.5 112.5q184 0 305 -112.5t121 -284.5t-121 -285.5t-305 -113.5zM561 0h-258l1235 1536h258zM492 1354q-87 0 -144 -55.5t-57 -139.5q0 -85 57.5 -140.5t143.5 -55.5q85 0 141.5 55.5t56.5 140.5
q0 84 -56.5 139.5t-141.5 55.5zM1606 -20q-185 0 -305.5 113t-120.5 286q0 170 121 282.5t305 112.5t305 -112.5t121 -282.5q0 -173 -120.5 -286t-305.5 -113zM1804 379q0 83 -56 137.5t-142 54.5t-142.5 -54.5t-56.5 -137.5q0 -86 56.5 -142.5t142.5 -56.5t142 56.5
t56 142.5z" />
    <glyph glyph-name="ampersand" unicode="&#x26;" horiz-adv-x="1525" 
d="M1208 0l-161 156q-186 -176 -449 -176q-144 0 -259.5 52t-185 155.5t-69.5 242.5q0 133 71.5 239t194.5 175q-112 144 -112 313q0 183 129 293.5t323 110.5q188 0 311 -112t123 -294h-272q-3 68 -49.5 112t-116.5 44q-69 0 -115.5 -43.5t-46.5 -114.5q0 -45 13.5 -85.5
t44.5 -81.5t53 -65.5t67 -69.5l3 -3l3 -3l3.5 -3.5l3.5 -3.5l291 -287q45 112 75 268h277q-46 -270 -156 -465l359 -354h-353zM383 451q0 -96 65 -154.5t164 -58.5q143 0 250 96l-340 328l-4 -3q-64 -33 -99.5 -86.5t-35.5 -121.5z" />
    <glyph glyph-name="quotesingle" unicode="'" horiz-adv-x="444" 
d="M98 967l-6 569h260l-6 -569h-248z" />
    <glyph glyph-name="parenleft" unicode="(" horiz-adv-x="854" 
d="M115 625q0 236 80 437t237.5 347t374.5 209v-275q-195 -76 -297 -261.5t-102 -456.5t102 -457t297 -262v-275q-217 63 -374.5 209t-237.5 347t-80 438z" />
    <glyph glyph-name="parenright" unicode=")" horiz-adv-x="854" 
d="M739 625q0 -237 -80.5 -438.5t-238.5 -347t-375 -208.5v275q196 76 298.5 262t102.5 457q0 270 -103 456t-298 262v275q217 -63 375 -209t238.5 -347t80.5 -437z" />
    <glyph glyph-name="asterisk" unicode="*" horiz-adv-x="970" 
d="M371 1536h229l-55 -301l233 199l115 -199l-289 -102l289 -105l-115 -199l-233 199l55 -301h-229l55 301l-233 -199l-115 199l287 102l-287 105l112 199l236 -201z" />
    <glyph glyph-name="plus" unicode="+" horiz-adv-x="1273" 
d="M1104 657h-346v-346h-244v346h-346v246h346v346h244v-346h346v-246z" />
    <glyph glyph-name="comma" unicode="," horiz-adv-x="550" 
d="M231 -334h-190l170 316q-121 49 -121 172q0 80 54 129t135 49q84 0 136 -53t52 -136q0 -82 -55 -170z" />
    <glyph glyph-name="hyphen" unicode="-" horiz-adv-x="845" 
d="M102 475v250h641v-250h-641z" />
    <glyph glyph-name="period" unicode="." horiz-adv-x="550" 
d="M276 -20q-82 0 -133 48.5t-51 127.5q0 78 51.5 128t132.5 50q79 0 130 -50t51 -128q0 -79 -50.5 -127.5t-130.5 -48.5z" />
    <glyph glyph-name="slash" unicode="/" horiz-adv-x="1181" 
d="M264 -367h-276l930 2050h278z" />
    <glyph glyph-name="zero" unicode="0" horiz-adv-x="1351" 
d="M1276 772q0 -163 -39 -305.5t-113 -251.5t-189.5 -172t-258.5 -63t-258.5 63t-189.5 172t-113 251.5t-39 305.5q0 161 39.5 302.5t113.5 249t189 170t258 62.5t258 -62.5t189 -170t113.5 -249t39.5 -302.5zM676 252q77 0 134.5 40.5t90.5 113.5t48.5 164t15.5 202
q0 109 -16 198.5t-49 160.5t-90 111t-134 40t-134 -40t-91 -111t-50 -161t-16 -198q0 -111 16 -202t49.5 -164t91 -113.5t134.5 -40.5z" />
    <glyph glyph-name="one" unicode="1" horiz-adv-x="804" 
d="M360 0v1143l-321 -142v293l618 285v-1579h-297z" />
    <glyph glyph-name="two" unicode="2" horiz-adv-x="1148" 
d="M1106 260v-260h-1092l533 700q6 8 28 36.5t28 37.5t24.5 34t24.5 35.5t20.5 33t19.5 35.5t14 33.5t12 36.5t6 36t3 39q0 102 -70.5 164.5t-175.5 62.5q-185 0 -370 -178v315q196 135 421 135q219 0 362.5 -126.5t143.5 -335.5q0 -131 -58.5 -254t-174.5 -275l-238 -305
h539z" />
    <glyph glyph-name="three" unicode="3" horiz-adv-x="1128" 
d="M1063 449q0 -90 -31.5 -167t-86.5 -132t-130 -93.5t-161.5 -57.5t-180.5 -19q-217 0 -418 114v297q210 -151 430 -151q115 0 191 57t76 160t-77 156t-190 53q-79 0 -186 -17v240l182 33q211 39 211 200q0 79 -56 123.5t-138 44.5q-214 0 -394 -162v287q188 141 431 141
q198 0 329 -114t131 -303q0 -192 -172 -316q240 -129 240 -374z" />
    <glyph glyph-name="four" unicode="4" horiz-adv-x="1296" 
d="M1260 334h-173v-334h-292v334h-779l553 1202h305l-421 -948h342v405h292v-405h173v-254z" />
    <glyph glyph-name="five" unicode="5" horiz-adv-x="1142" 
d="M1079 489q0 -157 -78 -274t-209 -176t-294 -59q-220 0 -396 102v291q163 -135 373 -135q127 0 210 67.5t83 186.5q0 117 -80.5 184t-204.5 67q-175 0 -340 -73v866h873v-260h-588v-311q75 16 145 16q221 0 363.5 -137.5t142.5 -354.5z" />
    <glyph glyph-name="six" unicode="6" horiz-adv-x="1216" 
d="M1167 492q0 -154 -75 -271.5t-202 -179t-286 -61.5q-156 0 -281 60t-198.5 175.5t-73.5 267.5q0 185 123 373l449 680h331l-376 -563q38 6 73 6q224 0 370 -135t146 -352zM604 248q113 0 185.5 69t72.5 181q0 107 -73 174t-183 67q-103 0 -172 -57q-82 -69 -82 -186
q0 -108 71.5 -178t180.5 -70z" />
    <glyph glyph-name="seven" unicode="7" horiz-adv-x="1157" 
d="M1153 1536l-750 -1536h-319l616 1270h-661v266h1114z" />
    <glyph glyph-name="eight" unicode="8" horiz-adv-x="1230" 
d="M614 -20q-151 0 -274.5 52.5t-200 160.5t-76.5 253q0 123 64 223.5t176 159.5q-81 58 -126.5 140t-45.5 178t38.5 174t105 129t153.5 78.5t186 27.5q134 0 243 -46.5t176 -141t67 -221.5q0 -95 -45.5 -177.5t-126.5 -140.5q113 -59 176 -159t63 -224q0 -110 -44 -199.5
t-120.5 -147t-176 -88.5t-212.5 -31zM811 1122q0 82 -55.5 131.5t-141.5 49.5q-85 0 -139.5 -49.5t-54.5 -131.5q0 -84 55 -135t139 -51q86 0 141.5 51t55.5 135zM862 463q0 98 -71.5 156.5t-176.5 58.5q-104 0 -174.5 -58.5t-70.5 -156.5q0 -100 70 -157.5t175 -57.5
q107 0 177.5 57.5t70.5 157.5z" />
    <glyph glyph-name="nine" unicode="9" horiz-adv-x="1216" 
d="M1042 678l-448 -678h-332l375 557q-50 -4 -72 -4q-224 0 -370 135t-146 354q0 154 74.5 272t202 180t286.5 62q156 0 281 -60.5t198.5 -176.5t73.5 -268q0 -185 -123 -373zM612 1286q-113 0 -185.5 -69t-72.5 -181q0 -107 73 -174t183 -67q129 0 201 88q53 62 53 155
q0 108 -71.5 178t-180.5 70z" />
    <glyph glyph-name="colon" unicode=":" horiz-adv-x="587" 
d="M295 698q-82 0 -133 49t-51 127q0 80 51 129.5t133 49.5q80 0 130 -50t50 -129q0 -78 -50 -127t-130 -49zM295 -20q-82 0 -133 48.5t-51 127.5q0 78 51.5 128t132.5 50q79 0 129.5 -50t50.5 -128q0 -79 -50 -127.5t-130 -48.5z" />
    <glyph glyph-name="semicolon" unicode=";" horiz-adv-x="587" 
d="M307 698q-82 0 -133 49t-51 127q0 80 51 129.5t133 49.5q80 0 131 -50t51 -129q0 -78 -51 -127t-131 -49zM252 -334h-191l170 316q-122 50 -122 172q0 80 54.5 129t135.5 49q84 0 136 -53t52 -136q0 -76 -55 -170z" />
    <glyph glyph-name="less" unicode="&#x3c;" horiz-adv-x="1273" 
d="M1038 535v-265l-805 383v258l805 383v-262l-559 -248z" />
    <glyph glyph-name="equal" unicode="=" horiz-adv-x="1273" 
d="M168 866v242h936v-242h-936zM168 416v241h936v-241h-936z" />
    <glyph glyph-name="greater" unicode="&#x3e;" horiz-adv-x="1273" 
d="M1038 653l-805 -383v265l560 249l-560 248v262l805 -383v-258z" />
    <glyph glyph-name="question" unicode="?" horiz-adv-x="1110" 
d="M725 719l-107 -33l-16 -184h-231l-27 346l213 55q203 59 203 215q0 86 -60 134t-151 48q-103 0 -169.5 -59t-66.5 -158h-278q0 215 145.5 344t376.5 129q216 0 355 -113.5t139 -305.5q0 -150 -86.5 -259t-239.5 -159zM485 -20q-82 0 -133 48.5t-51 127.5q0 78 51.5 128
t132.5 50q79 0 130 -50t51 -128q0 -79 -50.5 -127.5t-130.5 -48.5z" />
    <glyph glyph-name="at" unicode="@" horiz-adv-x="1841" 
d="M1298 -186q-183 -88 -407 -88q-175 0 -326 59.5t-257.5 164.5t-167 255t-60.5 325q0 179 63.5 331t175 257t266 164t333.5 59q238 0 428.5 -95.5t301.5 -275.5t111 -413q0 -102 -21 -188.5t-64 -154.5t-115.5 -107t-167.5 -39q-88 0 -153.5 38.5t-98.5 106.5
q-91 -166 -279 -166q-127 0 -224 62t-147.5 167.5t-50.5 235.5q0 133 49.5 240.5t147 172t225.5 64.5q161 0 250 -123v103h240v-627q0 -52 35 -83.5t90 -31.5q42 0 72.5 19.5t47 49t26.5 76t12.5 88t2.5 97.5q0 200 -94.5 354t-257 236t-366.5 82q-205 0 -368 -87.5
t-255 -247t-92 -364.5q0 -306 192 -500t496 -194q218 0 407 94v-116zM1108 514q0 104 -59 174t-158 70q-96 0 -151.5 -70t-55.5 -174q0 -101 55.5 -168t151.5 -67q98 0 157.5 66.5t59.5 168.5z" />
    <glyph glyph-name="A" unicode="A" horiz-adv-x="1544" 
d="M1194 0l-104 233h-652l-106 -233h-326l762 1579l768 -1579h-342zM547 473h434l-217 479z" />
    <glyph glyph-name="B" unicode="B" horiz-adv-x="1318" 
d="M145 0v1536h547q202 0 333.5 -116t131.5 -310q0 -184 -153 -291q115 -58 180 -153.5t65 -223.5q0 -136 -68.5 -237.5t-183 -153t-258.5 -51.5h-594zM657 1276h-215v-363h215q91 0 144 50.5t53 134.5q0 83 -53 130.5t-144 47.5zM731 659h-289v-401h289q102 0 157.5 52.5
t55.5 144.5q0 94 -56 149t-157 55z" />
    <glyph glyph-name="C" unicode="C" horiz-adv-x="1402" 
d="M844 -20q-227 0 -404.5 101.5t-274.5 280.5t-97 406q0 228 100 407.5t280 280t410 100.5q268 0 469 -141v-340q-92 97 -215 149t-258 52q-216 0 -347.5 -143.5t-131.5 -362.5q0 -224 138 -368t361 -144q276 0 461 162v-318q-218 -122 -491 -122z" />
    <glyph glyph-name="D" unicode="D" horiz-adv-x="1568" 
d="M145 0v1536h566q169 0 315 -56.5t250.5 -156t164.5 -243t60 -310.5q0 -224 -100.5 -400t-279.5 -273t-404 -97h-572zM713 1266h-273v-998h273q218 0 350.5 137.5t132.5 364.5q0 224 -133 360t-350 136z" />
    <glyph glyph-name="E" unicode="E" horiz-adv-x="1202" 
d="M145 0v1536h967v-268h-670v-348h586v-267h-586v-389h693v-264h-990z" />
    <glyph glyph-name="F" unicode="F" horiz-adv-x="1116" 
d="M145 0v1536h924v-268h-627v-412h541v-268h-541v-588h-297z" />
    <glyph glyph-name="G" unicode="G" horiz-adv-x="1560" 
d="M1456 154q-297 -174 -610 -174q-227 0 -405 101t-275.5 281t-97.5 408t102.5 407.5t285.5 279t414 99.5q293 0 514 -151v-332q-99 103 -229.5 157t-277.5 54q-221 0 -361.5 -143.5t-140.5 -368.5q0 -224 139 -369t358 -145q166 0 291 61v306h-346v239h639v-710z" />
    <glyph glyph-name="H" unicode="H" horiz-adv-x="1587" 
d="M1145 0v672h-703v-672h-297v1536h297v-602h703v602h295v-1536h-295z" />
    <glyph glyph-name="I" unicode="I" horiz-adv-x="589" 
d="M145 0v1536h297v-1536h-297z" />
    <glyph glyph-name="J" unicode="J" horiz-adv-x="952" 
d="M322 -20q-77 0 -154 21.5t-129 55.5v289q63 -46 137.5 -70t132.5 -24q103 0 157 54t54 157v1073h297v-1051q0 -248 -129 -376.5t-366 -128.5z" />
    <glyph glyph-name="K" unicode="K" horiz-adv-x="1431" 
d="M1075 0l-450 668l-183 -209v-459h-297v1536h297v-678l580 678h367l-564 -641l607 -895h-357z" />
    <glyph glyph-name="L" unicode="L" horiz-adv-x="1155" 
d="M1108 266v-266h-963v1536h297v-1270h666z" />
    <glyph glyph-name="M" unicode="M" horiz-adv-x="1925" 
d="M963 248l-521 573v-821h-297v1579l826 -909l807 909v-1579h-297v811z" />
    <glyph glyph-name="N" unicode="N" horiz-adv-x="1585" 
d="M1440 -43l-998 948v-905h-297v1579l998 -948v905h297v-1579z" />
    <glyph glyph-name="O" unicode="O" horiz-adv-x="1724" 
d="M1657 772q0 -172 -59 -319.5t-163.5 -251t-252.5 -162.5t-320 -59q-230 0 -411 100.5t-282 281t-101 410.5q0 227 101.5 406.5t282.5 278.5t410 99q171 0 318.5 -58t252.5 -160.5t164.5 -249t59.5 -316.5zM862 258q217 0 353.5 146t136.5 368q0 219 -137 361.5
t-353 142.5t-352.5 -142.5t-136.5 -361.5q0 -222 136 -368t353 -146z" />
    <glyph glyph-name="P" unicode="P" horiz-adv-x="1271" 
d="M145 0v1536h482q166 0 297.5 -68t206.5 -194t75 -289t-76 -288.5t-208.5 -193t-298.5 -67.5h-181v-436h-297zM618 1274h-176v-578h176q128 0 205.5 81t77.5 208t-77.5 208t-205.5 81z" />
    <glyph glyph-name="Q" unicode="Q" horiz-adv-x="1724" 
d="M1657 772q0 -201 -79 -366.5t-222 -272.5l327 -358h-380l-207 235q-111 -30 -234 -30q-230 0 -411 100.5t-282 281t-101 410.5q0 227 101.5 406.5t282.5 278.5t410 99q171 0 318.5 -58t252.5 -160.5t164.5 -249t59.5 -316.5zM373 772q0 -222 136 -368t353 -146t353.5 146
t136.5 368q0 219 -137 361.5t-353 142.5t-352.5 -142.5t-136.5 -361.5z" />
    <glyph glyph-name="R" unicode="R" horiz-adv-x="1310" 
d="M145 0v1536h500q246 0 397.5 -140t151.5 -372q0 -160 -80 -279t-213 -180l375 -565h-352l-326 512h-156v-512h-297zM625 1274h-183v-502h183q124 0 194 67.5t70 184.5q0 116 -70 183t-194 67z" />
    <glyph glyph-name="S" unicode="S" horiz-adv-x="1167" 
d="M625 1298q-91 0 -150 -42.5t-59 -122.5q0 -53 31.5 -90t95.5 -70l299 -154q136 -68 201 -155t65 -213q0 -214 -152 -342.5t-393 -128.5q-285 0 -477 143v346q120 -112 246.5 -169.5t234.5 -57.5q94 0 156.5 39.5t62.5 113.5q0 60 -29.5 95.5t-113.5 78.5l-272 140
q-134 65 -202.5 158.5t-68.5 238.5q0 205 147.5 327.5t373.5 122.5q239 0 405 -104v-328q-216 174 -401 174z" />
    <glyph glyph-name="T" unicode="T" horiz-adv-x="1296" 
d="M1266 1268h-469v-1268h-297v1268h-469v268h1235v-268z" />
    <glyph glyph-name="U" unicode="U" horiz-adv-x="1552" 
d="M135 623v913h297v-911q0 -170 93 -269.5t251 -99.5q155 0 248.5 100t93.5 269v911h297v-913q0 -291 -177 -467t-464 -176q-290 0 -464.5 175.5t-174.5 467.5z" />
    <glyph glyph-name="V" unicode="V" horiz-adv-x="1546" 
d="M1536 1536l-768 -1579l-756 1579h344l420 -930l428 930h332z" />
    <glyph glyph-name="W" unicode="W" horiz-adv-x="2332" 
d="M2318 1536l-721 -1579l-432 946l-436 -946l-715 1579h340l383 -893l437 936l432 -932l383 889h329z" />
    <glyph glyph-name="X" unicode="X" horiz-adv-x="1525" 
d="M1145 0l-393 563l-379 -563h-353l558 817l-502 719h358l338 -485l326 485h350l-502 -735l557 -801h-358z" />
    <glyph glyph-name="Y" unicode="Y" horiz-adv-x="1478" 
d="M1468 1536l-569 -973v-563h-297v535l-594 1001h342l395 -692l394 692h329z" />
    <glyph glyph-name="Z" unicode="Z" horiz-adv-x="1357" 
d="M1292 260v-260h-1265l798 1274h-735v262h1235l-790 -1276h757z" />
    <glyph glyph-name="bracketleft" unicode="[" horiz-adv-x="784" 
d="M164 -369v1987h575v-256h-301v-1475h301v-256h-575z" />
    <glyph glyph-name="backslash" unicode="\" horiz-adv-x="1181" 
d="M918 -367l-930 2050h276l932 -2050h-278z" />
    <glyph glyph-name="bracketright" unicode="]" horiz-adv-x="784" 
d="M621 -369h-576v256h301v1475h-301v256h576v-1987z" />
    <glyph glyph-name="asciicircum" unicode="^" horiz-adv-x="1273" 
d="M889 696l-252 592l-254 -592h-248l375 840h254l375 -840h-250z" />
    <glyph glyph-name="underscore" unicode="_" horiz-adv-x="1069" 
d="M0 -373v221h1069v-221h-1069z" />
    <glyph glyph-name="grave" unicode="`" horiz-adv-x="1099" 
d="M147 1458h353l194 -280h-250z" />
    <glyph glyph-name="a" unicode="a" 
d="M883 0v115q-119 -135 -301 -135q-225 0 -370.5 150.5t-145.5 379.5q0 236 145 389.5t371 153.5q181 0 301 -140v119h284v-1032h-284zM616 788q-113 0 -186.5 -78t-73.5 -198q0 -117 73.5 -192.5t186.5 -75.5q116 0 191.5 75.5t75.5 192.5q0 120 -75.5 198t-191.5 78z" />
    <glyph glyph-name="b" unicode="b" 
d="M1241 520q0 -234 -145.5 -387t-370.5 -153q-177 0 -301 133v-113h-285v1536h285v-614q125 131 301 131q224 0 370 -151t146 -382zM690 244q112 0 185 78t73 198q0 115 -74 191.5t-184 76.5q-115 0 -190.5 -76t-75.5 -192q0 -120 75 -198t191 -78z" />
    <glyph glyph-name="c" unicode="c" horiz-adv-x="1036" 
d="M358 518q0 -124 82.5 -201t210.5 -77q172 0 289 86v-273q-138 -73 -326 -73q-243 0 -395.5 148t-152.5 388q0 239 156.5 388t400.5 149q171 0 311 -82v-293q-121 115 -289 115q-126 0 -206.5 -76t-80.5 -199z" />
    <glyph glyph-name="d" unicode="d" 
d="M883 0v113q-120 -133 -301 -133q-225 0 -370.5 150.5t-145.5 379.5q0 235 145.5 389t370.5 154q179 0 301 -138v621h284v-1536h-284zM616 788q-113 0 -186.5 -78t-73.5 -198q0 -117 73.5 -192.5t186.5 -75.5q116 0 191.5 75.5t75.5 192.5q0 120 -75.5 198t-191.5 78z" />
    <glyph glyph-name="e" unicode="e" horiz-adv-x="1161" 
d="M1092 545q0 -52 -7 -127h-714q29 -92 107 -143.5t188 -51.5q177 0 340 94v-243q-161 -94 -365 -94q-250 0 -412.5 142.5t-162.5 381.5q0 157 64.5 281.5t184.5 196t275 71.5q222 0 362 -143t140 -365zM590 819q-88 0 -145 -55t-78 -146h432q-13 90 -67 145.5t-142 55.5z
" />
    <glyph glyph-name="f" unicode="f" horiz-adv-x="794" 
d="M797 786h-373v-786h-285v1128q0 191 112 309.5t302 118.5q153 0 262 -65v-260q-104 69 -225 69q-75 0 -120.5 -43t-45.5 -118v-107h373v-246z" />
    <glyph glyph-name="g" unicode="g" 
d="M1167 12q0 -259 -149 -401.5t-412 -142.5q-223 0 -411 112v287q90 -71 195 -107t202 -36q139 0 215 70t76 204v113q-121 -131 -301 -131q-225 0 -370.5 150.5t-145.5 381.5q0 234 145.5 387.5t370.5 153.5q179 0 301 -135v114h284v-1020zM883 512q0 120 -75.5 198
t-191.5 78q-113 0 -186.5 -78t-73.5 -198q0 -117 73.5 -192.5t186.5 -75.5q116 0 191.5 75.5t75.5 192.5z" />
    <glyph glyph-name="h" unicode="h" horiz-adv-x="1228" 
d="M424 520v-520h-285v1536h285v-616q120 133 305 133q173 0 276 -118.5t103 -297.5v-637h-285v569q0 211 -176 211q-101 0 -162 -75t-61 -185z" />
    <glyph glyph-name="i" unicode="i" horiz-adv-x="559" 
d="M281 1174q-71 0 -120.5 45.5t-49.5 115.5t49.5 116t120.5 46q70 0 117.5 -46t47.5 -116t-47.5 -115.5t-117.5 -45.5zM137 0v1032h285v-1032h-285z" />
    <glyph glyph-name="j" unicode="j" horiz-adv-x="561" 
d="M283 1174q-73 0 -121.5 45.5t-48.5 115.5t49 116t121 46q70 0 118 -46t48 -116t-48 -115.5t-118 -45.5zM61 -532q-108 0 -192 40v242q67 -31 129 -31q61 0 101 37.5t40 100.5v1175h285v-1177q0 -176 -98.5 -281.5t-264.5 -105.5z" />
    <glyph glyph-name="k" unicode="k" horiz-adv-x="1175" 
d="M834 0l-281 420l-129 -139v-281h-285v1536h285v-905l369 401h331l-381 -409l433 -623h-342z" />
    <glyph glyph-name="l" unicode="l" horiz-adv-x="563" 
d="M139 0v1536h285v-1536h-285z" />
    <glyph glyph-name="m" unicode="m" horiz-adv-x="1841" 
d="M424 520v-520h-285v1032h285v-106q114 127 285 127q95 0 169 -41t121 -115q127 156 338 156q174 0 278.5 -118.5t104.5 -297.5v-637h-284v571q0 209 -166 209q-91 0 -145 -75t-54 -185v-520h-285v571q0 209 -165 209q-89 0 -143 -75t-54 -185z" />
    <glyph glyph-name="n" unicode="n" horiz-adv-x="1228" 
d="M424 520v-520h-285v1032h285v-112q120 133 305 133q173 0 276 -118.5t103 -297.5v-637h-285v569q0 211 -176 211q-101 0 -162 -75t-61 -185z" />
    <glyph glyph-name="o" unicode="o" horiz-adv-x="1239" 
d="M625 -20q-243 0 -401 152t-158 390q0 153 73 274.5t200.5 189t285.5 67.5q237 0 393 -150t156 -381q0 -237 -155.5 -389.5t-393.5 -152.5zM883 518q0 117 -73 193.5t-187 76.5q-116 0 -191.5 -76.5t-75.5 -193.5q0 -120 75.5 -197t191.5 -77q114 0 187 77t73 197z" />
    <glyph glyph-name="p" unicode="p" 
d="M725 -20q-177 0 -301 133v-625h-285v1544h285v-110q125 131 301 131q224 0 370 -151t146 -382q0 -234 -145.5 -387t-370.5 -153zM948 520q0 115 -74 191.5t-184 76.5q-115 0 -190.5 -76t-75.5 -192q0 -120 75 -198t191 -78q112 0 185 78t73 198z" />
    <glyph glyph-name="q" unicode="q" 
d="M1167 1032v-1544h-284v623q-121 -131 -301 -131q-225 0 -370.5 150.5t-145.5 379.5q0 235 145.5 389t370.5 154q179 0 301 -135v114h284zM616 788q-113 0 -186.5 -78t-73.5 -198q0 -117 73.5 -192.5t186.5 -75.5q116 0 191.5 75.5t75.5 192.5q0 120 -75.5 198t-191.5 78z
" />
    <glyph glyph-name="r" unicode="r" horiz-adv-x="784" 
d="M424 459v-459h-285v1032h285v-174q131 195 352 195v-318q-144 33 -248 -42.5t-104 -233.5z" />
    <glyph glyph-name="s" unicode="s" horiz-adv-x="911" 
d="M82 354q164 -161 352 -161q63 0 98 22t35 61q0 27 -15.5 47.5t-53.5 38.5l-191 82q-74 32 -121 67t-76.5 92t-29.5 134q0 145 105.5 230.5t281.5 85.5q192 0 326 -84v-267q-76 65 -160 102.5t-154 37.5q-55 0 -87 -21t-32 -57q0 -32 17.5 -50.5t62.5 -37.5l197 -86
q110 -48 161.5 -111t51.5 -155q0 -159 -117 -251.5t-303 -92.5q-203 0 -348 94v280z" />
    <glyph glyph-name="t" unicode="t" horiz-adv-x="825" 
d="M776 49q-101 -69 -262 -69q-192 0 -293.5 98.5t-101.5 316.5v936h284v-299h367v-246h-367v-387q0 -80 45 -119.5t117 -39.5q112 0 211 61v-252z" />
    <glyph glyph-name="u" unicode="u" horiz-adv-x="1181" 
d="M784 446v586h285v-577q0 -217 -131.5 -346t-347.5 -129q-215 0 -347 129t-132 346v577h284v-586q0 -97 53 -149.5t142 -52.5t141.5 52.5t52.5 149.5z" />
    <glyph glyph-name="v" unicode="v" horiz-adv-x="1112" 
d="M1112 1032l-553 -1073l-559 1073h330l241 -506l242 506h299z" />
    <glyph glyph-name="w" unicode="w" horiz-adv-x="1648" 
d="M1649 1032l-484 -1073l-327 594l-336 -594l-502 1073h326l215 -487l295 526l294 -528l216 489h303z" />
    <glyph glyph-name="x" unicode="x" horiz-adv-x="1153" 
d="M799 0l-242 322l-229 -322h-322l389 539l-370 493h344l213 -284l204 284h320l-365 -497l402 -535h-344z" />
    <glyph glyph-name="y" unicode="y" horiz-adv-x="1120" 
d="M1120 1032l-743 -1544h-297l340 711l-420 833h332l243 -512l246 512h299z" />
    <glyph glyph-name="z" unicode="z" horiz-adv-x="995" 
d="M934 246v-246h-903l479 786h-426v246h868l-465 -786h447z" />
    <glyph glyph-name="braceleft" unicode="{" horiz-adv-x="888" 
d="M844 -369h-142q-84 0 -155.5 22t-127.5 65t-88 113.5t-32 160.5v295q0 99 -45 164t-135 71v221q85 4 132.5 57.5t47.5 137.5v297q0 96 32 170.5t89.5 120.5t133 69t165.5 23h125v-248h-78q-182 0 -182 -184v-232q0 -272 -185 -329q185 -63 185 -332v-232q0 -96 44.5 -139
t137.5 -43h78v-248z" />
    <glyph glyph-name="bar" unicode="|" horiz-adv-x="505" 
d="M383 -676h-260v2376h260v-2376z" />
    <glyph glyph-name="braceright" unicode="}" horiz-adv-x="888" 
d="M45 -369v248h78q93 0 137.5 43t44.5 139v232q0 270 184 332q-184 57 -184 329v232q0 184 -182 184h-78v248h125q90 0 165.5 -23t133 -69t89.5 -120.5t32 -170.5v-297q0 -84 47.5 -137.5t132.5 -57.5v-221q-90 -6 -135 -71t-45 -164v-295q0 -90 -32 -160.5t-88 -113.5
t-128 -65t-156 -22h-141z" />
    <glyph glyph-name="asciitilde" unicode="~" horiz-adv-x="1273" 
d="M436 969q74 0 202 -48.5t202 -48.5q72 0 140.5 29t119.5 80v-260q-49 -46 -117.5 -71t-142.5 -25t-202 48t-202 48q-136 0 -264 -121v260q51 51 121 80t143 29z" />
    <glyph glyph-name="uni00A0" unicode="&#xa0;" horiz-adv-x="450" 
 />
    <glyph glyph-name="exclamdown" unicode="&#xa1;" horiz-adv-x="626" 
d="M309 698q-79 0 -129.5 50.5t-50.5 128.5t50 127t130 49q82 0 133.5 -49t51.5 -127t-52 -128.5t-133 -50.5zM150 -471v453l57 546h211l57 -546v-453h-325z" />
    <glyph glyph-name="cent" unicode="&#xa2;" horiz-adv-x="1034" 
d="M938 53q-96 -51 -219 -67v-199h-266v211q-179 45 -284.5 183.5t-105.5 334.5q0 195 108 333t288 183v207h266v-195q115 -19 207 -73v-293q-121 115 -289 115q-126 0 -206.5 -76t-80.5 -199q0 -124 82.5 -201t210.5 -77q172 0 289 86v-273z" />
    <glyph glyph-name="sterling" unicode="&#xa3;" horiz-adv-x="1220" 
d="M1174 258v-258h-1117v258h166v367h-166v233h166v133q0 253 152 409t391 156q176 0 336 -86v-282q-155 102 -307 102q-133 0 -210 -80.5t-77 -222.5v-129h461v-233h-461v-367h666z" />
    <glyph glyph-name="currency" unicode="&#xa4;" horiz-adv-x="1253" 
d="M633 317q-134 0 -240 56l-155 -156l-166 166l145 147q-67 109 -67 248q0 128 61 234l-139 137l168 168l141 -141q116 61 252 61q133 0 241 -57l140 139l166 -166l-131 -131q65 -111 65 -244q0 -139 -72 -254l136 -135l-168 -168l-148 148q-107 -52 -229 -52zM416 778
q0 -94 61.5 -155.5t155.5 -61.5q92 0 152.5 61.5t60.5 155.5t-60.5 154.5t-152.5 60.5q-94 0 -155.5 -60.5t-61.5 -154.5z" />
    <glyph glyph-name="yen" unicode="&#xa5;" horiz-adv-x="1501" 
d="M1364 346h-455v-346h-297v346h-460v221h442l-94 160h-348v219h217l-349 590h345l393 -686l389 686h332l-346 -590h231v-219h-358l-95 -160h453v-221z" />
    <glyph glyph-name="brokenbar" unicode="&#xa6;" horiz-adv-x="505" 
d="M383 696h-260v1004h260v-1004zM383 -676h-260v1004h260v-1004z" />
    <glyph glyph-name="section" unicode="&#xa7;" horiz-adv-x="1341" 
d="M1104 -90q0 -136 -70.5 -236.5t-188.5 -151t-267 -50.5q-245 0 -428 108v322q238 -174 446 -174q83 0 139 39t56 110q0 96 -109 150l-422 217q-108 54 -159.5 130t-51.5 183q0 126 64.5 212.5t175.5 129.5q-51 85 -51 191q0 136 70.5 237t188 152t265.5 51
q242 0 430 -109v-323q-245 176 -449 176q-81 0 -137.5 -40t-56.5 -112q0 -94 108 -151l422 -215q213 -107 213 -316q0 -124 -64 -210.5t-175 -131.5q51 -85 51 -188zM408 492l419 -209q51 -25 102.5 -14.5t76.5 61.5q27 55 5.5 102t-79.5 76l-406 201q-54 31 -110 23
t-82 -62q-27 -57 -5.5 -103t79.5 -75z" />
    <glyph glyph-name="dieresis" unicode="&#xa8;" horiz-adv-x="1089" 
d="M348 1178q-68 0 -109.5 39.5t-41.5 105.5t41.5 106.5t109.5 40.5q67 0 108.5 -40.5t41.5 -106.5t-41 -105.5t-109 -39.5zM760 1178q-68 0 -110 39.5t-42 105.5t42 106.5t110 40.5q66 0 107.5 -40.5t41.5 -106.5t-41.5 -105.5t-107.5 -39.5z" />
    <glyph glyph-name="copyright" unicode="&#xa9;" horiz-adv-x="1716" 
d="M856 -20q-229 0 -408.5 99.5t-279.5 278.5t-100 408q0 228 100 408t280 281t408 101q172 0 319.5 -58.5t251.5 -162.5t163 -251t59 -318q0 -228 -101 -407.5t-282 -279t-410 -99.5zM856 84q197 0 351.5 87t239.5 242.5t85 352.5q0 198 -85 353.5t-239 243t-352 87.5
q-197 0 -351 -88t-238.5 -243.5t-84.5 -352.5q0 -300 188 -491t486 -191zM891 291q-212 0 -342.5 136.5t-130.5 346.5q0 207 133.5 341t343.5 134q134 0 279 -71v-228q-122 86 -263 86q-112 0 -184 -73t-72 -187q0 -120 70.5 -196t185.5 -76q142 0 267 80v-226
q-147 -67 -287 -67z" />
    <glyph glyph-name="ordfeminine" unicode="&#xaa;" horiz-adv-x="978" 
d="M655 805v78q-87 -97 -213 -97q-161 0 -265.5 108.5t-104.5 272.5q0 168 104.5 277.5t265.5 109.5q127 0 213 -96v82h205v-735h-205zM467 979q82 0 135 53.5t53 136.5q0 85 -53 141t-135 56q-81 0 -133.5 -56t-52.5 -141q0 -83 52 -136.5t134 -53.5zM135 668h725v-150
h-725v150z" />
    <glyph glyph-name="guillemotleft" unicode="&#xab;" horiz-adv-x="1122" 
d="M336 125l-281 430l281 416h291l-283 -416l283 -430h-291zM766 125l-281 430l281 416h291l-283 -416l283 -430h-291z" />
    <glyph glyph-name="logicalnot" unicode="&#xac;" horiz-adv-x="1273" 
d="M172 1108h928v-604h-246v360h-682v244z" />
    <glyph glyph-name="uni00AD" unicode="&#xad;" horiz-adv-x="0" 
 />
    <glyph glyph-name="registered" unicode="&#xae;" horiz-adv-x="1716" 
d="M856 -20q-229 0 -408.5 99.5t-279.5 278.5t-100 408q0 228 100 408t280 281t408 101q172 0 319.5 -58.5t251.5 -162.5t163 -251t59 -318q0 -228 -101 -407.5t-282 -279t-410 -99.5zM856 84q197 0 351.5 87t239.5 242.5t85 352.5q0 198 -85 353.5t-239 243t-352 87.5
q-197 0 -351 -88t-238.5 -243.5t-84.5 -352.5q0 -300 188 -491t486 -191zM537 309v934h364q145 0 241.5 -85t96.5 -226q0 -94 -45.5 -165.5t-124.5 -109.5l205 -348h-266l-166 314h-76v-314h-229zM879 1047h-113v-228h113q51 0 85.5 28.5t34.5 84.5q0 57 -33.5 86t-86.5 29z
" />
    <glyph glyph-name="macron" unicode="&#xaf;" horiz-adv-x="1099" 
d="M238 1427h632v-219h-632v219z" />
    <glyph glyph-name="degree" unicode="&#xb0;" horiz-adv-x="980" 
d="M492 760q-186 0 -307.5 113t-121.5 286q0 172 121.5 284.5t307.5 112.5t306 -112.5t120 -284.5q0 -173 -120 -286t-306 -113zM690 1159q0 84 -56.5 139.5t-141.5 55.5q-87 0 -144 -55.5t-57 -139.5q0 -85 57.5 -140.5t143.5 -55.5q85 0 141.5 55.5t56.5 140.5z" />
    <glyph glyph-name="plusminus" unicode="&#xb1;" horiz-adv-x="1273" 
d="M1104 881h-346v-254h-244v254h-346v241h346v254h244v-254h346v-241zM168 289v241h936v-241h-936z" />
    <glyph glyph-name="twosuperior" unicode="&#xb2;" horiz-adv-x="905" 
d="M856 750v-193h-833l385 444q75 90 98.5 135t23.5 95q0 55 -39 89t-100 34q-137 0 -293 -123v223q142 102 340 102q151 0 245.5 -80t94.5 -206q0 -72 -30.5 -143.5t-98.5 -157.5l-178 -219h385z" />
    <glyph glyph-name="threesuperior" unicode="&#xb3;" horiz-adv-x="894" 
d="M817 838q0 -98 -60 -168.5t-153 -102.5t-207 -32q-157 0 -307 67v217q137 -90 307 -90q76 0 126 28t50 89t-48.5 91t-121.5 30q-64 0 -172 -19v182l160 29q65 12 103 38t38 77q0 45 -35.5 67.5t-90.5 22.5q-150 0 -285 -109v211q131 90 319 90q138 0 231 -69.5t93 -192.5
q0 -132 -123 -211q81 -37 128.5 -99.5t47.5 -145.5z" />
    <glyph glyph-name="acute" unicode="&#xb4;" horiz-adv-x="1099" 
d="M616 1458h353l-295 -280h-252z" />
    <glyph glyph-name="paragraph" unicode="&#xb6;" horiz-adv-x="1230" 
d="M825 1536v-1536h-284v637q-219 1 -346 126t-127 322q0 198 133 324.5t360 126.5h264zM961 0v1536h122v-1536h-122z" />
    <glyph glyph-name="periodcentered" unicode="&#xb7;" horiz-adv-x="915" 
d="M457 684q-71 0 -119.5 46.5t-48.5 115.5q0 71 49 117.5t119 46.5t118 -46.5t48 -117.5q0 -69 -48.5 -115.5t-117.5 -46.5z" />
    <glyph glyph-name="cedilla" unicode="&#xb8;" horiz-adv-x="1032" 
d="M768 -317q0 -95 -82 -147t-205 -52q-74 0 -155 33v139q76 -39 141 -39q40 0 66 18t26 50t-24.5 50.5t-61.5 18.5t-80 -16l-39 43l113 270h182l-86 -186q91 -6 148 -52.5t57 -129.5z" />
    <glyph glyph-name="onesuperior" unicode="&#xb9;" horiz-adv-x="630" 
d="M258 553v711l-225 -86v206l452 183v-1014h-227z" />
    <glyph glyph-name="ordmasculine" unicode="&#xba;" horiz-adv-x="948" 
d="M479 1554q172 0 283.5 -106.5t111.5 -276.5q0 -171 -111.5 -281t-283.5 -110q-178 0 -292.5 108.5t-114.5 282.5q0 172 115.5 277.5t291.5 105.5zM668 1169q0 86 -53 140.5t-138 54.5q-88 0 -142 -53.5t-54 -141.5q0 -87 54.5 -143.5t141.5 -56.5q85 0 138 56.5t53 143.5
zM117 518v150h725v-150h-725z" />
    <glyph glyph-name="guillemotright" unicode="&#xbb;" horiz-adv-x="1122" 
d="M784 125h-288l280 430l-280 416h288l283 -416zM354 125h-288l280 430l-280 416h288l283 -416z" />
    <glyph glyph-name="onequarter" unicode="&#xbc;" horiz-adv-x="2338" 
d="M424 553v711l-225 -86v206l452 183v-1014h-227zM692 0h-258l1170 1536h258zM2204 195h-115v-199h-229v199h-566l400 788h237l-293 -600h222v256h229v-256h115v-188z" />
    <glyph glyph-name="onehalf" unicode="&#xbd;" horiz-adv-x="2338" 
d="M424 553v711l-225 -86v206l452 183v-1014h-227zM676 0h-258l1169 1536h258zM2220 197v-193h-834l386 445q75 90 98.5 134.5t23.5 94.5q0 55 -39 89t-100 34q-137 0 -293 -123v223q144 103 340 103q150 0 245 -80.5t95 -206.5q0 -72 -30.5 -143.5t-98.5 -157.5l-178 -219
h385z" />
    <glyph glyph-name="threequarters" unicode="&#xbe;" horiz-adv-x="2351" 
d="M862 838q0 -98 -60 -168.5t-153 -102.5t-207 -32q-157 0 -307 67v217q137 -90 307 -90q76 0 126 28t50 89t-48 91t-121 30q-65 0 -173 -19v182l160 29q65 12 103.5 38t38.5 77q0 45 -36 67.5t-91 22.5q-150 0 -285 -109v211q131 90 319 90q138 0 231 -69.5t93 -192.5
q0 -132 -123 -211q81 -37 128.5 -99.5t47.5 -145.5zM711 0h-258l1169 1536h258zM2224 195h-115v-199h-229v199h-565l399 788h238l-293 -600h221v256h229v-256h115v-188z" />
    <glyph glyph-name="questiondown" unicode="&#xbf;" horiz-adv-x="1083" 
d="M625 1053q80 0 131 -49t51 -127t-51.5 -128.5t-130.5 -50.5q-81 0 -132 50.5t-51 128.5t50.5 127t132.5 49zM1073 -51q0 -214 -146 -343.5t-376 -129.5q-216 0 -355 114t-139 308q0 149 87 257t239 156l106 33l17 184h231l27 -346l-213 -55q-203 -58 -203 -213
q0 -85 60.5 -133.5t150.5 -48.5q103 0 169.5 59.5t66.5 157.5h278z" />
    <glyph glyph-name="Agrave" unicode="&#xc0;" horiz-adv-x="1544" 
d="M371 1929h352l195 -280h-250zM1194 0l-104 233h-652l-106 -233h-326l762 1579l768 -1579h-342zM547 473h434l-217 479z" />
    <glyph glyph-name="Aacute" unicode="&#xc1;" horiz-adv-x="1544" 
d="M793 1929h352l-295 -280h-252zM1194 0l-104 233h-652l-106 -233h-326l762 1579l768 -1579h-342zM547 473h434l-217 479z" />
    <glyph glyph-name="Acircumflex" unicode="&#xc2;" horiz-adv-x="1544" 
d="M899 1649l-137 118l-135 -118h-267l248 280h307l250 -280h-266zM1194 0l-104 233h-652l-106 -233h-326l762 1579l768 -1579h-342zM547 473h434l-217 479z" />
    <glyph glyph-name="Atilde" unicode="&#xc3;" horiz-adv-x="1544" 
d="M883 1651q-48 0 -131 28.5t-103 28.5q-34 0 -56 -19t-22 -49h-163q-5 129 56 208t167 79q47 0 139 -28.5t107 -28.5q33 0 54 18.5t21 48.5h164q9 -127 -55.5 -206.5t-177.5 -79.5zM1194 0l-104 233h-652l-106 -233h-326l762 1579l768 -1579h-342zM547 473h434l-217 479z
" />
    <glyph glyph-name="Adieresis" unicode="&#xc4;" horiz-adv-x="1544" 
d="M559 1649q-68 0 -109.5 39.5t-41.5 105.5t42 107t109 41t108.5 -41t41.5 -107t-41 -105.5t-109 -39.5zM971 1649q-68 0 -110 39.5t-42 105.5t42 107t110 41q66 0 107.5 -41t41.5 -107t-41.5 -105.5t-107.5 -39.5zM1194 0l-104 233h-652l-106 -233h-326l762 1579
l768 -1579h-342zM547 473h434l-217 479z" />
    <glyph glyph-name="Aring" unicode="&#xc5;" horiz-adv-x="1544" 
d="M438 233l-106 -233h-326l733 1518q-90 8 -146 66t-56 147q0 96 63 156.5t162 60.5q100 0 164.5 -59t64.5 -154q0 -87 -53.5 -145.5t-140.5 -69.5l739 -1520h-342l-104 233h-652zM684 1731q0 -34 21.5 -55t56.5 -21q37 0 58.5 21.5t21.5 56.5t-22 56t-58 21
q-37 0 -57.5 -21t-20.5 -58zM547 473h434l-217 479z" />
    <glyph glyph-name="AE" unicode="&#xc6;" horiz-adv-x="2103" 
d="M1047 0v254h-535l-172 -254h-334l1047 1536h960v-268h-670v-348h586v-267h-586v-389h693v-264h-989zM1047 496v557l-375 -557h375z" />
    <glyph glyph-name="Ccedilla" unicode="&#xc7;" horiz-adv-x="1402" 
d="M1065 -317q0 -95 -82 -147t-205 -52q-74 0 -155 33v139q76 -39 141 -39q40 0 66 18t26 50t-24.5 50.5t-61.5 18.5t-80 -16l-39 43l86 205q-199 23 -351.5 129t-235 275.5t-82.5 377.5q0 228 100 407.5t280 280t410 100.5q268 0 469 -141v-340q-92 97 -215 149t-258 52
q-216 0 -347.5 -143.5t-131.5 -362.5q0 -224 138 -368t361 -144q276 0 461 162v-318q-187 -104 -422 -120l-53 -117q91 -6 148 -52.5t57 -129.5z" />
    <glyph glyph-name="Egrave" unicode="&#xc8;" horiz-adv-x="1202" 
d="M299 1929h352l195 -280h-250zM145 0v1536h967v-268h-670v-348h586v-267h-586v-389h693v-264h-990z" />
    <glyph glyph-name="Eacute" unicode="&#xc9;" horiz-adv-x="1202" 
d="M655 1929h353l-295 -280h-252zM145 0v1536h967v-268h-670v-348h586v-267h-586v-389h693v-264h-990z" />
    <glyph glyph-name="Ecircumflex" unicode="&#xca;" horiz-adv-x="1202" 
d="M768 1649l-137 118l-135 -118h-267l248 280h307l250 -280h-266zM145 0v1536h967v-268h-670v-348h586v-267h-586v-389h693v-264h-990z" />
    <glyph glyph-name="Edieresis" unicode="&#xcb;" horiz-adv-x="1202" 
d="M438 1649q-68 0 -109.5 39.5t-41.5 105.5t42 107t109 41t108.5 -41t41.5 -107t-41 -105.5t-109 -39.5zM850 1649q-68 0 -110 39.5t-42 105.5t42 107t110 41q66 0 107.5 -41t41.5 -107t-41.5 -105.5t-107.5 -39.5zM145 0v1536h967v-268h-670v-348h586v-267h-586v-389h693
v-264h-990z" />
    <glyph glyph-name="Igrave" unicode="&#xcc;" horiz-adv-x="589" 
d="M-86 1929h352l195 -280h-250zM145 0v1536h297v-1536h-297z" />
    <glyph glyph-name="Iacute" unicode="&#xcd;" horiz-adv-x="589" 
d="M324 1929h352l-295 -280h-252zM145 0v1536h297v-1536h-297z" />
    <glyph glyph-name="Icircumflex" unicode="&#xce;" horiz-adv-x="589" 
d="M434 1649l-137 118l-135 -118h-266l247 280h308l249 -280h-266zM145 0v1536h297v-1536h-297z" />
    <glyph glyph-name="Idieresis" unicode="&#xcf;" horiz-adv-x="589" 
d="M98 1649q-68 0 -109.5 39.5t-41.5 105.5t42 107t109 41t108.5 -41t41.5 -107t-41 -105.5t-109 -39.5zM510 1649q-68 0 -110 39.5t-42 105.5t42 107t110 41q66 0 107.5 -41t41.5 -107t-41.5 -105.5t-107.5 -39.5zM145 0v1536h297v-1536h-297z" />
    <glyph glyph-name="Eth" unicode="&#xd0;" horiz-adv-x="1652" 
d="M39 893h190v643h566q169 0 315 -56.5t250.5 -156t164.5 -243t60 -310.5q0 -224 -100.5 -400t-279.5 -273t-404 -97h-572v647h-190v246zM903 647h-379v-379h273q218 0 350.5 137.5t132.5 364.5q0 224 -133 360t-350 136h-273v-373h379v-246z" />
    <glyph glyph-name="Ntilde" unicode="&#xd1;" horiz-adv-x="1585" 
d="M946 1649q-48 0 -130.5 28.5t-102.5 28.5q-34 0 -56 -19t-22 -49h-164q-5 129 56 208t167 79q47 0 139 -28.5t107 -28.5q33 0 54.5 18.5t21.5 48.5h164q9 -127 -55.5 -206.5t-178.5 -79.5zM1440 -43l-998 948v-905h-297v1579l998 -948v905h297v-1579z" />
    <glyph glyph-name="Ograve" unicode="&#xd2;" horiz-adv-x="1724" 
d="M498 1929h352l194 -280h-249zM1657 772q0 -172 -59 -319.5t-163.5 -251t-252.5 -162.5t-320 -59q-230 0 -411 100.5t-282 281t-101 410.5q0 227 101.5 406.5t282.5 278.5t410 99q171 0 318.5 -58t252.5 -160.5t164.5 -249t59.5 -316.5zM862 258q217 0 353.5 146
t136.5 368q0 219 -137 361.5t-353 142.5t-352.5 -142.5t-136.5 -361.5q0 -222 136 -368t353 -146z" />
    <glyph glyph-name="Oacute" unicode="&#xd3;" horiz-adv-x="1724" 
d="M879 1929h352l-295 -280h-252zM1657 772q0 -172 -59 -319.5t-163.5 -251t-252.5 -162.5t-320 -59q-230 0 -411 100.5t-282 281t-101 410.5q0 227 101.5 406.5t282.5 278.5t410 99q171 0 318.5 -58t252.5 -160.5t164.5 -249t59.5 -316.5zM862 258q217 0 353.5 146
t136.5 368q0 219 -137 361.5t-353 142.5t-352.5 -142.5t-136.5 -361.5q0 -222 136 -368t353 -146z" />
    <glyph glyph-name="Ocircumflex" unicode="&#xd4;" horiz-adv-x="1724" 
d="M999 1649l-137 118l-135 -118h-266l248 280h307l250 -280h-267zM1657 772q0 -172 -59 -319.5t-163.5 -251t-252.5 -162.5t-320 -59q-230 0 -411 100.5t-282 281t-101 410.5q0 227 101.5 406.5t282.5 278.5t410 99q171 0 318.5 -58t252.5 -160.5t164.5 -249t59.5 -316.5z
M862 258q217 0 353.5 146t136.5 368q0 219 -137 361.5t-353 142.5t-352.5 -142.5t-136.5 -361.5q0 -222 136 -368t353 -146z" />
    <glyph glyph-name="Otilde" unicode="&#xd5;" horiz-adv-x="1724" 
d="M983 1649q-48 0 -130.5 28.5t-102.5 28.5q-34 0 -56 -19t-22 -49h-164q-5 129 56 208t167 79q47 0 139 -28.5t107 -28.5q33 0 54.5 18.5t21.5 48.5h164q9 -127 -55.5 -206.5t-178.5 -79.5zM1657 772q0 -172 -59 -319.5t-163.5 -251t-252.5 -162.5t-320 -59
q-230 0 -411 100.5t-282 281t-101 410.5q0 227 101.5 406.5t282.5 278.5t410 99q171 0 318.5 -58t252.5 -160.5t164.5 -249t59.5 -316.5zM862 258q217 0 353.5 146t136.5 368q0 219 -137 361.5t-353 142.5t-352.5 -142.5t-136.5 -361.5q0 -222 136 -368t353 -146z" />
    <glyph glyph-name="Odieresis" unicode="&#xd6;" horiz-adv-x="1724" 
d="M657 1649q-68 0 -109.5 39.5t-41.5 105.5t42 107t109 41t108.5 -41t41.5 -107t-41 -105.5t-109 -39.5zM1069 1649q-68 0 -109.5 39.5t-41.5 105.5t42 107t109 41q66 0 108 -41t42 -107q0 -65 -41.5 -105t-108.5 -40zM1657 772q0 -172 -59 -319.5t-163.5 -251
t-252.5 -162.5t-320 -59q-230 0 -411 100.5t-282 281t-101 410.5q0 227 101.5 406.5t282.5 278.5t410 99q171 0 318.5 -58t252.5 -160.5t164.5 -249t59.5 -316.5zM862 258q217 0 353.5 146t136.5 368q0 219 -137 361.5t-353 142.5t-352.5 -142.5t-136.5 -361.5
q0 -222 136 -368t353 -146z" />
    <glyph glyph-name="multiply" unicode="&#xd7;" horiz-adv-x="1273" 
d="M926 309l-289 287l-289 -289l-170 168l291 291l-291 289l168 166l289 -289l291 289l168 -168l-289 -289l287 -289z" />
    <glyph glyph-name="Oslash" unicode="&#xd8;" horiz-adv-x="1818" 
d="M1696 772q0 -172 -59 -319.5t-163.5 -251t-252.5 -162.5t-320 -59q-267 0 -463 133l-106 -113h-314l254 266q-166 208 -166 506q0 170 59.5 316.5t164 249t252.5 160.5t319 58q271 0 473 -139l113 119h311l-260 -272q158 -207 158 -492zM412 772q0 -158 73 -285l682 715
q-117 74 -266 74q-216 0 -352.5 -142.5t-136.5 -361.5zM1391 772q0 146 -68 266l-680 -712q117 -68 258 -68q217 0 353.5 146t136.5 368z" />
    <glyph glyph-name="Ugrave" unicode="&#xd9;" horiz-adv-x="1552" 
d="M430 1929h352l195 -280h-250zM135 623v913h297v-911q0 -170 93 -269.5t251 -99.5q155 0 248.5 100t93.5 269v911h297v-913q0 -291 -177 -467t-464 -176q-290 0 -464.5 175.5t-174.5 467.5z" />
    <glyph glyph-name="Uacute" unicode="&#xda;" horiz-adv-x="1552" 
d="M793 1929h352l-295 -280h-252zM135 623v913h297v-911q0 -170 93 -269.5t251 -99.5q155 0 248.5 100t93.5 269v911h297v-913q0 -291 -177 -467t-464 -176q-290 0 -464.5 175.5t-174.5 467.5z" />
    <glyph glyph-name="Ucircumflex" unicode="&#xdb;" horiz-adv-x="1552" 
d="M922 1649l-138 118l-135 -118h-266l248 280h307l250 -280h-266zM135 623v913h297v-911q0 -170 93 -269.5t251 -99.5q155 0 248.5 100t93.5 269v911h297v-913q0 -291 -177 -467t-464 -176q-290 0 -464.5 175.5t-174.5 467.5z" />
    <glyph glyph-name="Udieresis" unicode="&#xdc;" horiz-adv-x="1552" 
d="M569 1649q-68 0 -109.5 39.5t-41.5 105.5t42 107t109 41t108.5 -41t41.5 -107t-41 -105.5t-109 -39.5zM981 1649q-68 0 -110 39.5t-42 105.5t42 107t110 41q66 0 107.5 -41t41.5 -107t-41.5 -105.5t-107.5 -39.5zM135 623v913h297v-911q0 -170 93 -269.5t251 -99.5
q155 0 248.5 100t93.5 269v911h297v-913q0 -291 -177 -467t-464 -176q-290 0 -464.5 175.5t-174.5 467.5z" />
    <glyph glyph-name="Yacute" unicode="&#xdd;" horiz-adv-x="1478" 
d="M768 1929h352l-295 -280h-252zM1468 1536l-569 -973v-563h-297v535l-594 1001h342l395 -692l394 692h329z" />
    <glyph glyph-name="Thorn" unicode="&#xde;" horiz-adv-x="1282" 
d="M635 246h-193v-246h-297v1536h297v-231h197q248 0 407.5 -146t159.5 -383q0 -238 -161 -384t-410 -146zM631 1044h-189v-536h189q122 0 196 74.5t74 193.5q0 118 -74 193t-196 75z" />
    <glyph glyph-name="germandbls" unicode="&#xdf;" horiz-adv-x="1292" 
d="M416 0h-285v1085q0 208 128.5 339.5t342.5 131.5q180 0 298 -89t118 -244q0 -83 -53 -197l-50 -106q-38 -80 -38 -117q0 -33 18 -58t76 -61l133 -90q162 -103 162 -256q0 -164 -115.5 -261t-292.5 -97q-178 0 -299 81v289q132 -145 299 -145q52 0 85.5 26t33.5 74
q0 55 -66 96l-161 99q-156 94 -156 227q0 78 47 182l47 105q45 92 45 155q0 60 -42 99t-109 39q-78 0 -122 -52t-44 -129v-1126z" />
    <glyph glyph-name="agrave" unicode="&#xe0;" 
d="M338 1458h352l195 -280h-250zM883 0v115q-119 -135 -301 -135q-225 0 -370.5 150.5t-145.5 379.5q0 236 145 389.5t371 153.5q181 0 301 -140v119h284v-1032h-284zM616 788q-113 0 -186.5 -78t-73.5 -198q0 -117 73.5 -192.5t186.5 -75.5q116 0 191.5 75.5t75.5 192.5
q0 120 -75.5 198t-191.5 78z" />
    <glyph glyph-name="aacute" unicode="&#xe1;" 
d="M682 1458h352l-295 -280h-252zM883 0v115q-119 -135 -301 -135q-225 0 -370.5 150.5t-145.5 379.5q0 236 145 389.5t371 153.5q181 0 301 -140v119h284v-1032h-284zM616 788q-113 0 -186.5 -78t-73.5 -198q0 -117 73.5 -192.5t186.5 -75.5q116 0 191.5 75.5t75.5 192.5
q0 120 -75.5 198t-191.5 78z" />
    <glyph glyph-name="acircumflex" unicode="&#xe2;" 
d="M807 1178l-137 118l-135 -118h-267l248 280h307l250 -280h-266zM883 0v115q-119 -135 -301 -135q-225 0 -370.5 150.5t-145.5 379.5q0 236 145 389.5t371 153.5q181 0 301 -140v119h284v-1032h-284zM616 788q-113 0 -186.5 -78t-73.5 -198q0 -117 73.5 -192.5
t186.5 -75.5q116 0 191.5 75.5t75.5 192.5q0 120 -75.5 198t-191.5 78z" />
    <glyph glyph-name="atilde" unicode="&#xe3;" 
d="M780 1182q-48 0 -130.5 28.5t-102.5 28.5q-34 0 -56 -19t-22 -49h-164q-5 129 56 208t167 79q47 0 139 -28.5t107 -28.5q33 0 54.5 18.5t21.5 48.5h164q9 -127 -55.5 -206.5t-178.5 -79.5zM883 0v115q-119 -135 -301 -135q-225 0 -370.5 150.5t-145.5 379.5
q0 236 145 389.5t371 153.5q181 0 301 -140v119h284v-1032h-284zM616 788q-113 0 -186.5 -78t-73.5 -198q0 -117 73.5 -192.5t186.5 -75.5q116 0 191.5 75.5t75.5 192.5q0 120 -75.5 198t-191.5 78z" />
    <glyph glyph-name="adieresis" unicode="&#xe4;" 
d="M461 1178q-68 0 -110 39.5t-42 105.5t42 106.5t110 40.5q67 0 108 -40.5t41 -106.5t-40.5 -105.5t-108.5 -39.5zM872 1178q-68 0 -109.5 39.5t-41.5 105.5t41.5 106.5t109.5 40.5q66 0 108 -40.5t42 -106.5q0 -65 -41.5 -105t-108.5 -40zM883 0v115q-119 -135 -301 -135
q-225 0 -370.5 150.5t-145.5 379.5q0 236 145 389.5t371 153.5q181 0 301 -140v119h284v-1032h-284zM616 788q-113 0 -186.5 -78t-73.5 -198q0 -117 73.5 -192.5t186.5 -75.5q116 0 191.5 75.5t75.5 192.5q0 120 -75.5 198t-191.5 78z" />
    <glyph glyph-name="aring" unicode="&#xe5;" 
d="M672 1579q100 0 164.5 -59t64.5 -154q0 -96 -64.5 -156.5t-164.5 -60.5q-99 0 -162.5 59t-63.5 154q0 96 63.5 156.5t162.5 60.5zM594 1362q0 -34 21.5 -55t56.5 -21q37 0 58.5 21.5t21.5 56.5t-22.5 56.5t-57.5 21.5q-37 0 -57.5 -21.5t-20.5 -58.5zM883 0v115
q-119 -135 -301 -135q-225 0 -370.5 150.5t-145.5 379.5q0 236 145 389.5t371 153.5q181 0 301 -140v119h284v-1032h-284zM616 788q-113 0 -186.5 -78t-73.5 -198q0 -117 73.5 -192.5t186.5 -75.5q116 0 191.5 75.5t75.5 192.5q0 120 -75.5 198t-191.5 78z" />
    <glyph glyph-name="ae" unicode="&#xe6;" horiz-adv-x="1794" 
d="M1632 68q-163 -88 -354 -88q-260 0 -404 135q-190 -135 -407 -135q-172 0 -288 87t-116 244q0 98 52.5 169t136.5 104.5t188 33.5h267q-3 91 -66 142t-160 51q-158 0 -323 -106v253q167 95 352 95q244 0 369 -144q141 144 350 144q220 0 355.5 -142.5t135.5 -365.5
q0 -63 -6 -127h-700q26 -93 100.5 -144t175.5 -51q178 0 342 96v-251zM1217 819q-91 0 -148 -53.5t-76 -147.5h437q-14 96 -69 148.5t-144 52.5zM518 213q142 0 246 76q-31 74 -41 131h-248q-53 0 -87 -26.5t-34 -74.5q0 -54 47.5 -80t116.5 -26z" />
    <glyph glyph-name="ccedilla" unicode="&#xe7;" horiz-adv-x="1034" 
d="M842 -317q0 -95 -82 -147t-205 -52q-75 0 -156 33v139q76 -39 142 -39q40 0 66 18t26 50t-24.5 50.5t-61.5 18.5t-80 -16l-39 43l86 207q-203 30 -325.5 172.5t-122.5 355.5q0 239 156.5 388t400.5 149q171 0 311 -82v-293q-121 115 -289 115q-126 0 -206.5 -76
t-80.5 -199q0 -124 82.5 -201t210.5 -77q172 0 289 86v-273q-113 -60 -248 -69l-55 -119q91 -6 148 -52.5t57 -129.5z" />
    <glyph glyph-name="egrave" unicode="&#xe8;" horiz-adv-x="1161" 
d="M215 1458h352l195 -280h-250zM1092 545q0 -52 -7 -127h-714q29 -92 107 -143.5t188 -51.5q177 0 340 94v-243q-161 -94 -365 -94q-250 0 -412.5 142.5t-162.5 381.5q0 157 64.5 281.5t184.5 196t275 71.5q222 0 362 -143t140 -365zM590 819q-88 0 -145 -55t-78 -146h432
q-13 90 -67 145.5t-142 55.5z" />
    <glyph glyph-name="eacute" unicode="&#xe9;" horiz-adv-x="1161" 
d="M618 1458h353l-295 -280h-252zM1092 545q0 -52 -7 -127h-714q29 -92 107 -143.5t188 -51.5q177 0 340 94v-243q-161 -94 -365 -94q-250 0 -412.5 142.5t-162.5 381.5q0 157 64.5 281.5t184.5 196t275 71.5q222 0 362 -143t140 -365zM590 819q-88 0 -145 -55t-78 -146h432
q-13 90 -67 145.5t-142 55.5z" />
    <glyph glyph-name="ecircumflex" unicode="&#xea;" horiz-adv-x="1161" 
d="M727 1178l-137 118l-135 -118h-267l248 280h307l250 -280h-266zM1092 545q0 -52 -7 -127h-714q29 -92 107 -143.5t188 -51.5q177 0 340 94v-243q-161 -94 -365 -94q-250 0 -412.5 142.5t-162.5 381.5q0 157 64.5 281.5t184.5 196t275 71.5q222 0 362 -143t140 -365z
M590 819q-88 0 -145 -55t-78 -146h432q-13 90 -67 145.5t-142 55.5z" />
    <glyph glyph-name="edieresis" unicode="&#xeb;" horiz-adv-x="1161" 
d="M385 1178q-68 0 -110 39.5t-42 105.5t42 106.5t110 40.5q67 0 108.5 -40.5t41.5 -106.5t-41 -105.5t-109 -39.5zM797 1178q-68 0 -110 39.5t-42 105.5t42 106.5t110 40.5q66 0 107.5 -40.5t41.5 -106.5t-41.5 -105.5t-107.5 -39.5zM1092 545q0 -52 -7 -127h-714
q29 -92 107 -143.5t188 -51.5q177 0 340 94v-243q-161 -94 -365 -94q-250 0 -412.5 142.5t-162.5 381.5q0 157 64.5 281.5t184.5 196t275 71.5q222 0 362 -143t140 -365zM590 819q-88 0 -145 -55t-78 -146h432q-13 90 -67 145.5t-142 55.5z" />
    <glyph glyph-name="igrave" unicode="&#xec;" horiz-adv-x="563" 
d="M-98 1458h352l195 -280h-250zM139 0v1032h285v-1032h-285z" />
    <glyph glyph-name="iacute" unicode="&#xed;" horiz-adv-x="563" 
d="M309 1458h353l-295 -280h-252zM139 0v1032h285v-1032h-285z" />
    <glyph glyph-name="icircumflex" unicode="&#xee;" horiz-adv-x="563" 
d="M422 1178l-137 118l-135 -118h-267l248 280h307l250 -280h-266zM139 0v1032h285v-1032h-285z" />
    <glyph glyph-name="idieresis" unicode="&#xef;" horiz-adv-x="563" 
d="M78 1178q-68 0 -110 39.5t-42 105.5t42 106.5t110 40.5q67 0 108 -40.5t41 -106.5t-40.5 -105.5t-108.5 -39.5zM489 1178q-68 0 -109.5 39.5t-41.5 105.5t41.5 106.5t109.5 40.5q66 0 108 -40.5t42 -106.5q0 -65 -41.5 -105t-108.5 -40zM139 0v1032h285v-1032h-285z" />
    <glyph glyph-name="eth" unicode="&#xf0;" horiz-adv-x="1187" 
d="M1122 596q0 -103 -23.5 -195.5t-70.5 -169t-113 -133t-155.5 -87.5t-192.5 -31q-222 0 -366 136t-144 357q0 213 138.5 348t353.5 135q137 0 256 -104q-30 206 -180 328l-127 -127h-295l225 225q-102 29 -207 29v233q215 0 391 -78l78 78h295l-188 -188
q156 -127 240.5 -322.5t84.5 -433.5zM580 244q103 0 167 64t64 167q0 102 -64.5 169t-166.5 67q-101 0 -166.5 -67t-65.5 -169q0 -101 65.5 -166t166.5 -65z" />
    <glyph glyph-name="ntilde" unicode="&#xf1;" horiz-adv-x="1228" 
d="M752 1182q-48 0 -131 28.5t-103 28.5q-34 0 -56 -19t-22 -49h-164q-5 129 56.5 208t167.5 79q47 0 138.5 -28.5t106.5 -28.5q33 0 54.5 18.5t21.5 48.5h164q9 -127 -55.5 -206.5t-177.5 -79.5zM424 520v-520h-285v1032h285v-112q120 133 305 133q173 0 276 -118.5
t103 -297.5v-637h-285v569q0 211 -176 211q-101 0 -162 -75t-61 -185z" />
    <glyph glyph-name="ograve" unicode="&#xf2;" horiz-adv-x="1239" 
d="M252 1458h352l195 -280h-250zM625 -20q-243 0 -401 152t-158 390q0 153 73 274.5t200.5 189t285.5 67.5q237 0 393 -150t156 -381q0 -237 -155.5 -389.5t-393.5 -152.5zM883 518q0 117 -73 193.5t-187 76.5q-116 0 -191.5 -76.5t-75.5 -193.5q0 -120 75.5 -197t191.5 -77
q114 0 187 77t73 197z" />
    <glyph glyph-name="oacute" unicode="&#xf3;" horiz-adv-x="1239" 
d="M664 1458h352l-295 -280h-252zM625 -20q-243 0 -401 152t-158 390q0 153 73 274.5t200.5 189t285.5 67.5q237 0 393 -150t156 -381q0 -237 -155.5 -389.5t-393.5 -152.5zM883 518q0 117 -73 193.5t-187 76.5q-116 0 -191.5 -76.5t-75.5 -193.5q0 -120 75.5 -197
t191.5 -77q114 0 187 77t73 197z" />
    <glyph glyph-name="ocircumflex" unicode="&#xf4;" horiz-adv-x="1239" 
d="M756 1178l-138 118l-135 -118h-266l248 280h307l250 -280h-266zM625 -20q-243 0 -401 152t-158 390q0 153 73 274.5t200.5 189t285.5 67.5q237 0 393 -150t156 -381q0 -237 -155.5 -389.5t-393.5 -152.5zM883 518q0 117 -73 193.5t-187 76.5q-116 0 -191.5 -76.5
t-75.5 -193.5q0 -120 75.5 -197t191.5 -77q114 0 187 77t73 197z" />
    <glyph glyph-name="otilde" unicode="&#xf5;" horiz-adv-x="1239" 
d="M741 1180q-48 0 -130.5 28.5t-102.5 28.5q-34 0 -56 -19t-22 -49h-164q-5 129 56 208t167 79q47 0 139 -28.5t107 -28.5q33 0 54.5 18.5t21.5 48.5h164q9 -127 -55.5 -206.5t-178.5 -79.5zM625 -20q-243 0 -401 152t-158 390q0 153 73 274.5t200.5 189t285.5 67.5
q237 0 393 -150t156 -381q0 -237 -155.5 -389.5t-393.5 -152.5zM883 518q0 117 -73 193.5t-187 76.5q-116 0 -191.5 -76.5t-75.5 -193.5q0 -120 75.5 -197t191.5 -77q114 0 187 77t73 197z" />
    <glyph glyph-name="odieresis" unicode="&#xf6;" horiz-adv-x="1239" 
d="M414 1178q-68 0 -110 39.5t-42 105.5t42 106.5t110 40.5q67 0 108 -40.5t41 -106.5t-40.5 -105.5t-108.5 -39.5zM825 1178q-68 0 -109.5 39.5t-41.5 105.5t41.5 106.5t109.5 40.5q66 0 108 -40.5t42 -106.5q0 -65 -41.5 -105t-108.5 -40zM625 -20q-243 0 -401 152
t-158 390q0 153 73 274.5t200.5 189t285.5 67.5q237 0 393 -150t156 -381q0 -237 -155.5 -389.5t-393.5 -152.5zM883 518q0 117 -73 193.5t-187 76.5q-116 0 -191.5 -76.5t-75.5 -193.5q0 -120 75.5 -197t191.5 -77q114 0 187 77t73 197z" />
    <glyph glyph-name="divide" unicode="&#xf7;" horiz-adv-x="1273" 
d="M637 1042q-63 0 -105.5 40.5t-42.5 101.5t42.5 101t105.5 40q61 0 102 -40t41 -101t-41.5 -101.5t-101.5 -40.5zM168 657v246h936v-246h-936zM637 236q-63 0 -105.5 40t-42.5 101t42.5 101t105.5 40q61 0 102 -40t41 -101t-41 -101t-102 -40z" />
    <glyph glyph-name="oslash" unicode="&#xf8;" horiz-adv-x="1347" 
d="M1227 522q0 -237 -155.5 -389.5t-393.5 -152.5q-173 0 -311 83l-66 -63h-305l215 211q-92 134 -92 311q0 153 73 274.5t200.5 189t285.5 67.5q168 0 303 -80l63 59h308l-213 -209q88 -134 88 -301zM410 518q0 -57 20 -112l365 356q-57 26 -119 26q-115 0 -190.5 -76.5
t-75.5 -193.5zM936 518q0 60 -21 109l-362 -355q54 -28 123 -28q114 0 187 77t73 197z" />
    <glyph glyph-name="ugrave" unicode="&#xf9;" horiz-adv-x="1181" 
d="M236 1458h352l194 -280h-250zM784 446v586h285v-577q0 -217 -131.5 -346t-347.5 -129q-215 0 -347 129t-132 346v577h284v-586q0 -97 53 -149.5t142 -52.5t141.5 52.5t52.5 149.5z" />
    <glyph glyph-name="uacute" unicode="&#xfa;" horiz-adv-x="1181" 
d="M608 1458h353l-295 -280h-252zM784 446v586h285v-577q0 -217 -131.5 -346t-347.5 -129q-215 0 -347 129t-132 346v577h284v-586q0 -97 53 -149.5t142 -52.5t141.5 52.5t52.5 149.5z" />
    <glyph glyph-name="ucircumflex" unicode="&#xfb;" horiz-adv-x="1181" 
d="M721 1178l-137 118l-135 -118h-267l248 280h307l250 -280h-266zM784 446v586h285v-577q0 -217 -131.5 -346t-347.5 -129q-215 0 -347 129t-132 346v577h284v-586q0 -97 53 -149.5t142 -52.5t141.5 52.5t52.5 149.5z" />
    <glyph glyph-name="udieresis" unicode="&#xfc;" horiz-adv-x="1181" 
d="M381 1178q-68 0 -110 39.5t-42 105.5t42 106.5t110 40.5q67 0 108 -40.5t41 -106.5t-40.5 -105.5t-108.5 -39.5zM793 1178q-68 0 -110 39.5t-42 105.5t42 106.5t110 40.5q66 0 107.5 -40.5t41.5 -106.5t-41.5 -105.5t-107.5 -39.5zM784 446v586h285v-577
q0 -217 -131.5 -346t-347.5 -129q-215 0 -347 129t-132 346v577h284v-586q0 -97 53 -149.5t142 -52.5t141.5 52.5t52.5 149.5z" />
    <glyph glyph-name="yacute" unicode="&#xfd;" horiz-adv-x="1120" 
d="M618 1458h353l-295 -280h-252zM1120 1032l-743 -1544h-297l340 711l-420 833h332l243 -512l246 512h299z" />
    <glyph glyph-name="thorn" unicode="&#xfe;" 
d="M725 -20q-177 0 -301 133v-625h-285v2048h285v-614q125 131 301 131q224 0 370 -151t146 -382q0 -234 -145.5 -387t-370.5 -153zM948 520q0 115 -74 191.5t-184 76.5q-115 0 -190.5 -76t-75.5 -192q0 -120 75 -198t191 -78q112 0 185 78t73 198z" />
    <glyph glyph-name="ydieresis" unicode="&#xff;" horiz-adv-x="1120" 
d="M371 1178q-68 0 -110 39.5t-42 105.5t42 106.5t110 40.5q67 0 108 -40.5t41 -106.5t-40.5 -105.5t-108.5 -39.5zM782 1178q-68 0 -109.5 39.5t-41.5 105.5t41.5 106.5t109.5 40.5q66 0 108 -40.5t42 -106.5q0 -65 -41.5 -105t-108.5 -40zM1120 1032l-743 -1544h-297
l340 711l-420 833h332l243 -512l246 512h299z" />
    <glyph glyph-name="Amacron" unicode="&#x100;" horiz-adv-x="1544" 
d="M446 1898h633v-219h-633v219zM1194 0l-104 233h-652l-106 -233h-326l762 1579l768 -1579h-342zM547 473h434l-217 479z" />
    <glyph glyph-name="amacron" unicode="&#x101;" 
d="M348 1427h633v-219h-633v219zM883 0v115q-119 -135 -301 -135q-225 0 -370.5 150.5t-145.5 379.5q0 236 145 389.5t371 153.5q181 0 301 -140v119h284v-1032h-284zM616 788q-113 0 -186.5 -78t-73.5 -198q0 -117 73.5 -192.5t186.5 -75.5q116 0 191.5 75.5t75.5 192.5
q0 120 -75.5 198t-191.5 78z" />
    <glyph glyph-name="Abreve" unicode="&#x102;" horiz-adv-x="1544" 
d="M764 1827q49 0 82 30t35 76h221q-2 -132 -95 -218.5t-243 -86.5q-151 0 -243.5 86.5t-94.5 218.5h221q2 -46 34 -76t83 -30zM1194 0l-104 233h-652l-106 -233h-326l762 1579l768 -1579h-342zM547 473h434l-217 479z" />
    <glyph glyph-name="abreve" unicode="&#x103;" 
d="M692 1356q49 0 82 30t35 76h221q-2 -132 -95 -218.5t-243 -86.5q-151 0 -243.5 86.5t-94.5 218.5h221q2 -46 34 -76t83 -30zM883 0v115q-119 -135 -301 -135q-225 0 -370.5 150.5t-145.5 379.5q0 236 145 389.5t371 153.5q181 0 301 -140v119h284v-1032h-284zM616 788
q-113 0 -186.5 -78t-73.5 -198q0 -117 73.5 -192.5t186.5 -75.5q116 0 191.5 75.5t75.5 192.5q0 120 -75.5 198t-191.5 78z" />
    <glyph glyph-name="Aogonek" unicode="&#x104;" horiz-adv-x="1544" 
d="M1456 -487q-74 -31 -135 -31q-99 0 -171 54t-89 147q-28 191 133 319l-104 231h-652l-106 -233h-326l762 1579l768 -1579h-80q-87 -42 -133.5 -106.5t-30.5 -147.5q6 -38 34 -61t65 -23q35 0 65 12v-161zM547 473h434l-217 479z" />
    <glyph glyph-name="aogonek" unicode="&#x105;" 
d="M1139 -487q-74 -31 -135 -31q-99 0 -171.5 54t-89.5 147q-28 195 140 323v109q-119 -135 -301 -135q-225 0 -370.5 150.5t-145.5 379.5q0 236 145 389.5t371 153.5q181 0 301 -140v119h284v-1032h-28q-87 -42 -133.5 -106.5t-30.5 -147.5q6 -38 33.5 -61t64.5 -23
q36 0 66 12v-161zM616 788q-113 0 -186.5 -78t-73.5 -198q0 -117 73.5 -192.5t186.5 -75.5q116 0 191.5 75.5t75.5 192.5q0 120 -75.5 198t-191.5 78z" />
    <glyph glyph-name="Cacute" unicode="&#x106;" horiz-adv-x="1402" 
d="M842 1929h352l-295 -280h-252zM844 -20q-227 0 -404.5 101.5t-274.5 280.5t-97 406q0 228 100 407.5t280 280t410 100.5q268 0 469 -141v-340q-92 97 -215 149t-258 52q-216 0 -347.5 -143.5t-131.5 -362.5q0 -224 138 -368t361 -144q276 0 461 162v-318
q-218 -122 -491 -122z" />
    <glyph glyph-name="cacute" unicode="&#x107;" horiz-adv-x="1034" 
d="M606 1458h352l-294 -280h-252zM358 518q0 -124 82.5 -201t210.5 -77q172 0 289 86v-273q-138 -73 -326 -73q-243 0 -395.5 148t-152.5 388q0 239 156.5 388t400.5 149q171 0 311 -82v-293q-121 115 -289 115q-126 0 -206.5 -76t-80.5 -199z" />
    <glyph glyph-name="Ccircumflex" unicode="&#x108;" horiz-adv-x="1402" 
d="M987 1649l-137 118l-135 -118h-266l247 280h308l249 -280h-266zM844 -20q-227 0 -404.5 101.5t-274.5 280.5t-97 406q0 228 100 407.5t280 280t410 100.5q268 0 469 -141v-340q-92 97 -215 149t-258 52q-216 0 -347.5 -143.5t-131.5 -362.5q0 -224 138 -368t361 -144
q276 0 461 162v-318q-218 -122 -491 -122z" />
    <glyph glyph-name="ccircumflex" unicode="&#x109;" horiz-adv-x="1034" 
d="M727 1178l-137 118l-135 -118h-267l248 280h307l250 -280h-266zM358 518q0 -124 82.5 -201t210.5 -77q172 0 289 86v-273q-138 -73 -326 -73q-243 0 -395.5 148t-152.5 388q0 239 156.5 388t400.5 149q171 0 311 -82v-293q-121 115 -289 115q-126 0 -206.5 -76
t-80.5 -199z" />
    <glyph glyph-name="Cdotaccent" unicode="&#x10a;" horiz-adv-x="1402" 
d="M852 1645q-71 0 -119.5 45.5t-48.5 115.5t48.5 116t119.5 46t119.5 -46t48.5 -116t-48.5 -115.5t-119.5 -45.5zM844 -20q-227 0 -404.5 101.5t-274.5 280.5t-97 406q0 228 100 407.5t280 280t410 100.5q268 0 469 -141v-340q-92 97 -215 149t-258 52
q-216 0 -347.5 -143.5t-131.5 -362.5q0 -224 138 -368t361 -144q276 0 461 162v-318q-218 -122 -491 -122z" />
    <glyph glyph-name="cdotaccent" unicode="&#x10b;" horiz-adv-x="1034" 
d="M592 1174q-71 0 -119.5 45.5t-48.5 115.5t48.5 116t119.5 46t119.5 -46t48.5 -116t-48.5 -115.5t-119.5 -45.5zM358 518q0 -124 82.5 -201t210.5 -77q172 0 289 86v-273q-138 -73 -326 -73q-243 0 -395.5 148t-152.5 388q0 239 156.5 388t400.5 149q171 0 311 -82v-293
q-121 115 -289 115q-126 0 -206.5 -76t-80.5 -199z" />
    <glyph glyph-name="Ccaron" unicode="&#x10c;" horiz-adv-x="1402" 
d="M1257 1929l-253 -280h-308l-254 280h273l135 -119l137 119h270zM844 -20q-227 0 -404.5 101.5t-274.5 280.5t-97 406q0 228 100 407.5t280 280t410 100.5q268 0 469 -141v-340q-92 97 -215 149t-258 52q-216 0 -347.5 -143.5t-131.5 -362.5q0 -224 138 -368t361 -144
q276 0 461 162v-318q-218 -122 -491 -122z" />
    <glyph glyph-name="ccaron" unicode="&#x10d;" horiz-adv-x="1034" 
d="M991 1458l-254 -280h-307l-254 280h273l135 -119l137 119h270zM358 518q0 -124 82.5 -201t210.5 -77q172 0 289 86v-273q-138 -73 -326 -73q-243 0 -395.5 148t-152.5 388q0 239 156.5 388t400.5 149q171 0 311 -82v-293q-121 115 -289 115q-126 0 -206.5 -76t-80.5 -199
z" />
    <glyph glyph-name="Dcaron" unicode="&#x10e;" horiz-adv-x="1568" 
d="M1137 1929l-254 -280h-308l-253 280h272l135 -119l137 119h271zM145 0v1536h566q169 0 315 -56.5t250.5 -156t164.5 -243t60 -310.5q0 -224 -100.5 -400t-279.5 -273t-404 -97h-572zM713 1266h-273v-998h273q218 0 350.5 137.5t132.5 364.5q0 224 -133 360t-350 136z" />
    <glyph glyph-name="dcaron" unicode="&#x10f;" horiz-adv-x="1536" 
d="M883 0v113q-120 -133 -301 -133q-225 0 -370.5 150.5t-145.5 379.5q0 235 145.5 389t370.5 154q179 0 301 -138v621h284v-1536h-284zM1434 1137h-179l62 399h274zM616 788q-113 0 -186.5 -78t-73.5 -198q0 -117 73.5 -192.5t186.5 -75.5q116 0 191.5 75.5t75.5 192.5
q0 120 -75.5 198t-191.5 78z" />
    <glyph glyph-name="Dcroat" unicode="&#x110;" horiz-adv-x="1636" 
d="M23 893h190v643h565q169 0 315.5 -56.5t251 -156t164.5 -243t60 -310.5q0 -224 -101 -400t-280 -273t-404 -97h-571v647h-190v246zM887 647h-379v-379h274q217 0 349.5 137.5t132.5 364.5q0 224 -132.5 360t-349.5 136h-274v-373h379v-246z" />
    <glyph glyph-name="dcroat" unicode="&#x111;" 
d="M883 0v113q-120 -133 -301 -133q-225 0 -370.5 150.5t-145.5 379.5q0 235 145.5 389t370.5 154q179 0 301 -138v263h-234v204h234v154h284v-154h127v-204h-127v-1178h-284zM883 512q0 120 -75.5 198t-191.5 78q-113 0 -186.5 -78t-73.5 -198q0 -117 73.5 -192.5
t186.5 -75.5q116 0 191.5 75.5t75.5 192.5z" />
    <glyph glyph-name="Emacron" unicode="&#x112;" horiz-adv-x="1202" 
d="M326 1898h632v-219h-632v219zM145 0v1536h967v-268h-670v-348h586v-267h-586v-389h693v-264h-990z" />
    <glyph glyph-name="emacron" unicode="&#x113;" horiz-adv-x="1161" 
d="M260 1427h633v-219h-633v219zM1092 545q0 -52 -7 -127h-714q29 -92 107 -143.5t188 -51.5q177 0 340 94v-243q-161 -94 -365 -94q-250 0 -412.5 142.5t-162.5 381.5q0 157 64.5 281.5t184.5 196t275 71.5q222 0 362 -143t140 -365zM590 819q-88 0 -145 -55t-78 -146h432
q-13 90 -67 145.5t-142 55.5z" />
    <glyph glyph-name="Ebreve" unicode="&#x114;" horiz-adv-x="1202" 
d="M643 1827q49 0 82 30t35 76h221q-2 -132 -95 -218.5t-243 -86.5q-151 0 -243.5 86.5t-94.5 218.5h221q2 -46 34 -76t83 -30zM145 0v1536h967v-268h-670v-348h586v-267h-586v-389h693v-264h-990z" />
    <glyph glyph-name="ebreve" unicode="&#x115;" horiz-adv-x="1161" 
d="M586 1356q49 0 81.5 30t34.5 76h222q-2 -132 -95 -218.5t-243 -86.5q-151 0 -243.5 86.5t-94.5 218.5h221q2 -46 34 -76t83 -30zM1092 545q0 -52 -7 -127h-714q29 -92 107 -143.5t188 -51.5q177 0 340 94v-243q-161 -94 -365 -94q-250 0 -412.5 142.5t-162.5 381.5
q0 157 64.5 281.5t184.5 196t275 71.5q222 0 362 -143t140 -365zM590 819q-88 0 -145 -55t-78 -146h432q-13 90 -67 145.5t-142 55.5z" />
    <glyph glyph-name="Edotaccent" unicode="&#x116;" horiz-adv-x="1202" 
d="M643 1645q-71 0 -119.5 45.5t-48.5 115.5t48.5 116t119.5 46t119.5 -46t48.5 -116t-48.5 -115.5t-119.5 -45.5zM145 0v1536h967v-268h-670v-348h586v-267h-586v-389h693v-264h-990z" />
    <glyph glyph-name="edotaccent" unicode="&#x117;" horiz-adv-x="1161" 
d="M578 1174q-71 0 -119.5 45.5t-48.5 115.5t48.5 116t119.5 46t119 -46t48 -116t-48 -115.5t-119 -45.5zM1092 545q0 -52 -7 -127h-714q29 -92 107 -143.5t188 -51.5q177 0 340 94v-243q-161 -94 -365 -94q-250 0 -412.5 142.5t-162.5 381.5q0 157 64.5 281.5t184.5 196
t275 71.5q222 0 362 -143t140 -365zM590 819q-88 0 -145 -55t-78 -146h432q-13 90 -67 145.5t-142 55.5z" />
    <glyph glyph-name="Eogonek" unicode="&#x118;" horiz-adv-x="1202" 
d="M145 0v1536h967v-268h-670v-348h586v-267h-586v-389h693v-264h-2q-87 -42 -133.5 -106.5t-30.5 -147.5q6 -38 33.5 -61t64.5 -23q36 0 66 12v-161q-74 -31 -136 -31q-99 0 -171 54t-89 147q-28 191 131 317h-723z" />
    <glyph glyph-name="eogonek" unicode="&#x119;" horiz-adv-x="1163" 
d="M1094 545q0 -59 -9 -127h-714q27 -94 105 -144.5t192 -50.5q180 0 338 96v-251q-90 -56 -139 -141t-31 -179q8 -39 35 -62.5t65 -23.5q37 0 65 14v-161q-74 -31 -135 -31q-99 0 -171 53t-89 146q-25 170 107 299q-23 -2 -70 -2q-270 0 -423.5 142.5t-153.5 377.5
q0 157 63.5 282.5t184 198t278.5 72.5q226 0 364 -141t138 -367zM592 813q-92 0 -149 -52t-76 -143h434q-12 92 -66.5 143.5t-142.5 51.5z" />
    <glyph glyph-name="Ecaron" unicode="&#x11a;" horiz-adv-x="1202" 
d="M1063 1929l-254 -280h-307l-254 280h272l135 -119l138 119h270zM145 0v1536h967v-268h-670v-348h586v-267h-586v-389h693v-264h-990z" />
    <glyph glyph-name="ecaron" unicode="&#x11b;" horiz-adv-x="1161" 
d="M989 1458l-254 -280h-307l-254 280h272l136 -119l137 119h270zM1092 545q0 -52 -7 -127h-714q29 -92 107 -143.5t188 -51.5q177 0 340 94v-243q-161 -94 -365 -94q-250 0 -412.5 142.5t-162.5 381.5q0 157 64.5 281.5t184.5 196t275 71.5q222 0 362 -143t140 -365z
M590 819q-88 0 -145 -55t-78 -146h432q-13 90 -67 145.5t-142 55.5z" />
    <glyph glyph-name="Gcircumflex" unicode="&#x11c;" horiz-adv-x="1560" 
d="M991 1649l-137 118l-135 -118h-266l247 280h308l249 -280h-266zM1456 154q-297 -174 -610 -174q-227 0 -405 101t-275.5 281t-97.5 408t102.5 407.5t285.5 279t414 99.5q293 0 514 -151v-332q-99 103 -229.5 157t-277.5 54q-221 0 -361.5 -143.5t-140.5 -368.5
q0 -224 139 -369t358 -145q166 0 291 61v306h-346v239h639v-710z" />
    <glyph glyph-name="gcircumflex" unicode="&#x11d;" 
d="M809 1178l-137 118l-135 -118h-267l248 280h307l250 -280h-266zM1167 12q0 -259 -149 -401.5t-412 -142.5q-223 0 -411 112v287q90 -71 195 -107t202 -36q139 0 215 70t76 204v113q-121 -131 -301 -131q-225 0 -370.5 150.5t-145.5 381.5q0 234 145.5 387.5t370.5 153.5
q179 0 301 -135v114h284v-1020zM883 512q0 120 -75.5 198t-191.5 78q-113 0 -186.5 -78t-73.5 -198q0 -117 73.5 -192.5t186.5 -75.5q116 0 191.5 75.5t75.5 192.5z" />
    <glyph glyph-name="Gbreve" unicode="&#x11e;" horiz-adv-x="1560" 
d="M848 1827q49 0 82 30t35 76h221q-2 -132 -95 -218.5t-243 -86.5q-151 0 -243.5 86.5t-94.5 218.5h221q2 -46 34 -76t83 -30zM1456 154q-297 -174 -610 -174q-227 0 -405 101t-275.5 281t-97.5 408t102.5 407.5t285.5 279t414 99.5q293 0 514 -151v-332
q-99 103 -229.5 157t-277.5 54q-221 0 -361.5 -143.5t-140.5 -368.5q0 -224 139 -369t358 -145q166 0 291 61v306h-346v239h639v-710z" />
    <glyph glyph-name="gbreve" unicode="&#x11f;" 
d="M688 1356q49 0 82 30t35 76h221q-2 -132 -95 -218.5t-243 -86.5q-151 0 -243.5 86.5t-94.5 218.5h221q2 -46 34 -76t83 -30zM1167 12q0 -259 -149 -401.5t-412 -142.5q-223 0 -411 112v287q90 -71 195 -107t202 -36q139 0 215 70t76 204v113q-121 -131 -301 -131
q-225 0 -370.5 150.5t-145.5 381.5q0 234 145.5 387.5t370.5 153.5q179 0 301 -135v114h284v-1020zM883 512q0 120 -75.5 198t-191.5 78q-113 0 -186.5 -78t-73.5 -198q0 -117 73.5 -192.5t186.5 -75.5q116 0 191.5 75.5t75.5 192.5z" />
    <glyph glyph-name="Gdotaccent" unicode="&#x120;" horiz-adv-x="1560" 
d="M854 1645q-71 0 -119.5 45.5t-48.5 115.5t48.5 116t119.5 46t119.5 -46t48.5 -116t-48.5 -115.5t-119.5 -45.5zM1456 154q-297 -174 -610 -174q-227 0 -405 101t-275.5 281t-97.5 408t102.5 407.5t285.5 279t414 99.5q293 0 514 -151v-332q-99 103 -229.5 157t-277.5 54
q-221 0 -361.5 -143.5t-140.5 -368.5q0 -224 139 -369t358 -145q166 0 291 61v306h-346v239h639v-710z" />
    <glyph glyph-name="gdotaccent" unicode="&#x121;" 
d="M702 1174q-71 0 -119 45.5t-48 115.5t48 116t119 46t119.5 -46t48.5 -116t-48.5 -115.5t-119.5 -45.5zM1167 12q0 -259 -149 -401.5t-412 -142.5q-223 0 -411 112v287q90 -71 195 -107t202 -36q139 0 215 70t76 204v113q-121 -131 -301 -131q-225 0 -370.5 150.5
t-145.5 381.5q0 234 145.5 387.5t370.5 153.5q179 0 301 -135v114h284v-1020zM883 512q0 120 -75.5 198t-191.5 78q-113 0 -186.5 -78t-73.5 -198q0 -117 73.5 -192.5t186.5 -75.5q116 0 191.5 75.5t75.5 192.5z" />
    <glyph glyph-name="Gcommaaccent" unicode="&#x122;" horiz-adv-x="1560" 
d="M1456 154q-297 -174 -610 -174q-227 0 -405 101t-275.5 281t-97.5 408t102.5 407.5t285.5 279t414 99.5q293 0 514 -151v-332q-99 103 -229.5 157t-277.5 54q-221 0 -361.5 -143.5t-140.5 -368.5q0 -224 139 -369t358 -145q166 0 291 61v306h-346v239h639v-710zM705 -117
h276l-211 -346h-184z" />
    <glyph glyph-name="gcommaaccent" unicode="&#x123;" 
d="M748 1499h184l-121 -346h-276zM1167 12q0 -259 -149 -401.5t-412 -142.5q-223 0 -411 112v287q90 -71 195 -107t202 -36q139 0 215 70t76 204v113q-121 -131 -301 -131q-225 0 -370.5 150.5t-145.5 381.5q0 234 145.5 387.5t370.5 153.5q179 0 301 -135v114h284v-1020z
M883 512q0 120 -75.5 198t-191.5 78q-113 0 -186.5 -78t-73.5 -198q0 -117 73.5 -192.5t186.5 -75.5q116 0 191.5 75.5t75.5 192.5z" />
    <glyph glyph-name="Hcircumflex" unicode="&#x124;" horiz-adv-x="1587" 
d="M930 1649l-137 118l-136 -118h-266l248 280h307l250 -280h-266zM1145 0v672h-703v-672h-297v1536h297v-602h703v602h295v-1536h-295z" />
    <glyph glyph-name="hcircumflex" unicode="&#x125;" horiz-adv-x="1228" 
d="M721 1649l-137 118l-135 -118h-267l248 280h307l250 -280h-266zM424 520v-520h-285v1536h285v-616q120 133 305 133q173 0 276 -118.5t103 -297.5v-637h-285v569q0 211 -176 211q-101 0 -162 -75t-61 -185z" />
    <glyph glyph-name="Hbar" unicode="&#x126;" horiz-adv-x="1587" 
d="M1145 0v672h-703v-672h-297v1128h-145v207h145v201h297v-201h703v201h295v-201h149v-207h-149v-1128h-295zM442 934h703v194h-703v-194z" />
    <glyph glyph-name="hbar" unicode="&#x127;" horiz-adv-x="1236" 
d="M430 520v-520h-285v1178h-155v204h155v154h285v-154h205v-204h-205v-260q119 135 307 135q171 0 274 -118.5t103 -297.5v-637h-283v569q0 211 -178 211q-101 0 -162 -75t-61 -185z" />
    <glyph glyph-name="Itilde" unicode="&#x128;" horiz-adv-x="589" 
d="M414 1651q-48 0 -131 28.5t-103 28.5q-34 0 -56 -19t-22 -49h-163q-5 129 56 208t167 79q47 0 139 -28.5t107 -28.5q33 0 54 18.5t21 48.5h164q9 -127 -55.5 -206.5t-177.5 -79.5zM145 0v1536h297v-1536h-297z" />
    <glyph glyph-name="itilde" unicode="&#x129;" horiz-adv-x="563" 
d="M406 1182q-48 0 -131 28.5t-103 28.5q-34 0 -56 -19t-22 -49h-164q-5 129 56.5 208t167.5 79q47 0 138.5 -28.5t106.5 -28.5q33 0 54.5 18.5t21.5 48.5h164q9 -127 -55.5 -206.5t-177.5 -79.5zM139 0v1032h285v-1032h-285z" />
    <glyph glyph-name="Imacron" unicode="&#x12a;" horiz-adv-x="589" 
d="M-23 1898h633v-219h-633v219zM145 0v1536h297v-1536h-297z" />
    <glyph glyph-name="imacron" unicode="&#x12b;" horiz-adv-x="563" 
d="M-35 1427h633v-219h-633v219zM139 0v1032h285v-1032h-285z" />
    <glyph glyph-name="Ibreve" unicode="&#x12c;" horiz-adv-x="589" 
d="M295 1827q49 0 82 30t35 76h221q-2 -132 -95 -218.5t-243 -86.5q-151 0 -243.5 86.5t-94.5 218.5h221q2 -46 34 -76t83 -30zM145 0v1536h297v-1536h-297z" />
    <glyph glyph-name="ibreve" unicode="&#x12d;" horiz-adv-x="563" 
d="M283 1356q49 0 81.5 30t34.5 76h222q-2 -132 -95 -218.5t-243 -86.5q-151 0 -243.5 86.5t-94.5 218.5h221q2 -46 34 -76t83 -30zM139 0v1032h285v-1032h-285z" />
    <glyph glyph-name="Iogonek" unicode="&#x12e;" horiz-adv-x="589" 
d="M410 -487q-74 -31 -136 -31q-99 0 -171 54t-89 147q-28 191 131 317v1536h297v-1536h-32q-87 -42 -133.5 -106.5t-30.5 -147.5q6 -38 33.5 -61t64.5 -23q36 0 66 12v-161z" />
    <glyph glyph-name="iogonek" unicode="&#x12f;" horiz-adv-x="563" 
d="M281 1174q-71 0 -120.5 45.5t-49.5 115.5t49.5 116t120.5 46q70 0 117.5 -46t47.5 -116t-47.5 -115.5t-117.5 -45.5zM395 -487q-74 -31 -135 -31q-99 0 -171 54t-89 147q-28 194 137 323v1026h285v-1032h-27q-87 -42 -133.5 -106.5t-30.5 -147.5q6 -38 34 -61t65 -23
q35 0 65 12v-161z" />
    <glyph glyph-name="Idotaccent" unicode="&#x130;" horiz-adv-x="589" 
d="M295 1645q-71 0 -119.5 45.5t-48.5 115.5t48.5 116t119.5 46t119.5 -46t48.5 -116t-48.5 -115.5t-119.5 -45.5zM145 0v1536h297v-1536h-297z" />
    <glyph glyph-name="dotlessi" unicode="&#x131;" horiz-adv-x="563" 
d="M139 0v1032h285v-1032h-285z" />
    <glyph glyph-name="IJ" unicode="&#x132;" horiz-adv-x="1527" 
d="M145 0v1536h297v-1536h-297zM897 -20q-77 0 -154 21.5t-129 55.5v289q63 -46 138 -70t133 -24q103 0 157 54t54 157v1073h297v-1051q0 -248 -129 -376.5t-367 -128.5z" />
    <glyph glyph-name="ij" unicode="&#x133;" horiz-adv-x="1140" 
d="M281 1174q-71 0 -120.5 45.5t-49.5 115.5t49.5 116t120.5 46q70 0 117.5 -46t47.5 -116t-47.5 -115.5t-117.5 -45.5zM860 1174q-73 0 -121.5 45.5t-48.5 115.5t49 116t121 46q70 0 118 -46t48 -116t-48 -115.5t-118 -45.5zM137 0v1032h285v-1032h-285zM639 -532
q-109 0 -193 40v242q67 -31 129 -31t102 37.5t40 100.5v1175h284v-1177q0 -176 -98 -281.5t-264 -105.5z" />
    <glyph glyph-name="Jcircumflex" unicode="&#x134;" horiz-adv-x="952" 
d="M801 1649l-137 118l-136 -118h-266l248 280h307l250 -280h-266zM322 -20q-77 0 -154 21.5t-129 55.5v289q63 -46 137.5 -70t132.5 -24q103 0 157 54t54 157v1073h297v-1051q0 -248 -129 -376.5t-366 -128.5z" />
    <glyph glyph-name="jcircumflex" unicode="&#x135;" horiz-adv-x="563" 
d="M420 1178l-137 118l-136 -118h-266l248 280h307l250 -280h-266zM70 -532q-120 0 -201 40v242q61 -31 135 -31q61 0 98 36t37 95v1182h285v-1184q0 -171 -94.5 -275.5t-259.5 -104.5z" />
    <glyph glyph-name="Kcommaaccent" unicode="&#x136;" horiz-adv-x="1423" 
d="M1075 0l-450 668l-183 -209v-459h-297v1536h297v-678l580 678h367l-564 -641l607 -895h-357zM594 -117h276l-211 -346h-184z" />
    <glyph glyph-name="kcommaaccent" unicode="&#x137;" horiz-adv-x="1175" 
d="M834 0l-281 420l-129 -139v-281h-285v1536h285v-905l369 401h331l-381 -409l433 -623h-342zM483 -117h277l-211 -346h-184z" />
    <glyph glyph-name="Lacute" unicode="&#x139;" horiz-adv-x="1155" 
d="M319 1929h353l-295 -280h-252zM1108 266v-266h-963v1536h297v-1270h666z" />
    <glyph glyph-name="lacute" unicode="&#x13a;" horiz-adv-x="563" 
d="M305 1933h352l-295 -280h-251zM139 0v1536h285v-1536h-285z" />
    <glyph glyph-name="Lcommaaccent" unicode="&#x13b;" horiz-adv-x="1155" 
d="M1108 266v-266h-963v1536h297v-1270h666zM489 -117h277l-211 -346h-184z" />
    <glyph glyph-name="lcommaaccent" unicode="&#x13c;" horiz-adv-x="563" 
d="M139 0v1536h285v-1536h-285zM139 -117h277l-211 -346h-185z" />
    <glyph glyph-name="Lcaron" unicode="&#x13d;" horiz-adv-x="1155" 
d="M1108 266v-266h-963v1536h297v-1270h666zM754 1137h-179l62 399h274z" />
    <glyph glyph-name="lcaron" unicode="&#x13e;" horiz-adv-x="794" 
d="M139 0v1536h285v-1536h-285zM692 1137h-178l61 399h275z" />
    <glyph glyph-name="Ldot" unicode="&#x13f;" horiz-adv-x="1155" 
d="M1108 266v-266h-963v1536h297v-1270h666zM840 715q-71 0 -119.5 46.5t-48.5 115.5q0 71 49 117t119 46t118 -46t48 -117q0 -69 -48.5 -115.5t-117.5 -46.5z" />
    <glyph glyph-name="ldot" unicode="&#x140;" horiz-adv-x="817" 
d="M139 0v1536h285v-1536h-285zM682 623q-71 0 -119.5 46t-48.5 115q0 71 49 117.5t119 46.5t118 -46.5t48 -117.5q0 -69 -48 -115t-118 -46z" />
    <glyph glyph-name="Lslash" unicode="&#x141;" horiz-adv-x="1249" 
d="M1202 266v-266h-960v545l-217 -146v279l217 143v715h297v-516l247 164v-275l-247 -166v-477h663z" />
    <glyph glyph-name="lslash" unicode="&#x142;" horiz-adv-x="735" 
d="M721 834l-203 -136v-698h-285v508l-194 -131v272l194 129v758h285v-569l203 135v-268z" />
    <glyph glyph-name="Nacute" unicode="&#x143;" horiz-adv-x="1585" 
d="M786 1929h353l-295 -280h-252zM1440 -43l-998 948v-905h-297v1579l998 -948v905h297v-1579z" />
    <glyph glyph-name="nacute" unicode="&#x144;" horiz-adv-x="1228" 
d="M641 1458h352l-295 -280h-252zM424 520v-520h-285v1032h285v-112q120 133 305 133q173 0 276 -118.5t103 -297.5v-637h-285v569q0 211 -176 211q-101 0 -162 -75t-61 -185z" />
    <glyph glyph-name="Ncommaaccent" unicode="&#x145;" horiz-adv-x="1585" 
d="M1440 -43l-998 948v-905h-297v1579l998 -948v905h297v-1579zM711 -117h276l-211 -346h-184z" />
    <glyph glyph-name="ncommaaccent" unicode="&#x146;" horiz-adv-x="1228" 
d="M424 520v-520h-285v1032h285v-112q120 133 305 133q173 0 276 -118.5t103 -297.5v-637h-285v569q0 211 -176 211q-101 0 -162 -75t-61 -185zM489 -117h277l-211 -346h-184z" />
    <glyph glyph-name="Ncaron" unicode="&#x147;" horiz-adv-x="1585" 
d="M1223 1929l-254 -280h-307l-254 280h272l135 -119l137 119h271zM1440 -43l-998 948v-905h-297v1579l998 -948v905h297v-1579z" />
    <glyph glyph-name="ncaron" unicode="&#x148;" horiz-adv-x="1228" 
d="M1051 1458l-254 -280h-308l-253 280h272l135 -119l137 119h271zM424 520v-520h-285v1032h285v-112q120 133 305 133q173 0 276 -118.5t103 -297.5v-637h-285v569q0 211 -176 211q-101 0 -162 -75t-61 -185z" />
    <glyph glyph-name="Omacron" unicode="&#x14c;" horiz-adv-x="1724" 
d="M545 1898h633v-219h-633v219zM1657 772q0 -172 -59 -319.5t-163.5 -251t-252.5 -162.5t-320 -59q-230 0 -411 100.5t-282 281t-101 410.5q0 227 101.5 406.5t282.5 278.5t410 99q171 0 318.5 -58t252.5 -160.5t164.5 -249t59.5 -316.5zM862 258q217 0 353.5 146
t136.5 368q0 219 -137 361.5t-353 142.5t-352.5 -142.5t-136.5 -361.5q0 -222 136 -368t353 -146z" />
    <glyph glyph-name="omacron" unicode="&#x14d;" horiz-adv-x="1239" 
d="M299 1427h633v-219h-633v219zM625 -20q-243 0 -401 152t-158 390q0 153 73 274.5t200.5 189t285.5 67.5q237 0 393 -150t156 -381q0 -237 -155.5 -389.5t-393.5 -152.5zM883 518q0 117 -73 193.5t-187 76.5q-116 0 -191.5 -76.5t-75.5 -193.5q0 -120 75.5 -197t191.5 -77
q114 0 187 77t73 197z" />
    <glyph glyph-name="Obreve" unicode="&#x14e;" horiz-adv-x="1724" 
d="M860 1827q49 0 82 30t35 76h221q-2 -132 -95 -218.5t-243 -86.5q-151 0 -243.5 86.5t-94.5 218.5h221q2 -46 34 -76t83 -30zM1657 772q0 -172 -59 -319.5t-163.5 -251t-252.5 -162.5t-320 -59q-230 0 -411 100.5t-282 281t-101 410.5q0 227 101.5 406.5t282.5 278.5
t410 99q171 0 318.5 -58t252.5 -160.5t164.5 -249t59.5 -316.5zM862 258q217 0 353.5 146t136.5 368q0 219 -137 361.5t-353 142.5t-352.5 -142.5t-136.5 -361.5q0 -222 136 -368t353 -146z" />
    <glyph glyph-name="obreve" unicode="&#x14f;" horiz-adv-x="1239" 
d="M616 1356q49 0 82 30t35 76h221q-2 -132 -95 -218.5t-243 -86.5q-151 0 -243 86.5t-94 218.5h221q2 -46 34 -76t82 -30zM625 -20q-243 0 -401 152t-158 390q0 153 73 274.5t200.5 189t285.5 67.5q237 0 393 -150t156 -381q0 -237 -155.5 -389.5t-393.5 -152.5zM883 518
q0 117 -73 193.5t-187 76.5q-116 0 -191.5 -76.5t-75.5 -193.5q0 -120 75.5 -197t191.5 -77q114 0 187 77t73 197z" />
    <glyph glyph-name="Ohungarumlaut" unicode="&#x150;" horiz-adv-x="1724" 
d="M768 1649h-211l148 280h288zM1106 1649h-213l156 280h299zM1657 772q0 -172 -59 -319.5t-163.5 -251t-252.5 -162.5t-320 -59q-230 0 -411 100.5t-282 281t-101 410.5q0 227 101.5 406.5t282.5 278.5t410 99q171 0 318.5 -58t252.5 -160.5t164.5 -249t59.5 -316.5z
M862 258q217 0 353.5 146t136.5 368q0 219 -137 361.5t-353 142.5t-352.5 -142.5t-136.5 -361.5q0 -222 136 -368t353 -146z" />
    <glyph glyph-name="ohungarumlaut" unicode="&#x151;" horiz-adv-x="1239" 
d="M541 1178h-211l147 280h289zM879 1178h-213l155 280h299zM625 -20q-243 0 -401 152t-158 390q0 153 73 274.5t200.5 189t285.5 67.5q237 0 393 -150t156 -381q0 -237 -155.5 -389.5t-393.5 -152.5zM883 518q0 117 -73 193.5t-187 76.5q-116 0 -191.5 -76.5t-75.5 -193.5
q0 -120 75.5 -197t191.5 -77q114 0 187 77t73 197z" />
    <glyph glyph-name="OE" unicode="&#x152;" horiz-adv-x="2058" 
d="M68 766q0 225 94.5 399.5t270.5 272.5t407 98h1128v-268h-670v-348h586v-267h-586v-389h693v-264h-1145q-174 0 -319.5 56.5t-246 156.5t-156.5 242.5t-56 310.5zM852 270h149v996h-149q-222 0 -350.5 -139.5t-128.5 -360.5t128 -358.5t351 -137.5z" />
    <glyph glyph-name="oe" unicode="&#x153;" horiz-adv-x="1980" 
d="M1821 68q-166 -88 -363 -88q-283 0 -432 161q-155 -161 -401 -161q-243 0 -401 152t-158 390q0 153 73 274.5t200.5 189t285.5 67.5q124 0 228 -42.5t177 -121.5q145 164 381 164q224 0 361 -141t137 -367q0 -67 -8 -127h-711q26 -94 103 -144.5t186 -50.5q184 0 342 96
v-251zM1403 819q-91 0 -146 -53.5t-75 -147.5h434q-12 97 -67 149t-146 52zM623 244q115 0 186.5 78t71.5 196q0 119 -71 194.5t-187 75.5q-117 0 -192 -76t-75 -194q0 -119 74.5 -196.5t192.5 -77.5z" />
    <glyph glyph-name="Racute" unicode="&#x154;" horiz-adv-x="1310" 
d="M621 1929h352l-295 -280h-252zM145 0v1536h500q246 0 397.5 -140t151.5 -372q0 -160 -80 -279t-213 -180l375 -565h-352l-326 512h-156v-512h-297zM625 1274h-183v-502h183q124 0 194 67.5t70 184.5q0 116 -70 183t-194 67z" />
    <glyph glyph-name="racute" unicode="&#x155;" horiz-adv-x="784" 
d="M457 1458h352l-295 -280h-252zM424 459v-459h-285v1032h285v-174q131 195 352 195v-318q-144 33 -248 -42.5t-104 -233.5z" />
    <glyph glyph-name="Rcommaaccent" unicode="&#x156;" horiz-adv-x="1310" 
d="M145 0v1536h500q246 0 397.5 -140t151.5 -372q0 -160 -80 -279t-213 -180l375 -565h-352l-326 512h-156v-512h-297zM625 1274h-183v-502h183q124 0 194 67.5t70 184.5q0 116 -70 183t-194 67zM563 -117h277l-211 -346h-185z" />
    <glyph glyph-name="rcommaaccent" unicode="&#x157;" horiz-adv-x="784" 
d="M424 459v-459h-285v1032h285v-174q131 195 352 195v-318q-144 33 -248 -42.5t-104 -233.5zM145 -117h277l-211 -346h-184z" />
    <glyph glyph-name="Rcaron" unicode="&#x158;" horiz-adv-x="1310" 
d="M1042 1929l-254 -280h-307l-254 280h273l135 -119l137 119h270zM145 0v1536h500q246 0 397.5 -140t151.5 -372q0 -160 -80 -279t-213 -180l375 -565h-352l-326 512h-156v-512h-297zM625 1274h-183v-502h183q124 0 194 67.5t70 184.5q0 116 -70 183t-194 67z" />
    <glyph glyph-name="rcaron" unicode="&#x159;" horiz-adv-x="784" 
d="M874 1458l-253 -280h-308l-254 280h273l135 -119l137 119h270zM424 459v-459h-285v1032h285v-174q131 195 352 195v-318q-144 33 -248 -42.5t-104 -233.5z" />
    <glyph glyph-name="Sacute" unicode="&#x15a;" horiz-adv-x="1163" 
d="M627 1929h352l-295 -280h-252zM625 1298q-91 0 -150 -42.5t-59 -122.5q0 -53 31.5 -90t95.5 -70l299 -154q136 -68 201 -155t65 -213q0 -214 -152 -342.5t-393 -128.5q-285 0 -477 143v346q120 -112 246.5 -169.5t234.5 -57.5q94 0 156.5 39.5t62.5 113.5
q0 60 -29.5 95.5t-113.5 78.5l-272 140q-134 65 -202.5 158.5t-68.5 238.5q0 205 147.5 327.5t373.5 122.5q239 0 405 -104v-328q-216 174 -401 174z" />
    <glyph glyph-name="sacute" unicode="&#x15b;" horiz-adv-x="911" 
d="M512 1458h352l-295 -280h-252zM82 354q164 -161 352 -161q63 0 98 22t35 61q0 27 -15.5 47.5t-53.5 38.5l-191 82q-74 32 -121 67t-76.5 92t-29.5 134q0 145 105.5 230.5t281.5 85.5q192 0 326 -84v-267q-76 65 -160 102.5t-154 37.5q-55 0 -87 -21t-32 -57
q0 -32 17.5 -50.5t62.5 -37.5l197 -86q110 -48 161.5 -111t51.5 -155q0 -159 -117 -251.5t-303 -92.5q-203 0 -348 94v280z" />
    <glyph glyph-name="Scircumflex" unicode="&#x15c;" horiz-adv-x="1163" 
d="M772 1649l-137 118l-135 -118h-267l248 280h307l250 -280h-266zM625 1298q-91 0 -150 -42.5t-59 -122.5q0 -53 31.5 -90t95.5 -70l299 -154q136 -68 201 -155t65 -213q0 -214 -152 -342.5t-393 -128.5q-285 0 -477 143v346q120 -112 246.5 -169.5t234.5 -57.5
q94 0 156.5 39.5t62.5 113.5q0 60 -29.5 95.5t-113.5 78.5l-272 140q-134 65 -202.5 158.5t-68.5 238.5q0 205 147.5 327.5t373.5 122.5q239 0 405 -104v-328q-216 174 -401 174z" />
    <glyph glyph-name="scircumflex" unicode="&#x15d;" horiz-adv-x="911" 
d="M627 1178l-138 118l-135 -118h-266l248 280h307l250 -280h-266zM82 354q164 -161 352 -161q63 0 98 22t35 61q0 27 -15.5 47.5t-53.5 38.5l-191 82q-74 32 -121 67t-76.5 92t-29.5 134q0 145 105.5 230.5t281.5 85.5q192 0 326 -84v-267q-76 65 -160 102.5t-154 37.5
q-55 0 -87 -21t-32 -57q0 -32 17.5 -50.5t62.5 -37.5l197 -86q110 -48 161.5 -111t51.5 -155q0 -159 -117 -251.5t-303 -92.5q-203 0 -348 94v280z" />
    <glyph glyph-name="Scedilla" unicode="&#x15e;" horiz-adv-x="1163" 
d="M819 -317q0 -95 -82 -147t-205 -52q-74 0 -155 33v139q76 -39 141 -39q40 0 66 18t26 50t-24.5 50.5t-61.5 18.5t-80 -16l-38 43l83 201q-237 16 -403 141v346q120 -112 246.5 -169.5t234.5 -57.5q94 0 156.5 39.5t62.5 113.5q0 60 -29.5 95.5t-113.5 78.5l-272 140
q-134 65 -202.5 158.5t-68.5 238.5q0 205 147.5 327.5t373.5 122.5q239 0 405 -104v-328q-216 174 -401 174q-91 0 -150 -42.5t-59 -122.5q0 -53 31.5 -90t95.5 -70l299 -154q136 -68 201 -155t65 -213q0 -189 -120 -312.5t-318 -150.5l-56 -123q91 -6 148 -52.5t57 -129.5z
" />
    <glyph glyph-name="scedilla" unicode="&#x15f;" horiz-adv-x="911" 
d="M707 -317q0 -95 -82 -147t-205 -52q-75 0 -156 33v139q76 -39 142 -39q40 0 66 18t26 50t-24.5 50.5t-61.5 18.5t-80 -16l-39 43l84 201q-171 12 -295 92v280q164 -161 352 -161q63 0 98 22t35 61q0 27 -15.5 47.5t-53.5 38.5l-191 82q-74 32 -121 67t-76.5 92t-29.5 134
q0 145 105.5 230.5t281.5 85.5q192 0 326 -84v-267q-76 65 -160 102.5t-154 37.5q-55 0 -87 -21t-32 -57q0 -32 17.5 -50.5t62.5 -37.5l197 -86q110 -48 161.5 -111t51.5 -155q0 -128 -78 -215t-211 -115l-59 -129q91 -6 148 -52.5t57 -129.5z" />
    <glyph glyph-name="Scaron" unicode="&#x160;" horiz-adv-x="1163" 
d="M1022 1929l-254 -280h-307l-254 280h272l135 -119l138 119h270zM625 1298q-91 0 -150 -42.5t-59 -122.5q0 -53 31.5 -90t95.5 -70l299 -154q136 -68 201 -155t65 -213q0 -214 -152 -342.5t-393 -128.5q-285 0 -477 143v346q120 -112 246.5 -169.5t234.5 -57.5
q94 0 156.5 39.5t62.5 113.5q0 60 -29.5 95.5t-113.5 78.5l-272 140q-134 65 -202.5 158.5t-68.5 238.5q0 205 147.5 327.5t373.5 122.5q239 0 405 -104v-328q-216 174 -401 174z" />
    <glyph glyph-name="scaron" unicode="&#x161;" horiz-adv-x="911" 
d="M915 1458l-253 -280h-308l-254 280h273l135 -119l137 119h270zM82 354q164 -161 352 -161q63 0 98 22t35 61q0 27 -15.5 47.5t-53.5 38.5l-191 82q-74 32 -121 67t-76.5 92t-29.5 134q0 145 105.5 230.5t281.5 85.5q192 0 326 -84v-267q-76 65 -160 102.5t-154 37.5
q-55 0 -87 -21t-32 -57q0 -32 17.5 -50.5t62.5 -37.5l197 -86q110 -48 161.5 -111t51.5 -155q0 -159 -117 -251.5t-303 -92.5q-203 0 -348 94v280z" />
    <glyph glyph-name="uni0162" unicode="&#x162;" horiz-adv-x="1296" 
d="M1266 1268h-469v-1268h-297v1268h-469v268h1235v-268zM504 -117h276l-211 -346h-184z" />
    <glyph glyph-name="uni0163" unicode="&#x163;" horiz-adv-x="827" 
d="M776 49q-101 -69 -262 -69q-192 0 -293.5 98.5t-101.5 316.5v936h284v-299h367v-246h-367v-387q0 -80 45 -119.5t117 -39.5q112 0 211 61v-252zM334 -117h276l-211 -346h-184z" />
    <glyph glyph-name="Tcaron" unicode="&#x164;" horiz-adv-x="1296" 
d="M1059 1929l-254 -280h-307l-254 280h272l135 -119l137 119h271zM1266 1268h-469v-1268h-297v1268h-469v268h1235v-268z" />
    <glyph glyph-name="tcaron" unicode="&#x165;" horiz-adv-x="827" 
d="M678 1151h-178l61 399h275zM776 49q-101 -69 -262 -69q-192 0 -293.5 98.5t-101.5 316.5v936h284v-299h367v-246h-367v-387q0 -80 45 -119.5t117 -39.5q112 0 211 61v-252z" />
    <glyph glyph-name="Tbar" unicode="&#x166;" horiz-adv-x="1296" 
d="M1065 551h-268v-551h-297v551h-269v223h269v494h-469v268h1235v-268h-469v-494h268v-223z" />
    <glyph glyph-name="tbar" unicode="&#x167;" horiz-adv-x="831" 
d="M782 49q-101 -69 -262 -69q-192 0 -293.5 98.5t-101.5 316.5v936h283v-299h366v-246h-366v-153h364v-189h-364v-45q0 -80 45 -119.5t118 -39.5q112 0 211 61v-252z" />
    <glyph glyph-name="Utilde" unicode="&#x168;" horiz-adv-x="1552" 
d="M924 1649q-48 0 -131 28.5t-103 28.5q-34 0 -56 -19t-22 -49h-163q-5 129 56 208t167 79q47 0 139 -28.5t107 -28.5q33 0 54 18.5t21 48.5h164q9 -127 -55.5 -206.5t-177.5 -79.5zM135 623v913h297v-911q0 -170 93 -269.5t251 -99.5q155 0 248.5 100t93.5 269v911h297
v-913q0 -291 -177 -467t-464 -176q-290 0 -464.5 175.5t-174.5 467.5z" />
    <glyph glyph-name="utilde" unicode="&#x169;" horiz-adv-x="1181" 
d="M729 1180q-48 0 -130.5 28.5t-102.5 28.5q-34 0 -56 -19t-22 -49h-164q-5 129 56 208t167 79q47 0 139 -28.5t107 -28.5q33 0 54.5 18.5t21.5 48.5h164q9 -127 -55.5 -206.5t-178.5 -79.5zM784 446v586h285v-577q0 -217 -131.5 -346t-347.5 -129q-215 0 -347 129
t-132 346v577h284v-586q0 -97 53 -149.5t142 -52.5t141.5 52.5t52.5 149.5z" />
    <glyph glyph-name="Umacron" unicode="&#x16a;" horiz-adv-x="1552" 
d="M459 1898h633v-219h-633v219zM135 623v913h297v-911q0 -170 93 -269.5t251 -99.5q155 0 248.5 100t93.5 269v911h297v-913q0 -291 -177 -467t-464 -176q-290 0 -464.5 175.5t-174.5 467.5z" />
    <glyph glyph-name="umacron" unicode="&#x16b;" horiz-adv-x="1181" 
d="M270 1427h633v-219h-633v219zM784 446v586h285v-577q0 -217 -131.5 -346t-347.5 -129q-215 0 -347 129t-132 346v577h284v-586q0 -97 53 -149.5t142 -52.5t141.5 52.5t52.5 149.5z" />
    <glyph glyph-name="Ubreve" unicode="&#x16c;" horiz-adv-x="1552" 
d="M774 1827q49 0 82 30t35 76h221q-2 -132 -95 -218.5t-243 -86.5q-151 0 -243.5 86.5t-94.5 218.5h221q2 -46 34 -76t83 -30zM135 623v913h297v-911q0 -170 93 -269.5t251 -99.5q155 0 248.5 100t93.5 269v911h297v-913q0 -291 -177 -467t-464 -176q-290 0 -464.5 175.5
t-174.5 467.5z" />
    <glyph glyph-name="ubreve" unicode="&#x16d;" horiz-adv-x="1181" 
d="M584 1356q49 0 81.5 30t34.5 76h222q-2 -132 -95 -218.5t-243 -86.5q-151 0 -243.5 86.5t-94.5 218.5h221q2 -46 34 -76t83 -30zM784 446v586h285v-577q0 -217 -131.5 -346t-347.5 -129q-215 0 -347 129t-132 346v577h284v-586q0 -97 53 -149.5t142 -52.5t141.5 52.5
t52.5 149.5z" />
    <glyph glyph-name="Uring" unicode="&#x16e;" horiz-adv-x="1552" 
d="M774 1997q100 0 165 -59t65 -154q0 -96 -65 -156.5t-165 -60.5q-99 0 -162 59t-63 154q0 96 63 156.5t162 60.5zM696 1780q0 -34 21.5 -55t56.5 -21q37 0 58.5 21.5t21.5 56.5t-22.5 56.5t-57.5 21.5q-37 0 -57.5 -21.5t-20.5 -58.5zM135 623v913h297v-911
q0 -170 93 -269.5t251 -99.5q155 0 248.5 100t93.5 269v911h297v-913q0 -291 -177 -467t-464 -176q-290 0 -464.5 175.5t-174.5 467.5z" />
    <glyph glyph-name="uring" unicode="&#x16f;" horiz-adv-x="1181" 
d="M584 1577q100 0 164.5 -59t64.5 -154q0 -96 -64.5 -156.5t-164.5 -60.5q-99 0 -162.5 59t-63.5 154q0 96 63.5 156.5t162.5 60.5zM506 1360q0 -34 21.5 -55t56.5 -21q37 0 58.5 21.5t21.5 56.5t-22.5 56.5t-57.5 21.5q-37 0 -57.5 -21.5t-20.5 -58.5zM784 446v586h285
v-577q0 -217 -131.5 -346t-347.5 -129q-215 0 -347 129t-132 346v577h284v-586q0 -97 53 -149.5t142 -52.5t141.5 52.5t52.5 149.5z" />
    <glyph glyph-name="Uhungarumlaut" unicode="&#x170;" horiz-adv-x="1552" 
d="M692 1649h-211l148 280h289zM1030 1649h-213l156 280h299zM135 623v913h297v-911q0 -170 93 -269.5t251 -99.5q155 0 248.5 100t93.5 269v911h297v-913q0 -291 -177 -467t-464 -176q-290 0 -464.5 175.5t-174.5 467.5z" />
    <glyph glyph-name="uhungarumlaut" unicode="&#x171;" horiz-adv-x="1181" 
d="M510 1178h-211l147 280h289zM848 1178h-213l156 280h299zM784 446v586h285v-577q0 -217 -131.5 -346t-347.5 -129q-215 0 -347 129t-132 346v577h284v-586q0 -97 53 -149.5t142 -52.5t141.5 52.5t52.5 149.5z" />
    <glyph glyph-name="Uogonek" unicode="&#x172;" horiz-adv-x="1550" 
d="M1102 -485q-78 -31 -135 -31q-114 0 -188 64t-77 178q-6 145 103 254h-33q-289 0 -463 176.5t-174 468.5v911h297v-909q0 -171 92.5 -271t249.5 -100q155 0 249.5 100.5t94.5 270.5v909h295v-911q0 -193 -80.5 -339t-224.5 -227q-184 -114 -176 -280q2 -48 29 -82.5
t75 -34.5q38 0 66 14v-161z" />
    <glyph glyph-name="uogonek" unicode="&#x173;" horiz-adv-x="1181" 
d="M868 -485q-74 -31 -135 -31q-99 0 -171 53t-89 146q-26 178 109 297q-212 3 -341.5 131.5t-129.5 343.5v577h284v-586q0 -97 53 -149.5t142 -52.5t141.5 52.5t52.5 149.5v586h285v-577q0 -132 -50 -234.5t-142 -163.5q-205 -138 -175 -309q6 -38 34.5 -62t66.5 -24
q37 0 65 14v-161z" />
    <glyph glyph-name="Wcircumflex" unicode="&#x174;" horiz-adv-x="2332" 
d="M1313 1649l-137 118l-136 -118h-266l248 280h307l250 -280h-266zM2318 1536l-721 -1579l-432 946l-436 -946l-715 1579h340l383 -893l437 936l432 -932l383 889h329z" />
    <glyph glyph-name="wcircumflex" unicode="&#x175;" horiz-adv-x="1648" 
d="M965 1178l-138 118l-135 -118h-266l248 280h307l250 -280h-266zM1649 1032l-484 -1073l-327 594l-336 -594l-502 1073h326l215 -487l295 526l294 -528l216 489h303z" />
    <glyph glyph-name="Ycircumflex" unicode="&#x176;" horiz-adv-x="1478" 
d="M879 1649l-138 118l-135 -118h-266l248 280h307l250 -280h-266zM1468 1536l-569 -973v-563h-297v535l-594 1001h342l395 -692l394 692h329z" />
    <glyph glyph-name="ycircumflex" unicode="&#x177;" horiz-adv-x="1120" 
d="M705 1178l-138 118l-135 -118h-266l248 280h307l250 -280h-266zM1120 1032l-743 -1544h-297l340 711l-420 833h332l243 -512l246 512h299z" />
    <glyph glyph-name="Ydieresis" unicode="&#x178;" horiz-adv-x="1478" 
d="M537 1649q-68 0 -110 39.5t-42 105.5t42 107t110 41q67 0 108 -41t41 -107t-40.5 -105.5t-108.5 -39.5zM948 1649q-68 0 -109.5 39.5t-41.5 105.5t42 107t109 41q66 0 108 -41t42 -107q0 -65 -41.5 -105t-108.5 -40zM1468 1536l-569 -973v-563h-297v535l-594 1001h342
l395 -692l394 692h329z" />
    <glyph glyph-name="Zacute" unicode="&#x179;" horiz-adv-x="1357" 
d="M717 1929h352l-295 -280h-252zM1292 260v-260h-1265l798 1274h-735v262h1235l-790 -1276h757z" />
    <glyph glyph-name="zacute" unicode="&#x17a;" horiz-adv-x="995" 
d="M516 1458h352l-295 -280h-251zM934 246v-246h-903l479 786h-426v246h868l-465 -786h447z" />
    <glyph glyph-name="Zdotaccent" unicode="&#x17b;" horiz-adv-x="1357" 
d="M682 1645q-71 0 -119.5 45.5t-48.5 115.5t48.5 116t119.5 46t119.5 -46t48.5 -116t-48.5 -115.5t-119.5 -45.5zM1292 260v-260h-1265l798 1274h-735v262h1235l-790 -1276h757z" />
    <glyph glyph-name="zdotaccent" unicode="&#x17c;" horiz-adv-x="995" 
d="M500 1174q-71 0 -119.5 45.5t-48.5 115.5t48.5 116t119.5 46t119.5 -46t48.5 -116t-48.5 -115.5t-119.5 -45.5zM934 246v-246h-903l479 786h-426v246h868l-465 -786h447z" />
    <glyph glyph-name="Zcaron" unicode="&#x17d;" horiz-adv-x="1357" 
d="M1112 1929l-254 -280h-307l-254 280h272l136 -119l137 119h270zM1292 260v-260h-1265l798 1274h-735v262h1235l-790 -1276h757z" />
    <glyph glyph-name="zcaron" unicode="&#x17e;" horiz-adv-x="995" 
d="M915 1458l-253 -280h-308l-254 280h273l135 -119l137 119h270zM934 246v-246h-903l479 786h-426v246h868l-465 -786h447z" />
    <glyph glyph-name="florin" unicode="&#x192;" horiz-adv-x="1073" 
d="M610 338q-33 -167 -142.5 -262.5t-287.5 -95.5q-85 0 -176 32v248q83 -39 156 -39q149 0 182 172l152 729q20 100 52 175.5t82 135.5t125 91.5t173 31.5q102 0 180 -34v-250q-72 37 -143 37q-156 0 -189 -170l-22 -107h295v-246h-345z" />
    <glyph glyph-name="uni0218" unicode="&#x218;" horiz-adv-x="1163" 
d="M625 1298q-91 0 -150 -42.5t-59 -122.5q0 -53 31.5 -90t95.5 -70l299 -154q136 -68 201 -155t65 -213q0 -214 -152 -342.5t-393 -128.5q-285 0 -477 143v346q120 -112 246.5 -169.5t234.5 -57.5q94 0 156.5 39.5t62.5 113.5q0 60 -29.5 95.5t-113.5 78.5l-272 140
q-134 65 -202.5 158.5t-68.5 238.5q0 205 147.5 327.5t373.5 122.5q239 0 405 -104v-328q-216 174 -401 174zM455 -117h276l-211 -346h-184z" />
    <glyph glyph-name="uni0219" unicode="&#x219;" horiz-adv-x="911" 
d="M82 354q164 -161 352 -161q63 0 98 22t35 61q0 27 -15.5 47.5t-53.5 38.5l-191 82q-74 32 -121 67t-76.5 92t-29.5 134q0 145 105.5 230.5t281.5 85.5q192 0 326 -84v-267q-76 65 -160 102.5t-154 37.5q-55 0 -87 -21t-32 -57q0 -32 17.5 -50.5t62.5 -37.5l197 -86
q110 -48 161.5 -111t51.5 -155q0 -159 -117 -251.5t-303 -92.5q-203 0 -348 94v280zM340 -117h276l-210 -346h-185z" />
    <glyph glyph-name="uni021A" unicode="&#x21a;" horiz-adv-x="1296" 
d="M1266 1268h-469v-1268h-297v1268h-469v268h1235v-268zM504 -117h276l-211 -346h-184z" />
    <glyph glyph-name="uni021B" unicode="&#x21b;" horiz-adv-x="827" 
d="M776 49q-101 -69 -262 -69q-192 0 -293.5 98.5t-101.5 316.5v936h284v-299h367v-246h-367v-387q0 -80 45 -119.5t117 -39.5q112 0 211 61v-252zM334 -117h276l-211 -346h-184z" />
    <glyph glyph-name="dotlessj" unicode="&#x237;" horiz-adv-x="563" 
d="M70 -532q-120 0 -201 40v242q61 -31 135 -31q61 0 98 36t37 95v1182h285v-1184q0 -171 -94.5 -275.5t-259.5 -104.5z" />
    <glyph glyph-name="circumflex" unicode="&#x2c6;" horiz-adv-x="1099" 
d="M688 1178l-137 118l-135 -118h-266l247 280h308l249 -280h-266z" />
    <glyph glyph-name="caron" unicode="&#x2c7;" horiz-adv-x="1099" 
d="M958 1458l-253 -280h-308l-254 280h273l135 -119l137 119h270z" />
    <glyph glyph-name="breve" unicode="&#x2d8;" horiz-adv-x="1099" 
d="M555 1356q49 0 82 30t35 76h221q-2 -132 -95 -218.5t-243 -86.5q-151 0 -243.5 86.5t-94.5 218.5h221q2 -46 34 -76t83 -30z" />
    <glyph glyph-name="dotaccent" unicode="&#x2d9;" horiz-adv-x="1026" 
d="M535 1174q-71 0 -119.5 45.5t-48.5 115.5t48.5 116t119.5 46t119 -46t48 -116t-48 -115.5t-119 -45.5z" />
    <glyph glyph-name="ring" unicode="&#x2da;" horiz-adv-x="1099" 
d="M551 1577q100 0 164.5 -59t64.5 -154q0 -96 -64.5 -156.5t-164.5 -60.5q-99 0 -162 59t-63 154q0 96 63 156.5t162 60.5zM473 1360q0 -34 21.5 -55t56.5 -21q37 0 58.5 21.5t21.5 56.5t-22.5 56.5t-57.5 21.5q-37 0 -57.5 -21.5t-20.5 -58.5z" />
    <glyph glyph-name="ogonek" unicode="&#x2db;" horiz-adv-x="1069" 
d="M387 -317q-13 82 11 153.5t76.5 124.5t123.5 91.5t158 62.5l26 -115q-87 -42 -133.5 -106.5t-30.5 -147.5q6 -38 34 -61t65 -23q35 0 65 12v-161q-74 -31 -135 -31q-99 0 -171 54t-89 147z" />
    <glyph glyph-name="tilde" unicode="&#x2dc;" horiz-adv-x="1099" 
d="M680 1180q-48 0 -131 28.5t-103 28.5q-34 0 -55.5 -18.5t-21.5 -49.5h-164q-5 129 56 208t167 79q47 0 139 -28.5t107 -28.5q33 0 54.5 18.5t21.5 48.5h163q9 -127 -55.5 -206.5t-177.5 -79.5z" />
    <glyph glyph-name="hungarumlaut" unicode="&#x2dd;" horiz-adv-x="1099" 
d="M465 1178h-211l147 280h289zM803 1178h-213l155 280h299z" />
    <glyph glyph-name="uni0394" unicode="&#x394;" horiz-adv-x="1558" 
d="M772 1579l772 -1579h-1530zM442 252h676l-344 737z" />
    <glyph glyph-name="uni03A9" unicode="&#x3a9;" horiz-adv-x="1495" 
d="M1315 0h-514v485q133 55 207.5 169.5t74.5 263.5q0 162 -92 265t-243 103q-152 0 -244 -105t-92 -270q0 -145 72 -258t202 -168v-485h-514v250h270v108q-152 92 -237.5 238.5t-85.5 331.5q0 184 81.5 328t224.5 222t323 78q179 0 321.5 -77t224.5 -219.5t82 -325.5
q0 -187 -88 -336t-244 -240v-108h271v-250z" />
    <glyph glyph-name="mu" unicode="&#x3bc;" horiz-adv-x="1251" 
d="M145 -512v1544h285v-602q0 -91 43.5 -139.5t122.5 -48.5q107 0 165 75t58 185v530h285v-1032h-285v141q-118 -161 -325 -161q-46 0 -82 8v-500h-267z" />
    <glyph glyph-name="pi" unicode="&#x3c0;" horiz-adv-x="1474" 
d="M1399 10q-85 -30 -162 -30q-162 0 -255 90.5t-93 248.5v453h-361v-772h-292v772h-195v260h1329v-260h-196v-434q0 -56 33.5 -89.5t88.5 -33.5q50 0 103 18v-223z" />
    <glyph glyph-name="Wgrave" unicode="&#x1e80;" horiz-adv-x="2332" 
d="M801 1929h352l195 -280h-250zM2318 1536l-721 -1579l-432 946l-436 -946l-715 1579h340l383 -893l437 936l432 -932l383 889h329z" />
    <glyph glyph-name="wgrave" unicode="&#x1e81;" horiz-adv-x="1648" 
d="M432 1458h352l195 -280h-250zM1649 1032l-484 -1073l-327 594l-336 -594l-502 1073h326l215 -487l295 526l294 -528l216 489h303z" />
    <glyph glyph-name="Wacute" unicode="&#x1e82;" horiz-adv-x="2332" 
d="M1192 1929h352l-295 -280h-252zM2318 1536l-721 -1579l-432 946l-436 -946l-715 1579h340l383 -893l437 936l432 -932l383 889h329z" />
    <glyph glyph-name="wacute" unicode="&#x1e83;" horiz-adv-x="1648" 
d="M872 1458h353l-295 -280h-252zM1649 1032l-484 -1073l-327 594l-336 -594l-502 1073h326l215 -487l295 526l294 -528l216 489h303z" />
    <glyph glyph-name="Wdieresis" unicode="&#x1e84;" horiz-adv-x="2332" 
d="M971 1649q-68 0 -110 39.5t-42 105.5t42 107t110 41q67 0 108 -41t41 -107t-40.5 -105.5t-108.5 -39.5zM1382 1649q-68 0 -109.5 39.5t-41.5 105.5t42 107t109 41q66 0 108 -41t42 -107q0 -65 -41.5 -105t-108.5 -40zM2318 1536l-721 -1579l-432 946l-436 -946l-715 1579
h340l383 -893l437 936l432 -932l383 889h329z" />
    <glyph glyph-name="wdieresis" unicode="&#x1e85;" horiz-adv-x="1648" 
d="M623 1178q-68 0 -110 39.5t-42 105.5t42 106.5t110 40.5q67 0 108 -40.5t41 -106.5t-40.5 -105.5t-108.5 -39.5zM1034 1178q-68 0 -109.5 39.5t-41.5 105.5t41.5 106.5t109.5 40.5q66 0 108 -40.5t42 -106.5q0 -65 -41.5 -105t-108.5 -40zM1649 1032l-484 -1073l-327 594
l-336 -594l-502 1073h326l215 -487l295 526l294 -528l216 489h303z" />
    <glyph glyph-name="Ygrave" unicode="&#x1ef2;" horiz-adv-x="1478" 
d="M377 1929h352l195 -280h-250zM1468 1536l-569 -973v-563h-297v535l-594 1001h342l395 -692l394 692h329z" />
    <glyph glyph-name="ygrave" unicode="&#x1ef3;" horiz-adv-x="1120" 
d="M188 1458h353l194 -280h-250zM1120 1032l-743 -1544h-297l340 711l-420 833h332l243 -512l246 512h299z" />
    <glyph glyph-name="endash" unicode="&#x2013;" horiz-adv-x="1024" 
d="M41 475v250h942v-250h-942z" />
    <glyph glyph-name="emdash" unicode="&#x2014;" horiz-adv-x="2048" 
d="M41 725h1966v-250h-1966v250z" />
    <glyph glyph-name="quoteleft" unicode="&#x2018;" horiz-adv-x="487" 
d="M262 1536h182l-151 -274q117 -53 117 -162q0 -75 -50.5 -121.5t-128.5 -46.5t-128 49t-50 125q0 80 51 164z" />
    <glyph glyph-name="quoteright" unicode="&#x2019;" horiz-adv-x="483" 
d="M225 952h-182l150 275q-117 53 -117 162q0 75 50 121t128 46q76 0 126 -50t50 -126q0 -73 -51 -163z" />
    <glyph glyph-name="quotesinglbase" unicode="&#x201a;" horiz-adv-x="483" 
d="M225 -324h-182l150 275q-117 50 -117 160q0 74 50 119.5t128 45.5q76 0 126 -49.5t50 -124.5q0 -71 -51 -161z" />
    <glyph glyph-name="quotedblleft" unicode="&#x201c;" horiz-adv-x="917" 
d="M258 1536h182l-151 -274q117 -52 117 -162q0 -76 -50 -122t-127 -46t-126.5 49t-49.5 125q0 74 51 164zM692 1536h182l-151 -274q117 -52 117 -162q0 -76 -49.5 -122t-126.5 -46q-78 0 -127.5 49.5t-49.5 124.5q0 73 52 164z" />
    <glyph glyph-name="quotedblright" unicode="&#x201d;" horiz-adv-x="917" 
d="M225 952h-182l150 275q-117 53 -117 162q0 75 50 121t128 46q76 0 126 -50t50 -126q0 -73 -51 -163zM659 952h-182l152 275q-119 53 -119 162q0 75 50 121t128 46t127 -49.5t49 -126.5q0 -73 -51 -163z" />
    <glyph glyph-name="quotedblbase" unicode="&#x201e;" horiz-adv-x="917" 
d="M225 -324h-182l150 275q-117 50 -117 160q0 74 50 119.5t128 45.5q76 0 126 -49.5t50 -124.5q0 -71 -51 -161zM659 -324h-182l152 275q-119 49 -119 160q0 74 50 119.5t128 45.5t127 -49t49 -125q0 -71 -51 -161z" />
    <glyph glyph-name="dagger" unicode="&#x2020;" horiz-adv-x="952" 
d="M850 1044h-272v-622h-203v622h-273v203h273v289h203v-289h272v-203z" />
    <glyph glyph-name="daggerdbl" unicode="&#x2021;" horiz-adv-x="952" 
d="M850 358h-272v-358h-203v358h-273v203h273v420h-273v203h273v352h203v-352h272v-203h-272v-420h272v-203z" />
    <glyph glyph-name="bullet" unicode="&#x2022;" horiz-adv-x="880" 
d="M440 403q-128 0 -220.5 91.5t-92.5 218.5t92.5 219t220.5 92q129 0 221.5 -91.5t92.5 -219.5q0 -127 -92.5 -218.5t-221.5 -91.5z" />
    <glyph glyph-name="ellipsis" unicode="&#x2026;" horiz-adv-x="1693" 
d="M276 -20q-82 0 -133 48.5t-51 127.5q0 78 51.5 128t132.5 50q79 0 130 -50t51 -128q0 -79 -50.5 -127.5t-130.5 -48.5zM848 -20q-82 0 -133 48.5t-51 127.5q0 78 51.5 128t132.5 50q80 0 131 -50t51 -128q0 -79 -51 -127.5t-131 -48.5zM1419 -20q-82 0 -133 48.5
t-51 127.5q0 78 51.5 128t132.5 50q80 0 131.5 -50t51.5 -128q0 -79 -51.5 -127.5t-131.5 -48.5z" />
    <glyph glyph-name="perthousand" unicode="&#x2030;" horiz-adv-x="3037" 
d="M492 760q-186 0 -307.5 113.5t-121.5 285.5t121.5 284.5t307.5 112.5q184 0 305 -112.5t121 -284.5t-121 -285.5t-305 -113.5zM1796 1536l-1235 -1536h-258l1235 1536h258zM492 963q85 0 141.5 55.5t56.5 140.5q0 84 -56.5 139.5t-141.5 55.5q-87 0 -144 -55.5
t-57 -139.5q0 -85 57.5 -140.5t143.5 -55.5zM2546 -20q-185 0 -305.5 113t-120.5 286q0 170 121 282.5t305 112.5t305 -112.5t121 -282.5q0 -173 -120.5 -286t-305.5 -113zM1606 -20q-185 0 -305.5 113t-120.5 286q0 170 121 282.5t305 112.5t305 -112.5t121 -282.5
q0 -173 -120.5 -286t-305.5 -113zM1804 379q0 83 -56 137.5t-142 54.5t-142.5 -54.5t-56.5 -137.5q0 -86 56.5 -142.5t142.5 -56.5t142 56.5t56 142.5zM2744 379q0 83 -56 137.5t-142 54.5t-142.5 -54.5t-56.5 -137.5q0 -86 56.5 -142.5t142.5 -56.5t142 56.5t56 142.5z" />
    <glyph glyph-name="guilsinglleft" unicode="&#x2039;" horiz-adv-x="692" 
d="M336 125l-281 430l281 416h291l-283 -416l283 -430h-291z" />
    <glyph glyph-name="guilsinglright" unicode="&#x203a;" horiz-adv-x="692" 
d="M354 125h-288l280 430l-280 416h288l283 -416z" />
    <glyph glyph-name="fraction" unicode="&#x2044;" horiz-adv-x="919" 
d="M4 0h-258l1169 1536h259z" />
    <glyph glyph-name="zerosuperior" unicode="&#x2070;" horiz-adv-x="1060" 
d="M977 1051q0 -105 -29 -196t-83.5 -161t-140.5 -110.5t-194 -40.5t-194 40.5t-141 110.5t-84 161t-29 196q0 141 49.5 253.5t152.5 182t246 69.5q142 0 245 -69.5t152.5 -182t49.5 -253.5zM530 737q71 0 119 46t67 114t19 154q0 85 -19 152.5t-67 113t-119 45.5
q-55 0 -96 -25.5t-64.5 -70.5t-34.5 -98.5t-11 -116.5q0 -64 11 -118t34.5 -99t64.5 -71t96 -26z" />
    <glyph glyph-name="foursuperior" unicode="&#x2074;" horiz-adv-x="935" 
d="M903 748h-115v-199h-229v199h-565l399 788h238l-293 -600h221v256h229v-256h115v-188z" />
    <glyph glyph-name="Euro" unicode="&#x20ac;" horiz-adv-x="1417" 
d="M1321 47q-171 -67 -360 -67q-249 0 -433.5 132t-261.5 357h-209v215h164q-4 54 -4 84q0 49 2 74h-162v213h205q77 231 267 366t446 135q214 0 397 -104l-88 -252q-150 86 -313 86q-128 0 -226.5 -61.5t-156.5 -169.5h641l-76 -213h-627q-4 -46 -4 -72q0 -42 6 -86h570
l-76 -215h-424q61 -104 162.5 -162.5t230.5 -58.5q181 0 330 82v-283z" />
    <glyph glyph-name="uni20B9" unicode="&#x20b9;" horiz-adv-x="1247" 
d="M1192 938h-184q-23 -118 -96 -205.5t-181 -136.5l393 -596h-352l-346 543h-338v248h358q101 0 167.5 38t91.5 109h-617v203h612q-58 137 -254 137h-358v258h1104v-205h-266q62 -85 80 -190h186v-203z" />
    <glyph glyph-name="uni2113" unicode="&#x2113;" horiz-adv-x="1017" 
d="M78 592q72 0 127 8v569q0 169 106 278t279 109q170 0 274.5 -103.5t104.5 -272.5v-95q0 -221 -129.5 -392t-343.5 -261q3 -85 62 -135.5t147 -50.5q108 0 231 63v-252q-117 -77 -305 -77q-182 0 -297 99.5t-127 276.5q-57 -8 -127 -8h-43v244h41zM594 1296
q-47 0 -72.5 -34t-25.5 -86v-471q192 131 192 368v103q0 52 -24.5 86t-69.5 34z" />
    <glyph glyph-name="trademark" unicode="&#x2122;" horiz-adv-x="1757" 
d="M1239 999l-203 164v-307h-178v696l381 -323l381 323v-696h-178v311zM72 1370v166h659v-166h-239v-514h-177v514h-243z" />
    <glyph glyph-name="estimated" unicode="&#x212e;" horiz-adv-x="1597" 
d="M1536 625h-1194q-10 0 -10 -9v-360q0 -25 16 -41q88 -93 205 -145t248 -52q139 0 262 58.5t213 161.5h106q-102 -119 -255 -188.5t-328 -69.5q-150 0 -287 52.5t-235.5 141t-157 211.5t-58.5 258t58.5 258t157 212t235.5 141.5t287 52.5q201 0 370.5 -89t268 -241.5
t98.5 -333.5v-18zM1266 672v364q0 24 -19 43q-89 89 -204 139t-242 50q-129 0 -246 -52t-205 -143q-18 -18 -18 -45v-356q0 -10 10 -10h915q9 0 9 10z" />
    <glyph glyph-name="partialdiff" unicode="&#x2202;" horiz-adv-x="1243" 
d="M1139 639q0 -138 -38.5 -257.5t-109.5 -209t-181 -141t-245 -51.5q-214 0 -354.5 136.5t-140.5 358.5q0 213 144 347t364 134q132 0 251 -92q-31 203 -157 326t-307 123v243q234 0 411 -118.5t270 -325.5t93 -473zM604 244q103 0 168.5 64.5t65.5 166.5t-66 169t-168 67
q-101 0 -166 -67t-65 -169q0 -101 65 -166t166 -65z" />
    <glyph glyph-name="product" unicode="&#x220f;" horiz-adv-x="1572" 
d="M145 -342v1878h1280v-1878h-292v1618h-695v-1618h-293z" />
    <glyph glyph-name="summation" unicode="&#x2211;" horiz-adv-x="1243" 
d="M29 -82l563 684l-563 672v260h1190v-260h-824l553 -672l-557 -684h828v-260h-1190v260z" />
    <glyph glyph-name="minus" unicode="&#x2212;" horiz-adv-x="1273" 
d="M168 657v246h936v-246h-936z" />
    <glyph glyph-name="uni2215" unicode="&#x2215;" horiz-adv-x="919" 
d="M4 0h-258l1169 1536h259z" />
    <glyph glyph-name="radical" unicode="&#x221a;" horiz-adv-x="1507" 
d="M733 -41l-424 817h-286v256h477l233 -497l477 1001h303z" />
    <glyph glyph-name="infinity" unicode="&#x221e;" horiz-adv-x="1826" 
d="M1323 289q-240 0 -410 237q-78 -109 -183 -173t-228 -64q-193 0 -312.5 129.5t-119.5 329.5q0 206 120.5 339.5t317.5 133.5q234 0 403 -244q77 112 180.5 178t227.5 66q197 0 317.5 -133.5t120.5 -337.5q0 -200 -120.5 -330.5t-313.5 -130.5zM1296 963q-25 0 -46.5 -5.5
t-42 -19.5t-34 -25t-32.5 -36t-27.5 -37t-29 -44t-27.5 -42q11 -16 33 -48.5t34 -49.5t33.5 -41.5t39.5 -36.5t44 -21.5t55 -9.5q85 0 134 58.5t49 146.5q0 91 -48.5 151t-134.5 60zM528 963q-86 0 -134 -59.5t-48 -151.5q0 -88 47.5 -146.5t132.5 -58.5q25 0 47 5.5
t42.5 19.5t34.5 25t33.5 35.5t28.5 37t30 43t28 41.5q-7 10 -24 37t-25 38.5t-24.5 34t-27.5 33t-28.5 26t-33.5 22.5t-36.5 12.5t-42.5 5.5z" />
    <glyph glyph-name="integral" unicode="&#x222b;" horiz-adv-x="882" 
d="M174 -532q-111 0 -197 34v258q72 -34 152 -34q63 0 102 42.5t39 108.5v1268q0 184 108 297.5t288 113.5q104 0 194 -34v-260q-73 36 -155 36q-61 0 -102.5 -44t-41.5 -113v-1274q0 -181 -105.5 -290t-281.5 -109z" />
    <glyph glyph-name="approxequal" unicode="&#x2248;" horiz-adv-x="1273" 
d="M438 1155q72 0 200 -50t200 -50t141.5 29.5t120.5 80.5v-252q-49 -47 -119 -72.5t-143 -25.5q-72 0 -200 50t-200 50q-68 0 -138 -33.5t-128 -88.5v251q51 51 122.5 81t143.5 30zM438 711q72 0 200 -48.5t200 -48.5q71 0 141 29t121 80v-252q-48 -46 -118 -71t-144 -25
q-72 0 -200 48t-200 48q-68 0 -138 -33t-128 -88v252q51 51 122.5 80t143.5 29z" />
    <glyph glyph-name="notequal" unicode="&#x2260;" horiz-adv-x="1273" 
d="M1104 418h-508l-123 -268h-225l123 268h-203v241h313l97 207h-410v242h520l109 238h223l-109 -238h193v-242h-303l-94 -207h397v-241z" />
    <glyph glyph-name="lessequal" unicode="&#x2264;" horiz-adv-x="1273" 
d="M1051 774v-264l-830 328v274l830 326v-262l-570 -201zM221 702l830 -325v-252l-830 328v249z" />
    <glyph glyph-name="greaterequal" unicode="&#x2265;" horiz-adv-x="1273" 
d="M1051 838l-830 -328v264l572 201l-572 201v262l830 -326v-274zM1051 702v-249l-830 -328v252z" />
    <glyph glyph-name="lozenge" unicode="&#x25ca;" horiz-adv-x="1198" 
d="M1186 764l-588 -805l-586 805l586 813zM866 768l-268 381l-268 -381l268 -383z" />
    <glyph glyph-name="commaaccent" unicode="&#xf6c3;" horiz-adv-x="1024" 
d="M410 -117h276l-211 -346h-184z" />
    <glyph glyph-name="CR" horiz-adv-x="0" 
 />
    <glyph glyph-name="a.alt" horiz-adv-x="1214" 
d="M1075 1032v-1032h-475q-254 0 -394 134t-140 380q0 240 146.5 379t387.5 139h475zM791 774h-187q-126 0 -187 -69.5t-61 -190.5q0 -119 60 -188.5t188 -69.5h187v518z" />
    <glyph glyph-name="a.alt2" horiz-adv-x="1118" 
d="M150 797v235h827v-1032h-553q-167 0 -261.5 86t-94.5 238q0 155 98 242t272 87h254v144h-542zM692 428h-223q-52 0 -80.5 -27t-28.5 -77q0 -46 28.5 -72.5t80.5 -26.5h223v203z" />
    <glyph glyph-name="b.alt" horiz-adv-x="1218" 
d="M139 0v1536h285v-504h201q248 0 388 -137.5t140 -382.5q0 -157 -71.5 -274.5t-190 -177.5t-266.5 -60h-486zM424 774v-518h197q113 0 176 68.5t63 187.5q0 124 -62 193t-177 69h-197z" />
    <glyph glyph-name="d.alt" horiz-adv-x="1218" 
d="M793 1536h284v-1536h-485q-248 0 -387 137t-139 381q0 158 71 276t189 178t266 60h201v504zM793 774h-197q-113 0 -176.5 -68.5t-63.5 -187.5q0 -123 63 -192.5t177 -69.5h197v518z" />
    <glyph glyph-name="e.alt" horiz-adv-x="1128" 
d="M121 0v633q0 188 136.5 304t354.5 116q123 0 222 -37.5t160 -116t61 -186.5q0 -106 -58 -183t-151.5 -114t-208.5 -37h-234v-135h244q187 0 365 12v-256h-891zM403 594h215q154 0 154 106q0 57 -49 86t-121 29q-85 0 -142 -42.5t-57 -115.5v-63z" />
    <glyph glyph-name="e.alt2" horiz-adv-x="1146" 
d="M139 0v1032h899v-293q0 -161 -114 -257.5t-312 -96.5h-188v-152h604v-233h-889zM754 801h-330v-197h197q58 0 95.5 34t37.5 89v74z" />
    <glyph glyph-name="h.alt2" horiz-adv-x="1234" 
d="M424 1536v-504h672v-1032h-285v776h-387v-776h-285v1536h285z" />
    <glyph glyph-name="m.alt2" horiz-adv-x="1845" 
d="M139 0v1032h1565v-1032h-283v776h-356v-776h-285v776h-356v-776h-285z" />
    <glyph glyph-name="n.alt2" horiz-adv-x="1234" 
d="M139 0v1032h957v-1032h-285v776h-387v-776h-285z" />
    <glyph glyph-name="p.alt" horiz-adv-x="1218" 
d="M625 0h-201v-512h-285v1544h486q248 0 388 -137.5t140 -382.5q0 -157 -71.5 -274.5t-190 -177.5t-266.5 -60zM424 774v-518h197q113 0 176 68.5t63 187.5q0 124 -62 193t-177 69h-197z" />
    <glyph glyph-name="q.alt" horiz-adv-x="1218" 
d="M592 1032h485v-1544h-284v512h-201q-248 0 -387 137t-139 381q0 158 71 276t189 178t266 60zM793 774h-197q-113 0 -176.5 -68.5t-63.5 -187.5q0 -123 63 -192.5t177 -69.5h197v518z" />
    <glyph glyph-name="r.alt" horiz-adv-x="854" 
d="M854 870l-430 -403v-467h-285v1032h285v-198l242 229z" />
    <glyph glyph-name="r.alt2" horiz-adv-x="811" 
d="M139 0v1032h631v-256h-346v-776h-285z" />
    <glyph glyph-name="aacute.alt" horiz-adv-x="1214" 
d="M694 1458h353l-295 -280h-252zM1075 1032v-1032h-475q-254 0 -394 134t-140 380q0 240 146.5 379t387.5 139h475zM791 774h-187q-126 0 -187 -69.5t-61 -190.5q0 -119 60 -188.5t188 -69.5h187v518z" />
    <glyph glyph-name="acircumflex.alt" horiz-adv-x="1214" 
d="M819 1178l-137 118l-135 -118h-266l247 280h308l249 -280h-266zM1075 1032v-1032h-475q-254 0 -394 134t-140 380q0 240 146.5 379t387.5 139h475zM791 774h-187q-126 0 -187 -69.5t-61 -190.5q0 -119 60 -188.5t188 -69.5h187v518z" />
    <glyph glyph-name="adieresis.alt" horiz-adv-x="1214" 
d="M483 1178q-68 0 -109.5 39.5t-41.5 105.5t41.5 106.5t109.5 40.5q67 0 108.5 -40.5t41.5 -106.5t-41 -105.5t-109 -39.5zM895 1178q-68 0 -110 39.5t-42 105.5t42 106.5t110 40.5q66 0 107.5 -40.5t41.5 -106.5t-41.5 -105.5t-107.5 -39.5zM1075 1032v-1032h-475
q-254 0 -394 134t-140 380q0 240 146.5 379t387.5 139h475zM791 774h-187q-126 0 -187 -69.5t-61 -190.5q0 -119 60 -188.5t188 -69.5h187v518z" />
    <glyph glyph-name="agrave.alt" horiz-adv-x="1214" 
d="M344 1458h352l195 -280h-250zM1075 1032v-1032h-475q-254 0 -394 134t-140 380q0 240 146.5 379t387.5 139h475zM791 774h-187q-126 0 -187 -69.5t-61 -190.5q0 -119 60 -188.5t188 -69.5h187v518z" />
    <glyph glyph-name="aring.alt" horiz-adv-x="1214" 
d="M688 1577q100 0 165 -59t65 -154q0 -96 -65 -156.5t-165 -60.5q-99 0 -162 59t-63 154q0 96 63 156.5t162 60.5zM610 1360q0 -34 21.5 -55t56.5 -21q37 0 58.5 21.5t21.5 56.5t-22.5 56.5t-57.5 21.5q-37 0 -57.5 -21.5t-20.5 -58.5zM1075 1032v-1032h-475
q-254 0 -394 134t-140 380q0 240 146.5 379t387.5 139h475zM791 774h-187q-126 0 -187 -69.5t-61 -190.5q0 -119 60 -188.5t188 -69.5h187v518z" />
    <glyph glyph-name="atilde.alt" horiz-adv-x="1214" 
d="M778 1180q-48 0 -130.5 28.5t-102.5 28.5q-34 0 -56 -19t-22 -49h-164q-5 129 56 208t167 79q47 0 139 -28.5t107 -28.5q33 0 54.5 18.5t21.5 48.5h164q9 -127 -55.5 -206.5t-178.5 -79.5zM1075 1032v-1032h-475q-254 0 -394 134t-140 380q0 240 146.5 379t387.5 139h475
zM791 774h-187q-126 0 -187 -69.5t-61 -190.5q0 -119 60 -188.5t188 -69.5h187v518z" />
    <glyph glyph-name="abreve.alt" horiz-adv-x="1214" 
d="M678 1356q49 0 82 30t35 76h221q-2 -132 -95 -218.5t-243 -86.5q-151 0 -243.5 86.5t-94.5 218.5h221q2 -46 34 -76t83 -30zM1075 1032v-1032h-475q-254 0 -394 134t-140 380q0 240 146.5 379t387.5 139h475zM791 774h-187q-126 0 -187 -69.5t-61 -190.5
q0 -119 60 -188.5t188 -69.5h187v518z" />
    <glyph glyph-name="amacron.alt" horiz-adv-x="1214" 
d="M338 1427h633v-219h-633v219zM1075 1032v-1032h-475q-254 0 -394 134t-140 380q0 240 146.5 379t387.5 139h475zM791 774h-187q-126 0 -187 -69.5t-61 -190.5q0 -119 60 -188.5t188 -69.5h187v518z" />
    <glyph glyph-name="aogonek.alt" horiz-adv-x="1222" 
d="M1075 -487q-74 -31 -135 -31q-99 0 -171 54t-89 147q-28 191 131 317h-211q-254 0 -394 134t-140 380q0 240 146.5 379t387.5 139h475v-1032q-87 -42 -133.5 -106.5t-30.5 -147.5q6 -38 34 -61t65 -23q35 0 65 12v-161zM791 774h-187q-126 0 -187 -69.5t-61 -190.5
q0 -119 60 -188.5t188 -69.5h187v518z" />
    <glyph glyph-name="aacute.alt2" horiz-adv-x="1118" 
d="M588 1458h352l-295 -280h-252zM150 797v235h827v-1032h-553q-167 0 -261.5 86t-94.5 238q0 155 98 242t272 87h254v144h-542zM692 428h-223q-52 0 -80.5 -27t-28.5 -77q0 -46 28.5 -72.5t80.5 -26.5h223v203z" />
    <glyph glyph-name="acircumflex.alt2" horiz-adv-x="1118" 
d="M700 1178l-137 118l-135 -118h-266l248 280h307l250 -280h-267zM150 797v235h827v-1032h-553q-167 0 -261.5 86t-94.5 238q0 155 98 242t272 87h254v144h-542zM692 428h-223q-52 0 -80.5 -27t-28.5 -77q0 -46 28.5 -72.5t80.5 -26.5h223v203z" />
    <glyph glyph-name="adieresis.alt2" horiz-adv-x="1118" 
d="M379 1178q-68 0 -110 39.5t-42 105.5t42 106.5t110 40.5q67 0 108 -40.5t41 -106.5t-40.5 -105.5t-108.5 -39.5zM791 1178q-68 0 -110 39.5t-42 105.5t42 106.5t110 40.5q66 0 107.5 -40.5t41.5 -106.5t-41.5 -105.5t-107.5 -39.5zM150 797v235h827v-1032h-553
q-167 0 -261.5 86t-94.5 238q0 155 98 242t272 87h254v144h-542zM692 428h-223q-52 0 -80.5 -27t-28.5 -77q0 -46 28.5 -72.5t80.5 -26.5h223v203z" />
    <glyph glyph-name="agrave.alt2" horiz-adv-x="1118" 
d="M238 1458h352l194 -280h-249zM150 797v235h827v-1032h-553q-167 0 -261.5 86t-94.5 238q0 155 98 242t272 87h254v144h-542zM692 428h-223q-52 0 -80.5 -27t-28.5 -77q0 -46 28.5 -72.5t80.5 -26.5h223v203z" />
    <glyph glyph-name="aring.alt2" horiz-adv-x="1118" 
d="M578 1577q100 0 164.5 -59t64.5 -154q0 -96 -64.5 -156.5t-164.5 -60.5q-99 0 -162.5 59t-63.5 154q0 96 63.5 156.5t162.5 60.5zM500 1360q0 -34 21.5 -55t56.5 -21q36 0 57.5 21t21.5 57q0 35 -22 56.5t-57 21.5q-37 0 -57.5 -21.5t-20.5 -58.5zM150 797v235h827v-1032
h-553q-167 0 -261.5 86t-94.5 238q0 155 98 242t272 87h254v144h-542zM692 428h-223q-52 0 -80.5 -27t-28.5 -77q0 -46 28.5 -72.5t80.5 -26.5h223v203z" />
    <glyph glyph-name="atilde.alt2" horiz-adv-x="1118" 
d="M707 1180q-48 0 -131 28.5t-103 28.5q-34 0 -56 -19t-22 -49h-164q-5 129 56.5 208t167.5 79q47 0 138.5 -28.5t106.5 -28.5q33 0 54.5 18.5t21.5 48.5h164q9 -127 -55.5 -206.5t-177.5 -79.5zM150 797v235h827v-1032h-553q-167 0 -261.5 86t-94.5 238q0 155 98 242
t272 87h254v144h-542zM692 428h-223q-52 0 -80.5 -27t-28.5 -77q0 -46 28.5 -72.5t80.5 -26.5h223v203z" />
    <glyph glyph-name="abreve.alt2" horiz-adv-x="1118" 
d="M584 1356q49 0 81.5 30t34.5 76h222q-2 -132 -95 -218.5t-243 -86.5q-151 0 -243.5 86.5t-94.5 218.5h221q2 -46 34 -76t83 -30zM150 797v235h827v-1032h-553q-167 0 -261.5 86t-94.5 238q0 155 98 242t272 87h254v144h-542zM692 428h-223q-52 0 -80.5 -27t-28.5 -77
q0 -46 28.5 -72.5t80.5 -26.5h223v203z" />
    <glyph glyph-name="amacron.alt2" horiz-adv-x="1118" 
d="M256 1427h633v-219h-633v219zM150 797v235h827v-1032h-553q-167 0 -261.5 86t-94.5 238q0 155 98 242t272 87h254v144h-542zM692 428h-223q-52 0 -80.5 -27t-28.5 -77q0 -46 28.5 -72.5t80.5 -26.5h223v203z" />
    <glyph glyph-name="aogonek.alt2" horiz-adv-x="1118" 
d="M150 797v235h827v-1032q-87 -42 -133.5 -106.5t-30.5 -147.5q6 -38 33.5 -61t64.5 -23q36 0 66 12v-161q-74 -31 -135 -31q-99 0 -171 54t-89 147q-28 191 131 317h-289q-167 0 -261.5 86t-94.5 238q0 155 98 242t272 87h254v144h-542zM692 428h-223q-52 0 -80.5 -27
t-28.5 -77q0 -46 28.5 -72.5t80.5 -26.5h223v203z" />
    <glyph glyph-name="dcaron.alt" horiz-adv-x="1470" 
d="M793 1536h284v-1536h-485q-248 0 -387 137t-139 381q0 158 71 276t189 178t266 60h201v504zM1368 1137h-178l61 399h275zM793 774h-197q-113 0 -176.5 -68.5t-63.5 -187.5q0 -123 63 -192.5t177 -69.5h197v518z" />
    <glyph glyph-name="dcroat.alt" horiz-adv-x="1224" 
d="M1212 1178h-129v-1178h-483q-249 0 -388.5 137t-139.5 381q0 158 71 276t189.5 178t267.5 60h201v146h-234v204h234v154h282v-154h129v-204zM801 774h-199q-113 0 -176.5 -68.5t-63.5 -187.5q0 -123 63 -192.5t177 -69.5h199v518z" />
    <glyph glyph-name="eacute.alt" horiz-adv-x="1128" 
d="M616 1458h353l-295 -280h-252zM121 0v633q0 188 136.5 304t354.5 116q123 0 222 -37.5t160 -116t61 -186.5q0 -106 -58 -183t-151.5 -114t-208.5 -37h-234v-135h244q187 0 365 12v-256h-891zM403 594h215q154 0 154 106q0 57 -49 86t-121 29q-85 0 -142 -42.5t-57 -115.5
v-63z" />
    <glyph glyph-name="ecircumflex.alt" horiz-adv-x="1128" 
d="M743 1178l-137 118l-135 -118h-266l248 280h307l250 -280h-267zM121 0v633q0 188 136.5 304t354.5 116q123 0 222 -37.5t160 -116t61 -186.5q0 -106 -58 -183t-151.5 -114t-208.5 -37h-234v-135h244q187 0 365 12v-256h-891zM403 594h215q154 0 154 106q0 57 -49 86
t-121 29q-85 0 -142 -42.5t-57 -115.5v-63z" />
    <glyph glyph-name="edieresis.alt" horiz-adv-x="1128" 
d="M412 1178q-68 0 -110 39.5t-42 105.5t42 106.5t110 40.5q67 0 108 -40.5t41 -106.5t-40.5 -105.5t-108.5 -39.5zM823 1178q-68 0 -109.5 39.5t-41.5 105.5t41.5 106.5t109.5 40.5q66 0 108 -40.5t42 -106.5q0 -65 -41.5 -105t-108.5 -40zM121 0v633q0 188 136.5 304
t354.5 116q123 0 222 -37.5t160 -116t61 -186.5q0 -106 -58 -183t-151.5 -114t-208.5 -37h-234v-135h244q187 0 365 12v-256h-891zM403 594h215q154 0 154 106q0 57 -49 86t-121 29q-85 0 -142 -42.5t-57 -115.5v-63z" />
    <glyph glyph-name="egrave.alt" horiz-adv-x="1128" 
d="M242 1458h352l194 -280h-249zM121 0v633q0 188 136.5 304t354.5 116q123 0 222 -37.5t160 -116t61 -186.5q0 -106 -58 -183t-151.5 -114t-208.5 -37h-234v-135h244q187 0 365 12v-256h-891zM403 594h215q154 0 154 106q0 57 -49 86t-121 29q-85 0 -142 -42.5t-57 -115.5
v-63z" />
    <glyph glyph-name="ebreve.alt" horiz-adv-x="1128" 
d="M600 1356q49 0 82 30t35 76h221q-2 -132 -95 -218.5t-243 -86.5q-151 0 -243.5 86.5t-94.5 218.5h221q2 -46 34 -76t83 -30zM121 0v633q0 188 136.5 304t354.5 116q123 0 222 -37.5t160 -116t61 -186.5q0 -106 -58 -183t-151.5 -114t-208.5 -37h-234v-135h244
q187 0 365 12v-256h-891zM403 594h215q154 0 154 106q0 57 -49 86t-121 29q-85 0 -142 -42.5t-57 -115.5v-63z" />
    <glyph glyph-name="ecaron.alt" horiz-adv-x="1128" 
d="M1014 1458l-254 -280h-307l-254 280h272l135 -119l137 119h271zM121 0v633q0 188 136.5 304t354.5 116q123 0 222 -37.5t160 -116t61 -186.5q0 -106 -58 -183t-151.5 -114t-208.5 -37h-234v-135h244q187 0 365 12v-256h-891zM403 594h215q154 0 154 106q0 57 -49 86
t-121 29q-85 0 -142 -42.5t-57 -115.5v-63z" />
    <glyph glyph-name="edotaccent.alt" horiz-adv-x="1128" 
d="M602 1174q-71 0 -119.5 45.5t-48.5 115.5t48.5 116t119.5 46t119.5 -46t48.5 -116t-48.5 -115.5t-119.5 -45.5zM121 0v633q0 188 136.5 304t354.5 116q123 0 222 -37.5t160 -116t61 -186.5q0 -106 -58 -183t-151.5 -114t-208.5 -37h-234v-135h244q187 0 365 12v-256h-891
zM403 594h215q154 0 154 106q0 57 -49 86t-121 29q-85 0 -142 -42.5t-57 -115.5v-63z" />
    <glyph glyph-name="emacron.alt" horiz-adv-x="1128" 
d="M293 1427h633v-219h-633v219zM121 0v633q0 188 136.5 304t354.5 116q123 0 222 -37.5t160 -116t61 -186.5q0 -106 -58 -183t-151.5 -114t-208.5 -37h-234v-135h244q187 0 365 12v-256h-891zM403 594h215q154 0 154 106q0 57 -49 86t-121 29q-85 0 -142 -42.5t-57 -115.5
v-63z" />
    <glyph glyph-name="eogonek.alt" horiz-adv-x="1128" 
d="M1012 -487q-74 -31 -135 -31q-99 0 -171.5 54t-89.5 147q-28 190 132 317h-627v633q0 188 136.5 304t354.5 116q123 0 222 -37.5t160 -116t61 -186.5q0 -106 -58 -183t-151.5 -114t-208.5 -37h-234v-135h244q187 0 365 12v-256q-87 -42 -133.5 -106.5t-30.5 -147.5
q6 -38 33.5 -61t64.5 -23q36 0 66 12v-161zM403 594h215q154 0 154 106q0 57 -49 86t-121 29q-85 0 -142 -42.5t-57 -115.5v-63z" />
    <glyph glyph-name="eacute.alt2" horiz-adv-x="1146" 
d="M600 1458h352l-295 -280h-251zM139 0v1032h899v-293q0 -161 -114 -257.5t-312 -96.5h-188v-152h604v-233h-889zM754 801h-330v-197h197q58 0 95.5 34t37.5 89v74z" />
    <glyph glyph-name="ecircumflex.alt2" horiz-adv-x="1146" 
d="M729 1178l-137 118l-135 -118h-267l248 280h307l250 -280h-266zM139 0v1032h899v-293q0 -161 -114 -257.5t-312 -96.5h-188v-152h604v-233h-889zM754 801h-330v-197h197q58 0 95.5 34t37.5 89v74z" />
    <glyph glyph-name="edieresis.alt2" horiz-adv-x="1146" 
d="M393 1178q-68 0 -109.5 39.5t-41.5 105.5t41.5 106.5t109.5 40.5q67 0 108.5 -40.5t41.5 -106.5t-41 -105.5t-109 -39.5zM805 1178q-68 0 -110 39.5t-42 105.5t42 106.5t110 40.5q66 0 107.5 -40.5t41.5 -106.5t-41.5 -105.5t-107.5 -39.5zM139 0v1032h899v-293
q0 -161 -114 -257.5t-312 -96.5h-188v-152h604v-233h-889zM754 801h-330v-197h197q58 0 95.5 34t37.5 89v74z" />
    <glyph glyph-name="egrave.alt2" horiz-adv-x="1146" 
d="M240 1458h352l194 -280h-249zM139 0v1032h899v-293q0 -161 -114 -257.5t-312 -96.5h-188v-152h604v-233h-889zM754 801h-330v-197h197q58 0 95.5 34t37.5 89v74z" />
    <glyph glyph-name="ebreve.alt2" horiz-adv-x="1146" 
d="M588 1356q49 0 82 30t35 76h221q-2 -132 -95 -218.5t-243 -86.5q-151 0 -243.5 86.5t-94.5 218.5h221q2 -46 34 -76t83 -30zM139 0v1032h899v-293q0 -161 -114 -257.5t-312 -96.5h-188v-152h604v-233h-889zM754 801h-330v-197h197q58 0 95.5 34t37.5 89v74z" />
    <glyph glyph-name="ecaron.alt2" horiz-adv-x="1146" 
d="M999 1458l-254 -280h-307l-254 280h273l135 -119l137 119h270zM139 0v1032h899v-293q0 -161 -114 -257.5t-312 -96.5h-188v-152h604v-233h-889zM754 801h-330v-197h197q58 0 95.5 34t37.5 89v74z" />
    <glyph glyph-name="edotaccent.alt2" horiz-adv-x="1146" 
d="M588 1174q-71 0 -119.5 45.5t-48.5 115.5t48.5 116t119.5 46t119.5 -46t48.5 -116t-48.5 -115.5t-119.5 -45.5zM139 0v1032h899v-293q0 -161 -114 -257.5t-312 -96.5h-188v-152h604v-233h-889zM754 801h-330v-197h197q58 0 95.5 34t37.5 89v74z" />
    <glyph glyph-name="emacron.alt2" horiz-adv-x="1146" 
d="M268 1427h633v-219h-633v219zM139 0v1032h899v-293q0 -161 -114 -257.5t-312 -96.5h-188v-152h604v-233h-889zM754 801h-330v-197h197q58 0 95.5 34t37.5 89v74z" />
    <glyph glyph-name="eogonek.alt2" horiz-adv-x="1146" 
d="M139 0v1032h899v-293q0 -161 -114 -257.5t-312 -96.5h-188v-152h604v-233q-87 -42 -133.5 -106.5t-30.5 -147.5q6 -38 34 -61t65 -23q35 0 65 12v-161q-74 -31 -135 -31q-99 0 -171 54t-89 147q-28 191 131 317h-625zM754 801h-330v-197h197q58 0 95.5 34t37.5 89v74z
" />
    <glyph glyph-name="hbar.alt2" horiz-adv-x="1234" 
d="M629 1178h-205v-146h672v-1032h-285v776h-387v-776h-285v1178h-155v204h155v154h285v-154h205v-204z" />
    <glyph glyph-name="hcircumflex.alt2" horiz-adv-x="1234" 
d="M707 1649l-138 118l-135 -118h-266l248 280h307l250 -280h-266zM424 1536v-504h672v-1032h-285v776h-387v-776h-285v1536h285z" />
    <glyph glyph-name="i.dot" horiz-adv-x="563" 
d="M281 1174q-71 0 -120.5 45.5t-49.5 115.5t49.5 116t120.5 46q70 0 117.5 -46t47.5 -116t-47.5 -115.5t-117.5 -45.5zM137 0v1032h285v-1032h-285z" />
    <glyph glyph-name="ntilde.alt2" horiz-adv-x="1234" 
d="M764 1180q-48 0 -131 28.5t-103 28.5q-34 0 -55.5 -18.5t-21.5 -49.5h-164q-5 129 56 208t167 79q47 0 139 -28.5t107 -28.5q33 0 54.5 18.5t21.5 48.5h163q9 -127 -55.5 -206.5t-177.5 -79.5zM139 0v1032h957v-1032h-285v776h-387v-776h-285z" />
    <glyph glyph-name="nacute.alt2" horiz-adv-x="1234" 
d="M612 1458h353l-295 -280h-252zM139 0v1032h957v-1032h-285v776h-387v-776h-285z" />
    <glyph glyph-name="ncaron.alt2" horiz-adv-x="1234" 
d="M1026 1458l-254 -280h-307l-254 280h272l135 -119l138 119h270zM139 0v1032h957v-1032h-285v776h-387v-776h-285z" />
    <glyph glyph-name="ncommaaccent.alt2" horiz-adv-x="1234" 
d="M139 0v1032h957v-1032h-285v776h-387v-776h-285zM494 -117h276l-211 -346h-184z" />
    <glyph glyph-name="racute.alt" horiz-adv-x="854" 
d="M489 1458h353l-295 -280h-252zM854 870l-430 -403v-467h-285v1032h285v-198l242 229z" />
    <glyph glyph-name="rcaron.alt" horiz-adv-x="854" 
d="M879 1458l-254 -280h-308l-254 280h273l135 -119l137 119h271zM854 870l-430 -403v-467h-285v1032h285v-198l242 229z" />
    <glyph glyph-name="rcommaaccent.alt" horiz-adv-x="854" 
d="M854 870l-430 -403v-467h-285v1032h285v-198l242 229zM150 -117h276l-211 -346h-184z" />
    <glyph glyph-name="racute.alt2" horiz-adv-x="811" 
d="M465 1458h352l-295 -280h-252zM139 0v1032h631v-256h-346v-776h-285z" />
    <glyph glyph-name="rcaron.alt2" horiz-adv-x="811" 
d="M879 1458l-254 -280h-308l-254 280h273l135 -119l137 119h271zM139 0v1032h631v-256h-346v-776h-285z" />
    <glyph glyph-name="rcommaaccent.alt2" horiz-adv-x="811" 
d="M139 0v1032h631v-256h-346v-776h-285zM154 -117h276l-211 -346h-184z" />
    <glyph glyph-name="caron.alt" horiz-adv-x="905" 
d="M432 1137h-178l61 399h275z" />
    <glyph glyph-name="revcommaaccent" horiz-adv-x="1099" 
d="M586 1499h184l-121 -346h-276z" />
    <glyph glyph-name="ampersand.alt" horiz-adv-x="1509" 
d="M94 461q0 186 107.5 317t283.5 176l-374 582h970v-248h-485l465 -721q76 190 100 457h264q-41 -448 -204 -707l204 -317h-325l-70 106q-175 -126 -414 -126q-226 0 -374 131.5t-148 349.5zM393 471q0 -106 70.5 -170.5t179.5 -64.5q140 0 250 86l-266 411
q-103 -11 -168.5 -83t-65.5 -179z" />
    <glyph glyph-name="Omega" horiz-adv-x="1495" 
d="M1315 0h-514v485q133 55 207.5 169.5t74.5 263.5q0 162 -92 265t-243 103q-152 0 -244 -105t-92 -270q0 -145 72 -258t202 -168v-485h-514v250h270v108q-152 92 -237.5 238.5t-85.5 331.5q0 184 81.5 328t224.5 222t323 78q179 0 321.5 -77t224.5 -219.5t82 -325.5
q0 -187 -88 -336t-244 -240v-108h271v-250z" />
    <glyph glyph-name="Delta" horiz-adv-x="1558" 
d="M772 1579l772 -1579h-1530zM442 252h676l-344 737z" />
    </font>
</defs>
</svg>
