<?xml version="1.0" standalone="no"?>
<!DOCTYPE svg PUBLIC "-//W3C//DTD SVG 1.1//EN" "http://www.w3.org/Graphics/SVG/1.1/DTD/svg11.dtd" >
<svg xmlns="http://www.w3.org/2000/svg" xmlns:xlink="http://www.w3.org/1999/xlink" version="1.1">
<metadata>
Created by FontForge 20170731 at Sat May 21 23:58:19 2022
 By Aleksey,,,
Copyright 2017 Indian Type Foundry
</metadata>
<defs>
<font id="Ekster-Thin" horiz-adv-x="1314" >
  <font-face 
    font-family="Ekster Thin"
    font-weight="100"
    font-stretch="normal"
    units-per-em="2048"
    panose-1="2 0 4 0 3 0 0 2 0 0"
    ascent="1638"
    descent="-410"
    x-height="987"
    cap-height="1536"
    bbox="-176 -676 2550 1944"
    underline-thickness="20"
    underline-position="-266"
    unicode-range="U+0020-FB02"
  />
<missing-glyph horiz-adv-x="1138" 
d="M154 0v1536h831v-1536h-831zM246 86h647v1364h-647v-1364zM788 629l-73 -74l-142 141l-141 -141l-72 74l142 141l-142 139l72 74l141 -141l142 141l73 -74l-141 -139z" />
    <glyph glyph-name="fi" unicode="fi" horiz-adv-x="1142" 
d="M668 940h-422v-940h-49v1237q0 136 84.5 224.5t224.5 88.5q65 0 118 -16.5t107 -58.5v-54q-53 45 -105 62.5t-116 17.5q-120 0 -192 -74t-72 -188v-252h422v-47zM920 1247q-20 0 -35 14.5t-15 34.5t15 36t35 16t33.5 -15.5t13.5 -36.5q0 -20 -13.5 -34.5t-33.5 -14.5z
M895 0v987h49v-987h-49z" />
    <glyph glyph-name="fl" unicode="fl" horiz-adv-x="1142" 
d="M668 940h-422v-940h-49v1257q0 127 78 210t208 83q133 0 230 -75v-54q-94 80 -228 80q-107 0 -173 -69t-66 -172v-273h422v-47zM895 0v1536h51v-1536h-51z" />
    <glyph glyph-name=".notdef" horiz-adv-x="1138" 
d="M154 0v1536h831v-1536h-831zM246 86h647v1364h-647v-1364zM788 629l-73 -74l-142 141l-141 -141l-72 74l142 141l-142 139l72 74l141 -141l142 141l73 -74l-141 -139z" />
    <glyph glyph-name=".null" horiz-adv-x="0" 
 />
    <glyph glyph-name="nonmarkingreturn" horiz-adv-x="682" 
 />
    <glyph glyph-name="space" unicode=" " horiz-adv-x="501" 
 />
    <glyph glyph-name="exclam" unicode="!" horiz-adv-x="555" 
d="M250 1536h55v-375l-6 -749h-43l-6 749v375zM279 94q23 0 38 -15t15 -40q0 -24 -14.5 -38.5t-38.5 -14.5q-25 0 -41.5 14.5t-16.5 38.5t16.5 39.5t41.5 15.5z" />
    <glyph glyph-name="quotedbl" unicode="&#x22;" horiz-adv-x="653" 
d="M180 1143v393h47v-393h-47zM426 1143v393h47v-393h-47z" />
    <glyph glyph-name="numbersign" unicode="#" horiz-adv-x="1441" 
d="M637 0l162 467h-381l-162 -467h-51l162 467h-318v47h334l190 547h-346v47h363l149 428h52l-150 -428h381l149 428h52l-150 -428h318v-47h-334l-191 -547h346v-47h-362l-162 -467h-51zM434 514h381l191 547h-381z" />
    <glyph glyph-name="dollar" unicode="$" horiz-adv-x="1114" 
d="M1026 399q0 -183 -120 -290t-306 -121v-254h-49v252h-6q-279 0 -455 168v67q185 -188 457 -188q117 0 211.5 38.5t154.5 122t60 199.5q0 207 -230 303l-331 146q-137 58 -196.5 141.5t-59.5 204.5q0 166 112 261t283 101v250h49v-250q217 -9 375 -141v-63
q-169 155 -397 155q-102 0 -184 -33.5t-133.5 -105t-51.5 -172.5q0 -100 52.5 -174.5t180.5 -128.5l334 -148q133 -56 191.5 -141t58.5 -199z" />
    <glyph glyph-name="percent" unicode="%" horiz-adv-x="1769" 
d="M403 872q-148 0 -244 96t-96 244q0 146 96 242t244 96t244 -96t96 -242q0 -148 -96 -244t-244 -96zM326 0h-56l1190 1536h56zM403 1507q-127 0 -210.5 -83.5t-83.5 -211.5q0 -129 83 -213t211 -84t211.5 84t83.5 213q0 128 -84 211.5t-211 83.5zM1364 -14q-148 0 -244 95
t-96 243q0 146 96 242t244 96t244 -96t96 -242q0 -148 -96 -243t-244 -95zM1659 324q0 127 -83.5 210.5t-211.5 83.5t-211.5 -83.5t-83.5 -210.5q0 -129 83.5 -213t211.5 -84t211.5 84t83.5 213z" />
    <glyph glyph-name="ampersand" unicode="&#x26;" horiz-adv-x="1411" 
d="M1270 0l-195 199q-185 -213 -461 -213q-141 0 -252.5 51.5t-178 153t-66.5 237.5q0 130 54.5 224.5t170.5 176.5l70 50q-125 155 -125 319q0 161 104.5 256.5t261.5 95.5q161 0 264 -102t103 -270h-49q0 147 -90 236t-228 89q-136 0 -226.5 -83t-90.5 -222
q0 -177 172 -356l561 -572q139 189 186 496h50q-46 -324 -201 -530l231 -236h-65zM170 430q0 -121 59.5 -212t160 -138t226.5 -47q252 0 424 200l-579 588q-3 3 -9.5 10.5t-9.5 10.5l-75 -54q-100 -70 -148.5 -156t-48.5 -202z" />
    <glyph glyph-name="quotesingle" unicode="'" horiz-adv-x="409" 
d="M180 1143v393h47v-393h-47z" />
    <glyph glyph-name="parenleft" unicode="(" horiz-adv-x="788" 
d="M174 649q0 165 29.5 310.5t91.5 275t168 229t248 154.5v-51q-130 -55 -225.5 -149.5t-151.5 -217t-82.5 -259.5t-26.5 -292q0 -154 26.5 -290t82.5 -258t151.5 -216t225.5 -149v-51q-142 55 -248 154t-168 228t-91.5 273.5t-29.5 308.5z" />
    <glyph glyph-name="parenright" unicode=")" horiz-adv-x="788" 
d="M612 649q0 -130 -18 -248t-58.5 -230t-101.5 -203t-152 -164.5t-206 -118.5v51q130 55 226 149t151.5 216t81.5 257.5t26 290.5t-26 291.5t-81.5 259.5t-151.5 217.5t-226 149.5v51q115 -45 206 -119t152 -165.5t101.5 -204t58.5 -231t18 -249.5z" />
    <glyph glyph-name="asterisk" unicode="*" horiz-adv-x="870" 
d="M412 1536h47l-8 -346l294 178l25 -39l-305 -168l305 -168l-25 -39l-294 179l8 -345h-47l6 347l-295 -181l-23 39l301 168l-301 168l23 39l295 -180z" />
    <glyph glyph-name="plus" unicode="+" horiz-adv-x="1050" 
d="M958 745h-409v-409h-47v409h-410v48h410v409h47v-409h409v-48z" />
    <glyph glyph-name="comma" unicode="," horiz-adv-x="350" 
d="M90 -274h-43l121 264q-49 6 -49 53q0 24 15.5 39.5t39.5 15.5q26 0 41.5 -15t15.5 -40t-16 -57z" />
    <glyph glyph-name="hyphen" unicode="-" horiz-adv-x="819" 
d="M102 580v47h615v-47h-615z" />
    <glyph glyph-name="period" unicode="." horiz-adv-x="350" 
d="M174 -14q-24 0 -39.5 14.5t-15.5 38.5t15.5 39.5t39.5 15.5q25 0 40 -15t15 -40t-15 -39t-40 -14z" />
    <glyph glyph-name="slash" unicode="/" horiz-adv-x="946" 
d="M70 -315h-54l861 1941h53z" />
    <glyph glyph-name="zero" unicode="0" horiz-adv-x="1353" 
d="M1233 772q0 -126 -19 -239t-62 -214.5t-106.5 -174.5t-158 -115.5t-211.5 -42.5q-116 0 -210.5 42.5t-158 115.5t-107 174t-62.5 214.5t-19 239.5q0 124 19.5 236t62.5 212t107 172.5t158 115t210 42.5t210 -42.5t158 -115t107 -172.5t62.5 -212t19.5 -236zM676 33
q134 0 234.5 61t158.5 167t85.5 234t27.5 277q0 116 -17 220t-55.5 198t-96 162.5t-144 108.5t-193.5 40t-193.5 -40t-144 -108.5t-96 -162.5t-55.5 -198t-17 -220q0 -149 27.5 -277t85.5 -234t158.5 -167t234.5 -61z" />
    <glyph glyph-name="one" unicode="1" horiz-adv-x="669" 
d="M422 0v1479l-373 -195v53l422 222v-1559h-49z" />
    <glyph glyph-name="two" unicode="2" horiz-adv-x="1083" 
d="M1040 45v-45h-1003l596 696q113 130 151 185q95 139 95 270q0 156 -105 253t-266 97q-212 0 -422 -184v59q206 174 424 174q182 0 301 -109.5t119 -287.5q0 -47 -8.5 -91.5t-31 -90.5t-39.5 -78t-55.5 -80.5t-57 -71t-64.5 -75.5l-535 -621h901z" />
    <glyph glyph-name="three" unicode="3" horiz-adv-x="1081" 
d="M981 410q0 -133 -69 -230.5t-181.5 -145.5t-251.5 -48q-221 0 -420 135v59q194 -147 424 -147q191 0 319 100.5t128 276.5q0 94 -38.5 167.5t-105 118.5t-151 67.5t-180.5 20.5q-73 0 -133 -8v49l124 17q84 11 154.5 36.5t127.5 66.5t89.5 103.5t32.5 141.5
q0 145 -105 228t-262 83q-109 0 -210 -42.5t-181 -121.5v58q169 155 393 155q178 0 297 -97t119 -263q0 -144 -96.5 -238.5t-263.5 -132.5q199 -14 319.5 -123.5t120.5 -285.5z" />
    <glyph glyph-name="four" unicode="4" horiz-adv-x="1165" 
d="M1133 408h-218v-408h-51v408h-829l651 1128h57l-626 -1079h747v528h51v-528h218v-49z" />
    <glyph glyph-name="five" unicode="5" horiz-adv-x="1122" 
d="M1038 465q0 -144 -70.5 -254t-190.5 -167.5t-269 -57.5q-218 0 -404 112v58q178 -123 404 -123q206 0 342.5 118t136.5 314q0 194 -126 315t-322 121q-164 0 -379 -94v729h819v-47h-770v-623q173 80 340 80q215 0 352 -133.5t137 -347.5z" />
    <glyph glyph-name="six" unicode="6" horiz-adv-x="1146" 
d="M1079 479q0 -218 -142.5 -355.5t-363.5 -137.5q-212 0 -349.5 128t-137.5 335q0 195 111 358l485 729h61l-442 -659q128 86 281 86q217 0 357 -134.5t140 -349.5zM573 33q197 0 325 125t128 321q0 194 -127.5 316.5t-323.5 122.5q-206 0 -329 -144q-109 -129 -109 -323
q0 -186 123.5 -302t312.5 -116z" />
    <glyph glyph-name="seven" unicode="7" horiz-adv-x="1030" 
d="M1028 1536l-827 -1536h-60l805 1487h-907v49h989z" />
    <glyph glyph-name="eight" unicode="8" horiz-adv-x="1179" 
d="M590 -14q-141 0 -255 48t-184.5 147.5t-70.5 236.5q0 175 123.5 287.5t302.5 121.5q-136 8 -236 106.5t-100 244.5q0 168 119.5 270t300.5 102q179 0 298.5 -102t119.5 -270q0 -146 -99.5 -244.5t-236.5 -106.5q180 -9 303 -121.5t123 -287.5q0 -137 -70.5 -236.5
t-184 -147.5t-253.5 -48zM956 1176q0 147 -104 236t-262 89q-159 0 -264 -88.5t-105 -236.5q0 -152 105.5 -239t263.5 -87q157 0 261.5 87t104.5 239zM1047 420q0 119 -63 206.5t-165.5 130t-228.5 42.5q-127 0 -230 -42.5t-166 -130t-63 -206.5q0 -124 64 -213t166 -131.5
t229 -42.5q126 0 228 42.5t165.5 132t63.5 212.5z" />
    <glyph glyph-name="nine" unicode="9" horiz-adv-x="1146" 
d="M950 727l-487 -727h-60l441 657q-125 -86 -279 -86q-217 0 -357 134.5t-140 349.5q0 219 142 357t363 138q212 0 350 -129.5t138 -337.5q0 -193 -111 -356zM571 1501q-196 0 -323 -125t-127 -321q0 -194 126.5 -316.5t321.5 -122.5q101 0 188 37.5t148 110.5
q105 131 105 317q0 187 -124 303.5t-315 116.5z" />
    <glyph glyph-name="colon" unicode=":" horiz-adv-x="391" 
d="M195 762q-24 0 -40 15.5t-16 39.5q0 23 16.5 39t39.5 16q24 0 39.5 -15.5t15.5 -39.5q0 -25 -15 -40t-40 -15zM195 -14q-24 0 -40 14.5t-16 38.5t16 39.5t40 15.5q25 0 40 -15t15 -40t-15 -39t-40 -14z" />
    <glyph glyph-name="semicolon" unicode=";" horiz-adv-x="391" 
d="M197 762q-24 0 -40 15.5t-16 39.5q0 23 16.5 39t39.5 16q24 0 39.5 -15.5t15.5 -39.5q0 -25 -15 -40t-40 -15zM111 -274h-43l122 264q-51 6 -51 53q0 24 16.5 39.5t41.5 15.5t40 -15t15 -40t-16 -57z" />
    <glyph glyph-name="less" unicode="&#x3c;" horiz-adv-x="1050" 
d="M887 369v-52l-768 398v51l768 405v-53l-725 -377z" />
    <glyph glyph-name="equal" unicode="=" horiz-adv-x="1050" 
d="M92 958v48h866v-48h-866zM92 537v47h866v-47h-866z" />
    <glyph glyph-name="greater" unicode="&#x3e;" horiz-adv-x="1050" 
d="M932 715l-770 -398v52l725 372l-725 377v53l770 -405v-51z" />
    <glyph glyph-name="question" unicode="?" horiz-adv-x="1124" 
d="M707 768l-162 -59l-4 -297h-45l-2 327l186 68q140 52 213.5 140t73.5 208q0 158 -105.5 253t-277.5 95q-186 0 -301 -103.5t-115 -273.5h-49q0 191 128.5 307.5t336.5 116.5q195 0 314.5 -108t119.5 -287q0 -132 -80 -232t-231 -155zM522 -14q-25 0 -40 14t-15 39t15 40
t40 15q24 0 40 -15.5t16 -39.5t-16 -38.5t-40 -14.5z" />
    <glyph glyph-name="at" unicode="@" horiz-adv-x="1986" 
d="M1378 -225q-190 -90 -413 -90q-175 0 -326 59.5t-257.5 164.5t-167 255t-60.5 325q0 178 63 330t174 257t266 164.5t334 59.5q241 0 433 -103t300.5 -290.5t108.5 -427.5q0 -68 -10.5 -128.5t-33.5 -115.5t-58 -95t-87 -63.5t-116 -23.5q-78 0 -131.5 53t-53.5 138v67
q-42 -119 -145.5 -190.5t-243.5 -71.5q-190 0 -310 125.5t-120 319.5q0 192 120 318t310 126q140 0 243.5 -71.5t145.5 -190.5v250h48v-680q0 -67 41.5 -107.5t105.5 -40.5q82 0 140 56t83 140t25 185q0 170 -59.5 315t-164.5 245.5t-252.5 157t-318.5 56.5
q-227 0 -406.5 -95.5t-281.5 -270t-102 -398.5q0 -222 97 -395t271 -268.5t396 -95.5q225 0 413 92v-47zM1343 494q0 173 -107.5 284t-279.5 111q-170 0 -275.5 -111t-105.5 -284t106 -284.5t275 -111.5q172 0 279.5 111.5t107.5 284.5z" />
    <glyph glyph-name="A" unicode="A" horiz-adv-x="1462" 
d="M1370 0l-207 467h-866l-209 -467h-57l700 1559l701 -1559h-62zM317 514h826l-412 930z" />
    <glyph glyph-name="B" unicode="B" horiz-adv-x="1202" 
d="M197 0v1536h399q181 0 300.5 -100.5t119.5 -274.5q0 -129 -68 -220.5t-182 -129.5q152 -33 244 -138t92 -259q0 -130 -64 -225.5t-168 -142t-233 -46.5h-440zM592 1487h-344v-658h381q148 0 241 91.5t93 240.5q0 153 -105 239.5t-266 86.5zM639 780h-391v-733h391
q177 0 293.5 97.5t116.5 269.5q0 166 -115 266t-295 100z" />
    <glyph glyph-name="C" unicode="C" horiz-adv-x="1456" 
d="M854 -14q-219 0 -391 99.5t-267.5 278t-95.5 404.5t96.5 404.5t269.5 278t392 99.5q321 0 514 -182v-63q-190 196 -518 196q-203 0 -363 -94t-248.5 -261t-88.5 -378q0 -212 88.5 -379.5t249.5 -261.5t366 -94q350 0 541 194v-61q-196 -180 -545 -180z" />
    <glyph glyph-name="D" unicode="D" horiz-adv-x="1597" 
d="M197 0v1536h495q373 0 588 -206t215 -562q0 -360 -214.5 -564t-588.5 -204h-495zM694 1487h-446v-1440h446q352 0 550 191.5t198 529.5q0 335 -198.5 527t-549.5 192z" />
    <glyph glyph-name="E" unicode="E" horiz-adv-x="1114" 
d="M197 0v1536h854v-49h-803v-692h717v-47h-717v-701h825v-47h-876z" />
    <glyph glyph-name="F" unicode="F" horiz-adv-x="1069" 
d="M197 0v1536h843v-49h-792v-733h706v-49h-706v-705h-51z" />
    <glyph glyph-name="G" unicode="G" horiz-adv-x="1589" 
d="M1479 205q-239 -219 -607 -219q-225 0 -401 100t-273.5 278.5t-97.5 405.5q0 225 98.5 403t275 277.5t400.5 99.5q328 0 523 -184v-63q-190 198 -523 198q-209 0 -373.5 -93.5t-255.5 -260t-91 -377.5q0 -212 91 -380t255.5 -262.5t373.5 -94.5q328 0 553 194v508h-604
v47h656v-577z" />
    <glyph glyph-name="H" unicode="H" horiz-adv-x="1587" 
d="M1337 0v776h-1089v-776h-51v1536h51v-713h1089v713h52v-1536h-52z" />
    <glyph glyph-name="I" unicode="I" horiz-adv-x="446" 
d="M197 0v1536h51v-1536h-51z" />
    <glyph glyph-name="J" unicode="J" horiz-adv-x="851" 
d="M313 -14q-154 0 -286 98v57q133 -108 286 -108q138 0 219.5 82.5t81.5 220.5v1200h52v-1196q0 -162 -96 -258t-257 -96z" />
    <glyph glyph-name="K" unicode="K" horiz-adv-x="1290" 
d="M1204 0l-682 852l-274 -285v-567h-51v1536h51v-899l862 899h70l-621 -645l711 -891h-66z" />
    <glyph glyph-name="L" unicode="L" horiz-adv-x="1056" 
d="M1034 47v-47h-837v1536h51v-1489h786z" />
    <glyph glyph-name="M" unicode="M" horiz-adv-x="1964" 
d="M981 385l-733 1020v-1405h-51v1559l784 -1092l784 1092v-1559h-51v1399z" />
    <glyph glyph-name="N" unicode="N" horiz-adv-x="1656" 
d="M1458 -23l-1210 1448v-1425h-51v1559l1210 -1450v1427h51v-1559z" />
    <glyph glyph-name="O" unicode="O" horiz-adv-x="1746" 
d="M1647 770q0 -227 -98 -405.5t-274.5 -278.5t-402.5 -100q-225 0 -401 100t-273.5 278.5t-97.5 405.5q0 225 98 403t274 277.5t400 99.5q168 0 312.5 -58t246 -161t159 -248t57.5 -313zM872 33q157 0 292 55.5t229 152.5t147 233.5t53 295.5q0 211 -91 377.5t-256 260
t-374 93.5q-208 0 -372 -93.5t-255 -260t-91 -377.5q0 -212 90.5 -380t254.5 -262.5t373 -94.5z" />
    <glyph glyph-name="P" unicode="P" horiz-adv-x="1153" 
d="M197 0v1536h356q242 0 381 -133t139 -365q0 -234 -139 -366.5t-381 -132.5h-305v-539h-51zM553 1487h-305v-899h305q219 0 343 119t124 331q0 211 -124.5 330t-342.5 119z" />
    <glyph glyph-name="Q" unicode="Q" horiz-adv-x="1746" 
d="M1647 770q0 -223 -96 -400t-265 -278l316 -356h-66l-295 332q-164 -82 -369 -82q-225 0 -401 100t-273.5 278.5t-97.5 405.5q0 225 98 403t274 277.5t400 99.5q168 0 312.5 -58t246 -161t159 -248t57.5 -313zM154 770q0 -212 90.5 -380t254.5 -262.5t373 -94.5
q157 0 292 55.5t229 152.5t147 233.5t53 295.5q0 210 -91 376.5t-256 260.5t-374 94q-208 0 -372 -94t-255 -260.5t-91 -376.5z" />
    <glyph glyph-name="R" unicode="R" horiz-adv-x="1228" 
d="M197 0v1536h385q225 0 354 -121t129 -334q0 -182 -102.5 -299t-272.5 -147l477 -635h-63l-469 627q-16 -2 -53 -2h-334v-625h-51zM580 1487h-332v-815h332q194 0 313 109.5t119 299.5t-114.5 298t-317.5 108z" />
    <glyph glyph-name="S" unicode="S" horiz-adv-x="1089" 
d="M555 1501q-101 0 -183 -34t-134 -106.5t-52 -174.5q0 -99 53.5 -174.5t182.5 -130.5l332 -148q135 -56 193.5 -140.5t58.5 -201.5q0 -129 -66.5 -222.5t-174 -138t-241.5 -44.5q-280 0 -454 168v67q185 -188 454 -188q118 0 213 37.5t155 118.5t60 196q0 209 -231 305
l-332 146q-137 60 -196.5 144.5t-59.5 203.5q0 117 59 201.5t153 124.5t210 40q227 0 397 -141v-63q-169 155 -397 155z" />
    <glyph glyph-name="T" unicode="T" horiz-adv-x="1261" 
d="M1243 1487h-588v-1487h-51v1487h-588v49h1227v-49z" />
    <glyph glyph-name="U" unicode="U" horiz-adv-x="1533" 
d="M164 641v895h51v-897q0 -271 150.5 -438.5t400.5 -167.5t401.5 168t151.5 438v897h51v-895q0 -293 -165 -474t-439 -181q-181 0 -318 82.5t-210.5 231t-73.5 341.5z" />
    <glyph glyph-name="V" unicode="V" horiz-adv-x="1439" 
d="M1411 1536l-692 -1559l-690 1559h61l631 -1440l631 1440h59z" />
    <glyph glyph-name="W" unicode="W" horiz-adv-x="2314" 
d="M2279 1536l-598 -1559l-522 1444l-526 -1444l-598 1559h59l539 -1427l528 1450l522 -1448l539 1425h57z" />
    <glyph glyph-name="X" unicode="X" horiz-adv-x="1355" 
d="M1253 0l-581 774l-570 -774h-63l600 817l-539 719h64l510 -680l493 680h64l-524 -723l610 -813h-64z" />
    <glyph glyph-name="Y" unicode="Y" horiz-adv-x="1236" 
d="M1214 1536l-569 -928v-608h-51v606l-571 930h61l534 -870l537 870h59z" />
    <glyph glyph-name="Z" unicode="Z" horiz-adv-x="1210" 
d="M1163 45v-45h-1122l1024 1489h-989v47h1079l-1022 -1491h1030z" />
    <glyph glyph-name="bracketleft" unicode="[" horiz-adv-x="690" 
d="M199 -315v1933h387v-47h-338v-1839h338v-47h-387z" />
    <glyph glyph-name="backslash" unicode="\" horiz-adv-x="946" 
d="M877 -315l-861 1941h54l860 -1941h-53z" />
    <glyph glyph-name="bracketright" unicode="]" horiz-adv-x="690" 
d="M489 -315h-387v47h338v1839h-338v47h387v-1933z" />
    <glyph glyph-name="asciicircum" unicode="^" horiz-adv-x="1050" 
d="M901 760l-377 727l-374 -727h-52l400 776h51l403 -776h-51z" />
    <glyph glyph-name="underscore" unicode="_" horiz-adv-x="1024" 
d="M0 -242v43h1024v-43h-1024z" />
    <glyph glyph-name="grave" unicode="`" horiz-adv-x="845" 
d="M188 1454h64l219 -295h-49z" />
    <glyph glyph-name="a" unicode="a" 
d="M1067 0v295q-52 -142 -171.5 -225.5t-281.5 -83.5q-217 0 -355 142.5t-138 363.5q0 224 138 368t355 144q161 0 281 -85t172 -229v297h49v-987h-49zM618 954q-197 0 -321.5 -129.5t-124.5 -330.5q0 -202 124.5 -331.5t321.5 -129.5t323 129.5t126 331.5q0 200 -126 330
t-323 130z" />
    <glyph glyph-name="b" unicode="b" 
d="M1192 494q0 -222 -138 -365t-356 -143q-162 0 -281 84t-171 227v-297h-49v1536h49v-846q52 144 171.5 229t280.5 85q217 0 355.5 -144t138.5 -366zM694 33q197 0 322 130t125 331t-125 330.5t-322 129.5t-322.5 -130t-125.5 -330q0 -201 125.5 -331t322.5 -130z" />
    <glyph glyph-name="c" unicode="c" horiz-adv-x="1071" 
d="M172 494q0 -202 129 -331.5t332 -129.5q209 0 350 135v-57q-143 -125 -354 -125q-222 0 -365 143t-143 365t141 366t359 144q219 0 352 -136v-61q-123 147 -350 147q-198 0 -324.5 -129.5t-126.5 -330.5z" />
    <glyph glyph-name="d" unicode="d" 
d="M1067 0v297q-52 -143 -172 -227t-281 -84q-217 0 -355 142.5t-138 363.5q0 224 138 368t355 144q160 0 280.5 -85.5t172.5 -228.5v846h49v-1536h-49zM618 954q-197 0 -321.5 -129.5t-124.5 -330.5q0 -202 124.5 -331.5t321.5 -129.5t323 129.5t126 331.5q0 200 -126 330
t-323 130z" />
    <glyph glyph-name="e" unicode="e" horiz-adv-x="1181" 
d="M1071 498q0 -4 -1 -12.5t-1 -12.5h-897q6 -194 131.5 -318t331.5 -124q219 0 383 139v-53q-159 -131 -383 -131q-232 0 -373 142t-141 364q0 146 56.5 261.5t167 183t257.5 67.5q215 0 342 -142t127 -364zM602 956q-192 0 -307 -122.5t-123 -315.5h848q-6 191 -119 314.5
t-299 123.5z" />
    <glyph glyph-name="f" unicode="f" horiz-adv-x="684" 
d="M682 940h-436v-940h-49v1253q0 129 80 213t212 84q136 0 240 -82v-55q-55 50 -111 69t-126 19q-112 0 -179 -69.5t-67 -176.5v-268h436v-47z" />
    <glyph glyph-name="g" unicode="g" 
d="M1116 -33q0 -235 -135 -362t-379 -127q-120 0 -228 39t-179 110v60q68 -77 177 -119.5t230 -42.5q223 0 344 113t121 327v332q-52 -142 -172.5 -226.5t-280.5 -84.5q-216 0 -354.5 143.5t-138.5 362.5q0 222 138.5 367t354.5 145q160 0 280.5 -85.5t172.5 -230.5v299h49
v-1020zM1067 494q0 200 -126 330t-323 130t-321.5 -129.5t-124.5 -330.5q0 -202 124.5 -331.5t321.5 -129.5t323 129.5t126 331.5z" />
    <glyph glyph-name="h" unicode="h" horiz-adv-x="1241" 
d="M246 492v-492h-49v1536h49v-840q50 140 159.5 224t247.5 84q209 0 311.5 -126t102.5 -341v-537h-51v532q0 212 -95.5 317t-275.5 105q-170 0 -284.5 -132t-114.5 -330z" />
    <glyph glyph-name="i" unicode="i" horiz-adv-x="446" 
d="M223 1247q-20 0 -34.5 14.5t-14.5 34.5q0 21 14.5 36.5t34.5 15.5t33.5 -15.5t13.5 -36.5q0 -20 -13.5 -34.5t-33.5 -14.5zM199 0v987h49v-987h-49z" />
    <glyph glyph-name="j" unicode="j" horiz-adv-x="444" 
d="M221 1247q-20 0 -33.5 14.5t-13.5 34.5q0 21 13.5 36.5t33.5 15.5t34.5 -15.5t14.5 -36.5q0 -20 -14.5 -34.5t-34.5 -14.5zM-2 -526q-83 0 -174 61v51q85 -65 168 -65q99 0 152 62t53 179v1225h49v-1225q0 -139 -63.5 -213.5t-184.5 -74.5z" />
    <glyph glyph-name="k" unicode="k" horiz-adv-x="970" 
d="M872 0l-446 565l-180 -168v-397h-49v1536h49v-1075l567 526h61l-413 -387l473 -600h-62z" />
    <glyph glyph-name="l" unicode="l" horiz-adv-x="444" 
d="M197 0v1536h49v-1536h-49z" />
    <glyph glyph-name="m" unicode="m" horiz-adv-x="1923" 
d="M246 492v-492h-49v987h49v-287q50 137 154.5 220.5t234.5 83.5q145 0 232 -81t118 -225q43 138 151 222t246 84q185 0 276 -126t91 -341v-537h-49v532q0 212 -83.5 317t-240.5 105q-161 0 -269 -122t-108 -304v-528h-51v532q0 212 -82.5 317t-238.5 105q-163 0 -272 -132
t-109 -330z" />
    <glyph glyph-name="n" unicode="n" horiz-adv-x="1241" 
d="M246 492v-492h-49v987h49v-291q50 140 159.5 224t247.5 84q209 0 311.5 -126t102.5 -341v-537h-51v532q0 212 -95.5 317t-275.5 105q-170 0 -284.5 -132t-114.5 -330z" />
    <glyph glyph-name="o" unicode="o" horiz-adv-x="1243" 
d="M623 -14q-220 0 -361 143.5t-141 364.5t141 365.5t361 144.5t358.5 -143.5t138.5 -366.5q0 -222 -138.5 -365t-358.5 -143zM1069 494q0 201 -125 330.5t-323 129.5q-197 0 -323 -130t-126 -330t126 -330.5t323 -130.5q198 0 323 130t125 331z" />
    <glyph glyph-name="p" unicode="p" 
d="M698 -14q-160 0 -280 85t-172 228v-811h-49v1499h49v-297q52 143 172 228.5t280 85.5q216 0 355 -144.5t139 -365.5q0 -220 -139 -364t-355 -144zM1141 494q0 201 -125 330.5t-322 129.5t-322.5 -130t-125.5 -330q0 -201 125.5 -331t322.5 -130t322 130t125 331z" />
    <glyph glyph-name="q" unicode="q" 
d="M1116 987v-1499h-49v809q-52 -142 -172.5 -226.5t-280.5 -84.5q-216 0 -354.5 143.5t-138.5 362.5q0 222 138.5 367t354.5 145q160 0 280.5 -85.5t172.5 -230.5v299h49zM618 954q-197 0 -321.5 -129.5t-124.5 -330.5q0 -202 124.5 -331.5t321.5 -129.5t323 129.5
t126 331.5q0 200 -126 330t-323 130z" />
    <glyph glyph-name="r" unicode="r" horiz-adv-x="657" 
d="M246 483v-483h-49v987h49v-301q50 146 155 232t238 86v-56q-160 5 -276.5 -126t-116.5 -339z" />
    <glyph glyph-name="s" unicode="s" horiz-adv-x="903" 
d="M102 158q140 -129 353 -129q127 0 211 58t84 163q0 126 -150 180l-293 107q-87 34 -127.5 85.5t-40.5 129.5q0 116 90.5 184t229.5 68q179 0 303 -105v-55q-126 114 -303 114q-118 0 -194.5 -53.5t-76.5 -148.5q0 -124 142 -174l293 -109q176 -65 176 -217
q0 -127 -97.5 -198.5t-246.5 -71.5q-220 0 -353 114v58z" />
    <glyph glyph-name="t" unicode="t" horiz-adv-x="759" 
d="M739 61q-49 -36 -121.5 -55.5t-136.5 -19.5q-141 0 -218 73.5t-77 227.5v1044h52v-344h483v-47h-483v-657q0 -127 65.5 -188.5t179.5 -61.5q64 0 134 21t122 63v-56z" />
    <glyph glyph-name="u" unicode="u" horiz-adv-x="1183" 
d="M967 420v567h49v-563q0 -209 -114.5 -323.5t-309.5 -114.5q-198 0 -312 114.5t-114 323.5v563h49v-567q0 -188 101.5 -287.5t275.5 -99.5q172 0 273.5 100t101.5 287z" />
    <glyph glyph-name="v" unicode="v" horiz-adv-x="1050" 
d="M1010 987l-488 -1010l-483 1010h59l428 -899l428 899h56z" />
    <glyph glyph-name="w" unicode="w" horiz-adv-x="1716" 
d="M1667 987l-424 -1010l-383 920l-389 -920l-422 1010h57l367 -893l387 918l381 -920l371 895h55z" />
    <glyph glyph-name="x" unicode="x" horiz-adv-x="1009" 
d="M901 0l-405 481l-392 -481h-59l420 518l-395 469h63l365 -432l352 432h59l-381 -471l435 -516h-62z" />
    <glyph glyph-name="y" unicode="y" horiz-adv-x="1019" 
d="M979 987l-733 -1499h-53l309 633l-465 866h59l432 -811l396 811h55z" />
    <glyph glyph-name="z" unicode="z" horiz-adv-x="944" 
d="M895 45v-45h-846l729 940h-694v47h782l-727 -942h756z" />
    <glyph glyph-name="braceleft" unicode="{" horiz-adv-x="794" 
d="M690 -315h-135q-102 0 -159.5 58.5t-57.5 166.5v526q0 87 -46 137t-134 56v47q88 4 134 51.5t46 132.5v529q0 110 58 169.5t161 59.5h133v-47h-131q-170 0 -170 -189v-518q0 -94 -46.5 -152.5t-127.5 -62.5q81 -3 127.5 -60.5t46.5 -152.5v-516q0 -188 170 -188h131v-47z
" />
    <glyph glyph-name="bar" unicode="|" horiz-adv-x="436" 
d="M242 -676h-49v2376h49v-2376z" />
    <glyph glyph-name="braceright" unicode="}" horiz-adv-x="794" 
d="M102 -315v47h131q173 0 173 188v516q0 95 45.5 152.5t126.5 60.5q-81 4 -126.5 62t-45.5 153v518q0 189 -173 189h-131v47h134q103 0 161 -59.5t58 -169.5v-529q0 -85 46 -132.5t134 -51.5v-47q-87 -6 -133.5 -56t-46.5 -137v-526q0 -108 -57.5 -166.5t-159.5 -58.5h-136
z" />
    <glyph glyph-name="asciitilde" unicode="~" horiz-adv-x="1050" 
d="M315 860q66 0 139 -27l146 -54t139 -27q58 0 116.5 28t102.5 78v-55q-92 -98 -225 -98q-65 0 -137.5 27t-145.5 54t-139 27q-106 0 -219 -106v53q100 100 223 100z" />
    <glyph glyph-name="uni00A0" unicode="&#xa0;" horiz-adv-x="501" 
 />
    <glyph glyph-name="exclamdown" unicode="&#xa1;" horiz-adv-x="555" 
d="M276 893q-24 0 -39.5 15.5t-15.5 39.5t15.5 40t39.5 16q25 0 40.5 -15.5t15.5 -40.5t-15.5 -40t-40.5 -15zM250 -471v297l6 749h43l4 -749v-297h-53z" />
    <glyph glyph-name="cent" unicode="&#xa2;" horiz-adv-x="1067" 
d="M983 111q-139 -119 -340 -125v-240h-49v240q-211 9 -342 150t-131 358q0 215 132 356.5t341 150.5v240h49v-240q206 -7 330 -133v-61q-122 145 -350 145q-198 0 -324.5 -129t-126.5 -329q0 -201 126.5 -331t324.5 -130q222 0 360 135v-57z" />
    <glyph glyph-name="sterling" unicode="&#xa3;" horiz-adv-x="1142" 
d="M1092 45v-45h-996v45h140v614h-140v48h140v348q0 218 127 356.5t335 138.5q178 0 332 -98v-53q-153 102 -330 102q-190 0 -302.5 -123t-112.5 -321v-350h577v-48h-577v-614h807z" />
    <glyph glyph-name="currency" unicode="&#xa4;" horiz-adv-x="1034" 
d="M895 408l-33 -33l-112 112q-91 -79 -230 -79q-138 0 -235 81l-115 -114l-33 33l117 116q-82 91 -82 232q0 136 80 229l-115 115l33 33l115 -115q94 84 235 84q139 0 232 -80l112 111l31 -33l-111 -111q82 -98 82 -233q0 -142 -84 -236zM221 756q0 -132 83.5 -216.5
t215.5 -84.5q130 0 213.5 84.5t83.5 216.5q0 131 -83.5 215t-213.5 84q-132 0 -215.5 -84t-83.5 -215z" />
    <glyph glyph-name="yen" unicode="&#xa5;" horiz-adv-x="1376" 
d="M1278 569h-563v-569h-51v569h-566v47h559l-180 291h-379v47h351l-357 582h62l534 -877l535 877h61l-356 -582h350v-47h-379l-180 -291h559v-47z" />
    <glyph glyph-name="brokenbar" unicode="&#xa6;" horiz-adv-x="436" 
d="M242 696h-49v1004h49v-1004zM242 -676h-49v1004h49v-1004z" />
    <glyph glyph-name="section" unicode="&#xa7;" horiz-adv-x="1286" 
d="M1057 -156q0 -119 -64.5 -204.5t-166.5 -125.5t-228 -40q-238 0 -422 143v64q184 -158 426 -158q81 0 152 19.5t127.5 57.5t89.5 100t33 140q0 100 -63.5 174.5t-168.5 122.5l-483 215q-118 52 -167.5 152.5t-12.5 206.5q26 87 97.5 139t164.5 57q-142 112 -142 273
q0 118 64.5 202.5t166.5 124t228 39.5q239 0 420 -143v-64q-181 158 -424 158q-110 0 -199 -33.5t-145.5 -106t-56.5 -173.5t63 -177t168 -122l483 -217q116 -53 165 -155.5t9 -209.5q-34 -89 -100 -137t-156 -51q142 -109 142 -271zM836 166q93 -23 173.5 15t112.5 122
q37 94 -5.5 185t-143.5 135l-492 219q-4 2 -13 6t-13 6q-94 25 -176.5 -13t-114.5 -122q-40 -95 3 -186.5t146 -135.5l490 -217q5 -2 16.5 -7t16.5 -7z" />
    <glyph glyph-name="dieresis" unicode="&#xa8;" horiz-adv-x="845" 
d="M227 1247q-20 0 -33.5 14.5t-13.5 34.5q0 21 13.5 35.5t33.5 14.5t33.5 -14.5t13.5 -35.5q0 -20 -13.5 -34.5t-33.5 -14.5zM618 1247q-21 0 -34 14t-13 35t13 35.5t34 14.5q20 0 34 -15t14 -35t-14 -34.5t-34 -14.5z" />
    <glyph glyph-name="copyright" unicode="&#xa9;" horiz-adv-x="1759" 
d="M877 -14q-225 0 -402.5 98.5t-277 276.5t-99.5 405q0 170 58 316t160 248.5t247 161t314 58.5q170 0 316 -58.5t248.5 -161t161 -248.5t58.5 -316q0 -228 -100 -406t-278.5 -276t-405.5 -98zM877 27q160 0 297.5 55t234.5 151.5t152 234t55 298.5q0 160 -55 297.5
t-151.5 235t-234.5 153t-298 55.5q-213 0 -381 -94.5t-261.5 -263.5t-93.5 -383q0 -213 94 -382t262 -263t380 -94zM903 305q-200 0 -324 132.5t-124 336.5q0 203 126.5 334t327.5 131q146 0 277 -86v-51q-125 92 -275 92q-181 0 -295 -118t-114 -300q0 -185 111.5 -305.5
t291.5 -120.5q156 0 275 90v-49q-117 -86 -277 -86z" />
    <glyph glyph-name="ordfeminine" unicode="&#xaa;" horiz-adv-x="946" 
d="M778 834v194q-40 -97 -124 -153t-195 -56q-158 0 -259.5 104t-101.5 265q0 159 102 260.5t259 101.5q111 0 195 -54.5t124 -149.5v190h41v-702h-41zM461 864q139 0 226 91t87 233q0 141 -87.5 229t-225.5 88q-139 0 -227.5 -88.5t-88.5 -228.5q0 -141 88.5 -232.5
t227.5 -91.5zM154 666h669v-43h-669v43z" />
    <glyph glyph-name="guillemotleft" unicode="&#xab;" horiz-adv-x="925" 
d="M397 139l-303 402l303 385h58l-303 -385l303 -402h-58zM754 139l-303 402l303 385h57l-305 -385l305 -402h-57z" />
    <glyph glyph-name="logicalnot" unicode="&#xac;" horiz-adv-x="1050" 
d="M92 1006h866v-459h-49v411h-817v48z" />
    <glyph glyph-name="uni00AD" unicode="&#xad;" horiz-adv-x="0" 
 />
    <glyph glyph-name="registered" unicode="&#xae;" horiz-adv-x="1759" 
d="M877 -14q-225 0 -402.5 98.5t-277 276.5t-99.5 405q0 170 58 316t160 248.5t247 161t314 58.5q170 0 316 -58.5t248.5 -161t161 -248.5t58.5 -316q0 -228 -100 -406t-278.5 -276t-405.5 -98zM877 27q160 0 297.5 55t234.5 151.5t152 234t55 298.5q0 160 -55 297.5
t-151.5 235t-234.5 153t-298 55.5q-213 0 -381 -94.5t-261.5 -263.5t-93.5 -383q0 -213 94 -382t262 -263t380 -94zM651 672v-365h-47v922h338q121 0 198 -78.5t77 -200.5q0 -108 -62.5 -182.5t-163.5 -91.5l234 -369h-56l-229 365h-289zM940 1186h-289v-471h285
q102 0 167.5 65.5t65.5 169.5q0 105 -63.5 170.5t-165.5 65.5z" />
    <glyph glyph-name="macron" unicode="&#xaf;" horiz-adv-x="845" 
d="M135 1333h574v-45h-574v45z" />
    <glyph glyph-name="degree" unicode="&#xb0;" horiz-adv-x="829" 
d="M414 872q-148 0 -244 96t-96 244q0 146 96 242t244 96t244 -96t96 -242q0 -148 -96 -244t-244 -96zM709 1212q0 128 -83.5 211.5t-211.5 83.5t-211.5 -83.5t-83.5 -211.5q0 -129 83.5 -213t211.5 -84t211.5 84t83.5 213z" />
    <glyph glyph-name="plusminus" unicode="&#xb1;" horiz-adv-x="1050" 
d="M958 907h-409v-362h-47v362h-410v47h410v363h47v-363h409v-47zM92 369v47h866v-47h-866z" />
    <glyph glyph-name="twosuperior" unicode="&#xb2;" horiz-adv-x="749" 
d="M688 655v-41h-684l393 396l38.5 38.5t39.5 40t33 36.5t31 41t21.5 39t17 46t4.5 47q0 97 -68 154t-170 57q-145 0 -293 -127v48q138 120 295 120q122 0 201.5 -67t79.5 -180q0 -44 -13 -83.5t-44.5 -82t-52.5 -65.5t-68 -71l-343 -346h582z" />
    <glyph glyph-name="threesuperior" unicode="&#xb3;" horiz-adv-x="802" 
d="M684 866q0 -85 -49.5 -146t-126 -88.5t-170.5 -27.5q-140 0 -270 86v49q132 -94 272 -94q127 0 212 56.5t85 166.5q0 73 -42 123.5t-106.5 72.5t-144.5 21q-34 0 -104 -8v39l98 17q36 6 68 15.5t66 26.5t58.5 39t40 55t15.5 72q0 82 -59.5 125t-151.5 43
q-160 0 -289 -123v50q123 114 291 114q109 0 181.5 -54.5t72.5 -152.5q0 -92 -62.5 -148.5t-165.5 -80.5q126 -8 203.5 -72t77.5 -176z" />
    <glyph glyph-name="acute" unicode="&#xb4;" horiz-adv-x="845" 
d="M590 1454h63l-233 -295h-47z" />
    <glyph glyph-name="paragraph" unicode="&#xb6;" horiz-adv-x="1034" 
d="M537 1536v-1536h-50v850q-171 2 -280 95.5t-109 246.5q0 156 113 250t289 94h37zM803 0v1536h35v-1536h-35z" />
    <glyph glyph-name="periodcentered" unicode="&#xb7;" horiz-adv-x="845" 
d="M422 770q-20 0 -33.5 14.5t-13.5 34.5t13.5 34.5t33.5 14.5t34.5 -14.5t14.5 -34.5t-14.5 -34.5t-34.5 -14.5z" />
    <glyph glyph-name="cedilla" unicode="&#xb8;" horiz-adv-x="845" 
d="M586 -324q0 -72 -53 -111.5t-132 -39.5q-65 0 -137 35v39q64 -39 135 -39q63 0 103.5 29.5t40.5 86.5q0 54 -36.5 87.5t-92.5 33.5q-41 0 -68 -8l-18 18l84 195h43l-76 -176q24 4 43 4q71 0 117.5 -43t46.5 -111z" />
    <glyph glyph-name="onesuperior" unicode="&#xb9;" horiz-adv-x="491" 
d="M260 614v875l-242 -123v43l285 147v-942h-43z" />
    <glyph glyph-name="ordmasculine" unicode="&#xba;" horiz-adv-x="933" 
d="M467 1550q161 0 264 -101t103 -261q0 -162 -102 -265.5t-265 -103.5q-162 0 -265.5 103.5t-103.5 265.5q0 161 103.5 261.5t265.5 100.5zM786 1188q0 141 -88.5 229t-230.5 88q-143 0 -232.5 -88t-89.5 -229q0 -142 89.5 -234t232.5 -92t231 91.5t88 234.5zM131 623v43
h672v-43h-672z" />
    <glyph glyph-name="guillemotright" unicode="&#xbb;" horiz-adv-x="925" 
d="M526 139h-57l303 402l-303 385h57l303 -385zM170 139h-57l305 402l-305 385h57l303 -385z" />
    <glyph glyph-name="onequarter" unicode="&#xbc;" horiz-adv-x="2074" 
d="M473 614v875l-242 -123v43l285 147v-942h-43zM430 0h-55l1179 1536h54zM1913 209h-154v-209h-45v209h-555l424 713h49l-399 -672h481v377h45v-377h154v-41z" />
    <glyph glyph-name="onehalf" unicode="&#xbd;" horiz-adv-x="2074" 
d="M473 614v875l-242 -123v43l285 147v-942h-43zM428 0h-55l1179 1536h54zM1952 41v-41h-684l393 395l38 38t39.5 41t32.5 36.5t32 41.5t20.5 39t17 46.5t4.5 46.5q0 97 -67.5 154t-169.5 57q-145 0 -293 -127v47q140 121 295 121q121 0 200.5 -67.5t79.5 -180.5
q0 -36 -11.5 -71.5t-24 -59.5t-42.5 -61t-45 -52.5t-55 -56.5l-342 -346h582z" />
    <glyph glyph-name="threequarters" unicode="&#xbe;" horiz-adv-x="2074" 
d="M741 866q0 -85 -49.5 -146t-126 -88.5t-170.5 -27.5q-140 0 -270 86v49q132 -94 272 -94q127 0 212 56.5t85 166.5q0 73 -42 123.5t-106.5 72.5t-144.5 21q-34 0 -104 -8v39l98 17q36 6 68 15.5t66 26.5t58.5 39t40 55t15.5 72q0 82 -59.5 125t-151.5 43
q-160 0 -289 -123v50q123 114 291 114q109 0 181.5 -54.5t72.5 -152.5q0 -92 -62.5 -148.5t-164.5 -80.5q126 -8 203 -72t77 -176zM461 0h-55l1179 1536h53zM1913 209h-154v-209h-45v209h-555l424 713h49l-399 -672h481v377h45v-377h154v-41z" />
    <glyph glyph-name="questiondown" unicode="&#xbf;" horiz-adv-x="1118" 
d="M618 1004q25 0 40.5 -15.5t15.5 -40.5t-15.5 -40t-40.5 -15t-40 15t-15 40t15 40.5t40 15.5zM1022 -137q0 -191 -128.5 -307.5t-336.5 -116.5q-196 0 -315 107.5t-119 285.5q0 132 80 232t231 155l162 60l4 296h45l2 -327l-186 -68q-287 -106 -287 -346
q0 -158 105.5 -253t277.5 -95q186 0 301 103.5t115 273.5h49z" />
    <glyph glyph-name="Agrave" unicode="&#xc0;" horiz-adv-x="1462" 
d="M500 1942h63l219 -295h-49zM1370 0l-207 467h-866l-209 -467h-57l700 1559l701 -1559h-62zM317 514h826l-412 930z" />
    <glyph glyph-name="Aacute" unicode="&#xc1;" horiz-adv-x="1462" 
d="M893 1942h63l-233 -295h-47zM1370 0l-207 467h-866l-209 -467h-57l700 1559l701 -1559h-62zM317 514h826l-412 930z" />
    <glyph glyph-name="Acircumflex" unicode="&#xc2;" horiz-adv-x="1462" 
d="M952 1647l-225 258l-221 -258h-53l245 295h60l248 -295h-54zM1370 0l-207 467h-866l-209 -467h-57l700 1559l701 -1559h-62zM317 514h826l-412 930z" />
    <glyph glyph-name="Atilde" unicode="&#xc3;" horiz-adv-x="1462" 
d="M868 1741q-40 0 -89.5 28t-97 56t-83.5 28q-100 0 -100 -112h-39q-2 74 33 115.5t102 41.5q40 0 91 -28.5t99 -57t82 -28.5q47 0 72 28.5t25 81.5h36q1 -74 -33 -113.5t-98 -39.5zM1370 0l-207 467h-866l-209 -467h-57l700 1559l701 -1559h-62zM317 514h826l-412 930z
" />
    <glyph glyph-name="Adieresis" unicode="&#xc4;" horiz-adv-x="1462" 
d="M535 1769q-20 0 -34 15t-14 35t14 34.5t34 14.5t33.5 -14.5t13.5 -34.5q0 -21 -13.5 -35.5t-33.5 -14.5zM926 1769q-21 0 -34 14.5t-13 35.5t13 35t34 14q20 0 33.5 -14.5t13.5 -34.5q0 -21 -13.5 -35.5t-33.5 -14.5zM1370 0l-207 467h-866l-209 -467h-57l700 1559
l701 -1559h-62zM317 514h826l-412 930z" />
    <glyph glyph-name="Aring" unicode="&#xc5;" horiz-adv-x="1462" 
d="M297 467l-209 -467h-57l692 1538q-68 3 -113 48.5t-45 113.5q0 70 47.5 116t118.5 46t118.5 -46t47.5 -116t-46.5 -116t-111.5 -46l693 -1538h-62l-207 467h-866zM602 1700q0 -55 36.5 -91t92.5 -36t92.5 36t36.5 91t-36.5 91t-92.5 36t-92.5 -36t-36.5 -91zM317 514h826
l-412 930z" />
    <glyph glyph-name="AE" unicode="&#xc6;" horiz-adv-x="2015" 
d="M1098 0v471h-680l-328 -471h-59l1067 1536h854v-49h-803v-692h717v-47h-717v-701h825v-47h-876zM1098 518v932l-647 -932h647z" />
    <glyph glyph-name="Ccedilla" unicode="&#xc7;" horiz-adv-x="1456" 
d="M981 -324q0 -72 -52.5 -111.5t-131.5 -39.5q-66 0 -138 35v39q64 -39 136 -39q62 0 102.5 29.5t40.5 86.5q0 54 -36.5 87.5t-92.5 33.5q-41 0 -68 -8l-18 18l78 181q-312 19 -506.5 235.5t-194.5 544.5q0 226 96.5 404.5t269.5 278t392 99.5q321 0 514 -182v-63
q-190 196 -518 196q-203 0 -363 -94t-248.5 -261t-88.5 -378q0 -212 88.5 -379.5t249.5 -261.5t366 -94q350 0 541 194v-61q-196 -180 -545 -180h-10l-70 -160q24 4 43 4q71 0 117.5 -43t46.5 -111z" />
    <glyph glyph-name="Egrave" unicode="&#xc8;" horiz-adv-x="1114" 
d="M440 1942h64l219 -295h-49zM197 0v1536h854v-49h-803v-692h717v-47h-717v-701h825v-47h-876z" />
    <glyph glyph-name="Eacute" unicode="&#xc9;" horiz-adv-x="1114" 
d="M723 1942h63l-233 -295h-47zM197 0v1536h854v-49h-803v-692h717v-47h-717v-701h825v-47h-876z" />
    <glyph glyph-name="Ecircumflex" unicode="&#xca;" horiz-adv-x="1114" 
d="M858 1647l-225 258l-221 -258h-54l246 295h60l247 -295h-53zM197 0v1536h854v-49h-803v-692h717v-47h-717v-701h825v-47h-876z" />
    <glyph glyph-name="Edieresis" unicode="&#xcb;" horiz-adv-x="1114" 
d="M420 1753q-20 0 -33.5 14.5t-13.5 34.5t13.5 34.5t33.5 14.5t33.5 -14.5t13.5 -34.5t-13.5 -34.5t-33.5 -14.5zM811 1753q-21 0 -34 14t-13 35t13 35t34 14q20 0 33.5 -14.5t13.5 -34.5t-13.5 -34.5t-33.5 -14.5zM197 0v1536h854v-49h-803v-692h717v-47h-717v-701h825
v-47h-876z" />
    <glyph glyph-name="Igrave" unicode="&#xcc;" horiz-adv-x="446" 
d="M-6 1942h63l219 -295h-49zM197 0v1536h51v-1536h-51z" />
    <glyph glyph-name="Iacute" unicode="&#xcd;" horiz-adv-x="446" 
d="M387 1942h64l-234 -295h-47zM197 0v1536h51v-1536h-51z" />
    <glyph glyph-name="Icircumflex" unicode="&#xce;" horiz-adv-x="446" 
d="M446 1647l-225 258l-221 -258h-53l246 295h59l248 -295h-54zM197 0v1536h51v-1536h-51z" />
    <glyph glyph-name="Idieresis" unicode="&#xcf;" horiz-adv-x="446" 
d="M29 1753q-20 0 -33.5 14.5t-13.5 34.5t13.5 34.5t33.5 14.5t33.5 -14.5t13.5 -34.5t-13.5 -34.5t-33.5 -14.5zM420 1753q-21 0 -34 14t-13 35t13 35t34 14q20 0 33.5 -14.5t13.5 -34.5t-13.5 -34.5t-33.5 -14.5zM197 0v1536h51v-1536h-51z" />
    <glyph glyph-name="Eth" unicode="&#xd0;" horiz-adv-x="1607" 
d="M16 801h193v735h493q373 0 588 -206t215 -562q0 -360 -213 -564t-587 -204h-496v752h-193v49zM817 752h-557v-705h447q350 0 548.5 191.5t198.5 529.5q0 335 -198.5 527t-548.5 192h-447v-686h557v-49z" />
    <glyph glyph-name="Ntilde" unicode="&#xd1;" horiz-adv-x="1656" 
d="M989 1741q-40 0 -89.5 28t-97 56t-83.5 28q-101 0 -101 -112h-38q-2 74 33 115.5t102 41.5q40 0 91 -28.5t99 -57t82 -28.5q47 0 71.5 28.5t24.5 81.5h37q1 -74 -33 -113.5t-98 -39.5zM1458 -23l-1210 1448v-1425h-51v1559l1210 -1450v1427h51v-1559z" />
    <glyph glyph-name="Ograve" unicode="&#xd2;" horiz-adv-x="1746" 
d="M645 1942h64l219 -295h-49zM1647 770q0 -227 -98 -405.5t-274.5 -278.5t-402.5 -100q-225 0 -401 100t-273.5 278.5t-97.5 405.5q0 225 98 403t274 277.5t400 99.5q168 0 312.5 -58t246 -161t159 -248t57.5 -313zM872 33q157 0 292 55.5t229 152.5t147 233.5t53 295.5
q0 211 -91 377.5t-256 260t-374 93.5q-208 0 -372 -93.5t-255 -260t-91 -377.5q0 -212 90.5 -380t254.5 -262.5t373 -94.5z" />
    <glyph glyph-name="Oacute" unicode="&#xd3;" horiz-adv-x="1746" 
d="M1032 1942h64l-234 -295h-47zM1647 770q0 -227 -98 -405.5t-274.5 -278.5t-402.5 -100q-225 0 -401 100t-273.5 278.5t-97.5 405.5q0 225 98 403t274 277.5t400 99.5q168 0 312.5 -58t246 -161t159 -248t57.5 -313zM872 33q157 0 292 55.5t229 152.5t147 233.5t53 295.5
q0 211 -91 377.5t-256 260t-374 93.5q-208 0 -372 -93.5t-255 -260t-91 -377.5q0 -212 90.5 -380t254.5 -262.5t373 -94.5z" />
    <glyph glyph-name="Ocircumflex" unicode="&#xd4;" horiz-adv-x="1746" 
d="M1096 1647l-226 258l-221 -258h-53l246 295h59l248 -295h-53zM1647 770q0 -227 -98 -405.5t-274.5 -278.5t-402.5 -100q-225 0 -401 100t-273.5 278.5t-97.5 405.5q0 225 98 403t274 277.5t400 99.5q168 0 312.5 -58t246 -161t159 -248t57.5 -313zM872 33q157 0 292 55.5
t229 152.5t147 233.5t53 295.5q0 211 -91 377.5t-256 260t-374 93.5q-208 0 -372 -93.5t-255 -260t-91 -377.5q0 -212 90.5 -380t254.5 -262.5t373 -94.5z" />
    <glyph glyph-name="Otilde" unicode="&#xd5;" horiz-adv-x="1746" 
d="M1012 1741q-40 0 -90 28t-97.5 56t-83.5 28q-100 0 -100 -112h-39q-2 74 33 115.5t102 41.5q40 0 91.5 -28.5t99.5 -57t82 -28.5q47 0 71.5 28.5t24.5 81.5h37q1 -74 -33 -113.5t-98 -39.5zM1647 770q0 -227 -98 -405.5t-274.5 -278.5t-402.5 -100q-225 0 -401 100
t-273.5 278.5t-97.5 405.5q0 225 98 403t274 277.5t400 99.5q168 0 312.5 -58t246 -161t159 -248t57.5 -313zM872 33q157 0 292 55.5t229 152.5t147 233.5t53 295.5q0 211 -91 377.5t-256 260t-374 93.5q-208 0 -372 -93.5t-255 -260t-91 -377.5q0 -212 90.5 -380
t254.5 -262.5t373 -94.5z" />
    <glyph glyph-name="Odieresis" unicode="&#xd6;" horiz-adv-x="1746" 
d="M678 1753q-20 0 -33.5 14.5t-13.5 34.5t13.5 34.5t33.5 14.5t33.5 -14.5t13.5 -34.5t-13.5 -34.5t-33.5 -14.5zM1069 1753q-21 0 -34 14t-13 35t13 35t34 14q20 0 33.5 -14.5t13.5 -34.5t-13.5 -34.5t-33.5 -14.5zM1647 770q0 -227 -98 -405.5t-274.5 -278.5t-402.5 -100
q-225 0 -401 100t-273.5 278.5t-97.5 405.5q0 225 98 403t274 277.5t400 99.5q168 0 312.5 -58t246 -161t159 -248t57.5 -313zM872 33q157 0 292 55.5t229 152.5t147 233.5t53 295.5q0 211 -91 377.5t-256 260t-374 93.5q-208 0 -372 -93.5t-255 -260t-91 -377.5
q0 -212 90.5 -380t254.5 -262.5t373 -94.5z" />
    <glyph glyph-name="multiply" unicode="&#xd7;" horiz-adv-x="1050" 
d="M891 432l-33 -31l-332 334l-333 -334l-33 31l334 334l-334 334l33 33l333 -334l332 334l33 -33l-334 -334z" />
    <glyph glyph-name="Oslash" unicode="&#xd8;" horiz-adv-x="1763" 
d="M1655 770q0 -227 -97.5 -405.5t-274 -278.5t-402.5 -100q-170 0 -314.5 58.5t-249.5 164.5l-221 -209h-63l256 242q-183 211 -183 528q0 168 57.5 313t159 248t246 161t312.5 58t311.5 -57.5t247.5 -163.5l219 207h63l-254 -240q187 -212 187 -526zM158 770
q0 -290 168 -494l1077 1018q-99 99 -232 153t-290 54q-209 0 -374.5 -94t-257 -260.5t-91.5 -376.5zM1604 770q0 292 -172 492l-1076 -1016q97 -102 231.5 -157.5t293.5 -55.5q157 0 292 55.5t229.5 152.5t148 233.5t53.5 295.5z" />
    <glyph glyph-name="Ugrave" unicode="&#xd9;" horiz-adv-x="1533" 
d="M559 1942h64l219 -295h-49zM164 641v895h51v-897q0 -271 150.5 -438.5t400.5 -167.5t401.5 168t151.5 438v897h51v-895q0 -293 -165 -474t-439 -181q-181 0 -318 82.5t-210.5 231t-73.5 341.5z" />
    <glyph glyph-name="Uacute" unicode="&#xda;" horiz-adv-x="1533" 
d="M909 1942h64l-234 -295h-47zM164 641v895h51v-897q0 -271 150.5 -438.5t400.5 -167.5t401.5 168t151.5 438v897h51v-895q0 -293 -165 -474t-439 -181q-181 0 -318 82.5t-210.5 231t-73.5 341.5z" />
    <glyph glyph-name="Ucircumflex" unicode="&#xdb;" horiz-adv-x="1533" 
d="M989 1647l-225 258l-221 -258h-54l246 295h60l247 -295h-53zM164 641v895h51v-897q0 -271 150.5 -438.5t400.5 -167.5t401.5 168t151.5 438v897h51v-895q0 -293 -165 -474t-439 -181q-181 0 -318 82.5t-210.5 231t-73.5 341.5z" />
    <glyph glyph-name="Udieresis" unicode="&#xdc;" horiz-adv-x="1533" 
d="M571 1753q-20 0 -33.5 14.5t-13.5 34.5t13.5 34.5t33.5 14.5t33.5 -14.5t13.5 -34.5t-13.5 -34.5t-33.5 -14.5zM963 1753q-21 0 -34.5 14t-13.5 35t13.5 35t34.5 14q20 0 33.5 -14.5t13.5 -34.5t-13.5 -34.5t-33.5 -14.5zM164 641v895h51v-897q0 -271 150.5 -438.5
t400.5 -167.5t401.5 168t151.5 438v897h51v-895q0 -293 -165 -474t-439 -181q-181 0 -318 82.5t-210.5 231t-73.5 341.5z" />
    <glyph glyph-name="Yacute" unicode="&#xdd;" horiz-adv-x="1236" 
d="M780 1942h64l-234 -295h-47zM1214 1536l-569 -928v-608h-51v606l-571 930h61l534 -870l537 870h59z" />
    <glyph glyph-name="Thorn" unicode="&#xde;" horiz-adv-x="1155" 
d="M563 299h-315v-299h-51v1536h51v-281h315q237 0 373.5 -127.5t136.5 -349.5q0 -224 -136.5 -351.5t-373.5 -127.5zM563 1206h-315v-858h315q214 0 335.5 114.5t121.5 315.5t-121.5 314.5t-335.5 113.5z" />
    <glyph glyph-name="germandbls" unicode="&#xdf;" horiz-adv-x="1230" 
d="M246 0h-51v1171q0 166 103.5 272.5t266.5 106.5q153 0 251.5 -90t98.5 -235q0 -87 -57 -201l-55 -104q-43 -81 -43 -127q0 -40 26 -67t78 -60l150 -97q72 -43 111.5 -109t39.5 -145q0 -153 -111.5 -241t-277.5 -88q-186 0 -305 92v61q118 -110 305 -110q146 0 242 75.5
t96 208.5q0 68 -35 125.5t-96 96.5l-154 94q-58 36 -89 70.5t-31 84.5q0 26 7 51.5t14 41.5t26 53l53 98q55 108 55 191q0 126 -84.5 205t-216.5 79q-139 0 -228 -92t-89 -237v-1174z" />
    <glyph glyph-name="agrave" unicode="&#xe0;" 
d="M436 1454h64l219 -295h-49zM1067 0v295q-52 -142 -171.5 -225.5t-281.5 -83.5q-217 0 -355 142.5t-138 363.5q0 224 138 368t355 144q161 0 281 -85t172 -229v297h49v-987h-49zM618 954q-197 0 -321.5 -129.5t-124.5 -330.5q0 -202 124.5 -331.5t321.5 -129.5t323 129.5
t126 331.5q0 200 -126 330t-323 130z" />
    <glyph glyph-name="aacute" unicode="&#xe1;" 
d="M817 1454h64l-234 -295h-47zM1067 0v295q-52 -142 -171.5 -225.5t-281.5 -83.5q-217 0 -355 142.5t-138 363.5q0 224 138 368t355 144q161 0 281 -85t172 -229v297h49v-987h-49zM618 954q-197 0 -321.5 -129.5t-124.5 -330.5q0 -202 124.5 -331.5t321.5 -129.5t323 129.5
t126 331.5q0 200 -126 330t-323 130z" />
    <glyph glyph-name="acircumflex" unicode="&#xe2;" 
d="M899 1159l-225 258l-221 -258h-54l246 295h60l247 -295h-53zM1067 0v295q-52 -142 -171.5 -225.5t-281.5 -83.5q-217 0 -355 142.5t-138 363.5q0 224 138 368t355 144q161 0 281 -85t172 -229v297h49v-987h-49zM618 954q-197 0 -321.5 -129.5t-124.5 -330.5
q0 -202 124.5 -331.5t321.5 -129.5t323 129.5t126 331.5q0 200 -126 330t-323 130z" />
    <glyph glyph-name="atilde" unicode="&#xe3;" 
d="M795 1253q-40 0 -90 28.5t-97.5 56.5t-83.5 28q-100 0 -100 -113h-39q-2 74 33 116t102 42q32 0 71.5 -18t70.5 -39.5t67.5 -39.5t63.5 -18q47 0 71.5 29t24.5 82h37q1 -74 -33 -114t-98 -40zM1067 0v295q-52 -142 -171.5 -225.5t-281.5 -83.5q-217 0 -355 142.5
t-138 363.5q0 224 138 368t355 144q161 0 281 -85t172 -229v297h49v-987h-49zM618 954q-197 0 -321.5 -129.5t-124.5 -330.5q0 -202 124.5 -331.5t321.5 -129.5t323 129.5t126 331.5q0 200 -126 330t-323 130z" />
    <glyph glyph-name="adieresis" unicode="&#xe4;" 
d="M461 1247q-20 0 -33.5 14.5t-13.5 34.5q0 21 13.5 35.5t33.5 14.5t33.5 -14.5t13.5 -35.5q0 -20 -13.5 -34.5t-33.5 -14.5zM852 1247q-21 0 -34 14t-13 35t13 35.5t34 14.5q20 0 33.5 -14.5t13.5 -35.5q0 -20 -13.5 -34.5t-33.5 -14.5zM1067 0v295
q-52 -142 -171.5 -225.5t-281.5 -83.5q-217 0 -355 142.5t-138 363.5q0 224 138 368t355 144q161 0 281 -85t172 -229v297h49v-987h-49zM618 954q-197 0 -321.5 -129.5t-124.5 -330.5q0 -202 124.5 -331.5t321.5 -129.5t323 129.5t126 331.5q0 200 -126 330t-323 130z" />
    <glyph glyph-name="aring" unicode="&#xe5;" 
d="M657 1481q71 0 118.5 -46t47.5 -116t-47.5 -116t-118.5 -46t-118 46t-47 116t47 116t118 46zM528 1319q0 -55 36.5 -91t92.5 -36t92.5 36t36.5 91t-36.5 91t-92.5 36t-92.5 -36t-36.5 -91zM1067 0v295q-52 -142 -171.5 -225.5t-281.5 -83.5q-217 0 -355 142.5t-138 363.5
q0 224 138 368t355 144q161 0 281 -85t172 -229v297h49v-987h-49zM618 954q-197 0 -321.5 -129.5t-124.5 -330.5q0 -202 124.5 -331.5t321.5 -129.5t323 129.5t126 331.5q0 200 -126 330t-323 130z" />
    <glyph glyph-name="ae" unicode="&#xe6;" horiz-adv-x="1980" 
d="M1815 117q-159 -131 -383 -131q-160 0 -281 77.5t-184 219.5q-195 -297 -514 -297q-72 0 -134 17t-112 50.5t-78.5 88.5t-28.5 126q0 123 84.5 195t218.5 72h517q-5 184 -113.5 302.5t-282.5 118.5q-195 0 -352 -112v53q155 107 354 107q160 0 273.5 -95t148.5 -256
q38 159 160.5 255t290.5 96q207 0 336.5 -137t132.5 -349q0 -18 -2 -26h-893q5 -203 132.5 -332t326.5 -129q218 0 383 139v-53zM1399 956q-184 0 -303 -117.5t-125 -303.5h846q-6 186 -121 303.5t-297 117.5zM457 31q160 0 284 80t205 215q-21 82 -24 166h-516
q-112 0 -183 -60.5t-71 -163.5q0 -61 25 -107.5t68 -74t96.5 -41.5t115.5 -14z" />
    <glyph glyph-name="ccedilla" unicode="&#xe7;" horiz-adv-x="1071" 
d="M782 -324q0 -72 -52.5 -111.5t-131.5 -39.5q-65 0 -137 35v39q64 -39 135 -39q62 0 102.5 29.5t40.5 86.5q0 54 -36.5 87.5t-92.5 33.5q-40 0 -67 -8l-19 18l78 179q-212 9 -346.5 151t-134.5 357q0 222 141 366t359 144q219 0 352 -136v-61q-123 147 -350 147
q-198 0 -324.5 -129.5t-126.5 -330.5q0 -202 129 -331.5t332 -129.5q209 0 350 135v-57q-137 -119 -338 -125l-70 -160q24 4 43 4q71 0 117.5 -43t46.5 -111z" />
    <glyph glyph-name="egrave" unicode="&#xe8;" horiz-adv-x="1185" 
d="M365 1454h63l219 -295h-49zM1071 498q0 -4 -1 -12.5t-1 -12.5h-897q6 -194 131.5 -318t331.5 -124q219 0 383 139v-53q-159 -131 -383 -131q-232 0 -373 142t-141 364q0 146 56.5 261.5t167 183t257.5 67.5q215 0 342 -142t127 -364zM602 956q-192 0 -307 -122.5
t-123 -315.5h848q-6 191 -119 314.5t-299 123.5z" />
    <glyph glyph-name="eacute" unicode="&#xe9;" horiz-adv-x="1185" 
d="M756 1454h63l-233 -295h-47zM1071 498q0 -4 -1 -12.5t-1 -12.5h-897q6 -194 131.5 -318t331.5 -124q219 0 383 139v-53q-159 -131 -383 -131q-232 0 -373 142t-141 364q0 146 56.5 261.5t167 183t257.5 67.5q215 0 342 -142t127 -364zM602 956q-192 0 -307 -122.5
t-123 -315.5h848q-6 191 -119 314.5t-299 123.5z" />
    <glyph glyph-name="ecircumflex" unicode="&#xea;" horiz-adv-x="1185" 
d="M823 1159l-225 258l-221 -258h-53l245 295h60l248 -295h-54zM1071 498q0 -4 -1 -12.5t-1 -12.5h-897q6 -194 131.5 -318t331.5 -124q219 0 383 139v-53q-159 -131 -383 -131q-232 0 -373 142t-141 364q0 146 56.5 261.5t167 183t257.5 67.5q215 0 342 -142t127 -364z
M602 956q-192 0 -307 -122.5t-123 -315.5h848q-6 191 -119 314.5t-299 123.5z" />
    <glyph glyph-name="edieresis" unicode="&#xeb;" horiz-adv-x="1185" 
d="M403 1247q-20 0 -33.5 14.5t-13.5 34.5q0 21 13.5 35.5t33.5 14.5t34 -15t14 -35t-14 -34.5t-34 -14.5zM795 1247q-21 0 -34 14t-13 35t13 35.5t34 14.5q20 0 33.5 -14.5t13.5 -35.5q0 -20 -13.5 -34.5t-33.5 -14.5zM1071 498q0 -4 -1 -12.5t-1 -12.5h-897
q6 -194 131.5 -318t331.5 -124q219 0 383 139v-53q-159 -131 -383 -131q-232 0 -373 142t-141 364q0 146 56.5 261.5t167 183t257.5 67.5q215 0 342 -142t127 -364zM602 956q-192 0 -307 -122.5t-123 -315.5h848q-6 191 -119 314.5t-299 123.5z" />
    <glyph glyph-name="igrave" unicode="&#xec;" horiz-adv-x="444" 
d="M-6 1454h63l219 -295h-49zM197 0v987h49v-987h-49z" />
    <glyph glyph-name="iacute" unicode="&#xed;" horiz-adv-x="444" 
d="M385 1454h64l-234 -295h-47zM197 0v987h49v-987h-49z" />
    <glyph glyph-name="icircumflex" unicode="&#xee;" horiz-adv-x="444" 
d="M446 1159l-225 258l-221 -258h-53l246 295h59l248 -295h-54zM197 0v987h49v-987h-49z" />
    <glyph glyph-name="idieresis" unicode="&#xef;" horiz-adv-x="444" 
d="M29 1247q-20 0 -33.5 14.5t-13.5 34.5q0 21 13.5 35.5t33.5 14.5t33.5 -14.5t13.5 -35.5q0 -20 -13.5 -34.5t-33.5 -14.5zM420 1247q-21 0 -34 14t-13 35t13 35.5t34 14.5q20 0 33.5 -14.5t13.5 -35.5q0 -20 -13.5 -34.5t-33.5 -14.5zM197 0v987h49v-987h-49z" />
    <glyph glyph-name="eth" unicode="&#xf0;" horiz-adv-x="1138" 
d="M1067 524q0 -244 -139.5 -391t-372.5 -147q-212 0 -348.5 138t-136.5 355q0 218 137.5 356t353.5 138q152 0 271 -71t176 -197q-22 221 -100.5 387t-207.5 266l-223 -209h-63l252 235q-172 119 -410 119v45q260 0 444 -131l127 119h64l-156 -145q161 -128 246.5 -350
t85.5 -517zM557 33q205 0 331 129.5t126 343.5q0 189 -127.5 303.5t-323.5 114.5q-194 0 -318 -125t-124 -320q0 -197 121.5 -321.5t314.5 -124.5z" />
    <glyph glyph-name="ntilde" unicode="&#xf1;" horiz-adv-x="1241" 
d="M760 1253q-40 0 -90 28.5t-97.5 56.5t-83.5 28q-100 0 -100 -113h-39q-2 74 33 116t102 42q32 0 71.5 -18t70.5 -39.5t67.5 -39.5t63.5 -18q47 0 71.5 29t24.5 82h37q1 -74 -33 -114t-98 -40zM246 492v-492h-49v987h49v-291q50 140 159.5 224t247.5 84q209 0 311.5 -126
t102.5 -341v-537h-51v532q0 212 -95.5 317t-275.5 105q-170 0 -284.5 -132t-114.5 -330z" />
    <glyph glyph-name="ograve" unicode="&#xf2;" horiz-adv-x="1243" 
d="M389 1454h64l219 -295h-49zM623 -14q-220 0 -361 143.5t-141 364.5t141 365.5t361 144.5t358.5 -143.5t138.5 -366.5q0 -222 -138.5 -365t-358.5 -143zM1069 494q0 201 -125 330.5t-323 129.5q-197 0 -323 -130t-126 -330t126 -330.5t323 -130.5q198 0 323 130t125 331z
" />
    <glyph glyph-name="oacute" unicode="&#xf3;" horiz-adv-x="1243" 
d="M791 1454h63l-233 -295h-48zM623 -14q-220 0 -361 143.5t-141 364.5t141 365.5t361 144.5t358.5 -143.5t138.5 -366.5q0 -222 -138.5 -365t-358.5 -143zM1069 494q0 201 -125 330.5t-323 129.5q-197 0 -323 -130t-126 -330t126 -330.5t323 -130.5q198 0 323 130t125 331z
" />
    <glyph glyph-name="ocircumflex" unicode="&#xf4;" horiz-adv-x="1243" 
d="M844 1159l-226 258l-221 -258h-53l246 295h59l248 -295h-53zM623 -14q-220 0 -361 143.5t-141 364.5t141 365.5t361 144.5t358.5 -143.5t138.5 -366.5q0 -222 -138.5 -365t-358.5 -143zM1069 494q0 201 -125 330.5t-323 129.5q-197 0 -323 -130t-126 -330t126 -330.5
t323 -130.5q198 0 323 130t125 331z" />
    <glyph glyph-name="otilde" unicode="&#xf5;" horiz-adv-x="1243" 
d="M756 1253q-40 0 -90 28.5t-97.5 56.5t-83.5 28q-100 0 -100 -113h-39q-2 74 33 116t102 42q32 0 71.5 -18t70.5 -39.5t67.5 -39.5t63.5 -18q47 0 71.5 29t24.5 82h37q1 -74 -33 -114t-98 -40zM623 -14q-220 0 -361 143.5t-141 364.5t141 365.5t361 144.5t358.5 -143.5
t138.5 -366.5q0 -222 -138.5 -365t-358.5 -143zM1069 494q0 201 -125 330.5t-323 129.5q-197 0 -323 -130t-126 -330t126 -330.5t323 -130.5q198 0 323 130t125 331z" />
    <glyph glyph-name="odieresis" unicode="&#xf6;" horiz-adv-x="1243" 
d="M422 1247q-20 0 -33.5 14.5t-13.5 34.5q0 21 13.5 35.5t33.5 14.5t33.5 -14.5t13.5 -35.5q0 -20 -13.5 -34.5t-33.5 -14.5zM813 1247q-21 0 -34 14t-13 35t13 35.5t34 14.5q20 0 33.5 -14.5t13.5 -35.5q0 -20 -13.5 -34.5t-33.5 -14.5zM623 -14q-220 0 -361 143.5
t-141 364.5t141 365.5t361 144.5t358.5 -143.5t138.5 -366.5q0 -222 -138.5 -365t-358.5 -143zM1069 494q0 201 -125 330.5t-323 129.5q-197 0 -323 -130t-126 -330t126 -330.5t323 -130.5q198 0 323 130t125 331z" />
    <glyph glyph-name="divide" unicode="&#xf7;" horiz-adv-x="1050" 
d="M524 1028q-19 0 -34 15.5t-15 35.5q0 25 14.5 38t34.5 13q22 0 35.5 -13t13.5 -38q0 -20 -14.5 -35.5t-34.5 -15.5zM92 745v48h866v-48h-866zM524 406q-19 0 -34 15.5t-15 35.5q0 25 14.5 38t34.5 13q22 0 35.5 -13t13.5 -38q0 -20 -14.5 -35.5t-34.5 -15.5z" />
    <glyph glyph-name="oslash" unicode="&#xf8;" horiz-adv-x="1253" 
d="M1124 494q0 -222 -139 -365t-358 -143q-220 0 -357 143l-141 -129h-63l174 162q-111 136 -111 332q0 221 139.5 365.5t358.5 144.5q217 0 358 -144l137 127h64l-172 -160q110 -138 110 -333zM178 494q0 -174 96 -297l674 628q-126 129 -321 129q-197 0 -323 -130
t-126 -330zM1073 494q0 174 -96 297l-672 -629q126 -129 322 -129q197 0 321.5 130t124.5 331z" />
    <glyph glyph-name="ugrave" unicode="&#xf9;" horiz-adv-x="1183" 
d="M365 1454h63l219 -295h-49zM967 420v567h49v-563q0 -209 -114.5 -323.5t-309.5 -114.5q-198 0 -312 114.5t-114 323.5v563h49v-567q0 -188 101.5 -287.5t275.5 -99.5q172 0 273.5 100t101.5 287z" />
    <glyph glyph-name="uacute" unicode="&#xfa;" horiz-adv-x="1183" 
d="M752 1454h63l-233 -295h-47zM967 420v567h49v-563q0 -209 -114.5 -323.5t-309.5 -114.5q-198 0 -312 114.5t-114 323.5v563h49v-567q0 -188 101.5 -287.5t275.5 -99.5q172 0 273.5 100t101.5 287z" />
    <glyph glyph-name="ucircumflex" unicode="&#xfb;" horiz-adv-x="1183" 
d="M813 1159l-225 258l-221 -258h-54l246 295h59l248 -295h-53zM967 420v567h49v-563q0 -209 -114.5 -323.5t-309.5 -114.5q-198 0 -312 114.5t-114 323.5v563h49v-567q0 -188 101.5 -287.5t275.5 -99.5q172 0 273.5 100t101.5 287z" />
    <glyph glyph-name="udieresis" unicode="&#xfc;" horiz-adv-x="1183" 
d="M395 1247q-20 0 -33.5 14.5t-13.5 34.5q0 21 13.5 35.5t33.5 14.5t33.5 -14.5t13.5 -35.5q0 -20 -13.5 -34.5t-33.5 -14.5zM786 1247q-21 0 -34 14t-13 35t13 35.5t34 14.5q20 0 34 -15t14 -35t-14 -34.5t-34 -14.5zM967 420v567h49v-563q0 -209 -114.5 -323.5
t-309.5 -114.5q-198 0 -312 114.5t-114 323.5v563h49v-567q0 -188 101.5 -287.5t275.5 -99.5q172 0 273.5 100t101.5 287z" />
    <glyph glyph-name="yacute" unicode="&#xfd;" horiz-adv-x="1019" 
d="M694 1454h64l-234 -295h-47zM979 987l-733 -1499h-53l309 633l-465 866h59l432 -811l396 811h55z" />
    <glyph glyph-name="thorn" unicode="&#xfe;" 
d="M698 -14q-160 0 -280 85t-172 228v-811h-49v2048h49v-846q52 143 172 228.5t280 85.5q216 0 355 -144.5t139 -365.5q0 -220 -139 -364t-355 -144zM1141 494q0 201 -125 330.5t-322 129.5t-322.5 -130t-125.5 -330q0 -201 125.5 -331t322.5 -130t322 130t125 331z" />
    <glyph glyph-name="ydieresis" unicode="&#xff;" horiz-adv-x="1019" 
d="M324 1247q-20 0 -34 14.5t-14 34.5t14 35t34 15t33.5 -14.5t13.5 -35.5q0 -20 -13.5 -34.5t-33.5 -14.5zM715 1247q-21 0 -34 14t-13 35t13 35.5t34 14.5q20 0 33.5 -14.5t13.5 -35.5q0 -20 -13.5 -34.5t-33.5 -14.5zM979 987l-733 -1499h-53l309 633l-465 866h59
l432 -811l396 811h55z" />
    <glyph glyph-name="Amacron" unicode="&#x100;" horiz-adv-x="1462" 
d="M442 1821h574v-45h-574v45zM1370 0l-207 467h-866l-209 -467h-57l700 1559l701 -1559h-62zM317 514h826l-412 930z" />
    <glyph glyph-name="amacron" unicode="&#x101;" 
d="M371 1333h573v-45h-573v45zM1067 0v295q-52 -142 -171.5 -225.5t-281.5 -83.5q-217 0 -355 142.5t-138 363.5q0 224 138 368t355 144q161 0 281 -85t172 -229v297h49v-987h-49zM618 954q-197 0 -321.5 -129.5t-124.5 -330.5q0 -202 124.5 -331.5t321.5 -129.5t323 129.5
t126 331.5q0 200 -126 330t-323 130z" />
    <glyph glyph-name="Abreve" unicode="&#x102;" horiz-adv-x="1462" 
d="M729 1731q94 0 159.5 61.5t65.5 149.5h43q0 -105 -77.5 -179.5t-190.5 -74.5t-189.5 74.5t-76.5 179.5h45q0 -88 64.5 -149.5t156.5 -61.5zM1370 0l-207 467h-866l-209 -467h-57l700 1559l701 -1559h-62zM317 514h826l-412 930z" />
    <glyph glyph-name="abreve" unicode="&#x103;" 
d="M643 1225q94 0 159.5 61.5t65.5 149.5h43q0 -105 -77.5 -179.5t-190.5 -74.5t-189.5 74.5t-76.5 179.5h45q0 -88 64.5 -149.5t156.5 -61.5zM1067 0v295q-52 -142 -171.5 -225.5t-281.5 -83.5q-217 0 -355 142.5t-138 363.5q0 224 138 368t355 144q161 0 281 -85t172 -229
v297h49v-987h-49zM618 954q-197 0 -321.5 -129.5t-124.5 -330.5q0 -202 124.5 -331.5t321.5 -129.5t323 129.5t126 331.5q0 200 -126 330t-323 130z" />
    <glyph glyph-name="Aogonek" unicode="&#x104;" horiz-adv-x="1462" 
d="M1427 -453q-57 -22 -102 -22q-67 0 -114.5 36t-59.5 101q-10 56 3 106.5t46.5 92.5t74 75t95.5 66l-207 465h-866l-209 -467h-57l700 1559l701 -1559h-5q-57 -36 -95.5 -65t-76.5 -70t-53 -89t-6 -102q9 -52 46.5 -81t92.5 -29q46 0 92 22v-39zM317 514h826l-412 930z
" />
    <glyph glyph-name="aogonek" unicode="&#x105;" 
d="M1116 -453q-57 -22 -102 -22q-67 0 -114.5 36t-59.5 101q-10 58 3.5 109.5t48.5 93.5t76.5 75t98.5 66v289q-52 -142 -171.5 -225.5t-281.5 -83.5q-217 0 -355 142.5t-138 363.5q0 224 138 368t355 144q161 0 281 -85t172 -229v297h49v-987q-57 -36 -95.5 -65t-76.5 -70
t-53 -89t-6 -102q9 -52 46.5 -81t92.5 -29q46 0 92 22v-39zM618 954q-197 0 -321.5 -129.5t-124.5 -330.5q0 -202 124.5 -331.5t321.5 -129.5t323 129.5t126 331.5q0 200 -126 330t-323 130z" />
    <glyph glyph-name="Cacute" unicode="&#x106;" horiz-adv-x="1456" 
d="M1028 1942h64l-234 -295h-47zM854 -14q-219 0 -391 99.5t-267.5 278t-95.5 404.5t96.5 404.5t269.5 278t392 99.5q321 0 514 -182v-63q-190 196 -518 196q-203 0 -363 -94t-248.5 -261t-88.5 -378q0 -212 88.5 -379.5t249.5 -261.5t366 -94q350 0 541 194v-61
q-196 -180 -545 -180z" />
    <glyph glyph-name="cacute" unicode="&#x107;" horiz-adv-x="1071" 
d="M748 1454h63l-233 -295h-48zM172 494q0 -202 129 -331.5t332 -129.5q209 0 350 135v-57q-143 -125 -354 -125q-222 0 -365 143t-143 365t141 366t359 144q219 0 352 -136v-61q-123 147 -350 147q-198 0 -324.5 -129.5t-126.5 -330.5z" />
    <glyph glyph-name="Ccircumflex" unicode="&#x108;" horiz-adv-x="1456" 
d="M1083 1647l-225 258l-221 -258h-53l245 295h60l248 -295h-54zM854 -14q-219 0 -391 99.5t-267.5 278t-95.5 404.5t96.5 404.5t269.5 278t392 99.5q321 0 514 -182v-63q-190 196 -518 196q-203 0 -363 -94t-248.5 -261t-88.5 -378q0 -212 88.5 -379.5t249.5 -261.5
t366 -94q350 0 541 194v-61q-196 -180 -545 -180z" />
    <glyph glyph-name="ccircumflex" unicode="&#x109;" horiz-adv-x="1071" 
d="M831 1159l-225 258l-221 -258h-53l246 295h59l248 -295h-54zM172 494q0 -202 129 -331.5t332 -129.5q209 0 350 135v-57q-143 -125 -354 -125q-222 0 -365 143t-143 365t141 366t359 144q219 0 352 -136v-61q-123 147 -350 147q-198 0 -324.5 -129.5t-126.5 -330.5z" />
    <glyph glyph-name="Cdotaccent" unicode="&#x10a;" horiz-adv-x="1456" 
d="M860 1753q-20 0 -33.5 14.5t-13.5 34.5q0 21 13.5 36t33.5 15t34.5 -15.5t14.5 -35.5t-14.5 -34.5t-34.5 -14.5zM854 -14q-219 0 -391 99.5t-267.5 278t-95.5 404.5t96.5 404.5t269.5 278t392 99.5q321 0 514 -182v-63q-190 196 -518 196q-203 0 -363 -94t-248.5 -261
t-88.5 -378q0 -212 88.5 -379.5t249.5 -261.5t366 -94q350 0 541 194v-61q-196 -180 -545 -180z" />
    <glyph glyph-name="cdotaccent" unicode="&#x10b;" horiz-adv-x="1071" 
d="M616 1247q-20 0 -33.5 14.5t-13.5 34.5q0 21 13.5 36.5t33.5 15.5t35 -16t15 -36t-15 -34.5t-35 -14.5zM172 494q0 -202 129 -331.5t332 -129.5q209 0 350 135v-57q-143 -125 -354 -125q-222 0 -365 143t-143 365t141 366t359 144q219 0 352 -136v-61q-123 147 -350 147
q-198 0 -324.5 -129.5t-126.5 -330.5z" />
    <glyph glyph-name="Ccaron" unicode="&#x10c;" horiz-adv-x="1456" 
d="M1130 1942l-247 -295h-60l-245 295h53l221 -261l225 261h53zM854 -14q-219 0 -391 99.5t-267.5 278t-95.5 404.5t96.5 404.5t269.5 278t392 99.5q321 0 514 -182v-63q-190 196 -518 196q-203 0 -363 -94t-248.5 -261t-88.5 -378q0 -212 88.5 -379.5t249.5 -261.5t366 -94
q350 0 541 194v-61q-196 -180 -545 -180z" />
    <glyph glyph-name="ccaron" unicode="&#x10d;" horiz-adv-x="1071" 
d="M883 1454l-248 -295h-60l-245 295h53l221 -260l225 260h54zM172 494q0 -202 129 -331.5t332 -129.5q209 0 350 135v-57q-143 -125 -354 -125q-222 0 -365 143t-143 365t141 366t359 144q219 0 352 -136v-61q-123 147 -350 147q-198 0 -324.5 -129.5t-126.5 -330.5z" />
    <glyph glyph-name="Dcaron" unicode="&#x10e;" horiz-adv-x="1597" 
d="M1067 1942l-248 -295h-59l-246 295h53l221 -261l226 261h53zM197 0v1536h495q373 0 588 -206t215 -562q0 -360 -214.5 -564t-588.5 -204h-495zM694 1487h-446v-1440h446q352 0 550 191.5t198 529.5q0 335 -198.5 527t-549.5 192z" />
    <glyph glyph-name="dcaron" unicode="&#x10f;" horiz-adv-x="1339" 
d="M1067 0v297q-52 -143 -172 -227t-281 -84q-217 0 -355 142.5t-138 363.5q0 224 138 368t355 144q160 0 280.5 -85.5t172.5 -228.5v846h49v-1536h-49zM1282 1182h-39l74 354h51zM618 954q-197 0 -321.5 -129.5t-124.5 -330.5q0 -202 124.5 -331.5t321.5 -129.5t323 129.5
t126 331.5q0 200 -126 330t-323 130z" />
    <glyph glyph-name="Dcroat" unicode="&#x110;" horiz-adv-x="1605" 
d="M12 801h193v735h495q373 0 588 -206t215 -562q0 -360 -214.5 -564t-588.5 -204h-495v752h-193v49zM815 752h-559v-705h449q350 0 547.5 191.5t197.5 529.5q0 335 -198 527t-547 192h-449v-686h559v-49z" />
    <glyph glyph-name="dcroat" unicode="&#x111;" 
d="M1067 0v297q-52 -143 -172 -227t-281 -84q-217 0 -355 142.5t-138 363.5q0 224 138 368t355 144q160 0 280.5 -85.5t172.5 -228.5v549h-330v43h330v254h49v-254h193v-43h-193v-1239h-49zM1067 494q0 200 -126 330t-323 130t-321.5 -129.5t-124.5 -330.5t124.5 -331
t321.5 -130t323 130.5t126 330.5z" />
    <glyph glyph-name="Emacron" unicode="&#x112;" horiz-adv-x="1114" 
d="M336 1821h573v-45h-573v45zM197 0v1536h854v-49h-803v-692h717v-47h-717v-701h825v-47h-876z" />
    <glyph glyph-name="emacron" unicode="&#x113;" horiz-adv-x="1185" 
d="M305 1333h574v-45h-574v45zM1071 498q0 -4 -1 -12.5t-1 -12.5h-897q6 -194 131.5 -318t331.5 -124q219 0 383 139v-53q-159 -131 -383 -131q-232 0 -373 142t-141 364q0 146 56.5 261.5t167 183t257.5 67.5q215 0 342 -142t127 -364zM602 956q-192 0 -307 -122.5
t-123 -315.5h848q-6 191 -119 314.5t-299 123.5z" />
    <glyph glyph-name="Ebreve" unicode="&#x114;" horiz-adv-x="1114" 
d="M631 1731q94 0 159.5 61.5t65.5 149.5h43q0 -105 -77.5 -179.5t-190.5 -74.5t-189.5 74.5t-76.5 179.5h45q0 -88 64.5 -149.5t156.5 -61.5zM197 0v1536h854v-49h-803v-692h717v-47h-717v-701h825v-47h-876z" />
    <glyph glyph-name="ebreve" unicode="&#x115;" horiz-adv-x="1185" 
d="M600 1225q94 0 159.5 61.5t65.5 149.5h43q0 -105 -77.5 -179.5t-190.5 -74.5t-189.5 74.5t-76.5 179.5h45q0 -88 64.5 -149.5t156.5 -61.5zM1071 498q0 -4 -1 -12.5t-1 -12.5h-897q6 -194 131.5 -318t331.5 -124q219 0 383 139v-53q-159 -131 -383 -131q-232 0 -373 142
t-141 364q0 146 56.5 261.5t167 183t257.5 67.5q215 0 342 -142t127 -364zM602 956q-192 0 -307 -122.5t-123 -315.5h848q-6 191 -119 314.5t-299 123.5z" />
    <glyph glyph-name="Edotaccent" unicode="&#x116;" horiz-adv-x="1114" 
d="M621 1753q-20 0 -34 14.5t-14 34.5q0 21 14 36t34 15t34.5 -15.5t14.5 -35.5t-14.5 -34.5t-34.5 -14.5zM197 0v1536h854v-49h-803v-692h717v-47h-717v-701h825v-47h-876z" />
    <glyph glyph-name="edotaccent" unicode="&#x117;" horiz-adv-x="1185" 
d="M602 1247q-20 0 -33.5 14.5t-13.5 34.5q0 21 13.5 36.5t33.5 15.5t34.5 -15.5t14.5 -36.5q0 -20 -14.5 -34.5t-34.5 -14.5zM1071 498q0 -4 -1 -12.5t-1 -12.5h-897q6 -194 131.5 -318t331.5 -124q219 0 383 139v-53q-159 -131 -383 -131q-232 0 -373 142t-141 364
q0 146 56.5 261.5t167 183t257.5 67.5q215 0 342 -142t127 -364zM602 956q-192 0 -307 -122.5t-123 -315.5h848q-6 191 -119 314.5t-299 123.5z" />
    <glyph glyph-name="Eogonek" unicode="&#x118;" horiz-adv-x="1114" 
d="M197 0v1536h854v-49h-803v-692h717v-47h-717v-701h825v-47q-57 -36 -95.5 -65t-76.5 -70t-53 -89t-6 -102q9 -52 46.5 -81t92.5 -29q46 0 92 22v-39q-57 -22 -102 -22q-67 0 -114.5 36t-59.5 101q-13 74 16 139.5t78 109.5t123 89h-817z" />
    <glyph glyph-name="eogonek" unicode="&#x119;" horiz-adv-x="1183" 
d="M1069 498v-25h-897q6 -195 131.5 -318.5t331.5 -123.5q215 0 383 139v-53q-49 -42 -141 -86q-64 -35 -113 -69t-93.5 -79t-63.5 -98.5t-9 -110.5q9 -52 45.5 -81t91.5 -29q48 0 94 22v-39q-60 -22 -102 -22q-69 0 -116.5 36t-59.5 101q-34 186 215 336q-64 -12 -131 -12
q-235 0 -374.5 142t-139.5 364q0 145 56.5 260.5t167 183.5t257.5 68q215 0 341 -142t126 -364zM602 954q-192 0 -307 -122t-123 -314h848q-6 193 -118.5 314.5t-299.5 121.5z" />
    <glyph glyph-name="Ecaron" unicode="&#x11a;" horiz-adv-x="1114" 
d="M909 1942l-247 -295h-60l-246 295h54l221 -261l225 261h53zM197 0v1536h854v-49h-803v-692h717v-47h-717v-701h825v-47h-876z" />
    <glyph glyph-name="ecaron" unicode="&#x11b;" horiz-adv-x="1185" 
d="M879 1454l-248 -295h-60l-245 295h53l221 -260l225 260h54zM1071 498q0 -4 -1 -12.5t-1 -12.5h-897q6 -194 131.5 -318t331.5 -124q219 0 383 139v-53q-159 -131 -383 -131q-232 0 -373 142t-141 364q0 146 56.5 261.5t167 183t257.5 67.5q215 0 342 -142t127 -364z
M602 956q-192 0 -307 -122.5t-123 -315.5h848q-6 191 -119 314.5t-299 123.5z" />
    <glyph glyph-name="Gcircumflex" unicode="&#x11c;" horiz-adv-x="1589" 
d="M1094 1647l-226 258l-221 -258h-53l246 295h59l248 -295h-53zM1479 205q-239 -219 -607 -219q-225 0 -401 100t-273.5 278.5t-97.5 405.5q0 225 98.5 403t275 277.5t400.5 99.5q328 0 523 -184v-63q-190 198 -523 198q-209 0 -373.5 -93.5t-255.5 -260t-91 -377.5
q0 -212 91 -380t255.5 -262.5t373.5 -94.5q328 0 553 194v508h-604v47h656v-577z" />
    <glyph glyph-name="gcircumflex" unicode="&#x11d;" 
d="M905 1159l-225 258l-221 -258h-53l245 295h60l247 -295h-53zM1116 -33q0 -235 -135 -362t-379 -127q-120 0 -228 39t-179 110v60q68 -77 177 -119.5t230 -42.5q223 0 344 113t121 327v332q-52 -142 -172.5 -226.5t-280.5 -84.5q-216 0 -354.5 143.5t-138.5 362.5
q0 222 138.5 367t354.5 145q160 0 280.5 -85.5t172.5 -230.5v299h49v-1020zM1067 494q0 200 -126 330t-323 130t-321.5 -129.5t-124.5 -330.5q0 -202 124.5 -331.5t321.5 -129.5t323 129.5t126 331.5z" />
    <glyph glyph-name="Gbreve" unicode="&#x11e;" horiz-adv-x="1589" 
d="M801 1731q94 0 159.5 61.5t65.5 149.5h43q0 -105 -77.5 -179.5t-190.5 -74.5t-189.5 74.5t-76.5 179.5h45q0 -88 64.5 -149.5t156.5 -61.5zM1479 205q-239 -219 -607 -219q-225 0 -401 100t-273.5 278.5t-97.5 405.5q0 225 98.5 403t275 277.5t400.5 99.5q328 0 523 -184
v-63q-190 198 -523 198q-209 0 -373.5 -93.5t-255.5 -260t-91 -377.5q0 -212 91 -380t255.5 -262.5t373.5 -94.5q328 0 553 194v508h-604v47h656v-577z" />
    <glyph glyph-name="gbreve" unicode="&#x11f;" 
d="M666 1225q94 0 159.5 61.5t65.5 149.5h43q0 -105 -77.5 -179.5t-190.5 -74.5t-190 74.5t-77 179.5h45q0 -88 65 -149.5t157 -61.5zM1116 -33q0 -235 -135 -362t-379 -127q-120 0 -228 39t-179 110v60q68 -77 177 -119.5t230 -42.5q223 0 344 113t121 327v332
q-52 -142 -172.5 -226.5t-280.5 -84.5q-216 0 -354.5 143.5t-138.5 362.5q0 222 138.5 367t354.5 145q160 0 280.5 -85.5t172.5 -230.5v299h49v-1020zM1067 494q0 200 -126 330t-323 130t-321.5 -129.5t-124.5 -330.5q0 -202 124.5 -331.5t321.5 -129.5t323 129.5t126 331.5
z" />
    <glyph glyph-name="Gdotaccent" unicode="&#x120;" horiz-adv-x="1589" 
d="M860 1753q-20 0 -33.5 14.5t-13.5 34.5q0 21 13.5 36t33.5 15t34.5 -15.5t14.5 -35.5t-14.5 -34.5t-34.5 -14.5zM1479 205q-239 -219 -607 -219q-225 0 -401 100t-273.5 278.5t-97.5 405.5q0 225 98.5 403t275 277.5t400.5 99.5q328 0 523 -184v-63q-190 198 -523 198
q-209 0 -373.5 -93.5t-255.5 -260t-91 -377.5q0 -212 91 -380t255.5 -262.5t373.5 -94.5q328 0 553 194v508h-604v47h656v-577z" />
    <glyph glyph-name="gdotaccent" unicode="&#x121;" 
d="M680 1247q-20 0 -33.5 14.5t-13.5 34.5q0 21 13.5 36.5t33.5 15.5t34.5 -15.5t14.5 -36.5q0 -20 -14.5 -34.5t-34.5 -14.5zM1116 -33q0 -235 -135 -362t-379 -127q-120 0 -228 39t-179 110v60q68 -77 177 -119.5t230 -42.5q223 0 344 113t121 327v332
q-52 -142 -172.5 -226.5t-280.5 -84.5q-216 0 -354.5 143.5t-138.5 362.5q0 222 138.5 367t354.5 145q160 0 280.5 -85.5t172.5 -230.5v299h49v-1020zM1067 494q0 200 -126 330t-323 130t-321.5 -129.5t-124.5 -330.5q0 -202 124.5 -331.5t321.5 -129.5t323 129.5t126 331.5
z" />
    <glyph glyph-name="Gcommaaccent" unicode="&#x122;" horiz-adv-x="1589" 
d="M1479 205q-239 -219 -607 -219q-225 0 -401 100t-273.5 278.5t-97.5 405.5q0 225 98.5 403t275 277.5t400.5 99.5q328 0 523 -184v-63q-190 198 -523 198q-209 0 -373.5 -93.5t-255.5 -260t-91 -377.5q0 -212 91 -380t255.5 -262.5t373.5 -94.5q328 0 553 194v508h-604
v47h656v-577zM838 -139h57l-125 -236h-41z" />
    <glyph glyph-name="gcommaaccent" unicode="&#x123;" 
d="M750 1364h38l-108 -236h-55zM1116 -33q0 -235 -135 -362t-379 -127q-120 0 -228 39t-179 110v60q68 -77 177 -119.5t230 -42.5q223 0 344 113t121 327v332q-52 -142 -172.5 -226.5t-280.5 -84.5q-216 0 -354.5 143.5t-138.5 362.5q0 222 138.5 367t354.5 145
q160 0 280.5 -85.5t172.5 -230.5v299h49v-1020zM1067 494q0 200 -126 330t-323 130t-321.5 -129.5t-124.5 -330.5q0 -202 124.5 -331.5t321.5 -129.5t323 129.5t126 331.5z" />
    <glyph glyph-name="Hcircumflex" unicode="&#x124;" horiz-adv-x="1587" 
d="M1016 1647l-225 258l-222 -258h-53l246 295h59l248 -295h-53zM1337 0v776h-1089v-776h-51v1536h51v-713h1089v713h52v-1536h-52z" />
    <glyph glyph-name="hcircumflex" unicode="&#x125;" horiz-adv-x="1241" 
d="M696 1638l-225 258l-221 -258h-53l245 295h60l248 -295h-54zM246 492v-492h-49v1536h49v-840q50 140 159.5 224t247.5 84q209 0 311.5 -126t102.5 -341v-537h-51v532q0 212 -95.5 317t-275.5 105q-170 0 -284.5 -132t-114.5 -330z" />
    <glyph glyph-name="Hbar" unicode="&#x126;" horiz-adv-x="1587" 
d="M1337 0v776h-1089v-776h-51v1176h-162v43h162v317h51v-317h1089v317h52v-317h165v-43h-165v-1176h-52zM248 823h1089v353h-1089v-353z" />
    <glyph glyph-name="hbar" unicode="&#x127;" horiz-adv-x="1241" 
d="M246 492v-492h-49v1239h-197v43h197v254h49v-254h327v-43h-327v-543q50 140 159.5 224t247.5 84q209 0 311.5 -126t102.5 -341v-537h-51v532q0 212 -95.5 317t-275.5 105q-170 0 -284.5 -132t-114.5 -330z" />
    <glyph glyph-name="Itilde" unicode="&#x128;" horiz-adv-x="446" 
d="M362 1741q-40 0 -89.5 28t-97 56t-83.5 28q-100 0 -100 -112h-39q-2 74 33 115.5t102 41.5q40 0 91 -28.5t99 -57t82 -28.5q47 0 72 28.5t25 81.5h37q1 -74 -33.5 -113.5t-98.5 -39.5zM197 0v1536h51v-1536h-51z" />
    <glyph glyph-name="itilde" unicode="&#x129;" horiz-adv-x="444" 
d="M362 1253q-32 0 -70.5 17.5t-68.5 39t-66 39t-65 17.5q-100 0 -100 -113h-39q-2 74 33 116t102 42q40 0 91 -28.5t99 -57.5t82 -29q47 0 72 29t25 82h37q1 -74 -33.5 -114t-98.5 -40zM197 0v987h49v-987h-49z" />
    <glyph glyph-name="Imacron" unicode="&#x12a;" horiz-adv-x="446" 
d="M-63 1821h573v-45h-573v45zM197 0v1536h51v-1536h-51z" />
    <glyph glyph-name="imacron" unicode="&#x12b;" horiz-adv-x="444" 
d="M-63 1333h573v-45h-573v45zM197 0v987h49v-987h-49z" />
    <glyph glyph-name="Ibreve" unicode="&#x12c;" horiz-adv-x="446" 
d="M221 1731q94 0 159.5 61.5t65.5 149.5h43q0 -105 -77.5 -179.5t-190.5 -74.5t-189.5 74.5t-76.5 179.5h45q0 -88 64.5 -149.5t156.5 -61.5zM197 0v1536h51v-1536h-51z" />
    <glyph glyph-name="ibreve" unicode="&#x12d;" horiz-adv-x="444" 
d="M221 1225q94 0 159.5 61.5t65.5 149.5h43q0 -105 -77.5 -179.5t-190.5 -74.5t-189.5 74.5t-76.5 179.5h45q0 -88 64.5 -149.5t156.5 -61.5zM197 0v987h49v-987h-49z" />
    <glyph glyph-name="Iogonek" unicode="&#x12e;" horiz-adv-x="446" 
d="M248 -453q-57 -22 -103 -22q-67 0 -114.5 36t-59.5 101q-10 57 3 108t48.5 93.5t76.5 75.5t98 67v1530h51v-1536q-58 -36 -96 -65t-76.5 -70t-53.5 -89t-6 -102q9 -52 47 -81t93 -29q46 0 92 22v-39z" />
    <glyph glyph-name="iogonek" unicode="&#x12f;" horiz-adv-x="444" 
d="M223 1247q-20 0 -34.5 14.5t-14.5 34.5q0 21 14.5 36.5t34.5 15.5t33.5 -15.5t13.5 -36.5q0 -20 -13.5 -34.5t-33.5 -14.5zM248 -453q-57 -22 -103 -22q-67 0 -114.5 36t-59.5 101q-10 58 3.5 109.5t49 93.5t77 75t98.5 66v981h49v-987q-58 -36 -96 -65t-76.5 -70
t-53.5 -89t-6 -102q9 -52 47 -81t93 -29q46 0 92 22v-39z" />
    <glyph glyph-name="Idotaccent" unicode="&#x130;" horiz-adv-x="446" 
d="M223 1753q-20 0 -33.5 14.5t-13.5 34.5q0 21 13.5 36t33.5 15t34.5 -15.5t14.5 -35.5t-14.5 -34.5t-34.5 -14.5zM197 0v1536h51v-1536h-51z" />
    <glyph glyph-name="dotlessi" unicode="&#x131;" horiz-adv-x="444" 
d="M197 0v987h49v-987h-49z" />
    <glyph glyph-name="IJ" unicode="&#x132;" horiz-adv-x="1296" 
d="M197 0v1536h51v-1536h-51zM758 -14q-155 0 -287 98v57q133 -108 287 -108q138 0 219.5 82.5t81.5 220.5v1200h51v-1196q0 -163 -95.5 -258.5t-256.5 -95.5z" />
    <glyph glyph-name="ij" unicode="&#x133;" horiz-adv-x="890" 
d="M223 1247q-20 0 -34.5 14.5t-14.5 34.5q0 21 14.5 36.5t34.5 15.5t33.5 -15.5t13.5 -36.5q0 -20 -13.5 -34.5t-33.5 -14.5zM666 1247q-20 0 -34 14.5t-14 34.5q0 21 14 36.5t34 15.5t34.5 -15.5t14.5 -36.5q0 -20 -14.5 -34.5t-34.5 -14.5zM199 0v987h49v-987h-49z
M442 -526q-83 0 -174 61v51q85 -65 168 -65q99 0 152 62t53 179v1225h49v-1225q0 -139 -63.5 -213.5t-184.5 -74.5z" />
    <glyph glyph-name="Jcircumflex" unicode="&#x134;" horiz-adv-x="851" 
d="M864 1649l-225 258l-221 -258h-53l245 295h60l248 -295h-54zM313 -14q-154 0 -286 98v57q133 -108 286 -108q138 0 219.5 82.5t81.5 220.5v1200h52v-1196q0 -162 -96 -258t-257 -96z" />
    <glyph glyph-name="jcircumflex" unicode="&#x135;" horiz-adv-x="444" 
d="M446 1159l-225 258l-221 -258h-53l246 295h59l248 -295h-54zM-2 -526q-83 0 -174 61v51q85 -65 168 -65q99 0 152 62t53 179v1225h49v-1225q0 -139 -63.5 -213.5t-184.5 -74.5z" />
    <glyph glyph-name="Kcommaaccent" unicode="&#x136;" horiz-adv-x="1288" 
d="M1204 0l-682 852l-274 -285v-567h-51v1536h51v-899l862 899h70l-621 -645l711 -891h-66zM653 -139h58l-125 -236h-41z" />
    <glyph glyph-name="kcommaaccent" unicode="&#x137;" horiz-adv-x="970" 
d="M872 0l-446 565l-180 -168v-397h-49v1536h49v-1075l567 526h61l-413 -387l473 -600h-62zM506 -139h57l-125 -236h-41z" />
    <glyph glyph-name="Lacute" unicode="&#x139;" horiz-adv-x="1056" 
d="M391 1942h64l-234 -295h-47zM1034 47v-47h-837v1536h51v-1489h786z" />
    <glyph glyph-name="lacute" unicode="&#x13a;" horiz-adv-x="444" 
d="M401 1933h64l-234 -295h-47zM197 0v1536h49v-1536h-49z" />
    <glyph glyph-name="Lcommaaccent" unicode="&#x13b;" horiz-adv-x="1056" 
d="M1034 47v-47h-837v1536h51v-1489h786zM584 -139h57l-125 -236h-41z" />
    <glyph glyph-name="lcommaaccent" unicode="&#x13c;" horiz-adv-x="444" 
d="M197 0v1536h49v-1536h-49zM190 -139h58l-125 -236h-41z" />
    <glyph glyph-name="Lcaron" unicode="&#x13d;" horiz-adv-x="1056" 
d="M1034 47v-47h-837v1536h51v-1489h786zM473 1182h-39l74 354h51z" />
    <glyph glyph-name="lcaron" unicode="&#x13e;" horiz-adv-x="468" 
d="M197 0v1536h49v-1536h-49zM414 1182h-39l74 354h51z" />
    <glyph glyph-name="Ldot" unicode="&#x13f;" horiz-adv-x="1056" 
d="M1034 47v-47h-837v1536h51v-1489h786zM766 770q-20 0 -33.5 14.5t-13.5 34.5t13.5 34.5t33.5 14.5t34.5 -14.5t14.5 -34.5t-14.5 -34.5t-34.5 -14.5z" />
    <glyph glyph-name="ldot" unicode="&#x140;" horiz-adv-x="471" 
d="M197 0v1536h49v-1536h-49zM459 760q-20 0 -33.5 14.5t-13.5 34.5t13.5 34.5t33.5 14.5t34.5 -14.5t14.5 -34.5t-14.5 -34.5t-34.5 -14.5z" />
    <glyph glyph-name="Lslash" unicode="&#x141;" horiz-adv-x="1128" 
d="M1106 47v-47h-836v739l-256 -139v55l256 140v741h52v-715l403 219v-55l-403 -219v-719h784z" />
    <glyph glyph-name="lslash" unicode="&#x142;" horiz-adv-x="475" 
d="M494 870l-226 -122v-748h-49v721l-219 -119v53l219 119v762h49v-735l226 123v-54z" />
    <glyph glyph-name="Nacute" unicode="&#x143;" horiz-adv-x="1656" 
d="M1044 1942h64l-234 -295h-47zM1458 -23l-1210 1448v-1425h-51v1559l1210 -1450v1427h51v-1559z" />
    <glyph glyph-name="nacute" unicode="&#x144;" horiz-adv-x="1241" 
d="M813 1454h64l-234 -295h-47zM246 492v-492h-49v987h49v-291q50 140 159.5 224t247.5 84q209 0 311.5 -126t102.5 -341v-537h-51v532q0 212 -95.5 317t-275.5 105q-170 0 -284.5 -132t-114.5 -330z" />
    <glyph glyph-name="Ncommaaccent" unicode="&#x145;" horiz-adv-x="1656" 
d="M1458 -23l-1210 1448v-1425h-51v1559l1210 -1450v1427h51v-1559zM848 -139h57l-125 -236h-41z" />
    <glyph glyph-name="ncommaaccent" unicode="&#x146;" horiz-adv-x="1241" 
d="M246 492v-492h-49v987h49v-291q50 140 159.5 224t247.5 84q209 0 311.5 -126t102.5 -341v-537h-51v532q0 212 -95.5 317t-275.5 105q-170 0 -284.5 -132t-114.5 -330zM604 -139h58l-125 -236h-41z" />
    <glyph glyph-name="Ncaron" unicode="&#x147;" horiz-adv-x="1656" 
d="M1153 1942l-248 -295h-59l-246 295h53l221 -261l226 261h53zM1458 -23l-1210 1448v-1425h-51v1559l1210 -1450v1427h51v-1559z" />
    <glyph glyph-name="ncaron" unicode="&#x148;" horiz-adv-x="1241" 
d="M922 1454l-248 -295h-60l-245 295h53l221 -260l225 260h54zM246 492v-492h-49v987h49v-291q50 140 159.5 224t247.5 84q209 0 311.5 -126t102.5 -341v-537h-51v532q0 212 -95.5 317t-275.5 105q-170 0 -284.5 -132t-114.5 -330z" />
    <glyph glyph-name="Omacron" unicode="&#x14c;" horiz-adv-x="1746" 
d="M586 1821h573v-45h-573v45zM1647 770q0 -227 -98 -405.5t-274.5 -278.5t-402.5 -100q-225 0 -401 100t-273.5 278.5t-97.5 405.5q0 225 98 403t274 277.5t400 99.5q168 0 312.5 -58t246 -161t159 -248t57.5 -313zM872 33q157 0 292 55.5t229 152.5t147 233.5t53 295.5
q0 211 -91 377.5t-256 260t-374 93.5q-208 0 -372 -93.5t-255 -260t-91 -377.5q0 -212 90.5 -380t254.5 -262.5t373 -94.5z" />
    <glyph glyph-name="omacron" unicode="&#x14d;" horiz-adv-x="1243" 
d="M330 1333h573v-45h-573v45zM623 -14q-220 0 -361 143.5t-141 364.5t141 365.5t361 144.5t358.5 -143.5t138.5 -366.5q0 -222 -138.5 -365t-358.5 -143zM1069 494q0 201 -125 330.5t-323 129.5q-197 0 -323 -130t-126 -330t126 -330.5t323 -130.5q198 0 323 130t125 331z
" />
    <glyph glyph-name="Obreve" unicode="&#x14e;" horiz-adv-x="1746" 
d="M870 1731q94 0 160 61.5t66 149.5h43q0 -105 -78 -179.5t-191 -74.5t-189.5 74.5t-76.5 179.5h45q0 -88 64.5 -149.5t156.5 -61.5zM1647 770q0 -227 -98 -405.5t-274.5 -278.5t-402.5 -100q-225 0 -401 100t-273.5 278.5t-97.5 405.5q0 225 98 403t274 277.5t400 99.5
q168 0 312.5 -58t246 -161t159 -248t57.5 -313zM872 33q157 0 292 55.5t229 152.5t147 233.5t53 295.5q0 211 -91 377.5t-256 260t-374 93.5q-208 0 -372 -93.5t-255 -260t-91 -377.5q0 -212 90.5 -380t254.5 -262.5t373 -94.5z" />
    <glyph glyph-name="obreve" unicode="&#x14f;" horiz-adv-x="1243" 
d="M614 1225q94 0 160 61.5t66 149.5h43q0 -105 -78 -179.5t-191 -74.5t-189.5 74.5t-76.5 179.5h45q0 -88 64.5 -149.5t156.5 -61.5zM623 -14q-220 0 -361 143.5t-141 364.5t141 365.5t361 144.5t358.5 -143.5t138.5 -366.5q0 -222 -138.5 -365t-358.5 -143zM1069 494
q0 201 -125 330.5t-323 129.5q-197 0 -323 -130t-126 -330t126 -330.5t323 -130.5q198 0 323 130t125 331z" />
    <glyph glyph-name="Ohungarumlaut" unicode="&#x150;" horiz-adv-x="1746" 
d="M743 1647h-43l209 295h56zM1022 1647h-45l211 295h59zM1647 770q0 -227 -98 -405.5t-274.5 -278.5t-402.5 -100q-225 0 -401 100t-273.5 278.5t-97.5 405.5q0 225 98 403t274 277.5t400 99.5q168 0 312.5 -58t246 -161t159 -248t57.5 -313zM872 33q157 0 292 55.5
t229 152.5t147 233.5t53 295.5q0 211 -91 377.5t-256 260t-374 93.5q-208 0 -372 -93.5t-255 -260t-91 -377.5q0 -212 90.5 -380t254.5 -262.5t373 -94.5z" />
    <glyph glyph-name="ohungarumlaut" unicode="&#x151;" horiz-adv-x="1243" 
d="M492 1159h-43l208 295h56zM770 1159h-45l211 295h59zM623 -14q-220 0 -361 143.5t-141 364.5t141 365.5t361 144.5t358.5 -143.5t138.5 -366.5q0 -222 -138.5 -365t-358.5 -143zM1069 494q0 201 -125 330.5t-323 129.5q-197 0 -323 -130t-126 -330t126 -330.5t323 -130.5
q198 0 323 130t125 331z" />
    <glyph glyph-name="OE" unicode="&#x152;" horiz-adv-x="2064" 
d="M100 766q0 359 212.5 564.5t586.5 205.5h1102v-49h-803v-692h717v-47h-717v-701h825v-47h-1124q-375 0 -587 203.5t-212 562.5zM899 47h248v1440h-248q-350 0 -547.5 -192.5t-197.5 -528.5t197 -527.5t548 -191.5z" />
    <glyph glyph-name="oe" unicode="&#x153;" horiz-adv-x="2125" 
d="M1962 117q-159 -131 -385 -131q-191 0 -320 99.5t-167 264.5q-40 -166 -167 -265t-305 -99q-219 0 -359 143.5t-140 364.5t140 365.5t359 144.5q178 0 305.5 -100t166.5 -265q36 164 156 264.5t298 100.5q144 0 251.5 -66.5t162.5 -180.5t55 -259v-25h-897
q6 -194 132 -318t329 -124q217 0 385 139v-53zM1546 956q-193 0 -307.5 -122.5t-122.5 -315.5h846q-6 192 -118 315t-298 123zM618 33q197 0 322 130t125 331t-125 330.5t-322 129.5t-322.5 -130t-125.5 -330q0 -201 125 -331t323 -130z" />
    <glyph glyph-name="Racute" unicode="&#x154;" horiz-adv-x="1228" 
d="M766 1942h63l-233 -295h-47zM197 0v1536h385q225 0 354 -121t129 -334q0 -182 -102.5 -299t-272.5 -147l477 -635h-63l-469 627q-16 -2 -53 -2h-334v-625h-51zM580 1487h-332v-815h332q194 0 313 109.5t119 299.5t-114.5 298t-317.5 108z" />
    <glyph glyph-name="racute" unicode="&#x155;" horiz-adv-x="657" 
d="M557 1454h64l-234 -295h-47zM246 483v-483h-49v987h49v-301q50 146 155 232t238 86v-56q-160 5 -276.5 -126t-116.5 -339z" />
    <glyph glyph-name="Rcommaaccent" unicode="&#x156;" horiz-adv-x="1228" 
d="M197 0v1536h385q225 0 354 -121t129 -334q0 -182 -102.5 -299t-272.5 -147l477 -635h-63l-469 627q-16 -2 -53 -2h-334v-625h-51zM580 1487h-332v-815h332q194 0 313 109.5t119 299.5t-114.5 298t-317.5 108zM608 -139h58l-125 -236h-41z" />
    <glyph glyph-name="rcommaaccent" unicode="&#x157;" horiz-adv-x="657" 
d="M246 483v-483h-49v987h49v-301q50 146 155 232t238 86v-56q-160 5 -276.5 -126t-116.5 -339zM188 -139h58l-125 -236h-41z" />
    <glyph glyph-name="Rcaron" unicode="&#x158;" horiz-adv-x="1228" 
d="M885 1942l-248 -295h-59l-246 295h53l221 -261l225 261h54zM197 0v1536h385q225 0 354 -121t129 -334q0 -182 -102.5 -299t-272.5 -147l477 -635h-63l-469 627q-16 -2 -53 -2h-334v-625h-51zM580 1487h-332v-815h332q194 0 313 109.5t119 299.5t-114.5 298t-317.5 108z
" />
    <glyph glyph-name="rcaron" unicode="&#x159;" horiz-adv-x="657" 
d="M686 1454l-248 -295h-59l-246 295h53l222 -260l225 260h53zM246 483v-483h-49v987h49v-301q50 146 155 232t238 86v-56q-160 5 -276.5 -126t-116.5 -339z" />
    <glyph glyph-name="Sacute" unicode="&#x15a;" horiz-adv-x="1087" 
d="M707 1942h63l-233 -295h-48zM555 1501q-101 0 -183 -34t-134 -106.5t-52 -174.5q0 -99 53.5 -174.5t182.5 -130.5l332 -148q135 -56 193.5 -140.5t58.5 -201.5q0 -129 -66.5 -222.5t-174 -138t-241.5 -44.5q-280 0 -454 168v67q185 -188 454 -188q118 0 213 37.5
t155 118.5t60 196q0 209 -231 305l-332 146q-137 60 -196.5 144.5t-59.5 203.5q0 117 59 201.5t153 124.5t210 40q227 0 397 -141v-63q-169 155 -397 155z" />
    <glyph glyph-name="sacute" unicode="&#x15b;" horiz-adv-x="903" 
d="M641 1454h64l-234 -295h-47zM102 158q140 -129 353 -129q127 0 211 58t84 163q0 126 -150 180l-293 107q-87 34 -127.5 85.5t-40.5 129.5q0 116 90.5 184t229.5 68q179 0 303 -105v-55q-126 114 -303 114q-118 0 -194.5 -53.5t-76.5 -148.5q0 -124 142 -174l293 -109
q176 -65 176 -217q0 -127 -97.5 -198.5t-246.5 -71.5q-220 0 -353 114v58z" />
    <glyph glyph-name="Scircumflex" unicode="&#x15c;" horiz-adv-x="1087" 
d="M791 1647l-226 258l-221 -258h-53l246 295h59l248 -295h-53zM555 1501q-101 0 -183 -34t-134 -106.5t-52 -174.5q0 -99 53.5 -174.5t182.5 -130.5l332 -148q135 -56 193.5 -140.5t58.5 -201.5q0 -129 -66.5 -222.5t-174 -138t-241.5 -44.5q-280 0 -454 168v67
q185 -188 454 -188q118 0 213 37.5t155 118.5t60 196q0 209 -231 305l-332 146q-137 60 -196.5 144.5t-59.5 203.5q0 117 59 201.5t153 124.5t210 40q227 0 397 -141v-63q-169 155 -397 155z" />
    <glyph glyph-name="scircumflex" unicode="&#x15d;" horiz-adv-x="903" 
d="M696 1159l-225 258l-221 -258h-53l245 295h60l248 -295h-54zM102 158q140 -129 353 -129q127 0 211 58t84 163q0 126 -150 180l-293 107q-87 34 -127.5 85.5t-40.5 129.5q0 116 90.5 184t229.5 68q179 0 303 -105v-55q-126 114 -303 114q-118 0 -194.5 -53.5
t-76.5 -148.5q0 -124 142 -174l293 -109q176 -65 176 -217q0 -127 -97.5 -198.5t-246.5 -71.5q-220 0 -353 114v58z" />
    <glyph glyph-name="Scedilla" unicode="&#x15e;" horiz-adv-x="1087" 
d="M707 -324q0 -72 -53 -111.5t-132 -39.5q-65 0 -137 35v39q64 -39 135 -39q63 0 103.5 29.5t40.5 86.5q0 54 -36.5 87.5t-92.5 33.5q-41 0 -68 -8l-18 18l77 179h-2q-280 0 -454 168v67q185 -188 454 -188q118 0 213 37.5t155 118.5t60 196q0 209 -231 305l-332 146
q-137 60 -196.5 144.5t-59.5 203.5q0 117 59 201.5t153 124.5t210 40q227 0 397 -141v-63q-169 155 -397 155q-101 0 -183 -34t-134 -106.5t-52 -174.5q0 -99 53.5 -174.5t182.5 -130.5l332 -148q135 -56 193.5 -140.5t58.5 -201.5q0 -122 -59.5 -212.5t-156.5 -137
t-221 -53.5l-69 -162q24 4 43 4q71 0 117.5 -43t46.5 -111z" />
    <glyph glyph-name="scedilla" unicode="&#x15f;" horiz-adv-x="903" 
d="M612 -324q0 -72 -52.5 -111.5t-131.5 -39.5q-65 0 -137 35v39q64 -39 135 -39q62 0 102.5 29.5t40.5 86.5q0 54 -36.5 87.5t-92.5 33.5q-40 0 -67 -8l-19 18l78 179q-206 7 -330 114v58q140 -129 353 -129q127 0 211 58t84 163q0 126 -150 180l-293 107
q-87 34 -127.5 85.5t-40.5 129.5q0 116 90.5 184t229.5 68q179 0 303 -105v-55q-126 114 -303 114q-118 0 -194.5 -53.5t-76.5 -148.5q0 -124 142 -174l293 -109q176 -65 176 -217q0 -123 -91.5 -194t-232.5 -76l-69 -160q24 4 43 4q71 0 117 -43t46 -111z" />
    <glyph glyph-name="Scaron" unicode="&#x160;" horiz-adv-x="1087" 
d="M852 1942l-248 -295h-59l-246 295h53l221 -261l226 261h53zM555 1501q-101 0 -183 -34t-134 -106.5t-52 -174.5q0 -99 53.5 -174.5t182.5 -130.5l332 -148q135 -56 193.5 -140.5t58.5 -201.5q0 -129 -66.5 -222.5t-174 -138t-241.5 -44.5q-280 0 -454 168v67
q185 -188 454 -188q118 0 213 37.5t155 118.5t60 196q0 209 -231 305l-332 146q-137 60 -196.5 144.5t-59.5 203.5q0 117 59 201.5t153 124.5t210 40q227 0 397 -141v-63q-169 155 -397 155z" />
    <glyph glyph-name="scaron" unicode="&#x161;" horiz-adv-x="903" 
d="M756 1454l-248 -295h-59l-246 295h53l221 -260l225 260h54zM102 158q140 -129 353 -129q127 0 211 58t84 163q0 126 -150 180l-293 107q-87 34 -127.5 85.5t-40.5 129.5q0 116 90.5 184t229.5 68q179 0 303 -105v-55q-126 114 -303 114q-118 0 -194.5 -53.5t-76.5 -148.5
q0 -124 142 -174l293 -109q176 -65 176 -217q0 -127 -97.5 -198.5t-246.5 -71.5q-220 0 -353 114v58z" />
    <glyph glyph-name="uni0162" unicode="&#x162;" horiz-adv-x="1261" 
d="M1243 1487h-588v-1487h-51v1487h-588v49h1227v-49zM594 -139h57l-125 -236h-41z" />
    <glyph glyph-name="uni0163" unicode="&#x163;" horiz-adv-x="759" 
d="M739 61q-49 -36 -121.5 -55.5t-136.5 -19.5q-141 0 -218 73.5t-77 227.5v1044h52v-344h483v-47h-483v-657q0 -127 65.5 -188.5t179.5 -61.5q64 0 134 21t122 63v-56zM426 -139h57l-125 -236h-41z" />
    <glyph glyph-name="Tcaron" unicode="&#x164;" horiz-adv-x="1261" 
d="M905 1942l-248 -295h-59l-246 295h54l221 -261l225 261h53zM1243 1487h-588v-1487h-51v1487h-588v49h1227v-49z" />
    <glyph glyph-name="tcaron" unicode="&#x165;" horiz-adv-x="759" 
d="M424 1182h-39l74 354h51zM739 61q-49 -36 -121.5 -55.5t-136.5 -19.5q-141 0 -218 73.5t-77 227.5v1044h52v-344h483v-47h-483v-657q0 -127 65.5 -188.5t179.5 -61.5q64 0 134 21t122 63v-56z" />
    <glyph glyph-name="Tbar" unicode="&#x166;" horiz-adv-x="1261" 
d="M823 750v-9h-168v9h-51v737h-588v49h1227v-49h-588v-737h168zM438 750h166v-9h51v-741h-51v741h-166v9z" />
    <glyph glyph-name="tbar" unicode="&#x167;" horiz-adv-x="759" 
d="M739 53q-100 -67 -258 -67q-147 0 -221 69t-74 226v1050h52v-344h483v-47h-483v-397h481v-45h-481v-222q0 -130 63.5 -186.5t190.5 -56.5q61 0 128.5 18.5t118.5 54.5v-53z" />
    <glyph glyph-name="Utilde" unicode="&#x168;" horiz-adv-x="1533" 
d="M907 1741q-40 0 -89.5 28t-97 56t-83.5 28q-100 0 -100 -112h-39q-2 74 33 115.5t102 41.5q40 0 91 -28.5t99 -57t82 -28.5q47 0 71.5 28.5t24.5 81.5h37q1 -74 -33 -113.5t-98 -39.5zM164 641v895h51v-897q0 -271 150.5 -438.5t400.5 -167.5t401.5 168t151.5 438v897h51
v-895q0 -293 -165 -474t-439 -181q-181 0 -318 82.5t-210.5 231t-73.5 341.5z" />
    <glyph glyph-name="utilde" unicode="&#x169;" horiz-adv-x="1183" 
d="M733 1253q-32 0 -70.5 17.5t-68.5 39t-66 39t-65 17.5q-48 0 -74.5 -28.5t-26.5 -84.5h-38q-2 74 33 116t102 42q40 0 91 -28.5t99 -57.5t82 -29q47 0 71.5 29t24.5 82h37q1 -74 -33 -114t-98 -40zM967 420v567h49v-563q0 -209 -114.5 -323.5t-309.5 -114.5
q-198 0 -312 114.5t-114 323.5v563h49v-567q0 -188 101.5 -287.5t275.5 -99.5q172 0 273.5 100t101.5 287z" />
    <glyph glyph-name="Umacron" unicode="&#x16a;" horiz-adv-x="1533" 
d="M479 1821h574v-45h-574v45zM164 641v895h51v-897q0 -271 150.5 -438.5t400.5 -167.5t401.5 168t151.5 438v897h51v-895q0 -293 -165 -474t-439 -181q-181 0 -318 82.5t-210.5 231t-73.5 341.5z" />
    <glyph glyph-name="umacron" unicode="&#x16b;" horiz-adv-x="1183" 
d="M303 1333h574v-45h-574v45zM967 420v567h49v-563q0 -209 -114.5 -323.5t-309.5 -114.5q-198 0 -312 114.5t-114 323.5v563h49v-567q0 -188 101.5 -287.5t275.5 -99.5q172 0 273.5 100t101.5 287z" />
    <glyph glyph-name="Ubreve" unicode="&#x16c;" horiz-adv-x="1533" 
d="M764 1731q94 0 159.5 61.5t65.5 149.5h43q0 -105 -77.5 -179.5t-190.5 -74.5t-189.5 74.5t-76.5 179.5h45q0 -88 64.5 -149.5t156.5 -61.5zM164 641v895h51v-897q0 -271 150.5 -438.5t400.5 -167.5t401.5 168t151.5 438v897h51v-895q0 -293 -165 -474t-439 -181
q-181 0 -318 82.5t-210.5 231t-73.5 341.5z" />
    <glyph glyph-name="ubreve" unicode="&#x16d;" horiz-adv-x="1183" 
d="M588 1225q94 0 159.5 61.5t65.5 149.5h43q0 -105 -77.5 -179.5t-190.5 -74.5t-189.5 74.5t-76.5 179.5h45q0 -88 64.5 -149.5t156.5 -61.5zM967 420v567h49v-563q0 -209 -114.5 -323.5t-309.5 -114.5q-198 0 -312 114.5t-114 323.5v563h49v-567q0 -188 101.5 -287.5
t275.5 -99.5q172 0 273.5 100t101.5 287z" />
    <glyph glyph-name="Uring" unicode="&#x16e;" horiz-adv-x="1533" 
d="M766 1927q71 0 118.5 -46t47.5 -116t-47.5 -115.5t-118.5 -45.5t-118.5 45.5t-47.5 115.5t47.5 116t118.5 46zM637 1765q0 -55 36.5 -91t92.5 -36t92.5 36t36.5 91t-36.5 91t-92.5 36t-92.5 -36t-36.5 -91zM164 641v895h51v-897q0 -271 150.5 -438.5t400.5 -167.5
t401.5 168t151.5 438v897h51v-895q0 -293 -165 -474t-439 -181q-181 0 -318 82.5t-210.5 231t-73.5 341.5z" />
    <glyph glyph-name="uring" unicode="&#x16f;" horiz-adv-x="1183" 
d="M590 1481q71 0 118.5 -46t47.5 -116t-47.5 -116t-118.5 -46t-118.5 46t-47.5 116t47.5 116t118.5 46zM461 1319q0 -55 36.5 -91t92.5 -36t92.5 36t36.5 91t-36.5 91t-92.5 36t-92.5 -36t-36.5 -91zM967 420v567h49v-563q0 -209 -114.5 -323.5t-309.5 -114.5
q-198 0 -312 114.5t-114 323.5v563h49v-567q0 -188 101.5 -287.5t275.5 -99.5q172 0 273.5 100t101.5 287z" />
    <glyph glyph-name="Uhungarumlaut" unicode="&#x170;" horiz-adv-x="1533" 
d="M639 1647h-43l209 295h55zM918 1647h-46l211 295h60zM164 641v895h51v-897q0 -271 150.5 -438.5t400.5 -167.5t401.5 168t151.5 438v897h51v-895q0 -293 -165 -474t-439 -181q-181 0 -318 82.5t-210.5 231t-73.5 341.5z" />
    <glyph glyph-name="uhungarumlaut" unicode="&#x171;" horiz-adv-x="1183" 
d="M465 1159h-43l209 295h55zM743 1159h-45l211 295h60zM967 420v567h49v-563q0 -209 -114.5 -323.5t-309.5 -114.5q-198 0 -312 114.5t-114 323.5v563h49v-567q0 -188 101.5 -287.5t275.5 -99.5q172 0 273.5 100t101.5 287z" />
    <glyph glyph-name="Uogonek" unicode="&#x172;" horiz-adv-x="1531" 
d="M1032 -453q-61 -22 -102 -22q-71 0 -119.5 39.5t-58.5 107.5q-33 188 168 330q-75 -16 -154 -16q-275 0 -438.5 180.5t-163.5 474.5v895h51v-897q0 -271 150.5 -438.5t400.5 -167.5t400.5 167.5t150.5 438.5v897h51v-895q0 -211 -87.5 -367.5t-244.5 -230.5
q-275 -156 -239 -358q9 -55 47 -88t94 -33q45 0 94 22v-39z" />
    <glyph glyph-name="uogonek" unicode="&#x173;" horiz-adv-x="1183" 
d="M813 -453q-57 -22 -102 -22q-68 0 -115 35t-59 98q-33 176 188 344q-66 -16 -133 -16q-198 0 -312 114.5t-114 323.5v563h49v-567q0 -188 101.5 -287.5t275.5 -99.5q172 0 273.5 100t101.5 287v567h49v-563q0 -241 -162 -363q-54 -40 -89 -69t-77.5 -71.5t-65.5 -78.5
t-35.5 -81t-4.5 -89q10 -53 46.5 -80.5t90.5 -27.5q48 0 94 22v-39z" />
    <glyph glyph-name="Wcircumflex" unicode="&#x174;" horiz-adv-x="2314" 
d="M1380 1647l-225 258l-221 -258h-53l245 295h60l248 -295h-54zM2279 1536l-598 -1559l-522 1444l-526 -1444l-598 1559h59l539 -1427l528 1450l522 -1448l539 1425h57z" />
    <glyph glyph-name="wcircumflex" unicode="&#x175;" horiz-adv-x="1716" 
d="M1079 1159l-225 258l-221 -258h-53l245 295h60l248 -295h-54zM1667 987l-424 -1010l-383 920l-389 -920l-422 1010h57l367 -893l387 918l381 -920l371 895h55z" />
    <glyph glyph-name="Ycircumflex" unicode="&#x176;" horiz-adv-x="1236" 
d="M840 1647l-226 258l-221 -258h-53l246 295h59l248 -295h-53zM1214 1536l-569 -928v-608h-51v606l-571 930h61l534 -870l537 870h59z" />
    <glyph glyph-name="ycircumflex" unicode="&#x177;" horiz-adv-x="1019" 
d="M741 1159l-225 258l-221 -258h-53l245 295h60l248 -295h-54zM979 987l-733 -1499h-53l309 633l-465 866h59l432 -811l396 811h55z" />
    <glyph glyph-name="Ydieresis" unicode="&#x178;" horiz-adv-x="1236" 
d="M422 1753q-20 0 -33.5 14.5t-13.5 34.5t13.5 34.5t33.5 14.5t33.5 -14.5t13.5 -34.5t-13.5 -34.5t-33.5 -14.5zM813 1753q-21 0 -34 14t-13 35t13 35t34 14q20 0 33.5 -14.5t13.5 -34.5t-13.5 -34.5t-33.5 -14.5zM1214 1536l-569 -928v-608h-51v606l-571 930h61l534 -870
l537 870h59z" />
    <glyph glyph-name="Zacute" unicode="&#x179;" horiz-adv-x="1210" 
d="M760 1942h63l-233 -295h-47zM1163 45v-45h-1122l1024 1489h-989v47h1079l-1022 -1491h1030z" />
    <glyph glyph-name="zacute" unicode="&#x17a;" horiz-adv-x="944" 
d="M647 1454h64l-234 -295h-47zM895 45v-45h-846l729 940h-694v47h782l-727 -942h756z" />
    <glyph glyph-name="Zdotaccent" unicode="&#x17b;" horiz-adv-x="1210" 
d="M596 1753q-20 0 -33.5 14.5t-13.5 34.5q0 21 13.5 36t33.5 15t34.5 -15.5t14.5 -35.5t-14.5 -34.5t-34.5 -14.5zM1163 45v-45h-1122l1024 1489h-989v47h1079l-1022 -1491h1030z" />
    <glyph glyph-name="zdotaccent" unicode="&#x17c;" horiz-adv-x="944" 
d="M469 1247q-20 0 -33.5 14.5t-13.5 34.5q0 21 13.5 36.5t33.5 15.5t34.5 -15.5t14.5 -36.5q0 -20 -14.5 -34.5t-34.5 -14.5zM895 45v-45h-846l729 940h-694v47h782l-727 -942h756z" />
    <glyph glyph-name="Zcaron" unicode="&#x17d;" horiz-adv-x="1210" 
d="M877 1942l-248 -295h-60l-245 295h53l221 -261l225 261h54zM1163 45v-45h-1122l1024 1489h-989v47h1079l-1022 -1491h1030z" />
    <glyph glyph-name="zcaron" unicode="&#x17e;" horiz-adv-x="944" 
d="M764 1454l-248 -295h-59l-246 295h53l221 -260l226 260h53zM895 45v-45h-846l729 940h-694v47h782l-727 -942h756z" />
    <glyph glyph-name="florin" unicode="&#x192;" horiz-adv-x="952" 
d="M414 254q-46 -268 -293 -268q-85 0 -168 39v51q78 -45 168 -45q205 0 246 231l151 967q23 143 104 232t214 89q91 0 170 -45v-49q-74 47 -168 47q-112 0 -181.5 -75t-89.5 -197l-39 -244h402v-47h-408z" />
    <glyph glyph-name="uni0218" unicode="&#x218;" horiz-adv-x="1087" 
d="M555 1501q-101 0 -183 -34t-134 -106.5t-52 -174.5q0 -99 53.5 -174.5t182.5 -130.5l332 -148q135 -56 193.5 -140.5t58.5 -201.5q0 -129 -66.5 -222.5t-174 -138t-241.5 -44.5q-280 0 -454 168v67q185 -188 454 -188q118 0 213 37.5t155 118.5t60 196q0 209 -231 305
l-332 146q-137 60 -196.5 144.5t-59.5 203.5q0 117 59 201.5t153 124.5t210 40q227 0 397 -141v-63q-169 155 -397 155zM541 -139h57l-125 -236h-41z" />
    <glyph glyph-name="uni0219" unicode="&#x219;" horiz-adv-x="903" 
d="M102 158q140 -129 353 -129q127 0 211 58t84 163q0 126 -150 180l-293 107q-87 34 -127.5 85.5t-40.5 129.5q0 116 90.5 184t229.5 68q179 0 303 -105v-55q-126 114 -303 114q-118 0 -194.5 -53.5t-76.5 -148.5q0 -124 142 -174l293 -109q176 -65 176 -217
q0 -127 -97.5 -198.5t-246.5 -71.5q-220 0 -353 114v58zM412 -139h57l-125 -236h-41z" />
    <glyph glyph-name="uni021A" unicode="&#x21a;" horiz-adv-x="1261" 
d="M1243 1487h-588v-1487h-51v1487h-588v49h1227v-49zM594 -139h57l-125 -236h-41z" />
    <glyph glyph-name="uni021B" unicode="&#x21b;" horiz-adv-x="759" 
d="M739 61q-49 -36 -121.5 -55.5t-136.5 -19.5q-141 0 -218 73.5t-77 227.5v1044h52v-344h483v-47h-483v-657q0 -127 65.5 -188.5t179.5 -61.5q64 0 134 21t122 63v-56zM426 -139h57l-125 -236h-41z" />
    <glyph glyph-name="dotlessj" unicode="&#x237;" horiz-adv-x="444" 
d="M-2 -526q-83 0 -174 61v51q85 -65 168 -65q99 0 152 62t53 179v1225h49v-1225q0 -139 -63.5 -213.5t-184.5 -74.5z" />
    <glyph glyph-name="circumflex" unicode="&#x2c6;" horiz-adv-x="845" 
d="M645 1159l-225 258l-221 -258h-54l246 295h60l247 -295h-53z" />
    <glyph glyph-name="caron" unicode="&#x2c7;" horiz-adv-x="845" 
d="M698 1454l-247 -295h-60l-246 295h54l221 -260l225 260h53z" />
    <glyph glyph-name="breve" unicode="&#x2d8;" horiz-adv-x="845" 
d="M420 1225q94 0 159.5 61.5t65.5 149.5h43q0 -105 -77.5 -179.5t-190.5 -74.5t-189.5 74.5t-76.5 179.5h45q0 -88 64.5 -149.5t156.5 -61.5z" />
    <glyph glyph-name="dotaccent" unicode="&#x2d9;" horiz-adv-x="845" 
d="M422 1247q-20 0 -33.5 14.5t-13.5 34.5q0 21 13.5 36.5t33.5 15.5t34.5 -15.5t14.5 -36.5q0 -20 -14.5 -34.5t-34.5 -14.5z" />
    <glyph glyph-name="ring" unicode="&#x2da;" horiz-adv-x="845" 
d="M422 1481q71 0 118.5 -46t47.5 -116t-47.5 -116t-118.5 -46t-118.5 46t-47.5 116t47.5 116t118.5 46zM293 1319q0 -55 36.5 -91t92.5 -36t92.5 36t36.5 91t-36.5 91t-92.5 36t-92.5 -36t-36.5 -91z" />
    <glyph glyph-name="ogonek" unicode="&#x2db;" horiz-adv-x="847" 
d="M285 -338q-11 62 6 117.5t59 101t89 79.5t112 69l10 -29q-57 -36 -95.5 -65t-76.5 -70t-53 -89t-6 -102q9 -52 46.5 -81t92.5 -29q46 0 92 22v-39q-57 -22 -102 -22q-67 0 -114.5 36t-59.5 101z" />
    <glyph glyph-name="tilde" unicode="&#x2dc;" horiz-adv-x="845" 
d="M561 1253q-32 0 -70.5 17.5t-68.5 39t-66 39t-65 17.5q-48 0 -74.5 -28.5t-26.5 -84.5h-38q-2 74 33 116t102 42q40 0 91 -28.5t99 -57.5t82 -29q47 0 71.5 29t24.5 82h37q1 -74 -33 -114t-98 -40z" />
    <glyph glyph-name="hungarumlaut" unicode="&#x2dd;" horiz-adv-x="845" 
d="M297 1159h-43l209 295h55zM575 1159h-45l211 295h60z" />
    <glyph glyph-name="uni0394" unicode="&#x394;" horiz-adv-x="1464" 
d="M731 1559l701 -1559h-1399zM109 45h1247l-625 1401z" />
    <glyph glyph-name="uni03A9" unicode="&#x3a9;" horiz-adv-x="1509" 
d="M184 913q0 -224 133.5 -384.5t356.5 -215.5v-313h-475v45h428v238q-224 64 -358 232t-134 398q0 184 77.5 329t219 226.5t324.5 81.5q181 0 322.5 -80t219.5 -223.5t78 -326.5q0 -233 -137 -403t-365 -234v-238h429v-45h-476v313q226 55 362 217.5t136 389.5
q0 256 -158 418.5t-411 162.5q-255 0 -413.5 -165t-158.5 -423z" />
    <glyph glyph-name="mu" unicode="&#x3bc;" horiz-adv-x="1222" 
d="M246 -512h-49v1499h49v-551q0 -181 96 -293t266 -112q176 0 282.5 123.5t106.5 306.5v526h50v-987h-50v279q-44 -133 -149 -213t-250 -80q-123 0 -213.5 56t-138.5 157v-711z" />
    <glyph glyph-name="pi" unicode="&#x3c0;" horiz-adv-x="1570" 
d="M1489 12q-84 -26 -139 -26q-201 0 -201 211v743h-711v-940h-51v940h-285v47h1381v-47h-285v-743q0 -166 156 -166q62 0 135 28v-47z" />
    <glyph glyph-name="Wgrave" unicode="&#x1e80;" horiz-adv-x="2314" 
d="M930 1942h63l219 -295h-49zM2279 1536l-598 -1559l-522 1444l-526 -1444l-598 1559h59l539 -1427l528 1450l522 -1448l539 1425h57z" />
    <glyph glyph-name="wgrave" unicode="&#x1e81;" horiz-adv-x="1716" 
d="M627 1454h63l219 -295h-49zM1667 987l-424 -1010l-383 920l-389 -920l-422 1010h57l367 -893l387 918l381 -920l371 895h55z" />
    <glyph glyph-name="Wacute" unicode="&#x1e82;" horiz-adv-x="2314" 
d="M1317 1942h63l-233 -295h-47zM2279 1536l-598 -1559l-522 1444l-526 -1444l-598 1559h59l539 -1427l528 1450l522 -1448l539 1425h57z" />
    <glyph glyph-name="wacute" unicode="&#x1e83;" horiz-adv-x="1716" 
d="M1022 1454h63l-233 -295h-47zM1667 987l-424 -1010l-383 920l-389 -920l-422 1010h57l367 -893l387 918l381 -920l371 895h55z" />
    <glyph glyph-name="Wdieresis" unicode="&#x1e84;" horiz-adv-x="2314" 
d="M963 1753q-20 0 -34 14.5t-14 34.5t14 34.5t34 14.5t33.5 -14.5t13.5 -34.5t-13.5 -34.5t-33.5 -14.5zM1354 1753q-21 0 -34 14t-13 35t13 35t34 14q20 0 33.5 -14.5t13.5 -34.5t-13.5 -34.5t-33.5 -14.5zM2279 1536l-598 -1559l-522 1444l-526 -1444l-598 1559h59
l539 -1427l528 1450l522 -1448l539 1425h57z" />
    <glyph glyph-name="wdieresis" unicode="&#x1e85;" horiz-adv-x="1716" 
d="M662 1247q-20 0 -34 14.5t-14 34.5t14 35t34 15t33.5 -14.5t13.5 -35.5q0 -20 -13.5 -34.5t-33.5 -14.5zM1053 1247q-21 0 -34 14t-13 35t13 35.5t34 14.5q20 0 33.5 -14.5t13.5 -35.5q0 -20 -13.5 -34.5t-33.5 -14.5zM1667 987l-424 -1010l-383 920l-389 -920l-422 1010
h57l367 -893l387 918l381 -920l371 895h55z" />
    <glyph glyph-name="Ygrave" unicode="&#x1ef2;" horiz-adv-x="1236" 
d="M391 1942h64l219 -295h-49zM1214 1536l-569 -928v-608h-51v606l-571 930h61l534 -870l537 870h59z" />
    <glyph glyph-name="ygrave" unicode="&#x1ef3;" horiz-adv-x="1019" 
d="M291 1454h63l219 -295h-49zM979 987l-733 -1499h-53l309 633l-465 866h59l432 -811l396 811h55z" />
    <glyph glyph-name="endash" unicode="&#x2013;" horiz-adv-x="1024" 
d="M41 580v47h942v-47h-942z" />
    <glyph glyph-name="emdash" unicode="&#x2014;" horiz-adv-x="2048" 
d="M41 627h1966v-47h-1966v47z" />
    <glyph glyph-name="quoteleft" unicode="&#x2018;" horiz-adv-x="368" 
d="M252 1536h41l-121 -266q22 -2 36.5 -16t14.5 -37t-15.5 -38.5t-39.5 -15.5q-25 0 -40 14.5t-15 39.5t16 57z" />
    <glyph glyph-name="quoteright" unicode="&#x2019;" horiz-adv-x="368" 
d="M117 1178h-41l121 264q-52 7 -52 53q0 25 15.5 40t40.5 15q23 0 39 -15t16 -38q0 -25 -16 -57z" />
    <glyph glyph-name="quotesinglbase" unicode="&#x201a;" horiz-adv-x="368" 
d="M117 -274h-41l121 264q-24 2 -38 15t-14 36t15.5 38t40.5 15q24 0 39.5 -14.5t15.5 -38.5q0 -23 -16 -55z" />
    <glyph glyph-name="quotedblleft" unicode="&#x201c;" horiz-adv-x="636" 
d="M252 1536h41l-121 -266q22 -2 36.5 -16t14.5 -37t-16 -38.5t-39 -15.5q-25 0 -40 14.5t-15 39.5t16 57zM520 1536h41l-123 -266q24 -2 39 -16t15 -37t-16.5 -38.5t-39.5 -15.5q-25 0 -40 14.5t-15 39.5t16 57z" />
    <glyph glyph-name="quotedblright" unicode="&#x201d;" horiz-adv-x="636" 
d="M117 1178h-41l121 264q-52 7 -52 53q0 25 15.5 40t40.5 15q23 0 39 -15t16 -38q0 -25 -16 -57zM383 1178h-39l121 264q-53 7 -53 53q0 25 16 40t41 15q23 0 39 -15t16 -38q0 -21 -18 -57z" />
    <glyph glyph-name="quotedblbase" unicode="&#x201e;" horiz-adv-x="636" 
d="M117 -274h-41l121 264q-24 2 -38 15t-14 36t15.5 38t40.5 15q24 0 39.5 -14.5t15.5 -38.5q0 -23 -16 -55zM383 -274h-39l121 264q-24 2 -38.5 15t-14.5 36t16 38t41 15q24 0 39.5 -14.5t15.5 -38.5q0 -19 -18 -55z" />
    <glyph glyph-name="dagger" unicode="&#x2020;" horiz-adv-x="905" 
d="M803 1163h-330v-753h-43v753h-328v41h328v332h43v-332h330v-41z" />
    <glyph glyph-name="daggerdbl" unicode="&#x2021;" horiz-adv-x="905" 
d="M803 403h-330v-403h-43v403h-328v41h328v646h-328v40h328v406h43v-406h330v-40h-330v-646h330v-41z" />
    <glyph glyph-name="bullet" unicode="&#x2022;" horiz-adv-x="618" 
d="M309 449q-50 0 -83 32t-33 82q0 51 33 83t83 32t82.5 -32t32.5 -83t-32.5 -82.5t-82.5 -31.5z" />
    <glyph glyph-name="ellipsis" unicode="&#x2026;" horiz-adv-x="1064" 
d="M174 -14q-24 0 -39.5 14.5t-15.5 38.5t15.5 39.5t39.5 15.5q25 0 40 -15t15 -40t-15 -39t-40 -14zM532 -14q-25 0 -40 14t-15 39t15 40t40 15q24 0 40 -15.5t16 -39.5t-16 -38.5t-40 -14.5zM889 -14q-25 0 -40 14t-15 39t15 40t40 15t40 -15t15 -40t-15 -39t-40 -14z" />
    <glyph glyph-name="perthousand" unicode="&#x2030;" horiz-adv-x="2615" 
d="M403 872q-148 0 -244 96t-96 244q0 146 96 242t244 96t244 -96t96 -242q0 -148 -96 -244t-244 -96zM1516 1536l-1190 -1536h-56l1190 1536h56zM403 915q128 0 211.5 84t83.5 213q0 128 -84 211.5t-211 83.5t-210.5 -83.5t-83.5 -211.5q0 -129 83 -213t211 -84zM2210 -14
q-148 0 -244 95t-96 243q0 146 96 242t244 96t244 -96t96 -242q0 -148 -96 -243t-244 -95zM1364 -14q-148 0 -244 95t-96 243q0 146 96 242t244 96t244 -96t96 -242q0 -148 -96 -243t-244 -95zM1659 324q0 127 -83.5 210.5t-211.5 83.5t-211.5 -83.5t-83.5 -210.5
q0 -129 83.5 -213t211.5 -84t211.5 84t83.5 213zM2505 324q0 127 -83.5 210.5t-211.5 83.5t-211.5 -83.5t-83.5 -210.5q0 -129 83.5 -213t211.5 -84t211.5 84t83.5 213z" />
    <glyph glyph-name="guilsinglleft" unicode="&#x2039;" horiz-adv-x="569" 
d="M397 139l-303 402l303 385h58l-303 -385l303 -402h-58z" />
    <glyph glyph-name="guilsinglright" unicode="&#x203a;" horiz-adv-x="569" 
d="M170 139h-57l305 402l-305 385h57l303 -385z" />
    <glyph glyph-name="fraction" unicode="&#x2044;" horiz-adv-x="999" 
d="M-61 0h-56l1180 1536h53z" />
    <glyph glyph-name="zerosuperior" unicode="&#x2070;" horiz-adv-x="974" 
d="M846 1083q0 -97 -21.5 -181.5t-64 -152t-112.5 -106.5t-161 -39t-161.5 39t-113 106.5t-64 152t-21.5 181.5q0 94 22 177t65 148.5t113.5 103.5t159.5 38t159 -38t113 -103.5t65 -148.5t22 -177zM487 645q65 0 118 24t89 65t60.5 97t35.5 119t11 133q0 68 -11.5 129.5
t-36.5 116t-61 94.5t-88.5 63t-116.5 23q-105 0 -177.5 -61.5t-104 -155t-31.5 -209.5q0 -88 18 -164.5t54.5 -139t98 -98.5t142.5 -36z" />
    <glyph glyph-name="foursuperior" unicode="&#x2074;" horiz-adv-x="782" 
d="M754 823h-154v-209h-45v209h-555l424 713h49l-399 -672h481v377h45v-377h154v-41z" />
    <glyph glyph-name="Euro" unicode="&#x20ac;" horiz-adv-x="1372" 
d="M1292 47q-150 -61 -358 -61q-270 0 -453.5 165.5t-234.5 432.5h-191v47h185q-11 83 -11 137q0 59 11 145h-185v45h193q52 265 236 428.5t454 163.5q206 0 373 -84l-15 -47q-160 82 -362 82q-245 0 -413.5 -150.5t-219.5 -392.5h827l-16 -45h-819q-10 -78 -10 -145
q0 -62 10 -137h719l-17 -47h-694q49 -246 218 -398.5t419 -152.5q201 0 354 69v-55z" />
    <glyph glyph-name="uni20B9" unicode="&#x20b9;" horiz-adv-x="1241" 
d="M92 1487v49h1088v-45h-498q118 -52 185 -158.5t73 -249.5h240v-43h-240q-6 -171 -106 -284t-261 -146l455 -610h-63l-445 604q-40 -4 -63 -4h-365v47h363q187 0 306 106t126 287h-795v43h795q-8 183 -123 293.5t-309 110.5h-363z" />
    <glyph glyph-name="uni2113" unicode="&#x2113;" horiz-adv-x="962" 
d="M115 453q55 0 123 14v823q0 111 58.5 185.5t162.5 74.5q101 0 160 -72t59 -180v-227q0 -235 -107 -405.5t-282 -231.5v-192q0 -92 54 -150.5t144 -58.5q102 0 220 71v-51q-101 -67 -226 -67q-111 0 -177 70.5t-66 185.5v178q-57 -14 -125 -14h-74v47h76zM459 1501
q-83 0 -126.5 -59t-43.5 -150v-809q154 60 246 214t92 366v235q0 86 -44.5 144.5t-123.5 58.5z" />
    <glyph glyph-name="trademark" unicode="&#x2122;" horiz-adv-x="1550" 
d="M1092 1137l-291 319v-489h-39v587l332 -364l329 364v-587h-39v491zM45 1497v39h584v-39h-273v-530h-39v530h-272z" />
    <glyph glyph-name="estimated" unicode="&#x212e;" horiz-adv-x="1597" 
d="M1536 633h-1194q-10 0 -10 -8v-361q0 -25 16 -41q88 -93 205 -144.5t248 -51.5q139 0 262 58.5t213 160.5h106q-101 -119 -254 -187.5t-329 -68.5q-150 0 -287 52t-235.5 140.5t-157 211t-58.5 257.5t58.5 258t157 212t235.5 141.5t287 52.5q201 0 370.5 -89t268 -241.5
t98.5 -333.5v-18zM1266 680v364q0 24 -19 43q-89 89 -204 139t-242 50q-129 0 -246 -52t-205 -143q-18 -18 -18 -45v-356q0 -10 10 -10h915q9 0 9 10z" />
    <glyph glyph-name="partialdiff" unicode="&#x2202;" horiz-adv-x="1146" 
d="M1069 584q0 -167 -62 -301.5t-185 -215.5t-287 -81q-196 0 -320.5 129t-124.5 329q0 148 62.5 267.5t180.5 190.5t271 71q132 0 241.5 -56.5t162.5 -166.5q-16 157 -69 289.5t-139.5 235t-216 160.5t-288.5 58v45q153 0 280.5 -50.5t218 -139t153 -209.5t92.5 -261
t30 -294zM541 33q145 0 254.5 71.5t165 190t55.5 264.5q0 168 -117.5 266.5t-292.5 98.5q-209 0 -337 -138t-128 -344q0 -179 111 -294t289 -115z" />
    <glyph glyph-name="product" unicode="&#x220f;" horiz-adv-x="1409" 
d="M197 -311v1847h1013v-1847h-51v1800h-911v-1800h-51z" />
    <glyph glyph-name="summation" unicode="&#x2211;" horiz-adv-x="1542" 
d="M209 -264l776 909l-776 842v47h1145v-47h-1080l779 -842l-779 -909h1080v-47h-1145v47z" />
    <glyph glyph-name="minus" unicode="&#x2212;" horiz-adv-x="1050" 
d="M92 745v48h866v-48h-866z" />
    <glyph glyph-name="uni2215" unicode="&#x2215;" horiz-adv-x="999" 
d="M-61 0h-56l1180 1536h53z" />
    <glyph glyph-name="radical" unicode="&#x221a;" horiz-adv-x="1499" 
d="M774 -23l-426 963h-317v47h354l389 -897l639 1446h55z" />
    <glyph glyph-name="infinity" unicode="&#x221e;" horiz-adv-x="1902" 
d="M1421 360q-71 0 -132 22.5t-121.5 79t-91.5 92.5t-97 122q-19 25 -29 37q-110 -151 -166 -208q-143 -144 -301 -145q-165 0 -265.5 109.5t-100.5 280.5q0 172 101 284.5t267 112.5q31 0 61.5 -6t55 -13t52.5 -24t47 -29t46 -38t41.5 -40.5t42 -47.5t39 -47t41 -52
t39.5 -51q36 49 56 76t55 70t60.5 66.5t62.5 53.5t70.5 45t75.5 26t87 11q166 0 267.5 -111.5t101.5 -283.5q0 -170 -101 -281t-264 -111zM1415 1098q-30 0 -59 -5.5t-52.5 -13t-50 -24t-44.5 -28t-43.5 -37.5t-39 -39.5t-39.5 -46t-36.5 -47t-38 -51.5t-37.5 -50
q12 -16 47 -62t49 -64t46.5 -56.5t52 -55t52.5 -42.5t60.5 -37t63 -20t73.5 -9q144 0 231 96t87 246t-88.5 248t-233.5 98zM487 1098q-146 0 -233.5 -98.5t-87.5 -249.5q0 -150 87.5 -245t231.5 -95q46 0 88 11t80 36t67.5 49t65.5 67t57 71t58 80q15 21 23 32
q-15 20 -46.5 61.5t-48 62.5t-46.5 56t-50.5 54t-51.5 43t-58.5 36t-63 20.5t-72.5 8.5z" />
    <glyph glyph-name="integral" unicode="&#x222b;" horiz-adv-x="671" 
d="M129 -526q-99 0 -176 61v55q76 -67 172 -67q86 0 135 59t49 150v1558q0 113 63 186.5t169 73.5q98 0 178 -61v-55q-76 67 -174 67q-85 0 -135 -59t-50 -150v-1558q0 -114 -62 -187t-169 -73z" />
    <glyph glyph-name="approxequal" unicode="&#x2248;" horiz-adv-x="1050" 
d="M315 1057q53 0 111 -17t101 -37.5t101 -37.5t111 -17q58 0 116 28.5t103 78.5v-56q-95 -98 -225 -98q-53 0 -110.5 17t-100.5 37.5t-100.5 37.5t-110.5 17q-108 0 -219 -107v53q101 101 223 101zM315 637q53 0 111 -17t101 -37.5t101 -37.5t111 -17q57 0 115.5 28.5
t103.5 76.5v-53q-93 -99 -225 -99q-53 0 -110.5 17t-100.5 37.5t-100.5 37.5t-110.5 17q-105 0 -219 -107v52q99 102 223 102z" />
    <glyph glyph-name="notequal" unicode="&#x2260;" horiz-adv-x="1050" 
d="M958 537h-548l-146 -242h-49l145 242h-268v47h297l225 374h-522v48h551l141 235h52l-142 -235h264v-48h-292l-228 -374h520v-47z" />
    <glyph glyph-name="lessequal" unicode="&#x2264;" horiz-adv-x="1050" 
d="M889 602v-53l-772 373v55l772 379v-53l-727 -353zM117 625l772 -392v-51l-772 389v54z" />
    <glyph glyph-name="greaterequal" unicode="&#x2265;" horiz-adv-x="1050" 
d="M934 922l-772 -373v53l725 348l-725 353v53l772 -379v-55zM934 625v-54l-772 -389v51z" />
    <glyph glyph-name="lozenge" unicode="&#x25ca;" horiz-adv-x="1191" 
d="M1077 668l-481 -703l-483 703l483 702zM1020 668l-424 622l-426 -622l426 -623z" />
    <glyph glyph-name="commaaccent" unicode="&#xf6c3;" horiz-adv-x="845" 
d="M446 -139h58l-125 -236h-41z" />
    <glyph glyph-name="CR" horiz-adv-x="0" 
 />
    <glyph glyph-name="a.alt" horiz-adv-x="1193" 
d="M995 987v-987h-358q-149 0 -266 57.5t-186.5 170.5t-69.5 266t69.5 266.5t186.5 170t266 56.5h358zM946 940h-309q-207 0 -339 -119.5t-132 -326.5q0 -210 132 -329.5t339 -119.5h309v895z" />
    <glyph glyph-name="a.alt2" horiz-adv-x="1112" 
d="M195 940v47h718v-987h-462q-144 0 -237 80t-93 221q0 143 92.5 224t239.5 81h411v334h-669zM864 559h-411q-122 0 -201.5 -69t-79.5 -189q0 -121 79 -188.5t202 -67.5h411v514z" />
    <glyph glyph-name="b.alt" horiz-adv-x="1193" 
d="M197 0v1536h49v-549h311q148 0 265 -57.5t186 -170.5t69 -265q0 -154 -69.5 -267.5t-186 -170t-264.5 -56.5h-360zM246 940v-895h313q204 0 336.5 120.5t132.5 328.5q0 210 -132 328t-337 118h-313z" />
    <glyph glyph-name="d.alt" horiz-adv-x="1193" 
d="M946 1536h51v-1536h-360q-149 0 -266 57.5t-186.5 170.5t-69.5 266t70 266.5t187 170t265 56.5h309v549zM946 940h-311q-133 0 -238.5 -51t-168 -153.5t-62.5 -241.5q0 -210 132 -329.5t337 -119.5h311v895z" />
    <glyph glyph-name="e.alt" horiz-adv-x="1077" 
d="M946 47v-47h-768v643q0 111 56.5 194.5t150 125t209.5 41.5q107 0 190.5 -29.5t136 -96.5t52.5 -165q0 -137 -99 -214t-247 -77h-400v-375h719zM227 469h400q128 0 212.5 63t84.5 179q0 124 -93.5 184.5t-238.5 60.5q-155 0 -260 -83t-105 -228v-176z" />
    <glyph glyph-name="e.alt2" horiz-adv-x="1097" 
d="M197 0v987h796v-207q0 -147 -97 -237t-253 -90h-397v-408h739v-45h-788zM942 940h-696v-442h401q129 0 212 78t83 204v160z" />
    <glyph glyph-name="h.alt2" horiz-adv-x="1208" 
d="M246 1536v-549h766v-987h-51v940h-715v-940h-49v1536h49z" />
    <glyph glyph-name="m.alt2" horiz-adv-x="1822" 
d="M197 0v987h1429v-987h-51v940h-639v-940h-49v940h-641v-940h-49z" />
    <glyph glyph-name="n.alt2" horiz-adv-x="1208" 
d="M197 0v987h815v-987h-51v940h-715v-940h-49z" />
    <glyph glyph-name="p.alt" horiz-adv-x="1193" 
d="M557 0h-311v-512h-49v1499h360q148 0 265 -57.5t186 -170.5t69 -265q0 -154 -69.5 -267.5t-186 -170t-264.5 -56.5zM246 940v-895h313q204 0 336.5 120.5t132.5 328.5q0 210 -132 328t-337 118h-313z" />
    <glyph glyph-name="q.alt" horiz-adv-x="1193" 
d="M115 494q0 153 70 266.5t187 170t265 56.5h360v-1499h-51v512h-309q-149 0 -266 57.5t-186.5 170.5t-69.5 266zM946 940h-311q-133 0 -238.5 -51t-168 -153.5t-62.5 -241.5q0 -210 132 -329.5t337 -119.5h311v895z" />
    <glyph glyph-name="r.alt" horiz-adv-x="716" 
d="M717 971l-471 -383v-588h-49v987h49v-332l436 349z" />
    <glyph glyph-name="r.alt2" horiz-adv-x="716" 
d="M197 0v987h479v-47h-430v-940h-49z" />
    <glyph glyph-name="aacute.alt" horiz-adv-x="1193" 
d="M811 1454h63l-233 -295h-47zM995 987v-987h-358q-149 0 -266 57.5t-186.5 170.5t-69.5 266t69.5 266.5t186.5 170t266 56.5h358zM946 940h-309q-207 0 -339 -119.5t-132 -326.5q0 -210 132 -329.5t339 -119.5h309v895z" />
    <glyph glyph-name="acircumflex.alt" horiz-adv-x="1193" 
d="M887 1159l-225 258l-222 -258h-53l246 295h59l248 -295h-53zM995 987v-987h-358q-149 0 -266 57.5t-186.5 170.5t-69.5 266t69.5 266.5t186.5 170t266 56.5h358zM946 940h-309q-207 0 -339 -119.5t-132 -326.5q0 -210 132 -329.5t339 -119.5h309v895z" />
    <glyph glyph-name="adieresis.alt" horiz-adv-x="1193" 
d="M455 1247q-20 0 -33.5 14.5t-13.5 34.5q0 21 13.5 35.5t33.5 14.5t33.5 -14.5t13.5 -35.5q0 -20 -13.5 -34.5t-33.5 -14.5zM846 1247q-21 0 -34 14t-13 35t13 35.5t34 14.5q20 0 33.5 -14.5t13.5 -35.5q0 -20 -13.5 -34.5t-33.5 -14.5zM995 987v-987h-358
q-149 0 -266 57.5t-186.5 170.5t-69.5 266t69.5 266.5t186.5 170t266 56.5h358zM946 940h-309q-207 0 -339 -119.5t-132 -326.5q0 -210 132 -329.5t339 -119.5h309v895z" />
    <glyph glyph-name="agrave.alt" horiz-adv-x="1193" 
d="M469 1454h63l220 -295h-50zM995 987v-987h-358q-149 0 -266 57.5t-186.5 170.5t-69.5 266t69.5 266.5t186.5 170t266 56.5h358zM946 940h-309q-207 0 -339 -119.5t-132 -326.5q0 -210 132 -329.5t339 -119.5h309v895z" />
    <glyph glyph-name="aring.alt" horiz-adv-x="1193" 
d="M690 1481q71 0 118.5 -46t47.5 -116t-47.5 -116t-118.5 -46t-118.5 46t-47.5 116t47.5 116t118.5 46zM561 1319q0 -55 36.5 -91t92.5 -36t92.5 36t36.5 91t-36.5 91t-92.5 36t-92.5 -36t-36.5 -91zM995 987v-987h-358q-149 0 -266 57.5t-186.5 170.5t-69.5 266
t69.5 266.5t186.5 170t266 56.5h358zM946 940h-309q-207 0 -339 -119.5t-132 -326.5q0 -210 132 -329.5t339 -119.5h309v895z" />
    <glyph glyph-name="atilde.alt" horiz-adv-x="1193" 
d="M791 1253q-40 0 -90 28.5t-97.5 56.5t-83.5 28q-100 0 -100 -113h-39q-2 74 33 116t102 42q40 0 91 -28.5t99 -57.5t82 -29q47 0 72 29t25 82h37q1 -74 -33 -114t-98 -40zM995 987v-987h-358q-149 0 -266 57.5t-186.5 170.5t-69.5 266t69.5 266.5t186.5 170t266 56.5h358
zM946 940h-309q-207 0 -339 -119.5t-132 -326.5q0 -210 132 -329.5t339 -119.5h309v895z" />
    <glyph glyph-name="abreve.alt" horiz-adv-x="1193" 
d="M676 1225q94 0 159.5 61.5t65.5 149.5h43q0 -105 -77.5 -179.5t-190.5 -74.5t-189.5 74.5t-76.5 179.5h45q0 -88 64.5 -149.5t156.5 -61.5zM995 987v-987h-358q-149 0 -266 57.5t-186.5 170.5t-69.5 266t69.5 266.5t186.5 170t266 56.5h358zM946 940h-309
q-207 0 -339 -119.5t-132 -326.5q0 -210 132 -329.5t339 -119.5h309v895z" />
    <glyph glyph-name="amacron.alt" horiz-adv-x="1193" 
d="M408 1333h573v-45h-573v45zM995 987v-987h-358q-149 0 -266 57.5t-186.5 170.5t-69.5 266t69.5 266.5t186.5 170t266 56.5h358zM946 940h-309q-207 0 -339 -119.5t-132 -326.5q0 -210 132 -329.5t339 -119.5h309v895z" />
    <glyph glyph-name="aogonek.alt" horiz-adv-x="1196" 
d="M995 -453q-57 -22 -102 -22q-67 0 -114.5 36t-59.5 101q-13 74 16 139.5t78 109.5t123 89h-299q-149 0 -266 57.5t-186.5 170.5t-69.5 266t69.5 266.5t186.5 170t266 56.5h358v-987q-57 -36 -95.5 -65t-76.5 -70t-53 -89t-6 -102q9 -52 46.5 -81t92.5 -29q46 0 92 22v-39
zM946 940h-309q-207 0 -339 -119.5t-132 -326.5q0 -210 132 -329.5t339 -119.5h309v895z" />
    <glyph glyph-name="aacute.alt2" horiz-adv-x="1112" 
d="M711 1454h63l-233 -295h-47zM195 940v47h718v-987h-462q-144 0 -237 80t-93 221q0 143 92.5 224t239.5 81h411v334h-669zM864 559h-411q-122 0 -201.5 -69t-79.5 -189q0 -121 79 -188.5t202 -67.5h411v514z" />
    <glyph glyph-name="acircumflex.alt2" horiz-adv-x="1112" 
d="M788 1159l-225 258l-221 -258h-53l246 295h59l248 -295h-54zM195 940v47h718v-987h-462q-144 0 -237 80t-93 221q0 143 92.5 224t239.5 81h411v334h-669zM864 559h-411q-122 0 -201.5 -69t-79.5 -189q0 -121 79 -188.5t202 -67.5h411v514z" />
    <glyph glyph-name="adieresis.alt2" horiz-adv-x="1112" 
d="M373 1247q-20 0 -33.5 14.5t-13.5 34.5q0 21 13.5 35.5t33.5 14.5t33.5 -14.5t13.5 -35.5q0 -20 -13.5 -34.5t-33.5 -14.5zM764 1247q-21 0 -34 14t-13 35t13 35.5t34 14.5q20 0 33.5 -14.5t13.5 -35.5q0 -20 -13.5 -34.5t-33.5 -14.5zM195 940v47h718v-987h-462
q-144 0 -237 80t-93 221q0 143 92.5 224t239.5 81h411v334h-669zM864 559h-411q-122 0 -201.5 -69t-79.5 -189q0 -121 79 -188.5t202 -67.5h411v514z" />
    <glyph glyph-name="agrave.alt2" horiz-adv-x="1112" 
d="M399 1454h64l219 -295h-49zM195 940v47h718v-987h-462q-144 0 -237 80t-93 221q0 143 92.5 224t239.5 81h411v334h-669zM864 559h-411q-122 0 -201.5 -69t-79.5 -189q0 -121 79 -188.5t202 -67.5h411v514z" />
    <glyph glyph-name="aring.alt2" horiz-adv-x="1112" 
d="M569 1481q71 0 118.5 -46t47.5 -116t-47.5 -116t-118.5 -46t-118.5 46t-47.5 116t47.5 116t118.5 46zM440 1319q0 -55 36.5 -91t92.5 -36t92.5 36t36.5 91t-36.5 91t-92.5 36t-92.5 -36t-36.5 -91zM195 940v47h718v-987h-462q-144 0 -237 80t-93 221q0 143 92.5 224
t239.5 81h411v334h-669zM864 559h-411q-122 0 -201.5 -69t-79.5 -189q0 -121 79 -188.5t202 -67.5h411v514z" />
    <glyph glyph-name="atilde.alt2" horiz-adv-x="1112" 
d="M709 1253q-40 0 -90 28.5t-97.5 56.5t-83.5 28q-100 0 -100 -113h-39q-2 74 33 116t102 42q32 0 71.5 -18t70.5 -39.5t67.5 -39.5t63.5 -18q47 0 71.5 29t24.5 82h37q1 -74 -33 -114t-98 -40zM195 940v47h718v-987h-462q-144 0 -237 80t-93 221q0 143 92.5 224t239.5 81
h411v334h-669zM864 559h-411q-122 0 -201.5 -69t-79.5 -189q0 -121 79 -188.5t202 -67.5h411v514z" />
    <glyph glyph-name="abreve.alt2" horiz-adv-x="1112" 
d="M571 1225q94 0 160 61.5t66 149.5h43q0 -105 -78 -179.5t-191 -74.5t-189.5 74.5t-76.5 179.5h45q0 -88 64.5 -149.5t156.5 -61.5zM195 940v47h718v-987h-462q-144 0 -237 80t-93 221q0 143 92.5 224t239.5 81h411v334h-669zM864 559h-411q-122 0 -201.5 -69t-79.5 -189
q0 -121 79 -188.5t202 -67.5h411v514z" />
    <glyph glyph-name="amacron.alt2" horiz-adv-x="1112" 
d="M272 1333h574v-45h-574v45zM195 940v47h718v-987h-462q-144 0 -237 80t-93 221q0 143 92.5 224t239.5 81h411v334h-669zM864 559h-411q-122 0 -201.5 -69t-79.5 -189q0 -121 79 -188.5t202 -67.5h411v514z" />
    <glyph glyph-name="aogonek.alt2" horiz-adv-x="1112" 
d="M195 940v47h718v-987q-57 -36 -95.5 -65t-76.5 -70t-53 -89t-6 -102q9 -52 46.5 -81t92.5 -29q46 0 92 22v-39q-57 -22 -102 -22q-67 0 -114.5 36t-59.5 101q-13 74 16 139.5t78 109.5t123 89h-403q-144 0 -237 80t-93 221q0 143 92.5 224t239.5 81h411v334h-669z
M864 559h-411q-122 0 -201.5 -69t-79.5 -189q0 -121 79 -188.5t202 -67.5h411v514z" />
    <glyph glyph-name="dcaron.alt" horiz-adv-x="1224" 
d="M946 1536h51v-1536h-360q-149 0 -266 57.5t-186.5 170.5t-69.5 266t70 266.5t187 170t265 56.5h309v549zM1174 1182h-39l73 354h52zM946 940h-311q-133 0 -238.5 -51t-168 -153.5t-62.5 -241.5q0 -210 132 -329.5t337 -119.5h311v895z" />
    <glyph glyph-name="dcroat.alt" horiz-adv-x="1193" 
d="M1190 1255h-195v-1255h-360q-148 0 -265 57.5t-186 170.5t-69 266t70 266.5t186.5 170t263.5 56.5h311v268h-330v45h330v236h49v-236h195v-45zM946 940h-311q-133 0 -238.5 -51t-168 -153.5t-62.5 -241.5q0 -210 132 -329.5t337 -119.5h311v895z" />
    <glyph glyph-name="eacute.alt" horiz-adv-x="1077" 
d="M717 1454h63l-233 -295h-47zM946 47v-47h-768v643q0 111 56.5 194.5t150 125t209.5 41.5q107 0 190.5 -29.5t136 -96.5t52.5 -165q0 -137 -99 -214t-247 -77h-400v-375h719zM227 469h400q128 0 212.5 63t84.5 179q0 124 -93.5 184.5t-238.5 60.5q-155 0 -260 -83
t-105 -228v-176z" />
    <glyph glyph-name="ecircumflex.alt" horiz-adv-x="1077" 
d="M815 1159l-225 258l-221 -258h-54l246 295h60l247 -295h-53zM946 47v-47h-768v643q0 111 56.5 194.5t150 125t209.5 41.5q107 0 190.5 -29.5t136 -96.5t52.5 -165q0 -137 -99 -214t-247 -77h-400v-375h719zM227 469h400q128 0 212.5 63t84.5 179q0 124 -93.5 184.5
t-238.5 60.5q-155 0 -260 -83t-105 -228v-176z" />
    <glyph glyph-name="edieresis.alt" horiz-adv-x="1077" 
d="M393 1247q-20 0 -33.5 14.5t-13.5 34.5q0 21 13.5 35.5t33.5 14.5t33.5 -14.5t13.5 -35.5q0 -20 -13.5 -34.5t-33.5 -14.5zM784 1247q-21 0 -34 14t-13 35t13 35.5t34 14.5q20 0 33.5 -14.5t13.5 -35.5q0 -20 -13.5 -34.5t-33.5 -14.5zM946 47v-47h-768v643
q0 111 56.5 194.5t150 125t209.5 41.5q107 0 190.5 -29.5t136 -96.5t52.5 -165q0 -137 -99 -214t-247 -77h-400v-375h719zM227 469h400q128 0 212.5 63t84.5 179q0 124 -93.5 184.5t-238.5 60.5q-155 0 -260 -83t-105 -228v-176z" />
    <glyph glyph-name="egrave.alt" horiz-adv-x="1077" 
d="M389 1454h64l219 -295h-49zM946 47v-47h-768v643q0 111 56.5 194.5t150 125t209.5 41.5q107 0 190.5 -29.5t136 -96.5t52.5 -165q0 -137 -99 -214t-247 -77h-400v-375h719zM227 469h400q128 0 212.5 63t84.5 179q0 124 -93.5 184.5t-238.5 60.5q-155 0 -260 -83
t-105 -228v-176z" />
    <glyph glyph-name="ebreve.alt" horiz-adv-x="1077" 
d="M586 1225q94 0 159.5 61.5t65.5 149.5h43q0 -105 -77.5 -179.5t-190.5 -74.5t-190 74.5t-77 179.5h46q0 -88 64.5 -149.5t156.5 -61.5zM946 47v-47h-768v643q0 111 56.5 194.5t150 125t209.5 41.5q107 0 190.5 -29.5t136 -96.5t52.5 -165q0 -137 -99 -214t-247 -77h-400
v-375h719zM227 469h400q128 0 212.5 63t84.5 179q0 124 -93.5 184.5t-238.5 60.5q-155 0 -260 -83t-105 -228v-176z" />
    <glyph glyph-name="ecaron.alt" horiz-adv-x="1077" 
d="M868 1454l-247 -295h-60l-246 295h54l221 -260l225 260h53zM946 47v-47h-768v643q0 111 56.5 194.5t150 125t209.5 41.5q107 0 190.5 -29.5t136 -96.5t52.5 -165q0 -137 -99 -214t-247 -77h-400v-375h719zM227 469h400q128 0 212.5 63t84.5 179q0 124 -93.5 184.5
t-238.5 60.5q-155 0 -260 -83t-105 -228v-176z" />
    <glyph glyph-name="edotaccent.alt" horiz-adv-x="1077" 
d="M582 1247q-20 0 -33.5 14.5t-13.5 34.5q0 21 13.5 36.5t33.5 15.5t34.5 -15.5t14.5 -36.5q0 -20 -14.5 -34.5t-34.5 -14.5zM946 47v-47h-768v643q0 111 56.5 194.5t150 125t209.5 41.5q107 0 190.5 -29.5t136 -96.5t52.5 -165q0 -137 -99 -214t-247 -77h-400v-375h719z
M227 469h400q128 0 212.5 63t84.5 179q0 124 -93.5 184.5t-238.5 60.5q-155 0 -260 -83t-105 -228v-176z" />
    <glyph glyph-name="emacron.alt" horiz-adv-x="1077" 
d="M295 1333h573v-45h-573v45zM946 47v-47h-768v643q0 111 56.5 194.5t150 125t209.5 41.5q107 0 190.5 -29.5t136 -96.5t52.5 -165q0 -137 -99 -214t-247 -77h-400v-375h719zM227 469h400q128 0 212.5 63t84.5 179q0 124 -93.5 184.5t-238.5 60.5q-155 0 -260 -83
t-105 -228v-176z" />
    <glyph glyph-name="eogonek.alt" horiz-adv-x="1077" 
d="M946 -453q-57 -22 -102 -22q-67 0 -114.5 36t-59.5 101q-13 74 16 139.5t78 109.5t123 89h-709v643q0 111 56.5 194.5t150 125t209.5 41.5q107 0 190.5 -29.5t136 -96.5t52.5 -165q0 -137 -99 -214t-247 -77h-400v-375h719v-47q-57 -36 -95.5 -65t-76.5 -70t-53 -89
t-6 -102q9 -52 46.5 -81t92.5 -29q46 0 92 22v-39zM227 469h400q128 0 212.5 63t84.5 179q0 124 -93.5 184.5t-238.5 60.5q-155 0 -260 -83t-105 -228v-176z" />
    <glyph glyph-name="eacute.alt2" horiz-adv-x="1097" 
d="M721 1454h63l-233 -295h-47zM197 0v987h796v-207q0 -147 -97 -237t-253 -90h-397v-408h739v-45h-788zM942 940h-696v-442h401q129 0 212 78t83 204v160z" />
    <glyph glyph-name="ecircumflex.alt2" horiz-adv-x="1097" 
d="M819 1159l-225 258l-221 -258h-54l246 295h60l247 -295h-53zM197 0v987h796v-207q0 -147 -97 -237t-253 -90h-397v-408h739v-45h-788zM942 940h-696v-442h401q129 0 212 78t83 204v160z" />
    <glyph glyph-name="edieresis.alt2" horiz-adv-x="1097" 
d="M403 1247q-20 0 -33.5 14.5t-13.5 34.5q0 21 13.5 35.5t33.5 14.5t34 -15t14 -35t-14 -34.5t-34 -14.5zM795 1247q-21 0 -34 14t-13 35t13 35.5t34 14.5q20 0 33.5 -14.5t13.5 -35.5q0 -20 -13.5 -34.5t-33.5 -14.5zM197 0v987h796v-207q0 -147 -97 -237t-253 -90h-397
v-408h739v-45h-788zM942 940h-696v-442h401q129 0 212 78t83 204v160z" />
    <glyph glyph-name="egrave.alt2" horiz-adv-x="1097" 
d="M403 1454h64l219 -295h-49zM197 0v987h796v-207q0 -147 -97 -237t-253 -90h-397v-408h739v-45h-788zM942 940h-696v-442h401q129 0 212 78t83 204v160z" />
    <glyph glyph-name="ebreve.alt2" horiz-adv-x="1097" 
d="M588 1225q94 0 159.5 61.5t65.5 149.5h43q0 -105 -77.5 -179.5t-190.5 -74.5t-189.5 74.5t-76.5 179.5h45q0 -88 64.5 -149.5t156.5 -61.5zM197 0v987h796v-207q0 -147 -97 -237t-253 -90h-397v-408h739v-45h-788zM942 940h-696v-442h401q129 0 212 78t83 204v160z" />
    <glyph glyph-name="ecaron.alt2" horiz-adv-x="1097" 
d="M879 1454l-248 -295h-60l-245 295h53l221 -260l225 260h54zM197 0v987h796v-207q0 -147 -97 -237t-253 -90h-397v-408h739v-45h-788zM942 940h-696v-442h401q129 0 212 78t83 204v160z" />
    <glyph glyph-name="edotaccent.alt2" horiz-adv-x="1097" 
d="M594 1247q-20 0 -33.5 14.5t-13.5 34.5q0 21 13.5 36.5t33.5 15.5t34.5 -15.5t14.5 -36.5q0 -20 -14.5 -34.5t-34.5 -14.5zM197 0v987h796v-207q0 -147 -97 -237t-253 -90h-397v-408h739v-45h-788zM942 940h-696v-442h401q129 0 212 78t83 204v160z" />
    <glyph glyph-name="emacron.alt2" horiz-adv-x="1097" 
d="M301 1333h573v-45h-573v45zM197 0v987h796v-207q0 -147 -97 -237t-253 -90h-397v-408h739v-45h-788zM942 940h-696v-442h401q129 0 212 78t83 204v160z" />
    <glyph glyph-name="eogonek.alt2" horiz-adv-x="1097" 
d="M197 0v987h796v-207q0 -147 -97 -237t-253 -90h-397v-408h739v-45q-57 -36 -95.5 -65t-76.5 -70t-53 -89t-6 -102q9 -52 46.5 -81t92.5 -29q46 0 92 22v-39q-57 -22 -102 -22q-67 0 -114.5 36t-59.5 101q-13 74 16 139.5t78 109.5t123 89h-729zM942 940h-696v-442h401
q129 0 212 78t83 204v160z" />
    <glyph glyph-name="hbar.alt2" horiz-adv-x="1208" 
d="M573 1239h-327v-252h766v-987h-51v940h-715v-940h-49v1239h-197v43h197v254h49v-254h327v-43z" />
    <glyph glyph-name="hcircumflex.alt2" horiz-adv-x="1208" 
d="M717 1638l-225 258l-222 -258h-53l246 295h59l248 -295h-53zM246 1536v-549h766v-987h-51v940h-715v-940h-49v1536h49z" />
    <glyph glyph-name="i.dot" horiz-adv-x="444" 
d="M223 1247q-20 0 -34.5 14.5t-14.5 34.5q0 21 14.5 36.5t34.5 15.5t33.5 -15.5t13.5 -36.5q0 -20 -13.5 -34.5t-33.5 -14.5zM199 0v987h49v-987h-49z" />
    <glyph glyph-name="ntilde.alt2" horiz-adv-x="1208" 
d="M766 1253q-32 0 -70.5 17.5t-68.5 39t-66 39t-65 17.5q-48 0 -74.5 -28.5t-26.5 -84.5h-39q-2 74 33.5 116t102.5 42q40 0 91 -28.5t99 -57.5t82 -29q47 0 71.5 29t24.5 82h37q1 -74 -33 -114t-98 -40zM197 0v987h815v-987h-51v940h-715v-940h-49z" />
    <glyph glyph-name="nacute.alt2" horiz-adv-x="1208" 
d="M750 1454h63l-233 -295h-48zM197 0v987h815v-987h-51v940h-715v-940h-49z" />
    <glyph glyph-name="ncaron.alt2" horiz-adv-x="1208" 
d="M897 1454l-248 -295h-59l-246 295h53l221 -260l226 260h53zM197 0v987h815v-987h-51v940h-715v-940h-49z" />
    <glyph glyph-name="ncommaaccent.alt2" horiz-adv-x="1208" 
d="M197 0v987h815v-987h-51v940h-715v-940h-49zM631 -139h57l-125 -236h-41z" />
    <glyph glyph-name="racute.alt" horiz-adv-x="716" 
d="M545 1454h63l-233 -295h-47zM717 971l-471 -383v-588h-49v987h49v-332l436 349z" />
    <glyph glyph-name="rcaron.alt" horiz-adv-x="716" 
d="M711 1454l-248 -295h-60l-245 295h53l221 -260l225 260h54zM717 971l-471 -383v-588h-49v987h49v-332l436 349z" />
    <glyph glyph-name="rcommaaccent.alt" horiz-adv-x="716" 
d="M717 971l-471 -383v-588h-49v987h49v-332l436 349zM188 -139h58l-125 -236h-41z" />
    <glyph glyph-name="racute.alt2" horiz-adv-x="716" 
d="M553 1454h63l-233 -295h-47zM197 0v987h479v-47h-430v-940h-49z" />
    <glyph glyph-name="rcaron.alt2" horiz-adv-x="716" 
d="M723 1454l-248 -295h-59l-246 295h53l221 -260l226 260h53zM197 0v987h479v-47h-430v-940h-49z" />
    <glyph glyph-name="rcommaaccent.alt2" horiz-adv-x="716" 
d="M197 0v987h479v-47h-430v-940h-49zM188 -139h58l-125 -236h-41z" />
    <glyph glyph-name="caron.alt" horiz-adv-x="845" 
d="M365 1182h-39l73 354h52z" />
    <glyph glyph-name="revcommaaccent" horiz-adv-x="845" 
d="M467 1364h39l-109 -236h-55z" />
    <glyph glyph-name="ampersand.alt" horiz-adv-x="1427" 
d="M119 446q0 212 142.5 344t363.5 138l-420 608h862v-47h-772l803 -1161q141 235 188 659h49q-50 -456 -209 -702l197 -285h-57l-168 242q-186 -256 -506 -256q-204 0 -338.5 127t-134.5 333zM596 33q300 0 473 252l-414 598h-10q-205 0 -339 -120t-134 -314
q0 -188 119.5 -302t304.5 -114z" />
    <glyph glyph-name="Omega" horiz-adv-x="1509" 
d="M184 913q0 -224 133.5 -384.5t356.5 -215.5v-313h-475v45h428v238q-224 64 -358 232t-134 398q0 184 77.5 329t219 226.5t324.5 81.5q181 0 322.5 -80t219.5 -223.5t78 -326.5q0 -233 -137 -403t-365 -234v-238h429v-45h-476v313q226 55 362 217.5t136 389.5
q0 256 -158 418.5t-411 162.5q-255 0 -413.5 -165t-158.5 -423z" />
    <glyph glyph-name="Delta" horiz-adv-x="1464" 
d="M731 1559l701 -1559h-1399zM109 45h1247l-625 1401z" />
    </font>
</defs>
</svg>
