<?xml version="1.0" standalone="no"?>
<!DOCTYPE svg PUBLIC "-//W3C//DTD SVG 1.1//EN" "http://www.w3.org/Graphics/SVG/1.1/DTD/svg11.dtd" >
<svg xmlns="http://www.w3.org/2000/svg" xmlns:xlink="http://www.w3.org/1999/xlink" version="1.1">
<metadata>
Created by FontForge 20170731 at Sat May 21 23:58:17 2022
 By Aleksey,,,
Copyright 2017 Indian Type Foundry
</metadata>
<defs>
<font id="Ekster-ExtralightItalic" horiz-adv-x="1179" >
  <font-face 
    font-family="Ekster Extralight"
    font-weight="200"
    font-style="italic"
    font-stretch="normal"
    units-per-em="2048"
    panose-1="2 0 2 0 3 0 0 9 0 0"
    ascent="1638"
    descent="-410"
    x-height="995"
    cap-height="1536"
    bbox="-403 -676 2515 1946"
    underline-thickness="20"
    underline-position="-266"
    slope="-11"
    unicode-range="U+0020-FB02"
  />
<missing-glyph horiz-adv-x="1138" 
d="M0 0l299 1536h831l-299 -1536h-831zM109 86h647l266 1364h-647zM670 555l-113 139l-170 -143l-59 78l168 141l-113 139l78 68l114 -141l175 147l61 -78l-174 -145l113 -137z" />
    <glyph glyph-name="fi" unicode="fi" horiz-adv-x="1163" 
d="M698 913h-393l-178 -913h-88l235 1221q29 156 126.5 242.5t242.5 86.5q121 0 203 -63l-17 -86q-75 67 -186 67q-109 0 -182.5 -64t-95.5 -179l-46 -230h396zM961 1298q0 31 21.5 52.5t53.5 21.5q29 0 47.5 -18t18.5 -47q0 -32 -22 -53t-54 -21q-29 0 -47 18t-18 47z
M735 0l193 995h90l-195 -995h-88z" />
    <glyph glyph-name="fl" unicode="fl" horiz-adv-x="1163" 
d="M698 913h-393l-178 -913h-88l235 1221q29 156 126.5 242.5t242.5 86.5q121 0 203 -63l-17 -86q-75 67 -186 67q-109 0 -182.5 -64t-95.5 -179l-46 -230h396zM735 0l299 1536h88l-299 -1536h-88z" />
    <glyph glyph-name=".notdef" horiz-adv-x="1138" 
d="M0 0l299 1536h831l-299 -1536h-831zM109 86h647l266 1364h-647zM670 555l-113 139l-170 -143l-59 78l168 141l-113 139l78 68l114 -141l175 147l61 -78l-174 -145l113 -137z" />
    <glyph glyph-name=".null" horiz-adv-x="0" 
 />
    <glyph glyph-name="nonmarkingreturn" horiz-adv-x="682" 
 />
    <glyph glyph-name="space" unicode=" " horiz-adv-x="491" 
 />
    <glyph glyph-name="exclam" unicode="!" horiz-adv-x="573" 
d="M387 1536h96l-77 -408l-150 -700h-72l123 700zM145 -14q-33 0 -54 19.5t-21 51.5q0 35 24.5 57.5t59.5 22.5q34 0 54.5 -20.5t20.5 -53.5q0 -35 -24.5 -56t-59.5 -21z" />
    <glyph glyph-name="quotedbl" unicode="&#x22;" horiz-adv-x="671" 
d="M227 1110l84 426h84l-82 -426h-86zM492 1110l83 426h84l-81 -426h-86z" />
    <glyph glyph-name="numbersign" unicode="#" horiz-adv-x="1435" 
d="M479 0l236 446h-346l-236 -446h-90l236 446h-291l14 82h322l270 514h-322l17 82h350l217 412h90l-217 -412h346l217 412h90l-217 -412h291l-16 -82h-320l-270 -514h319l-16 -82h-348l-236 -446h-90zM414 528h346l270 514h-346z" />
    <glyph glyph-name="dollar" unicode="$" horiz-adv-x="1136" 
d="M973 397q0 -93 -41 -170t-111 -128t-160 -80t-192 -33l-49 -252h-90l51 254q-258 17 -406 180l21 102q81 -100 200.5 -152t252.5 -52q118 0 215 36.5t158 111.5t61 177q0 171 -187 279l-241 141q-122 72 -179 154.5t-57 193.5q0 176 126.5 280.5t320.5 110.5l49 250h90
l-51 -252q201 -19 346 -147l-21 -94q-80 80 -182 121.5t-211 41.5q-161 0 -268 -81.5t-107 -225.5q0 -89 46 -152t145 -122l239 -141q232 -137 232 -351z" />
    <glyph glyph-name="percent" unicode="%" horiz-adv-x="1818" 
d="M156 1174q0 158 113.5 267t273.5 109q143 0 232 -89.5t89 -227.5q0 -159 -114 -269t-273 -110q-144 0 -232.5 91t-88.5 229zM215 0h-100l1503 1536h100zM788 1231q0 108 -67 178t-180 70q-128 0 -218 -88.5t-90 -212.5q0 -108 68.5 -180t181.5 -72q127 0 216 89.5
t89 215.5zM952 303q0 157 114 267t273 110q143 0 233.5 -91t90.5 -229q0 -158 -114 -266t-275 -108q-144 0 -233 89.5t-89 227.5zM1585 358q0 108 -67.5 179t-180.5 71q-128 0 -217.5 -89t-89.5 -214q0 -107 68.5 -178.5t181.5 -71.5q127 0 216 88.5t89 214.5z" />
    <glyph glyph-name="ampersand" unicode="&#x26;" horiz-adv-x="1423" 
d="M1106 0l-145 186q-219 -200 -478 -200q-190 0 -313 108t-123 297q0 291 336 465l39 21q-88 133 -88 272q0 178 116 289.5t293 111.5q149 0 249 -82t112 -221q2 -25 2 -69h-90q0 35 -2 55q-6 108 -81 171.5t-192 63.5q-138 0 -226.5 -90.5t-88.5 -228.5q0 -151 127 -307
l418 -529q169 190 254 461h88q-101 -319 -289 -526l197 -248h-115zM139 401q0 -153 101 -244t254 -91q216 0 415 184l-438 559l-51 -27q-281 -146 -281 -381z" />
    <glyph glyph-name="quotesingle" unicode="'" horiz-adv-x="409" 
d="M227 1110l84 426h84l-82 -426h-86z" />
    <glyph glyph-name="parenleft" unicode="(" horiz-adv-x="811" 
d="M129 453q0 255 90.5 486t267 410.5t414.5 268.5l-16 -90q-211 -85 -365.5 -255t-230.5 -381t-76 -439q0 -215 80 -393t248 -298l-17 -88q-198 127 -296.5 328t-98.5 451z" />
    <glyph glyph-name="parenright" unicode=")" horiz-adv-x="811" 
d="M633 838q0 -256 -90.5 -486.5t-266 -409.5t-413.5 -268l16 90q210 85 364 254t230 380t76 440q0 216 -80 394t-250 296l19 90q196 -128 295.5 -330t99.5 -450z" />
    <glyph glyph-name="asterisk" unicode="*" horiz-adv-x="911" 
d="M565 1546l80 -14l-82 -328l316 123l26 -76l-325 -94l266 -211l-53 -59l-246 231l-51 -334l-80 17l84 327l-314 -124l-28 75l325 97l-266 210l55 60l246 -236z" />
    <glyph glyph-name="plus" unicode="+" horiz-adv-x="1087" 
d="M975 743h-395l-78 -395h-84l78 395h-394l17 82h393l78 396h84l-78 -396h395z" />
    <glyph glyph-name="comma" unicode="," horiz-adv-x="393" 
d="M-78 -285h-72l189 273q-23 8 -37 26t-14 43q0 36 24 59t58 23q32 0 53.5 -21.5t21.5 -54.5q0 -29 -36 -83z" />
    <glyph glyph-name="hyphen" unicode="-" horiz-adv-x="819" 
d="M61 561l15 82h614l-14 -82h-615z" />
    <glyph glyph-name="period" unicode="." horiz-adv-x="393" 
d="M55 -14q-34 0 -53.5 19.5t-19.5 51.5q0 35 23.5 57.5t57.5 22.5t55 -21t21 -53q0 -35 -25 -56t-59 -21z" />
    <glyph glyph-name="slash" unicode="/" horiz-adv-x="997" 
d="M-102 -326h-97l1256 1964h94z" />
    <glyph glyph-name="zero" unicode="0" horiz-adv-x="1359" 
d="M1266 973q0 -117 -22 -235t-62.5 -228t-103.5 -205.5t-141 -166.5t-178.5 -111.5t-211.5 -40.5q-215 0 -335 148t-120 427q0 142 30.5 283t92 268t146 225t200.5 155.5t248 57.5q214 0 335.5 -148.5t121.5 -428.5zM559 70q113 0 212.5 54t171 144t123.5 206.5t77.5 243
t25.5 251.5q0 242 -96.5 368.5t-271.5 126.5q-113 0 -213 -54t-172 -144.5t-124.5 -207t-78 -243t-25.5 -250.5q0 -240 96.5 -367.5t274.5 -127.5z" />
    <glyph glyph-name="one" unicode="1" horiz-adv-x="671" 
d="M242 0l274 1419l-377 -172l21 94l477 222l-303 -1563h-92z" />
    <glyph glyph-name="two" unicode="2" horiz-adv-x="1103" 
d="M928 82l-17 -82h-1024l793 776q130 125 192 220t62 196q0 125 -87.5 199.5t-223.5 74.5q-211 0 -433 -188l21 111q206 161 422 161q170 0 282.5 -95t112.5 -251q0 -115 -68 -227.5t-206 -245.5l-670 -649h844z" />
    <glyph glyph-name="three" unicode="3" horiz-adv-x="1089" 
d="M924 442q0 -138 -77.5 -243.5t-205.5 -159t-285 -53.5q-244 0 -422 135l21 98q171 -149 405 -149q132 0 237 41.5t168.5 127t63.5 201.5q0 155 -109 238.5t-280 83.5q-47 0 -133 -8l17 84l137 18q122 16 218.5 60t158 123.5t61.5 181.5q0 117 -78.5 181t-206.5 64
q-104 0 -216 -44t-210 -124l21 107q187 145 416 145q162 0 265 -84t103 -235q0 -154 -110.5 -262.5t-286.5 -155.5q152 -29 240 -128.5t88 -242.5z" />
    <glyph glyph-name="four" unicode="4" horiz-adv-x="1183" 
d="M1079 397h-211l-75 -397h-93l76 397h-815l840 1139h100l-774 -1053h666l98 506h92l-98 -506h211z" />
    <glyph glyph-name="five" unicode="5" horiz-adv-x="1114" 
d="M973 508q0 -154 -83.5 -274.5t-222 -184t-305.5 -63.5q-224 0 -385 114l19 97q154 -127 369 -127q217 0 364.5 120t147.5 312q0 165 -109 267.5t-291 102.5q-168 0 -336 -84l146 748h811l-17 -84h-723l-108 -555q132 55 262 55q205 0 333 -124t128 -320z" />
    <glyph glyph-name="six" unicode="6" 
d="M1055 522q0 -148 -73.5 -270.5t-203.5 -194t-289 -71.5q-205 0 -337 118t-132 306q0 114 51 217.5t148 218.5l582 690h110l-526 -623q110 52 225 52q194 0 319.5 -124.5t125.5 -318.5zM496 70q198 0 330 132.5t132 321.5q0 160 -100.5 261.5t-265.5 101.5
q-96 0 -181.5 -35.5t-146.5 -95.5q-69 -64 -108 -154.5t-39 -181.5q0 -153 105.5 -251.5t273.5 -98.5z" />
    <glyph glyph-name="seven" unicode="7" horiz-adv-x="1052" 
d="M1196 1536l-1112 -1536h-100l1046 1450h-858l16 86h1008z" />
    <glyph glyph-name="eight" unicode="8" horiz-adv-x="1220" 
d="M12 387q0 182 132.5 307t322.5 137q-115 26 -186.5 107.5t-71.5 204.5q0 117 62.5 211t168.5 145t234 51q178 0 289.5 -96t111.5 -252q0 -153 -105 -257.5t-270 -123.5q167 -22 268 -126t101 -259q0 -138 -78.5 -242t-206 -156t-282.5 -52q-219 0 -354.5 108t-135.5 293z
M981 1190q0 127 -86 201.5t-225 74.5q-159 0 -264 -92.5t-105 -234.5q0 -123 80.5 -199t226.5 -76q160 0 266.5 91t106.5 235zM975 434q0 155 -113 248.5t-295 93.5q-128 0 -232.5 -47.5t-166.5 -135.5t-62 -200q0 -147 111 -235t295 -88q199 0 331 99t132 265z" />
    <glyph glyph-name="nine" unicode="9" 
d="M956 682l-581 -688h-109l525 620q-108 -51 -224 -51q-195 0 -320.5 124.5t-125.5 320.5q0 147 72 269.5t201.5 194.5t289.5 72q205 0 338 -119.5t133 -308.5q0 -113 -51.5 -217t-147.5 -217zM678 1458q-197 0 -329 -132t-132 -320q0 -160 101 -262.5t268 -102.5
q191 0 323 129q70 64 111 153t41 183q0 154 -106.5 253t-276.5 99z" />
    <glyph glyph-name="colon" unicode=":" horiz-adv-x="434" 
d="M225 752q-33 0 -54 21t-21 54q0 35 23.5 57.5t59.5 22.5q32 0 53 -21t21 -52q0 -36 -24.5 -59t-57.5 -23zM76 -14q-34 0 -55 19.5t-21 51.5q0 35 24.5 57.5t59.5 22.5q34 0 55 -21t21 -53q0 -35 -25 -56t-59 -21z" />
    <glyph glyph-name="semicolon" unicode=";" horiz-adv-x="434" 
d="M227 752q-33 0 -54 21t-21 52q0 36 24.5 59t59.5 23q33 0 54 -21t21 -52q0 -36 -24.5 -59t-59.5 -23zM-63 -285h-72l188 273q-24 8 -38.5 26.5t-14.5 42.5q0 36 24 59t60 23q33 0 54.5 -21.5t21.5 -54.5q0 -6 -1 -12t-2 -10t-4 -11t-4.5 -10t-6 -10.5t-6 -9.5t-7 -10
t-6.5 -10z" />
    <glyph glyph-name="less" unicode="&#x3c;" horiz-adv-x="1087" 
d="M834 393l-17 -82l-694 396l16 88l850 399l-18 -94l-762 -352z" />
    <glyph glyph-name="equal" unicode="=" horiz-adv-x="1087" 
d="M141 946l17 82h872l-16 -82h-873zM59 522l17 82h872l-16 -82h-873z" />
    <glyph glyph-name="greater" unicode="&#x3e;" horiz-adv-x="1087" 
d="M940 707l-848 -396l19 95l757 350l-622 356l18 82l692 -399z" />
    <glyph glyph-name="question" unicode="?" horiz-adv-x="1140" 
d="M707 762l-144 -57l-59 -277h-78l57 332l197 76q76 29 134 61t109 75.5t78 100t27 123.5q0 124 -89.5 198t-229.5 74q-104 0 -198.5 -41t-163 -121t-89.5 -184h-90q39 195 192.5 311.5t352.5 116.5q177 0 292 -95t115 -255q0 -83 -33.5 -153t-94.5 -122.5t-129 -90.5
t-156 -72zM389 -14q-33 0 -54.5 19.5t-21.5 51.5q0 35 24.5 57.5t59.5 22.5q34 0 55 -21t21 -53q0 -35 -24.5 -56t-59.5 -21z" />
    <glyph glyph-name="at" unicode="@" horiz-adv-x="1908" 
d="M1223 -221q-183 -80 -379 -80q-220 0 -391 93t-266 261t-95 383q0 241 110 439t308 313t444 115q225 0 399 -92.5t268.5 -257t94.5 -373.5q0 -143 -42 -262t-126 -194t-196 -75q-97 0 -146 62.5t-41 144.5q-62 -95 -155.5 -151t-204.5 -56q-167 0 -263 109t-96 282
q0 137 58.5 253t164.5 185.5t236 69.5q135 0 223 -77t115 -203l51 266h80l-123 -637q-8 -41 0.5 -79.5t41 -67.5t85.5 -29q74 0 135.5 67t94 171.5t32.5 218.5q0 188 -87.5 336.5t-244.5 231.5t-356 83q-165 0 -311 -62t-249 -168.5t-162.5 -252.5t-59.5 -310
q0 -146 52 -271t142 -211t215.5 -134.5t270.5 -48.5q193 0 385 86zM1204 543q0 140 -77.5 231.5t-215.5 91.5q-162 0 -268 -121t-106 -294q0 -141 75.5 -231.5t212.5 -90.5q108 0 195.5 57.5t135.5 152t48 204.5z" />
    <glyph glyph-name="A" unicode="A" horiz-adv-x="1470" 
d="M1196 0l-106 426h-832l-272 -426h-107l1014 1563l401 -1563h-98zM311 508h758l-213 850z" />
    <glyph glyph-name="B" unicode="B" horiz-adv-x="1222" 
d="M39 0l299 1536h362q170 0 284 -95t114 -253q0 -148 -88 -244.5t-240 -138.5q132 -43 210.5 -137t78.5 -226q0 -133 -73.5 -234.5t-197 -154.5t-276.5 -53h-473zM698 1450h-284l-119 -606h307q173 0 287.5 92t114.5 244q0 125 -86.5 197.5t-219.5 72.5zM578 760h-299
l-132 -676h365q199 0 325 97t126 261q0 148 -107 232t-278 86z" />
    <glyph glyph-name="C" unicode="C" horiz-adv-x="1449" 
d="M1483 1366l-23 -102q-90 102 -216 151t-269 49q-168 0 -316 -64.5t-251 -173.5t-162.5 -254.5t-59.5 -303.5q0 -267 159.5 -432.5t428.5 -165.5q283 0 520 188l-22 -113q-232 -159 -508 -159q-305 0 -489.5 187.5t-184.5 490.5q0 178 68 341t185 283t283.5 191t354.5 71
q315 0 502 -184z" />
    <glyph glyph-name="D" unicode="D" horiz-adv-x="1597" 
d="M39 0l299 1536h461q321 0 512.5 -189.5t191.5 -496.5q0 -180 -70 -338t-191.5 -270t-291.5 -177t-364 -65h-547zM803 1450h-389l-267 -1366h441q175 0 327.5 58t260.5 159t169.5 242.5t61.5 302.5q0 175 -71 311.5t-209 214.5t-324 78z" />
    <glyph glyph-name="E" unicode="E" horiz-adv-x="1126" 
d="M39 0l299 1536h870l-16 -86h-778l-123 -633h692l-18 -84h-691l-127 -649h801l-16 -84h-893z" />
    <glyph glyph-name="F" unicode="F" horiz-adv-x="1073" 
d="M39 0l299 1536h852l-16 -86h-760l-133 -678h675l-18 -86h-674l-133 -686h-92z" />
    <glyph glyph-name="G" unicode="G" horiz-adv-x="1589" 
d="M1364 188q-125 -100 -280.5 -151t-321.5 -51q-212 0 -365.5 84t-231 234t-77.5 349q0 184 67 349t183.5 286t283.5 191.5t357 70.5q312 0 498 -178l-21 -106q-88 102 -213 150t-268 48q-115 0 -220.5 -29t-192 -81.5t-158 -127t-119.5 -163t-74.5 -191t-26.5 -210.5
q0 -269 154.5 -430.5t435.5 -161.5q285 0 510 170l90 475h-559l16 82h652z" />
    <glyph glyph-name="H" unicode="H" horiz-adv-x="1583" 
d="M1153 0l147 760h-1021l-148 -760h-92l299 1536h92l-135 -692h1022l135 692h92l-299 -1536h-92z" />
    <glyph glyph-name="I" unicode="I" horiz-adv-x="468" 
d="M39 0l299 1536h92l-299 -1536h-92z" />
    <glyph glyph-name="J" unicode="J" horiz-adv-x="872" 
d="M193 -14q-173 0 -293 102l16 90q117 -108 279 -108q131 0 216 79t111 211l230 1176h92l-228 -1169q-35 -183 -145.5 -282t-277.5 -99z" />
    <glyph glyph-name="K" unicode="K" horiz-adv-x="1302" 
d="M1032 0l-479 823l-315 -280l-107 -543h-92l299 1536h92l-168 -858l971 858h121l-731 -651l514 -885h-105z" />
    <glyph glyph-name="L" unicode="L" horiz-adv-x="1073" 
d="M911 84l-16 -84h-856l299 1536h92l-283 -1452h764z" />
    <glyph glyph-name="M" unicode="M" horiz-adv-x="1953" 
d="M903 350l-518 955l-254 -1305h-92l303 1563l584 -1067l995 1067l-305 -1563h-92l250 1282z" />
    <glyph glyph-name="N" unicode="N" horiz-adv-x="1638" 
d="M1294 -27l-905 1360l-258 -1333h-92l303 1563l905 -1366l260 1339h92z" />
    <glyph glyph-name="O" unicode="O" horiz-adv-x="1757" 
d="M1665 866q0 -175 -68.5 -336.5t-185 -281t-281 -191t-346.5 -71.5q-309 0 -500.5 190t-191.5 492q0 176 68.5 338.5t185.5 282t281 190.5t346 71q204 0 362 -87.5t244 -243t86 -353.5zM791 70q163 0 308.5 64.5t248.5 172.5t163 252.5t60 300.5q0 267 -167 435.5
t-437 168.5q-215 0 -396 -110t-283 -291.5t-102 -388.5q0 -267 167.5 -435.5t437.5 -168.5z" />
    <glyph glyph-name="P" unicode="P" horiz-adv-x="1177" 
d="M39 0l299 1536h334q226 0 352.5 -119.5t126.5 -322.5q0 -122 -46.5 -228.5t-128 -182.5t-197 -119.5t-247.5 -43.5h-301l-100 -520h-92zM670 1450h-256l-164 -844h285q230 0 375 135t145 344q0 169 -99 267t-286 98z" />
    <glyph glyph-name="Q" unicode="Q" horiz-adv-x="1753" 
d="M1665 866q0 -248 -130.5 -459t-348.5 -325l246 -348h-119l-217 309q-148 -57 -312 -57q-309 0 -500.5 190t-191.5 492q0 176 68.5 338.5t185.5 282t281 190.5t346 71q204 0 362 -87.5t244 -243t86 -353.5zM791 70q163 0 308.5 64.5t248.5 172.5t163 252.5t60 300.5
q0 267 -167 435.5t-437 168.5q-215 0 -396 -110t-283 -291.5t-102 -388.5q0 -267 167.5 -435.5t437.5 -168.5z" />
    <glyph glyph-name="R" unicode="R" horiz-adv-x="1236" 
d="M39 0l299 1536h332q219 0 346 -113.5t127 -304.5t-126 -327t-327 -175l340 -616h-104l-330 604q-16 -2 -47 -2h-301l-117 -602h-92zM666 1450h-252l-150 -762h295q211 0 349.5 120t138.5 306q0 155 -99.5 245.5t-281.5 90.5z" />
    <glyph glyph-name="S" unicode="S" horiz-adv-x="1126" 
d="M657 1470q-159 0 -265.5 -82t-106.5 -219q0 -175 194 -282l252 -139q238 -129 238 -347q0 -126 -73 -222t-193.5 -144.5t-268.5 -48.5q-137 0 -261.5 44.5t-207.5 137.5l21 100q84 -101 204.5 -151.5t251.5 -50.5q188 0 311.5 88t123.5 241q0 174 -189 275l-254 139
q-241 133 -241 354q0 172 133.5 279.5t330.5 107.5q115 0 226 -38t198 -111l-22 -98q-78 80 -184.5 123.5t-217.5 43.5z" />
    <glyph glyph-name="T" unicode="T" horiz-adv-x="1263" 
d="M152 1450l18 86h1223l-17 -86h-565l-283 -1450h-92l283 1450h-567z" />
    <glyph glyph-name="U" unicode="U" horiz-adv-x="1538" 
d="M133 639l176 897h92l-176 -899q-49 -248 74 -407.5t363 -159.5q234 0 392 154.5t206 412.5l176 899h90l-172 -899q-58 -301 -239.5 -476t-457.5 -175q-188 0 -320.5 83t-186.5 232t-17 338z" />
    <glyph glyph-name="V" unicode="V" horiz-adv-x="1452" 
d="M1577 1536l-1006 -1563l-395 1563h98l336 -1352l860 1352h107z" />
    <glyph glyph-name="W" unicode="W" horiz-adv-x="2316" 
d="M2433 1536l-913 -1563l-250 1356l-768 -1356l-322 1563h99l262 -1329l766 1356l254 -1360l766 1333h106z" />
    <glyph glyph-name="X" unicode="X" horiz-adv-x="1363" 
d="M1073 0l-399 737l-674 -737h-113l744 817l-387 719h104l352 -653l584 653h113l-654 -733l435 -803h-105z" />
    <glyph glyph-name="Y" unicode="Y" horiz-adv-x="1271" 
d="M1401 1536l-748 -936l-116 -600h-93l115 592l-389 944h100l346 -854l674 854h111z" />
    <glyph glyph-name="Z" unicode="Z" horiz-adv-x="1234" 
d="M1053 82l-17 -82h-1145l1258 1452h-936l16 84h1102l-1257 -1454h979z" />
    <glyph glyph-name="bracketleft" unicode="[" horiz-adv-x="700" 
d="M-16 -326l376 1944h412l-16 -84h-328l-346 -1778h328l-15 -82h-411z" />
    <glyph glyph-name="backslash" unicode="\" horiz-adv-x="1173" 
d="M862 -326l-680 1964h86l678 -1964h-84z" />
    <glyph glyph-name="bracketright" unicode="]" horiz-adv-x="702" 
d="M293 -326h-410l15 82h325l348 1778h-327l16 84h412z" />
    <glyph glyph-name="asciicircum" unicode="^" horiz-adv-x="1087" 
d="M899 750l-219 704l-487 -704h-93l547 786h88l244 -786h-80z" />
    <glyph glyph-name="underscore" unicode="_" horiz-adv-x="1024" 
d="M-199 -270l13 77h1022l-15 -77h-1020z" />
    <glyph glyph-name="grave" unicode="`" horiz-adv-x="882" 
d="M281 1454h112l185 -291h-80z" />
    <glyph glyph-name="a" unicode="a" horiz-adv-x="1312" 
d="M885 0l45 229q-77 -112 -193.5 -177.5t-253.5 -65.5q-193 0 -309.5 122.5t-116.5 319.5q0 116 43 223t116.5 186.5t178.5 127t223 47.5q157 0 263.5 -82.5t140.5 -224.5l55 290h90l-194 -995h-88zM621 926q-132 0 -241 -68t-169.5 -181t-60.5 -245q0 -165 97 -264.5
t263 -99.5q134 0 243 67.5t168.5 178.5t59.5 241q0 168 -98 269.5t-262 101.5z" />
    <glyph glyph-name="b" unicode="b" horiz-adv-x="1312" 
d="M1149 561q0 -155 -74 -287t-204.5 -210t-286.5 -78q-157 0 -262 82t-138 223l-57 -291h-88l299 1536h88l-152 -774q75 116 192.5 183t256.5 67q191 0 308.5 -127t117.5 -324zM696 926q-134 0 -243.5 -68.5t-169.5 -180.5t-60 -241q0 -163 98 -265.5t263 -102.5
q133 0 242.5 68t170 180t60.5 241q0 163 -97 266t-264 103z" />
    <glyph glyph-name="c" unicode="c" horiz-adv-x="1067" 
d="M150 434q0 -163 97 -263.5t265 -100.5q188 0 352 116l-20 -98q-158 -102 -346 -102q-202 0 -321.5 121.5t-119.5 318.5q0 157 76 292t209 214.5t291 79.5q98 0 188.5 -33.5t157.5 -99.5l-21 -95q-130 142 -327 142q-133 0 -244 -67.5t-174 -180.5t-63 -244z" />
    <glyph glyph-name="d" unicode="d" horiz-adv-x="1312" 
d="M885 0l45 229q-76 -112 -192.5 -177.5t-254.5 -65.5q-193 0 -309.5 122.5t-116.5 319.5q0 116 43 223t116.5 186.5t178.5 127t223 47.5q157 0 263.5 -83t140.5 -224l162 831h88l-299 -1536h-88zM621 926q-132 0 -241 -68t-169.5 -181t-60.5 -245q0 -165 97 -264.5
t263 -99.5q134 0 243 67.5t168.5 178.5t59.5 241q0 168 -98 269.5t-262 101.5z" />
    <glyph glyph-name="e" unicode="e" 
d="M1038 612q0 -63 -20 -135h-866q-2 -14 -2 -41q0 -162 100 -265t274 -103q103 0 208.5 33t185.5 100l-19 -99q-152 -116 -389 -116q-210 0 -331.5 123t-121.5 319q0 117 42 224t115 186.5t177.5 126.5t222.5 47q186 0 305 -114t119 -286zM606 930q-165 0 -286.5 -107.5
t-157.5 -269.5h784q4 32 4 51q0 142 -94.5 234t-249.5 92z" />
    <glyph glyph-name="f" unicode="f" horiz-adv-x="702" 
d="M729 913h-424l-178 -913h-88l235 1221q28 153 126.5 241t242.5 88q138 0 236 -80l-17 -88q-93 86 -219 86q-108 0 -182 -64.5t-96 -178.5l-46 -230h424z" />
    <glyph glyph-name="g" unicode="g" horiz-adv-x="1312" 
d="M969 -27q-45 -236 -189.5 -366.5t-373.5 -130.5q-113 0 -221 37t-177 112l19 94q68 -80 170 -118.5t209 -38.5q195 0 315 108t158 299l49 258q-76 -111 -192 -176t-253 -65q-193 0 -309.5 122.5t-116.5 319.5q0 116 43 223t116.5 186.5t178.5 127t223 47.5
q157 0 263.5 -82.5t140.5 -222.5l55 288h90zM621 926q-132 0 -241 -68t-169.5 -181t-60.5 -245q0 -165 97 -264.5t263 -99.5q134 0 243 67.5t168.5 178.5t59.5 241q0 168 -98 269.5t-262 101.5z" />
    <glyph glyph-name="h" unicode="h" horiz-adv-x="1234" 
d="M688 926q-161 0 -289.5 -114.5t-171.5 -293.5l-100 -518h-88l299 1536h88l-158 -807q74 131 190 207t257 76q181 0 267 -124.5t46 -330.5l-108 -557h-89l107 543q34 181 -33 282t-217 101z" />
    <glyph glyph-name="i" unicode="i" horiz-adv-x="466" 
d="M264 1298q0 31 22 52.5t54 21.5q29 0 47.5 -18t18.5 -47q0 -32 -22 -53t-54 -21q-29 0 -47.5 18t-18.5 47zM39 0l192 995h91l-195 -995h-88z" />
    <glyph glyph-name="j" unicode="j" horiz-adv-x="466" 
d="M330 1233q-29 0 -47.5 18t-18.5 47q0 31 22 52.5t54 21.5q29 0 47.5 -18t18.5 -47q0 -32 -22 -53t-54 -21zM-217 -526q-105 0 -186 59l16 76q80 -55 166 -55q78 0 136.5 54t80.5 165l235 1222h91l-238 -1218q-31 -155 -109 -229t-192 -74z" />
    <glyph glyph-name="k" unicode="k" horiz-adv-x="997" 
d="M723 0l-313 545l-211 -172l-72 -373h-88l299 1536h88l-203 -1040l619 499h116l-481 -393l346 -602h-100z" />
    <glyph glyph-name="l" unicode="l" horiz-adv-x="464" 
d="M39 0l299 1536h88l-299 -1536h-88z" />
    <glyph glyph-name="m" unicode="m" horiz-adv-x="1904" 
d="M223 498l-96 -498h-88l192 995h88l-47 -247q67 124 170 194t234 70q126 0 205 -71.5t96 -199.5q68 126 177 198.5t247 72.5q174 0 256 -123.5t41 -331.5l-111 -557h-88l107 543q35 181 -27.5 282t-208.5 101q-144 0 -252.5 -101.5t-148.5 -265.5l-111 -559h-90l106 543
q34 177 -27 280t-206 103q-156 0 -269.5 -121t-148.5 -307z" />
    <glyph glyph-name="n" unicode="n" horiz-adv-x="1236" 
d="M225 498l-96 -498h-90l194 995h89l-52 -264q74 131 190 206t257 75q181 0 267 -124.5t46 -330.5l-108 -557h-91l107 543q35 181 -32 282t-218 101q-165 0 -295 -120.5t-168 -307.5z" />
    <glyph glyph-name="o" unicode="o" horiz-adv-x="1257" 
d="M57 432q0 155 74.5 288t208 212.5t295.5 79.5q206 0 332.5 -126t126.5 -325q0 -155 -75 -287t-209 -210t-296 -78q-206 0 -331.5 123t-125.5 323zM999 559q0 162 -99 264.5t-267 102.5q-137 0 -248.5 -68t-173 -180t-61.5 -242q0 -164 99.5 -266t266.5 -102
q137 0 248.5 68.5t173 180.5t61.5 242z" />
    <glyph glyph-name="p" unicode="p" horiz-adv-x="1312" 
d="M584 -14q-157 0 -263 83t-139 224l-155 -805h-86l290 1507h88l-45 -235q76 116 193 184t256 68q191 0 308.5 -127t117.5 -324q0 -155 -74 -287t-204.5 -210t-286.5 -78zM696 926q-134 0 -243.5 -68.5t-169.5 -180.5t-60 -241q0 -163 98 -265.5t263 -102.5q133 0 242.5 68
t170 180t60.5 241q0 163 -97 266t-264 103z" />
    <glyph glyph-name="q" unicode="q" horiz-adv-x="1312" 
d="M1167 995l-293 -1507h-88l144 741q-74 -112 -191 -177.5t-256 -65.5q-193 0 -309.5 122.5t-116.5 319.5q0 116 43 223t116.5 186.5t178.5 127t223 47.5q159 0 265 -82.5t139 -224.5l57 290h88zM621 926q-132 0 -241 -68t-169.5 -181t-60.5 -245q0 -165 97 -264.5
t263 -99.5q134 0 243.5 67.5t169.5 178.5t60 241q0 168 -99 269.5t-263 101.5z" />
    <glyph glyph-name="r" unicode="r" horiz-adv-x="675" 
d="M688 911q-95 5 -192 -44.5t-173.5 -151t-101.5 -232.5l-94 -483h-88l192 995h88l-51 -268q80 133 196.5 209t244.5 76z" />
    <glyph glyph-name="s" unicode="s" horiz-adv-x="913" 
d="M0 207q66 -76 156.5 -112t189.5 -36q117 0 199 49.5t82 145.5q0 60 -34 100.5t-101 69.5l-189 82q-176 78 -176 233q0 125 98.5 199t243.5 74q177 0 309 -117l-18 -90q-121 133 -295 133q-107 0 -178.5 -51.5t-71.5 -138.5q0 -110 137 -168l185 -80q178 -79 178 -234
q0 -131 -108 -205.5t-269 -74.5q-106 0 -200.5 33t-155.5 98z" />
    <glyph glyph-name="t" unicode="t" horiz-adv-x="778" 
d="M612 55q-113 -69 -258 -69q-159 0 -229 88.5t-35 253.5l195 1003h88l-66 -336h461l-14 -82h-461l-117 -600q-23 -121 30.5 -184t164.5 -63q135 0 260 79z" />
    <glyph glyph-name="u" unicode="u" 
d="M866 428l109 567h90l-109 -565q-42 -214 -173 -329t-322 -115q-202 0 -305 121t-64 323l109 565h88l-109 -569q-32 -167 49 -262.5t240 -95.5q153 0 258 95.5t139 264.5z" />
    <glyph glyph-name="v" unicode="v" horiz-adv-x="1050" 
d="M1061 995l-690 -1022l-295 1022h94l236 -839l555 839h100z" />
    <glyph glyph-name="w" unicode="w" horiz-adv-x="1699" 
d="M1706 995l-629 -1022l-207 861l-551 -861l-237 1022h96l182 -821l541 848l207 -842l496 815h102z" />
    <glyph glyph-name="x" unicode="x" horiz-adv-x="1013" 
d="M725 0l-281 451l-444 -451h-111l510 520l-295 475h103l258 -415l401 415h107l-465 -483l317 -512h-100z" />
    <glyph glyph-name="y" unicode="y" horiz-adv-x="1030" 
d="M1040 995l-1026 -1507h-98l444 653l-288 854h96l252 -766l520 766h100z" />
    <glyph glyph-name="z" unicode="z" horiz-adv-x="933" 
d="M750 82l-17 -82h-835l817 913h-617l17 82h776l-815 -913h674z" />
    <glyph glyph-name="braceleft" unicode="{" horiz-adv-x="811" 
d="M504 -326h-121q-108 0 -169.5 75.5t-39.5 187.5l90 466q15 84 -22 144.5t-117 66.5l14 78q80 5 139 53.5t76 126.5l97 490q25 123 103.5 189.5t195.5 66.5h133l-17 -84h-131q-80 0 -131.5 -49t-66.5 -135l-93 -467q-18 -93 -73 -155t-146 -79q80 -24 111.5 -96t13.5 -164
l-86 -444q-15 -84 21 -136.5t116 -52.5h119z" />
    <glyph glyph-name="bar" unicode="|" horiz-adv-x="446" 
d="M-12 -676h-88l458 2376h88z" />
    <glyph glyph-name="braceright" unicode="}" horiz-adv-x="811" 
d="M258 1618h121q110 0 170.5 -75.5t38.5 -188.5l-90 -467q-15 -86 22.5 -145.5t118.5 -65.5l-14 -78q-82 -5 -141 -54t-74 -128l-99 -488q-25 -121 -103 -187.5t-194 -66.5h-133l17 82h131q78 0 129 50t69 135l90 465q18 94 74 156.5t146 76.5q-80 25 -111.5 97.5
t-13.5 164.5l86 447q17 83 -20 134.5t-118 51.5h-118z" />
    <glyph glyph-name="asciitilde" unicode="~" horiz-adv-x="1087" 
d="M354 877q47 0 100 -16.5t93.5 -37t95.5 -37t105 -16.5q127 0 253 107l-18 -97q-113 -96 -246 -96q-53 0 -109.5 16.5t-96.5 37t-91.5 37t-95.5 16.5q-119 0 -254 -111l19 94q128 103 245 103z" />
    <glyph glyph-name="uni00A0" unicode="&#xa0;" horiz-adv-x="491" 
 />
    <glyph glyph-name="exclamdown" unicode="&#xa1;" horiz-adv-x="573" 
d="M324 1016q32 0 52.5 -21.5t20.5 -54.5q0 -34 -24.5 -57t-59.5 -23q-32 0 -52.5 21.5t-20.5 52.5q0 36 24.5 59t59.5 23zM84 -512h-94l76 408l143 671h74l-119 -671z" />
    <glyph glyph-name="cent" unicode="&#xa2;" horiz-adv-x="1064" 
d="M844 88q-143 -93 -320 -102l-45 -230h-88l47 234q-175 19 -278 138t-103 302q0 112 40.5 216t111.5 182.5t172 128t217 55.5l45 225h88l-43 -227q176 -19 291 -131l-21 -95q-130 142 -329 142q-137 0 -248 -68.5t-171 -179.5t-60 -240q0 -165 97.5 -266.5t264.5 -101.5
q188 0 352 116z" />
    <glyph glyph-name="sterling" unicode="&#xa3;" horiz-adv-x="1155" 
d="M973 82l-17 -82h-1015l16 82h143l111 571h-145l16 82h145l64 332q42 217 190.5 350t362.5 133q184 0 330 -94l-19 -88q-130 98 -313 98q-174 0 -300 -106.5t-161 -288.5l-66 -336h562l-17 -82h-561l-111 -571h785z" />
    <glyph glyph-name="currency" unicode="&#xa4;" horiz-adv-x="1212" 
d="M1018 403l-57 -57l-119 119q-96 -74 -234 -74q-137 0 -237 78l-123 -123l-58 55l123 123q-77 99 -77 238q0 138 75 231l-121 119l58 57l121 -118q98 79 239 79t238 -75l115 114l57 -57l-115 -113q80 -99 80 -237q0 -141 -82 -242zM324 762q0 -126 80 -207.5t204 -81.5
t204.5 81.5t80.5 207.5q0 125 -80.5 206t-204.5 81t-204 -81t-80 -206z" />
    <glyph glyph-name="yen" unicode="&#xa5;" horiz-adv-x="1390" 
d="M1241 526h-543l-102 -526h-92l102 526h-545l17 82h534l-110 266h-373l16 82h324l-240 580h101l346 -854l674 854h110l-463 -580h330l-16 -82h-379l-213 -266h538z" />
    <glyph glyph-name="brokenbar" unicode="&#xa6;" horiz-adv-x="446" 
d="M252 696h-88l194 1004h88zM-12 -676h-88l192 1004h88z" />
    <glyph glyph-name="section" unicode="&#xa7;" horiz-adv-x="1220" 
d="M864 -131q0 -182 -134 -289.5t-337 -107.5q-242 0 -416 149l23 98q79 -81 182 -123t217 -42q164 0 268.5 81t104.5 226q0 91 -43 155.5t-141 114.5l-309 162q-220 112 -220 301q0 124 85 208t216 95q-108 99 -108 256q0 123 63.5 214t170 137t239.5 46q245 0 416 -149
l-23 -98q-78 82 -182 124.5t-217 42.5q-164 0 -268.5 -81.5t-104.5 -227.5q0 -91 43 -155.5t141 -114.5l310 -162q219 -112 219 -301q0 -68 -27.5 -125.5t-72 -94t-97 -57.5t-106.5 -24q108 -102 108 -258zM336 360l348 -176q125 3 206 60.5t81 171.5q0 151 -191 246
l-331 169q-24 3 -48 3q-108 0 -181 -66.5t-73 -163.5q0 -150 189 -244z" />
    <glyph glyph-name="dieresis" unicode="&#xa8;" horiz-adv-x="882" 
d="M342 1237q-27 0 -44 17t-17 44q0 32 20 52t51 20q29 0 46.5 -18t17.5 -45q0 -32 -21 -51t-53 -19zM737 1237q-28 0 -45.5 17.5t-17.5 43.5q0 32 21.5 52t52.5 20q27 0 44 -18t17 -45q0 -32 -20.5 -51t-51.5 -19z" />
    <glyph glyph-name="copyright" unicode="&#xa9;" horiz-adv-x="1787" 
d="M891 -14q-169 0 -314.5 57.5t-248 160t-161 247.5t-58.5 315t58 316t160.5 248.5t248 161t315.5 58.5t316 -58.5t249.5 -161t162 -248.5t58.5 -316q0 -227 -100.5 -405.5t-279.5 -276.5t-406 -98zM891 59q204 0 364.5 90t250 251.5t89.5 365.5t-89 365.5t-250 252.5
t-365 91q-203 0 -364 -91t-250 -252.5t-89 -365.5t89 -365t250 -251.5t364 -90.5zM920 305q-202 0 -327.5 133t-125.5 336t127.5 334t329.5 131q143 0 276 -84v-84q-126 90 -272 90q-166 0 -271.5 -109t-105.5 -276q0 -172 103.5 -283.5t269.5 -111.5q152 0 272 88v-84
q-124 -80 -276 -80z" />
    <glyph glyph-name="ordfeminine" unicode="&#xaa;" horiz-adv-x="946" 
d="M766 827l29 148q-54 -74 -134.5 -118t-173.5 -44q-138 0 -224.5 91.5t-86.5 238.5q0 172 114 289.5t281 117.5q115 0 190.5 -57.5t102.5 -153.5l39 197h70l-137 -709h-70zM252 1147q0 -113 69 -188.5t185 -75.5q132 0 226.5 97t94.5 243q0 114 -70 186t-186 72
q-137 0 -228 -99.5t-91 -234.5zM92 596l12 70h682l-14 -70h-680z" />
    <glyph glyph-name="guillemotleft" unicode="&#xab;" horiz-adv-x="966" 
d="M879 934l-375 -397l233 -398h-94l-233 402l368 393h101zM510 934l-375 -397l234 -398h-95l-233 402l369 393h100z" />
    <glyph glyph-name="logicalnot" unicode="&#xac;" horiz-adv-x="1087" 
d="M1030 1028l-94 -479h-82l76 397h-789l17 82h872z" />
    <glyph glyph-name="uni00AD" unicode="&#xad;" horiz-adv-x="0" 
 />
    <glyph glyph-name="registered" unicode="&#xae;" horiz-adv-x="1787" 
d="M891 -14q-169 0 -314.5 57.5t-248 160t-161 247.5t-58.5 315t58 316t160.5 248.5t248 161t315.5 58.5t316 -58.5t249.5 -161t162 -248.5t58.5 -316q0 -227 -100.5 -405.5t-279.5 -276.5t-406 -98zM891 59q204 0 364.5 90t250 251.5t89.5 365.5t-89 365.5t-250 252.5
t-365 91q-203 0 -364 -91t-250 -252.5t-89 -365.5t89 -365t250 -251.5t364 -90.5zM610 309v920h342q125 0 206 -79.5t81 -203.5q0 -104 -58 -177t-155 -97l227 -363h-98l-213 355h-250v-355h-82zM948 1157h-256v-420h252q92 0 150.5 57.5t58.5 151.5q0 95 -57 153t-148 58z
" />
    <glyph glyph-name="macron" unicode="&#xaf;" horiz-adv-x="882" 
d="M264 1350h578l-15 -76h-577z" />
    <glyph glyph-name="degree" unicode="&#xb0;" horiz-adv-x="851" 
d="M543 1550q143 0 232 -89.5t89 -227.5q0 -159 -114 -269t-273 -110q-144 0 -232.5 91t-88.5 229q0 158 113.5 267t273.5 109zM233 1178q0 -108 68.5 -180t181.5 -72q127 0 216 89.5t89 215.5q0 108 -67 178t-180 70q-128 0 -218 -88.5t-90 -212.5z" />
    <glyph glyph-name="plusminus" unicode="&#xb1;" horiz-adv-x="1087" 
d="M1006 903h-394l-65 -342h-84l65 342h-395l17 82h395l65 342h84l-65 -342h393zM27 358l16 82h872l-14 -82h-874z" />
    <glyph glyph-name="twosuperior" unicode="&#xb2;" horiz-adv-x="761" 
d="M686 672l-14 -68h-692l458 406q106 90 142 130q79 90 79 179q0 76 -48.5 120t-133.5 44q-145 0 -315 -125l16 82q150 110 307 110q113 0 182.5 -60t69.5 -161q0 -50 -17.5 -97.5t-51.5 -90t-62 -70.5t-70 -66q-12 -11 -18 -16l-358 -317h526z" />
    <glyph glyph-name="threesuperior" unicode="&#xb3;" horiz-adv-x="813" 
d="M717 879q0 -89 -51.5 -155.5t-133.5 -99t-180 -32.5q-158 0 -297 88l15 76q134 -97 284 -97q121 0 202 60t81 160q0 88 -66 136t-170 48q-43 0 -108 -10l14 65l105 19q263 45 266 204q1 69 -46 106.5t-126 37.5q-74 0 -153 -33t-148 -88l16 80q62 50 140.5 78t154.5 28
q106 0 173 -52t67 -146q0 -93 -67.5 -156.5t-174.5 -93.5q91 -20 147 -77.5t56 -145.5z" />
    <glyph glyph-name="acute" unicode="&#xb4;" horiz-adv-x="882" 
d="M721 1454h117l-297 -291h-86z" />
    <glyph glyph-name="paragraph" unicode="&#xb6;" horiz-adv-x="1073" 
d="M741 1536l-299 -1536h-88l158 813q-143 2 -241.5 91t-98.5 231q0 128 65 220t173.5 136.5t248.5 44.5h82zM682 0l299 1536h53l-299 -1536h-53z" />
    <glyph glyph-name="periodcentered" unicode="&#xb7;" horiz-adv-x="882" 
d="M449 760q-31 0 -49.5 18t-18.5 47q0 31 22 52.5t54 21.5q29 0 47 -19t18 -49q0 -32 -21 -51.5t-52 -19.5z" />
    <glyph glyph-name="cedilla" unicode="&#xb8;" horiz-adv-x="882" 
d="M406 -309q0 -83 -66.5 -128.5t-161.5 -45.5q-70 0 -139 37l10 57q61 -39 129 -39q66 0 111 31t45 88q0 43 -28.5 70.5t-72.5 27.5q-43 0 -71 -12l-19 24l129 211h72l-111 -174h15q69 0 113.5 -40.5t44.5 -106.5z" />
    <glyph glyph-name="onesuperior" unicode="&#xb9;" horiz-adv-x="512" 
d="M223 602l166 846l-256 -115l14 74l340 152l-188 -957h-76z" />
    <glyph glyph-name="ordmasculine" unicode="&#xba;" horiz-adv-x="933" 
d="M918 1217q0 -167 -118.5 -285.5t-287.5 -118.5q-150 0 -243 93.5t-93 240.5q0 168 117.5 285.5t288.5 117.5q151 0 243.5 -93.5t92.5 -239.5zM844 1217q0 117 -72.5 191.5t-191.5 74.5q-141 0 -234.5 -100t-93.5 -234q0 -116 72 -191t190 -75q139 0 234.5 98.5
t95.5 235.5zM94 596l12 70h680l-12 -70h-680z" />
    <glyph glyph-name="guillemotright" unicode="&#xbb;" horiz-adv-x="966" 
d="M465 530l-369 -391h-100l373 400l-232 395h92zM834 530l-369 -391h-103l375 400l-231 395h92z" />
    <glyph glyph-name="onequarter" unicode="&#xbc;" horiz-adv-x="2111" 
d="M397 602l166 846l-256 -115l15 74l340 152l-189 -957h-76zM326 0h-101l1450 1536h101zM1864 207h-148l-41 -209h-76l41 209h-557l514 727h84l-462 -660h436l69 355h76l-69 -355h145z" />
    <glyph glyph-name="onehalf" unicode="&#xbd;" horiz-adv-x="2111" 
d="M350 602l166 846l-256 -115l14 74l340 152l-188 -957h-76zM293 0h-100l1449 1536h101zM1858 70l-15 -68h-692l459 406q106 90 142 130q79 90 79 179q0 76 -48.5 120t-133.5 44q-146 0 -316 -125l17 82q150 110 307 110q113 0 182.5 -60t69.5 -161q0 -50 -17.5 -97.5
t-51.5 -90t-62 -70.5t-70 -66q-12 -11 -18 -16l-359 -317h527z" />
    <glyph glyph-name="threequarters" unicode="&#xbe;" horiz-adv-x="2111" 
d="M760 879q0 -89 -51.5 -155.5t-133.5 -99t-180 -32.5q-158 0 -297 88l15 76q134 -97 284 -97q121 0 202 60t81 160q0 88 -66 136t-170 48q-43 0 -108 -10l14 65l105 19q263 45 266 204q1 69 -46 106.5t-126 37.5q-74 0 -153 -33t-148 -88l16 80q62 50 140.5 78t154.5 28
q106 0 173 -52t67 -146q0 -93 -67.5 -156.5t-174.5 -93.5q91 -20 147 -77.5t56 -145.5zM393 0h-100l1450 1536h100zM1913 207h-148l-41 -209h-75l41 209h-557l514 727h84l-463 -660h436l70 355h75l-69 -355h145z" />
    <glyph glyph-name="questiondown" unicode="&#xbf;" horiz-adv-x="1130" 
d="M657 1012q33 0 54.5 -21.5t21.5 -54.5q0 -35 -24.5 -57.5t-59.5 -22.5q-33 0 -54.5 21.5t-21.5 52.5q0 36 24.5 59t59.5 23zM879 -125q-39 -195 -192 -312.5t-351 -117.5q-178 0 -293 95t-115 255q0 83 33.5 153t95 123t129 90.5t154.5 71.5l143 58l60 276h80l-60 -334
l-196 -73q-161 -61 -254 -146t-93 -211q0 -127 89.5 -201.5t228.5 -74.5q161 0 290.5 95.5t162.5 252.5h88z" />
    <glyph glyph-name="Agrave" unicode="&#xc0;" horiz-adv-x="1470" 
d="M680 1937h113l184 -290h-80zM1196 0l-106 426h-832l-272 -426h-107l1014 1563l401 -1563h-98zM311 508h758l-213 850z" />
    <glyph glyph-name="Aacute" unicode="&#xc1;" horiz-adv-x="1470" 
d="M1081 1937h117l-297 -290h-86zM1196 0l-106 426h-832l-272 -426h-107l1014 1563l401 -1563h-98zM311 508h758l-213 850z" />
    <glyph glyph-name="Acircumflex" unicode="&#xc2;" horiz-adv-x="1470" 
d="M1118 1647l-162 229l-249 -229h-95l299 290h103l198 -290h-94zM1196 0l-106 426h-832l-272 -426h-107l1014 1563l401 -1563h-98zM311 508h758l-213 850z" />
    <glyph glyph-name="Atilde" unicode="&#xc3;" horiz-adv-x="1470" 
d="M1061 1722q-39 0 -84.5 26t-88 51.5t-73.5 25.5q-45 0 -75.5 -27.5t-39.5 -77.5h-63q28 183 174 183q31 0 67.5 -16t64.5 -35.5t61 -35.5t57 -16q45 0 74.5 27t38.5 76h61q-12 -89 -57 -135t-117 -46zM1196 0l-106 426h-832l-272 -426h-107l1014 1563l401 -1563h-98z
M311 508h758l-213 850z" />
    <glyph glyph-name="Adieresis" unicode="&#xc4;" horiz-adv-x="1470" 
d="M729 1749q-27 0 -44 17t-17 44q0 32 20 52t51 20q29 0 46.5 -18t17.5 -45q0 -32 -21 -51t-53 -19zM1124 1749q-28 0 -45.5 17.5t-17.5 43.5q0 32 21.5 52t52.5 20q27 0 44 -18t17 -45q0 -32 -20.5 -51t-51.5 -19zM1196 0l-106 426h-832l-272 -426h-107l1014 1563
l401 -1563h-98zM311 508h758l-213 850z" />
    <glyph glyph-name="Aring" unicode="&#xc5;" horiz-adv-x="1470" 
d="M258 426l-272 -426h-107l995 1534q-63 6 -103 49.5t-40 106.5q0 83 54 135.5t135 52.5q71 0 119 -44.5t48 -111.5q0 -84 -54.5 -137t-131.5 -53l393 -1532h-98l-106 426h-832zM786 1694q0 -47 32.5 -78t80.5 -31q58 0 95.5 37t37.5 94q0 48 -31.5 79.5t-80.5 31.5
q-57 0 -95.5 -37.5t-38.5 -95.5zM311 508h758l-213 850z" />
    <glyph glyph-name="AE" unicode="&#xc6;" horiz-adv-x="2029" 
d="M940 0l84 434h-649l-383 -434h-113l1358 1536h872l-16 -86h-778l-123 -633h692l-16 -84h-694l-125 -649h800l-16 -84h-893zM446 516h594l170 864z" />
    <glyph glyph-name="Ccedilla" unicode="&#xc7;" horiz-adv-x="1449" 
d="M848 -309q0 -83 -66.5 -128.5t-160.5 -45.5q-71 0 -140 37l11 57q61 -39 129 -39q66 0 110.5 31t44.5 88q0 43 -28 70.5t-72 27.5t-72 -12l-18 24l114 187q-279 22 -444.5 206t-165.5 470q0 178 68 341t185 283t283.5 191t354.5 71q315 0 502 -184l-23 -102
q-90 102 -216 151t-269 49q-168 0 -316 -64.5t-251 -173.5t-162.5 -254.5t-59.5 -303.5q0 -267 159.5 -432.5t428.5 -165.5q283 0 520 188l-22 -113q-232 -159 -502 -159l-94 -148h14q69 0 113.5 -40.5t44.5 -106.5z" />
    <glyph glyph-name="Egrave" unicode="&#xc8;" horiz-adv-x="1126" 
d="M616 1937h113l184 -290h-79zM39 0l299 1536h870l-16 -86h-778l-123 -633h692l-18 -84h-691l-127 -649h801l-16 -84h-893z" />
    <glyph glyph-name="Eacute" unicode="&#xc9;" horiz-adv-x="1126" 
d="M950 1937h117l-297 -290h-86zM39 0l299 1536h870l-16 -86h-778l-123 -633h692l-18 -84h-691l-127 -649h801l-16 -84h-893z" />
    <glyph glyph-name="Ecircumflex" unicode="&#xca;" horiz-adv-x="1126" 
d="M997 1647l-161 229l-250 -229h-94l299 290h102l199 -290h-95zM39 0l299 1536h870l-16 -86h-778l-123 -633h692l-18 -84h-691l-127 -649h801l-16 -84h-893z" />
    <glyph glyph-name="Edieresis" unicode="&#xcb;" horiz-adv-x="1126" 
d="M616 1735q-27 0 -44 17t-17 44q0 32 20.5 52t51.5 20q28 0 45.5 -18.5t17.5 -45.5q0 -31 -21 -50t-53 -19zM1012 1735q-28 0 -46 17.5t-18 43.5q0 32 21.5 52t52.5 20q27 0 44 -18.5t17 -45.5q0 -32 -20 -50.5t-51 -18.5zM39 0l299 1536h870l-16 -86h-778l-123 -633h692
l-18 -84h-691l-127 -649h801l-16 -84h-893z" />
    <glyph glyph-name="Igrave" unicode="&#xcc;" horiz-adv-x="468" 
d="M172 1937h113l184 -290h-80zM39 0l299 1536h92l-299 -1536h-92z" />
    <glyph glyph-name="Iacute" unicode="&#xcd;" horiz-adv-x="468" 
d="M588 1937h117l-297 -290h-86zM39 0l299 1536h92l-299 -1536h-92z" />
    <glyph glyph-name="Icircumflex" unicode="&#xce;" horiz-adv-x="468" 
d="M621 1647l-162 229l-250 -229h-94l299 290h102l199 -290h-94zM39 0l299 1536h92l-299 -1536h-92z" />
    <glyph glyph-name="Idieresis" unicode="&#xcf;" horiz-adv-x="468" 
d="M238 1735q-28 0 -45 17.5t-17 43.5q0 32 20.5 52t51.5 20q28 0 45.5 -18.5t17.5 -45.5q0 -32 -20.5 -50.5t-52.5 -18.5zM633 1735q-28 0 -46 17.5t-18 43.5q0 32 21.5 52t52.5 20q27 0 44.5 -18.5t17.5 -45.5q0 -32 -20.5 -50.5t-51.5 -18.5zM39 0l299 1536h92
l-299 -1536h-92z" />
    <glyph glyph-name="Eth" unicode="&#xd0;" horiz-adv-x="1626" 
d="M31 817h194l140 719h460q160 0 292.5 -50.5t223 -140.5t140 -217t49.5 -278q0 -180 -70 -338t-191 -270t-291 -177t-364 -65h-548l143 733h-195zM831 733h-530l-127 -649h440q175 0 328 58t260.5 159t169.5 242.5t62 302.5q0 268 -162.5 436t-442.5 168h-389l-123 -633
h531z" />
    <glyph glyph-name="Ntilde" unicode="&#xd1;" horiz-adv-x="1638" 
d="M1141 1722q-39 0 -84.5 26t-88 51.5t-73.5 25.5q-45 0 -75.5 -27.5t-39.5 -77.5h-63q28 183 174 183q31 0 67.5 -16t64.5 -35.5t61 -35.5t57 -16q44 0 73.5 27t38.5 76h62q-12 -89 -57 -135t-117 -46zM1294 -27l-905 1360l-258 -1333h-92l303 1563l905 -1366l260 1339h92
z" />
    <glyph glyph-name="Ograve" unicode="&#xd2;" horiz-adv-x="1757" 
d="M834 1937h112l184 -290h-79zM1665 866q0 -175 -68.5 -336.5t-185 -281t-281 -191t-346.5 -71.5q-309 0 -500.5 190t-191.5 492q0 176 68.5 338.5t185.5 282t281 190.5t346 71q204 0 362 -87.5t244 -243t86 -353.5zM791 70q163 0 308.5 64.5t248.5 172.5t163 252.5
t60 300.5q0 267 -167 435.5t-437 168.5q-215 0 -396 -110t-283 -291.5t-102 -388.5q0 -267 167.5 -435.5t437.5 -168.5z" />
    <glyph glyph-name="Oacute" unicode="&#xd3;" horiz-adv-x="1757" 
d="M1198 1937h117l-297 -290h-86zM1665 866q0 -175 -68.5 -336.5t-185 -281t-281 -191t-346.5 -71.5q-309 0 -500.5 190t-191.5 492q0 176 68.5 338.5t185.5 282t281 190.5t346 71q204 0 362 -87.5t244 -243t86 -353.5zM791 70q163 0 308.5 64.5t248.5 172.5t163 252.5
t60 300.5q0 267 -167 435.5t-437 168.5q-215 0 -396 -110t-283 -291.5t-102 -388.5q0 -267 167.5 -435.5t437.5 -168.5z" />
    <glyph glyph-name="Ocircumflex" unicode="&#xd4;" horiz-adv-x="1757" 
d="M1253 1647l-161 229l-250 -229h-94l299 290h102l199 -290h-95zM1665 866q0 -175 -68.5 -336.5t-185 -281t-281 -191t-346.5 -71.5q-309 0 -500.5 190t-191.5 492q0 176 68.5 338.5t185.5 282t281 190.5t346 71q204 0 362 -87.5t244 -243t86 -353.5zM791 70
q163 0 308.5 64.5t248.5 172.5t163 252.5t60 300.5q0 267 -167 435.5t-437 168.5q-215 0 -396 -110t-283 -291.5t-102 -388.5q0 -267 167.5 -435.5t437.5 -168.5z" />
    <glyph glyph-name="Otilde" unicode="&#xd5;" horiz-adv-x="1757" 
d="M1192 1722q-39 0 -84.5 26t-88 51.5t-73.5 25.5q-45 0 -75.5 -27.5t-39.5 -77.5h-63q28 183 174 183q31 0 67.5 -16t64.5 -35.5t61 -35.5t57 -16q45 0 74.5 27t38.5 76h61q-12 -89 -57 -135t-117 -46zM1665 866q0 -175 -68.5 -336.5t-185 -281t-281 -191t-346.5 -71.5
q-309 0 -500.5 190t-191.5 492q0 176 68.5 338.5t185.5 282t281 190.5t346 71q204 0 362 -87.5t244 -243t86 -353.5zM791 70q163 0 308.5 64.5t248.5 172.5t163 252.5t60 300.5q0 267 -167 435.5t-437 168.5q-215 0 -396 -110t-283 -291.5t-102 -388.5q0 -267 167.5 -435.5
t437.5 -168.5z" />
    <glyph glyph-name="Odieresis" unicode="&#xd6;" horiz-adv-x="1757" 
d="M874 1735q-27 0 -44 17t-17 44q0 32 20.5 52t51.5 20q28 0 45.5 -18.5t17.5 -45.5q0 -31 -21 -50t-53 -19zM1270 1735q-28 0 -46 17.5t-18 43.5q0 32 21.5 52t52.5 20q27 0 44 -18.5t17 -45.5q0 -32 -20 -50.5t-51 -18.5zM1665 866q0 -175 -68.5 -336.5t-185 -281
t-281 -191t-346.5 -71.5q-309 0 -500.5 190t-191.5 492q0 176 68.5 338.5t185.5 282t281 190.5t346 71q204 0 362 -87.5t244 -243t86 -353.5zM791 70q163 0 308.5 64.5t248.5 172.5t163 252.5t60 300.5q0 267 -167 435.5t-437 168.5q-215 0 -396 -110t-283 -291.5
t-102 -388.5q0 -267 167.5 -435.5t437.5 -168.5z" />
    <glyph glyph-name="multiply" unicode="&#xd7;" horiz-adv-x="1087" 
d="M801 397l-262 326l-389 -328l-52 60l391 327l-256 320l62 53l258 -319l387 323l49 -59l-387 -326l260 -323z" />
    <glyph glyph-name="Oslash" unicode="&#xd8;" horiz-adv-x="1779" 
d="M1675 866q0 -234 -115.5 -436t-319 -323t-445.5 -121q-166 0 -303.5 59t-231.5 166l-258 -211h-115l330 268q-115 172 -115 400q0 176 68.5 338.5t185.5 282t281 190.5t346 71q165 0 300.5 -57.5t227.5 -163.5l254 207h115l-324 -264q119 -174 119 -406zM197 674
q0 -196 94 -344l1149 940q-80 93 -199 143.5t-264 50.5q-162 0 -308 -65t-248.5 -173t-163 -252.5t-60.5 -299.5zM1581 860q0 201 -98 350l-1149 -940q81 -95 200.5 -147.5t266.5 -52.5q163 0 308.5 64.5t248.5 172.5t163 252.5t60 300.5z" />
    <glyph glyph-name="Ugrave" unicode="&#xd9;" horiz-adv-x="1538" 
d="M723 1937h113l184 -290h-80zM133 639l176 897h92l-176 -899q-49 -248 74 -407.5t363 -159.5q234 0 392 154.5t206 412.5l176 899h90l-172 -899q-58 -301 -239.5 -476t-457.5 -175q-188 0 -320.5 83t-186.5 232t-17 338z" />
    <glyph glyph-name="Uacute" unicode="&#xda;" horiz-adv-x="1538" 
d="M1092 1937h116l-297 -290h-86zM133 639l176 897h92l-176 -899q-49 -248 74 -407.5t363 -159.5q234 0 392 154.5t206 412.5l176 899h90l-172 -899q-58 -301 -239.5 -476t-457.5 -175q-188 0 -320.5 83t-186.5 232t-17 338z" />
    <glyph glyph-name="Ucircumflex" unicode="&#xdb;" horiz-adv-x="1538" 
d="M1149 1647l-162 229l-250 -229h-94l299 290h102l199 -290h-94zM133 639l176 897h92l-176 -899q-49 -248 74 -407.5t363 -159.5q234 0 392 154.5t206 412.5l176 899h90l-172 -899q-58 -301 -239.5 -476t-457.5 -175q-188 0 -320.5 83t-186.5 232t-17 338z" />
    <glyph glyph-name="Udieresis" unicode="&#xdc;" horiz-adv-x="1538" 
d="M754 1735q-28 0 -45 17.5t-17 43.5q0 32 20.5 52t51.5 20q28 0 45.5 -18.5t17.5 -45.5q0 -32 -20.5 -50.5t-52.5 -18.5zM1149 1735q-28 0 -46 17.5t-18 43.5q0 32 21.5 52t52.5 20q27 0 44.5 -18.5t17.5 -45.5q0 -32 -20.5 -50.5t-51.5 -18.5zM133 639l176 897h92
l-176 -899q-49 -248 74 -407.5t363 -159.5q234 0 392 154.5t206 412.5l176 899h90l-172 -899q-58 -301 -239.5 -476t-457.5 -175q-188 0 -320.5 83t-186.5 232t-17 338z" />
    <glyph glyph-name="Yacute" unicode="&#xdd;" horiz-adv-x="1271" 
d="M967 1937h116l-297 -290h-86zM1401 1536l-748 -936l-116 -600h-93l115 592l-389 944h100l346 -854l674 854h111z" />
    <glyph glyph-name="Thorn" unicode="&#xde;" horiz-adv-x="1181" 
d="M492 266h-310l-51 -266h-92l299 1536h92l-49 -256h237q227 0 355.5 -118.5t128.5 -321.5q0 -249 -171.5 -411.5t-438.5 -162.5zM616 1196h-251l-166 -844h293q231 0 372.5 135t141.5 344q0 169 -101.5 267t-288.5 98z" />
    <glyph glyph-name="germandbls" unicode="&#xdf;" horiz-adv-x="1241" 
d="M123 0h-88l225 1155q37 195 149 295t269 100q141 0 232 -76.5t91 -199.5q0 -61 -24.5 -119.5t-71.5 -130.5l-67 -104q-26 -41 -36.5 -59.5t-21 -44t-10.5 -42.5q0 -26 15 -49t63 -59l113 -93q131 -103 131 -245q0 -102 -59 -181t-156 -120t-213 -41q-92 0 -180.5 25
t-145.5 75l20 90q54 -54 138 -84.5t170 -30.5q138 0 235.5 73t97.5 188q0 113 -102 188l-131 98q-52 40 -72 73.5t-20 74.5q0 35 17 72.5t59 103.5l65 100q33 50 48.5 76t31.5 69.5t16 82.5q0 94 -66.5 152t-172.5 58q-118 0 -205 -79t-117 -230z" />
    <glyph glyph-name="agrave" unicode="&#xe0;" horiz-adv-x="1310" 
d="M530 1454h113l184 -291h-79zM885 0l45 229q-77 -112 -193.5 -177.5t-253.5 -65.5q-193 0 -309.5 122.5t-116.5 319.5q0 116 43 223t116.5 186.5t178.5 127t223 47.5q157 0 263.5 -82.5t140.5 -224.5l55 290h90l-194 -995h-88zM621 926q-132 0 -241 -68t-169.5 -181
t-60.5 -245q0 -165 97 -264.5t263 -99.5q134 0 243 67.5t168.5 178.5t59.5 241q0 168 -98 269.5t-262 101.5z" />
    <glyph glyph-name="aacute" unicode="&#xe1;" horiz-adv-x="1310" 
d="M913 1454h117l-297 -291h-86zM885 0l45 229q-77 -112 -193.5 -177.5t-253.5 -65.5q-193 0 -309.5 122.5t-116.5 319.5q0 116 43 223t116.5 186.5t178.5 127t223 47.5q157 0 263.5 -82.5t140.5 -224.5l55 290h90l-194 -995h-88zM621 926q-132 0 -241 -68t-169.5 -181
t-60.5 -245q0 -165 97 -264.5t263 -99.5q134 0 243 67.5t168.5 178.5t59.5 241q0 168 -98 269.5t-262 101.5z" />
    <glyph glyph-name="acircumflex" unicode="&#xe2;" horiz-adv-x="1310" 
d="M956 1163l-161 230l-250 -230h-94l299 291h102l199 -291h-95zM885 0l45 229q-77 -112 -193.5 -177.5t-253.5 -65.5q-193 0 -309.5 122.5t-116.5 319.5q0 116 43 223t116.5 186.5t178.5 127t223 47.5q157 0 263.5 -82.5t140.5 -224.5l55 290h90l-194 -995h-88zM621 926
q-132 0 -241 -68t-169.5 -181t-60.5 -245q0 -165 97 -264.5t263 -99.5q134 0 243 67.5t168.5 178.5t59.5 241q0 168 -98 269.5t-262 101.5z" />
    <glyph glyph-name="atilde" unicode="&#xe3;" horiz-adv-x="1310" 
d="M889 1239q-39 0 -84.5 25.5t-88 51t-73.5 25.5q-45 0 -75.5 -27t-39.5 -77h-63q28 182 174 182q48 0 131.5 -51t118.5 -51q45 0 74 26.5t38 75.5h62q-12 -89 -56.5 -134.5t-117.5 -45.5zM885 0l45 229q-77 -112 -193.5 -177.5t-253.5 -65.5q-193 0 -309.5 122.5
t-116.5 319.5q0 116 43 223t116.5 186.5t178.5 127t223 47.5q157 0 263.5 -82.5t140.5 -224.5l55 290h90l-194 -995h-88zM621 926q-132 0 -241 -68t-169.5 -181t-60.5 -245q0 -165 97 -264.5t263 -99.5q134 0 243 67.5t168.5 178.5t59.5 241q0 168 -98 269.5t-262 101.5z
" />
    <glyph glyph-name="adieresis" unicode="&#xe4;" horiz-adv-x="1310" 
d="M569 1237q-27 0 -44 17t-17 44q0 32 20.5 52t51.5 20q29 0 46 -18t17 -45q0 -32 -21 -51t-53 -19zM965 1237q-28 0 -46 17.5t-18 43.5q0 32 21.5 52t52.5 20q27 0 44 -18t17 -45q0 -32 -20 -51t-51 -19zM885 0l45 229q-77 -112 -193.5 -177.5t-253.5 -65.5
q-193 0 -309.5 122.5t-116.5 319.5q0 116 43 223t116.5 186.5t178.5 127t223 47.5q157 0 263.5 -82.5t140.5 -224.5l55 290h90l-194 -995h-88zM621 926q-132 0 -241 -68t-169.5 -181t-60.5 -245q0 -165 97 -264.5t263 -99.5q134 0 243 67.5t168.5 178.5t59.5 241
q0 168 -98 269.5t-262 101.5z" />
    <glyph glyph-name="aring" unicode="&#xe5;" horiz-adv-x="1310" 
d="M768 1497q71 0 119.5 -44.5t48.5 -111.5q0 -84 -55.5 -137t-135.5 -53q-71 0 -118 44.5t-47 113.5q0 84 53.5 136t134.5 52zM635 1313q0 -47 32.5 -78t80.5 -31q58 0 95.5 37t37.5 94q0 48 -32 79.5t-81 31.5q-57 0 -95 -37.5t-38 -95.5zM885 0l45 229
q-77 -112 -193.5 -177.5t-253.5 -65.5q-193 0 -309.5 122.5t-116.5 319.5q0 116 43 223t116.5 186.5t178.5 127t223 47.5q157 0 263.5 -82.5t140.5 -224.5l55 290h90l-194 -995h-88zM621 926q-132 0 -241 -68t-169.5 -181t-60.5 -245q0 -165 97 -264.5t263 -99.5
q134 0 243 67.5t168.5 178.5t59.5 241q0 168 -98 269.5t-262 101.5z" />
    <glyph glyph-name="ae" unicode="&#xe6;" horiz-adv-x="1945" 
d="M1653 102q-166 -116 -371 -116q-152 0 -264.5 70.5t-155.5 201.5q-111 -124 -246.5 -198t-279.5 -74t-239 71t-95 201t92 211.5t238 81.5h508q6 33 6 67q0 139 -89.5 225.5t-242.5 86.5q-176 0 -350 -117l18 96q171 103 346 103q155 0 258.5 -85.5t122.5 -226.5
q62 143 190 227.5t277 84.5q184 0 303 -114.5t119 -285.5q0 -57 -16 -135h-860q-3 -48 0 -94q11 -141 113 -228t257 -87q195 0 377 131zM1368 930q-163 0 -282.5 -105t-153.5 -274h774q4 20 4 55q0 146 -96 235t-246 89zM350 63q128 0 257.5 73t228.5 196q-7 81 0 145h-504
q-105 0 -170.5 -58t-65.5 -151q0 -98 71.5 -151.5t182.5 -53.5z" />
    <glyph glyph-name="ccedilla" unicode="&#xe7;" horiz-adv-x="1067" 
d="M582 -309q0 -83 -66.5 -128.5t-161.5 -45.5q-70 0 -139 37l10 57q61 -39 129 -39q66 0 111 31t45 88q0 43 -28 70.5t-72 27.5t-72 -12l-19 24l115 189q-176 19 -276.5 137t-100.5 299q0 157 76 292t209 214.5t291 79.5q98 0 188.5 -33.5t157.5 -99.5l-21 -95
q-130 142 -327 142q-133 0 -244 -67.5t-174 -180.5t-63 -244q0 -163 97 -263.5t265 -100.5q188 0 352 116l-20 -98q-158 -102 -340 -102l-94 -148h14q69 0 113.5 -40.5t44.5 -106.5z" />
    <glyph glyph-name="egrave" unicode="&#xe8;" 
d="M463 1454h112l185 -291h-80zM1038 612q0 -63 -20 -135h-866q-2 -14 -2 -41q0 -162 100 -265t274 -103q103 0 208.5 33t185.5 100l-19 -99q-152 -116 -389 -116q-210 0 -331.5 123t-121.5 319q0 117 42 224t115 186.5t177.5 126.5t222.5 47q186 0 305 -114t119 -286z
M606 930q-165 0 -286.5 -107.5t-157.5 -269.5h784q4 32 4 51q0 142 -94.5 234t-249.5 92z" />
    <glyph glyph-name="eacute" unicode="&#xe9;" 
d="M840 1454h116l-297 -291h-86zM1038 612q0 -63 -20 -135h-866q-2 -14 -2 -41q0 -162 100 -265t274 -103q103 0 208.5 33t185.5 100l-19 -99q-152 -116 -389 -116q-210 0 -331.5 123t-121.5 319q0 117 42 224t115 186.5t177.5 126.5t222.5 47q186 0 305 -114t119 -286z
M606 930q-165 0 -286.5 -107.5t-157.5 -269.5h784q4 32 4 51q0 142 -94.5 234t-249.5 92z" />
    <glyph glyph-name="ecircumflex" unicode="&#xea;" 
d="M885 1163l-162 230l-250 -230h-94l299 291h102l199 -291h-94zM1038 612q0 -63 -20 -135h-866q-2 -14 -2 -41q0 -162 100 -265t274 -103q103 0 208.5 33t185.5 100l-19 -99q-152 -116 -389 -116q-210 0 -331.5 123t-121.5 319q0 117 42 224t115 186.5t177.5 126.5
t222.5 47q186 0 305 -114t119 -286zM606 930q-165 0 -286.5 -107.5t-157.5 -269.5h784q4 32 4 51q0 142 -94.5 234t-249.5 92z" />
    <glyph glyph-name="edieresis" unicode="&#xeb;" 
d="M498 1237q-28 0 -45 17.5t-17 43.5q0 32 20.5 52t51.5 20q29 0 46 -18t17 -45q0 -32 -21 -51t-52 -19zM893 1237q-28 0 -46 17.5t-18 43.5q0 32 21.5 52t52.5 20q27 0 44.5 -18t17.5 -45q0 -32 -20.5 -51t-51.5 -19zM1038 612q0 -63 -20 -135h-866q-2 -14 -2 -41
q0 -162 100 -265t274 -103q103 0 208.5 33t185.5 100l-19 -99q-152 -116 -389 -116q-210 0 -331.5 123t-121.5 319q0 117 42 224t115 186.5t177.5 126.5t222.5 47q186 0 305 -114t119 -286zM606 930q-165 0 -286.5 -107.5t-157.5 -269.5h784q4 32 4 51q0 142 -94.5 234
t-249.5 92z" />
    <glyph glyph-name="igrave" unicode="&#xec;" horiz-adv-x="464" 
d="M80 1454h113l184 -291h-80zM39 0l192 995h88l-192 -995h-88z" />
    <glyph glyph-name="iacute" unicode="&#xed;" horiz-adv-x="464" 
d="M510 1454h117l-297 -291h-86zM39 0l192 995h88l-192 -995h-88z" />
    <glyph glyph-name="icircumflex" unicode="&#xee;" horiz-adv-x="464" 
d="M516 1163l-162 230l-250 -230h-94l299 291h103l198 -291h-94zM39 0l192 995h88l-192 -995h-88z" />
    <glyph glyph-name="idieresis" unicode="&#xef;" horiz-adv-x="464" 
d="M135 1237q-27 0 -44 17t-17 44q0 32 20 52t51 20q29 0 46.5 -18t17.5 -45q0 -32 -21 -51t-53 -19zM530 1237q-28 0 -45.5 17.5t-17.5 43.5q0 32 21.5 52t52.5 20q27 0 44 -18t17 -45q0 -32 -20.5 -51t-51.5 -19zM39 0l192 995h88l-192 -995h-88z" />
    <glyph glyph-name="eth" unicode="&#xf0;" horiz-adv-x="1157" 
d="M1053 766q0 -231 -71.5 -407t-209 -274.5t-323.5 -98.5q-200 0 -318.5 118.5t-118.5 307.5q0 150 70 277.5t196.5 203.5t280.5 76q141 0 249 -74.5t155 -204.5q4 70 4 105q-9 324 -197 512l-221 -177h-109l277 222q-133 106 -316 106l15 78q211 0 368 -129l162 129h109
l-219 -174q102 -103 159.5 -255t57.5 -341zM561 885q-129 0 -234.5 -64t-164 -171t-58.5 -232q0 -156 96.5 -253t258.5 -97q134 0 242.5 65.5t166.5 170t58 222.5q0 154 -101.5 256.5t-263.5 102.5z" />
    <glyph glyph-name="ntilde" unicode="&#xf1;" horiz-adv-x="1234" 
d="M856 1239q-39 0 -84.5 25.5t-88 51t-73.5 25.5q-45 0 -75 -27t-39 -77h-64q28 182 174 182q48 0 131.5 -51t118.5 -51q45 0 74.5 26.5t38.5 75.5h61q-12 -89 -56.5 -134.5t-117.5 -45.5zM225 498l-96 -498h-90l194 995h89l-52 -264q74 131 190 206t257 75
q181 0 267 -124.5t46 -330.5l-108 -557h-91l107 543q35 181 -32 282t-218 101q-165 0 -295 -120.5t-168 -307.5z" />
    <glyph glyph-name="ograve" unicode="&#xf2;" horiz-adv-x="1257" 
d="M494 1454h112l185 -291h-80zM57 432q0 155 74.5 288t208 212.5t295.5 79.5q206 0 332.5 -126t126.5 -325q0 -155 -75 -287t-209 -210t-296 -78q-206 0 -331.5 123t-125.5 323zM999 559q0 162 -99 264.5t-267 102.5q-137 0 -248.5 -68t-173 -180t-61.5 -242
q0 -164 99.5 -266t266.5 -102q137 0 248.5 68.5t173 180.5t61.5 242z" />
    <glyph glyph-name="oacute" unicode="&#xf3;" horiz-adv-x="1257" 
d="M870 1454h117l-297 -291h-86zM57 432q0 155 74.5 288t208 212.5t295.5 79.5q206 0 332.5 -126t126.5 -325q0 -155 -75 -287t-209 -210t-296 -78q-206 0 -331.5 123t-125.5 323zM999 559q0 162 -99 264.5t-267 102.5q-137 0 -248.5 -68t-173 -180t-61.5 -242
q0 -164 99.5 -266t266.5 -102q137 0 248.5 68.5t173 180.5t61.5 242z" />
    <glyph glyph-name="ocircumflex" unicode="&#xf4;" horiz-adv-x="1257" 
d="M907 1163l-162 230l-249 -230h-95l299 291h103l198 -291h-94zM57 432q0 155 74.5 288t208 212.5t295.5 79.5q206 0 332.5 -126t126.5 -325q0 -155 -75 -287t-209 -210t-296 -78q-206 0 -331.5 123t-125.5 323zM999 559q0 162 -99 264.5t-267 102.5q-137 0 -248.5 -68
t-173 -180t-61.5 -242q0 -164 99.5 -266t266.5 -102q137 0 248.5 68.5t173 180.5t61.5 242z" />
    <glyph glyph-name="otilde" unicode="&#xf5;" horiz-adv-x="1257" 
d="M852 1239q-39 0 -84.5 25.5t-88 51t-73.5 25.5q-45 0 -75 -27t-39 -77h-64q28 182 174 182q48 0 131.5 -51t118.5 -51q45 0 74.5 26.5t38.5 75.5h61q-12 -89 -56.5 -134.5t-117.5 -45.5zM57 432q0 155 74.5 288t208 212.5t295.5 79.5q206 0 332.5 -126t126.5 -325
q0 -155 -75 -287t-209 -210t-296 -78q-206 0 -331.5 123t-125.5 323zM999 559q0 162 -99 264.5t-267 102.5q-137 0 -248.5 -68t-173 -180t-61.5 -242q0 -164 99.5 -266t266.5 -102q137 0 248.5 68.5t173 180.5t61.5 242z" />
    <glyph glyph-name="odieresis" unicode="&#xf6;" horiz-adv-x="1257" 
d="M520 1237q-27 0 -44 17t-17 44q0 32 20 52t51 20q29 0 46.5 -18t17.5 -45q0 -32 -21 -51t-53 -19zM915 1237q-28 0 -45.5 17.5t-17.5 43.5q0 32 21.5 52t52.5 20q27 0 44 -18t17 -45q0 -32 -20.5 -51t-51.5 -19zM57 432q0 155 74.5 288t208 212.5t295.5 79.5
q206 0 332.5 -126t126.5 -325q0 -155 -75 -287t-209 -210t-296 -78q-206 0 -331.5 123t-125.5 323zM999 559q0 162 -99 264.5t-267 102.5q-137 0 -248.5 -68t-173 -180t-61.5 -242q0 -164 99.5 -266t266.5 -102q137 0 248.5 68.5t173 180.5t61.5 242z" />
    <glyph glyph-name="divide" unicode="&#xf7;" horiz-adv-x="1087" 
d="M543 1108q0 31 20 51.5t51 20.5q28 0 46 -18t18 -46q0 -29 -20.5 -48t-51.5 -19q-28 0 -45.5 16.5t-17.5 42.5zM102 743l17 82h872l-16 -82h-873zM416 451q0 31 20.5 51t52.5 20q27 0 44.5 -18t17.5 -45q0 -29 -20.5 -48.5t-51.5 -19.5q-28 0 -45.5 17t-17.5 43z" />
    <glyph glyph-name="oslash" unicode="&#xf8;" horiz-adv-x="1271" 
d="M1100 561q0 -155 -75 -287t-209 -210t-296 -78q-220 0 -346 139l-158 -125h-110l225 180q-68 111 -68 252q0 155 74.5 288t208 212.5t295.5 79.5q222 0 350 -144l158 127h113l-228 -184q66 -107 66 -250zM156 436q0 -113 47 -196l717 571q-101 115 -281 115
q-137 0 -248.5 -68t-173 -180t-61.5 -242zM1008 559q0 113 -47 193l-715 -572q98 -112 276 -112q137 0 249.5 68.5t174.5 181t62 241.5z" />
    <glyph glyph-name="ugrave" unicode="&#xf9;" 
d="M455 1454h112l185 -291h-80zM866 428l109 567h90l-109 -565q-42 -214 -173 -329t-322 -115q-202 0 -305 121t-64 323l109 565h88l-109 -569q-32 -167 49 -262.5t240 -95.5q153 0 258 95.5t139 264.5z" />
    <glyph glyph-name="uacute" unicode="&#xfa;" 
d="M831 1454h117l-297 -291h-86zM866 428l109 567h90l-109 -565q-42 -214 -173 -329t-322 -115q-202 0 -305 121t-64 323l109 565h88l-109 -569q-32 -167 49 -262.5t240 -95.5q153 0 258 95.5t139 264.5z" />
    <glyph glyph-name="ucircumflex" unicode="&#xfb;" 
d="M868 1163l-161 230l-250 -230h-95l300 291h102l199 -291h-95zM866 428l109 567h90l-109 -565q-42 -214 -173 -329t-322 -115q-202 0 -305 121t-64 323l109 565h88l-109 -569q-32 -167 49 -262.5t240 -95.5q153 0 258 95.5t139 264.5z" />
    <glyph glyph-name="udieresis" unicode="&#xfc;" 
d="M485 1237q-27 0 -44 17t-17 44q0 32 20.5 52t51.5 20q29 0 46 -18t17 -45q0 -32 -21 -51t-53 -19zM881 1237q-28 0 -46 17.5t-18 43.5q0 32 21.5 52t52.5 20q27 0 44 -18t17 -45q0 -32 -20 -51t-51 -19zM866 428l109 567h90l-109 -565q-42 -214 -173 -329t-322 -115
q-202 0 -305 121t-64 323l109 565h88l-109 -569q-32 -167 49 -262.5t240 -95.5q153 0 258 95.5t139 264.5z" />
    <glyph glyph-name="yacute" unicode="&#xfd;" horiz-adv-x="1030" 
d="M750 1454h116l-297 -291h-86zM1040 995l-1026 -1507h-98l444 653l-288 854h96l252 -766l520 766h100z" />
    <glyph glyph-name="thorn" unicode="&#xfe;" horiz-adv-x="1312" 
d="M584 -14q-157 0 -262 82t-138 223l-157 -803h-86l397 2048h88l-152 -774q76 114 193.5 182t255.5 68q191 0 308.5 -127t117.5 -324q0 -155 -74 -287t-204.5 -210t-286.5 -78zM696 926q-134 0 -243.5 -68.5t-169.5 -180.5t-60 -241q0 -163 98 -265.5t263 -102.5
q133 0 242.5 68t170 180t60.5 241q0 163 -97 266t-264 103z" />
    <glyph glyph-name="ydieresis" unicode="&#xff;" horiz-adv-x="1030" 
d="M412 1237q-28 0 -45 17.5t-17 43.5q0 32 20.5 52t51.5 20q29 0 46 -18t17 -45q0 -32 -21 -51t-52 -19zM807 1237q-28 0 -46 17.5t-18 43.5q0 32 21.5 52t52.5 20q27 0 44.5 -18t17.5 -45q0 -32 -20.5 -51t-51.5 -19zM1040 995l-1026 -1507h-98l444 653l-288 854h96
l252 -766l520 766h100z" />
    <glyph glyph-name="Amacron" unicode="&#x100;" horiz-adv-x="1470" 
d="M657 1833h578l-14 -76h-578zM1196 0l-106 426h-832l-272 -426h-107l1014 1563l401 -1563h-98zM311 508h758l-213 850z" />
    <glyph glyph-name="amacron" unicode="&#x101;" horiz-adv-x="1310" 
d="M496 1350h577l-14 -76h-578zM885 0l45 229q-77 -112 -193.5 -177.5t-253.5 -65.5q-193 0 -309.5 122.5t-116.5 319.5q0 116 43 223t116.5 186.5t178.5 127t223 47.5q157 0 263.5 -82.5t140.5 -224.5l55 290h90l-194 -995h-88zM621 926q-132 0 -241 -68t-169.5 -181
t-60.5 -245q0 -165 97 -264.5t263 -99.5q134 0 243 67.5t168.5 178.5t59.5 241q0 168 -98 269.5t-262 101.5z" />
    <glyph glyph-name="Abreve" unicode="&#x102;" horiz-adv-x="1470" 
d="M926 1747q90 0 155 51t82 139h76q-22 -121 -109.5 -191.5t-211.5 -70.5q-116 0 -185 75t-51 187h78q-13 -82 34 -136t132 -54zM1196 0l-106 426h-832l-272 -426h-107l1014 1563l401 -1563h-98zM311 508h758l-213 850z" />
    <glyph glyph-name="abreve" unicode="&#x103;" horiz-adv-x="1310" 
d="M752 1249q90 0 155 51.5t82 139.5h76q-22 -120 -110 -191t-212 -71q-116 0 -185 75t-50 187h78q-14 -82 33.5 -136.5t132.5 -54.5zM885 0l45 229q-77 -112 -193.5 -177.5t-253.5 -65.5q-193 0 -309.5 122.5t-116.5 319.5q0 116 43 223t116.5 186.5t178.5 127t223 47.5
q157 0 263.5 -82.5t140.5 -224.5l55 290h90l-194 -995h-88zM621 926q-132 0 -241 -68t-169.5 -181t-60.5 -245q0 -165 97 -264.5t263 -99.5q134 0 243 67.5t168.5 178.5t59.5 241q0 168 -98 269.5t-262 101.5z" />
    <glyph glyph-name="Aogonek" unicode="&#x104;" horiz-adv-x="1470" 
d="M1192 -461q-68 -22 -113 -22q-71 0 -116 43t-45 116q0 99 75.5 184t200.5 148l-104 418h-832l-272 -426h-107l1014 1563l401 -1563h-14q-127 -63 -203.5 -141.5t-75.5 -169.5q1 -51 30 -80t79 -29q46 0 94 23zM311 508h758l-213 850z" />
    <glyph glyph-name="aogonek" unicode="&#x105;" horiz-adv-x="1310" 
d="M885 -461q-68 -22 -113 -22q-72 0 -117 43.5t-45 115.5q0 99 75.5 183t201.5 149l43 221q-77 -112 -193.5 -177.5t-253.5 -65.5q-193 0 -309.5 122.5t-116.5 319.5q0 116 43 223t116.5 186.5t178.5 127t223 47.5q157 0 263.5 -82.5t140.5 -224.5l55 286h90l-194 -991
q-127 -63 -203.5 -141.5t-75.5 -169.5q2 -51 31 -80t78 -29q46 0 94 23zM621 926q-132 0 -241 -68t-169.5 -181t-60.5 -245q0 -165 97 -264.5t263 -99.5q134 0 243 67.5t168.5 178.5t59.5 241q0 168 -98 269.5t-262 101.5z" />
    <glyph glyph-name="Cacute" unicode="&#x106;" horiz-adv-x="1449" 
d="M1139 1937h116l-297 -290h-86zM1483 1366l-23 -102q-90 102 -216 151t-269 49q-168 0 -316 -64.5t-251 -173.5t-162.5 -254.5t-59.5 -303.5q0 -267 159.5 -432.5t428.5 -165.5q283 0 520 188l-22 -113q-232 -159 -508 -159q-305 0 -489.5 187.5t-184.5 490.5
q0 178 68 341t185 283t283.5 191t354.5 71q315 0 502 -184z" />
    <glyph glyph-name="cacute" unicode="&#x107;" horiz-adv-x="1067" 
d="M836 1454h116l-297 -291h-86zM150 434q0 -163 97 -263.5t265 -100.5q188 0 352 116l-20 -98q-158 -102 -346 -102q-202 0 -321.5 121.5t-119.5 318.5q0 157 76 292t209 214.5t291 79.5q98 0 188.5 -33.5t157.5 -99.5l-21 -95q-130 142 -327 142q-133 0 -244 -67.5
t-174 -180.5t-63 -244z" />
    <glyph glyph-name="Ccircumflex" unicode="&#x108;" horiz-adv-x="1449" 
d="M1178 1647l-162 229l-250 -229h-94l299 290h102l199 -290h-94zM1483 1366l-23 -102q-90 102 -216 151t-269 49q-168 0 -316 -64.5t-251 -173.5t-162.5 -254.5t-59.5 -303.5q0 -267 159.5 -432.5t428.5 -165.5q283 0 520 188l-22 -113q-232 -159 -508 -159
q-305 0 -489.5 187.5t-184.5 490.5q0 178 68 341t185 283t283.5 191t354.5 71q315 0 502 -184z" />
    <glyph glyph-name="ccircumflex" unicode="&#x109;" horiz-adv-x="1067" 
d="M885 1163l-162 230l-250 -230h-94l299 291h102l199 -291h-94zM150 434q0 -163 97 -263.5t265 -100.5q188 0 352 116l-20 -98q-158 -102 -346 -102q-202 0 -321.5 121.5t-119.5 318.5q0 157 76 292t209 214.5t291 79.5q98 0 188.5 -33.5t157.5 -99.5l-21 -95
q-130 142 -327 142q-133 0 -244 -67.5t-174 -180.5t-63 -244z" />
    <glyph glyph-name="Cdotaccent" unicode="&#x10a;" horiz-adv-x="1449" 
d="M997 1731q-30 0 -48.5 18.5t-18.5 46.5q0 31 22 52.5t54 21.5q29 0 47 -19t18 -47q0 -33 -21 -53t-53 -20zM1483 1366l-23 -102q-90 102 -216 151t-269 49q-168 0 -316 -64.5t-251 -173.5t-162.5 -254.5t-59.5 -303.5q0 -267 159.5 -432.5t428.5 -165.5q283 0 520 188
l-22 -113q-232 -159 -508 -159q-305 0 -489.5 187.5t-184.5 490.5q0 178 68 341t185 283t283.5 191t354.5 71q315 0 502 -184z" />
    <glyph glyph-name="cdotaccent" unicode="&#x10b;" horiz-adv-x="1067" 
d="M700 1233q-30 0 -48.5 18.5t-18.5 46.5q0 31 22 52.5t54 21.5q29 0 47 -18.5t18 -46.5q0 -33 -21.5 -53.5t-52.5 -20.5zM150 434q0 -163 97 -263.5t265 -100.5q188 0 352 116l-20 -98q-158 -102 -346 -102q-202 0 -321.5 121.5t-119.5 318.5q0 157 76 292t209 214.5
t291 79.5q98 0 188.5 -33.5t157.5 -99.5l-21 -95q-130 142 -327 142q-133 0 -244 -67.5t-174 -180.5t-63 -244z" />
    <glyph glyph-name="Ccaron" unicode="&#x10c;" horiz-adv-x="1449" 
d="M1323 1937l-299 -290h-102l-197 290h92l164 -229l248 229h94zM1483 1366l-23 -102q-90 102 -216 151t-269 49q-168 0 -316 -64.5t-251 -173.5t-162.5 -254.5t-59.5 -303.5q0 -267 159.5 -432.5t428.5 -165.5q283 0 520 188l-22 -113q-232 -159 -508 -159
q-305 0 -489.5 187.5t-184.5 490.5q0 178 68 341t185 283t283.5 191t354.5 71q315 0 502 -184z" />
    <glyph glyph-name="ccaron" unicode="&#x10d;" horiz-adv-x="1067" 
d="M1030 1454l-299 -291h-102l-197 291h92l164 -229l248 229h94zM150 434q0 -163 97 -263.5t265 -100.5q188 0 352 116l-20 -98q-158 -102 -346 -102q-202 0 -321.5 121.5t-119.5 318.5q0 157 76 292t209 214.5t291 79.5q98 0 188.5 -33.5t157.5 -99.5l-21 -95
q-130 142 -327 142q-133 0 -244 -67.5t-174 -180.5t-63 -244z" />
    <glyph glyph-name="Dcaron" unicode="&#x10e;" horiz-adv-x="1595" 
d="M1237 1937l-299 -290h-102l-197 290h92l164 -229l248 229h94zM39 0l299 1536h461q321 0 512.5 -189.5t191.5 -496.5q0 -180 -70 -338t-191.5 -270t-291.5 -177t-364 -65h-547zM803 1450h-389l-267 -1366h441q175 0 327.5 58t260.5 159t169.5 242.5t61.5 302.5
q0 175 -71 311.5t-209 214.5t-324 78z" />
    <glyph glyph-name="dcaron" unicode="&#x10f;" horiz-adv-x="1376" 
d="M885 0l45 229q-76 -112 -192.5 -177.5t-254.5 -65.5q-193 0 -309.5 122.5t-116.5 319.5q0 116 43 223t116.5 186.5t178.5 127t223 47.5q157 0 263.5 -83t140.5 -224l162 831h88l-299 -1536h-88zM1413 1174h-63l139 362h94zM621 926q-132 0 -241 -68t-169.5 -181
t-60.5 -245q0 -165 97 -264.5t263 -99.5q134 0 243 67.5t168.5 178.5t59.5 241q0 168 -98 269.5t-262 101.5z" />
    <glyph glyph-name="Dcroat" unicode="&#x110;" horiz-adv-x="1613" 
d="M25 817h192l139 719h461q321 0 513 -189.5t192 -496.5q0 -180 -70 -338t-192 -270t-292 -177t-364 -65h-547l144 733h-193zM823 733h-530l-127 -649h440q176 0 329 58t261 159t169.5 242.5t61.5 302.5q0 175 -71 311.5t-209 214.5t-324 78h-391l-123 -633h531z" />
    <glyph glyph-name="dcroat" unicode="&#x111;" horiz-adv-x="1314" 
d="M885 0l43 225q-74 -110 -190 -174.5t-255 -64.5q-193 0 -309.5 122.5t-116.5 319.5q0 116 43 223t116.5 186.5t178.5 127t223 47.5q157 0 263.5 -83t140.5 -224l100 520h-305l14 78h308l45 233h88l-45 -233h180l-14 -78h-183l-237 -1225h-88zM621 926q-132 0 -241 -68
t-169.5 -181t-60.5 -245q0 -165 97 -264.5t263 -99.5q134 0 243 67.5t168.5 178.5t59.5 241q0 168 -98 269.5t-262 101.5z" />
    <glyph glyph-name="Emacron" unicode="&#x112;" horiz-adv-x="1126" 
d="M537 1833h577l-14 -76h-578zM39 0l299 1536h870l-16 -86h-778l-123 -633h692l-18 -84h-691l-127 -649h801l-16 -84h-893z" />
    <glyph glyph-name="emacron" unicode="&#x113;" 
d="M424 1350h577l-14 -76h-577zM1038 612q0 -63 -20 -135h-866q-2 -14 -2 -41q0 -162 100 -265t274 -103q103 0 208.5 33t185.5 100l-19 -99q-152 -116 -389 -116q-210 0 -331.5 123t-121.5 319q0 117 42 224t115 186.5t177.5 126.5t222.5 47q186 0 305 -114t119 -286z
M606 930q-165 0 -286.5 -107.5t-157.5 -269.5h784q4 32 4 51q0 142 -94.5 234t-249.5 92z" />
    <glyph glyph-name="Ebreve" unicode="&#x114;" horiz-adv-x="1126" 
d="M807 1747q90 0 155 51t82 139h76q-22 -121 -109.5 -191.5t-211.5 -70.5q-116 0 -185 75t-51 187h78q-13 -82 34 -136t132 -54zM39 0l299 1536h870l-16 -86h-778l-123 -633h692l-18 -84h-691l-127 -649h801l-16 -84h-893z" />
    <glyph glyph-name="ebreve" unicode="&#x115;" 
d="M696 1249q90 0 155.5 51.5t82.5 139.5h76q-22 -120 -110 -191t-212 -71q-116 0 -185 75t-50 187h77q-14 -82 33.5 -136.5t132.5 -54.5zM1038 612q0 -63 -20 -135h-866q-2 -14 -2 -41q0 -162 100 -265t274 -103q103 0 208.5 33t185.5 100l-19 -99q-152 -116 -389 -116
q-210 0 -331.5 123t-121.5 319q0 117 42 224t115 186.5t177.5 126.5t222.5 47q186 0 305 -114t119 -286zM606 930q-165 0 -286.5 -107.5t-157.5 -269.5h784q4 32 4 51q0 142 -94.5 234t-249.5 92z" />
    <glyph glyph-name="Edotaccent" unicode="&#x116;" horiz-adv-x="1126" 
d="M815 1731q-30 0 -48.5 18.5t-18.5 46.5q0 31 21.5 52.5t53.5 21.5q29 0 47.5 -19t18.5 -47q0 -33 -21 -53t-53 -20zM39 0l299 1536h870l-16 -86h-778l-123 -633h692l-18 -84h-691l-127 -649h801l-16 -84h-893z" />
    <glyph glyph-name="edotaccent" unicode="&#x117;" 
d="M700 1233q-30 0 -48.5 18.5t-18.5 46.5q0 31 22 52.5t54 21.5q29 0 47 -18.5t18 -46.5q0 -33 -21.5 -53.5t-52.5 -20.5zM1038 612q0 -63 -20 -135h-866q-2 -14 -2 -41q0 -162 100 -265t274 -103q103 0 208.5 33t185.5 100l-19 -99q-152 -116 -389 -116q-210 0 -331.5 123
t-121.5 319q0 117 42 224t115 186.5t177.5 126.5t222.5 47q186 0 305 -114t119 -286zM606 930q-165 0 -286.5 -107.5t-157.5 -269.5h784q4 32 4 51q0 142 -94.5 234t-249.5 92z" />
    <glyph glyph-name="Eogonek" unicode="&#x118;" horiz-adv-x="1126" 
d="M39 0l299 1536h870l-16 -86h-778l-123 -633h692l-18 -84h-691l-127 -649h801l-16 -84q-127 -63 -203.5 -141.5t-75.5 -169.5q1 -51 30 -80t79 -29q46 0 94 23l-12 -64q-68 -22 -113 -22q-72 0 -117 43.5t-45 115.5q0 96 71 179t191 145h-792z" />
    <glyph glyph-name="eogonek" unicode="&#x119;" 
d="M1038 612q0 -63 -20 -135h-866q-2 -14 -2 -41q0 -162 100 -265t274 -103q103 0 208.5 33t185.5 100l-19 -99q-65 -50 -149 -79q-136 -61 -225.5 -151.5t-86.5 -184.5q0 -49 28.5 -78t76.5 -29q46 0 94 23l-12 -64q-68 -22 -113 -22q-71 0 -115 42t-45 115
q0 89 66.5 170.5t177.5 145.5q-58 -4 -86 -4q-210 0 -331.5 123t-121.5 319q0 117 42 224t115 186.5t177.5 126.5t222.5 47q186 0 305 -114t119 -286zM606 930q-165 0 -286.5 -107.5t-157.5 -269.5h784q4 32 4 51q0 142 -94.5 234t-249.5 92z" />
    <glyph glyph-name="Ecaron" unicode="&#x11a;" horiz-adv-x="1126" 
d="M1145 1937l-299 -290h-103l-196 290h92l164 -229l248 229h94zM39 0l299 1536h870l-16 -86h-778l-123 -633h692l-18 -84h-691l-127 -649h801l-16 -84h-893z" />
    <glyph glyph-name="ecaron" unicode="&#x11b;" 
d="M1032 1454l-299 -291h-102l-197 291h92l164 -229l248 229h94zM1038 612q0 -63 -20 -135h-866q-2 -14 -2 -41q0 -162 100 -265t274 -103q103 0 208.5 33t185.5 100l-19 -99q-152 -116 -389 -116q-210 0 -331.5 123t-121.5 319q0 117 42 224t115 186.5t177.5 126.5
t222.5 47q186 0 305 -114t119 -286zM606 930q-165 0 -286.5 -107.5t-157.5 -269.5h784q4 32 4 51q0 142 -94.5 234t-249.5 92z" />
    <glyph glyph-name="Gcircumflex" unicode="&#x11c;" horiz-adv-x="1589" 
d="M1192 1647l-162 229l-250 -229h-94l299 290h102l199 -290h-94zM1364 188q-125 -100 -280.5 -151t-321.5 -51q-212 0 -365.5 84t-231 234t-77.5 349q0 184 67 349t183.5 286t283.5 191.5t357 70.5q312 0 498 -178l-21 -106q-88 102 -213 150t-268 48q-115 0 -220.5 -29
t-192 -81.5t-158 -127t-119.5 -163t-74.5 -191t-26.5 -210.5q0 -269 154.5 -430.5t435.5 -161.5q285 0 510 170l90 475h-559l16 82h652z" />
    <glyph glyph-name="gcircumflex" unicode="&#x11d;" horiz-adv-x="1310" 
d="M942 1163l-162 230l-250 -230h-94l299 291h103l198 -291h-94zM969 -27q-45 -236 -189.5 -366.5t-373.5 -130.5q-113 0 -221 37t-177 112l19 94q68 -80 170 -118.5t209 -38.5q195 0 315 108t158 299l49 258q-76 -111 -192 -176t-253 -65q-193 0 -309.5 122.5t-116.5 319.5
q0 116 43 223t116.5 186.5t178.5 127t223 47.5q157 0 263.5 -82.5t140.5 -222.5l55 288h90zM621 926q-132 0 -241 -68t-169.5 -181t-60.5 -245q0 -165 97 -264.5t263 -99.5q134 0 243 67.5t168.5 178.5t59.5 241q0 168 -98 269.5t-262 101.5z" />
    <glyph glyph-name="Gbreve" unicode="&#x11e;" horiz-adv-x="1589" 
d="M1001 1747q91 0 156 51t82 139h76q-22 -120 -110 -191t-212 -71q-116 0 -185 75t-50 187h78q-14 -82 33 -136t132 -54zM1364 188q-125 -100 -280.5 -151t-321.5 -51q-212 0 -365.5 84t-231 234t-77.5 349q0 184 67 349t183.5 286t283.5 191.5t357 70.5q312 0 498 -178
l-21 -106q-88 102 -213 150t-268 48q-115 0 -220.5 -29t-192 -81.5t-158 -127t-119.5 -163t-74.5 -191t-26.5 -210.5q0 -269 154.5 -430.5t435.5 -161.5q285 0 510 170l90 475h-559l16 82h652z" />
    <glyph glyph-name="gbreve" unicode="&#x11f;" horiz-adv-x="1310" 
d="M754 1249q90 0 155 51.5t82 139.5h76q-22 -120 -110 -191t-212 -71q-116 0 -185 75t-50 187h78q-14 -82 33.5 -136.5t132.5 -54.5zM969 -27q-45 -236 -189.5 -366.5t-373.5 -130.5q-113 0 -221 37t-177 112l19 94q68 -80 170 -118.5t209 -38.5q195 0 315 108t158 299
l49 258q-76 -111 -192 -176t-253 -65q-193 0 -309.5 122.5t-116.5 319.5q0 116 43 223t116.5 186.5t178.5 127t223 47.5q157 0 263.5 -82.5t140.5 -222.5l55 288h90zM621 926q-132 0 -241 -68t-169.5 -181t-60.5 -245q0 -165 97 -264.5t263 -99.5q134 0 243 67.5
t168.5 178.5t59.5 241q0 168 -98 269.5t-262 101.5z" />
    <glyph glyph-name="Gdotaccent" unicode="&#x120;" horiz-adv-x="1589" 
d="M1012 1731q-30 0 -49 18.5t-19 46.5q0 31 22 52.5t54 21.5q29 0 47 -19t18 -47q0 -33 -21 -53t-52 -20zM1364 188q-125 -100 -280.5 -151t-321.5 -51q-212 0 -365.5 84t-231 234t-77.5 349q0 184 67 349t183.5 286t283.5 191.5t357 70.5q312 0 498 -178l-21 -106
q-88 102 -213 150t-268 48q-115 0 -220.5 -29t-192 -81.5t-158 -127t-119.5 -163t-74.5 -191t-26.5 -210.5q0 -269 154.5 -430.5t435.5 -161.5q285 0 510 170l90 475h-559l16 82h652z" />
    <glyph glyph-name="gdotaccent" unicode="&#x121;" horiz-adv-x="1310" 
d="M760 1233q-30 0 -49 18.5t-19 46.5q0 31 22 52.5t54 21.5q29 0 47.5 -18.5t18.5 -46.5q0 -33 -21.5 -53.5t-52.5 -20.5zM969 -27q-45 -236 -189.5 -366.5t-373.5 -130.5q-113 0 -221 37t-177 112l19 94q68 -80 170 -118.5t209 -38.5q195 0 315 108t158 299l49 258
q-76 -111 -192 -176t-253 -65q-193 0 -309.5 122.5t-116.5 319.5q0 116 43 223t116.5 186.5t178.5 127t223 47.5q157 0 263.5 -82.5t140.5 -222.5l55 288h90zM621 926q-132 0 -241 -68t-169.5 -181t-60.5 -245q0 -165 97 -264.5t263 -99.5q134 0 243 67.5t168.5 178.5
t59.5 241q0 168 -98 269.5t-262 101.5z" />
    <glyph glyph-name="Gcommaaccent" unicode="&#x122;" horiz-adv-x="1589" 
d="M1364 188q-125 -100 -280.5 -151t-321.5 -51q-212 0 -365.5 84t-231 234t-77.5 349q0 184 67 349t183.5 286t283.5 191.5t357 70.5q312 0 498 -178l-21 -106q-88 102 -213 150t-268 48q-115 0 -220.5 -29t-192 -81.5t-158 -127t-119.5 -163t-74.5 -191t-26.5 -210.5
q0 -269 154.5 -430.5t435.5 -161.5q285 0 510 170l90 475h-559l16 82h652zM676 -135h94l-188 -256h-68z" />
    <glyph glyph-name="gcommaaccent" unicode="&#x123;" horiz-adv-x="1310" 
d="M848 1395h67l-161 -254h-95zM969 -27q-45 -236 -189.5 -366.5t-373.5 -130.5q-113 0 -221 37t-177 112l19 94q68 -80 170 -118.5t209 -38.5q195 0 315 108t158 299l49 258q-76 -111 -192 -176t-253 -65q-193 0 -309.5 122.5t-116.5 319.5q0 116 43 223t116.5 186.5
t178.5 127t223 47.5q157 0 263.5 -82.5t140.5 -222.5l55 288h90zM621 926q-132 0 -241 -68t-169.5 -181t-60.5 -245q0 -165 97 -264.5t263 -99.5q134 0 243 67.5t168.5 178.5t59.5 241q0 168 -98 269.5t-262 101.5z" />
    <glyph glyph-name="Hcircumflex" unicode="&#x124;" horiz-adv-x="1583" 
d="M1174 1647l-162 229l-250 -229h-94l299 290h102l199 -290h-94zM1153 0l147 760h-1021l-148 -760h-92l299 1536h92l-135 -692h1022l135 692h92l-299 -1536h-92z" />
    <glyph glyph-name="hcircumflex" unicode="&#x125;" horiz-adv-x="1234" 
d="M858 1640l-162 230l-250 -230h-94l299 291h103l198 -291h-94zM688 926q-161 0 -289.5 -114.5t-171.5 -293.5l-100 -518h-88l299 1536h88l-158 -807q74 131 190 207t257 76q181 0 267 -124.5t46 -330.5l-108 -557h-89l107 543q34 181 -33 282t-217 101z" />
    <glyph glyph-name="Hbar" unicode="&#x126;" horiz-adv-x="1583" 
d="M1153 0l147 760h-1021l-148 -760h-92l227 1163h-164l15 76h164l57 297h92l-57 -297h1022l57 297h92l-57 -297h162l-15 -76h-161l-228 -1163h-92zM295 844h1022l63 319h-1022z" />
    <glyph glyph-name="hbar" unicode="&#x127;" horiz-adv-x="1234" 
d="M688 926q-162 0 -290 -114t-171 -294l-100 -518h-88l237 1225h-186l14 78h189l45 233h88l-45 -233h299l-14 -78h-301l-91 -473q78 121 195 190.5t252 69.5q180 0 263.5 -124t43.5 -331l-108 -557h-89l107 543q34 180 -32 281.5t-218 101.5z" />
    <glyph glyph-name="Itilde" unicode="&#x128;" horiz-adv-x="468" 
d="M565 1722q-39 0 -84.5 26t-88 51.5t-73.5 25.5q-45 0 -75 -27.5t-39 -77.5h-64q28 183 174 183q31 0 67.5 -16t64.5 -35.5t61 -35.5t57 -16q45 0 74.5 27t38.5 76h61q-12 -89 -57 -135t-117 -46zM39 0l299 1536h92l-299 -1536h-92z" />
    <glyph glyph-name="itilde" unicode="&#x129;" horiz-adv-x="464" 
d="M469 1239q-39 0 -84.5 25.5t-88 51t-73.5 25.5q-45 0 -75 -27t-39 -77h-64q28 182 174 182q48 0 131.5 -51t118.5 -51q45 0 74.5 26.5t38.5 75.5h61q-12 -89 -56.5 -134.5t-117.5 -45.5zM39 0l192 995h88l-192 -995h-88z" />
    <glyph glyph-name="Imacron" unicode="&#x12a;" horiz-adv-x="468" 
d="M154 1833h577l-14 -76h-578zM39 0l299 1536h92l-299 -1536h-92z" />
    <glyph glyph-name="imacron" unicode="&#x12b;" horiz-adv-x="464" 
d="M57 1350h578l-14 -76h-578zM39 0l192 995h88l-192 -995h-88z" />
    <glyph glyph-name="Ibreve" unicode="&#x12c;" horiz-adv-x="468" 
d="M426 1747q91 0 156 51t82 139h75q-22 -121 -109.5 -191.5t-211.5 -70.5q-116 0 -185 75t-51 187h78q-13 -82 34 -136t132 -54zM39 0l299 1536h92l-299 -1536h-92z" />
    <glyph glyph-name="ibreve" unicode="&#x12d;" horiz-adv-x="464" 
d="M328 1249q90 0 155 51.5t82 139.5h76q-22 -120 -110 -191t-212 -71q-116 0 -185 75t-50 187h78q-14 -82 33.5 -136.5t132.5 -54.5zM39 0l192 995h88l-192 -995h-88z" />
    <glyph glyph-name="Iogonek" unicode="&#x12e;" horiz-adv-x="468" 
d="M43 -461q-68 -22 -113 -22q-71 0 -116 43t-45 116q0 98 73.5 182t198.5 148l297 1530h92l-299 -1536q-127 -63 -203 -141.5t-75 -169.5q2 -51 30.5 -80t77.5 -29q46 0 94 23z" />
    <glyph glyph-name="iogonek" unicode="&#x12f;" horiz-adv-x="464" 
d="M264 1298q0 31 22 52.5t54 21.5q29 0 47.5 -18t18.5 -47q0 -32 -22 -53t-54 -21q-29 0 -47.5 18t-18.5 47zM39 -461q-68 -22 -113 -22q-72 0 -117 43.5t-45 115.5q0 99 75.5 183t201.5 149l190 987h91l-195 -995q-127 -63 -203.5 -141.5t-75.5 -169.5q2 -51 31 -80
t78 -29q46 0 94 23z" />
    <glyph glyph-name="Idotaccent" unicode="&#x130;" horiz-adv-x="468" 
d="M432 1731q-30 0 -48.5 18.5t-18.5 46.5q0 31 21.5 52.5t53.5 21.5q29 0 47.5 -19t18.5 -47q0 -33 -21 -53t-53 -20zM39 0l299 1536h92l-299 -1536h-92z" />
    <glyph glyph-name="dotlessi" unicode="&#x131;" horiz-adv-x="464" 
d="M39 0l192 995h88l-192 -995h-88z" />
    <glyph glyph-name="IJ" unicode="&#x132;" horiz-adv-x="1341" 
d="M39 0l299 1536h92l-299 -1536h-92zM662 -14q-173 0 -293 102l16 90q117 -108 279 -108q131 0 216 79t111 211l230 1176h92l-228 -1169q-35 -183 -145.5 -282t-277.5 -99z" />
    <glyph glyph-name="ij" unicode="&#x133;" horiz-adv-x="937" 
d="M264 1298q0 31 22 52.5t54 21.5q29 0 47.5 -18t18.5 -47q0 -32 -22 -53t-54 -21q-29 0 -47.5 18t-18.5 47zM799 1233q-29 0 -47.5 18t-18.5 47q0 31 22 52.5t54 21.5q29 0 47 -18t18 -47q0 -32 -21.5 -53t-53.5 -21zM39 0l192 995h91l-195 -995h-88zM252 -526
q-105 0 -186 59l16 76q80 -55 166 -55q78 0 136.5 54t80.5 165l235 1222h91l-238 -1218q-31 -155 -109 -229t-192 -74z" />
    <glyph glyph-name="Jcircumflex" unicode="&#x134;" horiz-adv-x="872" 
d="M1026 1649l-162 229l-250 -229h-94l299 290h103l198 -290h-94zM193 -14q-173 0 -293 102l16 90q117 -108 279 -108q131 0 216 79t111 211l230 1176h92l-228 -1169q-35 -183 -145.5 -282t-277.5 -99z" />
    <glyph glyph-name="jcircumflex" unicode="&#x135;" horiz-adv-x="464" 
d="M516 1163l-162 230l-250 -230h-94l299 291h103l198 -291h-94zM-225 -526q-97 0 -178 59l16 76q80 -55 156 -55q90 0 148 57.5t79 161.5l235 1222h91l-238 -1218q-61 -303 -309 -303z" />
    <glyph glyph-name="Kcommaaccent" unicode="&#x136;" horiz-adv-x="1300" 
d="M1032 0l-479 823l-315 -280l-107 -543h-92l299 1536h92l-168 -858l971 858h121l-731 -651l514 -885h-105zM471 -135h94l-188 -256h-68z" />
    <glyph glyph-name="kcommaaccent" unicode="&#x137;" horiz-adv-x="993" 
d="M723 0l-313 545l-211 -172l-72 -373h-88l299 1536h88l-203 -1040l619 499h116l-481 -393l346 -602h-100zM344 -135h94l-188 -256h-68z" />
    <glyph glyph-name="Lacute" unicode="&#x139;" horiz-adv-x="1073" 
d="M623 1937h116l-297 -290h-86zM911 84l-16 -84h-856l299 1536h92l-283 -1452h764z" />
    <glyph glyph-name="lacute" unicode="&#x13a;" horiz-adv-x="464" 
d="M590 1931h117l-297 -291h-86zM39 0l299 1536h88l-299 -1536h-88z" />
    <glyph glyph-name="Lcommaaccent" unicode="&#x13b;" horiz-adv-x="1073" 
d="M911 84l-16 -84h-856l299 1536h92l-283 -1452h764zM406 -135h94l-189 -256h-67z" />
    <glyph glyph-name="lcommaaccent" unicode="&#x13c;" horiz-adv-x="464" 
d="M39 0l299 1536h88l-299 -1536h-88zM14 -135h95l-189 -256h-67z" />
    <glyph glyph-name="Lcaron" unicode="&#x13d;" horiz-adv-x="1073" 
d="M911 84l-16 -84h-856l299 1536h92l-283 -1452h764zM604 1174h-63l139 362h94z" />
    <glyph glyph-name="lcaron" unicode="&#x13e;" horiz-adv-x="528" 
d="M39 0l299 1536h88l-299 -1536h-88zM565 1174h-63l139 362h94z" />
    <glyph glyph-name="Ldot" unicode="&#x13f;" horiz-adv-x="1073" 
d="M911 84l-16 -84h-856l299 1536h92l-283 -1452h764zM950 760q-31 0 -49 18t-18 47q0 31 21.5 52.5t53.5 21.5q29 0 47.5 -19.5t18.5 -48.5q0 -32 -21.5 -51.5t-52.5 -19.5z" />
    <glyph glyph-name="ldot" unicode="&#x140;" horiz-adv-x="526" 
d="M39 0l299 1536h88l-299 -1536h-88zM516 735q-30 0 -48.5 18.5t-18.5 47.5q0 31 21.5 52t53.5 21q29 0 47.5 -19t18.5 -48q0 -32 -21.5 -52t-52.5 -20z" />
    <glyph glyph-name="Lslash" unicode="&#x141;" horiz-adv-x="1153" 
d="M993 84l-16 -84h-858l137 705l-274 -140l18 101l276 139l142 731h92l-131 -678l416 211l-21 -102l-416 -211l-131 -672h766z" />
    <glyph glyph-name="lslash" unicode="&#x142;" horiz-adv-x="524" 
d="M555 868l-248 -127l-143 -741h-88l135 690l-240 -123l19 95l239 122l146 752h88l-137 -700l245 127z" />
    <glyph glyph-name="Nacute" unicode="&#x143;" horiz-adv-x="1638" 
d="M1147 1937h117l-297 -290h-86zM1294 -27l-905 1360l-258 -1333h-92l303 1563l905 -1366l260 1339h92z" />
    <glyph glyph-name="nacute" unicode="&#x144;" horiz-adv-x="1234" 
d="M881 1454h116l-297 -291h-86zM225 498l-96 -498h-90l194 995h89l-52 -264q74 131 190 206t257 75q181 0 267 -124.5t46 -330.5l-108 -557h-91l107 543q35 181 -32 282t-218 101q-165 0 -295 -120.5t-168 -307.5z" />
    <glyph glyph-name="Ncommaaccent" unicode="&#x145;" horiz-adv-x="1638" 
d="M1294 -27l-905 1360l-258 -1333h-92l303 1563l905 -1366l260 1339h92zM635 -135h94l-188 -256h-68z" />
    <glyph glyph-name="ncommaaccent" unicode="&#x146;" horiz-adv-x="1234" 
d="M225 498l-96 -498h-90l194 995h89l-52 -264q74 131 190 206t257 75q181 0 267 -124.5t46 -330.5l-108 -557h-91l107 543q35 181 -32 282t-218 101q-165 0 -295 -120.5t-168 -307.5zM428 -135h94l-188 -256h-68z" />
    <glyph glyph-name="Ncaron" unicode="&#x147;" horiz-adv-x="1638" 
d="M1337 1937l-299 -290h-102l-197 290h92l164 -229l248 229h94zM1294 -27l-905 1360l-258 -1333h-92l303 1563l905 -1366l260 1339h92z" />
    <glyph glyph-name="ncaron" unicode="&#x148;" horiz-adv-x="1234" 
d="M1065 1454l-299 -291h-102l-197 291h92l164 -229l248 229h94zM225 498l-96 -498h-90l194 995h89l-52 -264q74 131 190 206t257 75q181 0 267 -124.5t46 -330.5l-108 -557h-91l107 543q35 181 -32 282t-218 101q-165 0 -295 -120.5t-168 -307.5z" />
    <glyph glyph-name="Omacron" unicode="&#x14c;" horiz-adv-x="1757" 
d="M797 1833h577l-14 -76h-578zM1665 866q0 -175 -68.5 -336.5t-185 -281t-281 -191t-346.5 -71.5q-309 0 -500.5 190t-191.5 492q0 176 68.5 338.5t185.5 282t281 190.5t346 71q204 0 362 -87.5t244 -243t86 -353.5zM791 70q163 0 308.5 64.5t248.5 172.5t163 252.5
t60 300.5q0 267 -167 435.5t-437 168.5q-215 0 -396 -110t-283 -291.5t-102 -388.5q0 -267 167.5 -435.5t437.5 -168.5z" />
    <glyph glyph-name="omacron" unicode="&#x14d;" horiz-adv-x="1257" 
d="M449 1350h577l-14 -76h-578zM57 432q0 155 74.5 288t208 212.5t295.5 79.5q206 0 332.5 -126t126.5 -325q0 -155 -75 -287t-209 -210t-296 -78q-206 0 -331.5 123t-125.5 323zM999 559q0 162 -99 264.5t-267 102.5q-137 0 -248.5 -68t-173 -180t-61.5 -242
q0 -164 99.5 -266t266.5 -102q137 0 248.5 68.5t173 180.5t61.5 242z" />
    <glyph glyph-name="Obreve" unicode="&#x14e;" horiz-adv-x="1757" 
d="M1063 1747q90 0 155 51t82 139h76q-22 -121 -109.5 -191.5t-211.5 -70.5q-116 0 -185 75t-51 187h78q-13 -82 34 -136t132 -54zM1665 866q0 -175 -68.5 -336.5t-185 -281t-281 -191t-346.5 -71.5q-309 0 -500.5 190t-191.5 492q0 176 68.5 338.5t185.5 282t281 190.5
t346 71q204 0 362 -87.5t244 -243t86 -353.5zM791 70q163 0 308.5 64.5t248.5 172.5t163 252.5t60 300.5q0 267 -167 435.5t-437 168.5q-215 0 -396 -110t-283 -291.5t-102 -388.5q0 -267 167.5 -435.5t437.5 -168.5z" />
    <glyph glyph-name="obreve" unicode="&#x14f;" horiz-adv-x="1257" 
d="M717 1249q90 0 155 51.5t82 139.5h76q-22 -121 -109.5 -191.5t-211.5 -70.5q-116 0 -185 75t-51 187h78q-14 -82 33.5 -136.5t132.5 -54.5zM57 432q0 155 74.5 288t208 212.5t295.5 79.5q206 0 332.5 -126t126.5 -325q0 -155 -75 -287t-209 -210t-296 -78
q-206 0 -331.5 123t-125.5 323zM999 559q0 162 -99 264.5t-267 102.5q-137 0 -248.5 -68t-173 -180t-61.5 -242q0 -164 99.5 -266t266.5 -102q137 0 248.5 68.5t173 180.5t61.5 242z" />
    <glyph glyph-name="Ohungarumlaut" unicode="&#x150;" horiz-adv-x="1757" 
d="M897 1655h-78l252 291h98zM1182 1655h-78l254 291h102zM1665 866q0 -175 -68.5 -336.5t-185 -281t-281 -191t-346.5 -71.5q-309 0 -500.5 190t-191.5 492q0 176 68.5 338.5t185.5 282t281 190.5t346 71q204 0 362 -87.5t244 -243t86 -353.5zM791 70q163 0 308.5 64.5
t248.5 172.5t163 252.5t60 300.5q0 267 -167 435.5t-437 168.5q-215 0 -396 -110t-283 -291.5t-102 -388.5q0 -267 167.5 -435.5t437.5 -168.5z" />
    <glyph glyph-name="ohungarumlaut" unicode="&#x151;" horiz-adv-x="1257" 
d="M561 1163h-78l252 291h99zM846 1163h-78l254 291h102zM57 432q0 155 74.5 288t208 212.5t295.5 79.5q206 0 332.5 -126t126.5 -325q0 -155 -75 -287t-209 -210t-296 -78q-206 0 -331.5 123t-125.5 323zM999 559q0 162 -99 264.5t-267 102.5q-137 0 -248.5 -68t-173 -180
t-61.5 -242q0 -164 99.5 -266t266.5 -102q137 0 248.5 68.5t173 180.5t61.5 242z" />
    <glyph glyph-name="OE" unicode="&#x152;" horiz-adv-x="2060" 
d="M94 682q0 182 70.5 340.5t192.5 271.5t293.5 177.5t367.5 64.5h1122l-16 -86h-776l-123 -633h692l-19 -84h-690l-127 -649h799l-14 -84h-1067q-328 0 -516.5 187.5t-188.5 494.5zM791 84h198l266 1366h-245q-175 0 -328 -58.5t-260.5 -160t-169.5 -243.5t-62 -304
q0 -176 69.5 -310.5t206.5 -212t325 -77.5z" />
    <glyph glyph-name="oe" unicode="&#x153;" horiz-adv-x="2117" 
d="M1456 -14q-166 0 -284 92.5t-150 247.5q-66 -158 -203 -249t-311 -91q-204 0 -328.5 123.5t-124.5 322.5q0 154 74.5 287t207 213t290.5 80q171 0 285.5 -92.5t144.5 -245.5q66 155 193.5 246.5t293.5 91.5q188 0 308 -112t120 -284q0 -56 -22 -139h-858q0 -21 4 -71
q9 -148 111 -243t261 -95q198 0 377 133l-18 -97q-174 -118 -371 -118zM1876 553q6 54 6 61q0 136 -94.5 226t-245.5 90q-161 0 -281.5 -103.5t-158.5 -273.5h774zM518 68q136 0 248.5 69t173.5 180t61 238q0 165 -103.5 268t-270.5 103q-99 0 -188 -39.5t-152 -106
t-100 -156.5t-37 -188q0 -164 100.5 -266t267.5 -102z" />
    <glyph glyph-name="Racute" unicode="&#x154;" horiz-adv-x="1241" 
d="M864 1937h117l-297 -290h-86zM39 0l299 1536h332q219 0 346 -113.5t127 -304.5t-126 -327t-327 -175l340 -616h-104l-330 604q-16 -2 -47 -2h-301l-117 -602h-92zM666 1450h-252l-150 -762h295q211 0 349.5 120t138.5 306q0 155 -99.5 245.5t-281.5 90.5z" />
    <glyph glyph-name="racute" unicode="&#x155;" horiz-adv-x="675" 
d="M668 1454h116l-297 -291h-86zM688 911q-95 5 -192 -44.5t-173.5 -151t-101.5 -232.5l-94 -483h-88l192 995h88l-51 -268q80 133 196.5 209t244.5 76z" />
    <glyph glyph-name="Rcommaaccent" unicode="&#x156;" horiz-adv-x="1241" 
d="M39 0l299 1536h332q219 0 346 -113.5t127 -304.5t-126 -327t-327 -175l340 -616h-104l-330 604q-16 -2 -47 -2h-301l-117 -602h-92zM666 1450h-252l-150 -762h295q211 0 349.5 120t138.5 306q0 155 -99.5 245.5t-281.5 90.5zM430 -135h94l-188 -256h-68z" />
    <glyph glyph-name="rcommaaccent" unicode="&#x157;" horiz-adv-x="675" 
d="M688 911q-95 5 -192 -44.5t-173.5 -151t-101.5 -232.5l-94 -483h-88l192 995h88l-51 -268q80 133 196.5 209t244.5 76zM4 -135h94l-188 -256h-68z" />
    <glyph glyph-name="Rcaron" unicode="&#x158;" horiz-adv-x="1241" 
d="M1063 1937l-299 -290h-102l-197 290h92l164 -229l248 229h94zM39 0l299 1536h332q219 0 346 -113.5t127 -304.5t-126 -327t-327 -175l340 -616h-104l-330 604q-16 -2 -47 -2h-301l-117 -602h-92zM666 1450h-252l-150 -762h295q211 0 349.5 120t138.5 306
q0 155 -99.5 245.5t-281.5 90.5z" />
    <glyph glyph-name="rcaron" unicode="&#x159;" horiz-adv-x="675" 
d="M858 1454l-299 -291h-102l-197 291h92l164 -229l248 229h94zM688 911q-95 5 -192 -44.5t-173.5 -151t-101.5 -232.5l-94 -483h-88l192 995h88l-51 -268q80 133 196.5 209t244.5 76z" />
    <glyph glyph-name="Sacute" unicode="&#x15a;" horiz-adv-x="1126" 
d="M887 1937h117l-297 -290h-86zM657 1470q-159 0 -265.5 -82t-106.5 -219q0 -175 194 -282l252 -139q238 -129 238 -347q0 -126 -73 -222t-193.5 -144.5t-268.5 -48.5q-137 0 -261.5 44.5t-207.5 137.5l21 100q84 -101 204.5 -151.5t251.5 -50.5q188 0 311.5 88t123.5 241
q0 174 -189 275l-254 139q-241 133 -241 354q0 172 133.5 279.5t330.5 107.5q115 0 226 -38t198 -111l-22 -98q-78 80 -184.5 123.5t-217.5 43.5z" />
    <glyph glyph-name="sacute" unicode="&#x15b;" horiz-adv-x="909" 
d="M721 1454h117l-297 -291h-86zM0 207q66 -76 156.5 -112t189.5 -36q117 0 199 49.5t82 145.5q0 60 -34 100.5t-101 69.5l-189 82q-176 78 -176 233q0 125 98.5 199t243.5 74q177 0 309 -117l-18 -90q-121 133 -295 133q-107 0 -178.5 -51.5t-71.5 -138.5q0 -110 137 -168
l185 -80q178 -79 178 -234q0 -131 -108 -205.5t-269 -74.5q-106 0 -200.5 33t-155.5 98z" />
    <glyph glyph-name="Scircumflex" unicode="&#x15c;" horiz-adv-x="1126" 
d="M948 1647l-162 229l-249 -229h-95l299 290h103l198 -290h-94zM657 1470q-159 0 -265.5 -82t-106.5 -219q0 -175 194 -282l252 -139q238 -129 238 -347q0 -126 -73 -222t-193.5 -144.5t-268.5 -48.5q-137 0 -261.5 44.5t-207.5 137.5l21 100q84 -101 204.5 -151.5
t251.5 -50.5q188 0 311.5 88t123.5 241q0 174 -189 275l-254 139q-241 133 -241 354q0 172 133.5 279.5t330.5 107.5q115 0 226 -38t198 -111l-22 -98q-78 80 -184.5 123.5t-217.5 43.5z" />
    <glyph glyph-name="scircumflex" unicode="&#x15d;" horiz-adv-x="909" 
d="M739 1163l-161 230l-250 -230h-95l299 291h103l199 -291h-95zM0 207q66 -76 156.5 -112t189.5 -36q117 0 199 49.5t82 145.5q0 60 -34 100.5t-101 69.5l-189 82q-176 78 -176 233q0 125 98.5 199t243.5 74q177 0 309 -117l-18 -90q-121 133 -295 133q-107 0 -178.5 -51.5
t-71.5 -138.5q0 -110 137 -168l185 -80q178 -79 178 -234q0 -131 -108 -205.5t-269 -74.5q-106 0 -200.5 33t-155.5 98z" />
    <glyph glyph-name="Scedilla" unicode="&#x15e;" horiz-adv-x="1126" 
d="M539 -309q0 -83 -66.5 -128.5t-161.5 -45.5q-70 0 -139 37l10 57q61 -39 129 -39q66 0 111 31t45 88q0 43 -28 70.5t-72 27.5t-72 -12l-19 24l113 187q-125 6 -236.5 50.5t-187.5 129.5l21 100q84 -101 204.5 -151.5t251.5 -50.5q188 0 311.5 88t123.5 241
q0 174 -189 275l-254 139q-241 133 -241 354q0 172 133.5 279.5t330.5 107.5q115 0 226 -38t198 -111l-22 -98q-78 80 -184.5 123.5t-217.5 43.5q-159 0 -265.5 -82t-106.5 -219q0 -175 194 -282l252 -139q238 -129 238 -347q0 -183 -145 -295t-363 -120l-94 -148h14
q69 0 113.5 -40.5t44.5 -106.5z" />
    <glyph glyph-name="scedilla" unicode="&#x15f;" horiz-adv-x="909" 
d="M440 -309q0 -83 -66.5 -128.5t-160.5 -45.5q-70 0 -139 37l10 57q61 -39 129 -39q66 0 111 31t45 88q0 43 -28.5 70.5t-72.5 27.5q-43 0 -71 -12l-19 24l115 187q-204 13 -311 129l18 90q66 -76 156.5 -112t189.5 -36q117 0 199 49.5t82 145.5q0 60 -34 100.5t-101 69.5
l-189 82q-176 78 -176 233q0 125 98.5 199t243.5 74q177 0 309 -117l-18 -90q-121 133 -295 133q-107 0 -178.5 -51.5t-71.5 -138.5q0 -110 137 -168l185 -80q178 -79 178 -234q0 -126 -100 -200t-253 -80l-94 -148h15q69 0 113 -40.5t44 -106.5z" />
    <glyph glyph-name="Scaron" unicode="&#x160;" horiz-adv-x="1126" 
d="M1096 1937l-299 -290h-103l-196 290h92l164 -229l247 229h95zM657 1470q-159 0 -265.5 -82t-106.5 -219q0 -175 194 -282l252 -139q238 -129 238 -347q0 -126 -73 -222t-193.5 -144.5t-268.5 -48.5q-137 0 -261.5 44.5t-207.5 137.5l21 100q84 -101 204.5 -151.5
t251.5 -50.5q188 0 311.5 88t123.5 241q0 174 -189 275l-254 139q-241 133 -241 354q0 172 133.5 279.5t330.5 107.5q115 0 226 -38t198 -111l-22 -98q-78 80 -184.5 123.5t-217.5 43.5z" />
    <glyph glyph-name="scaron" unicode="&#x161;" horiz-adv-x="909" 
d="M872 1454l-299 -291h-102l-197 291h93l163 -229l248 229h94zM0 207q66 -76 156.5 -112t189.5 -36q117 0 199 49.5t82 145.5q0 60 -34 100.5t-101 69.5l-189 82q-176 78 -176 233q0 125 98.5 199t243.5 74q177 0 309 -117l-18 -90q-121 133 -295 133q-107 0 -178.5 -51.5
t-71.5 -138.5q0 -110 137 -168l185 -80q178 -79 178 -234q0 -131 -108 -205.5t-269 -74.5q-106 0 -200.5 33t-155.5 98z" />
    <glyph glyph-name="uni0162" unicode="&#x162;" horiz-adv-x="1263" 
d="M152 1450l18 86h1223l-17 -86h-565l-283 -1450h-92l283 1450h-567zM406 -135h94l-189 -256h-67z" />
    <glyph glyph-name="uni0163" unicode="&#x163;" horiz-adv-x="778" 
d="M612 55q-113 -69 -258 -69q-159 0 -229 88.5t-35 253.5l195 1003h88l-66 -336h461l-14 -82h-461l-117 -600q-23 -121 30.5 -184t164.5 -63q135 0 260 79zM246 -135h94l-188 -256h-68z" />
    <glyph glyph-name="Tcaron" unicode="&#x164;" horiz-adv-x="1263" 
d="M1155 1937l-299 -290h-102l-197 290h92l164 -229l248 229h94zM152 1450l18 86h1223l-17 -86h-565l-283 -1450h-92l283 1450h-567z" />
    <glyph glyph-name="tcaron" unicode="&#x165;" horiz-adv-x="778" 
d="M569 1174h-63l139 362h94zM612 55q-113 -69 -258 -69q-159 0 -229 88.5t-35 253.5l195 1003h88l-66 -336h461l-14 -82h-461l-117 -600q-23 -121 30.5 -184t164.5 -63q135 0 260 79z" />
    <glyph glyph-name="Tbar" unicode="&#x166;" horiz-adv-x="1263" 
d="M152 1450l18 86h1223l-17 -86h-565l-133 -680h274l-14 -76h-274l-136 -694h-92l135 694h-274l14 76h275l133 680h-567z" />
    <glyph glyph-name="tbar" unicode="&#x167;" horiz-adv-x="778" 
d="M612 55q-112 -69 -258 -69q-161 0 -230 88t-34 254l195 1003h88l-66 -336h463l-16 -82h-461l-68 -348h461l-16 -82h-461l-33 -170q-23 -119 28.5 -183t166.5 -64q133 0 260 79z" />
    <glyph glyph-name="Utilde" unicode="&#x168;" horiz-adv-x="1538" 
d="M1087 1722q-39 0 -84 26t-87.5 51.5t-73.5 25.5q-45 0 -75.5 -27.5t-39.5 -77.5h-63q28 183 174 183q39 0 85.5 -25.5t90 -51.5t73.5 -26q45 0 74.5 27t38.5 76h62q-12 -89 -57 -135t-118 -46zM133 639l176 897h92l-176 -899q-49 -248 74 -407.5t363 -159.5
q234 0 392 154.5t206 412.5l176 899h90l-172 -899q-58 -301 -239.5 -476t-457.5 -175q-188 0 -320.5 83t-186.5 232t-17 338z" />
    <glyph glyph-name="utilde" unicode="&#x169;" 
d="M825 1239q-39 0 -84 25.5t-87.5 51t-73.5 25.5q-45 0 -75.5 -27t-39.5 -77h-64q28 182 174 182q48 0 131.5 -51t118.5 -51q45 0 74.5 26.5t38.5 75.5h61q-12 -89 -56.5 -134.5t-117.5 -45.5zM866 428l109 567h90l-109 -565q-42 -214 -173 -329t-322 -115q-202 0 -305 121
t-64 323l109 565h88l-109 -569q-32 -167 49 -262.5t240 -95.5q153 0 258 95.5t139 264.5z" />
    <glyph glyph-name="Umacron" unicode="&#x16a;" horiz-adv-x="1538" 
d="M694 1833h578l-15 -76h-577zM133 639l176 897h92l-176 -899q-49 -248 74 -407.5t363 -159.5q234 0 392 154.5t206 412.5l176 899h90l-172 -899q-58 -301 -239.5 -476t-457.5 -175q-188 0 -320.5 83t-186.5 232t-17 338z" />
    <glyph glyph-name="umacron" unicode="&#x16b;" 
d="M408 1350h577l-14 -76h-578zM866 428l109 567h90l-109 -565q-42 -214 -173 -329t-322 -115q-202 0 -305 121t-64 323l109 565h88l-109 -569q-32 -167 49 -262.5t240 -95.5q153 0 258 95.5t139 264.5z" />
    <glyph glyph-name="Ubreve" unicode="&#x16c;" horiz-adv-x="1538" 
d="M954 1747q91 0 156 51t82 139h76q-22 -120 -110 -191t-212 -71q-116 0 -185 75t-50 187h77q-13 -82 34 -136t132 -54zM133 639l176 897h92l-176 -899q-49 -248 74 -407.5t363 -159.5q234 0 392 154.5t206 412.5l176 899h90l-172 -899q-58 -301 -239.5 -476t-457.5 -175
q-188 0 -320.5 83t-186.5 232t-17 338z" />
    <glyph glyph-name="ubreve" unicode="&#x16d;" 
d="M682 1249q90 0 155.5 51.5t82.5 139.5h75q-22 -121 -109.5 -191.5t-211.5 -70.5q-116 0 -185 75t-51 187h78q-14 -82 33.5 -136.5t132.5 -54.5zM866 428l109 567h90l-109 -565q-42 -214 -173 -329t-322 -115q-202 0 -305 121t-64 323l109 565h88l-109 -569
q-32 -167 49 -262.5t240 -95.5q153 0 258 95.5t139 264.5z" />
    <glyph glyph-name="Uring" unicode="&#x16e;" horiz-adv-x="1538" 
d="M946 1939q71 0 119.5 -44t48.5 -111q0 -84 -55 -137.5t-135 -53.5q-71 0 -118.5 44.5t-47.5 113.5q0 84 53.5 136t134.5 52zM813 1755q0 -47 32.5 -77.5t80.5 -30.5q58 0 95.5 37t37.5 94q0 47 -32 78.5t-81 31.5q-57 0 -95 -37.5t-38 -95.5zM133 639l176 897h92
l-176 -899q-49 -248 74 -407.5t363 -159.5q234 0 392 154.5t206 412.5l176 899h90l-172 -899q-58 -301 -239.5 -476t-457.5 -175q-188 0 -320.5 83t-186.5 232t-17 338z" />
    <glyph glyph-name="uring" unicode="&#x16f;" 
d="M702 1497q71 0 119.5 -44.5t48.5 -111.5q0 -84 -55 -137t-135 -53q-71 0 -118.5 44.5t-47.5 113.5q0 84 53.5 136t134.5 52zM569 1313q0 -47 32.5 -78t80.5 -31q58 0 95.5 37t37.5 94q0 48 -32 79.5t-81 31.5q-57 0 -95 -37.5t-38 -95.5zM866 428l109 567h90l-109 -565
q-42 -214 -173 -329t-322 -115q-202 0 -305 121t-64 323l109 565h88l-109 -569q-32 -167 49 -262.5t240 -95.5q153 0 258 95.5t139 264.5z" />
    <glyph glyph-name="Uhungarumlaut" unicode="&#x170;" horiz-adv-x="1538" 
d="M768 1647h-78l252 290h98zM1053 1647h-78l254 290h102zM133 639l176 897h92l-176 -899q-49 -248 74 -407.5t363 -159.5q234 0 392 154.5t206 412.5l176 899h90l-172 -899q-58 -301 -239.5 -476t-457.5 -175q-188 0 -320.5 83t-186.5 232t-17 338z" />
    <glyph glyph-name="uhungarumlaut" unicode="&#x171;" 
d="M520 1163h-78l252 291h99zM805 1163h-78l254 291h102zM866 428l109 567h90l-109 -565q-42 -214 -173 -329t-322 -115q-202 0 -305 121t-64 323l109 565h88l-109 -569q-32 -167 49 -262.5t240 -95.5q153 0 258 95.5t139 264.5z" />
    <glyph glyph-name="Uogonek" unicode="&#x172;" horiz-adv-x="1536" 
d="M807 -461q-68 -22 -113 -22q-71 0 -115 43t-44 114q0 90 59 171.5t160 146.5q-46 -6 -97 -6q-189 0 -321.5 83t-186 232t-16.5 338l176 897h92l-176 -899q-50 -248 72.5 -407.5t364.5 -159.5q235 0 392 155.5t206 411.5l176 899h92l-174 -897q-45 -235 -166.5 -396
t-306.5 -223q-117 -66 -191.5 -153.5t-73.5 -177.5q2 -50 31 -79.5t78 -29.5q46 0 94 23z" />
    <glyph glyph-name="uogonek" unicode="&#x173;" 
d="M584 -461q-68 -22 -113 -22q-72 0 -116 42.5t-44 114.5q-1 87 61.5 169t168.5 147q-50 -4 -76 -4q-203 0 -307.5 121t-65.5 323l109 565h88l-109 -569q-32 -167 49 -262.5t240 -95.5q153 0 258 95.5t139 264.5l109 567h90l-109 -565q-56 -277 -249 -385
q-133 -69 -223 -167t-89 -191q2 -50 30 -78.5t77 -28.5q46 0 94 23z" />
    <glyph glyph-name="Wcircumflex" unicode="&#x174;" horiz-adv-x="2316" 
d="M1530 1647l-162 229l-250 -229h-94l299 290h102l199 -290h-94zM2433 1536l-913 -1563l-250 1356l-768 -1356l-322 1563h99l262 -1329l766 1356l254 -1360l766 1333h106z" />
    <glyph glyph-name="wcircumflex" unicode="&#x175;" horiz-adv-x="1695" 
d="M1133 1163l-162 230l-250 -230h-94l299 291h102l199 -291h-94zM1706 995l-629 -1022l-207 861l-551 -861l-237 1022h96l182 -821l541 848l207 -842l496 815h102z" />
    <glyph glyph-name="Ycircumflex" unicode="&#x176;" horiz-adv-x="1271" 
d="M1016 1647l-162 229l-250 -229h-94l299 290h102l199 -290h-94zM1401 1536l-748 -936l-116 -600h-93l115 592l-389 944h100l346 -854l674 854h111z" />
    <glyph glyph-name="ycircumflex" unicode="&#x177;" horiz-adv-x="1030" 
d="M801 1163l-162 230l-250 -230h-94l299 291h102l199 -291h-94zM1040 995l-1026 -1507h-98l444 653l-288 854h96l252 -766l520 766h100z" />
    <glyph glyph-name="Ydieresis" unicode="&#x178;" horiz-adv-x="1271" 
d="M637 1735q-27 0 -44.5 17.5t-17.5 43.5q0 32 20.5 52t51.5 20q29 0 46.5 -18.5t17.5 -45.5q0 -31 -21 -50t-53 -19zM1032 1735q-28 0 -45.5 17.5t-17.5 43.5q0 32 21 52t52 20q27 0 44.5 -18.5t17.5 -45.5q0 -32 -20.5 -50.5t-51.5 -18.5zM1401 1536l-748 -936l-116 -600
h-93l115 592l-389 944h100l346 -854l674 854h111z" />
    <glyph glyph-name="Zacute" unicode="&#x179;" horiz-adv-x="1234" 
d="M942 1937h117l-297 -290h-86zM1053 82l-17 -82h-1145l1258 1452h-936l16 84h1102l-1257 -1454h979z" />
    <glyph glyph-name="zacute" unicode="&#x17a;" horiz-adv-x="933" 
d="M692 1454h117l-297 -291h-86zM750 82l-17 -82h-835l817 913h-617l17 82h776l-815 -913h674z" />
    <glyph glyph-name="Zdotaccent" unicode="&#x17b;" horiz-adv-x="1234" 
d="M815 1731q-30 0 -48.5 18.5t-18.5 46.5q0 31 21.5 52.5t53.5 21.5q29 0 47.5 -19t18.5 -47q0 -33 -21 -53t-53 -20zM1053 82l-17 -82h-1145l1258 1452h-936l16 84h1102l-1257 -1454h979z" />
    <glyph glyph-name="zdotaccent" unicode="&#x17c;" horiz-adv-x="933" 
d="M547 1233q-30 0 -49 18.5t-19 46.5q0 31 22 52.5t54 21.5q29 0 47.5 -18.5t18.5 -46.5q0 -33 -21.5 -53.5t-52.5 -20.5zM750 82l-17 -82h-835l817 913h-617l17 82h776l-815 -913h674z" />
    <glyph glyph-name="Zcaron" unicode="&#x17d;" horiz-adv-x="1234" 
d="M1145 1937l-299 -290h-103l-196 290h92l164 -229l248 229h94zM1053 82l-17 -82h-1145l1258 1452h-936l16 84h1102l-1257 -1454h979z" />
    <glyph glyph-name="zcaron" unicode="&#x17e;" horiz-adv-x="933" 
d="M879 1454l-299 -291h-103l-196 291h92l164 -229l247 229h95zM750 82l-17 -82h-835l817 913h-617l17 82h776l-815 -913h674z" />
    <glyph glyph-name="florin" unicode="&#x192;" horiz-adv-x="966" 
d="M346 268q-101 -282 -350 -282q-94 0 -176 37l16 81q77 -41 164 -41q185 0 266 222l334 925q127 340 397 340q96 0 168 -41l-16 -86q-68 45 -152 45q-110 0 -187.5 -67.5t-119.5 -183.5l-80 -222h379l-14 -82h-395z" />
    <glyph glyph-name="uni0218" unicode="&#x218;" horiz-adv-x="1126" 
d="M657 1470q-159 0 -265.5 -82t-106.5 -219q0 -175 194 -282l252 -139q238 -129 238 -347q0 -126 -73 -222t-193.5 -144.5t-268.5 -48.5q-137 0 -261.5 44.5t-207.5 137.5l21 100q84 -101 204.5 -151.5t251.5 -50.5q188 0 311.5 88t123.5 241q0 174 -189 275l-254 139
q-241 133 -241 354q0 172 133.5 279.5t330.5 107.5q115 0 226 -38t198 -111l-22 -98q-78 80 -184.5 123.5t-217.5 43.5zM377 -135h94l-188 -256h-68z" />
    <glyph glyph-name="uni0219" unicode="&#x219;" horiz-adv-x="909" 
d="M0 207q66 -76 156.5 -112t189.5 -36q117 0 199 49.5t82 145.5q0 60 -34 100.5t-101 69.5l-189 82q-176 78 -176 233q0 125 98.5 199t243.5 74q177 0 309 -117l-18 -90q-121 133 -295 133q-107 0 -178.5 -51.5t-71.5 -138.5q0 -110 137 -168l185 -80q178 -79 178 -234
q0 -131 -108 -205.5t-269 -74.5q-106 0 -200.5 33t-155.5 98zM270 -135h95l-189 -256h-67z" />
    <glyph glyph-name="uni021A" unicode="&#x21a;" horiz-adv-x="1263" 
d="M152 1450l18 86h1223l-17 -86h-565l-283 -1450h-92l283 1450h-567zM406 -135h94l-189 -256h-67z" />
    <glyph glyph-name="uni021B" unicode="&#x21b;" horiz-adv-x="778" 
d="M612 55q-113 -69 -258 -69q-159 0 -229 88.5t-35 253.5l195 1003h88l-66 -336h461l-14 -82h-461l-117 -600q-23 -121 30.5 -184t164.5 -63q135 0 260 79zM246 -135h94l-188 -256h-68z" />
    <glyph glyph-name="dotlessj" unicode="&#x237;" horiz-adv-x="464" 
d="M-225 -526q-97 0 -178 59l16 76q80 -55 156 -55q90 0 148 57.5t79 161.5l235 1222h91l-238 -1218q-61 -303 -309 -303z" />
    <glyph glyph-name="circumflex" unicode="&#x2c6;" horiz-adv-x="882" 
d="M723 1163l-162 230l-250 -230h-94l299 291h102l199 -291h-94z" />
    <glyph glyph-name="caron" unicode="&#x2c7;" horiz-adv-x="882" 
d="M872 1454l-299 -291h-102l-197 291h93l163 -229l248 229h94z" />
    <glyph glyph-name="breve" unicode="&#x2d8;" horiz-adv-x="882" 
d="M535 1249q90 0 155 51.5t82 139.5h76q-22 -120 -110 -191t-212 -71q-116 0 -185 75t-50 187h78q-14 -82 33.5 -136.5t132.5 -54.5z" />
    <glyph glyph-name="dotaccent" unicode="&#x2d9;" horiz-adv-x="882" 
d="M541 1233q-30 0 -49 18.5t-19 46.5q0 31 22 52.5t54 21.5q29 0 47 -18.5t18 -46.5q0 -33 -21 -53.5t-52 -20.5z" />
    <glyph glyph-name="ring" unicode="&#x2da;" horiz-adv-x="882" 
d="M557 1497q71 0 119.5 -44.5t48.5 -111.5q0 -84 -55 -137t-135 -53q-71 0 -118.5 44.5t-47.5 113.5q0 84 53.5 136t134.5 52zM424 1313q0 -47 32.5 -78t80.5 -31q58 0 95.5 37t37.5 94q0 48 -32 79.5t-81 31.5q-57 0 -95 -37.5t-38 -95.5z" />
    <glyph glyph-name="ogonek" unicode="&#x2db;" horiz-adv-x="884" 
d="M76 -324q0 115 98.5 209.5t255.5 157.5l8 -43q-127 -63 -203 -141.5t-75 -169.5q2 -51 30.5 -80t77.5 -29q46 0 94 23l-12 -64q-68 -22 -112 -22q-72 0 -117 43.5t-45 115.5z" />
    <glyph glyph-name="tilde" unicode="&#x2dc;" horiz-adv-x="882" 
d="M676 1239q-39 0 -84.5 25.5t-88 51t-73.5 25.5q-45 0 -75.5 -27t-39.5 -77h-63q28 182 174 182q48 0 131.5 -51t118.5 -51q45 0 74 26.5t38 75.5h62q-12 -89 -56.5 -134.5t-117.5 -45.5z" />
    <glyph glyph-name="hungarumlaut" unicode="&#x2dd;" horiz-adv-x="882" 
d="M408 1163h-78l252 291h98zM692 1163h-78l254 291h103z" />
    <glyph glyph-name="uni0394" unicode="&#x394;" horiz-adv-x="1478" 
d="M893 1563l405 -1563h-1417zM31 82h1157l-328 1284z" />
    <glyph glyph-name="uni03A9" unicode="&#x3a9;" horiz-adv-x="1511" 
d="M598 340l-66 -340h-479l17 82h395l41 209q-164 75 -253 220t-89 333q0 193 89 354.5t248 256.5t353 95q252 0 403.5 -155t151.5 -402q0 -255 -162 -449t-432 -263l-39 -199h398l-17 -82h-479l67 340q258 52 416 233.5t158 417.5q0 210 -127 342.5t-342 132.5
q-171 0 -309.5 -86t-213.5 -227.5t-75 -308.5q0 -176 89 -309t257 -195z" />
    <glyph glyph-name="mu" unicode="&#x3bc;" horiz-adv-x="1222" 
d="M152 145l-127 -657h-84l290 1507h88l-108 -565q-30 -157 38 -259.5t216 -102.5q152 0 278 114.5t160 286.5l103 526h90l-195 -995h-88l49 250q-72 -121 -184 -192.5t-240 -71.5q-97 0 -171 42.5t-115 116.5z" />
    <glyph glyph-name="pi" unicode="&#x3c0;" horiz-adv-x="1544" 
d="M1315 8q-83 -22 -137 -22q-110 0 -159 63.5t-26 183.5l133 680h-649l-178 -913h-92l178 913h-268l16 82h1366l-16 -82h-266l-134 -677q-17 -84 14.5 -128.5t102.5 -44.5q52 0 131 27z" />
    <glyph glyph-name="Wgrave" unicode="&#x1e80;" horiz-adv-x="2316" 
d="M1108 1937h113l184 -290h-80zM2433 1536l-913 -1563l-250 1356l-768 -1356l-322 1563h99l262 -1329l766 1356l254 -1360l766 1333h106z" />
    <glyph glyph-name="wgrave" unicode="&#x1e81;" horiz-adv-x="1695" 
d="M707 1454h112l185 -291h-80zM1706 995l-629 -1022l-207 861l-551 -861l-237 1022h96l182 -821l541 848l207 -842l496 815h102z" />
    <glyph glyph-name="Wacute" unicode="&#x1e82;" horiz-adv-x="2316" 
d="M1485 1937h117l-297 -290h-86zM2433 1536l-913 -1563l-250 1356l-768 -1356l-322 1563h99l262 -1329l766 1356l254 -1360l766 1333h106z" />
    <glyph glyph-name="wacute" unicode="&#x1e83;" horiz-adv-x="1695" 
d="M1100 1454h117l-297 -291h-86zM1706 995l-629 -1022l-207 861l-551 -861l-237 1022h96l182 -821l541 848l207 -842l496 815h102z" />
    <glyph glyph-name="Wdieresis" unicode="&#x1e84;" horiz-adv-x="2316" 
d="M1149 1735q-27 0 -44.5 17.5t-17.5 43.5q0 32 20.5 52t51.5 20q29 0 46.5 -18.5t17.5 -45.5q0 -31 -21 -50t-53 -19zM1544 1735q-28 0 -45.5 17.5t-17.5 43.5q0 32 21 52t52 20q27 0 44.5 -18.5t17.5 -45.5q0 -32 -20.5 -50.5t-51.5 -18.5zM2433 1536l-913 -1563
l-250 1356l-768 -1356l-322 1563h99l262 -1329l766 1356l254 -1360l766 1333h106z" />
    <glyph glyph-name="wdieresis" unicode="&#x1e85;" horiz-adv-x="1695" 
d="M745 1237q-27 0 -44 17t-17 44q0 32 20.5 52t51.5 20q29 0 46 -18t17 -45q0 -32 -21 -51t-53 -19zM1141 1237q-28 0 -46 17.5t-18 43.5q0 32 21.5 52t52.5 20q27 0 44 -18t17 -45q0 -32 -20 -51t-51 -19zM1706 995l-629 -1022l-207 861l-551 -861l-237 1022h96l182 -821
l541 848l207 -842l496 815h102z" />
    <glyph glyph-name="Ygrave" unicode="&#x1ef2;" horiz-adv-x="1271" 
d="M567 1937h113l184 -290h-80zM1401 1536l-748 -936l-116 -600h-93l115 592l-389 944h100l346 -854l674 854h111z" />
    <glyph glyph-name="ygrave" unicode="&#x1ef3;" horiz-adv-x="1030" 
d="M373 1454h112l185 -291h-80zM1040 995l-1026 -1507h-98l444 653l-288 854h96l252 -766l520 766h100z" />
    <glyph glyph-name="endash" unicode="&#x2013;" horiz-adv-x="1024" 
d="M-27 561l17 82h995l-16 -82h-996z" />
    <glyph glyph-name="emdash" unicode="&#x2014;" horiz-adv-x="2048" 
d="M-10 643h2019l-16 -82h-2020z" />
    <glyph glyph-name="quoteleft" unicode="&#x2018;" horiz-adv-x="389" 
d="M399 1536h70l-182 -266q23 -8 37 -26.5t14 -43.5q0 -32 -24 -55t-58 -23q-31 0 -51.5 20.5t-20.5 51.5q0 32 35 84z" />
    <glyph glyph-name="quoteright" unicode="&#x2019;" horiz-adv-x="389" 
d="M209 1137h-70l185 264q-24 8 -38 26.5t-14 42.5q0 34 23 56t57 22q31 0 52.5 -20.5t21.5 -50.5q0 -6 -1 -12.5t-3.5 -13t-4.5 -11t-6.5 -12t-6.5 -10.5t-7.5 -12t-7.5 -11z" />
    <glyph glyph-name="quotesinglbase" unicode="&#x201a;" horiz-adv-x="389" 
d="M-63 -276h-70l180 264q-49 16 -49 67q0 32 23 55t57 23q31 0 51.5 -20.5t20.5 -51.5q0 -7 -1 -13t-3 -13t-3.5 -11t-6 -11.5t-6.5 -10t-8 -11.5t-7 -11z" />
    <glyph glyph-name="quotedblleft" unicode="&#x201c;" horiz-adv-x="681" 
d="M694 1536h68l-182 -266q23 -8 37 -26.5t14 -43.5q0 -32 -24 -55t-56 -23t-53 20.5t-21 51.5q0 7 1 13.5t3.5 13.5t4 11.5t6.5 12t6.5 10.5t8 12t7.5 11zM399 1536h70l-182 -266q23 -8 37 -26.5t14 -43.5q0 -32 -24 -55t-58 -23q-31 0 -51.5 20.5t-20.5 51.5q0 32 35 84z
" />
    <glyph glyph-name="quotedblright" unicode="&#x201d;" horiz-adv-x="681" 
d="M209 1137h-70l185 264q-24 8 -38 26.5t-14 42.5q0 34 23 56t57 22q31 0 52.5 -20.5t21.5 -50.5q0 -6 -1 -12.5t-3.5 -13t-4.5 -11t-6.5 -12t-6.5 -10.5t-7.5 -12t-7.5 -11zM502 1137h-70l184 264q-23 8 -37 26t-14 43q0 34 23 56t57 22q32 0 53 -20t21 -51q0 -6 -1 -12.5
t-3.5 -13t-4.5 -11t-6.5 -12t-6.5 -10.5t-7.5 -12t-7.5 -11z" />
    <glyph glyph-name="quotedblbase" unicode="&#x201e;" horiz-adv-x="681" 
d="M-63 -276h-70l180 264q-49 16 -49 67q0 32 23 55t57 23q31 0 51.5 -20.5t20.5 -51.5q0 -7 -1 -13t-3 -13t-3.5 -11t-6 -11.5t-6.5 -10t-8 -11.5t-7 -11zM227 -276h-69l184 264q-51 15 -51 67q0 32 23 55t57 23q31 0 51 -20.5t20 -51.5q0 -34 -34 -81z" />
    <glyph glyph-name="dagger" unicode="&#x2020;" horiz-adv-x="911" 
d="M881 1143h-318l-143 -733h-70l144 733h-320l14 69h318l63 324h70l-64 -324h320z" />
    <glyph glyph-name="daggerdbl" unicode="&#x2021;" horiz-adv-x="911" 
d="M735 395h-317l-78 -395h-70l78 395h-319l14 70h317l119 604h-319l14 70h318l77 397h70l-78 -397h320l-15 -70h-317l-119 -604h320z" />
    <glyph glyph-name="bullet" unicode="&#x2022;" horiz-adv-x="673" 
d="M295 442q-67 0 -108.5 41t-41.5 103q0 69 47.5 116.5t116.5 47.5q66 0 108 -42.5t42 -107.5q0 -68 -47 -113t-117 -45z" />
    <glyph glyph-name="ellipsis" unicode="&#x2026;" 
d="M55 -14q-34 0 -53.5 19.5t-19.5 51.5q0 35 23.5 57.5t57.5 22.5t55 -21t21 -53q0 -35 -25 -56t-59 -21zM842 -14q-34 0 -55 19.5t-21 51.5q0 35 24 57.5t60 22.5q32 0 53 -21t21 -53q0 -35 -24 -56t-58 -21zM449 -14q-34 0 -55 19.5t-21 51.5q0 35 24.5 57.5t59.5 22.5
q33 0 54 -20.5t21 -53.5q0 -36 -24 -56.5t-59 -20.5z" />
    <glyph glyph-name="perthousand" unicode="&#x2030;" horiz-adv-x="2672" 
d="M543 1550q143 0 232 -89.5t89 -227.5q0 -159 -114 -269t-273 -110q-144 0 -232.5 91t-88.5 229q0 158 113.5 267t273.5 109zM115 0l1503 1536h100l-1503 -1536h-100zM233 1178q0 -108 68.5 -180t181.5 -72q127 0 216 89.5t89 215.5q0 108 -67 178t-180 70
q-128 0 -218 -88.5t-90 -212.5zM952 303q0 157 114 267t273 110q143 0 233.5 -91t90.5 -229q0 -158 -114 -266t-275 -108q-144 0 -233 89.5t-89 227.5zM1806 303q0 157 114 267t273 110q143 0 232.5 -91t89.5 -229q0 -158 -113.5 -266t-273.5 -108q-144 0 -233 89.5
t-89 227.5zM1585 358q0 108 -67.5 179t-180.5 71q-128 0 -217.5 -89t-89.5 -214q0 -107 68.5 -178.5t181.5 -71.5q127 0 216 88.5t89 214.5zM2439 358q0 108 -67.5 179t-180.5 71q-128 0 -217.5 -89t-89.5 -214q0 -107 68.5 -178.5t181.5 -71.5q127 0 216 88.5t89 214.5z
" />
    <glyph glyph-name="guilsinglleft" unicode="&#x2039;" horiz-adv-x="598" 
d="M512 934l-377 -397l234 -398h-95l-233 402l369 393h102z" />
    <glyph glyph-name="guilsinglright" unicode="&#x203a;" horiz-adv-x="598" 
d="M465 530l-369 -391h-102l375 400l-232 395h92z" />
    <glyph glyph-name="fraction" unicode="&#x2044;" horiz-adv-x="976" 
d="M-186 0h-101l1450 1536h101z" />
    <glyph glyph-name="zerosuperior" unicode="&#x2070;" horiz-adv-x="989" 
d="M932 1161q0 -85 -18.5 -167.5t-56 -155t-89.5 -127.5t-123.5 -87t-152.5 -32q-154 0 -236 106.5t-82 282.5q0 108 30.5 210t86 182t141 128.5t186.5 48.5q152 0 233 -105.5t81 -283.5zM496 662q111 0 195 76.5t123.5 188t39.5 234.5q0 147 -60.5 234.5t-181.5 87.5
q-83 0 -153 -44t-114 -116t-68.5 -160.5t-24.5 -179.5q0 -146 62 -233.5t182 -87.5z" />
    <glyph glyph-name="foursuperior" unicode="&#x2074;" horiz-adv-x="806" 
d="M784 809h-147l-41 -209h-76l41 209h-557l514 727h84l-463 -659h436l70 354h76l-70 -354h146z" />
    <glyph glyph-name="Euro" unicode="&#x20ac;" horiz-adv-x="1368" 
d="M1161 51q-147 -65 -352 -65q-262 0 -422.5 157.5t-189.5 413.5h-179l15 82h157v25q0 113 29 235h-135l16 82h144q88 255 296.5 412t483.5 157q250 0 416 -120l-43 -74q-154 110 -375 110q-237 0 -417.5 -133.5t-262.5 -351.5h846l-45 -82h-828q-28 -112 -28 -225v-35h712
l-45 -82h-659q30 -220 168 -353.5t364 -133.5q82 0 179 19.5t176 57.5z" />
    <glyph glyph-name="uni20B9" unicode="&#x20b9;" horiz-adv-x="1239" 
d="M225 1450l17 86h1085l-14 -78h-514q99 -60 156 -154.5t57 -209.5h229l-14 -78h-219q-24 -159 -143.5 -272.5t-291.5 -149.5l326 -594h-104l-316 582q-16 -2 -47 -2h-371l17 86h356q188 0 318.5 95.5t156.5 254.5h-770l17 78h759q-3 159 -112 257.5t-281 98.5h-297z" />
    <glyph glyph-name="uni2113" unicode="&#x2113;" horiz-adv-x="962" 
d="M606 53q-109 -67 -239 -67q-124 0 -189 78t-41 206l25 131q-65 -10 -121 -10h-76l19 86h71q64 0 125 12l152 785q24 124 98 200t188 76q117 0 173.5 -81t31.5 -203l-39 -203q-52 -257 -192 -419t-334 -220l-29 -152q-17 -88 30.5 -144t133.5 -56q103 0 232 71zM424 1274
l-148 -758q157 59 267 199.5t153 357.5l39 199q14 83 -17.5 138.5t-107.5 55.5q-74 0 -122 -53t-64 -139z" />
    <glyph glyph-name="trademark" unicode="&#x2122;" horiz-adv-x="1591" 
d="M1190 1112l-221 293l-90 -459h-66l121 608l266 -356l412 356l-119 -608h-63l86 445zM190 1475l13 61h594l-13 -61h-264l-102 -529h-66l103 529h-265z" />
    <glyph glyph-name="estimated" unicode="&#x212e;" horiz-adv-x="1597" 
d="M1483 631h-1194q-10 0 -10 -8v-361q0 -25 16 -41q88 -93 205 -144.5t248 -51.5q139 0 262 58.5t213 160.5h106q-101 -119 -254.5 -187.5t-329.5 -68.5q-201 0 -370.5 88t-268 240.5t-98.5 332.5q0 181 98.5 333.5t268 241.5t370.5 89q150 0 287 -52.5t235.5 -141.5
t157 -212t58.5 -258v-18zM1212 678v364q0 25 -18 43q-89 89 -204 139t-242 50q-129 0 -246 -52t-205 -143q-18 -18 -18 -45v-356q0 -10 10 -10h915q8 0 8 10z" />
    <glyph glyph-name="partialdiff" unicode="&#x2202;" horiz-adv-x="1163" 
d="M1057 772q0 -133 -24.5 -251.5t-74 -216.5t-120.5 -168.5t-169 -110t-214 -39.5q-201 0 -320 118.5t-119 307.5q0 150 70 277.5t196.5 203.5t280.5 76q142 0 249.5 -75t154.5 -206q7 57 4 107q-6 286 -155 468t-374 191l17 78q127 -6 237 -63.5t190 -155t125.5 -237.5
t45.5 -304zM109 418q0 -156 96 -253t258 -97q135 0 244 65.5t167 169.5t58 223q0 155 -102 257t-265 102q-128 0 -233.5 -64t-164 -171t-58.5 -232z" />
    <glyph glyph-name="product" unicode="&#x220f;" horiz-adv-x="1439" 
d="M-20 -315l358 1851h1063l-361 -1851h-92l344 1767h-878l-344 -1767h-90z" />
    <glyph glyph-name="summation" unicode="&#x2211;" horiz-adv-x="1480" 
d="M-20 -233l905 868l-580 817l17 82h1151l-17 -82h-1038l590 -823l-904 -862h1024l-16 -82h-1149z" />
    <glyph glyph-name="minus" unicode="&#x2212;" horiz-adv-x="1087" 
d="M102 743l17 82h870l-14 -82h-873z" />
    <glyph glyph-name="uni2215" unicode="&#x2215;" horiz-adv-x="976" 
d="M-186 0h-101l1450 1536h101z" />
    <glyph glyph-name="radical" unicode="&#x221a;" horiz-adv-x="1499" 
d="M1620 1536l-1010 -1563l-241 940h-310l17 82h364l207 -823l879 1364h94z" />
    <glyph glyph-name="infinity" unicode="&#x221e;" horiz-adv-x="1888" 
d="M1378 350q-73 0 -135.5 25t-116.5 75t-92.5 97t-90.5 119q-7 11 -11 16q-42 -50 -59 -69.5t-58 -64t-65 -64.5t-65.5 -51.5t-75.5 -45.5t-78 -25.5t-89 -11.5q-156 0 -247 104t-91 263q0 118 51 218.5t144.5 161t208.5 60.5q50 0 94.5 -11.5t85.5 -37.5t71.5 -50.5
t69 -70t60 -74.5t61.5 -84q110 134 167 187q152 141 317 141q157 0 249.5 -106t92.5 -267q0 -183 -113 -308.5t-285 -125.5zM1421 1073q-37 0 -73 -8.5t-64 -21t-60 -35.5t-53 -41t-51 -51t-45.5 -52t-45 -56t-42.5 -52q13 -18 41 -58.5t41.5 -59.5t40.5 -52.5t45 -50.5
t46 -40t53 -34t57.5 -19t66.5 -8q137 0 222.5 102t85.5 246q0 126 -70 208.5t-195 82.5zM506 1073q-136 0 -224.5 -103.5t-88.5 -248.5q0 -124 70 -205.5t192 -81.5q49 0 96.5 16t81.5 36.5t75.5 59.5t64.5 65.5t63.5 76t58.5 70.5q-10 14 -35.5 51t-36.5 52t-35 46.5
t-39 46t-39 38t-44.5 34.5t-46.5 24t-54 18t-59 5z" />
    <glyph glyph-name="integral" unicode="&#x222b;" horiz-adv-x="714" 
d="M-100 -526q-100 0 -172 57l18 86q68 -59 158 -59q82 0 137 53.5t74 144.5l291 1495q27 135 109 217t204 82q95 0 170 -57l-19 -84q-62 59 -153 59q-87 0 -143 -57t-76 -151l-291 -1500q-27 -141 -108.5 -213.5t-198.5 -72.5z" />
    <glyph glyph-name="approxequal" unicode="&#x2248;" horiz-adv-x="1087" 
d="M395 1083q58 0 125.5 -26.5t136 -53t131.5 -26.5q135 0 254 106l-18 -96q-113 -96 -246 -96q-67 0 -137 26.5t-135.5 53t-120.5 26.5q-121 0 -254 -110l19 94q127 102 245 102zM311 659q58 0 125.5 -26.5t136.5 -53t132 -26.5q134 0 253 106l-18 -96q-113 -96 -246 -96
q-67 0 -137 26.5t-135 53t-119 26.5q-123 0 -256 -110l19 94q127 102 245 102z" />
    <glyph glyph-name="notequal" unicode="&#x2260;" horiz-adv-x="1087" 
d="M932 522h-533l-188 -248h-88l188 248h-254l17 82h299l260 342h-492l17 82h538l178 236h89l-179 -236h246l-16 -82h-293l-260 -342h487z" />
    <glyph glyph-name="lessequal" unicode="&#x2264;" horiz-adv-x="1087" 
d="M889 631l-17 -86l-708 360l18 96l848 367l-16 -94l-766 -324zM113 641l704 -377l-16 -86l-707 375z" />
    <glyph glyph-name="greaterequal" unicode="&#x2265;" horiz-adv-x="1087" 
d="M977 905l-848 -360l16 92l766 321l-639 322l17 88l706 -367zM926 641l-19 -88l-850 -377l17 90z" />
    <glyph glyph-name="lozenge" unicode="&#x25ca;" horiz-adv-x="1191" 
d="M1081 688l-643 -723l-360 723l643 725zM178 682l281 -578l528 594l-285 578z" />
    <glyph glyph-name="commaaccent" unicode="&#xf6c3;" horiz-adv-x="882" 
d="M270 -135h95l-189 -256h-67z" />
    <glyph glyph-name="CR" horiz-adv-x="0" 
 />
    <glyph glyph-name="a.alt" horiz-adv-x="1196" 
d="M1051 995l-193 -995h-342q-205 0 -334 118t-129 316q0 114 44.5 217.5t122 179t187 120t232.5 44.5h412zM946 913h-311q-140 0 -253 -64t-175 -171t-62 -234q0 -166 103.5 -264t273.5 -98h262z" />
    <glyph glyph-name="a.alt2" horiz-adv-x="1116" 
d="M221 913l17 82h733l-193 -995h-454q-133 0 -216 77t-83 202q0 147 108.5 241t269.5 94h404l57 299h-643zM793 532h-398q-120 0 -199 -71t-79 -178q0 -91 61.5 -147t159.5 -56h367z" />
    <glyph glyph-name="b.alt" horiz-adv-x="1198" 
d="M451 0h-412l299 1536h88l-107 -541h256q205 0 333 -122t128 -324q0 -152 -74.5 -277.5t-209 -198.5t-301.5 -73zM143 82h314q212 0 348.5 133.5t136.5 329.5q0 167 -103 267.5t-272 100.5h-262z" />
    <glyph glyph-name="d.alt" horiz-adv-x="1196" 
d="M53 434q0 114 44.5 217.5t122 179t187 120t232.5 44.5h324l104 541h90l-299 -1536h-342q-205 0 -334 118t-129 316zM946 913h-311q-140 0 -253 -64t-175 -171t-62 -234q0 -166 103.5 -264t273.5 -98h262z" />
    <glyph glyph-name="e.alt" horiz-adv-x="1091" 
d="M821 84l-16 -84h-787l123 629q36 182 169.5 282.5t316.5 100.5q155 0 252.5 -75t97.5 -208q0 -147 -114 -231t-288 -84h-387l-63 -330h696zM205 494h375q135 0 221 61t86 170q0 99 -75 152t-191 53q-146 0 -255 -79t-135 -214z" />
    <glyph glyph-name="e.alt2" horiz-adv-x="1101" 
d="M39 0l192 995h807l-45 -239q-28 -148 -132.5 -233t-262.5 -85h-387l-68 -356h711l-16 -82h-799zM932 913h-629l-76 -395h375q118 0 198.5 64t100.5 172z" />
    <glyph glyph-name="h.alt2" horiz-adv-x="1210" 
d="M426 1536l-104 -541h745l-195 -995h-88l177 913h-656l-178 -913h-88l299 1536h88z" />
    <glyph glyph-name="m.alt2" horiz-adv-x="1824" 
d="M39 0l192 995h1450l-194 -995h-88l176 913h-592l-176 -913h-88l176 913h-592l-176 -913h-88z" />
    <glyph glyph-name="n.alt2" horiz-adv-x="1210" 
d="M39 0l192 995h836l-195 -995h-88l177 913h-658l-176 -913h-88z" />
    <glyph glyph-name="p.alt" horiz-adv-x="1198" 
d="M27 -512h-86l290 1507h344q205 0 333 -122t128 -324q0 -152 -74.5 -277.5t-209 -198.5t-301.5 -73h-324zM143 82h314q212 0 348.5 133.5t136.5 329.5q0 167 -103 267.5t-272 100.5h-262z" />
    <glyph glyph-name="q.alt" horiz-adv-x="1196" 
d="M668 -512l100 512h-252q-205 0 -334 118t-129 316q0 114 44.5 217.5t122 179t187 120t232.5 44.5h412l-293 -1507h-90zM946 913h-311q-140 0 -253 -64t-175 -171t-62 -234q0 -166 103.5 -264t273.5 -98h262z" />
    <glyph glyph-name="r.alt" horiz-adv-x="737" 
d="M772 952l-536 -389l-109 -563h-88l192 995h88l-59 -309l457 330z" />
    <glyph glyph-name="r.alt2" horiz-adv-x="731" 
d="M39 0l192 995h502l-16 -82h-414l-176 -913h-88z" />
    <glyph glyph-name="aacute.alt" horiz-adv-x="1196" 
d="M905 1454h117l-297 -291h-86zM1051 995l-193 -995h-342q-205 0 -334 118t-129 316q0 114 44.5 217.5t122 179t187 120t232.5 44.5h412zM946 913h-311q-140 0 -253 -64t-175 -171t-62 -234q0 -166 103.5 -264t273.5 -98h262z" />
    <glyph glyph-name="acircumflex.alt" horiz-adv-x="1196" 
d="M940 1163l-162 230l-250 -230h-94l299 291h103l198 -291h-94zM1051 995l-193 -995h-342q-205 0 -334 118t-129 316q0 114 44.5 217.5t122 179t187 120t232.5 44.5h412zM946 913h-311q-140 0 -253 -64t-175 -171t-62 -234q0 -166 103.5 -264t273.5 -98h262z" />
    <glyph glyph-name="adieresis.alt" horiz-adv-x="1196" 
d="M551 1237q-27 0 -44.5 17.5t-17.5 43.5q0 32 20.5 52t51.5 20q29 0 46.5 -18t17.5 -45q0 -32 -21 -51t-53 -19zM946 1237q-28 0 -45.5 17.5t-17.5 43.5q0 32 21 52t52 20q27 0 44.5 -18t17.5 -45q0 -32 -20.5 -51t-51.5 -19zM1051 995l-193 -995h-342q-205 0 -334 118
t-129 316q0 114 44.5 217.5t122 179t187 120t232.5 44.5h412zM946 913h-311q-140 0 -253 -64t-175 -171t-62 -234q0 -166 103.5 -264t273.5 -98h262z" />
    <glyph glyph-name="agrave.alt" horiz-adv-x="1196" 
d="M539 1454h112l185 -291h-80zM1051 995l-193 -995h-342q-205 0 -334 118t-129 316q0 114 44.5 217.5t122 179t187 120t232.5 44.5h412zM946 913h-311q-140 0 -253 -64t-175 -171t-62 -234q0 -166 103.5 -264t273.5 -98h262z" />
    <glyph glyph-name="aring.alt" horiz-adv-x="1196" 
d="M774 1497q71 0 119.5 -44.5t48.5 -111.5q0 -84 -55 -137t-135 -53q-71 0 -118.5 44.5t-47.5 113.5q0 84 53.5 136t134.5 52zM641 1313q0 -47 32.5 -78t80.5 -31q58 0 95.5 37t37.5 94q0 48 -32 79.5t-81 31.5q-57 0 -95 -37.5t-38 -95.5zM1051 995l-193 -995h-342
q-205 0 -334 118t-129 316q0 114 44.5 217.5t122 179t187 120t232.5 44.5h412zM946 913h-311q-140 0 -253 -64t-175 -171t-62 -234q0 -166 103.5 -264t273.5 -98h262z" />
    <glyph glyph-name="atilde.alt" horiz-adv-x="1196" 
d="M885 1239q-39 0 -84.5 25.5t-88 51t-73.5 25.5q-45 0 -75.5 -27t-39.5 -77h-63q28 182 174 182q48 0 131.5 -51t118.5 -51q45 0 74 26.5t38 75.5h62q-12 -89 -56.5 -134.5t-117.5 -45.5zM1051 995l-193 -995h-342q-205 0 -334 118t-129 316q0 114 44.5 217.5t122 179
t187 120t232.5 44.5h412zM946 913h-311q-140 0 -253 -64t-175 -171t-62 -234q0 -166 103.5 -264t273.5 -98h262z" />
    <glyph glyph-name="abreve.alt" horiz-adv-x="1196" 
d="M750 1249q90 0 155 51.5t82 139.5h76q-22 -120 -110 -191t-212 -71q-116 0 -185 75t-50 187h78q-14 -82 33.5 -136.5t132.5 -54.5zM1051 995l-193 -995h-342q-205 0 -334 118t-129 316q0 114 44.5 217.5t122 179t187 120t232.5 44.5h412zM946 913h-311q-140 0 -253 -64
t-175 -171t-62 -234q0 -166 103.5 -264t273.5 -98h262z" />
    <glyph glyph-name="amacron.alt" horiz-adv-x="1196" 
d="M475 1350h578l-15 -76h-577zM1051 995l-193 -995h-342q-205 0 -334 118t-129 316q0 114 44.5 217.5t122 179t187 120t232.5 44.5h412zM946 913h-311q-140 0 -253 -64t-175 -171t-62 -234q0 -166 103.5 -264t273.5 -98h262z" />
    <glyph glyph-name="aogonek.alt" horiz-adv-x="1198" 
d="M770 -461q-68 -22 -113 -22q-71 0 -116 43t-45 116q0 96 71 179t191 145h-242q-205 0 -334 118t-129 316q0 114 44.5 217.5t122 179t187 120t232.5 44.5h412l-193 -995q-127 -63 -203 -141.5t-75 -169.5q2 -51 30.5 -80t77.5 -29q46 0 94 23zM946 913h-311
q-140 0 -253 -64t-175 -171t-62 -234q0 -166 103.5 -264t273.5 -98h262z" />
    <glyph glyph-name="aacute.alt2" horiz-adv-x="1116" 
d="M807 1454h117l-297 -291h-86zM221 913l17 82h733l-193 -995h-454q-133 0 -216 77t-83 202q0 147 108.5 241t269.5 94h404l57 299h-643zM793 532h-398q-120 0 -199 -71t-79 -178q0 -91 61.5 -147t159.5 -56h367z" />
    <glyph glyph-name="acircumflex.alt2" horiz-adv-x="1116" 
d="M850 1163l-162 230l-250 -230h-94l299 291h102l199 -291h-94zM221 913l17 82h733l-193 -995h-454q-133 0 -216 77t-83 202q0 147 108.5 241t269.5 94h404l57 299h-643zM793 532h-398q-120 0 -199 -71t-79 -178q0 -91 61.5 -147t159.5 -56h367z" />
    <glyph glyph-name="adieresis.alt2" horiz-adv-x="1116" 
d="M461 1237q-27 0 -44.5 17.5t-17.5 43.5q0 32 20.5 52t51.5 20q29 0 46.5 -18t17.5 -45q0 -32 -21 -51t-53 -19zM856 1237q-28 0 -45.5 17.5t-17.5 43.5q0 32 21 52t52 20q27 0 44.5 -18t17.5 -45q0 -32 -20.5 -51t-51.5 -19zM221 913l17 82h733l-193 -995h-454
q-133 0 -216 77t-83 202q0 147 108.5 241t269.5 94h404l57 299h-643zM793 532h-398q-120 0 -199 -71t-79 -178q0 -91 61.5 -147t159.5 -56h367z" />
    <glyph glyph-name="agrave.alt2" horiz-adv-x="1116" 
d="M453 1454h112l185 -291h-80zM221 913l17 82h733l-193 -995h-454q-133 0 -216 77t-83 202q0 147 108.5 241t269.5 94h404l57 299h-643zM793 532h-398q-120 0 -199 -71t-79 -178q0 -91 61.5 -147t159.5 -56h367z" />
    <glyph glyph-name="aring.alt2" horiz-adv-x="1116" 
d="M684 1497q71 0 119.5 -44.5t48.5 -111.5q0 -84 -55 -137t-135 -53q-71 0 -118.5 44.5t-47.5 113.5q0 84 53.5 136t134.5 52zM551 1313q0 -47 32.5 -78t80.5 -31q58 0 95.5 37t37.5 94q0 48 -32 79.5t-81 31.5q-57 0 -95 -37.5t-38 -95.5zM221 913l17 82h733l-193 -995
h-454q-133 0 -216 77t-83 202q0 147 108.5 241t269.5 94h404l57 299h-643zM793 532h-398q-120 0 -199 -71t-79 -178q0 -91 61.5 -147t159.5 -56h367z" />
    <glyph glyph-name="atilde.alt2" horiz-adv-x="1116" 
d="M797 1239q-39 0 -84.5 25.5t-88 51t-73.5 25.5q-45 0 -75.5 -27t-39.5 -77h-63q28 182 174 182q48 0 131.5 -51t118.5 -51q45 0 74 26.5t38 75.5h62q-12 -89 -56.5 -134.5t-117.5 -45.5zM221 913l17 82h733l-193 -995h-454q-133 0 -216 77t-83 202q0 147 108.5 241
t269.5 94h404l57 299h-643zM793 532h-398q-120 0 -199 -71t-79 -178q0 -91 61.5 -147t159.5 -56h367z" />
    <glyph glyph-name="abreve.alt2" horiz-adv-x="1116" 
d="M657 1249q90 0 155.5 51.5t82.5 139.5h76q-22 -120 -110 -191t-212 -71q-116 0 -185 75t-50 187h78q-14 -82 33 -136.5t132 -54.5zM221 913l17 82h733l-193 -995h-454q-133 0 -216 77t-83 202q0 147 108.5 241t269.5 94h404l57 299h-643zM793 532h-398q-120 0 -199 -71
t-79 -178q0 -91 61.5 -147t159.5 -56h367z" />
    <glyph glyph-name="amacron.alt2" horiz-adv-x="1116" 
d="M385 1350h578l-15 -76h-577zM221 913l17 82h733l-193 -995h-454q-133 0 -216 77t-83 202q0 147 108.5 241t269.5 94h404l57 299h-643zM793 532h-398q-120 0 -199 -71t-79 -178q0 -91 61.5 -147t159.5 -56h367z" />
    <glyph glyph-name="aogonek.alt2" horiz-adv-x="1116" 
d="M221 913l17 82h733l-193 -995q-127 -63 -203 -141.5t-75 -169.5q2 -51 30.5 -80t77.5 -29q46 0 94 23l-12 -64q-68 -22 -112 -22q-72 0 -117 43.5t-45 115.5q0 96 71 179t191 145h-354q-133 0 -216 77t-83 202q0 147 108.5 241t269.5 94h404l57 299h-643zM793 532h-398
q-120 0 -199 -71t-79 -178q0 -91 61.5 -147t159.5 -56h367z" />
    <glyph glyph-name="dcaron.alt" horiz-adv-x="1273" 
d="M57 434q0 114 44.5 217.5t122 179t187 120t232.5 44.5h324l104 541h90l-299 -1536h-342q-205 0 -334 118t-129 316zM1317 1174h-64l140 362h94zM950 913h-311q-140 0 -253 -64t-174.5 -171t-61.5 -234q0 -166 103 -264t273 -98h262z" />
    <glyph glyph-name="dcroat.alt" horiz-adv-x="1202" 
d="M57 434q0 114 44.5 217.5t121.5 179t186.5 120t233.5 44.5h322l47 244h-305l12 76h309l43 221h88l-43 -221h180l-14 -76h-180l-47 -244l-195 -995h-342q-205 0 -333 117.5t-128 316.5zM948 913h-309q-140 0 -253 -64t-174.5 -171t-61.5 -234q0 -166 103 -264t273 -98h262
z" />
    <glyph glyph-name="eacute.alt" horiz-adv-x="1091" 
d="M821 1454h117l-297 -291h-86zM821 84l-16 -84h-787l123 629q36 182 169.5 282.5t316.5 100.5q155 0 252.5 -75t97.5 -208q0 -147 -114 -231t-288 -84h-387l-63 -330h696zM205 494h375q135 0 221 61t86 170q0 99 -75 152t-191 53q-146 0 -255 -79t-135 -214z" />
    <glyph glyph-name="ecircumflex.alt" horiz-adv-x="1091" 
d="M870 1163l-161 230l-250 -230h-94l299 291h102l199 -291h-95zM821 84l-16 -84h-787l123 629q36 182 169.5 282.5t316.5 100.5q155 0 252.5 -75t97.5 -208q0 -147 -114 -231t-288 -84h-387l-63 -330h696zM205 494h375q135 0 221 61t86 170q0 99 -75 152t-191 53
q-146 0 -255 -79t-135 -214z" />
    <glyph glyph-name="edieresis.alt" horiz-adv-x="1091" 
d="M487 1237q-27 0 -44 17t-17 44q0 32 20.5 52t51.5 20q29 0 46 -18t17 -45q0 -32 -21 -51t-53 -19zM883 1237q-28 0 -46 17.5t-18 43.5q0 32 21.5 52t52.5 20q27 0 44 -18t17 -45q0 -32 -20 -51t-51 -19zM821 84l-16 -84h-787l123 629q36 182 169.5 282.5t316.5 100.5
q155 0 252.5 -75t97.5 -208q0 -147 -114 -231t-288 -84h-387l-63 -330h696zM205 494h375q135 0 221 61t86 170q0 99 -75 152t-191 53q-146 0 -255 -79t-135 -214z" />
    <glyph glyph-name="egrave.alt" horiz-adv-x="1091" 
d="M453 1454h112l185 -291h-80zM821 84l-16 -84h-787l123 629q36 182 169.5 282.5t316.5 100.5q155 0 252.5 -75t97.5 -208q0 -147 -114 -231t-288 -84h-387l-63 -330h696zM205 494h375q135 0 221 61t86 170q0 99 -75 152t-191 53q-146 0 -255 -79t-135 -214z" />
    <glyph glyph-name="ebreve.alt" horiz-adv-x="1091" 
d="M680 1249q90 0 155.5 51.5t82.5 139.5h75q-22 -121 -109.5 -191.5t-211.5 -70.5q-116 0 -185 75t-51 187h78q-14 -82 33.5 -136.5t132.5 -54.5zM821 84l-16 -84h-787l123 629q36 182 169.5 282.5t316.5 100.5q155 0 252.5 -75t97.5 -208q0 -147 -114 -231t-288 -84h-387
l-63 -330h696zM205 494h375q135 0 221 61t86 170q0 99 -75 152t-191 53q-146 0 -255 -79t-135 -214z" />
    <glyph glyph-name="ecaron.alt" horiz-adv-x="1091" 
d="M1018 1454l-299 -291h-103l-196 291h92l164 -229l248 229h94zM821 84l-16 -84h-787l123 629q36 182 169.5 282.5t316.5 100.5q155 0 252.5 -75t97.5 -208q0 -147 -114 -231t-288 -84h-387l-63 -330h696zM205 494h375q135 0 221 61t86 170q0 99 -75 152t-191 53
q-146 0 -255 -79t-135 -214z" />
    <glyph glyph-name="edotaccent.alt" horiz-adv-x="1091" 
d="M688 1233q-30 0 -48.5 18.5t-18.5 46.5q0 31 21.5 52.5t53.5 21.5q29 0 47.5 -18.5t18.5 -46.5q0 -33 -21.5 -53.5t-52.5 -20.5zM821 84l-16 -84h-787l123 629q36 182 169.5 282.5t316.5 100.5q155 0 252.5 -75t97.5 -208q0 -147 -114 -231t-288 -84h-387l-63 -330h696z
M205 494h375q135 0 221 61t86 170q0 99 -75 152t-191 53q-146 0 -255 -79t-135 -214z" />
    <glyph glyph-name="emacron.alt" horiz-adv-x="1091" 
d="M408 1350h577l-14 -76h-578zM821 84l-16 -84h-787l123 629q36 182 169.5 282.5t316.5 100.5q155 0 252.5 -75t97.5 -208q0 -147 -114 -231t-288 -84h-387l-63 -330h696zM205 494h375q135 0 221 61t86 170q0 99 -75 152t-191 53q-146 0 -255 -79t-135 -214z" />
    <glyph glyph-name="eogonek.alt" horiz-adv-x="1091" 
d="M717 -461q-68 -22 -113 -22q-72 0 -117 43.5t-45 115.5q0 96 71.5 178.5t191.5 145.5h-687l123 629q36 182 169.5 282.5t316.5 100.5q155 0 252.5 -75t97.5 -208q0 -147 -114 -231t-288 -84h-387l-63 -330h696l-16 -84q-127 -63 -203.5 -141.5t-75.5 -169.5q2 -51 31 -80
t78 -29q46 0 94 23zM205 494h375q135 0 221 61t86 170q0 99 -75 152t-191 53q-146 0 -255 -79t-135 -214z" />
    <glyph glyph-name="eacute.alt2" horiz-adv-x="1101" 
d="M819 1454h117l-297 -291h-86zM39 0l192 995h807l-45 -239q-28 -148 -132.5 -233t-262.5 -85h-387l-68 -356h711l-16 -82h-799zM932 913h-629l-76 -395h375q118 0 198.5 64t100.5 172z" />
    <glyph glyph-name="ecircumflex.alt2" horiz-adv-x="1101" 
d="M868 1163l-161 230l-250 -230h-95l300 291h102l199 -291h-95zM39 0l192 995h807l-45 -239q-28 -148 -132.5 -233t-262.5 -85h-387l-68 -356h711l-16 -82h-799zM932 913h-629l-76 -395h375q118 0 198.5 64t100.5 172z" />
    <glyph glyph-name="edieresis.alt2" horiz-adv-x="1101" 
d="M487 1237q-27 0 -44 17t-17 44q0 32 20.5 52t51.5 20q29 0 46 -18t17 -45q0 -32 -21 -51t-53 -19zM883 1237q-28 0 -46 17.5t-18 43.5q0 32 21.5 52t52.5 20q27 0 44 -18t17 -45q0 -32 -20 -51t-51 -19zM39 0l192 995h807l-45 -239q-28 -148 -132.5 -233t-262.5 -85h-387
l-68 -356h711l-16 -82h-799zM932 913h-629l-76 -395h375q118 0 198.5 64t100.5 172z" />
    <glyph glyph-name="egrave.alt2" horiz-adv-x="1101" 
d="M467 1454h113l184 -291h-80zM39 0l192 995h807l-45 -239q-28 -148 -132.5 -233t-262.5 -85h-387l-68 -356h711l-16 -82h-799zM932 913h-629l-76 -395h375q118 0 198.5 64t100.5 172z" />
    <glyph glyph-name="ebreve.alt2" horiz-adv-x="1101" 
d="M676 1249q90 0 155 51.5t82 139.5h76q-22 -121 -109.5 -191.5t-211.5 -70.5q-116 0 -185 75t-51 187h78q-14 -82 33.5 -136.5t132.5 -54.5zM39 0l192 995h807l-45 -239q-28 -148 -132.5 -233t-262.5 -85h-387l-68 -356h711l-16 -82h-799zM932 913h-629l-76 -395h375
q118 0 198.5 64t100.5 172z" />
    <glyph glyph-name="ecaron.alt2" horiz-adv-x="1101" 
d="M1018 1454l-299 -291h-103l-196 291h92l164 -229l248 229h94zM39 0l192 995h807l-45 -239q-28 -148 -132.5 -233t-262.5 -85h-387l-68 -356h711l-16 -82h-799zM932 913h-629l-76 -395h375q118 0 198.5 64t100.5 172z" />
    <glyph glyph-name="edotaccent.alt2" horiz-adv-x="1101" 
d="M686 1233q-30 0 -49 18.5t-19 46.5q0 31 22 52.5t54 21.5q29 0 47.5 -18.5t18.5 -46.5q0 -33 -21.5 -53.5t-52.5 -20.5zM39 0l192 995h807l-45 -239q-28 -148 -132.5 -233t-262.5 -85h-387l-68 -356h711l-16 -82h-799zM932 913h-629l-76 -395h375q118 0 198.5 64
t100.5 172z" />
    <glyph glyph-name="emacron.alt2" horiz-adv-x="1101" 
d="M410 1350h577l-14 -76h-578zM39 0l192 995h807l-45 -239q-28 -148 -132.5 -233t-262.5 -85h-387l-68 -356h711l-16 -82h-799zM932 913h-629l-76 -395h375q118 0 198.5 64t100.5 172z" />
    <glyph glyph-name="eogonek.alt2" horiz-adv-x="1101" 
d="M39 0l192 995h807l-45 -239q-28 -148 -132.5 -233t-262.5 -85h-387l-68 -356h711l-16 -82q-127 -63 -203.5 -141.5t-75.5 -169.5q1 -51 30 -80t79 -29q46 0 94 23l-12 -64q-68 -22 -113 -22q-72 0 -117 43.5t-45 115.5q0 96 71 179t191 145h-698zM932 913h-629l-76 -395
h375q118 0 198.5 64t100.5 172z" />
    <glyph glyph-name="hbar.alt2" horiz-adv-x="1210" 
d="M666 1225h-301l-43 -230h745l-195 -995h-88l177 913h-656l-178 -913h-88l237 1225h-186l14 78h189l45 233h88l-45 -233h299z" />
    <glyph glyph-name="hcircumflex.alt2" horiz-adv-x="1210" 
d="M858 1640l-162 230l-250 -230h-94l299 291h103l198 -291h-94zM426 1536l-104 -541h745l-195 -995h-88l177 913h-656l-178 -913h-88l299 1536h88z" />
    <glyph glyph-name="i.dot" horiz-adv-x="471" 
d="M264 1298q0 31 22 52.5t54 21.5q29 0 47.5 -18t18.5 -47q0 -32 -22 -53t-54 -21q-29 0 -47.5 18t-18.5 47zM39 0l192 995h91l-195 -995h-88z" />
    <glyph glyph-name="ntilde.alt2" horiz-adv-x="1210" 
d="M858 1239q-39 0 -84.5 25.5t-88 51t-73.5 25.5q-45 0 -75 -27t-39 -77h-64q28 182 174 182q48 0 131.5 -51t118.5 -51q45 0 74.5 26.5t38.5 75.5h61q-12 -89 -56.5 -134.5t-117.5 -45.5zM39 0l192 995h836l-195 -995h-88l177 913h-658l-176 -913h-88z" />
    <glyph glyph-name="nacute.alt2" horiz-adv-x="1210" 
d="M852 1454h117l-297 -291h-86zM39 0l192 995h836l-195 -995h-88l177 913h-658l-176 -913h-88z" />
    <glyph glyph-name="ncaron.alt2" horiz-adv-x="1210" 
d="M1057 1454l-299 -291h-103l-196 291h92l164 -229l248 229h94zM39 0l192 995h836l-195 -995h-88l177 913h-658l-176 -913h-88z" />
    <glyph glyph-name="ncommaaccent.alt2" horiz-adv-x="1210" 
d="M39 0l192 995h836l-195 -995h-88l177 913h-658l-176 -913h-88zM418 -135h94l-188 -256h-68z" />
    <glyph glyph-name="racute.alt" horiz-adv-x="737" 
d="M668 1454h116l-297 -291h-86zM772 952l-536 -389l-109 -563h-88l192 995h88l-59 -309l457 330z" />
    <glyph glyph-name="rcaron.alt" horiz-adv-x="737" 
d="M860 1454l-299 -291h-102l-197 291h92l164 -229l248 229h94zM772 952l-536 -389l-109 -563h-88l192 995h88l-59 -309l457 330z" />
    <glyph glyph-name="rcommaaccent.alt" horiz-adv-x="737" 
d="M772 952l-536 -389l-109 -563h-88l192 995h88l-59 -309l457 330zM4 -135h94l-188 -256h-68z" />
    <glyph glyph-name="racute.alt2" horiz-adv-x="731" 
d="M668 1454h116l-297 -291h-86zM39 0l192 995h502l-16 -82h-414l-176 -913h-88z" />
    <glyph glyph-name="rcaron.alt2" horiz-adv-x="731" 
d="M860 1454l-299 -291h-102l-197 291h92l164 -229l248 229h94zM39 0l192 995h502l-16 -82h-414l-176 -913h-88z" />
    <glyph glyph-name="rcommaaccent.alt2" horiz-adv-x="731" 
d="M39 0l192 995h502l-16 -82h-414l-176 -913h-88zM4 -135h94l-188 -256h-68z" />
    <glyph glyph-name="caron.alt" horiz-adv-x="882" 
d="M500 1174h-64l139 362h95z" />
    <glyph glyph-name="revcommaaccent" horiz-adv-x="882" 
d="M600 1386h68l-162 -253h-94z" />
    <glyph glyph-name="ampersand.alt" horiz-adv-x="1429" 
d="M518 901l76 21l-330 614h895l-16 -84h-731l594 -1112q190 247 262 655h88q-88 -468 -307 -733l139 -262h-101l-102 193q-210 -207 -467 -207q-199 0 -327 116t-128 306q0 186 123 311t332 182zM154 414q0 -155 105 -250.5t265 -95.5q232 0 420 200l-313 582l-115 -31
q-167 -44 -264.5 -149.5t-97.5 -255.5z" />
    <glyph glyph-name="Omega" horiz-adv-x="1511" 
d="M598 340l-66 -340h-479l17 82h395l41 209q-164 75 -253 220t-89 333q0 193 89 354.5t248 256.5t353 95q252 0 403.5 -155t151.5 -402q0 -255 -162 -449t-432 -263l-39 -199h398l-17 -82h-479l67 340q258 52 416 233.5t158 417.5q0 210 -127 342.5t-342 132.5
q-171 0 -309.5 -86t-213.5 -227.5t-75 -308.5q0 -176 89 -309t257 -195z" />
    <glyph glyph-name="Delta" horiz-adv-x="1478" 
d="M893 1563l405 -1563h-1417zM31 82h1157l-328 1284z" />
    </font>
</defs>
</svg>
