<?xml version="1.0" standalone="no"?>
<!DOCTYPE svg PUBLIC "-//W3C//DTD SVG 1.1//EN" "http://www.w3.org/Graphics/SVG/1.1/DTD/svg11.dtd" >
<svg xmlns="http://www.w3.org/2000/svg" xmlns:xlink="http://www.w3.org/1999/xlink" version="1.1">
<metadata>
Created by FontForge 20170731 at Sat May 21 23:58:18 2022
 By Aleksey,,,
Copyright 2017 Indian Type Foundry
</metadata>
<defs>
<font id="Ekster-ThinItalic" horiz-adv-x="1314" >
  <font-face 
    font-family="Ekster Thin"
    font-weight="100"
    font-style="italic"
    font-stretch="normal"
    units-per-em="2048"
    panose-1="2 0 4 0 3 0 0 9 0 0"
    ascent="1638"
    descent="-410"
    x-height="987"
    cap-height="1536"
    bbox="-420 -676 2456 1952"
    underline-thickness="20"
    underline-position="-266"
    slope="-11"
    unicode-range="U+0020-FB02"
  />
<missing-glyph horiz-adv-x="1138" 
d="M0 0l299 1536h831l-299 -1536h-831zM109 86h647l266 1364h-647zM670 555l-113 139l-170 -143l-59 78l168 141l-113 139l78 68l114 -141l175 147l61 -78l-174 -145l113 -137z" />
    <glyph glyph-name="fi" unicode="fi" horiz-adv-x="1144" 
d="M702 940h-423l-183 -940h-49l242 1241q26 146 117 227.5t225 81.5q132 0 219 -75l-10 -52q-83 80 -209 80q-114 0 -192 -69t-101 -191l-49 -256h422zM971 1296q0 23 15 37.5t38 14.5q22 0 34.5 -13t12.5 -35q0 -23 -14.5 -37t-36.5 -14t-35.5 12.5t-13.5 34.5zM745 0
l193 987h49l-190 -987h-52z" />
    <glyph glyph-name="fl" unicode="fl" horiz-adv-x="1142" 
d="M702 940h-423l-183 -940h-49l242 1241q26 146 117 227.5t225 81.5q132 0 219 -75l-10 -52q-83 80 -209 80q-114 0 -192 -69t-101 -191l-49 -256h422zM745 0l299 1536h52l-299 -1536h-52z" />
    <glyph glyph-name=".notdef" horiz-adv-x="1138" 
d="M0 0l299 1536h831l-299 -1536h-831zM109 86h647l266 1364h-647zM670 555l-113 139l-170 -143l-59 78l168 141l-113 139l78 68l114 -141l175 147l61 -78l-174 -145l113 -137z" />
    <glyph glyph-name=".null" horiz-adv-x="0" 
 />
    <glyph glyph-name="nonmarkingreturn" horiz-adv-x="682" 
 />
    <glyph glyph-name="space" unicode=" " horiz-adv-x="501" 
 />
    <glyph glyph-name="exclam" unicode="!" horiz-adv-x="559" 
d="M401 1536h54l-72 -375l-152 -749h-43l142 749zM137 -14q-24 0 -38.5 14.5t-14.5 38.5q0 25 16 40t41 15t40.5 -15t15.5 -38q0 -25 -17 -40t-43 -15z" />
    <glyph glyph-name="quotedbl" unicode="&#x22;" horiz-adv-x="653" 
d="M252 1143l78 393h47l-76 -393h-49zM498 1143l77 393h48l-76 -393h-49z" />
    <glyph glyph-name="numbersign" unicode="#" horiz-adv-x="1441" 
d="M487 0l254 467h-381l-254 -467h-51l254 467h-315l6 47h334l297 547h-346l10 47h362l232 428h51l-231 -428h381l231 428h51l-231 -428h315l-8 -47h-334l-297 -547h346l-10 -47h-360l-254 -467h-52zM385 514h381l297 547h-381z" />
    <glyph glyph-name="dollar" unicode="$" horiz-adv-x="1134" 
d="M965 395q0 -95 -42 -172.5t-113.5 -128t-164 -78.5t-196.5 -30l-50 -252h-49l49 252q-127 5 -238.5 49t-185.5 131l13 57q76 -96 194.5 -144t251.5 -48q132 0 240 42t174.5 125t66.5 193q0 187 -202 299l-250 139q-119 68 -174.5 147.5t-55.5 186.5q0 177 128 280.5
t321 106.5l47 250h51l-49 -250q223 -13 369 -151l-13 -53q-77 79 -179.5 118t-213.5 39q-176 0 -292.5 -90.5t-116.5 -247.5q0 -97 49 -163.5t155 -127.5l248 -139q228 -131 228 -340z" />
    <glyph glyph-name="percent" unicode="%" horiz-adv-x="1767" 
d="M158 1182q0 154 109.5 261t264.5 107q138 0 225 -88t87 -221q0 -154 -111.5 -262.5t-267.5 -108.5q-137 0 -222 89t-85 223zM180 0h-59l1485 1536h59zM799 1241q0 116 -73 191t-194 75q-137 0 -233 -95.5t-96 -229.5q0 -115 73 -192t193 -77q137 0 233.5 97t96.5 231z
M926 295q0 154 109.5 261.5t264.5 107.5q137 0 223.5 -88.5t86.5 -221.5q0 -154 -110.5 -261t-266.5 -107q-138 0 -222.5 87.5t-84.5 221.5zM1567 354q0 116 -73.5 191.5t-193.5 75.5q-137 0 -233 -96t-96 -230q0 -115 73 -191.5t193 -76.5q138 0 234 96t96 231z" />
    <glyph glyph-name="ampersand" unicode="&#x26;" horiz-adv-x="1406" 
d="M1118 0l-155 199q-110 -103 -236 -158t-252 -55q-118 0 -213 45.5t-153 137.5t-58 216q0 97 40 181.5t104.5 147t160.5 122.5l76 47q-84 131 -84 268q0 175 114.5 287t287.5 112q151 0 250.5 -86.5t99.5 -228.5q0 -30 -2 -57h-51q2 18 2 59q0 120 -84.5 193t-214.5 73
q-155 0 -253 -100t-98 -254q0 -159 121 -307l449 -572q189 196 286 496h50q-104 -326 -308 -533l185 -233h-64zM102 389q0 -164 108 -261t269 -97q116 0 232.5 52.5t222.5 152.5l-477 608l-76 -47q-132 -81 -205.5 -179.5t-73.5 -228.5z" />
    <glyph glyph-name="quotesingle" unicode="'" horiz-adv-x="409" 
d="M252 1143l78 393h47l-76 -393h-49z" />
    <glyph glyph-name="parenleft" unicode="(" horiz-adv-x="796" 
d="M139 449q0 186 50.5 365t143.5 333t234.5 277t315.5 194l-11 -53q-215 -90 -372.5 -269t-235.5 -397.5t-78 -452.5q0 -464 330 -710l-8 -51q-187 128 -278 324.5t-91 439.5z" />
    <glyph glyph-name="parenright" unicode=")" horiz-adv-x="796" 
d="M610 852q0 -250 -86 -479t-255.5 -411.5t-399.5 -276.5l10 51q214 91 371 269.5t235 397t78 451.5q0 472 -330 713l9 51q186 -128 277 -325.5t91 -440.5z" />
    <glyph glyph-name="asterisk" unicode="*" horiz-adv-x="884" 
d="M569 1544l45 -8l-71 -338l321 119l17 -43l-330 -107l266 -223l-31 -33l-256 230l-63 -340l-45 10l78 338l-326 -119l-16 43l329 107l-264 223l31 31l258 -232z" />
    <glyph glyph-name="plus" unicode="+" horiz-adv-x="1050" 
d="M954 752h-409l-80 -410h-47l80 410h-410l10 47h408l80 407h49l-80 -407h408z" />
    <glyph glyph-name="comma" unicode="," horiz-adv-x="354" 
d="M-98 -274h-45l174 264q-43 6 -43 51q0 25 15 41t40 16t40 -15t15 -40q0 -24 -22 -57z" />
    <glyph glyph-name="hyphen" unicode="-" horiz-adv-x="819" 
d="M63 580l11 47h614l-10 -47h-615z" />
    <glyph glyph-name="period" unicode="." horiz-adv-x="354" 
d="M33 -14q-23 0 -37 14t-14 39t15 40t40 15t40 -15t15 -38q0 -26 -16.5 -40.5t-42.5 -14.5z" />
    <glyph glyph-name="slash" unicode="/" horiz-adv-x="948" 
d="M-137 -315h-56l1235 1941h56z" />
    <glyph glyph-name="zero" unicode="0" horiz-adv-x="1368" 
d="M1266 969q0 -142 -30 -282.5t-90.5 -266.5t-144.5 -223t-200 -154t-248 -57q-215 0 -334 148t-119 429q0 142 30 283t91 268t145 224t199.5 154.5t247.5 57.5q213 0 333 -149t120 -432zM559 33q121 0 228 55.5t183.5 148.5t132.5 214t83.5 253.5t27.5 264.5
q0 260 -106.5 396t-298.5 136q-122 0 -229 -55.5t-183.5 -148.5t-132 -214t-83 -253.5t-27.5 -264.5q0 -259 105.5 -395.5t299.5 -136.5z" />
    <glyph glyph-name="one" unicode="1" horiz-adv-x="649" 
d="M250 0l287 1477l-385 -181l12 54l440 209l-303 -1559h-51z" />
    <glyph glyph-name="two" unicode="2" horiz-adv-x="1087" 
d="M905 45l-10 -45h-1006l824 799q130 123 189 218t59 193q0 133 -95 212t-239 79q-219 0 -437 -190l13 65q213 174 428 174q164 0 272.5 -91.5t108.5 -244.5q0 -107 -62 -211.5t-198 -232.5l-750 -725h903z" />
    <glyph glyph-name="three" unicode="3" horiz-adv-x="1091" 
d="M918 434q0 -137 -76 -240t-202 -155.5t-282 -52.5q-247 0 -424 137l13 57q175 -147 413 -147q142 0 255 45.5t181 138t68 217.5q0 113 -57 193t-150.5 117.5t-212.5 37.5q-64 0 -125 -6l11 49l127 17q133 16 238.5 63.5t173 133t67.5 196.5q0 128 -85.5 197t-223.5 69
q-107 0 -218 -42t-210 -124l10 64q196 151 422 151q158 0 257 -81.5t99 -229.5q0 -111 -61 -200.5t-159 -144t-224 -79.5q173 -20 274 -123t101 -258z" />
    <glyph glyph-name="four" unicode="4" horiz-adv-x="1165" 
d="M1063 408h-219l-78 -408h-51l78 408h-826l862 1128h58l-826 -1079h742l102 528h51l-102 -528h219z" />
    <glyph glyph-name="five" unicode="5" horiz-adv-x="1110" 
d="M965 502q0 -153 -82 -272t-219.5 -181.5t-303.5 -62.5q-225 0 -383 114l11 56q159 -123 374 -123q152 0 276.5 57t198.5 164.5t74 245.5q0 177 -114.5 288t-307.5 111q-169 0 -342 -84l142 721h801l-9 -47h-753l-117 -608q142 65 293 65q207 0 334 -124.5t127 -319.5z
" />
    <glyph glyph-name="six" unicode="6" horiz-adv-x="1169" 
d="M1042 522q0 -147 -71.5 -269.5t-199.5 -194.5t-284 -72q-203 0 -331.5 118.5t-128.5 305.5q0 200 178 411l610 715h64l-555 -651q131 78 276 78q195 0 318.5 -123t123.5 -318zM492 33q106 0 199 39.5t158 106t102.5 156.5t37.5 189q0 174 -108.5 284t-288.5 110
q-105 0 -197 -39.5t-159 -104.5q-73 -71 -115.5 -168t-42.5 -194q0 -165 115.5 -272t298.5 -107z" />
    <glyph glyph-name="seven" unicode="7" horiz-adv-x="1032" 
d="M1178 1536l-1127 -1536h-57l1091 1487h-905l8 49h990z" />
    <glyph glyph-name="eight" unicode="8" horiz-adv-x="1216" 
d="M12 383q0 125 68 227t179.5 159t242.5 60q-128 18 -208.5 101.5t-80.5 216.5q0 176 130 289.5t323 113.5q174 0 281.5 -95.5t107.5 -250.5q0 -159 -115.5 -265.5t-290.5 -115.5q186 -12 300 -120t114 -273q0 -135 -77 -237.5t-203.5 -154.5t-280.5 -52q-221 0 -355.5 107
t-134.5 290zM1004 1200q0 139 -93.5 220t-246.5 81q-173 0 -286.5 -101t-113.5 -255q0 -131 86.5 -213t245.5 -82q175 0 291.5 97t116.5 253zM1010 428q0 168 -123.5 269.5t-321.5 101.5q-214 0 -356.5 -116.5t-142.5 -297.5q0 -159 119.5 -255.5t320.5 -96.5
q218 0 361 108.5t143 286.5z" />
    <glyph glyph-name="nine" unicode="9" horiz-adv-x="1171" 
d="M963 711l-611 -713h-61l555 649q-132 -80 -279 -80q-195 0 -318.5 123.5t-123.5 319.5q0 109 42 208t114.5 171.5t176 115.5t220.5 43q204 0 333.5 -119t129.5 -307q0 -200 -178 -411zM676 1499q-141 0 -256 -67t-178.5 -179.5t-63.5 -244.5q0 -174 108.5 -284
t288.5 -110q105 0 197.5 39t157.5 103q74 69 117 166t43 196q0 167 -115.5 274t-298.5 107z" />
    <glyph glyph-name="colon" unicode=":" horiz-adv-x="395" 
d="M205 760q-24 0 -39.5 15.5t-15.5 39.5q0 25 17 41t42 16q23 0 38 -16t15 -39q0 -24 -16.5 -40.5t-40.5 -16.5zM53 -14q-24 0 -38.5 14.5t-14.5 38.5q0 25 16 40t41 15t40.5 -15t15.5 -38q0 -25 -17 -40t-43 -15z" />
    <glyph glyph-name="semicolon" unicode=";" horiz-adv-x="395" 
d="M205 760q-23 0 -38 16t-15 39q0 25 16 41t41 16q24 0 39.5 -15.5t15.5 -39.5q0 -25 -17 -41t-42 -16zM-88 -274h-43l174 264q-43 6 -43 51q0 25 15 41t40 16q24 0 40 -15.5t16 -39.5q0 -19 -25 -57z" />
    <glyph glyph-name="less" unicode="&#x3c;" horiz-adv-x="1050" 
d="M807 365l-8 -48l-693 398l9 51l850 405l-13 -55l-796 -377z" />
    <glyph glyph-name="equal" unicode="=" horiz-adv-x="1050" 
d="M129 961l8 47h867l-9 -47h-866zM47 539l8 47h867l-11 -47h-864z" />
    <glyph glyph-name="greater" unicode="&#x3e;" horiz-adv-x="1050" 
d="M924 715l-846 -398l10 56l795 370l-650 379l11 49l690 -405z" />
    <glyph glyph-name="question" unicode="?" horiz-adv-x="1150" 
d="M717 770l-164 -63l-59 -295h-45l61 327l195 76q80 30 141.5 64.5t114.5 81t81.5 107.5t28.5 134q0 136 -95.5 218.5t-250.5 82.5q-175 0 -314 -103.5t-173 -273.5h-50q25 128 104.5 225.5t192.5 148t240 50.5q176 0 286.5 -94t110.5 -252q0 -82 -32 -151t-91.5 -121
t-127 -90.5t-154.5 -71.5zM397 -14q-24 0 -38.5 14.5t-14.5 38.5q0 25 16 40t41 15t40.5 -15t15.5 -38q0 -25 -17 -40t-43 -15z" />
    <glyph glyph-name="at" unicode="@" horiz-adv-x="1937" 
d="M1255 -223q-187 -84 -397 -84q-220 0 -391 92.5t-266 262t-95 388.5q0 240 109.5 437t307 311t442.5 114q220 0 395 -92t273 -258t98 -375q0 -137 -40 -254.5t-121 -193.5t-186 -76q-54 0 -93.5 21t-57.5 53.5t-25.5 72t2.5 76.5q-58 -103 -159 -163t-222 -60
q-166 0 -262 108.5t-96 282.5q0 208 130.5 353t324.5 145q146 0 238.5 -87t113.5 -228l57 303h47l-125 -643q-8 -29 -2 -62.5t19 -62t45 -47.5t76 -19q90 0 157 71.5t99 179.5t32 232q0 195 -92 349.5t-255.5 240.5t-370.5 86q-174 0 -325.5 -63.5t-257.5 -172.5
t-167 -259.5t-61 -319.5q0 -206 89 -364.5t250 -245t369 -86.5q205 0 402 90zM1251 541q0 151 -85.5 249.5t-235.5 98.5q-175 0 -291.5 -129t-116.5 -316q0 -153 83.5 -251.5t232.5 -98.5q173 0 293 132t120 315z" />
    <glyph glyph-name="A" unicode="A" horiz-adv-x="1462" 
d="M1227 0l-117 467h-868l-299 -467h-60l1004 1559l393 -1559h-53zM272 514h826l-232 930z" />
    <glyph glyph-name="B" unicode="B" horiz-adv-x="1204" 
d="M47 0l299 1536h348q165 0 274 -92t109 -250q0 -154 -99.5 -255t-264.5 -134q150 -37 235.5 -128.5t85.5 -242.5q0 -132 -72.5 -231.5t-195.5 -151t-277 -51.5h-442zM692 1487h-305l-127 -658h322q191 0 316.5 99t125.5 262q0 138 -94 217.5t-238 79.5zM555 782h-305
l-144 -735h386q216 0 352.5 104t136.5 283q0 165 -118 256.5t-308 91.5z" />
    <glyph glyph-name="C" unicode="C" horiz-adv-x="1460" 
d="M1491 1360l-14 -57q-176 198 -492 198q-178 0 -334.5 -67.5t-265.5 -181.5t-172 -267.5t-63 -320.5q0 -282 168 -456.5t450 -174.5q290 0 528 186l-12 -65q-237 -168 -520 -168q-302 0 -485 187.5t-183 488.5q0 179 68 342t185 283.5t284 191.5t356 71q318 0 502 -190z
" />
    <glyph glyph-name="D" unicode="D" horiz-adv-x="1603" 
d="M47 0l299 1536h453q161 0 293 -50.5t221.5 -141t138.5 -217.5t49 -277q0 -180 -70 -338t-191.5 -270t-292.5 -177t-365 -65h-535zM801 1487h-414l-281 -1440h478q247 0 445 104.5t308.5 287.5t110.5 409q0 285 -174 462t-473 177z" />
    <glyph glyph-name="E" unicode="E" horiz-adv-x="1114" 
d="M47 0l299 1536h854l-8 -49h-805l-133 -692h717l-10 -47h-717l-138 -701h828l-10 -47h-877z" />
    <glyph glyph-name="F" unicode="F" horiz-adv-x="1069" 
d="M47 0l299 1536h844l-10 -49h-793l-141 -733h704l-8 -49h-706l-138 -705h-51z" />
    <glyph glyph-name="G" unicode="G" horiz-adv-x="1591" 
d="M1370 203q-257 -217 -610 -217q-317 0 -491.5 180t-174.5 483q0 185 67 350.5t183 287t283 192.5t358 71q317 0 494 -182l-11 -63q-166 196 -485 196q-181 0 -338.5 -68t-265.5 -183t-170 -270t-62 -327q0 -283 161.5 -451.5t457.5 -168.5q322 0 557 198l98 504h-602
l8 47h656z" />
    <glyph glyph-name="H" unicode="H" horiz-adv-x="1587" 
d="M1188 0l151 776h-1089l-152 -776h-51l299 1536h51l-139 -713h1090l139 713h51l-299 -1536h-51z" />
    <glyph glyph-name="I" unicode="I" horiz-adv-x="446" 
d="M47 0l299 1536h51l-299 -1536h-51z" />
    <glyph glyph-name="J" unicode="J" horiz-adv-x="851" 
d="M184 -14q-167 0 -286 104l10 53q116 -110 280 -110q137 0 226.5 83.5t115.5 219.5l236 1200h51l-233 -1196q-32 -168 -136.5 -261t-263.5 -93z" />
    <glyph glyph-name="K" unicode="K" horiz-adv-x="1288" 
d="M1059 0l-516 852l-336 -291l-109 -561h-51l299 1536h51l-176 -901l1036 901h70l-745 -649l536 -887h-59z" />
    <glyph glyph-name="L" unicode="L" horiz-adv-x="1056" 
d="M893 47l-8 -47h-838l299 1536h51l-291 -1489h787z" />
    <glyph glyph-name="M" unicode="M" horiz-adv-x="1964" 
d="M909 383l-536 1030l-275 -1413h-51l303 1559l572 -1090l999 1090l-305 -1559h-51l274 1401z" />
    <glyph glyph-name="N" unicode="N" horiz-adv-x="1656" 
d="M1305 -23l-928 1457l-279 -1434h-51l303 1559l928 -1457l278 1434h52z" />
    <glyph glyph-name="O" unicode="O" horiz-adv-x="1763" 
d="M1665 864q0 -174 -68.5 -335.5t-185 -280.5t-280.5 -190.5t-345 -71.5q-308 0 -498 190.5t-190 491.5q0 175 68 337t184.5 282t280 191.5t344.5 71.5q205 0 362.5 -88t242.5 -244t85 -354zM791 33q170 0 323.5 68t262 181.5t172 265.5t63.5 316q0 281 -175.5 459
t-461.5 178q-171 0 -325 -68t-262.5 -181.5t-172 -265.5t-63.5 -316q0 -185 78.5 -329.5t224.5 -226t336 -81.5z" />
    <glyph glyph-name="P" unicode="P" horiz-adv-x="1163" 
d="M47 0l299 1536h313q228 0 352 -117t124 -319q0 -162 -78.5 -290t-219 -199.5t-317.5 -71.5h-317l-105 -539h-51zM659 1487h-272l-174 -899h307q250 0 405.5 143t155.5 367q0 182 -107.5 285.5t-314.5 103.5z" />
    <glyph glyph-name="Q" unicode="Q" horiz-adv-x="1761" 
d="M1665 864q0 -251 -134.5 -464.5t-356.5 -323.5l245 -352h-65l-230 329q-159 -67 -338 -67q-308 0 -498 190.5t-190 491.5q0 175 68 337t184.5 282t280 191.5t344.5 71.5q205 0 362.5 -88t242.5 -244t85 -354zM791 33q170 0 323.5 68t262 181.5t172 265.5t63.5 316
q0 281 -175.5 459t-461.5 178q-171 0 -325 -68t-262.5 -181.5t-172 -265.5t-63.5 -316q0 -185 78.5 -329.5t224.5 -226t336 -81.5z" />
    <glyph glyph-name="R" unicode="R" horiz-adv-x="1228" 
d="M47 0l299 1536h313q220 0 344.5 -111t124.5 -299q0 -195 -129.5 -329.5t-336.5 -167.5l356 -629h-60l-350 623q-20 -2 -61 -2h-328l-121 -621h-51zM657 1487h-270l-158 -817h322q228 0 376 128t148 326q0 167 -109.5 265t-308.5 98z" />
    <glyph glyph-name="S" unicode="S" horiz-adv-x="1110" 
d="M655 1503q-170 0 -286.5 -89t-116.5 -238q0 -192 211 -304l252 -139q233 -124 233 -338q0 -125 -72 -219.5t-191 -142t-267 -47.5q-136 0 -257.5 43.5t-203.5 136.5l12 57q80 -99 200 -145.5t253 -46.5t240 42t171 125.5t64 194.5q0 97 -49.5 168.5t-155.5 128.5
l-254 139q-237 127 -237 345q0 167 130.5 271.5t323.5 104.5q112 0 222.5 -38.5t193.5 -112.5l-14 -56q-75 79 -183 119.5t-219 40.5z" />
    <glyph glyph-name="T" unicode="T" horiz-adv-x="1261" 
d="M158 1487l8 49h1227l-9 -49h-589l-289 -1487h-51l288 1487h-585z" />
    <glyph glyph-name="U" unicode="U" horiz-adv-x="1533" 
d="M139 641l174 895h52l-175 -897q-35 -176 12.5 -314.5t166 -215t286.5 -76.5q250 0 416.5 165t220.5 441l176 897h50l-172 -895q-58 -303 -238 -479t-455 -176q-186 0 -316.5 83t-183 232.5t-14.5 339.5z" />
    <glyph glyph-name="V" unicode="V" horiz-adv-x="1437" 
d="M1559 1536l-994 -1559l-387 1559h55l353 -1442l913 1442h60z" />
    <glyph glyph-name="W" unicode="W" horiz-adv-x="2312" 
d="M2427 1536l-897 -1559l-244 1446l-805 -1446l-297 1559h54l266 -1423l805 1446l245 -1448l813 1425h60z" />
    <glyph glyph-name="X" unicode="X" horiz-adv-x="1333" 
d="M1087 0l-419 770l-711 -770h-66l752 815l-393 721h57l375 -686l616 686h64l-655 -731l438 -805h-58z" />
    <glyph glyph-name="Y" unicode="Y" horiz-adv-x="1234" 
d="M1360 1536l-748 -928l-118 -608h-52l119 606l-389 930h55l365 -879l704 879h64z" />
    <glyph glyph-name="Z" unicode="Z" horiz-adv-x="1210" 
d="M1024 45l-10 -45h-1120l1306 1489h-983l8 47h1080l-1307 -1491h1026z" />
    <glyph glyph-name="bracketleft" unicode="[" horiz-adv-x="690" 
d="M-8 -315l373 1933h387l-11 -47h-338l-356 -1839h336l-8 -47h-383z" />
    <glyph glyph-name="backslash" unicode="\" horiz-adv-x="1142" 
d="M864 -315l-680 1941h49l680 -1941h-49z" />
    <glyph glyph-name="bracketright" unicode="]" horiz-adv-x="690" 
d="M279 -315h-383l8 47h336l358 1839h-338l10 47h385z" />
    <glyph glyph-name="asciicircum" unicode="^" horiz-adv-x="1050" 
d="M903 760l-235 729l-516 -729h-56l551 776h51l252 -776h-47z" />
    <glyph glyph-name="underscore" unicode="_" horiz-adv-x="1024" 
d="M-195 -244l9 45h1022l-9 -45h-1022z" />
    <glyph glyph-name="grave" unicode="`" horiz-adv-x="845" 
d="M287 1454h63l197 -295h-47z" />
    <glyph glyph-name="a" unicode="a" horiz-adv-x="1312" 
d="M915 0l52 264q-73 -127 -196.5 -202.5t-276.5 -75.5q-195 0 -311.5 121.5t-116.5 316.5q0 115 42.5 221.5t116 185.5t178 126t222.5 47q173 0 283 -98t132 -263l68 344h49l-192 -987h-50zM627 954q-143 0 -261 -72.5t-183.5 -193.5t-65.5 -262q0 -177 105 -285t284 -108
q144 0 261.5 73t181 192.5t63.5 258.5q0 180 -105 288.5t-280 108.5z" />
    <glyph glyph-name="b" unicode="b" 
d="M1141 559q0 -154 -73.5 -285.5t-203 -209.5t-284.5 -78q-175 0 -285 98.5t-131 263.5l-68 -348h-49l299 1536h49l-159 -823q73 132 199 211.5t278 79.5q194 0 311 -125t117 -320zM702 954q-145 0 -263 -74t-182 -194t-64 -258q0 -176 104 -285.5t281 -109.5
q143 0 261.5 72t184.5 192.5t66 259.5q0 176 -104.5 286.5t-283.5 110.5z" />
    <glyph glyph-name="c" unicode="c" horiz-adv-x="1075" 
d="M117 424q0 -175 104 -283t283 -108q191 0 364 123l-12 -60q-163 -110 -358 -110q-198 0 -315 120t-117 312q0 157 76.5 292t207.5 214.5t285 79.5q99 0 190 -37t156 -105l-12 -53q-127 145 -336 145q-140 0 -259.5 -72.5t-188 -194.5t-68.5 -263z" />
    <glyph glyph-name="d" unicode="d" horiz-adv-x="1312" 
d="M915 0l52 264q-72 -128 -196 -203t-277 -75q-195 0 -311.5 121.5t-116.5 316.5q0 115 42.5 221.5t116 185.5t178 126t222.5 47q172 0 282.5 -97.5t132.5 -261.5l174 891h50l-299 -1536h-50zM627 954q-143 0 -261 -72.5t-183.5 -193.5t-65.5 -262q0 -177 105 -285
t284 -108q144 0 261.5 73t181 192.5t63.5 258.5q0 180 -105 288.5t-280 108.5z" />
    <glyph glyph-name="e" unicode="e" horiz-adv-x="1185" 
d="M1034 606q0 -60 -14 -112h-899q-4 -46 -4 -66q0 -175 106 -285t293 -110q106 0 215 34.5t191 106.5l-13 -59q-82 -67 -188 -98t-211 -31q-209 0 -326.5 122t-117.5 316q0 155 70.5 287.5t197.5 212.5t282 80q184 0 301 -113t117 -285zM612 956q-181 0 -315 -120.5
t-170 -298.5h852q6 35 6 65q0 153 -102.5 253.5t-270.5 100.5z" />
    <glyph glyph-name="f" unicode="f" horiz-adv-x="684" 
d="M715 940h-436l-183 -940h-49l242 1241q25 144 117 226.5t225 82.5q137 0 233 -84l-10 -51q-91 88 -223 88q-114 0 -192 -69t-101 -191l-49 -256h434z" />
    <glyph glyph-name="g" unicode="g" horiz-adv-x="1312" 
d="M958 -35q-43 -227 -181.5 -357t-362.5 -130q-116 0 -222.5 37t-175.5 116l11 56q66 -83 169 -121.5t216 -38.5q205 0 330.5 117t166.5 321l58 299q-71 -127 -195.5 -202.5t-277.5 -75.5q-195 0 -311.5 121.5t-116.5 316.5q0 115 42.5 221.5t116 185.5t178 126t222.5 47
q173 0 283 -98t132 -263l68 344h49zM627 954q-143 0 -261 -72.5t-183.5 -193.5t-65.5 -262q0 -177 105 -285t284 -108q144 0 261.5 73t181 192.5t63.5 258.5q0 180 -105 288.5t-280 108.5z" />
    <glyph glyph-name="h" unicode="h" horiz-adv-x="1241" 
d="M696 954q-179 0 -319.5 -129t-183.5 -333l-97 -492h-49l299 1536h49l-166 -856q73 149 200 236.5t280 87.5q183 0 268.5 -126t44.5 -341l-104 -537h-52l105 532q38 198 -36 310t-239 112z" />
    <glyph glyph-name="i" unicode="i" horiz-adv-x="446" 
d="M272 1296q0 23 15.5 37.5t38.5 14.5q22 0 34.5 -13t12.5 -35q0 -23 -14.5 -37t-36.5 -14t-36 13t-14 34zM47 0l193 987h49l-191 -987h-51z" />
    <glyph glyph-name="j" unicode="j" horiz-adv-x="446" 
d="M322 1249q-22 0 -36 13t-14 34q0 23 15.5 37.5t38.5 14.5q22 0 34.5 -13t12.5 -35q0 -23 -14.5 -37t-36.5 -14zM-231 -526q-107 0 -189 63l10 45q82 -61 177 -61q86 0 148.5 58t84.5 181l240 1227h49l-238 -1225q-29 -149 -103 -218.5t-179 -69.5z" />
    <glyph glyph-name="k" unicode="k" horiz-adv-x="972" 
d="M731 0l-340 571l-217 -174l-78 -397h-49l299 1536h49l-209 -1071l662 522h67l-485 -385l358 -602h-57z" />
    <glyph glyph-name="l" unicode="l" horiz-adv-x="444" 
d="M47 0l299 1536h49l-299 -1536h-49z" />
    <glyph glyph-name="m" unicode="m" horiz-adv-x="1925" 
d="M645 954q-171 0 -292.5 -129.5t-159.5 -332.5l-97 -492h-49l193 987h49l-56 -278q68 138 178 216.5t251 78.5q137 0 218 -83.5t87 -230.5q64 145 177.5 229.5t262.5 84.5q179 0 260.5 -125.5t38.5 -341.5l-104 -537h-52l105 532q38 198 -30.5 310t-229.5 112
q-156 0 -273 -108t-164 -285l-108 -561h-51l104 532q37 194 -30.5 308t-227.5 114z" />
    <glyph glyph-name="n" unicode="n" horiz-adv-x="1241" 
d="M698 954q-180 0 -320 -129t-183 -333l-97 -492h-49l193 987h49l-60 -305q75 149 201 235.5t279 86.5q183 0 268.5 -126t44.5 -341l-106 -537h-50l105 532q38 198 -36.5 310t-238.5 112z" />
    <glyph glyph-name="o" unicode="o" horiz-adv-x="1257" 
d="M66 426q0 154 73.5 286.5t205.5 212t292 79.5q202 0 325 -124t123 -321q0 -115 -44 -220.5t-119.5 -183t-183 -123.5t-228.5 -46q-202 0 -323 121t-121 319zM1032 559q0 175 -106.5 285t-288.5 110q-147 0 -267 -73t-186.5 -193.5t-66.5 -259.5q0 -177 106.5 -286
t286.5 -109q148 0 268.5 73t187 193t66.5 260z" />
    <glyph glyph-name="p" unicode="p" horiz-adv-x="1312" 
d="M580 -14q-174 0 -284 98t-132 262l-166 -858h-49l291 1499h49l-53 -272q73 131 198.5 210t278.5 79q194 0 311 -125t117 -320q0 -154 -73.5 -285.5t-203 -209.5t-284.5 -78zM702 954q-145 0 -263 -74t-182 -194t-64 -258q0 -176 104 -285.5t281 -109.5q143 0 261.5 72
t184.5 192.5t66 259.5q0 176 -104.5 286.5t-283.5 110.5z" />
    <glyph glyph-name="q" unicode="q" 
d="M1159 987l-293 -1499h-49l152 780q-73 -129 -197 -205.5t-278 -76.5q-195 0 -311.5 121.5t-116.5 316.5q0 115 42.5 221.5t116 185.5t178 126t222.5 47q173 0 284.5 -96.5t134.5 -260.5l66 340h49zM627 954q-143 0 -261 -72.5t-183.5 -193.5t-65.5 -262q0 -177 105 -285
t284 -108q145 0 262.5 73t181.5 192.5t64 258.5q0 180 -106 288.5t-281 108.5z" />
    <glyph glyph-name="r" unicode="r" horiz-adv-x="657" 
d="M676 948q-101 2 -201.5 -53.5t-178 -163t-103.5 -242.5l-97 -489h-49l193 987h49l-60 -303q77 147 200 233.5t257 86.5z" />
    <glyph glyph-name="s" unicode="s" horiz-adv-x="913" 
d="M-6 176q119 -147 346 -147q62 0 117 13t100 38.5t71.5 69.5t26.5 100q0 68 -37.5 112.5t-111.5 73.5l-191 80q-176 73 -176 225q0 120 94.5 191.5t233.5 71.5q177 0 307 -121l-10 -54q-57 65 -135.5 98.5t-163.5 33.5q-119 0 -198 -58.5t-79 -157.5q0 -124 152 -186
l188 -80q177 -74 177 -223q0 -127 -104.5 -198.5t-262.5 -71.5q-105 0 -199 33.5t-157 103.5z" />
    <glyph glyph-name="t" unicode="t" horiz-adv-x="770" 
d="M612 61q-118 -75 -266 -75t-214 83t-34 238l197 1024h51l-65 -344h481l-8 -47h-484l-123 -639q-26 -133 30.5 -201.5t176.5 -68.5q142 0 269 86z" />
    <glyph glyph-name="u" unicode="u" horiz-adv-x="1183" 
d="M899 424l109 563h51l-109 -563q-41 -209 -170 -323.5t-315 -114.5q-202 0 -303 117.5t-62 320.5l109 563h49l-108 -565q-35 -182 53.5 -285.5t263.5 -103.5q166 0 280.5 103.5t151.5 287.5z" />
    <glyph glyph-name="v" unicode="v" horiz-adv-x="1046" 
d="M1049 987l-680 -1010l-287 1010h53l252 -907l604 907h58z" />
    <glyph glyph-name="w" unicode="w" horiz-adv-x="1722" 
d="M1714 987l-620 -1010l-203 922l-572 -922l-229 1010h53l199 -899l567 924l203 -918l545 893h57z" />
    <glyph glyph-name="x" unicode="x" horiz-adv-x="997" 
d="M745 0l-305 479l-479 -479h-63l518 516l-301 471h55l281 -438l432 438h61l-469 -475l326 -512h-56z" />
    <glyph glyph-name="y" unicode="y" horiz-adv-x="1019" 
d="M1022 987l-1024 -1499h-57l436 637l-299 862h53l279 -813l555 813h57z" />
    <glyph glyph-name="z" unicode="z" horiz-adv-x="927" 
d="M737 45l-8 -45h-827l872 940h-674l9 47h765l-874 -942h737z" />
    <glyph glyph-name="braceleft" unicode="{" horiz-adv-x="796" 
d="M479 -315h-129q-94 0 -144.5 67.5t-31.5 163.5l100 510q15 81 -24 140t-117 65l8 47q82 5 141 53t74 125l105 535q21 104 88.5 165.5t167.5 61.5h139l-8 -47h-137q-79 0 -132 -51t-71 -136l-100 -524q-18 -85 -73.5 -141t-139.5 -66q79 -18 112 -84t17 -153l-99 -496
q-15 -80 21.5 -134t111.5 -54h131z" />
    <glyph glyph-name="bar" unicode="|" horiz-adv-x="436" 
d="M-37 -676h-49l459 2376h49z" />
    <glyph glyph-name="braceright" unicode="}" horiz-adv-x="794" 
d="M268 1618h131q94 0 144 -68t30 -164l-98 -512q-15 -81 24 -139.5t117 -64.5l-8 -47q-82 -5 -141 -53.5t-74 -125.5l-104 -532q-21 -104 -88.5 -165.5t-167.5 -61.5h-137l8 47h135q80 0 133 51t68 135l102 520q18 87 72.5 143t138.5 66q-77 18 -110 84.5t-17 153.5l98 497
q15 80 -21.5 134.5t-111.5 54.5h-131z" />
    <glyph glyph-name="asciitilde" unicode="~" horiz-adv-x="1050" 
d="M332 858q58 0 125 -27t136.5 -54t133.5 -27q125 0 248 104l-12 -57q-112 -97 -242 -97q-53 0 -110 17t-97.5 37.5t-91.5 37.5t-94 17q-120 0 -250 -107l12 56q125 100 242 100z" />
    <glyph glyph-name="uni00A0" unicode="&#xa0;" horiz-adv-x="501" 
 />
    <glyph glyph-name="exclamdown" unicode="&#xa1;" horiz-adv-x="559" 
d="M317 1008q23 0 38.5 -15.5t15.5 -38.5q0 -25 -16.5 -41t-41.5 -16t-40 15t-15 38q0 26 17 42t42 16zM55 -512h-53l72 375l145 712h43l-133 -712z" />
    <glyph glyph-name="cent" unicode="&#xa2;" horiz-adv-x="1071" 
d="M856 96q-153 -104 -344 -110l-47 -240h-49l47 240q-183 12 -290 131.5t-107 306.5q0 152 69.5 282.5t196 211.5t282.5 86l48 237h49l-47 -237q194 -12 317 -142l-12 -53q-127 145 -338 145q-147 0 -266 -73.5t-183.5 -193.5t-64.5 -259q0 -178 105 -286.5t282 -108.5
q191 0 364 123z" />
    <glyph glyph-name="sterling" unicode="&#xa3;" horiz-adv-x="1142" 
d="M952 45l-10 -45h-993l8 45h137l119 614h-139l10 48h139l74 385q40 206 184 332t350 126q186 0 332 -98l-10 -51q-137 102 -324 102q-182 0 -313.5 -110t-167.5 -299l-76 -387h578l-10 -48h-576l-121 -614h809z" />
    <glyph glyph-name="currency" unicode="&#xa4;" horiz-adv-x="1169" 
d="M961 408l-33 -33l-113 112q-91 -79 -231 -79q-137 0 -234 81l-117 -114l-30 33l114 114q-79 94 -79 234q0 138 79 229l-114 115l30 33l117 -115q94 84 234 84q133 0 233 -80l111 111l33 -33l-111 -111q82 -98 82 -233q0 -142 -84 -236zM287 756q0 -132 83.5 -216.5
t213.5 -84.5q131 0 215 84.5t84 216.5q0 130 -84.5 214.5t-214.5 84.5t-213.5 -84t-83.5 -215z" />
    <glyph glyph-name="yen" unicode="&#xa5;" horiz-adv-x="1374" 
d="M1239 569h-563l-111 -569h-51l111 569h-566l11 47h559l-123 291h-379l8 47h350l-243 582h57l363 -881l706 881h64l-469 -582h352l-8 -47h-381l-236 -291h559z" />
    <glyph glyph-name="brokenbar" unicode="&#xa6;" horiz-adv-x="436" 
d="M227 696h-49l195 1004h49zM-37 -676h-49l192 1004h50z" />
    <glyph glyph-name="section" unicode="&#xa7;" horiz-adv-x="1214" 
d="M852 -139q0 -120 -63 -209.5t-166 -133.5t-232 -44q-115 0 -220.5 37.5t-186.5 113.5l14 56q74 -80 177 -120t218 -40q179 0 293.5 89.5t114.5 246.5q0 97 -46 166t-153 122l-307 154q-227 114 -227 301q0 126 88.5 209t226.5 86q-123 103 -123 268q0 120 63 209.5
t166 133.5t232 44q245 0 409 -151l-14 -56q-75 80 -178.5 120t-218.5 40q-179 0 -292.5 -89.5t-113.5 -246.5q0 -99 45.5 -169t151.5 -121l307 -154q227 -114 227 -301q0 -136 -92.5 -212t-224.5 -83q125 -102 125 -266zM625 190q41 -18 55 -26q146 0 230.5 71.5t84.5 180.5
q0 167 -209 268l-299 147q-8 4 -23.5 12.5t-23.5 12.5h-43q-122 0 -200 -72.5t-78 -179.5q0 -166 207 -266z" />
    <glyph glyph-name="dieresis" unicode="&#xa8;" horiz-adv-x="845" 
d="M326 1249q-20 0 -32.5 13.5t-12.5 33.5q0 23 13.5 37.5t35.5 14.5q21 0 34 -13.5t13 -34.5q0 -23 -14 -37t-37 -14zM721 1249q-21 0 -34 13t-13 34q0 23 14.5 37.5t36.5 14.5q20 0 33.5 -14t13.5 -34q0 -23 -14.5 -37t-36.5 -14z" />
    <glyph glyph-name="copyright" unicode="&#xa9;" horiz-adv-x="1794" 
d="M893 -14q-169 0 -313.5 57.5t-246.5 160t-160 247.5t-58 315t57.5 316t159.5 248.5t247 161t314 58.5q170 0 316 -58.5t248.5 -161t161 -248.5t58.5 -316q0 -228 -100 -406t-278.5 -276t-405.5 -98zM893 27q160 0 297.5 55t234.5 151.5t152 234t55 298.5q0 160 -55 297.5
t-151.5 235t-234.5 153t-298 55.5t-297 -55.5t-233 -153t-150.5 -235t-54.5 -297.5q0 -213 93.5 -382t261.5 -263t380 -94zM920 305q-200 0 -324.5 132.5t-124.5 336.5q0 202 127 333.5t328 131.5q145 0 276 -86v-51q-125 92 -274 92q-181 0 -295.5 -118t-114.5 -300
q0 -185 112 -305.5t292 -120.5q155 0 274 90v-49q-117 -86 -276 -86z" />
    <glyph glyph-name="ordfeminine" unicode="&#xaa;" horiz-adv-x="940" 
d="M791 834l32 174q-52 -88 -138 -138.5t-189 -50.5q-141 0 -228.5 92t-87.5 238q0 169 114 285t281 116q123 0 204 -68.5t102 -178.5l45 233h41l-136 -702h-40zM225 1149q0 -124 76.5 -205.5t202.5 -81.5q141 0 245.5 104t104.5 263q0 123 -77.5 200.5t-203.5 77.5
q-100 0 -181 -51.5t-124 -133t-43 -173.5zM102 623l7 43h671l-8 -43h-670z" />
    <glyph glyph-name="guillemotleft" unicode="&#xab;" horiz-adv-x="933" 
d="M844 926l-381 -391l231 -396h-55l-231 400l376 387h60zM485 926l-381 -391l232 -396h-53l-234 400l377 387h59z" />
    <glyph glyph-name="logicalnot" unicode="&#xac;" horiz-adv-x="1050" 
d="M1004 1008l-89 -457h-49l80 410h-817l8 47h867z" />
    <glyph glyph-name="uni00AD" unicode="&#xad;" horiz-adv-x="0" 
 />
    <glyph glyph-name="registered" unicode="&#xae;" horiz-adv-x="1794" 
d="M893 -14q-169 0 -313.5 57.5t-246.5 160t-160 247.5t-58 315t57.5 316t159.5 248.5t247 161t314 58.5q170 0 316 -58.5t248.5 -161t161 -248.5t58.5 -316q0 -228 -100 -406t-278.5 -276t-405.5 -98zM893 27q160 0 297.5 55t234.5 151.5t152 234t55 298.5q0 160 -55 297.5
t-151.5 235t-234.5 153t-298 55.5t-297 -55.5t-233 -153t-150.5 -235t-54.5 -297.5q0 -213 93.5 -382t261.5 -263t380 -94zM668 672v-365h-47v922h337q121 0 198 -78.5t77 -200.5q0 -108 -62 -182.5t-163 -91.5l233 -369h-55l-230 365h-288zM956 1186h-288v-471h284
q102 0 168 65.5t66 169.5q0 105 -64 170.5t-166 65.5z" />
    <glyph glyph-name="macron" unicode="&#xaf;" horiz-adv-x="845" 
d="M246 1333h571l-8 -45h-573z" />
    <glyph glyph-name="degree" unicode="&#xb0;" horiz-adv-x="827" 
d="M532 1550q138 0 225 -88t87 -221q0 -154 -111.5 -262.5t-267.5 -108.5q-137 0 -222 89t-85 223q0 154 109.5 261t264.5 107zM203 1182q0 -115 73 -192t193 -77q137 0 233.5 97t96.5 231q0 116 -73 191t-194 75q-137 0 -233 -95.5t-96 -229.5z" />
    <glyph glyph-name="plusminus" unicode="&#xb1;" horiz-adv-x="1050" 
d="M983 907h-408l-69 -362h-47l69 362h-409l8 47h410l69 363h49l-69 -363h407zM14 369l11 47h864l-8 -47h-867z" />
    <glyph glyph-name="twosuperior" unicode="&#xb2;" horiz-adv-x="733" 
d="M649 655l-8 -41h-666l461 396q109 93 145 131q87 96 87 192q0 82 -53.5 129t-143.5 47q-152 0 -319 -127l10 52q70 53 153 84.5t160 31.5q107 0 172.5 -57.5t65.5 -153.5q0 -29 -7.5 -58.5t-16 -51.5t-28.5 -50t-31 -43t-39 -41.5t-37.5 -35.5t-40 -35t-34.5 -29
l-395 -340h565z" />
    <glyph glyph-name="threesuperior" unicode="&#xb3;" horiz-adv-x="802" 
d="M700 887q0 -88 -50.5 -153.5t-130 -97.5t-175.5 -32q-160 0 -291 90l8 45q129 -94 285 -94q131 0 220 65.5t89 174.5q0 96 -71.5 147t-182.5 51q-47 0 -100 -6l8 39l97 17q131 20 210.5 75.5t79.5 147.5q0 74 -49 113.5t-133 39.5q-76 0 -157.5 -33.5t-151.5 -89.5l10 50
q65 53 146 83.5t157 30.5q99 0 161 -49.5t62 -138.5q0 -97 -77 -162t-195 -90q103 -13 167 -70.5t64 -152.5z" />
    <glyph glyph-name="acute" unicode="&#xb4;" horiz-adv-x="845" 
d="M721 1454h65l-286 -295h-51z" />
    <glyph glyph-name="paragraph" unicode="&#xb6;" horiz-adv-x="1042" 
d="M694 1536l-299 -1536h-49l164 850q-138 2 -234 86.5t-96 220.5q0 124 63.5 211t168.5 127.5t241 40.5h41zM659 0l299 1536h35l-299 -1536h-35z" />
    <glyph glyph-name="periodcentered" unicode="&#xb7;" horiz-adv-x="845" 
d="M430 770q-22 0 -35.5 13.5t-13.5 33.5q0 23 15 37t38 14q21 0 34 -13t13 -34q0 -23 -14.5 -37t-36.5 -14z" />
    <glyph glyph-name="cedilla" unicode="&#xb8;" horiz-adv-x="845" 
d="M377 -309q0 -79 -61.5 -122.5t-149.5 -43.5q-73 0 -137 37l6 37q61 -39 129 -39q72 0 121 34t49 97q0 47 -30.5 77.5t-76.5 30.5q-40 0 -71 -10l-15 18l123 199h43l-110 -176q12 2 34 2q64 0 105 -39.5t41 -101.5z" />
    <glyph glyph-name="onesuperior" unicode="&#xb9;" horiz-adv-x="491" 
d="M229 614l170 875l-264 -123l8 43l314 147l-185 -942h-43z" />
    <glyph glyph-name="ordmasculine" unicode="&#xba;" horiz-adv-x="931" 
d="M913 1223q0 -166 -118 -285t-285 -119q-147 0 -238.5 93t-91.5 237q0 164 116.5 282.5t285.5 118.5q149 0 240 -92t91 -235zM868 1223q0 126 -78.5 205t-207.5 79q-152 0 -254.5 -107t-102.5 -251q0 -125 79 -206t208 -81q150 0 253 106t103 255zM104 623l7 43h671
l-8 -43h-670z" />
    <glyph glyph-name="guillemotright" unicode="&#xbb;" horiz-adv-x="933" 
d="M432 524l-377 -385h-55l379 391l-232 396h52zM791 524l-377 -385h-60l383 391l-231 396h51z" />
    <glyph glyph-name="onequarter" unicode="&#xbc;" horiz-adv-x="2074" 
d="M418 614l170 875l-264 -123l8 43l313 147l-184 -942h-43zM289 0h-60l1463 1536h59zM1825 209h-154l-41 -209h-45l41 209h-557l512 713h49l-479 -672h483l74 377h45l-74 -377h154z" />
    <glyph glyph-name="onehalf" unicode="&#xbd;" horiz-adv-x="2074" 
d="M356 614l170 875l-264 -123l8 43l314 147l-185 -942h-43zM248 0h-60l1463 1536h59zM1806 41l-8 -41h-665l460 395q110 93 147 134q85 95 85 190q0 82 -53.5 129t-143.5 47q-152 0 -319 -127l10 51q70 53 153 85t160 32q107 0 172.5 -57.5t65.5 -153.5q0 -29 -7.5 -58.5
t-16 -51.5t-28.5 -50t-31 -43t-39 -41.5t-37.5 -35.5t-40 -35t-34.5 -29l-395 -340h565z" />
    <glyph glyph-name="threequarters" unicode="&#xbe;" horiz-adv-x="2074" 
d="M750 887q0 -88 -50.5 -153.5t-130.5 -97.5t-176 -32q-160 0 -291 90l9 45q129 -94 284 -94q131 0 220.5 65.5t89.5 174.5q0 96 -71.5 147t-182.5 51q-49 0 -101 -6l8 39l97 17q131 20 210.5 75.5t79.5 147.5q0 74 -49 113.5t-133 39.5q-76 0 -157.5 -33.5t-151.5 -89.5
l10 50q65 53 146 83.5t157 30.5q100 0 162 -49.5t62 -138.5q0 -97 -77.5 -162t-195.5 -90q103 -13 167.5 -70.5t64.5 -152.5zM354 0h-59l1462 1536h60zM1882 209h-153l-41 -209h-46l41 209h-557l512 713h50l-480 -672h484l73 377h45l-73 -377h153z" />
    <glyph glyph-name="questiondown" unicode="&#xbf;" horiz-adv-x="1146" 
d="M664 1004q23 0 38 -16t15 -40q0 -25 -16.5 -41t-41.5 -16q-24 0 -39.5 15.5t-15.5 39.5q0 25 17.5 41.5t42.5 16.5zM872 -137q-37 -192 -189 -308t-347 -116q-175 0 -285 94t-110 252q0 283 403 432l164 64l59 294h45l-61 -327l-195 -74q-82 -30 -144.5 -65t-113.5 -81.5
t-78.5 -106.5t-27.5 -132q0 -139 95.5 -221t248.5 -82q175 0 314 103.5t173 273.5h49z" />
    <glyph glyph-name="Agrave" unicode="&#xc0;" horiz-adv-x="1462" 
d="M698 1942h64l196 -295h-47zM1227 0l-117 467h-868l-299 -467h-60l1004 1559l393 -1559h-53zM272 514h826l-232 930z" />
    <glyph glyph-name="Aacute" unicode="&#xc1;" horiz-adv-x="1462" 
d="M1096 1942h65l-287 -295h-51zM1227 0l-117 467h-868l-299 -467h-60l1004 1559l393 -1559h-53zM272 514h826l-232 930z" />
    <glyph glyph-name="Acircumflex" unicode="&#xc2;" horiz-adv-x="1462" 
d="M1130 1647l-174 258l-270 -258h-55l299 295h59l195 -295h-54zM1227 0l-117 467h-868l-299 -467h-60l1004 1559l393 -1559h-53zM272 514h826l-232 930z" />
    <glyph glyph-name="Atilde" unicode="&#xc3;" horiz-adv-x="1462" 
d="M1063 1741q-40 0 -85.5 28t-89 56t-79.5 28q-100 0 -121 -112h-39q28 157 158 157q40 0 87 -28.5t91 -57t78 -28.5q47 0 77.5 28.5t41.5 81.5h37q-27 -153 -156 -153zM1227 0l-117 467h-868l-299 -467h-60l1004 1559l393 -1559h-53zM272 514h826l-232 930z" />
    <glyph glyph-name="Adieresis" unicode="&#xc4;" horiz-adv-x="1462" 
d="M723 1772q-20 0 -32.5 13.5t-12.5 33.5q0 23 13.5 37t35.5 14q21 0 34 -13t13 -34q0 -23 -14 -37t-37 -14zM1118 1772q-21 0 -34 13t-13 34q0 23 14.5 37t36.5 14q20 0 33.5 -13.5t13.5 -33.5q0 -23 -14.5 -37t-36.5 -14zM1227 0l-117 467h-868l-299 -467h-60l1004 1559
l393 -1559h-53zM272 514h826l-232 930z" />
    <glyph glyph-name="Aring" unicode="&#xc5;" horiz-adv-x="1462" 
d="M242 467l-299 -467h-60l989 1536q-62 6 -100.5 46.5t-38.5 100.5q0 78 51.5 129.5t126.5 51.5q68 0 113 -42t45 -106q0 -79 -51 -130.5t-125 -51.5l387 -1534h-53l-117 467h-868zM770 1686q0 -51 34 -84t87 -33q62 0 102.5 40t40.5 103q0 51 -34 84t-87 33
q-63 0 -103 -40t-40 -103zM272 514h826l-232 930z" />
    <glyph glyph-name="AE" unicode="&#xc6;" horiz-adv-x="2015" 
d="M948 0l92 471h-675l-418 -471h-64l1364 1536h854l-8 -49h-803l-135 -692h717l-10 -47h-717l-135 -701h825l-10 -47h-877zM406 518h643l182 928z" />
    <glyph glyph-name="Ccedilla" unicode="&#xc7;" horiz-adv-x="1460" 
d="M850 -309q0 -79 -61.5 -122.5t-149.5 -43.5q-73 0 -137 37l6 37q61 -39 129 -39q72 0 121 34t49 97q0 47 -30.5 77.5t-76.5 30.5q-40 0 -71 -10l-15 18l111 179q-286 13 -457.5 199t-171.5 477q0 179 68 342t185 283.5t284 191.5t356 71q318 0 502 -190l-14 -57
q-176 198 -492 198q-178 0 -334.5 -67.5t-265.5 -181.5t-172 -267.5t-63 -320.5q0 -282 168 -456.5t450 -174.5q290 0 528 186l-12 -65q-237 -168 -516 -168l-98 -156q12 2 35 2q63 0 104 -39t41 -102z" />
    <glyph glyph-name="Egrave" unicode="&#xc8;" horiz-adv-x="1114" 
d="M631 1942h63l197 -295h-47zM47 0l299 1536h854l-8 -49h-805l-133 -692h717l-10 -47h-717l-138 -701h828l-10 -47h-877z" />
    <glyph glyph-name="Eacute" unicode="&#xc9;" horiz-adv-x="1114" 
d="M975 1942h65l-286 -295h-52zM47 0l299 1536h854l-8 -49h-805l-133 -692h717l-10 -47h-717l-138 -701h828l-10 -47h-877z" />
    <glyph glyph-name="Ecircumflex" unicode="&#xca;" horiz-adv-x="1114" 
d="M1014 1647l-174 258l-271 -258h-55l299 295h59l195 -295h-53zM47 0l299 1536h854l-8 -49h-805l-133 -692h717l-10 -47h-717l-138 -701h828l-10 -47h-877z" />
    <glyph glyph-name="Edieresis" unicode="&#xcb;" horiz-adv-x="1114" 
d="M618 1755q-20 0 -32.5 13.5t-12.5 33.5q0 23 14 37t36 14q21 0 34 -13t13 -34q0 -23 -14.5 -37t-37.5 -14zM1014 1755q-21 0 -34 13t-13 34q0 23 14.5 37t36.5 14q20 0 33.5 -13.5t13.5 -33.5q0 -23 -14.5 -37t-36.5 -14zM47 0l299 1536h854l-8 -49h-805l-133 -692h717
l-10 -47h-717l-138 -701h828l-10 -47h-877z" />
    <glyph glyph-name="Igrave" unicode="&#xcc;" horiz-adv-x="446" 
d="M182 1942h64l196 -295h-47zM47 0l299 1536h51l-299 -1536h-51z" />
    <glyph glyph-name="Iacute" unicode="&#xcd;" horiz-adv-x="446" 
d="M596 1942h66l-287 -295h-51zM47 0l299 1536h51l-299 -1536h-51z" />
    <glyph glyph-name="Icircumflex" unicode="&#xce;" horiz-adv-x="446" 
d="M629 1647l-174 258l-271 -258h-55l299 295h59l195 -295h-53zM47 0l299 1536h51l-299 -1536h-51z" />
    <glyph glyph-name="Idieresis" unicode="&#xcf;" horiz-adv-x="446" 
d="M229 1755q-20 0 -32.5 13.5t-12.5 33.5q0 23 13.5 37t35.5 14q21 0 34.5 -13.5t13.5 -33.5q0 -23 -14.5 -37t-37.5 -14zM625 1755q-21 0 -34 13t-13 34q0 23 14.5 37t36.5 14q20 0 33.5 -13.5t13.5 -33.5q0 -23 -14.5 -37t-36.5 -14zM47 0l299 1536h51l-299 -1536h-51z
" />
    <glyph glyph-name="Eth" unicode="&#xd0;" horiz-adv-x="1615" 
d="M23 801h192l143 735h453q160 0 292.5 -50.5t222 -141t138.5 -217.5t49 -277q0 -180 -70 -338t-191 -270t-291.5 -177t-364.5 -65h-537l146 752h-193zM815 752h-559l-137 -705h477q246 0 444 104.5t309 287.5t111 409q0 285 -174 462t-473 177h-414l-133 -686h557z" />
    <glyph glyph-name="Ntilde" unicode="&#xd1;" horiz-adv-x="1656" 
d="M1159 1741q-40 0 -85.5 28t-89 56t-79.5 28q-100 0 -121 -112h-39q28 157 158 157q40 0 87 -28.5t91 -57t78 -28.5q47 0 77.5 28.5t41.5 81.5h37q-27 -153 -156 -153zM1305 -23l-928 1457l-279 -1434h-51l303 1559l928 -1457l278 1434h52z" />
    <glyph glyph-name="Ograve" unicode="&#xd2;" horiz-adv-x="1763" 
d="M864 1942h64l196 -295h-47zM1665 864q0 -174 -68.5 -335.5t-185 -280.5t-280.5 -190.5t-345 -71.5q-308 0 -498 190.5t-190 491.5q0 175 68 337t184.5 282t280 191.5t344.5 71.5q205 0 362.5 -88t242.5 -244t85 -354zM791 33q170 0 323.5 68t262 181.5t172 265.5
t63.5 316q0 281 -175.5 459t-461.5 178q-171 0 -325 -68t-262.5 -181.5t-172 -265.5t-63.5 -316q0 -185 78.5 -329.5t224.5 -226t336 -81.5z" />
    <glyph glyph-name="Oacute" unicode="&#xd3;" horiz-adv-x="1763" 
d="M1219 1942h65l-287 -295h-51zM1665 864q0 -174 -68.5 -335.5t-185 -280.5t-280.5 -190.5t-345 -71.5q-308 0 -498 190.5t-190 491.5q0 175 68 337t184.5 282t280 191.5t344.5 71.5q205 0 362.5 -88t242.5 -244t85 -354zM791 33q170 0 323.5 68t262 181.5t172 265.5
t63.5 316q0 281 -175.5 459t-461.5 178q-171 0 -325 -68t-262.5 -181.5t-172 -265.5t-63.5 -316q0 -185 78.5 -329.5t224.5 -226t336 -81.5z" />
    <glyph glyph-name="Ocircumflex" unicode="&#xd4;" horiz-adv-x="1763" 
d="M1274 1647l-174 258l-271 -258h-55l299 295h60l194 -295h-53zM1665 864q0 -174 -68.5 -335.5t-185 -280.5t-280.5 -190.5t-345 -71.5q-308 0 -498 190.5t-190 491.5q0 175 68 337t184.5 282t280 191.5t344.5 71.5q205 0 362.5 -88t242.5 -244t85 -354zM791 33
q170 0 323.5 68t262 181.5t172 265.5t63.5 316q0 281 -175.5 459t-461.5 178q-171 0 -325 -68t-262.5 -181.5t-172 -265.5t-63.5 -316q0 -185 78.5 -329.5t224.5 -226t336 -81.5z" />
    <glyph glyph-name="Otilde" unicode="&#xd5;" horiz-adv-x="1763" 
d="M1200 1741q-40 0 -85.5 28t-89 56t-79.5 28q-100 0 -121 -112h-39q28 157 158 157q40 0 87 -28.5t91 -57t78 -28.5q47 0 77.5 28.5t41.5 81.5h37q-27 -153 -156 -153zM1665 864q0 -174 -68.5 -335.5t-185 -280.5t-280.5 -190.5t-345 -71.5q-308 0 -498 190.5t-190 491.5
q0 175 68 337t184.5 282t280 191.5t344.5 71.5q205 0 362.5 -88t242.5 -244t85 -354zM791 33q170 0 323.5 68t262 181.5t172 265.5t63.5 316q0 281 -175.5 459t-461.5 178q-171 0 -325 -68t-262.5 -181.5t-172 -265.5t-63.5 -316q0 -185 78.5 -329.5t224.5 -226t336 -81.5z
" />
    <glyph glyph-name="Odieresis" unicode="&#xd6;" horiz-adv-x="1763" 
d="M881 1755q-20 0 -32.5 13.5t-12.5 33.5q0 23 13.5 37t35.5 14q21 0 34 -13t13 -34q0 -23 -14 -37t-37 -14zM1276 1755q-21 0 -34 13t-13 34q0 23 14.5 37t36.5 14q20 0 33.5 -13.5t13.5 -33.5q0 -23 -14.5 -37t-36.5 -14zM1665 864q0 -174 -68.5 -335.5t-185 -280.5
t-280.5 -190.5t-345 -71.5q-308 0 -498 190.5t-190 491.5q0 175 68 337t184.5 282t280 191.5t344.5 71.5q205 0 362.5 -88t242.5 -244t85 -354zM791 33q170 0 323.5 68t262 181.5t172 265.5t63.5 316q0 281 -175.5 459t-461.5 178q-171 0 -325 -68t-262.5 -181.5
t-172 -265.5t-63.5 -316q0 -185 78.5 -329.5t224.5 -226t336 -81.5z" />
    <glyph glyph-name="multiply" unicode="&#xd7;" horiz-adv-x="1050" 
d="M825 436l-37 -30l-268 333l-399 -333l-27 34l398 334l-265 330l35 31l266 -330l400 334l28 -35l-399 -334z" />
    <glyph glyph-name="Oslash" unicode="&#xd8;" horiz-adv-x="1771" 
d="M1667 864q0 -174 -68 -335.5t-184 -280.5t-279.5 -190.5t-344.5 -71.5q-175 0 -316 64t-231 181l-289 -231h-70l332 266q-115 172 -115 402q0 175 68 337t184.5 282t280 191.5t344.5 71.5q171 0 310 -62.5t231 -176.5l282 225h66l-324 -260q123 -171 123 -412zM154 670
q0 -215 104 -371l1223 979q-86 106 -215 164.5t-289 58.5q-170 0 -324 -68t-262.5 -181.5t-172.5 -265.5t-64 -316zM1616 864q0 221 -111 381l-1222 -981q87 -110 217.5 -170.5t292.5 -60.5q171 0 325 68t262.5 181.5t172 265.5t63.5 316z" />
    <glyph glyph-name="Ugrave" unicode="&#xd9;" horiz-adv-x="1533" 
d="M739 1942h64l196 -295h-47zM139 641l174 895h52l-175 -897q-35 -176 12.5 -314.5t166 -215t286.5 -76.5q250 0 416.5 165t220.5 441l176 897h50l-172 -895q-58 -303 -238 -479t-455 -176q-186 0 -316.5 83t-183 232.5t-14.5 339.5z" />
    <glyph glyph-name="Uacute" unicode="&#xda;" horiz-adv-x="1533" 
d="M1110 1942h66l-287 -295h-51zM139 641l174 895h52l-175 -897q-35 -176 12.5 -314.5t166 -215t286.5 -76.5q250 0 416.5 165t220.5 441l176 897h50l-172 -895q-58 -303 -238 -479t-455 -176q-186 0 -316.5 83t-183 232.5t-14.5 339.5z" />
    <glyph glyph-name="Ucircumflex" unicode="&#xdb;" horiz-adv-x="1533" 
d="M1163 1647l-174 258l-270 -258h-55l299 295h59l195 -295h-54zM139 641l174 895h52l-175 -897q-35 -176 12.5 -314.5t166 -215t286.5 -76.5q250 0 416.5 165t220.5 441l176 897h50l-172 -895q-58 -303 -238 -479t-455 -176q-186 0 -316.5 83t-183 232.5t-14.5 339.5z" />
    <glyph glyph-name="Udieresis" unicode="&#xdc;" horiz-adv-x="1533" 
d="M752 1755q-20 0 -32.5 13.5t-12.5 33.5q0 23 13.5 37t35.5 14q21 0 34 -13t13 -34q0 -23 -14 -37t-37 -14zM1147 1755q-21 0 -34 13t-13 34q0 23 14.5 37t36.5 14q20 0 33.5 -13.5t13.5 -33.5q0 -23 -14.5 -37t-36.5 -14zM139 641l174 895h52l-175 -897
q-35 -176 12.5 -314.5t166 -215t286.5 -76.5q250 0 416.5 165t220.5 441l176 897h50l-172 -895q-58 -303 -238 -479t-455 -176q-186 0 -316.5 83t-183 232.5t-14.5 339.5z" />
    <glyph glyph-name="Yacute" unicode="&#xdd;" horiz-adv-x="1234" 
d="M963 1942h65l-287 -295h-51zM1360 1536l-748 -928l-118 -608h-52l119 606l-389 930h55l365 -879l704 879h64z" />
    <glyph glyph-name="Thorn" unicode="&#xde;" horiz-adv-x="1161" 
d="M473 279h-321l-54 -279h-51l299 1536h51l-51 -262h256q227 0 353 -116.5t126 -317.5q0 -248 -170 -404.5t-438 -156.5zM600 1227h-262l-176 -901h311q251 0 403 143.5t152 368.5q0 181 -110.5 285t-317.5 104z" />
    <glyph glyph-name="germandbls" unicode="&#xdf;" horiz-adv-x="1234" 
d="M96 0h-51l229 1167q35 189 145.5 286t258.5 97q136 0 223.5 -75.5t87.5 -194.5q0 -62 -25.5 -122t-74.5 -134l-70 -104q-69 -99 -69 -144q0 -27 15 -51t62 -59l119 -91q131 -98 131 -245q0 -152 -126 -248t-304 -96q-92 0 -181.5 25.5t-143.5 74.5l12 53
q52 -52 138.5 -81t174.5 -29q156 0 267.5 84.5t111.5 214.5q0 129 -113 211l-129 92q-50 36 -68 66.5t-18 68.5q0 25 11.5 55t22 47.5t38.5 63.5l70 100q34 52 51 81t33 74t16 87q0 101 -73.5 165t-190.5 64q-127 0 -223.5 -83.5t-128.5 -248.5z" />
    <glyph glyph-name="agrave" unicode="&#xe0;" 
d="M551 1454h63l197 -295h-47zM915 0l52 264q-73 -127 -196.5 -202.5t-276.5 -75.5q-195 0 -311.5 121.5t-116.5 316.5q0 115 42.5 221.5t116 185.5t178 126t222.5 47q173 0 283 -98t132 -263l68 344h49l-192 -987h-50zM627 954q-143 0 -261 -72.5t-183.5 -193.5t-65.5 -262
q0 -177 105 -285t284 -108q144 0 261.5 73t181 192.5t63.5 258.5q0 180 -105 288.5t-280 108.5z" />
    <glyph glyph-name="aacute" unicode="&#xe1;" 
d="M940 1454h66l-287 -295h-51zM915 0l52 264q-73 -127 -196.5 -202.5t-276.5 -75.5q-195 0 -311.5 121.5t-116.5 316.5q0 115 42.5 221.5t116 185.5t178 126t222.5 47q173 0 283 -98t132 -263l68 344h49l-192 -987h-50zM627 954q-143 0 -261 -72.5t-183.5 -193.5
t-65.5 -262q0 -177 105 -285t284 -108q144 0 261.5 73t181 192.5t63.5 258.5q0 180 -105 288.5t-280 108.5z" />
    <glyph glyph-name="acircumflex" unicode="&#xe2;" 
d="M975 1159l-174 258l-271 -258h-55l299 295h60l194 -295h-53zM915 0l52 264q-73 -127 -196.5 -202.5t-276.5 -75.5q-195 0 -311.5 121.5t-116.5 316.5q0 115 42.5 221.5t116 185.5t178 126t222.5 47q173 0 283 -98t132 -263l68 344h49l-192 -987h-50zM627 954
q-143 0 -261 -72.5t-183.5 -193.5t-65.5 -262q0 -177 105 -285t284 -108q144 0 261.5 73t181 192.5t63.5 258.5q0 180 -105 288.5t-280 108.5z" />
    <glyph glyph-name="atilde" unicode="&#xe3;" 
d="M895 1253q-32 0 -68 17.5t-63 39t-60.5 39t-62.5 17.5q-100 0 -121 -113h-39q28 158 158 158q32 0 69 -18t64.5 -39.5t61.5 -39.5t61 -18q47 0 77.5 29t41.5 82h37q-27 -154 -156 -154zM915 0l52 264q-73 -127 -196.5 -202.5t-276.5 -75.5q-195 0 -311.5 121.5
t-116.5 316.5q0 115 42.5 221.5t116 185.5t178 126t222.5 47q173 0 283 -98t132 -263l68 344h49l-192 -987h-50zM627 954q-143 0 -261 -72.5t-183.5 -193.5t-65.5 -262q0 -177 105 -285t284 -108q144 0 261.5 73t181 192.5t63.5 258.5q0 180 -105 288.5t-280 108.5z" />
    <glyph glyph-name="adieresis" unicode="&#xe4;" 
d="M571 1249q-20 0 -32.5 13.5t-12.5 33.5q0 23 13.5 37.5t35.5 14.5q21 0 34.5 -13.5t13.5 -34.5q0 -23 -14.5 -37t-37.5 -14zM967 1249q-21 0 -34 13t-13 34q0 23 14.5 37.5t36.5 14.5q20 0 33.5 -14t13.5 -34q0 -23 -14.5 -37t-36.5 -14zM915 0l52 264
q-73 -127 -196.5 -202.5t-276.5 -75.5q-195 0 -311.5 121.5t-116.5 316.5q0 115 42.5 221.5t116 185.5t178 126t222.5 47q173 0 283 -98t132 -263l68 344h49l-192 -987h-50zM627 954q-143 0 -261 -72.5t-183.5 -193.5t-65.5 -262q0 -177 105 -285t284 -108q144 0 261.5 73
t181 192.5t63.5 258.5q0 180 -105 288.5t-280 108.5z" />
    <glyph glyph-name="aring" unicode="&#xe5;" 
d="M764 1483q68 0 113 -42t45 -106q0 -79 -51.5 -130.5t-127.5 -51.5q-68 0 -112.5 43t-44.5 107q0 77 51 128.5t127 51.5zM623 1305q0 -51 34 -84t86 -33q62 0 103 40t41 103q0 51 -34 84t-87 33q-63 0 -103 -40t-40 -103zM915 0l52 264q-73 -127 -196.5 -202.5
t-276.5 -75.5q-195 0 -311.5 121.5t-116.5 316.5q0 115 42.5 221.5t116 185.5t178 126t222.5 47q173 0 283 -98t132 -263l68 344h49l-192 -987h-50zM627 954q-143 0 -261 -72.5t-183.5 -193.5t-65.5 -262q0 -177 105 -285t284 -108q144 0 261.5 73t181 192.5t63.5 258.5
q0 180 -105 288.5t-280 108.5z" />
    <glyph glyph-name="ae" unicode="&#xe6;" horiz-adv-x="1984" 
d="M1694 115q-174 -129 -381 -129q-160 0 -274.5 79t-153.5 222q-115 -137 -255 -219t-292 -82q-143 0 -237.5 71t-94.5 199q0 124 88 201.5t228 77.5h557q6 39 6 79q0 153 -95.5 247.5t-261.5 94.5q-184 0 -356 -114l10 57q173 105 350 105q170 0 277 -98t115 -257
q58 162 192 258.5t297 96.5q182 0 300 -113t118 -281q0 -66 -12 -118h-895q-8 -66 -6 -101q4 -160 115 -259t284 -99q203 0 387 139zM1409 956q-180 0 -311 -116.5t-168 -304.5h848q4 50 4 67q0 159 -105 256.5t-268 97.5zM342 31q144 0 282.5 81.5t247.5 221.5q-9 75 2 158
h-552q-117 0 -191 -64.5t-74 -167.5q0 -110 81 -169.5t204 -59.5z" />
    <glyph glyph-name="ccedilla" unicode="&#xe7;" horiz-adv-x="1075" 
d="M573 -309q0 -79 -61.5 -122.5t-149.5 -43.5q-73 0 -137 37l6 37q61 -39 129 -39q72 0 121 34t49 97q0 47 -30 77.5t-76 30.5q-41 0 -72 -10l-14 18l111 181q-178 15 -280.5 133t-102.5 297q0 157 76.5 292t207.5 214.5t285 79.5q99 0 190 -37t156 -105l-12 -53
q-127 145 -336 145q-140 0 -259.5 -72.5t-188 -194.5t-68.5 -263q0 -175 104 -283t283 -108q191 0 364 123l-12 -60q-163 -110 -358 -110h-6l-99 -156q12 2 35 2q63 0 104 -39t41 -102z" />
    <glyph glyph-name="egrave" unicode="&#xe8;" horiz-adv-x="1185" 
d="M498 1454h63l197 -295h-47zM1034 606q0 -60 -14 -112h-899q-4 -46 -4 -66q0 -175 106 -285t293 -110q106 0 215 34.5t191 106.5l-13 -59q-82 -67 -188 -98t-211 -31q-209 0 -326.5 122t-117.5 316q0 155 70.5 287.5t197.5 212.5t282 80q184 0 301 -113t117 -285zM612 956
q-181 0 -315 -120.5t-170 -298.5h852q6 35 6 65q0 153 -102.5 253.5t-270.5 100.5z" />
    <glyph glyph-name="eacute" unicode="&#xe9;" horiz-adv-x="1185" 
d="M870 1454h66l-287 -295h-51zM1034 606q0 -60 -14 -112h-899q-4 -46 -4 -66q0 -175 106 -285t293 -110q106 0 215 34.5t191 106.5l-13 -59q-82 -67 -188 -98t-211 -31q-209 0 -326.5 122t-117.5 316q0 155 70.5 287.5t197.5 212.5t282 80q184 0 301 -113t117 -285z
M612 956q-181 0 -315 -120.5t-170 -298.5h852q6 35 6 65q0 153 -102.5 253.5t-270.5 100.5z" />
    <glyph glyph-name="ecircumflex" unicode="&#xea;" horiz-adv-x="1185" 
d="M907 1159l-174 258l-270 -258h-55l299 295h59l195 -295h-54zM1034 606q0 -60 -14 -112h-899q-4 -46 -4 -66q0 -175 106 -285t293 -110q106 0 215 34.5t191 106.5l-13 -59q-82 -67 -188 -98t-211 -31q-209 0 -326.5 122t-117.5 316q0 155 70.5 287.5t197.5 212.5t282 80
q184 0 301 -113t117 -285zM612 956q-181 0 -315 -120.5t-170 -298.5h852q6 35 6 65q0 153 -102.5 253.5t-270.5 100.5z" />
    <glyph glyph-name="edieresis" unicode="&#xeb;" horiz-adv-x="1185" 
d="M504 1249q-20 0 -32.5 13.5t-12.5 33.5q0 23 13.5 37.5t35.5 14.5q21 0 34 -13.5t13 -34.5q0 -23 -14 -37t-37 -14zM899 1249q-21 0 -34 13t-13 34q0 23 14.5 37.5t36.5 14.5q20 0 33.5 -14t13.5 -34q0 -23 -14.5 -37t-36.5 -14zM1034 606q0 -60 -14 -112h-899
q-4 -46 -4 -66q0 -175 106 -285t293 -110q106 0 215 34.5t191 106.5l-13 -59q-82 -67 -188 -98t-211 -31q-209 0 -326.5 122t-117.5 316q0 155 70.5 287.5t197.5 212.5t282 80q184 0 301 -113t117 -285zM612 956q-181 0 -315 -120.5t-170 -298.5h852q6 35 6 65
q0 153 -102.5 253.5t-270.5 100.5z" />
    <glyph glyph-name="igrave" unicode="&#xec;" horiz-adv-x="444" 
d="M90 1454h64l196 -295h-47zM47 0l193 987h49l-193 -987h-49z" />
    <glyph glyph-name="iacute" unicode="&#xed;" horiz-adv-x="444" 
d="M522 1454h66l-287 -295h-51zM47 0l193 987h49l-193 -987h-49z" />
    <glyph glyph-name="icircumflex" unicode="&#xee;" horiz-adv-x="444" 
d="M522 1159l-174 258l-270 -258h-55l299 295h59l194 -295h-53zM47 0l193 987h49l-193 -987h-49z" />
    <glyph glyph-name="idieresis" unicode="&#xef;" horiz-adv-x="444" 
d="M127 1249q-20 0 -32.5 13.5t-12.5 33.5q0 23 13.5 37.5t35.5 14.5q21 0 34 -13.5t13 -34.5q0 -23 -14 -37t-37 -14zM522 1249q-21 0 -34 13t-13 34q0 23 14.5 37.5t36.5 14.5q20 0 33.5 -14t13.5 -34q0 -23 -14.5 -37t-36.5 -14zM47 0l193 987h49l-193 -987h-49z" />
    <glyph glyph-name="eth" unicode="&#xf0;" horiz-adv-x="1150" 
d="M1020 496q-42 -228 -198.5 -369t-375.5 -141q-199 0 -316.5 118.5t-117.5 307.5q0 150 70.5 278.5t197.5 205.5t281 77q172 0 289 -96t147 -254q3 73 0 141q-1 181 -57.5 328.5t-155.5 244.5l-237 -188h-64l273 215q-149 127 -342 127l10 45q209 0 369 -141l178 141h65
l-213 -170q102 -103 160 -257.5t61 -344.5q3 -123 -24 -268zM563 924q-141 0 -256.5 -70.5t-179.5 -187.5t-64 -252q0 -171 105.5 -276t284.5 -105q110 0 207 42.5t163 111.5t104 159t38 184q0 170 -111.5 282t-290.5 112z" />
    <glyph glyph-name="ntilde" unicode="&#xf1;" horiz-adv-x="1241" 
d="M864 1253q-32 0 -68 17.5t-63 39t-60.5 39t-62.5 17.5q-100 0 -121 -113h-38q28 158 157 158q32 0 69 -18t64.5 -39.5t61.5 -39.5t61 -18q47 0 77.5 29t41.5 82h37q-27 -154 -156 -154zM698 954q-180 0 -320 -129t-183 -333l-97 -492h-49l193 987h49l-60 -305
q75 149 201 235.5t279 86.5q183 0 268.5 -126t44.5 -341l-106 -537h-50l105 532q38 198 -36.5 310t-238.5 112z" />
    <glyph glyph-name="ograve" unicode="&#xf2;" horiz-adv-x="1257" 
d="M520 1454h64l196 -295h-47zM66 426q0 154 73.5 286.5t205.5 212t292 79.5q202 0 325 -124t123 -321q0 -115 -44 -220.5t-119.5 -183t-183 -123.5t-228.5 -46q-202 0 -323 121t-121 319zM1032 559q0 175 -106.5 285t-288.5 110q-147 0 -267 -73t-186.5 -193.5
t-66.5 -259.5q0 -177 106.5 -286t286.5 -109q148 0 268.5 73t187 193t66.5 260z" />
    <glyph glyph-name="oacute" unicode="&#xf3;" horiz-adv-x="1257" 
d="M893 1454h65l-286 -295h-51zM66 426q0 154 73.5 286.5t205.5 212t292 79.5q202 0 325 -124t123 -321q0 -115 -44 -220.5t-119.5 -183t-183 -123.5t-228.5 -46q-202 0 -323 121t-121 319zM1032 559q0 175 -106.5 285t-288.5 110q-147 0 -267 -73t-186.5 -193.5
t-66.5 -259.5q0 -177 106.5 -286t286.5 -109q148 0 268.5 73t187 193t66.5 260z" />
    <glyph glyph-name="ocircumflex" unicode="&#xf4;" horiz-adv-x="1257" 
d="M924 1159l-174 258l-271 -258h-55l299 295h59l195 -295h-53zM66 426q0 154 73.5 286.5t205.5 212t292 79.5q202 0 325 -124t123 -321q0 -115 -44 -220.5t-119.5 -183t-183 -123.5t-228.5 -46q-202 0 -323 121t-121 319zM1032 559q0 175 -106.5 285t-288.5 110
q-147 0 -267 -73t-186.5 -193.5t-66.5 -259.5q0 -177 106.5 -286t286.5 -109q148 0 268.5 73t187 193t66.5 260z" />
    <glyph glyph-name="otilde" unicode="&#xf5;" horiz-adv-x="1257" 
d="M856 1253q-32 0 -68 17.5t-63 39t-60.5 39t-62.5 17.5q-100 0 -121 -113h-39q28 158 158 158q32 0 69 -18t64.5 -39.5t61.5 -39.5t61 -18q47 0 77.5 29t41.5 82h37q-27 -154 -156 -154zM66 426q0 154 73.5 286.5t205.5 212t292 79.5q202 0 325 -124t123 -321
q0 -115 -44 -220.5t-119.5 -183t-183 -123.5t-228.5 -46q-202 0 -323 121t-121 319zM1032 559q0 175 -106.5 285t-288.5 110q-147 0 -267 -73t-186.5 -193.5t-66.5 -259.5q0 -177 106.5 -286t286.5 -109q148 0 268.5 73t187 193t66.5 260z" />
    <glyph glyph-name="odieresis" unicode="&#xf6;" horiz-adv-x="1257" 
d="M524 1249q-20 0 -32.5 13.5t-12.5 33.5q0 23 13.5 37.5t35.5 14.5q21 0 34 -13.5t13 -34.5q0 -23 -14 -37t-37 -14zM920 1249q-22 0 -35 13.5t-13 33.5q0 23 15 37.5t37 14.5q20 0 33.5 -14t13.5 -34q0 -23 -14.5 -37t-36.5 -14zM66 426q0 154 73.5 286.5t205.5 212
t292 79.5q202 0 325 -124t123 -321q0 -115 -44 -220.5t-119.5 -183t-183 -123.5t-228.5 -46q-202 0 -323 121t-121 319zM1032 559q0 175 -106.5 285t-288.5 110q-147 0 -267 -73t-186.5 -193.5t-66.5 -259.5q0 -177 106.5 -286t286.5 -109q148 0 268.5 73t187 193t66.5 260z
" />
    <glyph glyph-name="divide" unicode="&#xf7;" horiz-adv-x="1050" 
d="M539 1085q0 22 13.5 36t35.5 14t34.5 -12.5t12.5 -32.5q0 -22 -14 -36t-37 -14q-20 0 -32.5 12.5t-12.5 32.5zM88 752l10 47h865l-9 -47h-866zM418 459q0 23 14 37t37 14q20 0 32.5 -13.5t12.5 -33.5q0 -22 -13.5 -35.5t-35.5 -13.5t-34.5 12.5t-12.5 32.5z" />
    <glyph glyph-name="oslash" unicode="&#xf8;" horiz-adv-x="1255" 
d="M1081 559q0 -154 -74 -285.5t-206.5 -209.5t-292.5 -78q-226 0 -350 149l-174 -135h-66l215 168q-72 110 -72 258q0 154 73.5 286.5t206 212t292.5 79.5q227 0 354 -156l178 139h66l-219 -174q69 -107 69 -254zM113 428q0 -133 61 -227l774 614q-107 139 -315 139
q-147 0 -267 -73t-186.5 -193.5t-66.5 -259.5zM1030 559q0 127 -57 221l-776 -612q107 -135 311 -135q147 0 267.5 73t187.5 193t67 260z" />
    <glyph glyph-name="ugrave" unicode="&#xf9;" horiz-adv-x="1183" 
d="M481 1454h64l196 -295h-47zM899 424l109 563h51l-109 -563q-41 -209 -170 -323.5t-315 -114.5q-202 0 -303 117.5t-62 320.5l109 563h49l-108 -565q-35 -182 53.5 -285.5t263.5 -103.5q166 0 280.5 103.5t151.5 287.5z" />
    <glyph glyph-name="uacute" unicode="&#xfa;" horiz-adv-x="1183" 
d="M854 1454h66l-287 -295h-51zM899 424l109 563h51l-109 -563q-41 -209 -170 -323.5t-315 -114.5q-202 0 -303 117.5t-62 320.5l109 563h49l-108 -565q-35 -182 53.5 -285.5t263.5 -103.5q166 0 280.5 103.5t151.5 287.5z" />
    <glyph glyph-name="ucircumflex" unicode="&#xfb;" horiz-adv-x="1183" 
d="M887 1159l-174 258l-271 -258h-55l299 295h59l195 -295h-53zM899 424l109 563h51l-109 -563q-41 -209 -170 -323.5t-315 -114.5q-202 0 -303 117.5t-62 320.5l109 563h49l-108 -565q-35 -182 53.5 -285.5t263.5 -103.5q166 0 280.5 103.5t151.5 287.5z" />
    <glyph glyph-name="udieresis" unicode="&#xfc;" horiz-adv-x="1183" 
d="M489 1249q-20 0 -32.5 13.5t-12.5 33.5q0 23 14 37.5t36 14.5q21 0 34 -13.5t13 -34.5q0 -23 -14.5 -37t-37.5 -14zM885 1249q-21 0 -34 13t-13 34q0 23 14.5 37.5t36.5 14.5q20 0 33.5 -14t13.5 -34q0 -23 -14.5 -37t-36.5 -14zM899 424l109 563h51l-109 -563
q-41 -209 -170 -323.5t-315 -114.5q-202 0 -303 117.5t-62 320.5l109 563h49l-108 -565q-35 -182 53.5 -285.5t263.5 -103.5q166 0 280.5 103.5t151.5 287.5z" />
    <glyph glyph-name="yacute" unicode="&#xfd;" horiz-adv-x="1019" 
d="M772 1454h66l-287 -295h-51zM1022 987l-1024 -1499h-57l436 637l-299 862h53l279 -813l555 813h57z" />
    <glyph glyph-name="thorn" unicode="&#xfe;" 
d="M580 -14q-174 0 -284 98t-132 262l-166 -858h-49l397 2048h49l-159 -821q73 131 198.5 210t278.5 79q194 0 311 -125t117 -320q0 -154 -73.5 -285.5t-203 -209.5t-284.5 -78zM702 954q-145 0 -263 -74t-182 -194t-64 -258q0 -176 104 -285.5t281 -109.5q143 0 261.5 72
t184.5 192.5t66 259.5q0 176 -104.5 286.5t-283.5 110.5z" />
    <glyph glyph-name="ydieresis" unicode="&#xff;" horiz-adv-x="1019" 
d="M416 1249q-20 0 -32.5 13.5t-12.5 33.5q0 23 13.5 37.5t35.5 14.5q21 0 34 -13.5t13 -34.5q0 -23 -14 -37t-37 -14zM811 1249q-21 0 -34 13t-13 34q0 23 14.5 37.5t36.5 14.5q20 0 33.5 -14t13.5 -34q0 -23 -14.5 -37t-36.5 -14zM1022 987l-1024 -1499h-57l436 637
l-299 862h53l279 -813l555 813h57z" />
    <glyph glyph-name="Amacron" unicode="&#x100;" horiz-adv-x="1462" 
d="M651 1821h572l-9 -45h-573zM1227 0l-117 467h-868l-299 -467h-60l1004 1559l393 -1559h-53zM272 514h826l-232 930z" />
    <glyph glyph-name="amacron" unicode="&#x101;" 
d="M496 1333h571l-8 -45h-574zM915 0l52 264q-73 -127 -196.5 -202.5t-276.5 -75.5q-195 0 -311.5 121.5t-116.5 316.5q0 115 42.5 221.5t116 185.5t178 126t222.5 47q173 0 283 -98t132 -263l68 344h49l-192 -987h-50zM627 954q-143 0 -261 -72.5t-183.5 -193.5t-65.5 -262
q0 -177 105 -285t284 -108q144 0 261.5 73t181 192.5t63.5 258.5q0 180 -105 288.5t-280 108.5z" />
    <glyph glyph-name="Abreve" unicode="&#x102;" horiz-adv-x="1462" 
d="M918 1731q100 0 173 57t91 154h45q-22 -116 -108 -185t-206 -69q-110 0 -176 73t-47 181h45q-17 -89 36.5 -150t146.5 -61zM1227 0l-117 467h-868l-299 -467h-60l1004 1559l393 -1559h-53zM272 514h826l-232 930z" />
    <glyph glyph-name="abreve" unicode="&#x103;" 
d="M745 1225q100 0 173.5 57t91.5 154h45q-22 -116 -108 -185t-206 -69q-110 0 -176 73t-47 181h45q-17 -89 36 -150t146 -61zM915 0l52 264q-73 -127 -196.5 -202.5t-276.5 -75.5q-195 0 -311.5 121.5t-116.5 316.5q0 115 42.5 221.5t116 185.5t178 126t222.5 47
q173 0 283 -98t132 -263l68 344h49l-192 -987h-50zM627 954q-143 0 -261 -72.5t-183.5 -193.5t-65.5 -262q0 -177 105 -285t284 -108q144 0 261.5 73t181 192.5t63.5 258.5q0 180 -105 288.5t-280 108.5z" />
    <glyph glyph-name="Aogonek" unicode="&#x104;" horiz-adv-x="1462" 
d="M1190 -455q-58 -20 -107 -20q-65 0 -105.5 38.5t-41.5 104.5q-1 99 77.5 184.5t211.5 153.5l-115 461h-868l-299 -467h-60l1004 1559l393 -1559h-2q-298 -151 -295 -326q1 -52 32 -81t83 -29q51 0 100 22zM272 514h826l-232 930z" />
    <glyph glyph-name="aogonek" unicode="&#x105;" 
d="M877 -455q-58 -20 -107 -20q-65 0 -105.5 38.5t-41.5 104.5q-1 100 79 186t216 154l49 256q-73 -127 -196.5 -202.5t-276.5 -75.5q-195 0 -311.5 121.5t-116.5 316.5q0 115 42.5 221.5t116 185.5t178 126t222.5 47q173 0 283 -98t132 -263l68 344h49l-192 -987
q-298 -151 -295 -326q1 -52 32 -81t82 -29q52 0 101 22zM627 954q-143 0 -261 -72.5t-183.5 -193.5t-65.5 -262q0 -177 105 -285t284 -108q144 0 261.5 73t181 192.5t63.5 258.5q0 180 -105 288.5t-280 108.5z" />
    <glyph glyph-name="Cacute" unicode="&#x106;" horiz-adv-x="1460" 
d="M1167 1942h66l-287 -295h-51zM1491 1360l-14 -57q-176 198 -492 198q-178 0 -334.5 -67.5t-265.5 -181.5t-172 -267.5t-63 -320.5q0 -282 168 -456.5t450 -174.5q290 0 528 186l-12 -65q-237 -168 -520 -168q-302 0 -485 187.5t-183 488.5q0 179 68 342t185 283.5
t284 191.5t356 71q318 0 502 -190z" />
    <glyph glyph-name="cacute" unicode="&#x107;" horiz-adv-x="1075" 
d="M860 1454h66l-287 -295h-51zM117 424q0 -175 104 -283t283 -108q191 0 364 123l-12 -60q-163 -110 -358 -110q-198 0 -315 120t-117 312q0 157 76.5 292t207.5 214.5t285 79.5q99 0 190 -37t156 -105l-12 -53q-127 145 -336 145q-140 0 -259.5 -72.5t-188 -194.5
t-68.5 -263z" />
    <glyph glyph-name="Ccircumflex" unicode="&#x108;" horiz-adv-x="1460" 
d="M1204 1647l-174 258l-270 -258h-55l299 295h59l194 -295h-53zM1491 1360l-14 -57q-176 198 -492 198q-178 0 -334.5 -67.5t-265.5 -181.5t-172 -267.5t-63 -320.5q0 -282 168 -456.5t450 -174.5q290 0 528 186l-12 -65q-237 -168 -520 -168q-302 0 -485 187.5t-183 488.5
q0 179 68 342t185 283.5t284 191.5t356 71q318 0 502 -190z" />
    <glyph glyph-name="ccircumflex" unicode="&#x109;" horiz-adv-x="1075" 
d="M903 1159l-174 258l-270 -258h-56l299 295h60l194 -295h-53zM117 424q0 -175 104 -283t283 -108q191 0 364 123l-12 -60q-163 -110 -358 -110q-198 0 -315 120t-117 312q0 157 76.5 292t207.5 214.5t285 79.5q99 0 190 -37t156 -105l-12 -53q-127 145 -336 145
q-140 0 -259.5 -72.5t-188 -194.5t-68.5 -263z" />
    <glyph glyph-name="Cdotaccent" unicode="&#x10a;" horiz-adv-x="1460" 
d="M1010 1755q-22 0 -35.5 13.5t-13.5 33.5q0 23 14.5 37t36.5 14t35.5 -13.5t13.5 -33.5q0 -23 -14.5 -37t-36.5 -14zM1491 1360l-14 -57q-176 198 -492 198q-178 0 -334.5 -67.5t-265.5 -181.5t-172 -267.5t-63 -320.5q0 -282 168 -456.5t450 -174.5q290 0 528 186
l-12 -65q-237 -168 -520 -168q-302 0 -485 187.5t-183 488.5q0 179 68 342t185 283.5t284 191.5t356 71q318 0 502 -190z" />
    <glyph glyph-name="cdotaccent" unicode="&#x10b;" horiz-adv-x="1075" 
d="M702 1249q-22 0 -35.5 13.5t-13.5 33.5q0 23 15 37.5t37 14.5q21 0 35 -14t14 -34q0 -23 -15 -37t-37 -14zM117 424q0 -175 104 -283t283 -108q191 0 364 123l-12 -60q-163 -110 -358 -110q-198 0 -315 120t-117 312q0 157 76.5 292t207.5 214.5t285 79.5q99 0 190 -37
t156 -105l-12 -53q-127 145 -336 145q-140 0 -259.5 -72.5t-188 -194.5t-68.5 -263z" />
    <glyph glyph-name="Ccaron" unicode="&#x10c;" horiz-adv-x="1460" 
d="M1309 1942l-299 -295h-60l-194 295h53l174 -261l270 261h56zM1491 1360l-14 -57q-176 198 -492 198q-178 0 -334.5 -67.5t-265.5 -181.5t-172 -267.5t-63 -320.5q0 -282 168 -456.5t450 -174.5q290 0 528 186l-12 -65q-237 -168 -520 -168q-302 0 -485 187.5t-183 488.5
q0 179 68 342t185 283.5t284 191.5t356 71q318 0 502 -190z" />
    <glyph glyph-name="ccaron" unicode="&#x10d;" horiz-adv-x="1075" 
d="M1010 1454l-299 -295h-60l-194 295h53l174 -260l270 260h56zM117 424q0 -175 104 -283t283 -108q191 0 364 123l-12 -60q-163 -110 -358 -110q-198 0 -315 120t-117 312q0 157 76.5 292t207.5 214.5t285 79.5q99 0 190 -37t156 -105l-12 -53q-127 145 -336 145
q-140 0 -259.5 -72.5t-188 -194.5t-68.5 -263z" />
    <glyph glyph-name="Dcaron" unicode="&#x10e;" horiz-adv-x="1599" 
d="M1214 1942l-299 -295h-59l-194 295h53l174 -261l270 261h55zM47 0l299 1536h453q161 0 293 -50.5t221.5 -141t138.5 -217.5t49 -277q0 -180 -70 -338t-191.5 -270t-292.5 -177t-365 -65h-535zM801 1487h-414l-281 -1440h478q247 0 445 104.5t308.5 287.5t110.5 409
q0 285 -174 462t-473 177z" />
    <glyph glyph-name="dcaron" unicode="&#x10f;" horiz-adv-x="1341" 
d="M915 0l52 264q-72 -128 -196 -203t-277 -75q-195 0 -311.5 121.5t-116.5 316.5q0 115 42.5 221.5t116 185.5t178 126t222.5 47q172 0 282.5 -97.5t132.5 -261.5l174 891h50l-299 -1536h-50zM1393 1182h-39l141 354h51zM627 954q-143 0 -261 -72.5t-183.5 -193.5
t-65.5 -262q0 -177 105 -285t284 -108q144 0 261.5 73t181 192.5t63.5 258.5q0 180 -105 288.5t-280 108.5z" />
    <glyph glyph-name="Dcroat" unicode="&#x110;" horiz-adv-x="1607" 
d="M18 801h193l143 735h453q160 0 292.5 -50.5t222 -141t138.5 -217.5t49 -277q0 -180 -70 -338t-191.5 -270t-292.5 -177t-365 -65h-535l146 752h-191zM811 752h-559l-137 -705h477q247 0 445 104.5t308.5 287.5t110.5 409q0 140 -44 257.5t-126 202t-204.5 132
t-272.5 47.5h-414l-133 -686h559z" />
    <glyph glyph-name="dcroat" unicode="&#x111;" horiz-adv-x="1316" 
d="M915 0l52 268q-71 -130 -195 -206t-278 -76q-196 0 -312 121t-116 317q0 115 42.5 221.5t116 185.5t178 126t222.5 47q172 0 282.5 -99t132.5 -266l117 600h-326l9 43h325l49 254h50l-50 -254h197l-8 -43h-197l-241 -1239h-50zM625 954q-142 0 -259.5 -72.5t-183 -193.5
t-65.5 -262q0 -177 104 -285t283 -108q145 0 263 73t181.5 192.5t63.5 258.5q0 180 -105 288.5t-282 108.5z" />
    <glyph glyph-name="Emacron" unicode="&#x112;" horiz-adv-x="1114" 
d="M535 1821h571l-8 -45h-574zM47 0l299 1536h854l-8 -49h-805l-133 -692h717l-10 -47h-717l-138 -701h828l-10 -47h-877z" />
    <glyph glyph-name="emacron" unicode="&#x113;" horiz-adv-x="1185" 
d="M430 1333h571l-8 -45h-573zM1034 606q0 -60 -14 -112h-899q-4 -46 -4 -66q0 -175 106 -285t293 -110q106 0 215 34.5t191 106.5l-13 -59q-82 -67 -188 -98t-211 -31q-209 0 -326.5 122t-117.5 316q0 155 70.5 287.5t197.5 212.5t282 80q184 0 301 -113t117 -285zM612 956
q-181 0 -315 -120.5t-170 -298.5h852q6 35 6 65q0 153 -102.5 253.5t-270.5 100.5z" />
    <glyph glyph-name="Ebreve" unicode="&#x114;" horiz-adv-x="1114" 
d="M801 1731q100 0 173 57t91 154h45q-22 -116 -108 -185t-205 -69q-110 0 -176.5 73.5t-47.5 180.5h45q-17 -89 36.5 -150t146.5 -61zM47 0l299 1536h854l-8 -49h-805l-133 -692h717l-10 -47h-717l-138 -701h828l-10 -47h-877z" />
    <glyph glyph-name="ebreve" unicode="&#x115;" horiz-adv-x="1185" 
d="M698 1225q100 0 173.5 57t91.5 154h45q-22 -116 -108 -185t-206 -69q-110 0 -176 73t-47 181h45q-17 -89 36 -150t146 -61zM1034 606q0 -60 -14 -112h-899q-4 -46 -4 -66q0 -175 106 -285t293 -110q106 0 215 34.5t191 106.5l-13 -59q-82 -67 -188 -98t-211 -31
q-209 0 -326.5 122t-117.5 316q0 155 70.5 287.5t197.5 212.5t282 80q184 0 301 -113t117 -285zM612 956q-181 0 -315 -120.5t-170 -298.5h852q6 35 6 65q0 153 -102.5 253.5t-270.5 100.5z" />
    <glyph glyph-name="Edotaccent" unicode="&#x116;" horiz-adv-x="1114" 
d="M817 1755q-22 0 -35.5 13.5t-13.5 33.5q0 23 14.5 37t36.5 14t35.5 -13.5t13.5 -33.5q0 -23 -14.5 -37t-36.5 -14zM47 0l299 1536h854l-8 -49h-805l-133 -692h717l-10 -47h-717l-138 -701h828l-10 -47h-877z" />
    <glyph glyph-name="edotaccent" unicode="&#x117;" horiz-adv-x="1185" 
d="M709 1249q-22 0 -36 13.5t-14 33.5q0 23 15 37.5t37 14.5q21 0 35 -14t14 -34q0 -23 -14.5 -37t-36.5 -14zM1034 606q0 -60 -14 -112h-899q-4 -46 -4 -66q0 -175 106 -285t293 -110q106 0 215 34.5t191 106.5l-13 -59q-82 -67 -188 -98t-211 -31q-209 0 -326.5 122
t-117.5 316q0 155 70.5 287.5t197.5 212.5t282 80q184 0 301 -113t117 -285zM612 956q-181 0 -315 -120.5t-170 -298.5h852q6 35 6 65q0 153 -102.5 253.5t-270.5 100.5z" />
    <glyph glyph-name="Eogonek" unicode="&#x118;" horiz-adv-x="1114" 
d="M47 0l299 1536h854l-8 -49h-805l-133 -692h717l-10 -47h-717l-138 -701h828l-10 -47q-298 -151 -295 -326q1 -52 32 -81t82 -29q52 0 101 22l-8 -41q-58 -20 -107 -20q-65 0 -105.5 38.5t-41.5 104.5q-1 98 74 182t204 150h-813z" />
    <glyph glyph-name="eogonek" unicode="&#x119;" horiz-adv-x="1185" 
d="M594 -455q-55 -20 -107 -20q-65 0 -104.5 37.5t-40.5 103.5q-1 92 72.5 176.5t199.5 151.5q-49 -8 -104 -8q-209 0 -326.5 122t-117.5 316q0 155 70.5 287.5t197.5 212.5t282 80q184 0 301 -113t117 -285q0 -60 -14 -112h-899q-4 -46 -4 -66q0 -175 106 -285t293 -110
q106 0 215 34.5t191 106.5l-13 -59q-83 -68 -186 -99q-146 -64 -240.5 -156.5t-91.5 -187.5q0 -51 30 -79.5t81 -28.5q53 0 102 22zM612 956q-181 0 -315 -120.5t-170 -298.5h852q6 35 6 65q0 153 -102.5 253.5t-270.5 100.5z" />
    <glyph glyph-name="Ecaron" unicode="&#x11a;" horiz-adv-x="1114" 
d="M1122 1942l-299 -295h-59l-195 295h54l174 -261l270 261h55zM47 0l299 1536h854l-8 -49h-805l-133 -692h717l-10 -47h-717l-138 -701h828l-10 -47h-877z" />
    <glyph glyph-name="ecaron" unicode="&#x11b;" horiz-adv-x="1185" 
d="M1016 1454l-299 -295h-60l-194 295h53l174 -260l271 260h55zM1034 606q0 -60 -14 -112h-899q-4 -46 -4 -66q0 -175 106 -285t293 -110q106 0 215 34.5t191 106.5l-13 -59q-82 -67 -188 -98t-211 -31q-209 0 -326.5 122t-117.5 316q0 155 70.5 287.5t197.5 212.5t282 80
q184 0 301 -113t117 -285zM612 956q-181 0 -315 -120.5t-170 -298.5h852q6 35 6 65q0 153 -102.5 253.5t-270.5 100.5z" />
    <glyph glyph-name="Gcircumflex" unicode="&#x11c;" horiz-adv-x="1591" 
d="M1214 1647l-174 258l-270 -258h-55l299 295h59l195 -295h-54zM1370 203q-257 -217 -610 -217q-317 0 -491.5 180t-174.5 483q0 185 67 350.5t183 287t283 192.5t358 71q317 0 494 -182l-11 -63q-166 196 -485 196q-181 0 -338.5 -68t-265.5 -183t-170 -270t-62 -327
q0 -283 161.5 -451.5t457.5 -168.5q322 0 557 198l98 504h-602l8 47h656z" />
    <glyph glyph-name="gcircumflex" unicode="&#x11d;" 
d="M963 1159l-175 258l-270 -258h-55l299 295h59l195 -295h-53zM958 -35q-43 -227 -181.5 -357t-362.5 -130q-116 0 -222.5 37t-175.5 116l11 56q66 -83 169 -121.5t216 -38.5q205 0 330.5 117t166.5 321l58 299q-71 -127 -195.5 -202.5t-277.5 -75.5q-195 0 -311.5 121.5
t-116.5 316.5q0 115 42.5 221.5t116 185.5t178 126t222.5 47q173 0 283 -98t132 -263l68 344h49zM627 954q-143 0 -261 -72.5t-183.5 -193.5t-65.5 -262q0 -177 105 -285t284 -108q144 0 261.5 73t181 192.5t63.5 258.5q0 180 -105 288.5t-280 108.5z" />
    <glyph glyph-name="Gbreve" unicode="&#x11e;" horiz-adv-x="1591" 
d="M1004 1731q100 0 173 57t91 154h45q-22 -116 -108 -185t-206 -69q-110 0 -176 73t-47 181h45q-17 -89 36.5 -150t146.5 -61zM1370 203q-257 -217 -610 -217q-317 0 -491.5 180t-174.5 483q0 185 67 350.5t183 287t283 192.5t358 71q317 0 494 -182l-11 -63
q-166 196 -485 196q-181 0 -338.5 -68t-265.5 -183t-170 -270t-62 -327q0 -283 161.5 -451.5t457.5 -168.5q322 0 557 198l98 504h-602l8 47h656z" />
    <glyph glyph-name="gbreve" unicode="&#x11f;" 
d="M752 1225q100 0 173 57t91 154h45q-22 -116 -108 -185t-205 -69q-110 0 -176.5 73.5t-47.5 180.5h45q-17 -89 36.5 -150t146.5 -61zM958 -35q-43 -227 -181.5 -357t-362.5 -130q-116 0 -222.5 37t-175.5 116l11 56q66 -83 169 -121.5t216 -38.5q205 0 330.5 117
t166.5 321l58 299q-71 -127 -195.5 -202.5t-277.5 -75.5q-195 0 -311.5 121.5t-116.5 316.5q0 115 42.5 221.5t116 185.5t178 126t222.5 47q173 0 283 -98t132 -263l68 344h49zM627 954q-143 0 -261 -72.5t-183.5 -193.5t-65.5 -262q0 -177 105 -285t284 -108
q144 0 261.5 73t181 192.5t63.5 258.5q0 180 -105 288.5t-280 108.5z" />
    <glyph glyph-name="Gdotaccent" unicode="&#x120;" horiz-adv-x="1591" 
d="M1020 1755q-22 0 -35.5 13.5t-13.5 33.5q0 23 14.5 37t36.5 14t35.5 -13.5t13.5 -33.5q0 -23 -14.5 -37t-36.5 -14zM1370 203q-257 -217 -610 -217q-317 0 -491.5 180t-174.5 483q0 185 67 350.5t183 287t283 192.5t358 71q317 0 494 -182l-11 -63q-166 196 -485 196
q-181 0 -338.5 -68t-265.5 -183t-170 -270t-62 -327q0 -283 161.5 -451.5t457.5 -168.5q322 0 557 198l98 504h-602l8 47h656z" />
    <glyph glyph-name="gdotaccent" unicode="&#x121;" 
d="M764 1249q-22 0 -35.5 13.5t-13.5 33.5q0 23 14.5 37.5t36.5 14.5t35.5 -14t13.5 -34q0 -23 -14.5 -37t-36.5 -14zM958 -35q-43 -227 -181.5 -357t-362.5 -130q-116 0 -222.5 37t-175.5 116l11 56q66 -83 169 -121.5t216 -38.5q205 0 330.5 117t166.5 321l58 299
q-71 -127 -195.5 -202.5t-277.5 -75.5q-195 0 -311.5 121.5t-116.5 316.5q0 115 42.5 221.5t116 185.5t178 126t222.5 47q173 0 283 -98t132 -263l68 344h49zM627 954q-143 0 -261 -72.5t-183.5 -193.5t-65.5 -262q0 -177 105 -285t284 -108q144 0 261.5 73t181 192.5
t63.5 258.5q0 180 -105 288.5t-280 108.5z" />
    <glyph glyph-name="Gcommaaccent" unicode="&#x122;" horiz-adv-x="1591" 
d="M1370 203q-257 -217 -610 -217q-317 0 -491.5 180t-174.5 483q0 185 67 350.5t183 287t283 192.5t358 71q317 0 494 -182l-11 -63q-166 196 -485 196q-181 0 -338.5 -68t-265.5 -183t-170 -270t-62 -327q0 -283 161.5 -451.5t457.5 -168.5q322 0 557 198l98 504h-602
l8 47h656zM700 -139h56l-168 -236h-43z" />
    <glyph glyph-name="gcommaaccent" unicode="&#x123;" 
d="M852 1368h43l-156 -235h-55zM958 -35q-43 -227 -181.5 -357t-362.5 -130q-116 0 -222.5 37t-175.5 116l11 56q66 -83 169 -121.5t216 -38.5q205 0 330.5 117t166.5 321l58 299q-71 -127 -195.5 -202.5t-277.5 -75.5q-195 0 -311.5 121.5t-116.5 316.5q0 115 42.5 221.5
t116 185.5t178 126t222.5 47q173 0 283 -98t132 -263l68 344h49zM627 954q-143 0 -261 -72.5t-183.5 -193.5t-65.5 -262q0 -177 105 -285t284 -108q144 0 261.5 73t181 192.5t63.5 258.5q0 180 -105 288.5t-280 108.5z" />
    <glyph glyph-name="Hcircumflex" unicode="&#x124;" horiz-adv-x="1587" 
d="M1192 1647l-174 258l-270 -258h-56l299 295h60l194 -295h-53zM1188 0l151 776h-1089l-152 -776h-51l299 1536h51l-139 -713h1090l139 713h51l-299 -1536h-51z" />
    <glyph glyph-name="hcircumflex" unicode="&#x125;" horiz-adv-x="1241" 
d="M862 1638l-174 258l-270 -258h-56l300 295h59l194 -295h-53zM696 954q-179 0 -319.5 -129t-183.5 -333l-97 -492h-49l299 1536h49l-166 -856q73 149 200 236.5t280 87.5q183 0 268.5 -126t44.5 -341l-104 -537h-52l105 532q38 198 -36 310t-239 112z" />
    <glyph glyph-name="Hbar" unicode="&#x126;" horiz-adv-x="1587" 
d="M1188 0l151 776h-1089l-152 -776h-51l229 1176h-163l8 43h164l61 317h51l-61 -317h1089l62 317h51l-61 -317h163l-8 -43h-164l-229 -1176h-51zM258 823h1090l69 353h-1089z" />
    <glyph glyph-name="hbar" unicode="&#x127;" horiz-adv-x="1241" 
d="M696 954q-180 0 -320 -129t-183 -333l-97 -492h-49l242 1239h-197l8 43h197l49 254h49l-49 -254h328l-8 -43h-328l-107 -547q76 143 203.5 227.5t276.5 84.5q182 0 267 -125.5t44 -341.5l-104 -537h-52l105 532q38 197 -36 309.5t-239 112.5z" />
    <glyph glyph-name="Itilde" unicode="&#x128;" horiz-adv-x="446" 
d="M559 1741q-40 0 -85.5 28t-89 56t-79.5 28q-100 0 -121 -112h-39q28 157 158 157q40 0 87 -28.5t91 -57t78 -28.5q47 0 77.5 28.5t41.5 81.5h37q-27 -153 -156 -153zM47 0l299 1536h51l-299 -1536h-51z" />
    <glyph glyph-name="itilde" unicode="&#x129;" horiz-adv-x="444" 
d="M463 1253q-32 0 -68 17.5t-63 39t-60.5 39t-62.5 17.5q-100 0 -121 -113h-39q28 158 158 158q32 0 69 -18t64.5 -39.5t61.5 -39.5t61 -18q47 0 77.5 29t41.5 82h36q-27 -154 -155 -154zM47 0l193 987h49l-193 -987h-49z" />
    <glyph glyph-name="Imacron" unicode="&#x12a;" horiz-adv-x="446" 
d="M143 1821h572l-8 -45h-574zM47 0l299 1536h51l-299 -1536h-51z" />
    <glyph glyph-name="imacron" unicode="&#x12b;" horiz-adv-x="444" 
d="M47 1333h571l-8 -45h-573zM47 0l193 987h49l-193 -987h-49z" />
    <glyph glyph-name="Ibreve" unicode="&#x12c;" horiz-adv-x="446" 
d="M410 1731q100 0 173 57t91 154h45q-22 -116 -108 -185t-205 -69q-110 0 -176.5 73.5t-47.5 180.5h45q-17 -89 36.5 -150t146.5 -61zM47 0l299 1536h51l-299 -1536h-51z" />
    <glyph glyph-name="ibreve" unicode="&#x12d;" horiz-adv-x="444" 
d="M311 1225q100 0 173 57t91 154h46q-22 -116 -108 -185t-206 -69q-110 0 -176 73t-47 181h45q-17 -89 36 -150t146 -61zM47 0l193 987h49l-193 -987h-49z" />
    <glyph glyph-name="Iogonek" unicode="&#x12e;" horiz-adv-x="446" 
d="M10 -455q-58 -20 -106 -20q-65 0 -106 39t-42 104q-1 99 78.5 185.5t214.5 152.5l297 1530h51l-299 -1536q-298 -151 -295 -326q1 -52 32 -81t83 -29q51 0 100 22z" />
    <glyph glyph-name="iogonek" unicode="&#x12f;" horiz-adv-x="444" 
d="M272 1296q0 23 15.5 37.5t38.5 14.5q22 0 34.5 -13t12.5 -35q0 -23 -14.5 -37t-36.5 -14t-36 13t-14 34zM10 -455q-58 -20 -106 -20q-65 0 -106 39t-42 104q-1 99 78.5 185.5t214.5 152.5l191 981h49l-191 -987q-298 -151 -295 -326q1 -52 32 -81t83 -29q51 0 100 22z
" />
    <glyph glyph-name="Idotaccent" unicode="&#x130;" horiz-adv-x="446" 
d="M424 1755q-22 0 -35.5 13.5t-13.5 33.5q0 23 14.5 37t36.5 14t35.5 -13.5t13.5 -33.5q0 -23 -14.5 -37t-36.5 -14zM47 0l299 1536h51l-299 -1536h-51z" />
    <glyph glyph-name="dotlessi" unicode="&#x131;" horiz-adv-x="444" 
d="M47 0l193 987h49l-193 -987h-49z" />
    <glyph glyph-name="IJ" unicode="&#x132;" horiz-adv-x="1300" 
d="M47 0l299 1536h51l-299 -1536h-51zM631 -14q-168 0 -287 104l10 53q116 -110 281 -110q137 0 226.5 83.5t115.5 219.5l235 1200h52l-234 -1196q-32 -168 -136 -261t-263 -93z" />
    <glyph glyph-name="ij" unicode="&#x133;" horiz-adv-x="897" 
d="M272 1296q0 23 15.5 37.5t38.5 14.5q22 0 34.5 -13t12.5 -35q0 -23 -14.5 -37t-36.5 -14t-36 13t-14 34zM772 1249q-22 0 -35.5 12.5t-13.5 34.5q0 23 15 37.5t38 14.5q22 0 34.5 -13t12.5 -35q0 -23 -14.5 -37t-36.5 -14zM47 0l193 987h49l-191 -987h-51zM219 -526
q-106 0 -188 63l10 45q82 -61 176 -61q86 0 149 58t85 181l239 1227h49l-237 -1225q-29 -149 -103.5 -218.5t-179.5 -69.5z" />
    <glyph glyph-name="Jcircumflex" unicode="&#x134;" horiz-adv-x="851" 
d="M1036 1649l-174 258l-270 -258h-55l299 295h59l195 -295h-54zM184 -14q-167 0 -286 104l10 53q116 -110 280 -110q137 0 226.5 83.5t115.5 219.5l236 1200h51l-233 -1196q-32 -168 -136.5 -261t-263.5 -93z" />
    <glyph glyph-name="jcircumflex" unicode="&#x135;" horiz-adv-x="444" 
d="M522 1159l-174 258l-270 -258h-55l299 295h59l194 -295h-53zM-244 -526q-94 0 -176 63l10 45q82 -61 164 -61q98 0 162 63t84 176l240 1227h49l-238 -1225q-58 -288 -295 -288z" />
    <glyph glyph-name="Kcommaaccent" unicode="&#x136;" horiz-adv-x="1286" 
d="M1059 0l-516 852l-336 -291l-109 -561h-51l299 1536h51l-176 -901l1036 901h70l-745 -649l536 -887h-59zM479 -139h56l-168 -236h-43z" />
    <glyph glyph-name="kcommaaccent" unicode="&#x137;" horiz-adv-x="966" 
d="M731 0l-340 571l-217 -174l-78 -397h-49l299 1536h49l-209 -1071l662 522h67l-485 -385l358 -602h-57zM356 -139h56l-168 -236h-43z" />
    <glyph glyph-name="Lacute" unicode="&#x139;" horiz-adv-x="1056" 
d="M635 1942h65l-286 -295h-52zM893 47l-8 -47h-838l299 1536h51l-291 -1489h787z" />
    <glyph glyph-name="lacute" unicode="&#x13a;" horiz-adv-x="444" 
d="M598 1933h66l-287 -295h-51zM47 0l299 1536h49l-299 -1536h-49z" />
    <glyph glyph-name="Lcommaaccent" unicode="&#x13b;" horiz-adv-x="1056" 
d="M893 47l-8 -47h-838l299 1536h51l-291 -1489h787zM414 -139h55l-168 -236h-43z" />
    <glyph glyph-name="lcommaaccent" unicode="&#x13c;" horiz-adv-x="444" 
d="M47 0l299 1536h49l-299 -1536h-49zM23 -139h55l-168 -236h-43z" />
    <glyph glyph-name="Lcaron" unicode="&#x13d;" horiz-adv-x="1056" 
d="M893 47l-8 -47h-838l299 1536h51l-291 -1489h787zM563 1182h-39l142 354h51z" />
    <glyph glyph-name="lcaron" unicode="&#x13e;" horiz-adv-x="471" 
d="M47 0l299 1536h49l-299 -1536h-49zM524 1182h-39l142 354h51z" />
    <glyph glyph-name="Ldot" unicode="&#x13f;" horiz-adv-x="1056" 
d="M893 47l-8 -47h-838l299 1536h51l-291 -1489h787zM985 770q-22 0 -35.5 13.5t-13.5 33.5q0 23 15 37t38 14q21 0 34 -13t13 -34q0 -23 -14.5 -37t-36.5 -14z" />
    <glyph glyph-name="ldot" unicode="&#x140;" horiz-adv-x="471" 
d="M47 0l299 1536h49l-299 -1536h-49zM479 760q-22 0 -35.5 13.5t-13.5 33.5q0 23 15 37t38 14q21 0 34 -13t13 -34q0 -23 -14.5 -37t-36.5 -14z" />
    <glyph glyph-name="Lslash" unicode="&#x141;" horiz-adv-x="1128" 
d="M967 47l-11 -47h-835l143 737l-280 -137l12 57l278 138l146 741h51l-139 -715l446 219l-12 -57l-444 -217l-142 -719h787z" />
    <glyph glyph-name="lslash" unicode="&#x142;" horiz-adv-x="475" 
d="M514 870l-250 -122l-145 -748h-49l141 721l-244 -119l10 53l244 121l148 760h49l-144 -733l250 123z" />
    <glyph glyph-name="Nacute" unicode="&#x143;" horiz-adv-x="1656" 
d="M1180 1942h65l-287 -295h-51zM1305 -23l-928 1457l-279 -1434h-51l303 1559l928 -1457l278 1434h52z" />
    <glyph glyph-name="nacute" unicode="&#x144;" horiz-adv-x="1241" 
d="M907 1454h66l-287 -295h-51zM698 954q-180 0 -320 -129t-183 -333l-97 -492h-49l193 987h49l-60 -305q75 149 201 235.5t279 86.5q183 0 268.5 -126t44.5 -341l-106 -537h-50l105 532q38 198 -36.5 310t-238.5 112z" />
    <glyph glyph-name="Ncommaaccent" unicode="&#x145;" horiz-adv-x="1656" 
d="M1305 -23l-928 1457l-279 -1434h-51l303 1559l928 -1457l278 1434h52zM657 -139h56l-168 -236h-43z" />
    <glyph glyph-name="ncommaaccent" unicode="&#x146;" horiz-adv-x="1241" 
d="M698 954q-180 0 -320 -129t-183 -333l-97 -492h-49l193 987h49l-60 -305q75 149 201 235.5t279 86.5q183 0 268.5 -126t44.5 -341l-106 -537h-50l105 532q38 198 -36.5 310t-238.5 112zM451 -139h55l-168 -236h-43z" />
    <glyph glyph-name="Ncaron" unicode="&#x147;" horiz-adv-x="1656" 
d="M1333 1942l-299 -295h-59l-195 295h54l174 -261l270 261h55zM1305 -23l-928 1457l-279 -1434h-51l303 1559l928 -1457l278 1434h52z" />
    <glyph glyph-name="ncaron" unicode="&#x148;" horiz-adv-x="1241" 
d="M1044 1454l-299 -295h-59l-194 295h53l174 -260l270 260h55zM698 954q-180 0 -320 -129t-183 -333l-97 -492h-49l193 987h49l-60 -305q75 149 201 235.5t279 86.5q183 0 268.5 -126t44.5 -341l-106 -537h-50l105 532q38 198 -36.5 310t-238.5 112z" />
    <glyph glyph-name="Omacron" unicode="&#x14c;" horiz-adv-x="1763" 
d="M801 1821h571l-8 -45h-573zM1665 864q0 -174 -68.5 -335.5t-185 -280.5t-280.5 -190.5t-345 -71.5q-308 0 -498 190.5t-190 491.5q0 175 68 337t184.5 282t280 191.5t344.5 71.5q205 0 362.5 -88t242.5 -244t85 -354zM791 33q170 0 323.5 68t262 181.5t172 265.5
t63.5 316q0 281 -175.5 459t-461.5 178q-171 0 -325 -68t-262.5 -181.5t-172 -265.5t-63.5 -316q0 -185 78.5 -329.5t224.5 -226t336 -81.5z" />
    <glyph glyph-name="omacron" unicode="&#x14d;" horiz-adv-x="1257" 
d="M451 1333h571l-8 -45h-574zM66 426q0 154 73.5 286.5t205.5 212t292 79.5q202 0 325 -124t123 -321q0 -115 -44 -220.5t-119.5 -183t-183 -123.5t-228.5 -46q-202 0 -323 121t-121 319zM1032 559q0 175 -106.5 285t-288.5 110q-147 0 -267 -73t-186.5 -193.5
t-66.5 -259.5q0 -177 106.5 -286t286.5 -109q148 0 268.5 73t187 193t66.5 260z" />
    <glyph glyph-name="Obreve" unicode="&#x14e;" horiz-adv-x="1763" 
d="M1059 1731q100 0 173 57t91 154h45q-22 -116 -108 -185t-205 -69q-110 0 -176.5 73.5t-47.5 180.5h46q-17 -89 36 -150t146 -61zM1665 864q0 -174 -68.5 -335.5t-185 -280.5t-280.5 -190.5t-345 -71.5q-308 0 -498 190.5t-190 491.5q0 175 68 337t184.5 282t280 191.5
t344.5 71.5q205 0 362.5 -88t242.5 -244t85 -354zM791 33q170 0 323.5 68t262 181.5t172 265.5t63.5 316q0 281 -175.5 459t-461.5 178q-171 0 -325 -68t-262.5 -181.5t-172 -265.5t-63.5 -316q0 -185 78.5 -329.5t224.5 -226t336 -81.5z" />
    <glyph glyph-name="obreve" unicode="&#x14f;" horiz-adv-x="1257" 
d="M711 1225q100 0 173 57t91 154h45q-22 -116 -108 -185t-205 -69q-110 0 -176.5 73.5t-47.5 180.5h45q-17 -89 36.5 -150t146.5 -61zM66 426q0 154 73.5 286.5t205.5 212t292 79.5q202 0 325 -124t123 -321q0 -115 -44 -220.5t-119.5 -183t-183 -123.5t-228.5 -46
q-202 0 -323 121t-121 319zM1032 559q0 175 -106.5 285t-288.5 110q-147 0 -267 -73t-186.5 -193.5t-66.5 -259.5q0 -177 106.5 -286t286.5 -109q148 0 268.5 73t187 193t66.5 260z" />
    <glyph glyph-name="Ohungarumlaut" unicode="&#x150;" horiz-adv-x="1763" 
d="M889 1657h-47l266 295h55zM1167 1657h-47l266 295h60zM1665 864q0 -174 -68.5 -335.5t-185 -280.5t-280.5 -190.5t-345 -71.5q-308 0 -498 190.5t-190 491.5q0 175 68 337t184.5 282t280 191.5t344.5 71.5q205 0 362.5 -88t242.5 -244t85 -354zM791 33q170 0 323.5 68
t262 181.5t172 265.5t63.5 316q0 281 -175.5 459t-461.5 178q-171 0 -325 -68t-262.5 -181.5t-172 -265.5t-63.5 -316q0 -185 78.5 -329.5t224.5 -226t336 -81.5z" />
    <glyph glyph-name="ohungarumlaut" unicode="&#x151;" horiz-adv-x="1257" 
d="M551 1159h-47l266 295h55zM829 1159h-47l267 295h59zM66 426q0 154 73.5 286.5t205.5 212t292 79.5q202 0 325 -124t123 -321q0 -115 -44 -220.5t-119.5 -183t-183 -123.5t-228.5 -46q-202 0 -323 121t-121 319zM1032 559q0 175 -106.5 285t-288.5 110q-147 0 -267 -73
t-186.5 -193.5t-66.5 -259.5q0 -177 106.5 -286t286.5 -109q148 0 268.5 73t187 193t66.5 260z" />
    <glyph glyph-name="OE" unicode="&#x152;" horiz-adv-x="2066" 
d="M100 682q0 182 70.5 340.5t192.5 271.5t293 177.5t366 64.5h1128l-8 -49h-803l-133 -692h717l-10 -47h-717l-137 -701h825l-8 -47h-1073q-326 0 -514.5 188t-188.5 494zM797 47h211l280 1440h-270q-246 0 -444 -104.5t-309 -288t-111 -410.5q0 -285 171.5 -461
t471.5 -176z" />
    <glyph glyph-name="oe" unicode="&#x153;" horiz-adv-x="2144" 
d="M1477 -14q-174 0 -294.5 103.5t-142.5 275.5q-60 -174 -203.5 -276.5t-326.5 -102.5q-203 0 -325 122t-122 320q0 153 73.5 285t205 211.5t289.5 79.5q180 0 298.5 -103t139.5 -268q58 168 191 269.5t309 101.5q188 0 306 -110t118 -280q0 -37 -17 -120h-893
q-2 -25 -2 -74q5 -169 115 -278t287 -109q203 0 387 141l-10 -57q-182 -131 -383 -131zM1935 537q7 40 7 77q0 147 -103.5 244.5t-269.5 97.5q-178 0 -310 -114.5t-172 -304.5h848zM514 33q110 0 208 43t165.5 115t107 167t39.5 197q0 177 -111.5 288t-291.5 111
q-142 0 -261 -72t-186 -192.5t-67 -261.5q0 -177 108 -286t289 -109z" />
    <glyph glyph-name="Racute" unicode="&#x154;" horiz-adv-x="1230" 
d="M872 1942h66l-287 -295h-51zM47 0l299 1536h313q220 0 344.5 -111t124.5 -299q0 -195 -129.5 -329.5t-336.5 -167.5l356 -629h-60l-350 623q-20 -2 -61 -2h-328l-121 -621h-51zM657 1487h-270l-158 -817h322q228 0 376 128t148 326q0 167 -109.5 265t-308.5 98z" />
    <glyph glyph-name="racute" unicode="&#x155;" horiz-adv-x="657" 
d="M686 1454h66l-287 -295h-51zM676 948q-101 2 -201.5 -53.5t-178 -163t-103.5 -242.5l-97 -489h-49l193 987h49l-60 -303q77 147 200 233.5t257 86.5z" />
    <glyph glyph-name="Rcommaaccent" unicode="&#x156;" horiz-adv-x="1230" 
d="M47 0l299 1536h313q220 0 344.5 -111t124.5 -299q0 -195 -129.5 -329.5t-336.5 -167.5l356 -629h-60l-350 623q-20 -2 -61 -2h-328l-121 -621h-51zM657 1487h-270l-158 -817h322q228 0 376 128t148 326q0 167 -109.5 265t-308.5 98zM451 -139h55l-168 -236h-43z" />
    <glyph glyph-name="rcommaaccent" unicode="&#x157;" horiz-adv-x="657" 
d="M676 948q-101 2 -201.5 -53.5t-178 -163t-103.5 -242.5l-97 -489h-49l193 987h49l-60 -303q77 147 200 233.5t257 86.5zM12 -139h56l-168 -236h-43z" />
    <glyph glyph-name="Rcaron" unicode="&#x158;" horiz-adv-x="1230" 
d="M1030 1942l-299 -295h-59l-195 295h53l175 -261l270 261h55zM47 0l299 1536h313q220 0 344.5 -111t124.5 -299q0 -195 -129.5 -329.5t-336.5 -167.5l356 -629h-60l-350 623q-20 -2 -61 -2h-328l-121 -621h-51zM657 1487h-270l-158 -817h322q228 0 376 128t148 326
q0 167 -109.5 265t-308.5 98z" />
    <glyph glyph-name="rcaron" unicode="&#x159;" horiz-adv-x="657" 
d="M829 1454l-299 -295h-59l-195 295h54l174 -260l270 260h55zM676 948q-101 2 -201.5 -53.5t-178 -163t-103.5 -242.5l-97 -489h-49l193 987h49l-60 -303q77 147 200 233.5t257 86.5z" />
    <glyph glyph-name="Sacute" unicode="&#x15a;" horiz-adv-x="1110" 
d="M903 1942h66l-287 -295h-51zM655 1503q-170 0 -286.5 -89t-116.5 -238q0 -192 211 -304l252 -139q233 -124 233 -338q0 -125 -72 -219.5t-191 -142t-267 -47.5q-136 0 -257.5 43.5t-203.5 136.5l12 57q80 -99 200 -145.5t253 -46.5t240 42t171 125.5t64 194.5
q0 97 -49.5 168.5t-155.5 128.5l-254 139q-237 127 -237 345q0 167 130.5 271.5t323.5 104.5q112 0 222.5 -38.5t193.5 -112.5l-14 -56q-75 79 -183 119.5t-219 40.5z" />
    <glyph glyph-name="sacute" unicode="&#x15b;" horiz-adv-x="905" 
d="M735 1454h66l-287 -295h-51zM-6 176q119 -147 346 -147q62 0 117 13t100 38.5t71.5 69.5t26.5 100q0 68 -37.5 112.5t-111.5 73.5l-191 80q-176 73 -176 225q0 120 94.5 191.5t233.5 71.5q177 0 307 -121l-10 -54q-57 65 -135.5 98.5t-163.5 33.5q-119 0 -198 -58.5
t-79 -157.5q0 -124 152 -186l188 -80q177 -74 177 -223q0 -127 -104.5 -198.5t-262.5 -71.5q-105 0 -199 33.5t-157 103.5z" />
    <glyph glyph-name="Scircumflex" unicode="&#x15c;" horiz-adv-x="1110" 
d="M961 1647l-175 258l-270 -258h-55l299 295h59l195 -295h-53zM655 1503q-170 0 -286.5 -89t-116.5 -238q0 -192 211 -304l252 -139q233 -124 233 -338q0 -125 -72 -219.5t-191 -142t-267 -47.5q-136 0 -257.5 43.5t-203.5 136.5l12 57q80 -99 200 -145.5t253 -46.5t240 42
t171 125.5t64 194.5q0 97 -49.5 168.5t-155.5 128.5l-254 139q-237 127 -237 345q0 167 130.5 271.5t323.5 104.5q112 0 222.5 -38.5t193.5 -112.5l-14 -56q-75 79 -183 119.5t-219 40.5z" />
    <glyph glyph-name="scircumflex" unicode="&#x15d;" horiz-adv-x="905" 
d="M758 1159l-174 258l-271 -258h-55l299 295h59l195 -295h-53zM-6 176q119 -147 346 -147q62 0 117 13t100 38.5t71.5 69.5t26.5 100q0 68 -37.5 112.5t-111.5 73.5l-191 80q-176 73 -176 225q0 120 94.5 191.5t233.5 71.5q177 0 307 -121l-10 -54q-57 65 -135.5 98.5
t-163.5 33.5q-119 0 -198 -58.5t-79 -157.5q0 -124 152 -186l188 -80q177 -74 177 -223q0 -127 -104.5 -198.5t-262.5 -71.5q-105 0 -199 33.5t-157 103.5z" />
    <glyph glyph-name="Scedilla" unicode="&#x15e;" horiz-adv-x="1110" 
d="M522 -309q0 -79 -61.5 -122.5t-149.5 -43.5q-73 0 -137 37l6 37q61 -39 129 -39q72 0 121 34t49 97q0 47 -30 77.5t-76 30.5q-41 0 -72 -10l-14 18l110 179q-130 3 -245.5 47t-194.5 133l12 57q80 -99 200 -145.5t253 -46.5t240 42t171 125.5t64 194.5q0 97 -49.5 168.5
t-155.5 128.5l-254 139q-237 127 -237 345q0 167 130.5 271.5t323.5 104.5q112 0 222.5 -38.5t193.5 -112.5l-14 -56q-75 79 -183 119.5t-219 40.5q-170 0 -286.5 -89t-116.5 -238q0 -192 211 -304l252 -139q233 -124 233 -338q0 -183 -144 -293t-364 -116l-98 -156
q12 2 35 2q63 0 104 -39t41 -102z" />
    <glyph glyph-name="scedilla" unicode="&#x15f;" horiz-adv-x="905" 
d="M426 -309q0 -79 -61.5 -122.5t-149.5 -43.5q-73 0 -137 37l6 37q61 -39 129 -39q72 0 121 34t49 97q0 47 -30.5 77.5t-76.5 30.5q-40 0 -71 -10l-15 18l111 181q-208 11 -319 135l12 53q119 -147 346 -147q62 0 117 13t100 38.5t71.5 69.5t26.5 100q0 68 -37.5 112.5
t-111.5 73.5l-191 80q-176 73 -176 225q0 120 94.5 191.5t233.5 71.5q177 0 307 -121l-10 -54q-57 65 -135.5 98.5t-163.5 33.5q-119 0 -198 -58.5t-79 -157.5q0 -124 152 -186l188 -80q177 -74 177 -223q0 -127 -103.5 -198.5t-257.5 -71.5l-98 -156q12 2 35 2
q63 0 104 -39t41 -102z" />
    <glyph glyph-name="Scaron" unicode="&#x160;" horiz-adv-x="1110" 
d="M1069 1942l-299 -295h-59l-195 295h53l174 -261l271 261h55zM655 1503q-170 0 -286.5 -89t-116.5 -238q0 -192 211 -304l252 -139q233 -124 233 -338q0 -125 -72 -219.5t-191 -142t-267 -47.5q-136 0 -257.5 43.5t-203.5 136.5l12 57q80 -99 200 -145.5t253 -46.5t240 42
t171 125.5t64 194.5q0 97 -49.5 168.5t-155.5 128.5l-254 139q-237 127 -237 345q0 167 130.5 271.5t323.5 104.5q112 0 222.5 -38.5t193.5 -112.5l-14 -56q-75 79 -183 119.5t-219 40.5z" />
    <glyph glyph-name="scaron" unicode="&#x161;" horiz-adv-x="905" 
d="M848 1454l-299 -295h-60l-194 295h53l174 -260l271 260h55zM-6 176q119 -147 346 -147q62 0 117 13t100 38.5t71.5 69.5t26.5 100q0 68 -37.5 112.5t-111.5 73.5l-191 80q-176 73 -176 225q0 120 94.5 191.5t233.5 71.5q177 0 307 -121l-10 -54q-57 65 -135.5 98.5
t-163.5 33.5q-119 0 -198 -58.5t-79 -157.5q0 -124 152 -186l188 -80q177 -74 177 -223q0 -127 -104.5 -198.5t-262.5 -71.5q-105 0 -199 33.5t-157 103.5z" />
    <glyph glyph-name="uni0162" unicode="&#x162;" horiz-adv-x="1261" 
d="M158 1487l8 49h1227l-9 -49h-589l-289 -1487h-51l288 1487h-585zM424 -139h55l-168 -236h-43z" />
    <glyph glyph-name="uni0163" unicode="&#x163;" horiz-adv-x="770" 
d="M612 61q-118 -75 -266 -75t-214 83t-34 238l197 1024h51l-65 -344h481l-8 -47h-484l-123 -639q-26 -133 30.5 -201.5t176.5 -68.5q142 0 269 86zM256 -139h55l-168 -236h-43z" />
    <glyph glyph-name="Tcaron" unicode="&#x164;" horiz-adv-x="1261" 
d="M1133 1942l-299 -295h-60l-194 295h53l174 -261l270 261h56zM158 1487l8 49h1227l-9 -49h-589l-289 -1487h-51l288 1487h-585z" />
    <glyph glyph-name="tcaron" unicode="&#x165;" horiz-adv-x="770" 
d="M532 1182h-38l141 354h51zM612 61q-118 -75 -266 -75t-214 83t-34 238l197 1024h51l-65 -344h481l-8 -47h-484l-123 -639q-26 -133 30.5 -201.5t176.5 -68.5q142 0 269 86z" />
    <glyph glyph-name="Tbar" unicode="&#x166;" horiz-adv-x="1261" 
d="M158 1487l8 49h1227l-9 -49h-589l-140 -719h277l-10 -45h-275l-141 -723h-51l141 723h-274l8 45h274l139 719h-585z" />
    <glyph glyph-name="tbar" unicode="&#x167;" horiz-adv-x="770" 
d="M612 61q-116 -75 -264 -75q-151 0 -216.5 83t-33.5 238l197 1024h51l-65 -344h481l-8 -47h-484l-75 -397h479l-8 -47h-482l-37 -195q-26 -131 28.5 -200.5t178.5 -69.5q141 0 269 86z" />
    <glyph glyph-name="Utilde" unicode="&#x168;" horiz-adv-x="1533" 
d="M1087 1741q-40 0 -85.5 28t-88.5 56t-79 28q-100 0 -121 -112h-39q28 157 157 157q40 0 87 -28.5t91 -57t78 -28.5q47 0 77.5 28.5t41.5 81.5h37q-27 -153 -156 -153zM139 641l174 895h52l-175 -897q-35 -176 12.5 -314.5t166 -215t286.5 -76.5q250 0 416.5 165
t220.5 441l176 897h50l-172 -895q-58 -303 -238 -479t-455 -176q-186 0 -316.5 83t-183 232.5t-14.5 339.5z" />
    <glyph glyph-name="utilde" unicode="&#x169;" horiz-adv-x="1183" 
d="M825 1253q-32 0 -68 17.5t-63 39t-60.5 39t-62.5 17.5q-99 0 -120 -113h-39q28 158 157 158q32 0 69 -18t64.5 -39.5t61.5 -39.5t61 -18q47 0 77.5 29t41.5 82h37q-27 -154 -156 -154zM899 424l109 563h51l-109 -563q-41 -209 -170 -323.5t-315 -114.5q-202 0 -303 117.5
t-62 320.5l109 563h49l-108 -565q-35 -182 53.5 -285.5t263.5 -103.5q166 0 280.5 103.5t151.5 287.5z" />
    <glyph glyph-name="Umacron" unicode="&#x16a;" horiz-adv-x="1533" 
d="M694 1821h572l-9 -45h-573zM139 641l174 895h52l-175 -897q-35 -176 12.5 -314.5t166 -215t286.5 -76.5q250 0 416.5 165t220.5 441l176 897h50l-172 -895q-58 -303 -238 -479t-455 -176q-186 0 -316.5 83t-183 232.5t-14.5 339.5z" />
    <glyph glyph-name="umacron" unicode="&#x16b;" horiz-adv-x="1183" 
d="M410 1333h571l-8 -45h-574zM899 424l109 563h51l-109 -563q-41 -209 -170 -323.5t-315 -114.5q-202 0 -303 117.5t-62 320.5l109 563h49l-108 -565q-35 -182 53.5 -285.5t263.5 -103.5q166 0 280.5 103.5t151.5 287.5z" />
    <glyph glyph-name="Ubreve" unicode="&#x16c;" horiz-adv-x="1533" 
d="M950 1731q100 0 173 57t91 154h46q-22 -116 -108 -185t-206 -69q-110 0 -176 73t-47 181h45q-17 -89 36 -150t146 -61zM139 641l174 895h52l-175 -897q-35 -176 12.5 -314.5t166 -215t286.5 -76.5q250 0 416.5 165t220.5 441l176 897h50l-172 -895q-58 -303 -238 -479
t-455 -176q-186 0 -316.5 83t-183 232.5t-14.5 339.5z" />
    <glyph glyph-name="ubreve" unicode="&#x16d;" horiz-adv-x="1183" 
d="M680 1225q100 0 173 57t91 154h45q-22 -116 -108 -185t-205 -69q-110 0 -176 73t-47 181h45q-17 -89 36 -150t146 -61zM899 424l109 563h51l-109 -563q-41 -209 -170 -323.5t-315 -114.5q-202 0 -303 117.5t-62 320.5l109 563h49l-108 -565q-35 -182 53.5 -285.5
t263.5 -103.5q166 0 280.5 103.5t151.5 287.5z" />
    <glyph glyph-name="Uring" unicode="&#x16e;" horiz-adv-x="1533" 
d="M944 1929q68 0 113 -41.5t45 -105.5q0 -79 -51 -131t-127 -52q-68 0 -113 43t-45 107q0 77 51 128.5t127 51.5zM803 1751q0 -51 34 -84t87 -33q62 0 102.5 40.5t40.5 103.5q0 51 -34 83.5t-87 32.5q-63 0 -103 -40t-40 -103zM139 641l174 895h52l-175 -897
q-35 -176 12.5 -314.5t166 -215t286.5 -76.5q250 0 416.5 165t220.5 441l176 897h50l-172 -895q-58 -303 -238 -479t-455 -176q-186 0 -316.5 83t-183 232.5t-14.5 339.5z" />
    <glyph glyph-name="uring" unicode="&#x16f;" horiz-adv-x="1183" 
d="M705 1483q68 0 112.5 -42t44.5 -106q0 -79 -51 -130.5t-127 -51.5q-68 0 -113 43t-45 107q0 77 51.5 128.5t127.5 51.5zM563 1305q0 -51 34 -84t87 -33q62 0 102.5 40t40.5 103q0 51 -34 84t-86 33q-63 0 -103.5 -40t-40.5 -103zM899 424l109 563h51l-109 -563
q-41 -209 -170 -323.5t-315 -114.5q-202 0 -303 117.5t-62 320.5l109 563h49l-108 -565q-35 -182 53.5 -285.5t263.5 -103.5q166 0 280.5 103.5t151.5 287.5z" />
    <glyph glyph-name="Uhungarumlaut" unicode="&#x170;" horiz-adv-x="1533" 
d="M748 1647h-48l267 295h55zM1026 1647h-47l266 295h60zM139 641l174 895h52l-175 -897q-35 -176 12.5 -314.5t166 -215t286.5 -76.5q250 0 416.5 165t220.5 441l176 897h50l-172 -895q-58 -303 -238 -479t-455 -176q-186 0 -316.5 83t-183 232.5t-14.5 339.5z" />
    <glyph glyph-name="uhungarumlaut" unicode="&#x171;" horiz-adv-x="1183" 
d="M506 1159h-47l266 295h55zM784 1159h-47l267 295h59zM899 424l109 563h51l-109 -563q-41 -209 -170 -323.5t-315 -114.5q-202 0 -303 117.5t-62 320.5l109 563h49l-108 -565q-35 -182 53.5 -285.5t263.5 -103.5q166 0 280.5 103.5t151.5 287.5z" />
    <glyph glyph-name="Uogonek" unicode="&#x172;" horiz-adv-x="1533" 
d="M795 -455q-58 -20 -107 -20q-65 0 -105.5 38.5t-41.5 104.5q-1 90 65 176t176 152q-68 -10 -127 -10q-186 0 -316.5 83t-183.5 232.5t-16 339.5l176 895h52l-177 -897q-52 -267 78.5 -436.5t388.5 -169.5q252 0 418 165.5t219 440.5l174 897h52l-174 -895
q-45 -235 -165 -397t-304 -224q-126 -68 -208 -160.5t-81 -185.5q1 -51 32 -80.5t82 -29.5t103 22z" />
    <glyph glyph-name="uogonek" unicode="&#x173;" horiz-adv-x="1183" 
d="M578 -455q-58 -20 -107 -20q-65 0 -105 38t-40 103q-3 88 62.5 174t178.5 156q-55 -10 -100 -10q-201 0 -303.5 118t-63.5 320l109 563h49l-108 -565q-35 -182 53.5 -285.5t263.5 -103.5q166 0 280.5 103.5t151.5 287.5l109 563h51l-109 -563q-26 -133 -90 -230.5
t-158 -150.5q-146 -75 -239 -174.5t-90 -196.5q1 -51 31 -79.5t81 -28.5q52 0 101 22z" />
    <glyph glyph-name="Wcircumflex" unicode="&#x174;" horiz-adv-x="2312" 
d="M1548 1647l-174 258l-270 -258h-55l299 295h59l195 -295h-54zM2427 1536l-897 -1559l-244 1446l-805 -1446l-297 1559h54l266 -1423l805 1446l245 -1448l813 1425h60z" />
    <glyph glyph-name="wcircumflex" unicode="&#x175;" horiz-adv-x="1716" 
d="M1161 1159l-174 258l-270 -258h-55l299 295h59l194 -295h-53zM1714 987l-620 -1010l-203 922l-572 -922l-229 1010h53l199 -899l567 924l203 -918l545 893h57z" />
    <glyph glyph-name="Ycircumflex" unicode="&#x176;" horiz-adv-x="1234" 
d="M1012 1647l-174 258l-271 -258h-55l299 295h59l195 -295h-53zM1360 1536l-748 -928l-118 -608h-52l119 606l-389 930h55l365 -879l704 879h64z" />
    <glyph glyph-name="ycircumflex" unicode="&#x177;" horiz-adv-x="1019" 
d="M821 1159l-174 258l-270 -258h-55l299 295h59l194 -295h-53zM1022 987l-1024 -1499h-57l436 637l-299 862h53l279 -813l555 813h57z" />
    <glyph glyph-name="Ydieresis" unicode="&#x178;" horiz-adv-x="1234" 
d="M618 1755q-20 0 -32.5 13.5t-12.5 33.5q0 23 14 37t36 14q21 0 34 -13t13 -34q0 -23 -14.5 -37t-37.5 -14zM1014 1755q-21 0 -34 13t-13 34q0 23 14.5 37t36.5 14q20 0 33.5 -13.5t13.5 -33.5q0 -23 -14.5 -37t-36.5 -14zM1360 1536l-748 -928l-118 -608h-52l119 606
l-389 930h55l365 -879l704 879h64z" />
    <glyph glyph-name="Zacute" unicode="&#x179;" horiz-adv-x="1210" 
d="M954 1942h66l-287 -295h-51zM1024 45l-10 -45h-1120l1306 1489h-983l8 47h1080l-1307 -1491h1026z" />
    <glyph glyph-name="zacute" unicode="&#x17a;" horiz-adv-x="927" 
d="M709 1454h65l-287 -295h-51zM737 45l-8 -45h-827l872 940h-674l9 47h765l-874 -942h737z" />
    <glyph glyph-name="Zdotaccent" unicode="&#x17b;" horiz-adv-x="1210" 
d="M809 1755q-22 0 -35.5 13.5t-13.5 33.5q0 23 14.5 37t36.5 14t35.5 -13.5t13.5 -33.5q0 -23 -14.5 -37t-36.5 -14zM1024 45l-10 -45h-1120l1306 1489h-983l8 47h1080l-1307 -1491h1026z" />
    <glyph glyph-name="zdotaccent" unicode="&#x17c;" horiz-adv-x="927" 
d="M545 1249q-22 0 -35.5 13.5t-13.5 33.5q0 23 14.5 37.5t36.5 14.5q21 0 35 -14t14 -34q0 -23 -14.5 -37t-36.5 -14zM737 45l-8 -45h-827l872 940h-674l9 47h765l-874 -942h737z" />
    <glyph glyph-name="Zcaron" unicode="&#x17d;" horiz-adv-x="1210" 
d="M1112 1942l-299 -295h-59l-195 295h53l174 -261l271 261h55zM1024 45l-10 -45h-1120l1306 1489h-983l8 47h1080l-1307 -1491h1026z" />
    <glyph glyph-name="zcaron" unicode="&#x17e;" horiz-adv-x="927" 
d="M852 1454l-299 -295h-59l-195 295h53l174 -260l271 260h55zM737 45l-8 -45h-827l872 940h-674l9 47h765l-874 -942h737z" />
    <glyph glyph-name="florin" unicode="&#x192;" horiz-adv-x="952" 
d="M313 254q-93 -268 -325 -268q-101 0 -178 41l10 47q75 -43 172 -43q194 0 274 231l340 967q53 146 147.5 233.5t229.5 87.5q94 0 168 -45l-10 -49q-67 47 -158 47q-116 0 -200 -75t-126 -197l-86 -244h400l-8 -47h-408z" />
    <glyph glyph-name="uni0218" unicode="&#x218;" horiz-adv-x="1110" 
d="M655 1503q-170 0 -286.5 -89t-116.5 -238q0 -192 211 -304l252 -139q233 -124 233 -338q0 -125 -72 -219.5t-191 -142t-267 -47.5q-136 0 -257.5 43.5t-203.5 136.5l12 57q80 -99 200 -145.5t253 -46.5t240 42t171 125.5t64 194.5q0 97 -49.5 168.5t-155.5 128.5
l-254 139q-237 127 -237 345q0 167 130.5 271.5t323.5 104.5q112 0 222.5 -38.5t193.5 -112.5l-14 -56q-75 79 -183 119.5t-219 40.5zM381 -139h55l-168 -236h-43z" />
    <glyph glyph-name="uni0219" unicode="&#x219;" horiz-adv-x="905" 
d="M-6 176q119 -147 346 -147q62 0 117 13t100 38.5t71.5 69.5t26.5 100q0 68 -37.5 112.5t-111.5 73.5l-191 80q-176 73 -176 225q0 120 94.5 191.5t233.5 71.5q177 0 307 -121l-10 -54q-57 65 -135.5 98.5t-163.5 33.5q-119 0 -198 -58.5t-79 -157.5q0 -124 152 -186
l188 -80q177 -74 177 -223q0 -127 -104.5 -198.5t-262.5 -71.5q-105 0 -199 33.5t-157 103.5zM283 -139h55l-168 -236h-43z" />
    <glyph glyph-name="uni021A" unicode="&#x21a;" horiz-adv-x="1261" 
d="M158 1487l8 49h1227l-9 -49h-589l-289 -1487h-51l288 1487h-585zM424 -139h55l-168 -236h-43z" />
    <glyph glyph-name="uni021B" unicode="&#x21b;" horiz-adv-x="770" 
d="M612 61q-118 -75 -266 -75t-214 83t-34 238l197 1024h51l-65 -344h481l-8 -47h-484l-123 -639q-26 -133 30.5 -201.5t176.5 -68.5q142 0 269 86zM256 -139h55l-168 -236h-43z" />
    <glyph glyph-name="dotlessj" unicode="&#x237;" horiz-adv-x="444" 
d="M-244 -526q-94 0 -176 63l10 45q82 -61 164 -61q98 0 162 63t84 176l240 1227h49l-238 -1225q-58 -288 -295 -288z" />
    <glyph glyph-name="circumflex" unicode="&#x2c6;" horiz-adv-x="845" 
d="M721 1159l-174 258l-271 -258h-55l299 295h60l194 -295h-53z" />
    <glyph glyph-name="caron" unicode="&#x2c7;" horiz-adv-x="845" 
d="M831 1454l-299 -295h-59l-194 295h53l174 -260l270 260h55z" />
    <glyph glyph-name="breve" unicode="&#x2d8;" horiz-adv-x="845" 
d="M510 1225q100 0 173 57t91 154h45q-22 -116 -108 -185t-205 -69q-110 0 -176 73t-47 181h45q-17 -89 36 -150t146 -61z" />
    <glyph glyph-name="dotaccent" unicode="&#x2d9;" horiz-adv-x="845" 
d="M524 1249q-22 0 -35.5 13.5t-13.5 33.5q0 23 14.5 37.5t36.5 14.5t35.5 -14t13.5 -34q0 -23 -14.5 -37t-36.5 -14z" />
    <glyph glyph-name="ring" unicode="&#x2da;" horiz-adv-x="845" 
d="M539 1483q68 0 112.5 -42t44.5 -106q0 -79 -51 -130.5t-127 -51.5q-68 0 -113 43t-45 107q0 77 51.5 128.5t127.5 51.5zM397 1305q0 -51 34 -84t87 -33q62 0 103 40t41 103q0 51 -34 84t-87 33q-63 0 -103.5 -40t-40.5 -103z" />
    <glyph glyph-name="ogonek" unicode="&#x2db;" horiz-adv-x="847" 
d="M70 -332q-1 108 90.5 199.5t242.5 159.5l9 -27q-298 -151 -295 -326q1 -52 32 -81t82 -29q52 0 101 22l-8 -41q-58 -20 -107 -20q-65 0 -105.5 38.5t-41.5 104.5z" />
    <glyph glyph-name="tilde" unicode="&#x2dc;" horiz-adv-x="845" 
d="M662 1253q-32 0 -68 17.5t-63 39t-60.5 39t-62.5 17.5q-100 0 -121 -113h-39q28 158 158 158q32 0 69 -18t64.5 -39.5t61.5 -39.5t61 -18q47 0 77 29t41 82h37q-27 -154 -155 -154z" />
    <glyph glyph-name="hungarumlaut" unicode="&#x2dd;" horiz-adv-x="845" 
d="M377 1159h-47l266 295h55zM655 1159h-47l266 295h60z" />
    <glyph glyph-name="uni0394" unicode="&#x394;" horiz-adv-x="1464" 
d="M887 1559l395 -1559h-1397zM-29 45h1248l-353 1401z" />
    <glyph glyph-name="uni03A9" unicode="&#x3a9;" horiz-adv-x="1509" 
d="M588 313l-60 -313h-477l8 45h430l46 240q-177 70 -274 217t-97 342q0 143 52 273t142.5 225.5t219 151.5t274.5 56q252 0 402.5 -155t150.5 -404q0 -264 -171 -460.5t-454 -254.5l-43 -231h428l-10 -45h-473l59 313q276 47 445.5 235.5t169.5 442.5q0 227 -137 368.5
t-369 141.5q-182 0 -329 -90.5t-227.5 -240.5t-80.5 -326q0 -188 96 -328t279 -203z" />
    <glyph glyph-name="mu" unicode="&#x3bc;" horiz-adv-x="1222" 
d="M139 213l-141 -725h-49l291 1499h49l-107 -551q-22 -111 4 -202.5t98.5 -147t180.5 -55.5q166 0 301 123t170 307l102 526h52l-193 -987h-49l55 281q-70 -133 -190.5 -214t-257.5 -81q-120 0 -203 61.5t-113 165.5z" />
    <glyph glyph-name="pi" unicode="&#x3c0;" horiz-adv-x="1570" 
d="M1341 12q-87 -26 -139 -26q-98 0 -140.5 58.5t-21.5 170.5l144 725h-715l-180 -940h-51l180 940h-283l8 47h1383l-10 -47h-283l-141 -725q-18 -90 14 -137t104 -47q63 0 142 28z" />
    <glyph glyph-name="Wgrave" unicode="&#x1e80;" horiz-adv-x="2312" 
d="M1137 1942h63l197 -295h-47zM2427 1536l-897 -1559l-244 1446l-805 -1446l-297 1559h54l266 -1423l805 1446l245 -1448l813 1425h60z" />
    <glyph glyph-name="wgrave" unicode="&#x1e81;" horiz-adv-x="1716" 
d="M745 1454h64l197 -295h-48zM1714 987l-620 -1010l-203 922l-572 -922l-229 1010h53l199 -899l567 924l203 -918l545 893h57z" />
    <glyph glyph-name="Wacute" unicode="&#x1e82;" horiz-adv-x="2312" 
d="M1503 1942h66l-287 -295h-51zM2427 1536l-897 -1559l-244 1446l-805 -1446l-297 1559h54l266 -1423l805 1446l245 -1448l813 1425h60z" />
    <glyph glyph-name="wacute" unicode="&#x1e83;" horiz-adv-x="1716" 
d="M1133 1454h65l-287 -295h-51zM1714 987l-620 -1010l-203 922l-572 -922l-229 1010h53l199 -899l567 924l203 -918l545 893h57z" />
    <glyph glyph-name="Wdieresis" unicode="&#x1e84;" horiz-adv-x="2312" 
d="M1153 1755q-20 0 -32.5 13.5t-12.5 33.5q0 23 13.5 37t35.5 14q21 0 34 -13t13 -34q0 -23 -14 -37t-37 -14zM1548 1755q-21 0 -34 13t-13 34q0 23 14.5 37t36.5 14q20 0 33.5 -13.5t13.5 -33.5q0 -23 -14.5 -37t-36.5 -14zM2427 1536l-897 -1559l-244 1446l-805 -1446
l-297 1559h54l266 -1423l805 1446l245 -1448l813 1425h60z" />
    <glyph glyph-name="wdieresis" unicode="&#x1e85;" horiz-adv-x="1716" 
d="M760 1249q-20 0 -32.5 13.5t-12.5 33.5q0 23 13.5 37.5t35.5 14.5q21 0 34 -13.5t13 -34.5q0 -23 -14 -37t-37 -14zM1155 1249q-21 0 -34 13t-13 34q0 23 14.5 37.5t36.5 14.5q20 0 33.5 -14t13.5 -34q0 -23 -14.5 -37t-36.5 -14zM1714 987l-620 -1010l-203 922
l-572 -922l-229 1010h53l199 -899l567 924l203 -918l545 893h57z" />
    <glyph glyph-name="Ygrave" unicode="&#x1ef2;" horiz-adv-x="1234" 
d="M565 1942h64l196 -295h-47zM1360 1536l-748 -928l-118 -608h-52l119 606l-389 930h55l365 -879l704 879h64z" />
    <glyph glyph-name="ygrave" unicode="&#x1ef3;" horiz-adv-x="1019" 
d="M395 1454h64l196 -295h-47zM1022 987l-1024 -1499h-57l436 637l-299 862h53l279 -813l555 813h57z" />
    <glyph glyph-name="endash" unicode="&#x2013;" horiz-adv-x="1024" 
d="M-31 580l8 47h1012l-8 -47h-1012z" />
    <glyph glyph-name="emdash" unicode="&#x2014;" horiz-adv-x="2048" 
d="M-23 627h2036l-8 -47h-2036z" />
    <glyph glyph-name="quoteleft" unicode="&#x2018;" horiz-adv-x="366" 
d="M397 1536h41l-172 -260q20 -5 32.5 -19t12.5 -34q0 -23 -16.5 -39.5t-40.5 -16.5q-23 0 -38 15.5t-15 38.5q0 21 24 57z" />
    <glyph glyph-name="quoteright" unicode="&#x2019;" horiz-adv-x="366" 
d="M199 1180h-43l172 260q-20 3 -32.5 17t-12.5 34q0 25 16 40t41 15q23 0 38 -15t15 -38q0 -24 -22 -57z" />
    <glyph glyph-name="quotesinglbase" unicode="&#x201a;" horiz-adv-x="366" 
d="M-82 -270h-43l170 260q-19 3 -31 16t-12 33q0 24 15.5 39.5t39.5 15.5t40 -15t16 -38q0 -18 -23 -55z" />
    <glyph glyph-name="quotedblleft" unicode="&#x201c;" horiz-adv-x="630" 
d="M662 1536h40l-172 -260q20 -5 32.5 -19t12.5 -34q0 -23 -16.5 -39.5t-40.5 -16.5q-23 0 -38 15.5t-15 38.5q0 24 22 57zM397 1536h41l-172 -260q20 -5 32.5 -19t12.5 -34q0 -23 -16.5 -39.5t-40.5 -16.5q-23 0 -38 15.5t-15 38.5q0 21 24 57z" />
    <glyph glyph-name="quotedblright" unicode="&#x201d;" horiz-adv-x="630" 
d="M199 1180h-43l172 260q-20 3 -32.5 17t-12.5 34q0 25 16 40t41 15q23 0 38 -15t15 -38q0 -24 -22 -57zM461 1180h-41l172 260q-20 3 -32.5 17t-12.5 34q0 25 16 40t41 15q23 0 38 -15t15 -38q0 -21 -24 -57z" />
    <glyph glyph-name="quotedblbase" unicode="&#x201e;" horiz-adv-x="630" 
d="M-82 -270h-43l170 260q-19 3 -31 16t-12 33q0 24 15.5 39.5t39.5 15.5t40 -15t16 -38q0 -18 -23 -55zM180 -270h-43l172 260q-43 6 -43 49q0 24 16 39.5t40 15.5q23 0 38 -15t15 -38q0 -20 -23 -55z" />
    <glyph glyph-name="dagger" unicode="&#x2020;" horiz-adv-x="905" 
d="M879 1163h-328l-148 -753h-43l148 753h-330l8 41h328l66 332h43l-66 -332h330z" />
    <glyph glyph-name="daggerdbl" unicode="&#x2021;" horiz-adv-x="905" 
d="M731 403h-330l-77 -403h-43l77 403h-327l8 41h328l127 646h-330l8 40h328l80 406h43l-80 -406h329l-8 -40h-327l-127 -646h329z" />
    <glyph glyph-name="bullet" unicode="&#x2022;" horiz-adv-x="626" 
d="M268 449q-51 0 -82.5 31t-31.5 79q0 52 34.5 86.5t85.5 34.5t84 -32t33 -83t-35 -83.5t-88 -32.5z" />
    <glyph glyph-name="ellipsis" unicode="&#x2026;" horiz-adv-x="1064" 
d="M33 -14q-23 0 -37 14t-14 39t15 40t40 15t40 -15t15 -38q0 -26 -16.5 -40.5t-42.5 -14.5zM743 -14q-24 0 -39.5 14.5t-15.5 38.5t17.5 39.5t42.5 15.5q23 0 38 -15t15 -38q0 -26 -16.5 -40.5t-41.5 -14.5zM389 -14q-24 0 -39.5 14.5t-15.5 38.5t17 39.5t42 15.5
q23 0 38 -15t15 -38q0 -26 -16 -40.5t-41 -14.5z" />
    <glyph glyph-name="perthousand" unicode="&#x2030;" horiz-adv-x="2613" 
d="M532 1550q138 0 225 -88t87 -221q0 -154 -111.5 -262.5t-267.5 -108.5q-137 0 -222 89t-85 223q0 154 109.5 261t264.5 107zM121 0l1485 1536h59l-1485 -1536h-59zM203 1182q0 -115 73 -192t193 -77q137 0 233.5 97t96.5 231q0 116 -73 191t-194 75q-137 0 -233 -95.5
t-96 -229.5zM926 295q0 154 109.5 261.5t264.5 107.5q137 0 223.5 -88.5t86.5 -221.5q0 -154 -110.5 -261t-266.5 -107q-138 0 -222.5 87.5t-84.5 221.5zM1769 295q0 154 110 261.5t265 107.5q138 0 225 -88t87 -222q0 -154 -110.5 -261t-266.5 -107q-139 0 -224.5 87.5
t-85.5 221.5zM1567 354q0 116 -73.5 191.5t-193.5 75.5q-137 0 -233 -96t-96 -230q0 -115 73 -191.5t193 -76.5q138 0 234 96t96 231zM2410 354q0 116 -72.5 191.5t-193.5 75.5q-137 0 -233 -96t-96 -230q0 -115 73.5 -191.5t194.5 -76.5q136 0 231.5 96t95.5 231z" />
    <glyph glyph-name="guilsinglleft" unicode="&#x2039;" horiz-adv-x="575" 
d="M485 926l-381 -391l232 -396h-53l-234 400l377 387h59z" />
    <glyph glyph-name="guilsinglright" unicode="&#x203a;" horiz-adv-x="575" 
d="M432 524l-377 -385h-57l381 391l-232 396h52z" />
    <glyph glyph-name="fraction" unicode="&#x2044;" horiz-adv-x="999" 
d="M-201 0h-59l1462 1536h60z" />
    <glyph glyph-name="zerosuperior" unicode="&#x2070;" horiz-adv-x="983" 
d="M915 1165q0 -107 -28.5 -206.5t-81 -179t-134 -127.5t-179.5 -48q-151 0 -229.5 106.5t-78.5 278.5q0 144 50 270.5t149.5 208.5t228.5 82q149 0 226 -105.5t77 -279.5zM494 645q117 0 205 78t129.5 194.5t41.5 247.5q0 157 -64 250.5t-196 93.5q-88 0 -162 -45.5
t-120.5 -119.5t-72.5 -166t-26 -189q0 -155 66.5 -249.5t198.5 -94.5z" />
    <glyph glyph-name="foursuperior" unicode="&#x2074;" horiz-adv-x="782" 
d="M764 823h-154l-41 -209h-45l41 209h-557l512 713h49l-479 -672h483l74 377h45l-74 -377h154z" />
    <glyph glyph-name="Euro" unicode="&#x20ac;" horiz-adv-x="1359" 
d="M1155 55q-145 -69 -358 -69q-178 0 -311 79t-205 212t-86 307h-175l9 47h161v33q0 125 31 249h-137l10 45h142q82 263 292.5 427.5t491.5 164.5q247 0 407 -120l-24 -41q-153 112 -385 112q-257 0 -453 -150.5t-276 -392.5h876l-24 -45h-867q-32 -125 -32 -245v-37h741
l-25 -47h-712q11 -119 52.5 -218.5t110.5 -174t170.5 -116.5t225.5 -42q84 0 183 19.5t179 56.5z" />
    <glyph glyph-name="uni20B9" unicode="&#x20b9;" horiz-adv-x="1241" 
d="M233 1487l9 49h1087l-8 -45h-590q125 -54 197.5 -158.5t72.5 -242.5v-9h240l-10 -45h-232q-19 -168 -141.5 -285.5t-306.5 -148.5l342 -602h-59l-334 596q-46 -4 -70 -4h-367l11 49h356q211 0 352.5 108t163.5 287h-803l9 45h796v9q0 177 -121 287t-311 110h-283z" />
    <glyph glyph-name="uni2113" unicode="&#x2113;" horiz-adv-x="962" 
d="M567 53q-113 -67 -227 -67q-108 0 -167 70.5t-38 185.5l35 174q-65 -10 -119 -10h-82l8 47h82q54 0 119 10l162 827q23 118 89 189t169 71q106 0 155 -74.5t27 -183.5l-45 -231q-53 -269 -189 -428t-323 -207l-37 -184q-18 -92 30 -149.5t136 -57.5q106 0 226 71z
M391 1292l-160 -815q169 49 288 197t167 391l45 229q16 90 -18.5 148.5t-118.5 58.5q-81 0 -133 -57.5t-70 -151.5z" />
    <glyph glyph-name="trademark" unicode="&#x2122;" horiz-adv-x="1550" 
d="M1167 1137l-233 323l-96 -493h-39l114 587l261 -366l403 366l-115 -587h-39l95 485zM188 1497l7 39h583l-8 -39h-272l-103 -530h-41l105 530h-271z" />
    <glyph glyph-name="estimated" unicode="&#x212e;" horiz-adv-x="1597" 
d="M1483 633h-1194q-10 0 -10 -8v-361q0 -25 16 -41q88 -93 205 -144.5t248 -51.5q139 0 262 58.5t213 160.5h106q-101 -119 -254.5 -187.5t-329.5 -68.5q-201 0 -370.5 88t-268 240.5t-98.5 332.5q0 181 98.5 333.5t268 241.5t370.5 89q150 0 287 -52.5t235.5 -141.5
t157 -212t58.5 -258v-18zM1212 680v364q0 25 -18 43q-89 89 -204 139t-242 50q-129 0 -246 -52t-205 -143q-18 -18 -18 -45v-356q0 -10 10 -10h915q8 0 8 10z" />
    <glyph glyph-name="partialdiff" unicode="&#x2202;" horiz-adv-x="1146" 
d="M1024 496q-42 -228 -197.5 -369t-375.5 -141q-201 0 -318 118.5t-117 307.5q0 151 70.5 279t197 205t281.5 77q163 0 279.5 -91.5t150.5 -240.5q6 64 6 123q-1 158 -45 293t-119 229t-179 148t-224 55l8 45q125 -2 235 -58t191.5 -155t130 -243t50.5 -314
q0 -151 -25 -268zM68 414q0 -171 104 -276t283 -105q111 0 208.5 42.5t163.5 111.5t104 159t38 184q0 170 -112 282t-292 112q-140 0 -255 -70.5t-178.5 -187.5t-63.5 -252z" />
    <glyph glyph-name="product" unicode="&#x220f;" horiz-adv-x="1409" 
d="M-10 -311l356 1847h1014l-359 -1847h-51l350 1800h-911l-350 -1800h-49z" />
    <glyph glyph-name="summation" unicode="&#x2211;" horiz-adv-x="1542" 
d="M8 -264l955 909l-615 842l10 47h1145l-10 -47h-1081l620 -846l-952 -905h1073l-10 -47h-1143z" />
    <glyph glyph-name="minus" unicode="&#x2212;" horiz-adv-x="1050" 
d="M88 752l10 47h865l-9 -47h-866z" />
    <glyph glyph-name="uni2215" unicode="&#x2215;" horiz-adv-x="999" 
d="M-201 0h-59l1462 1536h60z" />
    <glyph glyph-name="radical" unicode="&#x221a;" horiz-adv-x="1499" 
d="M1616 1536l-998 -1559l-237 963h-318l9 47h350l219 -895l920 1444h55z" />
    <glyph glyph-name="infinity" unicode="&#x221e;" horiz-adv-x="1908" 
d="M1405 360q-33 0 -63.5 6t-56.5 14t-53 25t-47 30.5t-45 39t-40.5 42t-40.5 48t-37.5 49t-38 52.5t-37.5 51l-30 -36q-43 -52 -66.5 -79t-66 -72t-75.5 -69t-77.5 -51t-91 -38.5t-97.5 -11.5q-151 0 -240 102.5t-89 258.5q0 174 110.5 300t278.5 126q58 0 111 -18
t92.5 -45t82 -72t72.5 -84t71 -96q17 -23 25 -35q107 132 139 165q143 154 290 179q33 6 67 6q154 0 244 -104t90 -263q0 -176 -107.5 -298t-273.5 -122zM1446 1098q-45 0 -87 -10t-81.5 -33.5t-68.5 -44t-66.5 -60.5t-56.5 -61.5t-57.5 -69t-51.5 -63.5q14 -19 45 -62
t46 -63.5t44 -57t49 -54.5t50.5 -43t58 -36.5t62.5 -20.5t73 -9q147 0 239.5 108.5t92.5 263.5q0 137 -78 226.5t-213 89.5zM502 1098q-148 0 -243 -110t-95 -267q0 -135 76 -223t209 -88q53 0 104.5 17.5t88 39.5t82 65t70 71t68.5 82t62 75q-14 19 -43.5 60.5t-44.5 61.5
t-43.5 55t-48 53.5t-49.5 42.5t-57.5 36t-63 20.5t-72.5 8.5z" />
    <glyph glyph-name="integral" unicode="&#x222b;" horiz-adv-x="671" 
d="M-117 -526q-100 0 -172 63l13 51q68 -65 163 -65q87 0 145 57.5t77 151.5l301 1552q24 119 96 192.5t182 73.5q97 0 172 -63l-10 -51q-67 67 -166 67q-87 0 -145 -60t-78 -155l-301 -1554q-23 -122 -96.5 -191t-180.5 -69z" />
    <glyph glyph-name="approxequal" unicode="&#x2248;" horiz-adv-x="1050" 
d="M373 1063q46 0 99 -17t93.5 -37.5t96 -37.5t106.5 -17q126 0 248 107l-12 -57q-108 -97 -242 -97q-67 0 -138 27.5t-136.5 54.5t-118.5 27q-114 0 -250 -107l12 56q123 98 242 98zM289 639q46 0 99 -17t94 -37.5t96.5 -37.5t105.5 -17q126 0 248 107l-10 -57
q-111 -97 -244 -97q-67 0 -138 27.5t-136.5 54.5t-118.5 27q-114 0 -250 -107l12 56q123 98 242 98z" />
    <glyph glyph-name="notequal" unicode="&#x2260;" horiz-adv-x="1050" 
d="M911 539h-546l-191 -240h-51l190 240h-266l8 47h297l299 375h-522l8 47h551l189 235h51l-189 -235h265l-9 -47h-293l-299 -375h519z" />
    <glyph glyph-name="lessequal" unicode="&#x2264;" horiz-adv-x="1050" 
d="M856 600l-8 -51l-701 373l11 55l846 379l-11 -56l-798 -354zM88 625l696 -392l-8 -49l-698 389z" />
    <glyph glyph-name="greaterequal" unicode="&#x2265;" horiz-adv-x="1050" 
d="M963 922l-844 -373l10 55l795 348l-658 353l8 51l699 -379zM905 625l-10 -54l-848 -389l10 54z" />
    <glyph glyph-name="lozenge" unicode="&#x25ca;" horiz-adv-x="1191" 
d="M1059 668l-621 -703l-346 703l621 702zM150 664l301 -619l553 629l-302 618z" />
    <glyph glyph-name="commaaccent" unicode="&#xf6c3;" horiz-adv-x="845" 
d="M270 -139h56l-168 -236h-43z" />
    <glyph glyph-name="CR" horiz-adv-x="0" 
 />
    <glyph glyph-name="a.alt" horiz-adv-x="1191" 
d="M1036 987l-192 -987h-324q-204 0 -331.5 116.5t-127.5 315.5q0 151 74.5 278t209 202t298.5 75h393zM977 940h-336q-228 0 -378 -147t-150 -357q0 -180 113 -285.5t298 -105.5h279z" />
    <glyph glyph-name="a.alt2" horiz-adv-x="1120" 
d="M236 940l8 47h721l-193 -987h-442q-132 0 -214.5 75t-82.5 199q0 146 108 239t267 93h432l65 334h-669zM831 559h-428q-138 0 -228.5 -80.5t-90.5 -202.5q0 -104 70.5 -167.5t183.5 -63.5h395z" />
    <glyph glyph-name="b.alt" horiz-adv-x="1193" 
d="M442 0h-395l299 1536h49l-106 -549h274q205 0 332 -121t127 -323q0 -151 -74 -275t-207 -196t-299 -72zM106 45h338q152 0 273.5 67t187.5 180.5t66 250.5q0 182 -113 289.5t-297 107.5h-280z" />
    <glyph glyph-name="d.alt" horiz-adv-x="1191" 
d="M61 432q0 151 74.5 278t209 202t298.5 75h344l107 549h49l-299 -1536h-324q-204 0 -331.5 116.5t-127.5 315.5zM977 940h-336q-228 0 -378 -147t-150 -357q0 -180 113 -285.5t298 -105.5h279z" />
    <glyph glyph-name="e.alt" horiz-adv-x="1087" 
d="M807 47l-10 -47h-768l123 633q23 118 94 203.5t168.5 126.5t212.5 41q151 0 246.5 -73t95.5 -204q0 -143 -112.5 -224t-287.5 -81h-407l-74 -375h719zM170 469h401q154 0 251.5 67.5t97.5 188.5q0 111 -82.5 171t-210.5 60q-159 0 -278.5 -85.5t-147.5 -233.5z" />
    <glyph glyph-name="e.alt2" horiz-adv-x="1097" 
d="M47 0l193 987h796l-43 -223q-29 -147 -133 -229t-262 -82h-414l-80 -408h740l-8 -45h-789zM975 940h-694l-88 -442h409q133 0 225 71t115 193z" />
    <glyph glyph-name="h.alt2" horiz-adv-x="1208" 
d="M395 1536l-106 -549h764l-191 -987h-51l184 940h-716l-183 -940h-49l299 1536h49z" />
    <glyph glyph-name="m.alt2" horiz-adv-x="1822" 
d="M47 0l193 987h1427l-190 -987h-52l185 940h-639l-185 -940h-49l183 940h-639l-185 -940h-49z" />
    <glyph glyph-name="n.alt2" horiz-adv-x="1208" 
d="M47 0l193 987h813l-191 -987h-51l184 940h-714l-185 -940h-49z" />
    <glyph glyph-name="p.alt" horiz-adv-x="1193" 
d="M-2 -512h-49l291 1499h323q205 0 332 -121t127 -323q0 -151 -74 -275t-207 -196t-299 -72h-346zM106 45h338q152 0 273.5 67t187.5 180.5t66 250.5q0 182 -113 289.5t-297 107.5h-280z" />
    <glyph glyph-name="q.alt" horiz-adv-x="1191" 
d="M694 -512l101 512h-275q-204 0 -331.5 116.5t-127.5 315.5q0 151 74.5 278t209 202t298.5 75h393l-293 -1499h-49zM977 940h-336q-228 0 -378 -147t-150 -357q0 -180 113 -285.5t298 -105.5h279z" />
    <glyph glyph-name="r.alt" horiz-adv-x="716" 
d="M756 969l-545 -381l-115 -588h-49l193 987h49l-66 -332l502 349z" />
    <glyph glyph-name="r.alt2" horiz-adv-x="716" 
d="M47 0l193 987h477l-8 -47h-428l-185 -940h-49z" />
    <glyph glyph-name="aacute.alt" horiz-adv-x="1191" 
d="M924 1454h65l-287 -295h-51zM1036 987l-192 -987h-324q-204 0 -331.5 116.5t-127.5 315.5q0 151 74.5 278t209 202t298.5 75h393zM977 940h-336q-228 0 -378 -147t-150 -357q0 -180 113 -285.5t298 -105.5h279z" />
    <glyph glyph-name="acircumflex.alt" horiz-adv-x="1191" 
d="M954 1159l-174 258l-270 -258h-55l299 295h59l195 -295h-54zM1036 987l-192 -987h-324q-204 0 -331.5 116.5t-127.5 315.5q0 151 74.5 278t209 202t298.5 75h393zM977 940h-336q-228 0 -378 -147t-150 -357q0 -180 113 -285.5t298 -105.5h279z" />
    <glyph glyph-name="adieresis.alt" horiz-adv-x="1191" 
d="M549 1249q-20 0 -32.5 13.5t-12.5 33.5q0 23 13.5 37.5t35.5 14.5q21 0 34 -13.5t13 -34.5q0 -23 -14 -37t-37 -14zM944 1249q-21 0 -34 13t-13 34q0 23 14.5 37.5t36.5 14.5q20 0 33.5 -14t13.5 -34q0 -23 -14.5 -37t-36.5 -14zM1036 987l-192 -987h-324
q-204 0 -331.5 116.5t-127.5 315.5q0 151 74.5 278t209 202t298.5 75h393zM977 940h-336q-228 0 -378 -147t-150 -357q0 -180 113 -285.5t298 -105.5h279z" />
    <glyph glyph-name="agrave.alt" horiz-adv-x="1191" 
d="M561 1454h64l196 -295h-47zM1036 987l-192 -987h-324q-204 0 -331.5 116.5t-127.5 315.5q0 151 74.5 278t209 202t298.5 75h393zM977 940h-336q-228 0 -378 -147t-150 -357q0 -180 113 -285.5t298 -105.5h279z" />
    <glyph glyph-name="aring.alt" horiz-adv-x="1191" 
d="M770 1483q68 0 113 -42t45 -106q0 -79 -51 -130.5t-127 -51.5q-68 0 -113 43t-45 107q0 77 51 128.5t127 51.5zM629 1305q0 -51 34 -84t87 -33q62 0 102.5 40t40.5 103q0 51 -34 84t-87 33q-63 0 -103 -40t-40 -103zM1036 987l-192 -987h-324q-204 0 -331.5 116.5
t-127.5 315.5q0 151 74.5 278t209 202t298.5 75h393zM977 940h-336q-228 0 -378 -147t-150 -357q0 -180 113 -285.5t298 -105.5h279z" />
    <glyph glyph-name="atilde.alt" horiz-adv-x="1191" 
d="M891 1253q-32 0 -68 17.5t-63 39t-60.5 39t-62.5 17.5q-100 0 -121 -113h-39q28 158 158 158q32 0 69 -18t64.5 -39.5t61.5 -39.5t61 -18q47 0 77.5 29t41.5 82h37q-27 -154 -156 -154zM1036 987l-192 -987h-324q-204 0 -331.5 116.5t-127.5 315.5q0 151 74.5 278
t209 202t298.5 75h393zM977 940h-336q-228 0 -378 -147t-150 -357q0 -180 113 -285.5t298 -105.5h279z" />
    <glyph glyph-name="abreve.alt" horiz-adv-x="1191" 
d="M741 1225q100 0 173.5 57t91.5 154h45q-22 -116 -108 -185t-206 -69q-110 0 -176 73t-47 181h45q-17 -89 36 -150t146 -61zM1036 987l-192 -987h-324q-204 0 -331.5 116.5t-127.5 315.5q0 151 74.5 278t209 202t298.5 75h393zM977 940h-336q-228 0 -378 -147t-150 -357
q0 -180 113 -285.5t298 -105.5h279z" />
    <glyph glyph-name="amacron.alt" horiz-adv-x="1191" 
d="M473 1333h571l-8 -45h-573zM1036 987l-192 -987h-324q-204 0 -331.5 116.5t-127.5 315.5q0 151 74.5 278t209 202t298.5 75h393zM977 940h-336q-228 0 -378 -147t-150 -357q0 -180 113 -285.5t298 -105.5h279z" />
    <glyph glyph-name="aogonek.alt" horiz-adv-x="1196" 
d="M756 -455q-58 -20 -107 -20q-65 0 -105.5 38.5t-41.5 104.5q-1 98 74 182t204 150h-260q-204 0 -331.5 116.5t-127.5 315.5q0 151 74.5 278t209 202t298.5 75h393l-192 -987q-298 -151 -295 -326q1 -52 32 -81t83 -29q51 0 100 22zM977 940h-336q-228 0 -378 -147
t-150 -357q0 -180 113 -285.5t298 -105.5h279z" />
    <glyph glyph-name="aacute.alt2" horiz-adv-x="1120" 
d="M834 1454h65l-287 -295h-51zM236 940l8 47h721l-193 -987h-442q-132 0 -214.5 75t-82.5 199q0 146 108 239t267 93h432l65 334h-669zM831 559h-428q-138 0 -228.5 -80.5t-90.5 -202.5q0 -104 70.5 -167.5t183.5 -63.5h395z" />
    <glyph glyph-name="acircumflex.alt2" horiz-adv-x="1120" 
d="M868 1159l-174 258l-270 -258h-55l299 295h59l195 -295h-54zM236 940l8 47h721l-193 -987h-442q-132 0 -214.5 75t-82.5 199q0 146 108 239t267 93h432l65 334h-669zM831 559h-428q-138 0 -228.5 -80.5t-90.5 -202.5q0 -104 70.5 -167.5t183.5 -63.5h395z" />
    <glyph glyph-name="adieresis.alt2" horiz-adv-x="1120" 
d="M463 1249q-20 0 -32.5 13.5t-12.5 33.5q0 23 13.5 37.5t35.5 14.5q21 0 34 -13.5t13 -34.5q0 -23 -14 -37t-37 -14zM858 1249q-21 0 -34 13t-13 34q0 23 14.5 37.5t36.5 14.5q20 0 33.5 -14t13.5 -34q0 -23 -14.5 -37t-36.5 -14zM236 940l8 47h721l-193 -987h-442
q-132 0 -214.5 75t-82.5 199q0 146 108 239t267 93h432l65 334h-669zM831 559h-428q-138 0 -228.5 -80.5t-90.5 -202.5q0 -104 70.5 -167.5t183.5 -63.5h395z" />
    <glyph glyph-name="agrave.alt2" horiz-adv-x="1120" 
d="M477 1454h64l196 -295h-47zM236 940l8 47h721l-193 -987h-442q-132 0 -214.5 75t-82.5 199q0 146 108 239t267 93h432l65 334h-669zM831 559h-428q-138 0 -228.5 -80.5t-90.5 -202.5q0 -104 70.5 -167.5t183.5 -63.5h395z" />
    <glyph glyph-name="aring.alt2" horiz-adv-x="1120" 
d="M686 1483q68 0 113 -42t45 -106q0 -79 -51 -130.5t-127 -51.5q-68 0 -113 43t-45 107q0 77 51 128.5t127 51.5zM545 1305q0 -51 34 -84t87 -33q62 0 102.5 40t40.5 103q0 51 -34 84t-87 33q-63 0 -103 -40t-40 -103zM236 940l8 47h721l-193 -987h-442q-132 0 -214.5 75
t-82.5 199q0 146 108 239t267 93h432l65 334h-669zM831 559h-428q-138 0 -228.5 -80.5t-90.5 -202.5q0 -104 70.5 -167.5t183.5 -63.5h395z" />
    <glyph glyph-name="atilde.alt2" horiz-adv-x="1120" 
d="M801 1253q-32 0 -68 17.5t-63 39t-60.5 39t-62.5 17.5q-100 0 -121 -113h-39q28 158 158 158q32 0 69 -18t64.5 -39.5t61.5 -39.5t61 -18q47 0 77.5 29t41.5 82h36q-27 -154 -155 -154zM236 940l8 47h721l-193 -987h-442q-132 0 -214.5 75t-82.5 199q0 146 108 239
t267 93h432l65 334h-669zM831 559h-428q-138 0 -228.5 -80.5t-90.5 -202.5q0 -104 70.5 -167.5t183.5 -63.5h395z" />
    <glyph glyph-name="abreve.alt2" horiz-adv-x="1120" 
d="M653 1225q100 0 173.5 57t91.5 154h45q-22 -116 -108 -185t-206 -69q-110 0 -176 73t-47 181h45q-17 -89 36 -150t146 -61zM236 940l8 47h721l-193 -987h-442q-132 0 -214.5 75t-82.5 199q0 146 108 239t267 93h432l65 334h-669zM831 559h-428q-138 0 -228.5 -80.5
t-90.5 -202.5q0 -104 70.5 -167.5t183.5 -63.5h395z" />
    <glyph glyph-name="amacron.alt2" horiz-adv-x="1120" 
d="M385 1333h571l-8 -45h-573zM236 940l8 47h721l-193 -987h-442q-132 0 -214.5 75t-82.5 199q0 146 108 239t267 93h432l65 334h-669zM831 559h-428q-138 0 -228.5 -80.5t-90.5 -202.5q0 -104 70.5 -167.5t183.5 -63.5h395z" />
    <glyph glyph-name="aogonek.alt2" horiz-adv-x="1120" 
d="M236 940l8 47h721l-193 -987q-298 -151 -295 -326q1 -52 32 -81t83 -29q51 0 100 22l-8 -41q-58 -20 -106 -20q-65 0 -106 39t-42 104q-1 97 74.5 181.5t204.5 150.5h-379q-132 0 -214.5 75t-82.5 199q0 146 108 239t267 93h432l65 334h-669zM831 559h-428
q-138 0 -228.5 -80.5t-90.5 -202.5q0 -104 70.5 -167.5t183.5 -63.5h395z" />
    <glyph glyph-name="dcaron.alt" horiz-adv-x="1224" 
d="M61 432q0 151 74.5 278t209 202t298.5 75h344l107 549h49l-299 -1536h-324q-204 0 -331.5 116.5t-127.5 315.5zM1284 1182h-39l141 354h52zM977 940h-336q-228 0 -378 -147t-150 -357q0 -180 113 -285.5t298 -105.5h279z" />
    <glyph glyph-name="dcroat.alt" horiz-adv-x="1196" 
d="M61 432q0 151 75 278t209 202t298 75h344l51 268h-323l6 45h328l45 236h51l-47 -236h196l-8 -45h-196l-54 -268l-190 -987h-324q-206 0 -333.5 116.5t-127.5 315.5zM977 940h-336q-113 0 -212 -40t-168 -108t-108.5 -161t-39.5 -195q0 -180 113 -285.5t298 -105.5h281z
" />
    <glyph glyph-name="eacute.alt" horiz-adv-x="1087" 
d="M848 1454h65l-286 -295h-52zM807 47l-10 -47h-768l123 633q23 118 94 203.5t168.5 126.5t212.5 41q151 0 246.5 -73t95.5 -204q0 -143 -112.5 -224t-287.5 -81h-407l-74 -375h719zM170 469h401q154 0 251.5 67.5t97.5 188.5q0 111 -82.5 171t-210.5 60
q-159 0 -278.5 -85.5t-147.5 -233.5z" />
    <glyph glyph-name="ecircumflex.alt" horiz-adv-x="1087" 
d="M885 1159l-174 258l-271 -258h-55l299 295h59l195 -295h-53zM807 47l-10 -47h-768l123 633q23 118 94 203.5t168.5 126.5t212.5 41q151 0 246.5 -73t95.5 -204q0 -143 -112.5 -224t-287.5 -81h-407l-74 -375h719zM170 469h401q154 0 251.5 67.5t97.5 188.5
q0 111 -82.5 171t-210.5 60q-159 0 -278.5 -85.5t-147.5 -233.5z" />
    <glyph glyph-name="edieresis.alt" horiz-adv-x="1087" 
d="M487 1249q-20 0 -32.5 13.5t-12.5 33.5q0 23 14 37.5t36 14.5q21 0 34 -13.5t13 -34.5q0 -23 -14.5 -37t-37.5 -14zM883 1249q-21 0 -34 13t-13 34q0 23 14.5 37.5t36.5 14.5q20 0 33.5 -14t13.5 -34q0 -23 -14.5 -37t-36.5 -14zM807 47l-10 -47h-768l123 633
q23 118 94 203.5t168.5 126.5t212.5 41q151 0 246.5 -73t95.5 -204q0 -143 -112.5 -224t-287.5 -81h-407l-74 -375h719zM170 469h401q154 0 251.5 67.5t97.5 188.5q0 111 -82.5 171t-210.5 60q-159 0 -278.5 -85.5t-147.5 -233.5z" />
    <glyph glyph-name="egrave.alt" horiz-adv-x="1087" 
d="M477 1454h64l196 -295h-47zM807 47l-10 -47h-768l123 633q23 118 94 203.5t168.5 126.5t212.5 41q151 0 246.5 -73t95.5 -204q0 -143 -112.5 -224t-287.5 -81h-407l-74 -375h719zM170 469h401q154 0 251.5 67.5t97.5 188.5q0 111 -82.5 171t-210.5 60
q-159 0 -278.5 -85.5t-147.5 -233.5z" />
    <glyph glyph-name="ebreve.alt" horiz-adv-x="1087" 
d="M676 1225q100 0 173 57t91 154h45q-22 -116 -108 -185t-205 -69q-110 0 -176 73t-47 181h45q-17 -89 36 -150t146 -61zM807 47l-10 -47h-768l123 633q23 118 94 203.5t168.5 126.5t212.5 41q151 0 246.5 -73t95.5 -204q0 -143 -112.5 -224t-287.5 -81h-407l-74 -375h719z
M170 469h401q154 0 251.5 67.5t97.5 188.5q0 111 -82.5 171t-210.5 60q-159 0 -278.5 -85.5t-147.5 -233.5z" />
    <glyph glyph-name="ecaron.alt" horiz-adv-x="1087" 
d="M993 1454l-299 -295h-59l-195 295h54l174 -260l270 260h55zM807 47l-10 -47h-768l123 633q23 118 94 203.5t168.5 126.5t212.5 41q151 0 246.5 -73t95.5 -204q0 -143 -112.5 -224t-287.5 -81h-407l-74 -375h719zM170 469h401q154 0 251.5 67.5t97.5 188.5
q0 111 -82.5 171t-210.5 60q-159 0 -278.5 -85.5t-147.5 -233.5z" />
    <glyph glyph-name="edotaccent.alt" horiz-adv-x="1087" 
d="M688 1249q-22 0 -35.5 13.5t-13.5 33.5q0 23 14.5 37.5t36.5 14.5t35.5 -14t13.5 -34q0 -23 -14.5 -37t-36.5 -14zM807 47l-10 -47h-768l123 633q23 118 94 203.5t168.5 126.5t212.5 41q151 0 246.5 -73t95.5 -204q0 -143 -112.5 -224t-287.5 -81h-407l-74 -375h719z
M170 469h401q154 0 251.5 67.5t97.5 188.5q0 111 -82.5 171t-210.5 60q-159 0 -278.5 -85.5t-147.5 -233.5z" />
    <glyph glyph-name="emacron.alt" horiz-adv-x="1087" 
d="M406 1333h571l-8 -45h-574zM807 47l-10 -47h-768l123 633q23 118 94 203.5t168.5 126.5t212.5 41q151 0 246.5 -73t95.5 -204q0 -143 -112.5 -224t-287.5 -81h-407l-74 -375h719zM170 469h401q154 0 251.5 67.5t97.5 188.5q0 111 -82.5 171t-210.5 60
q-159 0 -278.5 -85.5t-147.5 -233.5z" />
    <glyph glyph-name="eogonek.alt" horiz-adv-x="1087" 
d="M709 -455q-58 -20 -107 -20q-65 0 -105.5 38.5t-41.5 104.5q-1 98 74 182t204 150h-704l123 633q23 118 94 203.5t168.5 126.5t212.5 41q151 0 246.5 -73t95.5 -204q0 -143 -112.5 -224t-287.5 -81h-407l-74 -375h719l-10 -47q-298 -151 -295 -326q1 -52 32 -81t82 -29
q52 0 101 22zM170 469h401q154 0 251.5 67.5t97.5 188.5q0 111 -82.5 171t-210.5 60q-159 0 -278.5 -85.5t-147.5 -233.5z" />
    <glyph glyph-name="eacute.alt2" horiz-adv-x="1097" 
d="M846 1454h65l-286 -295h-52zM47 0l193 987h796l-43 -223q-29 -147 -133 -229t-262 -82h-414l-80 -408h740l-8 -45h-789zM975 940h-694l-88 -442h409q133 0 225 71t115 193z" />
    <glyph glyph-name="ecircumflex.alt2" horiz-adv-x="1097" 
d="M885 1159l-174 258l-271 -258h-55l299 295h59l195 -295h-53zM47 0l193 987h796l-43 -223q-29 -147 -133 -229t-262 -82h-414l-80 -408h740l-8 -45h-789zM975 940h-694l-88 -442h409q133 0 225 71t115 193z" />
    <glyph glyph-name="edieresis.alt2" horiz-adv-x="1097" 
d="M489 1249q-20 0 -32.5 13.5t-12.5 33.5q0 23 14 37.5t36 14.5q21 0 34 -13.5t13 -34.5q0 -23 -14.5 -37t-37.5 -14zM885 1249q-21 0 -34 13t-13 34q0 23 14.5 37.5t36.5 14.5q20 0 33.5 -14t13.5 -34q0 -23 -14.5 -37t-36.5 -14zM47 0l193 987h796l-43 -223
q-29 -147 -133 -229t-262 -82h-414l-80 -408h740l-8 -45h-789zM975 940h-694l-88 -442h409q133 0 225 71t115 193z" />
    <glyph glyph-name="egrave.alt2" horiz-adv-x="1097" 
d="M494 1454h63l197 -295h-47zM47 0l193 987h796l-43 -223q-29 -147 -133 -229t-262 -82h-414l-80 -408h740l-8 -45h-789zM975 940h-694l-88 -442h409q133 0 225 71t115 193z" />
    <glyph glyph-name="ebreve.alt2" horiz-adv-x="1097" 
d="M670 1225q100 0 173 57t91 154h45q-22 -116 -108 -185t-205 -69q-110 0 -176.5 73.5t-47.5 180.5h45q-17 -89 36.5 -150t146.5 -61zM47 0l193 987h796l-43 -223q-29 -147 -133 -229t-262 -82h-414l-80 -408h740l-8 -45h-789zM975 940h-694l-88 -442h409q133 0 225 71
t115 193z" />
    <glyph glyph-name="ecaron.alt2" horiz-adv-x="1097" 
d="M995 1454l-299 -295h-59l-195 295h54l174 -260l270 260h55zM47 0l193 987h796l-43 -223q-29 -147 -133 -229t-262 -82h-414l-80 -408h740l-8 -45h-789zM975 940h-694l-88 -442h409q133 0 225 71t115 193z" />
    <glyph glyph-name="edotaccent.alt2" horiz-adv-x="1097" 
d="M688 1249q-22 0 -35.5 13.5t-13.5 33.5q0 23 14.5 37.5t36.5 14.5t35.5 -14t13.5 -34q0 -23 -14.5 -37t-36.5 -14zM47 0l193 987h796l-43 -223q-29 -147 -133 -229t-262 -82h-414l-80 -408h740l-8 -45h-789zM975 940h-694l-88 -442h409q133 0 225 71t115 193z" />
    <glyph glyph-name="emacron.alt2" horiz-adv-x="1097" 
d="M410 1333h571l-8 -45h-574zM47 0l193 987h796l-43 -223q-29 -147 -133 -229t-262 -82h-414l-80 -408h740l-8 -45h-789zM975 940h-694l-88 -442h409q133 0 225 71t115 193z" />
    <glyph glyph-name="eogonek.alt2" horiz-adv-x="1097" 
d="M47 0l193 987h796l-43 -223q-29 -147 -133 -229t-262 -82h-414l-80 -408h740l-8 -45q-298 -151 -295 -326q1 -52 32 -81t82 -29q52 0 101 22l-8 -41q-58 -20 -107 -20q-65 0 -105.5 38.5t-41.5 104.5q-1 98 74 182t204 150h-725zM975 940h-694l-88 -442h409q133 0 225 71
t115 193z" />
    <glyph glyph-name="hbar.alt2" horiz-adv-x="1208" 
d="M666 1239h-328l-49 -252h764l-191 -987h-51l184 940h-716l-183 -940h-49l242 1239h-197l8 43h197l49 254h49l-49 -254h328z" />
    <glyph glyph-name="hcircumflex.alt2" horiz-adv-x="1208" 
d="M862 1638l-174 258l-270 -258h-56l300 295h59l194 -295h-53zM395 1536l-106 -549h764l-191 -987h-51l184 940h-716l-183 -940h-49l299 1536h49z" />
    <glyph glyph-name="i.dot" horiz-adv-x="452" 
d="M272 1296q0 23 15.5 37.5t38.5 14.5q22 0 34.5 -13t12.5 -35q0 -23 -14.5 -37t-36.5 -14t-36 13t-14 34zM47 0l193 987h49l-191 -987h-51z" />
    <glyph glyph-name="ntilde.alt2" horiz-adv-x="1208" 
d="M864 1253q-32 0 -68 17.5t-63 39t-60.5 39t-62.5 17.5q-100 0 -121 -113h-38q28 158 157 158q32 0 69 -18t64.5 -39.5t61.5 -39.5t61 -18q47 0 77.5 29t41.5 82h37q-27 -154 -156 -154zM47 0l193 987h813l-191 -987h-51l184 940h-714l-185 -940h-49z" />
    <glyph glyph-name="nacute.alt2" horiz-adv-x="1208" 
d="M877 1454h65l-287 -295h-51zM47 0l193 987h813l-191 -987h-51l184 940h-714l-185 -940h-49z" />
    <glyph glyph-name="ncaron.alt2" horiz-adv-x="1208" 
d="M1036 1454l-299 -295h-59l-195 295h54l174 -260l270 260h55zM47 0l193 987h813l-191 -987h-51l184 940h-714l-185 -940h-49z" />
    <glyph glyph-name="ncommaaccent.alt2" horiz-adv-x="1208" 
d="M47 0l193 987h813l-191 -987h-51l184 940h-714l-185 -940h-49zM440 -139h56l-168 -236h-43z" />
    <glyph glyph-name="racute.alt" horiz-adv-x="716" 
d="M684 1454h66l-287 -295h-51zM756 969l-545 -381l-115 -588h-49l193 987h49l-66 -332l502 349z" />
    <glyph glyph-name="rcaron.alt" horiz-adv-x="716" 
d="M829 1454l-299 -295h-59l-195 295h54l174 -260l270 260h55zM756 969l-545 -381l-115 -588h-49l193 987h49l-66 -332l502 349z" />
    <glyph glyph-name="rcommaaccent.alt" horiz-adv-x="716" 
d="M756 969l-545 -381l-115 -588h-49l193 987h49l-66 -332l502 349zM12 -139h56l-168 -236h-43z" />
    <glyph glyph-name="racute.alt2" horiz-adv-x="716" 
d="M684 1454h66l-287 -295h-51zM47 0l193 987h477l-8 -47h-428l-185 -940h-49z" />
    <glyph glyph-name="rcaron.alt2" horiz-adv-x="716" 
d="M829 1454l-299 -295h-59l-195 295h54l174 -260l270 260h55zM47 0l193 987h477l-8 -47h-428l-185 -940h-49z" />
    <glyph glyph-name="rcommaaccent.alt2" horiz-adv-x="716" 
d="M47 0l193 987h477l-8 -47h-428l-185 -940h-49zM12 -139h56l-168 -236h-43z" />
    <glyph glyph-name="caron.alt" horiz-adv-x="845" 
d="M477 1182h-39l142 354h51z" />
    <glyph glyph-name="revcommaaccent" horiz-adv-x="845" 
d="M580 1364h43l-156 -236h-55z" />
    <glyph glyph-name="ampersand.alt" horiz-adv-x="1400" 
d="M477 883l123 41l-332 612h885l-10 -47h-793l649 -1194q208 256 285 692h49q-82 -466 -309 -737l135 -250h-57l-115 211q-212 -225 -479 -225q-193 0 -320 114t-127 299q0 174 110 296.5t306 187.5zM113 401q0 -165 112.5 -266.5t284.5 -101.5q117 0 235 55t220 166
l-342 629l-138 -45q-176 -59 -274 -169.5t-98 -267.5z" />
    <glyph glyph-name="Omega" horiz-adv-x="1509" 
d="M588 313l-60 -313h-477l8 45h430l46 240q-177 70 -274 217t-97 342q0 143 52 273t142.5 225.5t219 151.5t274.5 56q252 0 402.5 -155t150.5 -404q0 -264 -171 -460.5t-454 -254.5l-43 -231h428l-10 -45h-473l59 313q276 47 445.5 235.5t169.5 442.5q0 227 -137 368.5
t-369 141.5q-182 0 -329 -90.5t-227.5 -240.5t-80.5 -326q0 -188 96 -328t279 -203z" />
    <glyph glyph-name="Delta" horiz-adv-x="1464" 
d="M887 1559l395 -1559h-1397zM-29 45h1248l-353 1401z" />
    </font>
</defs>
</svg>
