<?xml version="1.0" standalone="no"?>
<!DOCTYPE svg PUBLIC "-//W3C//DTD SVG 1.1//EN" "http://www.w3.org/Graphics/SVG/1.1/DTD/svg11.dtd" >
<svg xmlns="http://www.w3.org/2000/svg" xmlns:xlink="http://www.w3.org/1999/xlink" version="1.1">
<metadata>
Created by FontForge 20170731 at Sat May 21 23:58:18 2022
 By Aleksey,,,
Copyright 2017 Indian Type Foundry
</metadata>
<defs>
<font id="Ekster-Extrabold" horiz-adv-x="1314" >
  <font-face 
    font-family="Ekster Extrabold"
    font-weight="800"
    font-stretch="normal"
    units-per-em="2048"
    panose-1="2 0 9 0 3 0 0 2 0 0"
    ascent="1638"
    descent="-410"
    x-height="1047"
    cap-height="1536"
    bbox="-215 -676 3176 2025"
    underline-thickness="184"
    underline-position="-470"
    unicode-range="U+0020-FB02"
  />
<missing-glyph horiz-adv-x="1138" 
d="M154 0v1536h831v-1536h-831zM246 86h647v1364h-647v-1364zM788 629l-73 -74l-142 141l-141 -141l-72 74l142 141l-142 139l72 74l141 -141l142 141l73 -74l-141 -139z" />
    <glyph glyph-name="fi" unicode="fi" horiz-adv-x="1333" 
d="M725 754h-246v-754h-362v1098q0 203 124.5 332t329.5 129q81 0 154 -15v-303q-34 10 -84 10q-71 0 -116.5 -38.5t-45.5 -106.5v-59h246v-293zM1034 1174q-89 0 -148 51.5t-59 136.5q0 86 58.5 138t148.5 52q87 0 145 -52.5t58 -137.5q0 -83 -58.5 -135.5t-144.5 -52.5z
M852 0v1047h362v-1047h-362z" />
    <glyph glyph-name="fl" unicode="fl" horiz-adv-x="1333" 
d="M725 754h-246v-754h-362v1098q0 203 124.5 332t329.5 129q81 0 154 -15v-303q-34 10 -84 10q-71 0 -116.5 -38.5t-45.5 -106.5v-59h246v-293zM852 0v1536h362v-1536h-362z" />
    <glyph glyph-name=".notdef" horiz-adv-x="1138" 
d="M154 0v1536h831v-1536h-831zM246 86h647v1364h-647v-1364zM788 629l-73 -74l-142 141l-141 -141l-72 74l142 141l-142 139l72 74l141 -141l142 141l73 -74l-141 -139z" />
    <glyph glyph-name=".null" horiz-adv-x="0" 
 />
    <glyph glyph-name="nonmarkingreturn" horiz-adv-x="682" 
 />
    <glyph glyph-name="space" unicode=" " horiz-adv-x="450" 
 />
    <glyph glyph-name="exclam" unicode="!" horiz-adv-x="659" 
d="M119 1536h422v-401l-84 -615h-256l-82 615v401zM334 395q97 0 157 -58.5t60 -150.5q0 -94 -60 -151.5t-157 -57.5t-159 58t-62 151q0 92 62 150.5t159 58.5z" />
    <glyph glyph-name="quotedbl" unicode="&#x22;" horiz-adv-x="931" 
d="M109 926l-17 610h320l-17 -610h-286zM537 926l-19 610h322l-19 -610h-284z" />
    <glyph glyph-name="numbersign" unicode="#" horiz-adv-x="1497" 
d="M635 0l92 319h-203l-92 -319h-295l92 319h-200v289h282l92 326h-231v289h313l90 313h295l-90 -313h203l90 313h297l-90 -313h186v-289h-268l-92 -326h217v-289h-299l-92 -319h-297zM606 608h203l92 326h-203z" />
    <glyph glyph-name="dollar" unicode="$" horiz-adv-x="1220" 
d="M1182 467q0 -170 -108 -295.5t-288 -171.5v-281h-313v265q-221 26 -399 137v405q299 -237 536 -237q72 0 116 28t44 80q0 42 -20.5 68t-77.5 55l-312 144q-144 68 -215 168.5t-71 250.5q0 176 108.5 298t292.5 161v273h313v-267q170 -21 314 -104v-389
q-127 93 -247.5 140.5t-213.5 47.5q-72 0 -117 -29.5t-45 -85.5q0 -37 22 -63.5t68 -50.5l320 -154q156 -73 224.5 -165.5t68.5 -227.5z" />
    <glyph glyph-name="percent" unicode="%" horiz-adv-x="2224" 
d="M514 709q-200 0 -330.5 121t-130.5 305q0 183 131 303.5t330 120.5q198 0 328.5 -120.5t130.5 -303.5q0 -184 -130.5 -305t-328.5 -121zM690 0h-295l1139 1536h297zM514 1325q-86 0 -141.5 -54t-55.5 -136q0 -84 55.5 -138.5t141.5 -54.5q83 0 139 55t56 138
q0 82 -56 136t-139 54zM1712 -23q-199 0 -330 120.5t-131 303.5q0 184 130.5 304t330.5 120t329.5 -120t129.5 -304q0 -183 -130 -303.5t-329 -120.5zM1907 401q0 83 -55 137t-140 54q-86 0 -141 -54t-55 -137q0 -84 55 -138t141 -54q85 0 140 54.5t55 137.5z" />
    <glyph glyph-name="ampersand" unicode="&#x26;" horiz-adv-x="1601" 
d="M1208 0l-135 131q-196 -154 -459 -154q-150 0 -271.5 52.5t-195 158t-73.5 246.5q0 138 71.5 245.5t196.5 172.5q-96 140 -96 289q0 98 38.5 180t105.5 136t155.5 84t189.5 30q207 0 344.5 -125t137.5 -326h-336q-2 63 -41.5 104.5t-100.5 41.5q-57 0 -96 -36t-39 -95
q0 -26 5 -51t18.5 -49.5t24 -41.5t34 -43t34.5 -37.5t41 -40t38 -36.5l237 -236q45 109 70 246h342q-46 -282 -170 -484l367 -362h-437zM442 463q0 -82 55.5 -131t137.5 -49q122 0 213 63l-301 289q-105 -59 -105 -172z" />
    <glyph glyph-name="quotesingle" unicode="'" horiz-adv-x="503" 
d="M109 926l-17 610h320l-17 -610h-286z" />
    <glyph glyph-name="parenleft" unicode="(" horiz-adv-x="890" 
d="M104 625q0 369 200.5 638t547.5 355v-338q-186 -71 -283.5 -243t-97.5 -412q0 -239 97.5 -412t283.5 -244v-338q-230 57 -400 199.5t-259 347t-89 447.5z" />
    <glyph glyph-name="parenright" unicode=")" horiz-adv-x="890" 
d="M786 625q0 -368 -200.5 -638t-546.5 -356v338q186 71 283.5 244t97.5 412q0 240 -97.5 412t-283.5 243v338q346 -86 546.5 -355.5t200.5 -637.5z" />
    <glyph glyph-name="asterisk" unicode="*" horiz-adv-x="933" 
d="M338 1536h256l-64 -287l220 197l127 -221l-279 -90l279 -91l-127 -221l-218 199l62 -289h-254l61 287l-219 -197l-127 219l279 91l-279 92l125 219l221 -197z" />
    <glyph glyph-name="plus" unicode="+" horiz-adv-x="1347" 
d="M1171 635h-354v-354h-287v354h-356v289h356v354h287v-354h354v-289z" />
    <glyph glyph-name="comma" unicode="," horiz-adv-x="593" 
d="M272 -344h-227l172 326q-137 56 -137 198q0 95 61 153t160 58q98 0 158.5 -59.5t60.5 -153.5q0 -86 -55 -184z" />
    <glyph glyph-name="hyphen" unicode="-" horiz-adv-x="890" 
d="M102 449v305h686v-305h-686z" />
    <glyph glyph-name="period" unicode="." horiz-adv-x="593" 
d="M299 -23q-98 0 -159.5 57.5t-61.5 151.5q0 92 61.5 150.5t159.5 58.5q97 0 157 -58.5t60 -150.5q0 -94 -60 -151.5t-157 -57.5z" />
    <glyph glyph-name="slash" unicode="/" horiz-adv-x="1208" 
d="M313 -362h-348l930 2045h350z" />
    <glyph glyph-name="zero" unicode="0" horiz-adv-x="1415" 
d="M1348 772q0 -164 -42.5 -307.5t-122 -252.5t-202.5 -172t-274 -63t-274 63t-202.5 172t-122 252.5t-42.5 307.5q0 162 43 304.5t122.5 250t202.5 170t273 62.5t273 -62.5t202.5 -170t122.5 -250t43 -304.5zM707 324q241 0 241 448q0 438 -241 438q-242 0 -242 -438
q0 -448 242 -448z" />
    <glyph glyph-name="one" unicode="1" horiz-adv-x="882" 
d="M369 0v1040l-330 -141v367l709 315v-1581h-379z" />
    <glyph glyph-name="two" unicode="2" horiz-adv-x="1189" 
d="M1143 332v-332h-1143l512 711q52 72 70.5 98t44.5 70.5t33.5 75t7.5 67.5q0 85 -61 137.5t-150 52.5q-163 0 -355 -176v377q207 146 459 146q223 0 367.5 -131.5t144.5 -342.5q0 -126 -57 -249.5t-189 -305.5l-149 -198h465z" />
    <glyph glyph-name="three" unicode="3" horiz-adv-x="1169" 
d="M1114 461q0 -96 -33 -176t-91 -136.5t-137 -95.5t-170 -57.5t-191 -18.5q-242 0 -449 115v344q221 -135 436 -135q99 0 164.5 41.5t65.5 124.5q0 84 -64 126t-158 42q-82 0 -204 -21v281l206 39q73 13 117.5 53t44.5 105t-48.5 100t-119.5 35q-208 0 -397 -154v336
q211 150 479 150q205 0 343.5 -114.5t138.5 -307.5q0 -189 -166 -314q113 -59 173 -151.5t60 -210.5z" />
    <glyph glyph-name="four" unicode="4" horiz-adv-x="1357" 
d="M1321 299h-154v-299h-366v299h-795l522 1237h371l-377 -934h279v377h366v-377h154v-303z" />
    <glyph glyph-name="five" unicode="5" horiz-adv-x="1167" 
d="M1108 496q0 -160 -81.5 -279.5t-216 -179.5t-302.5 -60q-239 0 -414 99v338q164 -123 361 -123q109 0 180.5 53.5t71.5 151.5q0 97 -70 149.5t-178 52.5q-169 0 -320 -65v903h918v-332h-555v-231q41 8 92 8q223 0 368.5 -134t145.5 -351z" />
    <glyph glyph-name="six" unicode="6" horiz-adv-x="1271" 
d="M1227 489q0 -157 -80 -275t-212.5 -177.5t-297.5 -59.5t-298.5 61t-213.5 181t-80 279q0 184 123 372l442 666h426l-374 -553h30q231 0 383 -136t152 -358zM633 311q89 0 147 54t58 139t-57.5 137.5t-145.5 52.5q-81 0 -135 -45q-68 -55 -68 -145q0 -85 57 -139t144 -54z
" />
    <glyph glyph-name="seven" unicode="7" horiz-adv-x="1198" 
d="M1217 1536l-734 -1536h-411l567 1202h-596v334h1174z" />
    <glyph glyph-name="eight" unicode="8" horiz-adv-x="1271" 
d="M635 -23q-117 0 -221 31t-185 89.5t-128.5 150.5t-47.5 205q0 127 66 226t184 150q-85 58 -131.5 138.5t-46.5 175.5q0 99 41 179t112 131.5t162.5 78.5t194.5 27q104 0 195.5 -27t162 -78.5t111.5 -131.5t41 -179q0 -94 -45.5 -175t-128.5 -139q116 -51 182 -150
t66 -226q0 -150 -82.5 -260t-213 -163t-288.5 -53zM791 1118q0 65 -44 103.5t-112 38.5q-66 0 -110 -39t-44 -103q0 -65 44 -105t110 -40q67 0 111.5 40t44.5 105zM829 481q0 77 -56 122.5t-138 45.5q-81 0 -138 -45.5t-57 -122.5q0 -79 56 -124.5t139 -45.5t138.5 45.5
t55.5 124.5z" />
    <glyph glyph-name="nine" unicode="9" horiz-adv-x="1271" 
d="M1102 664l-440 -664h-429l369 547h-22q-231 0 -384 136t-153 361q0 158 80 276.5t213.5 178.5t298.5 60q164 0 297 -61.5t213 -182t80 -279.5q0 -184 -123 -372zM637 1223q-89 0 -147 -54t-58 -139t58 -137.5t145 -52.5q99 0 158 65q47 53 47 125q0 85 -58 139t-145 54z
" />
    <glyph glyph-name="colon" unicode=":" horiz-adv-x="622" 
d="M313 651q-98 0 -159.5 58.5t-61.5 150.5t61.5 150.5t159.5 58.5q97 0 157 -58.5t60 -150.5t-60 -150.5t-157 -58.5zM313 -23q-98 0 -159.5 57.5t-61.5 151.5q0 92 61.5 150.5t159.5 58.5q97 0 157 -58.5t60 -150.5q0 -94 -60 -151.5t-157 -57.5z" />
    <glyph glyph-name="semicolon" unicode=";" horiz-adv-x="622" 
d="M319 651q-98 0 -159.5 58.5t-61.5 150.5t61.5 150.5t159.5 58.5q97 0 157.5 -58.5t60.5 -150.5t-60.5 -150.5t-157.5 -58.5zM289 -344h-228l170 326q-137 56 -137 198q0 95 62 153t159 58q98 0 160 -59.5t62 -153.5q0 -86 -58 -184z" />
    <glyph glyph-name="less" unicode="&#x3c;" horiz-adv-x="1347" 
d="M1098 549v-313l-850 387v311l850 387v-313l-551 -230z" />
    <glyph glyph-name="equal" unicode="=" horiz-adv-x="1347" 
d="M174 860v283h997v-283h-997zM174 385v283h997v-283h-997z" />
    <glyph glyph-name="greater" unicode="&#x3e;" horiz-adv-x="1347" 
d="M1098 623l-850 -387v313l553 229l-553 230v313l850 -387v-311z" />
    <glyph glyph-name="question" unicode="?" horiz-adv-x="1191" 
d="M776 698l-88 -22l-22 -156h-275l-37 340l248 60q168 44 168 167q0 73 -51 112.5t-129 39.5q-88 0 -145.5 -51.5t-57.5 -138.5h-344q0 231 155 370.5t410 139.5q234 0 381.5 -118.5t147.5 -314.5q0 -159 -92.5 -271t-268.5 -157zM530 -23q-98 0 -159.5 57.5t-61.5 151.5
q0 92 61.5 150.5t159.5 58.5q97 0 157.5 -58.5t60.5 -150.5q0 -94 -60.5 -151.5t-157.5 -57.5z" />
    <glyph glyph-name="at" unicode="@" horiz-adv-x="1802" 
d="M1268 -190q-174 -82 -396 -82q-175 0 -326 59t-257.5 164t-167 254.5t-60.5 324.5q0 180 64 332.5t175.5 257t266 163t332.5 58.5q238 0 429 -95.5t302 -275.5t111 -413q0 -106 -21 -193.5t-65 -156t-118 -106.5t-173 -38q-93 0 -161.5 38t-104.5 106q-84 -154 -262 -154
q-191 0 -308.5 133t-117.5 332q0 203 116.5 339t309.5 136q141 0 223 -98v78h287v-645q0 -49 31 -79t81 -30q51 0 85 28t50 80.5t21.5 105t5.5 124.5q0 200 -94.5 354.5t-258.5 237t-368 82.5q-205 0 -368 -86.5t-256 -247t-93 -367.5q0 -202 87 -360t244.5 -246t358.5 -88
q207 0 396 86v-112zM1057 518q0 85 -48 140t-130 55q-81 0 -127.5 -55t-46.5 -140q0 -81 48 -133.5t126 -52.5q79 0 128.5 53t49.5 133z" />
    <glyph glyph-name="A" unicode="A" horiz-adv-x="1603" 
d="M1169 0l-82 176h-595l-80 -176h-408l780 1581l815 -1581h-430zM618 457h340l-172 372z" />
    <glyph glyph-name="B" unicode="B" horiz-adv-x="1380" 
d="M135 0v1536h625q209 0 344 -112.5t135 -309.5q0 -182 -154 -303q110 -64 171 -158t61 -213q0 -201 -144 -320.5t-366 -119.5h-672zM702 1221h-188v-285h188q70 0 112 39t42 104t-42 103.5t-112 38.5zM762 631h-248v-318h248q77 0 122.5 43t45.5 115q0 73 -45.5 116.5
t-122.5 43.5z" />
    <glyph glyph-name="C" unicode="C" horiz-adv-x="1400" 
d="M848 -23q-229 0 -408.5 102t-278 282t-98.5 407q0 170 58.5 317t161.5 251t250.5 163.5t320.5 59.5q253 0 463 -132v-409q-193 180 -438 180q-188 0 -304 -119.5t-116 -306.5q0 -192 122.5 -314t317.5 -122q240 0 422 141v-385q-214 -115 -473 -115z" />
    <glyph glyph-name="D" unicode="D" horiz-adv-x="1572" 
d="M135 0v1536h598q223 0 399.5 -97t275.5 -272t99 -397q0 -224 -97.5 -399.5t-272.5 -273t-398 -97.5h-604zM702 1190h-194v-846h194q188 0 303 117t115 309q0 188 -116 304t-302 116z" />
    <glyph glyph-name="E" unicode="E" horiz-adv-x="1247" 
d="M135 0v1536h1018v-336h-639v-250h559v-334h-559v-284h662v-332h-1041z" />
    <glyph glyph-name="F" unicode="F" horiz-adv-x="1159" 
d="M135 0v1536h975v-340h-596v-309h510v-340h-510v-547h-379z" />
    <glyph glyph-name="G" unicode="G" horiz-adv-x="1560" 
d="M1462 150q-295 -173 -606 -173q-173 0 -320.5 58.5t-251.5 162t-162.5 250.5t-58.5 318q0 139 40 263t113.5 220t174.5 166t227.5 107t266.5 37q270 0 485 -123v-398q-189 174 -465 174q-195 0 -320.5 -121.5t-125.5 -316.5q0 -193 122 -315.5t312 -122.5q116 0 203 37
v229h-273v277h639v-729z" />
    <glyph glyph-name="H" unicode="H" horiz-adv-x="1619" 
d="M1106 0v621h-592v-621h-379v1536h379v-580h592v580h379v-1536h-379z" />
    <glyph glyph-name="I" unicode="I" horiz-adv-x="649" 
d="M135 0v1536h379v-1536h-379z" />
    <glyph glyph-name="J" unicode="J" horiz-adv-x="972" 
d="M322 -23q-73 0 -150 21t-133 55v340q63 -39 131 -58.5t119 -19.5q186 0 186 185v1036h379v-1032q0 -261 -137.5 -394t-394.5 -133z" />
    <glyph glyph-name="K" unicode="K" horiz-adv-x="1527" 
d="M1067 0l-387 600l-166 -192v-408h-379v1536h379v-627l520 627h457l-555 -641l590 -895h-459z" />
    <glyph glyph-name="L" unicode="L" horiz-adv-x="1185" 
d="M1143 338v-338h-1008v1536h379v-1198h629z" />
    <glyph glyph-name="M" unicode="M" horiz-adv-x="1939" 
d="M969 276l-455 431v-707h-379v1581l840 -805l829 805v-1581h-379v709z" />
    <glyph glyph-name="N" unicode="N" horiz-adv-x="1615" 
d="M1481 -45l-967 833v-788h-379v1581l967 -836v791h379v-1581z" />
    <glyph glyph-name="O" unicode="O" horiz-adv-x="1734" 
d="M1669 772q0 -173 -60 -321t-165.5 -252t-254.5 -163t-323 -59t-323 59t-254.5 163t-165.5 252t-60 321q0 229 103 409t286 279t414 99t414 -99.5t286 -279.5t103 -408zM866 336q185 0 299.5 123.5t114.5 312.5q0 185 -115 305.5t-299 120.5t-298.5 -120.5t-114.5 -305.5
q0 -189 114 -312.5t299 -123.5z" />
    <glyph glyph-name="P" unicode="P" horiz-adv-x="1345" 
d="M135 0v1536h561q260 0 428 -157.5t168 -407.5q0 -251 -169 -408t-429 -157h-180v-406h-379zM668 1214h-154v-487h154q108 0 171.5 68.5t63.5 175.5q0 105 -63.5 174t-171.5 69z" />
    <glyph glyph-name="Q" unicode="Q" horiz-adv-x="1734" 
d="M1669 772q0 -198 -77 -360.5t-216 -270.5l330 -366h-469l-193 219q-94 -17 -178 -17q-174 0 -323 59t-254.5 163t-165.5 252t-60 321q0 229 103 409t286 279t414 99t414 -99.5t286 -279.5t103 -408zM453 772q0 -189 114 -312.5t299 -123.5t299.5 123.5t114.5 312.5
q0 185 -115 305.5t-299 120.5t-298.5 -120.5t-114.5 -305.5z" />
    <glyph glyph-name="R" unicode="R" horiz-adv-x="1388" 
d="M135 0v1536h590q252 0 409.5 -146t157.5 -386q0 -158 -75.5 -279.5t-204.5 -187.5l354 -537h-448l-293 471h-111v-471h-379zM684 1214h-170v-421h170q103 0 162 57.5t59 153.5q0 95 -59.5 152.5t-161.5 57.5z" />
    <glyph glyph-name="S" unicode="S" horiz-adv-x="1249" 
d="M659 1245q-72 0 -116.5 -30.5t-44.5 -88.5q0 -35 22.5 -61t67.5 -51l321 -154q156 -75 224.5 -166.5t68.5 -226.5q0 -215 -164.5 -352.5t-423.5 -137.5q-295 0 -520 146v409q146 -119 285 -179t248 -60q73 0 117 28t44 82q0 41 -20.5 66.5t-77.5 54.5l-309 146
q-145 68 -217 167t-72 246q0 216 156 346t405 130q265 0 463 -115v-391q-128 95 -247 143.5t-210 48.5z" />
    <glyph glyph-name="T" unicode="T" horiz-adv-x="1341" 
d="M1311 1196h-451v-1196h-379v1196h-450v340h1280v-340z" />
    <glyph glyph-name="U" unicode="U" horiz-adv-x="1546" 
d="M125 614v922h379v-911q0 -140 71.5 -217.5t196.5 -77.5q124 0 197 78t73 217v911h379v-922q0 -290 -179 -463.5t-470 -173.5q-292 0 -469.5 173.5t-177.5 463.5z" />
    <glyph glyph-name="V" unicode="V" horiz-adv-x="1593" 
d="M1587 1536l-801 -1581l-780 1581h438l353 -782l368 782h422z" />
    <glyph glyph-name="W" unicode="W" horiz-adv-x="2312" 
d="M2304 1536l-741 -1581l-404 819l-414 -819l-739 1581h436l324 -743l397 788l396 -778l325 733h420z" />
    <glyph glyph-name="X" unicode="X" horiz-adv-x="1593" 
d="M1116 0l-338 487l-323 -487h-445l547 809l-502 727h465l293 -422l285 422h440l-510 -735l555 -801h-467z" />
    <glyph glyph-name="Y" unicode="Y" horiz-adv-x="1556" 
d="M1552 1536l-567 -991v-545h-379v522l-602 1014h436l351 -627l342 627h419z" />
    <glyph glyph-name="Z" unicode="Z" horiz-adv-x="1413" 
d="M1329 336v-336h-1306l729 1198h-660v338h1294l-718 -1200h661z" />
    <glyph glyph-name="bracketleft" unicode="[" horiz-adv-x="856" 
d="M150 -369v1987h667v-320h-311v-1347h311v-320h-667z" />
    <glyph glyph-name="backslash" unicode="\" horiz-adv-x="1208" 
d="M895 -362l-930 2045h348l932 -2045h-350z" />
    <glyph glyph-name="bracketright" unicode="]" horiz-adv-x="856" 
d="M707 -369h-668v320h309v1347h-309v320h668v-1987z" />
    <glyph glyph-name="asciicircum" unicode="^" horiz-adv-x="1347" 
d="M905 668l-231 571l-234 -571h-295l375 868h307l375 -868h-297z" />
    <glyph glyph-name="underscore" unicode="_" horiz-adv-x="1142" 
d="M0 -395v262h1143v-262h-1143z" />
    <glyph glyph-name="grave" unicode="`" horiz-adv-x="1226" 
d="M193 1464h436l194 -286h-307z" />
    <glyph glyph-name="a" unicode="a" 
d="M836 0v96q-106 -119 -269 -119q-151 0 -269.5 70t-183.5 193.5t-65 277.5q0 239 144.5 395t373.5 156q164 0 269 -121v99h362v-1047h-362zM625 737q-91 0 -149 -62t-58 -157q0 -91 59 -150t148 -59q91 0 151 58.5t60 150.5q0 95 -60 157t-151 62z" />
    <glyph glyph-name="b" unicode="b" 
d="M1266 528q0 -238 -145 -394.5t-373 -156.5q-158 0 -269 111v-88h-362v1536h362v-578q111 111 269 111q227 0 372.5 -154t145.5 -387zM690 309q89 0 147 61.5t58 155.5q0 92 -58.5 151.5t-146.5 59.5q-93 0 -152 -59t-59 -152q0 -94 59.5 -155.5t151.5 -61.5z" />
    <glyph glyph-name="c" unicode="c" horiz-adv-x="1032" 
d="M420 524q0 -101 74 -164t186 -63q146 0 266 76v-326q-149 -70 -321 -70q-165 0 -296 67.5t-205.5 192.5t-74.5 287q0 161 75.5 286t206.5 192t294 67q171 0 319 -80v-346q-114 105 -278 105q-107 0 -176.5 -61t-69.5 -163z" />
    <glyph glyph-name="d" unicode="d" 
d="M836 0v88q-111 -111 -269 -111q-227 0 -372.5 154t-145.5 387q0 238 145 394.5t373 156.5q156 0 269 -113v580h362v-1536h-362zM625 737q-91 0 -149 -62t-58 -157q0 -91 59 -150t148 -59q91 0 151 58.5t60 150.5q0 95 -60 157t-151 62z" />
    <glyph glyph-name="e" unicode="e" horiz-adv-x="1171" 
d="M1126 551q0 -67 -6 -135h-680q32 -74 101.5 -113t169.5 -39q161 0 331 84v-274q-173 -97 -395 -97q-125 0 -234 37t-190 105t-127.5 170t-46.5 225q0 245 154.5 400t398.5 155q229 0 376.5 -145t147.5 -373zM600 807q-73 0 -118.5 -47.5t-59.5 -126.5h342q-8 76 -50 125
t-114 49z" />
    <glyph glyph-name="f" unicode="f" horiz-adv-x="839" 
d="M831 754h-352v-754h-362v1098q0 203 124.5 332t329.5 129q154 0 275 -66v-301q-97 59 -207 59q-70 0 -115 -38t-45 -105v-61h352v-293z" />
    <glyph glyph-name="g" unicode="g" 
d="M1198 16q0 -255 -162.5 -403t-429.5 -148q-228 0 -424 109v332q189 -131 389 -131q120 0 192.5 60.5t72.5 170.5v82q-111 -111 -269 -111q-227 0 -372.5 155t-145.5 390q0 237 145 392t373 155q159 0 269 -113v91h362v-1031zM836 518q0 95 -60 157t-151 62t-149 -62
t-58 -157q0 -91 59 -150t148 -59q91 0 151 58.5t60 150.5z" />
    <glyph glyph-name="h" unicode="h" horiz-adv-x="1253" 
d="M479 526v-526h-362v1536h362v-590q120 123 291 123q174 0 279.5 -118.5t105.5 -299.5v-651h-362v543q0 86 -35.5 133t-104.5 47q-80 0 -127 -55.5t-47 -141.5z" />
    <glyph glyph-name="i" unicode="i" horiz-adv-x="593" 
d="M299 1174q-89 0 -148 51.5t-59 136.5q0 86 58.5 138t148.5 52q87 0 145 -52.5t58 -137.5q0 -83 -58.5 -135.5t-144.5 -52.5zM115 0v1047h364v-1047h-364z" />
    <glyph glyph-name="j" unicode="j" horiz-adv-x="595" 
d="M299 1174q-88 0 -147.5 52t-59.5 136q0 86 59 138t148 52q87 0 145 -52.5t58 -137.5q0 -83 -58.5 -135.5t-144.5 -52.5zM45 -535q-122 0 -225 50v288q76 -34 141 -34q68 0 112 38t44 107v1133h362v-1147q0 -199 -121.5 -317t-312.5 -118z" />
    <glyph glyph-name="k" unicode="k" horiz-adv-x="1257" 
d="M829 0l-247 379l-103 -109v-270h-362v1536h362v-838l318 349h417l-393 -414l436 -633h-428z" />
    <glyph glyph-name="l" unicode="l" horiz-adv-x="595" 
d="M117 0v1536h362v-1536h-362z" />
    <glyph glyph-name="m" unicode="m" horiz-adv-x="1869" 
d="M479 526v-526h-362v1047h362v-93q112 115 271 115q184 0 290 -141q131 141 336 141q180 0 289 -118.5t109 -299.5v-651h-363v549q0 174 -131 174q-69 0 -111.5 -56t-42.5 -141v-526h-362v549q0 174 -131 174q-69 0 -111.5 -56t-42.5 -141z" />
    <glyph glyph-name="n" unicode="n" horiz-adv-x="1253" 
d="M479 526v-526h-362v1047h362v-101q120 123 291 123q174 0 279.5 -118.5t105.5 -299.5v-651h-362v543q0 86 -35.5 133t-104.5 47q-80 0 -127 -55.5t-47 -141.5z" />
    <glyph glyph-name="o" unicode="o" horiz-adv-x="1253" 
d="M633 -23q-165 0 -298 68t-209.5 194.5t-76.5 288.5q0 160 77 284t209.5 190.5t297.5 66.5q161 0 291 -67t205 -191t75 -283q0 -244 -161.5 -397.5t-409.5 -153.5zM836 526q0 92 -58 151.5t-149 59.5q-92 0 -151.5 -59.5t-59.5 -151.5q0 -95 59.5 -156t151.5 -61
q91 0 149 61t58 156z" />
    <glyph glyph-name="p" unicode="p" 
d="M748 -23q-158 0 -269 111v-600h-362v1559h362v-89q111 111 269 111q227 0 372.5 -154t145.5 -387q0 -238 -145 -394.5t-373 -156.5zM895 526q0 92 -58.5 151.5t-146.5 59.5q-93 0 -152 -59t-59 -152q0 -94 59.5 -155.5t151.5 -61.5q89 0 147 61.5t58 155.5z" />
    <glyph glyph-name="q" unicode="q" 
d="M1198 1047v-1559h-362v600q-111 -111 -269 -111q-227 0 -372.5 154t-145.5 387q0 238 145 394.5t373 156.5q159 0 269 -113v91h362zM625 737q-91 0 -149 -62t-58 -157q0 -91 59 -150t148 -59q91 0 151 58.5t60 150.5q0 95 -60 157t-151 62z" />
    <glyph glyph-name="r" unicode="r" horiz-adv-x="847" 
d="M479 420v-420h-362v1047h362v-177q134 199 355 199v-391q-65 18 -128.5 5.5t-114 -43.5t-81.5 -89t-31 -131z" />
    <glyph glyph-name="s" unicode="s" horiz-adv-x="946" 
d="M68 395q85 -80 185 -124t191 -44q48 0 75.5 17t27.5 47q0 41 -55 61l-166 70q-63 26 -106 51.5t-80 62t-55.5 86.5t-18.5 115q0 156 115.5 244t310.5 88t348 -84v-303q-77 68 -166 108.5t-158 40.5q-46 0 -72 -17t-26 -46q0 -24 13.5 -38t49.5 -28l181 -77
q128 -56 184.5 -120.5t56.5 -166.5q0 -88 -36.5 -157.5t-100.5 -113.5t-147.5 -67t-180.5 -23q-99 0 -196.5 26.5t-173.5 72.5v319z" />
    <glyph glyph-name="t" unicode="t" horiz-adv-x="854" 
d="M811 53q-110 -76 -289 -76q-204 0 -315 108.5t-111 324.5v921h363v-284h348v-293h-348v-303q0 -74 43 -113t116 -39q113 0 193 47v-293z" />
    <glyph glyph-name="u" unicode="u" horiz-adv-x="1212" 
d="M758 467v580h362v-594q0 -217 -145 -346.5t-369 -129.5q-226 0 -370 129.5t-144 346.5v594h363v-580q0 -74 41 -116t110 -42q68 0 110 42.5t42 115.5z" />
    <glyph glyph-name="v" unicode="v" horiz-adv-x="1200" 
d="M1200 1047l-604 -1088l-596 1088h418l196 -398l205 398h381z" />
    <glyph glyph-name="w" unicode="w" horiz-adv-x="1689" 
d="M1690 1047l-535 -1088l-295 512l-311 -512l-549 1088h414l192 -390l254 424l248 -426l192 392h390z" />
    <glyph glyph-name="x" unicode="x" horiz-adv-x="1241" 
d="M803 0l-207 279l-197 -279h-395l391 549l-368 498h426l186 -250l182 250h393l-380 -515l397 -532h-428z" />
    <glyph glyph-name="y" unicode="y" horiz-adv-x="1208" 
d="M1208 1047l-766 -1559h-372l356 731l-426 828h418l203 -429l208 429h379z" />
    <glyph glyph-name="z" unicode="z" horiz-adv-x="1064" 
d="M997 293v-293h-977l467 754h-405v293h954l-465 -754h426z" />
    <glyph glyph-name="braceleft" unicode="{" horiz-adv-x="929" 
d="M891 -369h-193q-85 0 -159.5 23.5t-134 70t-94 122.5t-34.5 173v240q0 103 -43 166.5t-137 69.5v274q92 6 136 57.5t44 137.5v239q0 108 34.5 189.5t95.5 129.5t136.5 71.5t164.5 23.5h184v-295h-78q-174 0 -174 -178v-191q0 -61 -6.5 -106.5t-25 -91.5t-56 -79
t-94.5 -52q57 -19 95 -53t56 -80.5t24.5 -92.5t6.5 -106v-191q0 -97 42 -136.5t132 -39.5h78v-295z" />
    <glyph glyph-name="bar" unicode="|" horiz-adv-x="546" 
d="M424 -676h-301v2376h301v-2376z" />
    <glyph glyph-name="braceright" unicode="}" horiz-adv-x="929" 
d="M39 -369v295h78q90 0 132 39.5t42 136.5v191q0 60 6.5 106t24.5 92.5t56 80.5t95 53q-57 19 -94.5 52t-56 79t-25 91.5t-6.5 106.5v191q0 178 -174 178h-78v295h184q89 0 164.5 -23.5t136 -71.5t95 -129.5t34.5 -189.5v-239q0 -86 44.5 -137.5t136.5 -57.5v-274
q-94 -6 -137.5 -69.5t-43.5 -166.5v-240q0 -97 -34.5 -173t-94 -122.5t-134 -70t-159.5 -23.5h-192z" />
    <glyph glyph-name="asciitilde" unicode="~" horiz-adv-x="1347" 
d="M463 979q76 0 213 -48t213 -48q72 0 147.5 28.5t122.5 75.5v-297q-45 -44 -120 -70t-150 -26q-76 0 -213 49t-213 49q-67 0 -144 -33t-133 -86v297q49 49 126 79t151 30z" />
    <glyph glyph-name="uni00A0" unicode="&#xa0;" horiz-adv-x="450" 
 />
    <glyph glyph-name="exclamdown" unicode="&#xa1;" horiz-adv-x="659" 
d="M324 651q-97 0 -157.5 58.5t-60.5 150.5q0 94 60.5 151.5t157.5 57.5q98 0 159.5 -57.5t61.5 -151.5q0 -92 -61.5 -150.5t-159.5 -58.5zM117 -471v385l84 612h256l84 -612v-385h-424z" />
    <glyph glyph-name="cent" unicode="&#xa2;" horiz-adv-x="1026" 
d="M940 47q-97 -47 -215 -63v-203h-315v229q-169 55 -268 190t-99 324q0 190 104 327t277 189v230h315v-211q106 -18 199 -70v-346q-114 105 -279 105q-105 0 -175 -61t-70 -163q0 -101 74 -164t186 -63q146 0 266 76v-326z" />
    <glyph glyph-name="sterling" unicode="&#xa3;" horiz-adv-x="1253" 
d="M1204 330v-330h-1153v330h166v295h-166v258h166v133q0 243 159 393t406 150q182 0 365 -97v-336q-167 97 -316 97q-115 0 -183 -64t-68 -174v-102h405v-258h-405v-295h624z" />
    <glyph glyph-name="currency" unicode="&#xa4;" horiz-adv-x="1284" 
d="M643 301q-119 0 -225 45l-158 -158l-194 195l145 145q-64 106 -64 240q0 126 56 227l-137 138l200 198l146 -143q103 47 231 47q125 0 231 -47l148 147l195 -194l-140 -140q60 -102 60 -233q0 -132 -62 -240l137 -137l-200 -201l-152 152q-100 -41 -217 -41zM461 768
q0 -78 52 -129t130 -51q77 0 128.5 51t51.5 129q0 77 -51.5 127.5t-128.5 50.5q-78 0 -130 -50t-52 -128z" />
    <glyph glyph-name="yen" unicode="&#xa5;" horiz-adv-x="1568" 
d="M1423 324h-432v-324h-379v324h-450v227h434l-82 137h-352v227h217l-369 621h439l352 -612l336 612h422l-355 -621h219v-227h-350l-78 -137h428v-227z" />
    <glyph glyph-name="brokenbar" unicode="&#xa6;" horiz-adv-x="546" 
d="M424 696h-301v1004h301v-1004zM424 -676h-301v1004h301v-1004z" />
    <glyph glyph-name="section" unicode="&#xa7;" horiz-adv-x="1351" 
d="M1151 -80q0 -206 -154 -328t-397 -122q-253 0 -455 112v379q116 -88 237.5 -140t221.5 -52q67 0 110.5 31t43.5 87q0 70 -80 111l-426 217q-110 58 -163.5 135.5t-53.5 184.5q0 125 61.5 212.5t169.5 135.5q-65 88 -65 209q0 207 153.5 329.5t397.5 122.5q252 0 454 -112
v-379q-117 87 -238 138.5t-220 51.5q-67 0 -110.5 -31t-43.5 -86q0 -69 80 -110l426 -221q110 -56 163.5 -134t53.5 -186q0 -124 -62 -212t-170 -136q66 -87 66 -207zM428 516l399 -203q43 -21 87 -13t65 50q21 43 4.5 82.5t-61.5 61.5l-402 202q-43 22 -84.5 13t-62.5 -50
q-22 -42 -5.5 -80.5t60.5 -62.5z" />
    <glyph glyph-name="dieresis" unicode="&#xa8;" horiz-adv-x="1202" 
d="M408 1171q-75 0 -122.5 45t-47.5 117q0 71 47.5 115.5t122.5 44.5q73 0 119 -44.5t46 -115.5q0 -72 -46 -117t-119 -45zM840 1171q-75 0 -122.5 45t-47.5 117q0 71 47.5 115.5t122.5 44.5q73 0 119.5 -44.5t46.5 -115.5q0 -72 -46 -117t-120 -45z" />
    <glyph glyph-name="copyright" unicode="&#xa9;" horiz-adv-x="1691" 
d="M844 -23q-171 0 -318 58.5t-250.5 162t-162 250.5t-58.5 318t58.5 318t162 251.5t250.5 164t318 59.5q172 0 319.5 -59t251 -163.5t162.5 -252t59 -318.5q0 -229 -101 -409t-281.5 -280t-409.5 -100zM844 86q195 0 347.5 87t237 242t84.5 351t-84 351t-237 243t-348 88
t-348 -88t-236.5 -243.5t-83.5 -350.5q0 -196 83.5 -350.5t236 -242t348.5 -87.5zM874 274q-215 0 -347 141t-132 359q0 215 136 353.5t352 138.5q137 0 288 -74v-248q-120 88 -268 88q-110 0 -179 -71.5t-69 -184.5q0 -117 68.5 -192.5t179.5 -75.5q141 0 273 84v-248
q-153 -70 -302 -70z" />
    <glyph glyph-name="ordfeminine" unicode="&#xaa;" horiz-adv-x="970" 
d="M606 805v63q-76 -82 -186 -82q-160 0 -261.5 108.5t-101.5 272.5q0 166 101.5 276.5t261.5 110.5q115 0 186 -81v65h254v-733h-254zM461 1020q63 0 104 41.5t41 107.5t-41 109t-104 43q-64 0 -105 -43t-41 -109t41.5 -107.5t104.5 -41.5zM123 674h737v-158h-737v158z" />
    <glyph glyph-name="guillemotleft" unicode="&#xab;" horiz-adv-x="1298" 
d="M367 102l-306 451l306 432h360l-303 -432l303 -451h-360zM864 102l-305 451l305 432h361l-305 -432l305 -451h-361z" />
    <glyph glyph-name="logicalnot" unicode="&#xac;" horiz-adv-x="1347" 
d="M186 1145h973v-670h-285v379h-688v291z" />
    <glyph glyph-name="uni00AD" unicode="&#xad;" horiz-adv-x="0" 
 />
    <glyph glyph-name="registered" unicode="&#xae;" horiz-adv-x="1691" 
d="M844 -23q-171 0 -318 58.5t-250.5 162t-162 250.5t-58.5 318t58.5 318t162 251.5t250.5 164t318 59.5q172 0 319.5 -59t251 -163.5t162.5 -252t59 -318.5q0 -229 -101 -409t-281.5 -280t-409.5 -100zM844 86q195 0 347.5 87t237 242t84.5 351t-84 351t-237 243t-348 88
t-348 -88t-236.5 -243.5t-83.5 -350.5q0 -196 83.5 -350.5t236 -242t348.5 -87.5zM506 293v967h383q148 0 246 -89t98 -237q0 -99 -47 -174.5t-127 -114.5l209 -352h-289l-172 315h-49v-315h-252zM848 1049h-90v-230h90q52 0 87.5 29.5t35.5 85.5q0 57 -35 86t-88 29z" />
    <glyph glyph-name="macron" unicode="&#xaf;" horiz-adv-x="1226" 
d="M274 1450h703v-256h-703v256z" />
    <glyph glyph-name="degree" unicode="&#xb0;" horiz-adv-x="1026" 
d="M514 709q-200 0 -330.5 121t-130.5 305q0 183 131 303.5t330 120.5t329 -120.5t130 -303.5q0 -185 -130 -305.5t-329 -120.5zM709 1135q0 82 -56 136t-139 54q-86 0 -141.5 -54t-55.5 -136q0 -84 55.5 -138.5t141.5 -54.5q83 0 139 55t56 138z" />
    <glyph glyph-name="plusminus" unicode="&#xb1;" horiz-adv-x="1347" 
d="M1171 868h-354v-245h-287v245h-356v283h356v246h287v-246h354v-283zM174 246v282h997v-282h-997z" />
    <glyph glyph-name="twosuperior" unicode="&#xb2;" horiz-adv-x="952" 
d="M901 772v-223h-901l408 446q64 73 86 113.5t22 85.5q0 52 -39 84.5t-100 32.5q-137 0 -299 -121v264q172 102 383 102q165 0 269 -83t104 -216q0 -82 -37 -160t-123 -177l-125 -148h352z" />
    <glyph glyph-name="threesuperior" unicode="&#xb3;" horiz-adv-x="956" 
d="M887 831q0 -99 -64.5 -171.5t-166.5 -107t-226 -34.5q-184 0 -346 70v248q160 -91 336 -91q67 0 111 23t44 76q0 51 -40.5 74.5t-106.5 23.5q-85 0 -186 -16v204l180 29q110 19 110 90q0 38 -33 57t-83 19q-150 0 -297 -104v239q147 96 362 96q148 0 248 -73t100 -199
q0 -132 -122 -209q84 -38 132 -100.5t48 -143.5z" />
    <glyph glyph-name="acute" unicode="&#xb4;" horiz-adv-x="1226" 
d="M653 1464h437l-324 -286h-307z" />
    <glyph glyph-name="paragraph" unicode="&#xb6;" horiz-adv-x="1296" 
d="M913 1536v-1536h-362v578q-151 1 -264.5 63t-172.5 169.5t-59 244.5q0 212 139 346.5t377 134.5h342zM1036 0v1536h123v-1536h-123z" />
    <glyph glyph-name="periodcentered" unicode="&#xb7;" horiz-adv-x="735" 
d="M369 625q-88 0 -146.5 52.5t-58.5 137.5q0 86 58.5 139.5t146.5 53.5q85 0 142.5 -53.5t57.5 -139.5q0 -85 -57.5 -137.5t-142.5 -52.5z" />
    <glyph glyph-name="cedilla" unicode="&#xb8;" horiz-adv-x="1048" 
d="M825 -313q0 -72 -45 -121.5t-112.5 -70.5t-151.5 -21q-93 0 -174 34v158q80 -39 150 -39q38 0 63 16t25 48q0 30 -24 47.5t-58 17.5q-38 0 -84 -16l-39 43l129 287h198l-96 -187q97 -10 158 -60t61 -136z" />
    <glyph glyph-name="onesuperior" unicode="&#xb9;" horiz-adv-x="696" 
d="M276 547v665l-249 -88v244l530 199v-1020h-281z" />
    <glyph glyph-name="ordmasculine" unicode="&#xba;" horiz-adv-x="929" 
d="M469 1552q174 0 288.5 -105.5t114.5 -275.5q0 -172 -114 -280.5t-289 -108.5q-180 0 -296 107t-116 282q0 171 117.5 276t294.5 105zM614 1169q0 66 -41 108t-106 42q-67 0 -109.5 -42t-42.5 -108q0 -69 42 -112t110 -43q66 0 106.5 43t40.5 112zM100 516v158h738v-158
h-738z" />
    <glyph glyph-name="guillemotright" unicode="&#xbb;" horiz-adv-x="1298" 
d="M930 102h-361l305 451l-305 432h361l305 -432zM434 102h-362l305 451l-305 432h362l303 -432z" />
    <glyph glyph-name="onequarter" unicode="&#xbc;" horiz-adv-x="2486" 
d="M426 547v665l-250 -88v244l531 199v-1020h-281zM807 0h-293l1104 1536h295zM2365 186h-120v-186h-283v186h-580l359 803h284l-251 -592h188v240h283v-240h120v-211z" />
    <glyph glyph-name="onehalf" unicode="&#xbd;" horiz-adv-x="2486" 
d="M426 547v665l-250 -88v244l531 199v-1020h-281zM799 0h-293l1104 1536h295zM2376 225v-223h-901l407 447q65 74 87 114t22 84q0 52 -39.5 84.5t-100.5 32.5q-137 0 -299 -121v264q173 103 383 103q165 0 269 -83t104 -216q0 -83 -37.5 -161t-122.5 -177l-125 -148h353z
" />
    <glyph glyph-name="threequarters" unicode="&#xbe;" horiz-adv-x="2514" 
d="M940 831q0 -99 -64.5 -171.5t-166.5 -107t-226 -34.5q-184 0 -346 70v248q160 -91 336 -91q67 0 111.5 23t44.5 76q0 51 -41 74.5t-107 23.5q-85 0 -186 -16v204l180 29q111 19 111 90q0 37 -33.5 56.5t-83.5 19.5q-150 0 -297 -104v239q147 96 363 96q148 0 248 -73
t100 -199q0 -132 -123 -209q84 -38 132 -100.5t48 -143.5zM842 0h-293l1104 1536h295zM2398 186h-121v-186h-282v186h-580l359 803h284l-252 -592h189v240h282v-240h121v-211z" />
    <glyph glyph-name="questiondown" unicode="&#xbf;" horiz-adv-x="1177" 
d="M662 1069q97 0 159 -58t62 -151q0 -92 -62 -150.5t-159 -58.5t-157.5 58.5t-60.5 150.5q0 94 60.5 151.5t157.5 57.5zM1149 0q0 -231 -155 -370.5t-410 -139.5q-235 0 -382 118t-147 314q0 157 92.5 268t268.5 158l88 23l22 155h275l35 -342l-246 -57
q-75 -20 -122.5 -60.5t-47.5 -105.5q0 -73 52 -113.5t128 -40.5q89 0 147 52.5t58 140.5h344z" />
    <glyph glyph-name="Agrave" unicode="&#xc0;" horiz-adv-x="1603" 
d="M354 1935h437l194 -286h-307zM1169 0l-82 176h-595l-80 -176h-408l780 1581l815 -1581h-430zM618 457h340l-172 372z" />
    <glyph glyph-name="Aacute" unicode="&#xc1;" horiz-adv-x="1603" 
d="M778 1935h436l-323 -286h-307zM1169 0l-82 176h-595l-80 -176h-408l780 1581l815 -1581h-430zM618 457h340l-172 372z" />
    <glyph glyph-name="Acircumflex" unicode="&#xc2;" horiz-adv-x="1603" 
d="M909 1649l-129 114l-129 -114h-299l242 286h375l241 -286h-301zM1169 0l-82 176h-595l-80 -176h-408l780 1581l815 -1581h-430zM618 457h340l-172 372z" />
    <glyph glyph-name="Atilde" unicode="&#xc3;" horiz-adv-x="1603" 
d="M907 1640q-53 0 -146.5 27t-115.5 27q-30 0 -50 -17t-20 -45h-174q0 146 66 229t184 83q52 0 152 -27t115 -27q30 0 49.5 16.5t19.5 43.5h174q5 -141 -64 -225.5t-190 -84.5zM1169 0l-82 176h-595l-80 -176h-408l780 1581l815 -1581h-430zM618 457h340l-172 372z" />
    <glyph glyph-name="Adieresis" unicode="&#xc4;" horiz-adv-x="1603" 
d="M567 1642q-75 0 -122.5 45t-47.5 117q0 71 47.5 115.5t122.5 44.5q73 0 119.5 -44.5t46.5 -115.5q0 -72 -46 -117t-120 -45zM999 1642q-75 0 -122.5 45t-47.5 117q0 71 47.5 115.5t122.5 44.5q73 0 119.5 -44.5t46.5 -115.5q0 -72 -46 -117t-120 -45zM1169 0l-82 176
h-595l-80 -176h-408l780 1581l815 -1581h-430zM618 457h340l-172 372z" />
    <glyph glyph-name="Aring" unicode="&#xc5;" horiz-adv-x="1603" 
d="M492 176l-80 -176h-408l739 1497q-94 12 -152.5 75.5t-58.5 158.5q0 106 70.5 171.5t179.5 65.5t179.5 -63.5t70.5 -169.5q0 -96 -56.5 -160t-148.5 -76l772 -1499h-430l-82 176h-595zM700 1731q0 -35 22.5 -57.5t59.5 -22.5t58.5 22.5t21.5 59.5q0 35 -22.5 57t-57.5 22
q-37 0 -59.5 -22t-22.5 -59zM618 457h340l-172 372z" />
    <glyph glyph-name="AE" unicode="&#xc6;" horiz-adv-x="2152" 
d="M1040 0v186h-491l-123 -186h-422l1059 1536h995v-336h-639v-250h559v-334h-559v-284h662v-332h-1041zM1040 467v455l-307 -455h307z" />
    <glyph glyph-name="Ccedilla" unicode="&#xc7;" horiz-adv-x="1400" 
d="M1077 -313q0 -72 -45 -121.5t-112.5 -70.5t-151.5 -21q-93 0 -174 34v158q80 -39 149 -39q38 0 63 16t25 48q0 30 -23.5 47.5t-57.5 17.5q-38 0 -84 -16l-39 43l92 203q-295 43 -475.5 257.5t-180.5 524.5q0 170 58.5 317t161.5 251t250.5 163.5t320.5 59.5
q253 0 463 -132v-409q-193 180 -438 180q-188 0 -304 -119.5t-116 -306.5q0 -192 122.5 -314t317.5 -122q240 0 422 141v-385q-186 -99 -414 -112l-49 -97q97 -10 158 -60t61 -136z" />
    <glyph glyph-name="Egrave" unicode="&#xc8;" horiz-adv-x="1247" 
d="M266 1935h436l195 -286h-307zM135 0v1536h1018v-336h-639v-250h559v-334h-559v-284h662v-332h-1041z" />
    <glyph glyph-name="Eacute" unicode="&#xc9;" horiz-adv-x="1247" 
d="M649 1935h436l-323 -286h-307zM135 0v1536h1018v-336h-639v-250h559v-334h-559v-284h662v-332h-1041z" />
    <glyph glyph-name="Ecircumflex" unicode="&#xca;" horiz-adv-x="1247" 
d="M782 1649l-129 114l-129 -114h-299l242 286h375l241 -286h-301zM135 0v1536h1018v-336h-639v-250h559v-334h-559v-284h662v-332h-1041z" />
    <glyph glyph-name="Edieresis" unicode="&#xcb;" horiz-adv-x="1247" 
d="M444 1642q-75 0 -122.5 45t-47.5 117q0 71 47.5 115.5t122.5 44.5q73 0 119.5 -44.5t46.5 -115.5q0 -72 -46 -117t-120 -45zM877 1642q-75 0 -122.5 45t-47.5 117q0 71 47.5 115.5t122.5 44.5q73 0 119 -44.5t46 -115.5q0 -72 -46 -117t-119 -45zM135 0v1536h1018v-336
h-639v-250h559v-334h-559v-284h662v-332h-1041z" />
    <glyph glyph-name="Igrave" unicode="&#xcc;" horiz-adv-x="649" 
d="M-106 1935h436l194 -286h-307zM135 0v1536h379v-1536h-379z" />
    <glyph glyph-name="Iacute" unicode="&#xcd;" horiz-adv-x="649" 
d="M322 1935h436l-324 -286h-307zM135 0v1536h379v-1536h-379z" />
    <glyph glyph-name="Icircumflex" unicode="&#xce;" horiz-adv-x="649" 
d="M459 1649l-129 114l-129 -114h-299l241 286h375l242 -286h-301zM135 0v1536h379v-1536h-379z" />
    <glyph glyph-name="Idieresis" unicode="&#xcf;" horiz-adv-x="649" 
d="M131 1642q-75 0 -122.5 45t-47.5 117q0 71 47.5 115.5t122.5 44.5q73 0 119.5 -44.5t46.5 -115.5q0 -72 -46 -117t-120 -45zM563 1642q-75 0 -122.5 45t-47.5 117q0 71 47.5 115.5t122.5 44.5q73 0 119.5 -44.5t46.5 -115.5q0 -72 -46 -117t-120 -45zM135 0v1536h379
v-1536h-379z" />
    <glyph glyph-name="Eth" unicode="&#xd0;" horiz-adv-x="1656" 
d="M35 909h184v627h598q223 0 399.5 -97t275.5 -272t99 -397q0 -224 -97.5 -399.5t-272.5 -273t-398 -97.5h-604v629h-184v280zM883 629h-291v-285h194q188 0 303 117t115 309q0 188 -116 304t-302 116h-194v-281h291v-280z" />
    <glyph glyph-name="Ntilde" unicode="&#xd1;" horiz-adv-x="1615" 
d="M948 1638q-53 0 -146.5 27t-115.5 27q-30 0 -50 -17t-20 -45h-174q0 146 66 229t184 83q52 0 151.5 -27t114.5 -27q30 0 50 16.5t20 43.5h174q5 -141 -64 -225.5t-190 -84.5zM1481 -45l-967 833v-788h-379v1581l967 -836v791h379v-1581z" />
    <glyph glyph-name="Ograve" unicode="&#xd2;" horiz-adv-x="1734" 
d="M457 1935h436l194 -286h-307zM1669 772q0 -173 -60 -321t-165.5 -252t-254.5 -163t-323 -59t-323 59t-254.5 163t-165.5 252t-60 321q0 229 103 409t286 279t414 99t414 -99.5t286 -279.5t103 -408zM866 336q185 0 299.5 123.5t114.5 312.5q0 185 -115 305.5t-299 120.5
t-298.5 -120.5t-114.5 -305.5q0 -189 114 -312.5t299 -123.5z" />
    <glyph glyph-name="Oacute" unicode="&#xd3;" horiz-adv-x="1734" 
d="M862 1935h436l-323 -286h-307zM1669 772q0 -173 -60 -321t-165.5 -252t-254.5 -163t-323 -59t-323 59t-254.5 163t-165.5 252t-60 321q0 229 103 409t286 279t414 99t414 -99.5t286 -279.5t103 -408zM866 336q185 0 299.5 123.5t114.5 312.5q0 185 -115 305.5t-299 120.5
t-298.5 -120.5t-114.5 -305.5q0 -189 114 -312.5t299 -123.5z" />
    <glyph glyph-name="Ocircumflex" unicode="&#xd4;" horiz-adv-x="1734" 
d="M999 1649l-129 114l-129 -114h-299l242 286h375l241 -286h-301zM1669 772q0 -173 -60 -321t-165.5 -252t-254.5 -163t-323 -59t-323 59t-254.5 163t-165.5 252t-60 321q0 229 103 409t286 279t414 99t414 -99.5t286 -279.5t103 -408zM866 336q185 0 299.5 123.5
t114.5 312.5q0 185 -115 305.5t-299 120.5t-298.5 -120.5t-114.5 -305.5q0 -189 114 -312.5t299 -123.5z" />
    <glyph glyph-name="Otilde" unicode="&#xd5;" horiz-adv-x="1734" 
d="M995 1638q-53 0 -146.5 27t-115.5 27q-30 0 -49.5 -16.5t-19.5 -45.5h-175q0 146 66 229t184 83q52 0 152 -27t115 -27q30 0 49.5 16.5t19.5 43.5h174q5 -141 -64 -225.5t-190 -84.5zM1669 772q0 -173 -60 -321t-165.5 -252t-254.5 -163t-323 -59t-323 59t-254.5 163
t-165.5 252t-60 321q0 229 103 409t286 279t414 99t414 -99.5t286 -279.5t103 -408zM866 336q185 0 299.5 123.5t114.5 312.5q0 185 -115 305.5t-299 120.5t-298.5 -120.5t-114.5 -305.5q0 -189 114 -312.5t299 -123.5z" />
    <glyph glyph-name="Odieresis" unicode="&#xd6;" horiz-adv-x="1734" 
d="M655 1642q-75 0 -122.5 45t-47.5 117q0 71 47.5 115.5t122.5 44.5q73 0 119.5 -44.5t46.5 -115.5q0 -72 -46 -117t-120 -45zM1087 1642q-75 0 -122 45t-47 117q0 71 47 115.5t122 44.5q73 0 119.5 -44.5t46.5 -115.5q0 -72 -46 -117t-120 -45zM1669 772q0 -173 -60 -321
t-165.5 -252t-254.5 -163t-323 -59t-323 59t-254.5 163t-165.5 252t-60 321q0 229 103 409t286 279t414 99t414 -99.5t286 -279.5t103 -408zM866 336q185 0 299.5 123.5t114.5 312.5q0 185 -115 305.5t-299 120.5t-298.5 -120.5t-114.5 -305.5q0 -189 114 -312.5t299 -123.5
z" />
    <glyph glyph-name="multiply" unicode="&#xd7;" horiz-adv-x="1347" 
d="M963 287l-287 286l-291 -290l-199 198l291 291l-291 291l195 194l291 -290l291 290l198 -198l-291 -291l287 -287z" />
    <glyph glyph-name="Oslash" unicode="&#xd8;" horiz-adv-x="1777" 
d="M1686 772q0 -173 -60 -321t-165.5 -252t-254.5 -163t-323 -59q-259 0 -457 125l-98 -102h-346l260 272q-162 211 -162 500q0 229 103 409t286 279t414 99q262 0 465 -132l102 109h348l-268 -279q156 -209 156 -485zM469 772q0 -121 47 -213l567 592q-89 47 -200 47
q-184 0 -299 -120.5t-115 -305.5zM1296 772q0 110 -41 197l-565 -590q88 -43 193 -43q185 0 299 123.5t114 312.5z" />
    <glyph glyph-name="Ugrave" unicode="&#xd9;" horiz-adv-x="1546" 
d="M373 1935h436l195 -286h-308zM125 614v922h379v-911q0 -140 71.5 -217.5t196.5 -77.5q124 0 197 78t73 217v911h379v-922q0 -290 -179 -463.5t-470 -173.5q-292 0 -469.5 173.5t-177.5 463.5z" />
    <glyph glyph-name="Uacute" unicode="&#xda;" horiz-adv-x="1546" 
d="M768 1935h436l-323 -286h-308zM125 614v922h379v-911q0 -140 71.5 -217.5t196.5 -77.5q124 0 197 78t73 217v911h379v-922q0 -290 -179 -463.5t-470 -173.5q-292 0 -469.5 173.5t-177.5 463.5z" />
    <glyph glyph-name="Ucircumflex" unicode="&#xdb;" horiz-adv-x="1546" 
d="M911 1649l-129 114l-129 -114h-299l242 286h375l241 -286h-301zM125 614v922h379v-911q0 -140 71.5 -217.5t196.5 -77.5q124 0 197 78t73 217v911h379v-922q0 -290 -179 -463.5t-470 -173.5q-292 0 -469.5 173.5t-177.5 463.5z" />
    <glyph glyph-name="Udieresis" unicode="&#xdc;" horiz-adv-x="1546" 
d="M557 1642q-75 0 -122.5 45t-47.5 117q0 71 47.5 115.5t122.5 44.5q73 0 119.5 -44.5t46.5 -115.5q0 -72 -46 -117t-120 -45zM989 1642q-75 0 -122.5 45t-47.5 117q0 71 47.5 115.5t122.5 44.5q73 0 119.5 -44.5t46.5 -115.5q0 -72 -46 -117t-120 -45zM125 614v922h379
v-911q0 -140 71.5 -217.5t196.5 -77.5q124 0 197 78t73 217v911h379v-922q0 -290 -179 -463.5t-470 -173.5q-292 0 -469.5 173.5t-177.5 463.5z" />
    <glyph glyph-name="Yacute" unicode="&#xdd;" horiz-adv-x="1556" 
d="M776 1935h436l-323 -286h-307zM1552 1536l-567 -991v-545h-379v522l-602 1014h436l351 -627l342 627h419z" />
    <glyph glyph-name="Thorn" unicode="&#xde;" horiz-adv-x="1355" 
d="M711 229h-197v-229h-379v1536h379v-219h199q254 0 416.5 -151t162.5 -392q0 -160 -75 -285t-207 -192.5t-299 -67.5zM684 997h-170v-446h170q99 0 159 63t60 160t-60 160t-159 63z" />
    <glyph glyph-name="germandbls" unicode="&#xdf;" horiz-adv-x="1357" 
d="M475 0h-362v1026q0 239 140.5 386t385.5 147q198 0 324.5 -90t126.5 -248q0 -81 -50 -187l-47 -108q-35 -75 -35 -109q0 -29 18 -51.5t62 -50.5l111 -74q91 -59 138.5 -125t47.5 -158q0 -177 -125 -279t-325 -102q-165 0 -287 64v326q68 -58 145.5 -92.5t141.5 -34.5
q41 0 65.5 19.5t24.5 55.5q0 45 -55 76l-142 80q-164 97 -164 236q0 84 39 172l49 118q41 87 41 146q0 52 -35.5 84.5t-91.5 32.5q-69 0 -105 -48t-36 -120v-1092z" />
    <glyph glyph-name="agrave" unicode="&#xe0;" 
d="M297 1464h436l195 -286h-307zM836 0v96q-106 -119 -269 -119q-151 0 -269.5 70t-183.5 193.5t-65 277.5q0 239 144.5 395t373.5 156q164 0 269 -121v99h362v-1047h-362zM625 737q-91 0 -149 -62t-58 -157q0 -91 59 -150t148 -59q91 0 151 58.5t60 150.5q0 95 -60 157
t-151 62z" />
    <glyph glyph-name="aacute" unicode="&#xe1;" 
d="M674 1464h436l-324 -286h-307zM836 0v96q-106 -119 -269 -119q-151 0 -269.5 70t-183.5 193.5t-65 277.5q0 239 144.5 395t373.5 156q164 0 269 -121v99h362v-1047h-362zM625 737q-91 0 -149 -62t-58 -157q0 -91 59 -150t148 -59q91 0 151 58.5t60 150.5q0 95 -60 157
t-151 62z" />
    <glyph glyph-name="acircumflex" unicode="&#xe2;" 
d="M805 1178l-129 114l-129 -114h-299l241 286h375l242 -286h-301zM836 0v96q-106 -119 -269 -119q-151 0 -269.5 70t-183.5 193.5t-65 277.5q0 239 144.5 395t373.5 156q164 0 269 -121v99h362v-1047h-362zM625 737q-91 0 -149 -62t-58 -157q0 -91 59 -150t148 -59
q91 0 151 58.5t60 150.5q0 95 -60 157t-151 62z" />
    <glyph glyph-name="atilde" unicode="&#xe3;" 
d="M805 1180q-53 0 -146.5 26.5t-115.5 26.5q-30 0 -50 -17t-20 -45h-174q0 146 66 229t184 83q52 0 151.5 -26.5t114.5 -26.5q30 0 50 16t20 43h174q5 -141 -64 -225t-190 -84zM836 0v96q-106 -119 -269 -119q-151 0 -269.5 70t-183.5 193.5t-65 277.5q0 239 144.5 395
t373.5 156q164 0 269 -121v99h362v-1047h-362zM625 737q-91 0 -149 -62t-58 -157q0 -91 59 -150t148 -59q91 0 151 58.5t60 150.5q0 95 -60 157t-151 62z" />
    <glyph glyph-name="adieresis" unicode="&#xe4;" 
d="M463 1171q-75 0 -122.5 45t-47.5 117q0 71 47.5 115.5t122.5 44.5q73 0 119.5 -44.5t46.5 -115.5q0 -72 -46 -117t-120 -45zM895 1171q-75 0 -122.5 45t-47.5 117q0 71 47.5 115.5t122.5 44.5q73 0 119.5 -44.5t46.5 -115.5q0 -72 -46 -117t-120 -45zM836 0v96
q-106 -119 -269 -119q-151 0 -269.5 70t-183.5 193.5t-65 277.5q0 239 144.5 395t373.5 156q164 0 269 -121v99h362v-1047h-362zM625 737q-91 0 -149 -62t-58 -157q0 -91 59 -150t148 -59q91 0 151 58.5t60 150.5q0 95 -60 157t-151 62z" />
    <glyph glyph-name="aring" unicode="&#xe5;" 
d="M682 1616q109 0 179.5 -64t70.5 -170t-71 -172.5t-179 -66.5t-179 65t-71 170q0 106 70.5 172t179.5 66zM600 1378q0 -35 22.5 -57.5t59.5 -22.5t58.5 22.5t21.5 59.5q0 35 -22.5 57.5t-57.5 22.5q-37 0 -59.5 -22.5t-22.5 -59.5zM836 0v96q-106 -119 -269 -119
q-151 0 -269.5 70t-183.5 193.5t-65 277.5q0 239 144.5 395t373.5 156q164 0 269 -121v99h362v-1047h-362zM625 737q-91 0 -149 -62t-58 -157q0 -91 59 -150t148 -59q91 0 151 58.5t60 150.5q0 95 -60 157t-151 62z" />
    <glyph glyph-name="ae" unicode="&#xe6;" horiz-adv-x="1779" 
d="M1642 70q-167 -93 -366 -93q-251 0 -404 132q-191 -132 -421 -132q-113 0 -204 37.5t-147.5 116t-56.5 186.5q0 101 55 173.5t142.5 106.5t195.5 34h234q-6 74 -62 113.5t-141 39.5q-166 0 -330 -104v293q171 96 371 96q239 0 373 -131q143 131 352 131q222 0 361 -146
t139 -372q0 -53 -7 -135h-667q30 -74 96 -113t152 -39q172 0 335 86v-280zM1204 807q-73 0 -118.5 -47.5t-59.5 -126.5h346q-9 79 -53 126.5t-115 47.5zM547 233q107 0 198 62q-32 66 -49 129h-172q-52 0 -83 -25t-31 -69q0 -46 39 -71.5t98 -25.5z" />
    <glyph glyph-name="ccedilla" unicode="&#xe7;" horiz-adv-x="1032" 
d="M854 -313q0 -72 -45 -121.5t-112.5 -70.5t-151.5 -21q-93 0 -174 34v158q80 -39 149 -39q38 0 63 16t25 48q0 30 -24 47.5t-58 17.5q-38 0 -84 -16l-39 43l93 207q-201 36 -324 179.5t-123 354.5q0 161 75.5 286t206.5 192t294 67q171 0 319 -80v-346q-114 105 -278 105
q-107 0 -176.5 -61t-69.5 -163q0 -101 74 -164t186 -63q146 0 266 76v-326q-121 -58 -260 -67l-51 -97q97 -10 158 -60t61 -136z" />
    <glyph glyph-name="egrave" unicode="&#xe8;" horiz-adv-x="1171" 
d="M174 1464h436l195 -286h-307zM1126 551q0 -67 -6 -135h-680q32 -74 101.5 -113t169.5 -39q161 0 331 84v-274q-173 -97 -395 -97q-125 0 -234 37t-190 105t-127.5 170t-46.5 225q0 245 154.5 400t398.5 155q229 0 376.5 -145t147.5 -373zM600 807q-73 0 -118.5 -47.5
t-59.5 -126.5h342q-8 76 -50 125t-114 49z" />
    <glyph glyph-name="eacute" unicode="&#xe9;" horiz-adv-x="1171" 
d="M582 1464h436l-324 -286h-307zM1126 551q0 -67 -6 -135h-680q32 -74 101.5 -113t169.5 -39q161 0 331 84v-274q-173 -97 -395 -97q-125 0 -234 37t-190 105t-127.5 170t-46.5 225q0 245 154.5 400t398.5 155q229 0 376.5 -145t147.5 -373zM600 807q-73 0 -118.5 -47.5
t-59.5 -126.5h342q-8 76 -50 125t-114 49z" />
    <glyph glyph-name="ecircumflex" unicode="&#xea;" horiz-adv-x="1171" 
d="M717 1178l-129 114l-129 -114h-299l241 286h375l242 -286h-301zM1126 551q0 -67 -6 -135h-680q32 -74 101.5 -113t169.5 -39q161 0 331 84v-274q-173 -97 -395 -97q-125 0 -234 37t-190 105t-127.5 170t-46.5 225q0 245 154.5 400t398.5 155q229 0 376.5 -145t147.5 -373
zM600 807q-73 0 -118.5 -47.5t-59.5 -126.5h342q-8 76 -50 125t-114 49z" />
    <glyph glyph-name="edieresis" unicode="&#xeb;" horiz-adv-x="1171" 
d="M375 1171q-75 0 -122.5 45t-47.5 117q0 71 47.5 115.5t122.5 44.5q73 0 119.5 -44.5t46.5 -115.5q0 -72 -46 -117t-120 -45zM807 1171q-75 0 -122.5 45t-47.5 117q0 71 47.5 115.5t122.5 44.5q73 0 119.5 -44.5t46.5 -115.5q0 -72 -46 -117t-120 -45zM1126 551
q0 -67 -6 -135h-680q32 -74 101.5 -113t169.5 -39q161 0 331 84v-274q-173 -97 -395 -97q-125 0 -234 37t-190 105t-127.5 170t-46.5 225q0 245 154.5 400t398.5 155q229 0 376.5 -145t147.5 -373zM600 807q-73 0 -118.5 -47.5t-59.5 -126.5h342q-8 76 -50 125t-114 49z" />
    <glyph glyph-name="igrave" unicode="&#xec;" horiz-adv-x="595" 
d="M-135 1464h436l195 -286h-308zM117 0v1047h362v-1047h-362z" />
    <glyph glyph-name="iacute" unicode="&#xed;" horiz-adv-x="595" 
d="M299 1464h436l-323 -286h-308zM117 0v1047h362v-1047h-362z" />
    <glyph glyph-name="icircumflex" unicode="&#xee;" horiz-adv-x="595" 
d="M434 1178l-129 114l-129 -114h-299l242 286h375l241 -286h-301zM117 0v1047h362v-1047h-362z" />
    <glyph glyph-name="idieresis" unicode="&#xef;" horiz-adv-x="595" 
d="M86 1171q-75 0 -122.5 45t-47.5 117q0 71 47.5 115.5t122.5 44.5q73 0 119.5 -44.5t46.5 -115.5q0 -72 -46 -117t-120 -45zM518 1171q-75 0 -122.5 45t-47.5 117q0 71 47.5 115.5t122.5 44.5q73 0 119.5 -44.5t46.5 -115.5q0 -72 -46 -117t-120 -45zM117 0v1047h362
v-1047h-362z" />
    <glyph glyph-name="eth" unicode="&#xf0;" horiz-adv-x="1216" 
d="M1167 594q0 -176 -71 -315.5t-205.5 -220.5t-308.5 -81q-151 0 -272.5 58.5t-193 172t-71.5 263.5q0 212 137 347.5t350 135.5q131 0 234 -90q-30 181 -154 281l-102 -105h-324l203 207q-87 19 -184 19v284q231 0 411 -71l72 71h326l-187 -188q165 -126 252.5 -323.5
t87.5 -444.5zM596 309q82 0 133 50t51 130q0 79 -52 130t-132 51t-133 -51t-53 -130t53 -129.5t133 -50.5z" />
    <glyph glyph-name="ntilde" unicode="&#xf1;" horiz-adv-x="1253" 
d="M766 1180q-53 0 -146.5 26.5t-115.5 26.5q-30 0 -50 -17t-20 -45h-174q0 146 66 229t184 83q52 0 151.5 -26.5t114.5 -26.5q30 0 50 16t20 43h174q5 -141 -64 -225t-190 -84zM479 526v-526h-362v1047h362v-101q120 123 291 123q174 0 279.5 -118.5t105.5 -299.5v-651
h-362v543q0 86 -35.5 133t-104.5 47q-80 0 -127 -55.5t-47 -141.5z" />
    <glyph glyph-name="ograve" unicode="&#xf2;" horiz-adv-x="1253" 
d="M201 1464h436l194 -286h-307zM633 -23q-165 0 -298 68t-209.5 194.5t-76.5 288.5q0 160 77 284t209.5 190.5t297.5 66.5q161 0 291 -67t205 -191t75 -283q0 -244 -161.5 -397.5t-409.5 -153.5zM836 526q0 92 -58 151.5t-149 59.5q-92 0 -151.5 -59.5t-59.5 -151.5
q0 -95 59.5 -156t151.5 -61q91 0 149 61t58 156z" />
    <glyph glyph-name="oacute" unicode="&#xf3;" horiz-adv-x="1253" 
d="M645 1464h436l-323 -286h-307zM633 -23q-165 0 -298 68t-209.5 194.5t-76.5 288.5q0 160 77 284t209.5 190.5t297.5 66.5q161 0 291 -67t205 -191t75 -283q0 -244 -161.5 -397.5t-409.5 -153.5zM836 526q0 92 -58 151.5t-149 59.5q-92 0 -151.5 -59.5t-59.5 -151.5
q0 -95 59.5 -156t151.5 -61q91 0 149 61t58 156z" />
    <glyph glyph-name="ocircumflex" unicode="&#xf4;" horiz-adv-x="1253" 
d="M756 1178l-129 114l-129 -114h-299l241 286h375l242 -286h-301zM633 -23q-165 0 -298 68t-209.5 194.5t-76.5 288.5q0 160 77 284t209.5 190.5t297.5 66.5q161 0 291 -67t205 -191t75 -283q0 -244 -161.5 -397.5t-409.5 -153.5zM836 526q0 92 -58 151.5t-149 59.5
q-92 0 -151.5 -59.5t-59.5 -151.5q0 -95 59.5 -156t151.5 -61q91 0 149 61t58 156z" />
    <glyph glyph-name="otilde" unicode="&#xf5;" horiz-adv-x="1253" 
d="M762 1169q-53 0 -146.5 27t-115.5 27q-30 0 -50 -17t-20 -45h-174q0 146 66 229t184 83q52 0 151.5 -27t114.5 -27q30 0 50 16.5t20 43.5h174q5 -141 -64 -225.5t-190 -84.5zM633 -23q-165 0 -298 68t-209.5 194.5t-76.5 288.5q0 160 77 284t209.5 190.5t297.5 66.5
q161 0 291 -67t205 -191t75 -283q0 -244 -161.5 -397.5t-409.5 -153.5zM836 526q0 92 -58 151.5t-149 59.5q-92 0 -151.5 -59.5t-59.5 -151.5q0 -95 59.5 -156t151.5 -61q91 0 149 61t58 156z" />
    <glyph glyph-name="odieresis" unicode="&#xf6;" horiz-adv-x="1253" 
d="M416 1171q-75 0 -122.5 45t-47.5 117q0 71 47.5 115.5t122.5 44.5q73 0 119.5 -44.5t46.5 -115.5q0 -72 -46 -117t-120 -45zM848 1171q-75 0 -122.5 45t-47.5 117q0 71 47.5 115.5t122.5 44.5q73 0 119.5 -44.5t46.5 -115.5q0 -72 -46 -117t-120 -45zM633 -23
q-165 0 -298 68t-209.5 194.5t-76.5 288.5q0 160 77 284t209.5 190.5t297.5 66.5q161 0 291 -67t205 -191t75 -283q0 -244 -161.5 -397.5t-409.5 -153.5zM836 526q0 92 -58 151.5t-149 59.5q-92 0 -151.5 -59.5t-59.5 -151.5q0 -95 59.5 -156t151.5 -61q91 0 149 61t58 156z
" />
    <glyph glyph-name="divide" unicode="&#xf7;" horiz-adv-x="1347" 
d="M674 1047q-75 0 -124.5 43.5t-49.5 115.5q0 71 49.5 114.5t124.5 43.5q73 0 121.5 -43.5t48.5 -114.5t-48.5 -115t-121.5 -44zM174 635v289h997v-289h-997zM674 195q-75 0 -124.5 43t-49.5 114q0 72 49.5 116t124.5 44q73 0 121.5 -44.5t48.5 -115.5q0 -70 -48.5 -113.5
t-121.5 -43.5z" />
    <glyph glyph-name="oslash" unicode="&#xf8;" horiz-adv-x="1361" 
d="M1257 528q0 -244 -161.5 -397.5t-409.5 -153.5q-176 0 -317 80l-62 -57h-338l228 215q-95 138 -95 313q0 160 77 284t209.5 190.5t297.5 66.5q171 0 307 -76l60 54h340l-224 -216q88 -134 88 -303zM471 526q0 -46 16 -86l291 275q-42 22 -96 22q-92 0 -151.5 -59.5
t-59.5 -151.5zM889 526q0 40 -17 86l-292 -278q48 -25 102 -25q91 0 149 61t58 156z" />
    <glyph glyph-name="ugrave" unicode="&#xf9;" horiz-adv-x="1212" 
d="M199 1464h436l194 -286h-307zM758 467v580h362v-594q0 -217 -145 -346.5t-369 -129.5q-226 0 -370 129.5t-144 346.5v594h363v-580q0 -74 41 -116t110 -42q68 0 110 42.5t42 115.5z" />
    <glyph glyph-name="uacute" unicode="&#xfa;" horiz-adv-x="1212" 
d="M580 1464h436l-324 -286h-307zM758 467v580h362v-594q0 -217 -145 -346.5t-369 -129.5q-226 0 -370 129.5t-144 346.5v594h363v-580q0 -74 41 -116t110 -42q68 0 110 42.5t42 115.5z" />
    <glyph glyph-name="ucircumflex" unicode="&#xfb;" horiz-adv-x="1212" 
d="M725 1178l-129 114l-129 -114h-299l242 286h374l242 -286h-301zM758 467v580h362v-594q0 -217 -145 -346.5t-369 -129.5q-226 0 -370 129.5t-144 346.5v594h363v-580q0 -74 41 -116t110 -42q68 0 110 42.5t42 115.5z" />
    <glyph glyph-name="udieresis" unicode="&#xfc;" horiz-adv-x="1212" 
d="M383 1171q-75 0 -122.5 45t-47.5 117q0 71 47.5 115.5t122.5 44.5q73 0 119.5 -44.5t46.5 -115.5q0 -72 -46 -117t-120 -45zM815 1171q-75 0 -122.5 45t-47.5 117q0 71 47.5 115.5t122.5 44.5q73 0 119.5 -44.5t46.5 -115.5q0 -72 -46 -117t-120 -45zM758 467v580h362
v-594q0 -217 -145 -346.5t-369 -129.5q-226 0 -370 129.5t-144 346.5v594h363v-580q0 -74 41 -116t110 -42q68 0 110 42.5t42 115.5z" />
    <glyph glyph-name="yacute" unicode="&#xfd;" horiz-adv-x="1208" 
d="M623 1464h436l-324 -286h-307zM1208 1047l-766 -1559h-372l356 731l-426 828h418l203 -429l208 429h379z" />
    <glyph glyph-name="thorn" unicode="&#xfe;" 
d="M748 -23q-158 0 -269 111v-600h-362v2048h362v-578q111 111 269 111q227 0 372.5 -154t145.5 -387q0 -238 -145 -394.5t-373 -156.5zM895 526q0 92 -58.5 151.5t-146.5 59.5q-93 0 -152 -59t-59 -152q0 -94 59.5 -155.5t151.5 -61.5q89 0 147 61.5t58 155.5z" />
    <glyph glyph-name="ydieresis" unicode="&#xff;" horiz-adv-x="1208" 
d="M410 1171q-75 0 -122.5 45t-47.5 117q0 71 47.5 115.5t122.5 44.5q73 0 119 -44.5t46 -115.5q0 -72 -46 -117t-119 -45zM842 1171q-75 0 -122.5 45t-47.5 117q0 71 47.5 115.5t122.5 44.5q73 0 119.5 -44.5t46.5 -115.5q0 -72 -46 -117t-120 -45zM1208 1047l-766 -1559
h-372l356 731l-426 828h418l203 -429l208 429h379z" />
    <glyph glyph-name="Amacron" unicode="&#x100;" horiz-adv-x="1603" 
d="M430 1921h703v-256h-703v256zM1169 0l-82 176h-595l-80 -176h-408l780 1581l815 -1581h-430zM618 457h340l-172 372z" />
    <glyph glyph-name="amacron" unicode="&#x101;" 
d="M317 1450h703v-256h-703v256zM836 0v96q-106 -119 -269 -119q-151 0 -269.5 70t-183.5 193.5t-65 277.5q0 239 144.5 395t373.5 156q164 0 269 -121v99h362v-1047h-362zM625 737q-91 0 -149 -62t-58 -157q0 -91 59 -150t148 -59q91 0 151 58.5t60 150.5q0 95 -60 157
t-151 62z" />
    <glyph glyph-name="Abreve" unicode="&#x102;" horiz-adv-x="1603" 
d="M784 1855q43 0 74 26t35 67h260q-6 -141 -109.5 -230.5t-261.5 -89.5q-156 0 -258 90t-108 230h260q5 -41 34.5 -67t73.5 -26zM1169 0l-82 176h-595l-80 -176h-408l780 1581l815 -1581h-430zM618 457h340l-172 372z" />
    <glyph glyph-name="abreve" unicode="&#x103;" 
d="M696 1384q43 0 74 26t35 67h260q-6 -141 -109.5 -230.5t-261.5 -89.5q-156 0 -258 90t-108 230h260q5 -41 34.5 -67t73.5 -26zM836 0v96q-106 -119 -269 -119q-151 0 -269.5 70t-183.5 193.5t-65 277.5q0 239 144.5 395t373.5 156q164 0 269 -121v99h362v-1047h-362z
M625 737q-91 0 -149 -62t-58 -157q0 -91 59 -150t148 -59q91 0 151 58.5t60 150.5q0 95 -60 157t-151 62z" />
    <glyph glyph-name="Aogonek" unicode="&#x104;" horiz-adv-x="1603" 
d="M1456 -496q-84 -32 -147 -32q-106 0 -184 55.5t-95 153.5q-28 188 139 321l-82 174h-595l-80 -176h-408l780 1581l815 -1581h-143q-85 -39 -132.5 -101.5t-29.5 -140.5q7 -33 34.5 -52t62.5 -19t65 12v-195zM618 457h340l-172 372z" />
    <glyph glyph-name="aogonek" unicode="&#x105;" 
d="M1118 -496q-84 -32 -147 -32q-106 0 -184 55.5t-95 153.5q-28 192 144 323v92q-106 -119 -269 -119q-151 0 -269.5 70t-183.5 193.5t-65 277.5q0 239 144.5 395t373.5 156q164 0 269 -121v99h362v-1047h-80q-85 -39 -132.5 -101.5t-29.5 -140.5q7 -33 34.5 -52t62.5 -19
t65 12v-195zM625 737q-91 0 -149 -62t-58 -157q0 -91 59 -150t148 -59q91 0 151 58.5t60 150.5q0 95 -60 157t-151 62z" />
    <glyph glyph-name="Cacute" unicode="&#x106;" horiz-adv-x="1400" 
d="M817 1935h436l-323 -286h-307zM848 -23q-229 0 -408.5 102t-278 282t-98.5 407q0 170 58.5 317t161.5 251t250.5 163.5t320.5 59.5q253 0 463 -132v-409q-193 180 -438 180q-188 0 -304 -119.5t-116 -306.5q0 -192 122.5 -314t317.5 -122q240 0 422 141v-385
q-214 -115 -473 -115z" />
    <glyph glyph-name="cacute" unicode="&#x107;" horiz-adv-x="1032" 
d="M596 1464h436l-323 -286h-308zM420 524q0 -101 74 -164t186 -63q146 0 266 76v-326q-149 -70 -321 -70q-165 0 -296 67.5t-205.5 192.5t-74.5 287q0 161 75.5 286t206.5 192t294 67q171 0 319 -80v-346q-114 105 -278 105q-107 0 -176.5 -61t-69.5 -163z" />
    <glyph glyph-name="Ccircumflex" unicode="&#x108;" horiz-adv-x="1400" 
d="M967 1649l-129 114l-129 -114h-299l241 286h375l242 -286h-301zM848 -23q-229 0 -408.5 102t-278 282t-98.5 407q0 170 58.5 317t161.5 251t250.5 163.5t320.5 59.5q253 0 463 -132v-409q-193 180 -438 180q-188 0 -304 -119.5t-116 -306.5q0 -192 122.5 -314t317.5 -122
q240 0 422 141v-385q-214 -115 -473 -115z" />
    <glyph glyph-name="ccircumflex" unicode="&#x109;" horiz-adv-x="1032" 
d="M727 1178l-129 114l-129 -114h-299l242 286h374l242 -286h-301zM420 524q0 -101 74 -164t186 -63q146 0 266 76v-326q-149 -70 -321 -70q-165 0 -296 67.5t-205.5 192.5t-74.5 287q0 161 75.5 286t206.5 192t294 67q171 0 319 -80v-346q-114 105 -278 105
q-107 0 -176.5 -61t-69.5 -163z" />
    <glyph glyph-name="Cdotaccent" unicode="&#x10a;" horiz-adv-x="1400" 
d="M846 1645q-88 0 -147.5 52t-59.5 136q0 86 59 138t148 52q88 0 145.5 -52.5t57.5 -137.5q0 -84 -57.5 -136t-145.5 -52zM848 -23q-229 0 -408.5 102t-278 282t-98.5 407q0 170 58.5 317t161.5 251t250.5 163.5t320.5 59.5q253 0 463 -132v-409q-193 180 -438 180
q-188 0 -304 -119.5t-116 -306.5q0 -192 122.5 -314t317.5 -122q240 0 422 141v-385q-214 -115 -473 -115z" />
    <glyph glyph-name="cdotaccent" unicode="&#x10b;" horiz-adv-x="1032" 
d="M582 1174q-88 0 -147.5 52t-59.5 136q0 86 59 138t148 52q88 0 145 -52.5t57 -137.5q0 -84 -57.5 -136t-144.5 -52zM420 524q0 -101 74 -164t186 -63q146 0 266 76v-326q-149 -70 -321 -70q-165 0 -296 67.5t-205.5 192.5t-74.5 287q0 161 75.5 286t206.5 192t294 67
q171 0 319 -80v-346q-114 105 -278 105q-107 0 -176.5 -61t-69.5 -163z" />
    <glyph glyph-name="Ccaron" unicode="&#x10c;" horiz-adv-x="1400" 
d="M1284 1935l-254 -286h-375l-254 286h312l129 -114l129 114h313zM848 -23q-229 0 -408.5 102t-278 282t-98.5 407q0 170 58.5 317t161.5 251t250.5 163.5t320.5 59.5q253 0 463 -132v-409q-193 180 -438 180q-188 0 -304 -119.5t-116 -306.5q0 -192 122.5 -314t317.5 -122
q240 0 422 141v-385q-214 -115 -473 -115z" />
    <glyph glyph-name="ccaron" unicode="&#x10d;" horiz-adv-x="1032" 
d="M1036 1464l-254 -286h-374l-254 286h311l129 -114l129 114h313zM420 524q0 -101 74 -164t186 -63q146 0 266 76v-326q-149 -70 -321 -70q-165 0 -296 67.5t-205.5 192.5t-74.5 287q0 161 75.5 286t206.5 192t294 67q171 0 319 -80v-346q-114 105 -278 105
q-107 0 -176.5 -61t-69.5 -163z" />
    <glyph glyph-name="Dcaron" unicode="&#x10e;" horiz-adv-x="1572" 
d="M1174 1935l-254 -286h-375l-254 286h311l129 -114l129 114h314zM135 0v1536h598q223 0 399.5 -97t275.5 -272t99 -397q0 -224 -97.5 -399.5t-272.5 -273t-398 -97.5h-604zM702 1190h-194v-846h194q188 0 303 117t115 309q0 188 -116 304t-302 116z" />
    <glyph glyph-name="dcaron" unicode="&#x10f;" horiz-adv-x="1615" 
d="M836 0v88q-111 -111 -269 -111q-227 0 -372.5 154t-145.5 387q0 238 145 394.5t373 156.5q156 0 269 -113v580h362v-1536h-362zM1493 1122h-217l61 414h320zM625 737q-91 0 -149 -62t-58 -157q0 -91 59 -150t148 -59q91 0 151 58.5t60 150.5q0 95 -60 157t-151 62z" />
    <glyph glyph-name="Dcroat" unicode="&#x110;" horiz-adv-x="1648" 
d="M27 909h184v627h598q223 0 399.5 -97t275.5 -272t99 -397q0 -224 -97.5 -399.5t-272.5 -273t-398 -97.5h-604v629h-184v280zM874 629h-290v-285h194q187 0 302.5 117.5t115.5 308.5q0 188 -116 304t-302 116h-194v-281h290v-280z" />
    <glyph glyph-name="dcroat" unicode="&#x111;" 
d="M836 0v88q-111 -111 -269 -111q-227 0 -372.5 154t-145.5 387q0 238 145 394.5t373 156.5q156 0 269 -113v222h-226v219h226v139h362v-139h143v-219h-143v-1178h-362zM836 518q0 95 -60 157t-151 62t-149 -62t-58 -157q0 -91 59 -150t148 -59q91 0 151 58.5t60 150.5z
" />
    <glyph glyph-name="Emacron" unicode="&#x112;" horiz-adv-x="1247" 
d="M301 1921h703v-256h-703v256zM135 0v1536h1018v-336h-639v-250h559v-334h-559v-284h662v-332h-1041z" />
    <glyph glyph-name="emacron" unicode="&#x113;" horiz-adv-x="1171" 
d="M223 1450h703v-256h-703v256zM1126 551q0 -67 -6 -135h-680q32 -74 101.5 -113t169.5 -39q161 0 331 84v-274q-173 -97 -395 -97q-125 0 -234 37t-190 105t-127.5 170t-46.5 225q0 245 154.5 400t398.5 155q229 0 376.5 -145t147.5 -373zM600 807q-73 0 -118.5 -47.5
t-59.5 -126.5h342q-8 76 -50 125t-114 49z" />
    <glyph glyph-name="Ebreve" unicode="&#x114;" horiz-adv-x="1247" 
d="M662 1855q43 0 73.5 26t34.5 67h260q-6 -141 -109.5 -230.5t-261.5 -89.5q-156 0 -258 90t-108 230h260q5 -41 35 -67t74 -26zM135 0v1536h1018v-336h-639v-250h559v-334h-559v-284h662v-332h-1041z" />
    <glyph glyph-name="ebreve" unicode="&#x115;" horiz-adv-x="1171" 
d="M582 1384q43 0 73.5 26t34.5 67h260q-6 -141 -109 -230.5t-261 -89.5q-156 0 -258.5 90t-108.5 230h260q5 -41 35 -67t74 -26zM1126 551q0 -67 -6 -135h-680q32 -74 101.5 -113t169.5 -39q161 0 331 84v-274q-173 -97 -395 -97q-125 0 -234 37t-190 105t-127.5 170
t-46.5 225q0 245 154.5 400t398.5 155q229 0 376.5 -145t147.5 -373zM600 807q-73 0 -118.5 -47.5t-59.5 -126.5h342q-8 76 -50 125t-114 49z" />
    <glyph glyph-name="Edotaccent" unicode="&#x116;" horiz-adv-x="1247" 
d="M666 1645q-88 0 -147.5 52t-59.5 136q0 86 59 138t148 52q88 0 145 -52.5t57 -137.5q0 -84 -57.5 -136t-144.5 -52zM135 0v1536h1018v-336h-639v-250h559v-334h-559v-284h662v-332h-1041z" />
    <glyph glyph-name="edotaccent" unicode="&#x117;" horiz-adv-x="1171" 
d="M578 1174q-88 0 -147.5 52t-59.5 136q0 86 59 138t148 52q88 0 145 -52.5t57 -137.5q0 -84 -57.5 -136t-144.5 -52zM1126 551q0 -67 -6 -135h-680q32 -74 101.5 -113t169.5 -39q161 0 331 84v-274q-173 -97 -395 -97q-125 0 -234 37t-190 105t-127.5 170t-46.5 225
q0 245 154.5 400t398.5 155q229 0 376.5 -145t147.5 -373zM600 807q-73 0 -118.5 -47.5t-59.5 -126.5h342q-8 76 -50 125t-114 49z" />
    <glyph glyph-name="Eogonek" unicode="&#x118;" horiz-adv-x="1247" 
d="M135 0v1536h1018v-336h-639v-250h559v-334h-559v-284h662v-332q-85 -39 -132.5 -101.5t-29.5 -140.5q7 -33 34 -52t62 -19q36 0 66 12v-195q-84 -32 -148 -32q-106 0 -183.5 55.5t-94.5 153.5q-28 188 137 319h-752z" />
    <glyph glyph-name="eogonek" unicode="&#x119;" horiz-adv-x="1173" 
d="M1128 551q0 -72 -8 -135h-680q32 -73 102.5 -112.5t170.5 -39.5q163 0 323 86v-280q-85 -53 -134 -138t-30 -170q7 -33 34 -53t63 -20q35 0 65 12v-195q-84 -32 -147 -32q-106 0 -184 56t-95 153q-25 168 107 297q-30 -3 -66 -3q-269 0 -434.5 145t-165.5 388
q0 247 154 403t399 156q232 0 379 -144t147 -374zM600 803q-74 0 -119 -45.5t-59 -124.5h344q-8 78 -51 124t-115 46z" />
    <glyph glyph-name="Ecaron" unicode="&#x11a;" horiz-adv-x="1247" 
d="M1116 1935l-254 -286h-375l-254 286h312l129 -114l129 114h313zM135 0v1536h1018v-336h-639v-250h559v-334h-559v-284h662v-332h-1041z" />
    <glyph glyph-name="ecaron" unicode="&#x11b;" horiz-adv-x="1171" 
d="M1024 1464l-254 -286h-375l-254 286h312l129 -114l129 114h313zM1126 551q0 -67 -6 -135h-680q32 -74 101.5 -113t169.5 -39q161 0 331 84v-274q-173 -97 -395 -97q-125 0 -234 37t-190 105t-127.5 170t-46.5 225q0 245 154.5 400t398.5 155q229 0 376.5 -145t147.5 -373
zM600 807q-73 0 -118.5 -47.5t-59.5 -126.5h342q-8 76 -50 125t-114 49z" />
    <glyph glyph-name="Gcircumflex" unicode="&#x11c;" horiz-adv-x="1560" 
d="M981 1649l-129 114l-129 -114h-299l242 286h374l242 -286h-301zM1462 150q-295 -173 -606 -173q-173 0 -320.5 58.5t-251.5 162t-162.5 250.5t-58.5 318q0 139 40 263t113.5 220t174.5 166t227.5 107t266.5 37q270 0 485 -123v-398q-189 174 -465 174
q-195 0 -320.5 -121.5t-125.5 -316.5q0 -193 122 -315.5t312 -122.5q116 0 203 37v229h-273v277h639v-729z" />
    <glyph glyph-name="gcircumflex" unicode="&#x11d;" 
d="M813 1178l-129 114l-129 -114h-299l242 286h374l242 -286h-301zM1198 16q0 -255 -162.5 -403t-429.5 -148q-228 0 -424 109v332q189 -131 389 -131q120 0 192.5 60.5t72.5 170.5v82q-111 -111 -269 -111q-227 0 -372.5 155t-145.5 390q0 237 145 392t373 155
q159 0 269 -113v91h362v-1031zM836 518q0 95 -60 157t-151 62t-149 -62t-58 -157q0 -91 59 -150t148 -59q91 0 151 58.5t60 150.5z" />
    <glyph glyph-name="Gbreve" unicode="&#x11e;" horiz-adv-x="1560" 
d="M852 1855q43 0 74 26t35 67h260q-6 -141 -109.5 -230.5t-261.5 -89.5q-156 0 -258.5 90t-108.5 230h260q5 -41 35 -67t74 -26zM1462 150q-295 -173 -606 -173q-173 0 -320.5 58.5t-251.5 162t-162.5 250.5t-58.5 318q0 139 40 263t113.5 220t174.5 166t227.5 107
t266.5 37q270 0 485 -123v-398q-189 174 -465 174q-195 0 -320.5 -121.5t-125.5 -316.5q0 -193 122 -315.5t312 -122.5q116 0 203 37v229h-273v277h639v-729z" />
    <glyph glyph-name="gbreve" unicode="&#x11f;" 
d="M684 1384q43 0 74 26t35 67h260q-6 -141 -109.5 -230.5t-261.5 -89.5q-156 0 -258.5 90t-108.5 230h260q5 -41 35 -67t74 -26zM1198 16q0 -255 -162.5 -403t-429.5 -148q-228 0 -424 109v332q189 -131 389 -131q120 0 192.5 60.5t72.5 170.5v82q-111 -111 -269 -111
q-227 0 -372.5 155t-145.5 390q0 237 145 392t373 155q159 0 269 -113v91h362v-1031zM836 518q0 95 -60 157t-151 62t-149 -62t-58 -157q0 -91 59 -150t148 -59q91 0 151 58.5t60 150.5z" />
    <glyph glyph-name="Gdotaccent" unicode="&#x120;" horiz-adv-x="1560" 
d="M858 1645q-88 0 -147.5 52t-59.5 136q0 86 59 138t148 52q88 0 145.5 -52.5t57.5 -137.5q0 -84 -57.5 -136t-145.5 -52zM1462 150q-295 -173 -606 -173q-173 0 -320.5 58.5t-251.5 162t-162.5 250.5t-58.5 318q0 139 40 263t113.5 220t174.5 166t227.5 107t266.5 37
q270 0 485 -123v-398q-189 174 -465 174q-195 0 -320.5 -121.5t-125.5 -316.5q0 -193 122 -315.5t312 -122.5q116 0 203 37v229h-273v277h639v-729z" />
    <glyph glyph-name="gdotaccent" unicode="&#x121;" 
d="M709 1174q-88 0 -147.5 52t-59.5 136q0 86 59 138t148 52q88 0 145 -52.5t57 -137.5q0 -84 -57.5 -136t-144.5 -52zM1198 16q0 -255 -162.5 -403t-429.5 -148q-228 0 -424 109v332q189 -131 389 -131q120 0 192.5 60.5t72.5 170.5v82q-111 -111 -269 -111
q-227 0 -372.5 155t-145.5 390q0 237 145 392t373 155q159 0 269 -113v91h362v-1031zM836 518q0 95 -60 157t-151 62t-149 -62t-58 -157q0 -91 59 -150t148 -59q91 0 151 58.5t60 150.5z" />
    <glyph glyph-name="Gcommaaccent" unicode="&#x122;" horiz-adv-x="1560" 
d="M1462 150q-295 -173 -606 -173q-173 0 -320.5 58.5t-251.5 162t-162.5 250.5t-58.5 318q0 139 40 263t113.5 220t174.5 166t227.5 107t266.5 37q270 0 485 -123v-398q-189 174 -465 174q-195 0 -320.5 -121.5t-125.5 -316.5q0 -193 122 -315.5t312 -122.5q116 0 203 37
v229h-273v277h639v-729zM676 -111h332l-232 -374h-213z" />
    <glyph glyph-name="gcommaaccent" unicode="&#x123;" 
d="M739 1540h213l-110 -377h-334zM1198 16q0 -255 -162.5 -403t-429.5 -148q-228 0 -424 109v332q189 -131 389 -131q120 0 192.5 60.5t72.5 170.5v82q-111 -111 -269 -111q-227 0 -372.5 155t-145.5 390q0 237 145 392t373 155q159 0 269 -113v91h362v-1031zM836 518
q0 95 -60 157t-151 62t-149 -62t-58 -157q0 -91 59 -150t148 -59q91 0 151 58.5t60 150.5z" />
    <glyph glyph-name="Hcircumflex" unicode="&#x124;" horiz-adv-x="1619" 
d="M940 1649l-129 114l-129 -114h-299l242 286h374l242 -286h-301zM1106 0v621h-592v-621h-379v1536h379v-580h592v580h379v-1536h-379z" />
    <glyph glyph-name="hcircumflex" unicode="&#x125;" horiz-adv-x="1253" 
d="M752 1649l-129 114l-129 -114h-299l241 286h375l242 -286h-301zM479 526v-526h-362v1536h362v-590q120 123 291 123q174 0 279.5 -118.5t105.5 -299.5v-651h-362v543q0 86 -35.5 133t-104.5 47q-80 0 -127 -55.5t-47 -141.5z" />
    <glyph glyph-name="Hbar" unicode="&#x126;" horiz-adv-x="1619" 
d="M1106 0v621h-592v-621h-379v1139h-131v219h131v178h379v-178h592v178h379v-178h131v-219h-131v-1139h-379zM514 956h592v183h-592v-183z" />
    <glyph glyph-name="hbar" unicode="&#x127;" horiz-adv-x="1271" 
d="M498 526v-526h-363v1178h-160v219h160v139h363v-139h209v-219h-209v-230q118 121 290 121q174 0 280 -118.5t106 -299.5v-651h-363v543q0 180 -141 180q-78 0 -125 -56t-47 -141z" />
    <glyph glyph-name="Itilde" unicode="&#x128;" horiz-adv-x="649" 
d="M449 1640q-53 0 -147 27t-116 27q-30 0 -49.5 -16.5t-19.5 -45.5h-174q0 146 66 229t184 83q52 0 151.5 -27t114.5 -27q30 0 49.5 16.5t19.5 43.5h174q5 -142 -63.5 -226t-189.5 -84zM135 0v1536h379v-1536h-379z" />
    <glyph glyph-name="itilde" unicode="&#x129;" horiz-adv-x="595" 
d="M430 1180q-53 0 -146.5 26.5t-115.5 26.5q-30 0 -50 -17t-20 -45h-174q0 146 66 229t184 83q52 0 151.5 -26.5t114.5 -26.5q30 0 50 16t20 43h174q5 -141 -64 -225t-190 -84zM117 0v1047h362v-1047h-362z" />
    <glyph glyph-name="Imacron" unicode="&#x12a;" horiz-adv-x="649" 
d="M-27 1921h703v-256h-703v256zM135 0v1536h379v-1536h-379z" />
    <glyph glyph-name="imacron" unicode="&#x12b;" horiz-adv-x="595" 
d="M-51 1450h702v-256h-702v256zM117 0v1047h362v-1047h-362z" />
    <glyph glyph-name="Ibreve" unicode="&#x12c;" horiz-adv-x="649" 
d="M326 1855q43 0 73.5 26t34.5 67h260q-6 -141 -109 -230.5t-261 -89.5q-156 0 -258.5 90t-108.5 230h260q5 -41 35 -67t74 -26zM135 0v1536h379v-1536h-379z" />
    <glyph glyph-name="ibreve" unicode="&#x12d;" horiz-adv-x="595" 
d="M301 1384q43 0 74 26t35 67h260q-6 -141 -109.5 -230.5t-261.5 -89.5q-156 0 -258.5 90t-108.5 230h261q5 -41 34.5 -67t73.5 -26zM117 0v1047h362v-1047h-362z" />
    <glyph glyph-name="Iogonek" unicode="&#x12e;" horiz-adv-x="649" 
d="M422 -496q-84 -32 -148 -32q-106 0 -183.5 55.5t-94.5 153.5q-28 188 139 321v1534h379v-1536h-92q-85 -39 -132.5 -101.5t-29.5 -140.5q7 -33 34 -52t62 -19q36 0 66 12v-195z" />
    <glyph glyph-name="iogonek" unicode="&#x12f;" horiz-adv-x="595" 
d="M299 1174q-89 0 -148 51.5t-59 136.5q0 86 58.5 138t148.5 52q87 0 145 -52.5t58 -137.5q0 -83 -58.5 -135.5t-144.5 -52.5zM399 -496q-84 -32 -147 -32q-106 0 -184 55.5t-95 153.5q-28 190 142 323v1043h364v-1047h-80q-84 -39 -131.5 -101.5t-29.5 -140.5
q7 -33 34 -52t62 -19t65 12v-195z" />
    <glyph glyph-name="Idotaccent" unicode="&#x130;" horiz-adv-x="649" 
d="M326 1645q-88 0 -147.5 52t-59.5 136q0 86 59 138t148 52q88 0 145 -52.5t57 -137.5q0 -84 -57.5 -136t-144.5 -52zM135 0v1536h379v-1536h-379z" />
    <glyph glyph-name="dotlessi" unicode="&#x131;" horiz-adv-x="595" 
d="M117 0v1047h362v-1047h-362z" />
    <glyph glyph-name="IJ" unicode="&#x132;" horiz-adv-x="1615" 
d="M135 0v1536h379v-1536h-379zM963 -23q-73 0 -150 21t-133 55v340q63 -39 131 -58.5t119 -19.5q186 0 186 185v1036h379v-1032q0 -261 -137.5 -394t-394.5 -133z" />
    <glyph glyph-name="ij" unicode="&#x133;" horiz-adv-x="1230" 
d="M299 1174q-89 0 -148 51.5t-59 136.5q0 86 58.5 138t148.5 52q87 0 145 -52.5t58 -137.5q0 -83 -58.5 -135.5t-144.5 -52.5zM932 1174q-88 0 -147.5 52t-59.5 136q0 86 59 138t148 52q87 0 145 -52.5t58 -137.5q0 -83 -58.5 -135.5t-144.5 -52.5zM115 0v1047h364v-1047
h-364zM678 -535q-122 0 -225 50v288q77 -34 141 -34q68 0 112 38t44 107v1133h362v-1147q0 -199 -121.5 -317t-312.5 -118z" />
    <glyph glyph-name="Jcircumflex" unicode="&#x134;" horiz-adv-x="972" 
d="M784 1649l-129 114l-129 -114h-299l242 286h375l241 -286h-301zM322 -23q-73 0 -150 21t-133 55v340q63 -39 131 -58.5t119 -19.5q186 0 186 185v1036h379v-1032q0 -261 -137.5 -394t-394.5 -133z" />
    <glyph glyph-name="jcircumflex" unicode="&#x135;" horiz-adv-x="595" 
d="M430 1178l-129 114l-129 -114h-299l242 286h374l242 -286h-301zM68 -535q-143 0 -248 50v290q71 -36 164 -36q61 0 97 36.5t36 96.5v1145h362v-1164q0 -187 -113 -302.5t-298 -115.5z" />
    <glyph glyph-name="Kcommaaccent" unicode="&#x136;" horiz-adv-x="1523" 
d="M1067 0l-387 600l-166 -192v-408h-379v1536h379v-627l520 627h457l-555 -641l590 -895h-459zM598 -111h332l-232 -374h-213z" />
    <glyph glyph-name="kcommaaccent" unicode="&#x137;" horiz-adv-x="1257" 
d="M829 0l-247 379l-103 -109v-270h-362v1536h362v-838l318 349h417l-393 -414l436 -633h-428zM483 -111h332l-231 -374h-213z" />
    <glyph glyph-name="Lacute" unicode="&#x139;" horiz-adv-x="1185" 
d="M319 1935h437l-324 -286h-307zM1143 338v-338h-1008v1536h379v-1198h629z" />
    <glyph glyph-name="lacute" unicode="&#x13a;" horiz-adv-x="595" 
d="M295 1937h436l-323 -286h-308zM117 0v1536h362v-1536h-362z" />
    <glyph glyph-name="Lcommaaccent" unicode="&#x13b;" horiz-adv-x="1185" 
d="M1143 338v-338h-1008v1536h379v-1198h629zM469 -111h332l-232 -374h-213z" />
    <glyph glyph-name="lcommaaccent" unicode="&#x13c;" horiz-adv-x="595" 
d="M117 0v1536h362v-1536h-362zM129 -111h332l-232 -374h-213z" />
    <glyph glyph-name="Lcaron" unicode="&#x13d;" horiz-adv-x="1185" 
d="M1143 338v-338h-1008v1536h379v-1198h629zM858 1122h-217l61 414h320z" />
    <glyph glyph-name="lcaron" unicode="&#x13e;" horiz-adv-x="901" 
d="M117 0v1536h362v-1536h-362zM780 1122h-217l62 414h319z" />
    <glyph glyph-name="Ldot" unicode="&#x13f;" horiz-adv-x="1185" 
d="M1143 338v-338h-1008v1536h379v-1198h629zM903 709q-88 0 -146.5 52.5t-58.5 137.5q0 86 58.5 139.5t146.5 53.5q85 0 143 -53.5t58 -139.5q0 -85 -58 -137.5t-143 -52.5z" />
    <glyph glyph-name="ldot" unicode="&#x140;" horiz-adv-x="954" 
d="M117 0v1536h362v-1536h-362zM772 598q-88 0 -146.5 52.5t-58.5 137.5q0 86 58.5 139.5t146.5 53.5q85 0 143 -53.5t58 -139.5q0 -85 -58 -137.5t-143 -52.5z" />
    <glyph glyph-name="Lslash" unicode="&#x141;" horiz-adv-x="1255" 
d="M1212 338v-338h-1007v483l-203 -137v318l203 133v739h379v-487l221 145v-305l-221 -150v-401h628z" />
    <glyph glyph-name="lslash" unicode="&#x142;" horiz-adv-x="780" 
d="M772 793l-199 -136v-657h-362v414l-191 -129v313l191 127v811h362v-571l199 131v-303z" />
    <glyph glyph-name="Nacute" unicode="&#x143;" horiz-adv-x="1615" 
d="M752 1935h436l-324 -286h-307zM1481 -45l-967 833v-788h-379v1581l967 -836v791h379v-1581z" />
    <glyph glyph-name="nacute" unicode="&#x144;" horiz-adv-x="1253" 
d="M608 1464h436l-323 -286h-307zM479 526v-526h-362v1047h362v-101q120 123 291 123q174 0 279.5 -118.5t105.5 -299.5v-651h-362v543q0 86 -35.5 133t-104.5 47q-80 0 -127 -55.5t-47 -141.5z" />
    <glyph glyph-name="Ncommaaccent" unicode="&#x145;" horiz-adv-x="1615" 
d="M1481 -45l-967 833v-788h-379v1581l967 -836v791h379v-1581zM735 -111h332l-231 -374h-213z" />
    <glyph glyph-name="ncommaaccent" unicode="&#x146;" horiz-adv-x="1253" 
d="M479 526v-526h-362v1047h362v-101q120 123 291 123q174 0 279.5 -118.5t105.5 -299.5v-651h-362v543q0 86 -35.5 133t-104.5 47q-80 0 -127 -55.5t-47 -141.5zM481 -111h332l-231 -374h-213z" />
    <glyph glyph-name="Ncaron" unicode="&#x147;" horiz-adv-x="1615" 
d="M1268 1935l-254 -286h-375l-254 286h311l129 -114l129 114h314zM1481 -45l-967 833v-788h-379v1581l967 -836v791h379v-1581z" />
    <glyph glyph-name="ncaron" unicode="&#x148;" horiz-adv-x="1253" 
d="M1087 1464l-253 -286h-375l-254 286h311l129 -114l129 114h313zM479 526v-526h-362v1047h362v-101q120 123 291 123q174 0 279.5 -118.5t105.5 -299.5v-651h-362v543q0 86 -35.5 133t-104.5 47q-80 0 -127 -55.5t-47 -141.5z" />
    <glyph glyph-name="Omacron" unicode="&#x14c;" horiz-adv-x="1734" 
d="M514 1921h703v-256h-703v256zM1669 772q0 -173 -60 -321t-165.5 -252t-254.5 -163t-323 -59t-323 59t-254.5 163t-165.5 252t-60 321q0 229 103 409t286 279t414 99t414 -99.5t286 -279.5t103 -408zM866 336q185 0 299.5 123.5t114.5 312.5q0 185 -115 305.5t-299 120.5
t-298.5 -120.5t-114.5 -305.5q0 -189 114 -312.5t299 -123.5z" />
    <glyph glyph-name="omacron" unicode="&#x14d;" horiz-adv-x="1253" 
d="M270 1450h703v-256h-703v256zM633 -23q-165 0 -298 68t-209.5 194.5t-76.5 288.5q0 160 77 284t209.5 190.5t297.5 66.5q161 0 291 -67t205 -191t75 -283q0 -244 -161.5 -397.5t-409.5 -153.5zM836 526q0 92 -58 151.5t-149 59.5q-92 0 -151.5 -59.5t-59.5 -151.5
q0 -95 59.5 -156t151.5 -61q91 0 149 61t58 156z" />
    <glyph glyph-name="Obreve" unicode="&#x14e;" horiz-adv-x="1734" 
d="M864 1855q43 0 74 26t35 67h260q-6 -141 -109.5 -230.5t-261.5 -89.5q-156 0 -258 90t-108 230h260q5 -41 34.5 -67t73.5 -26zM1669 772q0 -173 -60 -321t-165.5 -252t-254.5 -163t-323 -59t-323 59t-254.5 163t-165.5 252t-60 321q0 229 103 409t286 279t414 99
t414 -99.5t286 -279.5t103 -408zM866 336q185 0 299.5 123.5t114.5 312.5q0 185 -115 305.5t-299 120.5t-298.5 -120.5t-114.5 -305.5q0 -189 114 -312.5t299 -123.5z" />
    <glyph glyph-name="obreve" unicode="&#x14f;" horiz-adv-x="1253" 
d="M627 1384q43 0 73.5 26t34.5 67h260q-6 -141 -109 -230.5t-261 -89.5q-156 0 -258.5 90t-108.5 230h260q5 -41 35 -67t74 -26zM633 -23q-165 0 -298 68t-209.5 194.5t-76.5 288.5q0 160 77 284t209.5 190.5t297.5 66.5q161 0 291 -67t205 -191t75 -283
q0 -244 -161.5 -397.5t-409.5 -153.5zM836 526q0 92 -58 151.5t-149 59.5q-92 0 -151.5 -59.5t-59.5 -151.5q0 -95 59.5 -156t151.5 -61q91 0 149 61t58 156z" />
    <glyph glyph-name="Ohungarumlaut" unicode="&#x150;" horiz-adv-x="1734" 
d="M756 1649h-242l160 286h344zM1153 1649h-244l164 286h350zM1669 772q0 -173 -60 -321t-165.5 -252t-254.5 -163t-323 -59t-323 59t-254.5 163t-165.5 252t-60 321q0 229 103 409t286 279t414 99t414 -99.5t286 -279.5t103 -408zM866 336q185 0 299.5 123.5t114.5 312.5
q0 185 -115 305.5t-299 120.5t-298.5 -120.5t-114.5 -305.5q0 -189 114 -312.5t299 -123.5z" />
    <glyph glyph-name="ohungarumlaut" unicode="&#x151;" horiz-adv-x="1253" 
d="M528 1178h-241l159 286h345zM926 1178h-244l164 286h350zM633 -23q-165 0 -298 68t-209.5 194.5t-76.5 288.5q0 160 77 284t209.5 190.5t297.5 66.5q161 0 291 -67t205 -191t75 -283q0 -244 -161.5 -397.5t-409.5 -153.5zM836 526q0 92 -58 151.5t-149 59.5
q-92 0 -151.5 -59.5t-59.5 -151.5q0 -95 59.5 -156t151.5 -61q91 0 149 61t58 156z" />
    <glyph glyph-name="OE" unicode="&#x152;" horiz-adv-x="2099" 
d="M63 766q0 224 97 399.5t273.5 273t404.5 97.5h1167v-336h-639v-250h559v-334h-559v-284h662v-332h-1184q-228 0 -406 96.5t-276.5 271t-98.5 398.5zM866 344h121v846h-121q-188 0 -300.5 -118.5t-112.5 -305.5q0 -188 112 -305t301 -117z" />
    <glyph glyph-name="oe" unicode="&#x153;" horiz-adv-x="1961" 
d="M1825 70q-168 -93 -389 -93q-261 0 -408 144q-160 -144 -395 -144q-165 0 -298 68t-209.5 194.5t-76.5 288.5q0 160 77 284t209.5 190.5t297.5 66.5q243 0 401 -145q148 145 377 145q224 0 364 -144t140 -374q0 -65 -6 -135h-674q29 -74 95.5 -113t158.5 -39
q176 0 336 86v-280zM1386 807q-75 0 -119 -47.5t-57 -126.5h344q-9 81 -52 127.5t-116 46.5zM629 309q93 0 149 61t56 156q0 94 -56 152.5t-149 58.5q-94 0 -152.5 -58.5t-58.5 -152.5q0 -96 58 -156.5t153 -60.5z" />
    <glyph glyph-name="Racute" unicode="&#x154;" horiz-adv-x="1388" 
d="M641 1935h436l-323 -286h-308zM135 0v1536h590q252 0 409.5 -146t157.5 -386q0 -158 -75.5 -279.5t-204.5 -187.5l354 -537h-448l-293 471h-111v-471h-379zM684 1214h-170v-421h170q103 0 162 57.5t59 153.5q0 95 -59.5 152.5t-161.5 57.5z" />
    <glyph glyph-name="racute" unicode="&#x155;" horiz-adv-x="847" 
d="M438 1464h436l-323 -286h-307zM479 420v-420h-362v1047h362v-177q134 199 355 199v-391q-65 18 -128.5 5.5t-114 -43.5t-81.5 -89t-31 -131z" />
    <glyph glyph-name="Rcommaaccent" unicode="&#x156;" horiz-adv-x="1388" 
d="M135 0v1536h590q252 0 409.5 -146t157.5 -386q0 -158 -75.5 -279.5t-204.5 -187.5l354 -537h-448l-293 471h-111v-471h-379zM684 1214h-170v-421h170q103 0 162 57.5t59 153.5q0 95 -59.5 152.5t-161.5 57.5zM567 -111h332l-231 -374h-213z" />
    <glyph glyph-name="rcommaaccent" unicode="&#x157;" horiz-adv-x="847" 
d="M479 420v-420h-362v1047h362v-177q134 199 355 199v-391q-65 18 -128.5 5.5t-114 -43.5t-81.5 -89t-31 -131zM145 -111h332l-231 -374h-213z" />
    <glyph glyph-name="Rcaron" unicode="&#x158;" horiz-adv-x="1388" 
d="M1124 1935l-254 -286h-374l-254 286h311l129 -114l129 114h313zM135 0v1536h590q252 0 409.5 -146t157.5 -386q0 -158 -75.5 -279.5t-204.5 -187.5l354 -537h-448l-293 471h-111v-471h-379zM684 1214h-170v-421h170q103 0 162 57.5t59 153.5q0 95 -59.5 152.5
t-161.5 57.5z" />
    <glyph glyph-name="rcaron" unicode="&#x159;" horiz-adv-x="847" 
d="M928 1464l-254 -286h-375l-254 286h311l129 -114l129 114h314zM479 420v-420h-362v1047h362v-177q134 199 355 199v-391q-65 18 -128.5 5.5t-114 -43.5t-81.5 -89t-31 -131z" />
    <glyph glyph-name="Sacute" unicode="&#x15a;" horiz-adv-x="1247" 
d="M653 1935h437l-324 -286h-307zM659 1245q-72 0 -116.5 -30.5t-44.5 -88.5q0 -35 22.5 -61t67.5 -51l321 -154q156 -75 224.5 -166.5t68.5 -226.5q0 -215 -164.5 -352.5t-423.5 -137.5q-295 0 -520 146v409q146 -119 285 -179t248 -60q73 0 117 28t44 82q0 41 -20.5 66.5
t-77.5 54.5l-309 146q-145 68 -217 167t-72 246q0 216 156 346t405 130q265 0 463 -115v-391q-128 95 -247 143.5t-210 48.5z" />
    <glyph glyph-name="sacute" unicode="&#x15b;" horiz-adv-x="946" 
d="M481 1464h437l-324 -286h-307zM68 395q85 -80 185 -124t191 -44q48 0 75.5 17t27.5 47q0 41 -55 61l-166 70q-63 26 -106 51.5t-80 62t-55.5 86.5t-18.5 115q0 156 115.5 244t310.5 88t348 -84v-303q-77 68 -166 108.5t-158 40.5q-46 0 -72 -17t-26 -46q0 -24 13.5 -38
t49.5 -28l181 -77q128 -56 184.5 -120.5t56.5 -166.5q0 -88 -36.5 -157.5t-100.5 -113.5t-147.5 -67t-180.5 -23q-99 0 -196.5 26.5t-173.5 72.5v319z" />
    <glyph glyph-name="Scircumflex" unicode="&#x15c;" horiz-adv-x="1247" 
d="M807 1649l-129 114l-129 -114h-299l242 286h374l242 -286h-301zM659 1245q-72 0 -116.5 -30.5t-44.5 -88.5q0 -35 22.5 -61t67.5 -51l321 -154q156 -75 224.5 -166.5t68.5 -226.5q0 -215 -164.5 -352.5t-423.5 -137.5q-295 0 -520 146v409q146 -119 285 -179t248 -60
q73 0 117 28t44 82q0 41 -20.5 66.5t-77.5 54.5l-309 146q-145 68 -217 167t-72 246q0 216 156 346t405 130q265 0 463 -115v-391q-128 95 -247 143.5t-210 48.5z" />
    <glyph glyph-name="scircumflex" unicode="&#x15d;" horiz-adv-x="946" 
d="M627 1178l-129 114l-129 -114h-299l241 286h375l242 -286h-301zM68 395q85 -80 185 -124t191 -44q48 0 75.5 17t27.5 47q0 41 -55 61l-166 70q-63 26 -106 51.5t-80 62t-55.5 86.5t-18.5 115q0 156 115.5 244t310.5 88t348 -84v-303q-77 68 -166 108.5t-158 40.5
q-46 0 -72 -17t-26 -46q0 -24 13.5 -38t49.5 -28l181 -77q128 -56 184.5 -120.5t56.5 -166.5q0 -88 -36.5 -157.5t-100.5 -113.5t-147.5 -67t-180.5 -23q-99 0 -196.5 26.5t-173.5 72.5v319z" />
    <glyph glyph-name="Scedilla" unicode="&#x15e;" horiz-adv-x="1247" 
d="M887 -313q0 -72 -45 -121.5t-112.5 -70.5t-151.5 -21q-94 0 -175 34v158q80 -39 150 -39q38 0 63 16t25 48q0 30 -24 47.5t-58 17.5q-38 0 -84 -16l-39 43l90 199q-245 19 -432 141v409q146 -119 285 -179t248 -60q73 0 117 28t44 82q0 41 -20.5 66.5t-77.5 54.5
l-309 146q-145 68 -217 167t-72 246q0 216 156 346t405 130q265 0 463 -115v-391q-128 95 -247 143.5t-210 48.5q-72 0 -116.5 -30.5t-44.5 -88.5q0 -35 22.5 -61t67.5 -51l321 -154q156 -75 224.5 -166.5t68.5 -226.5q0 -191 -132 -323t-349 -160l-53 -101q97 -10 158 -60
t61 -136z" />
    <glyph glyph-name="scedilla" unicode="&#x15f;" horiz-adv-x="946" 
d="M735 -313q0 -72 -45 -121.5t-112.5 -70.5t-151.5 -21q-93 0 -174 34v158q80 -39 149 -39q38 0 63 16t25 48q0 30 -23.5 47.5t-57.5 17.5q-38 0 -84 -16l-39 43l88 197q-172 16 -305 96v319q85 -80 185 -124t191 -44q48 0 75.5 17t27.5 47q0 41 -55 61l-166 70
q-63 26 -106 51.5t-80 62t-55.5 86.5t-18.5 115q0 156 115.5 244t310.5 88t348 -84v-303q-77 68 -166 108.5t-158 40.5q-46 0 -72 -17t-26 -46q0 -24 13.5 -38t49.5 -28l181 -77q128 -56 184.5 -120.5t56.5 -166.5q0 -142 -91 -231t-241 -117l-55 -107q97 -10 158 -60
t61 -136z" />
    <glyph glyph-name="Scaron" unicode="&#x160;" horiz-adv-x="1247" 
d="M1102 1935l-254 -286h-375l-254 286h311l129 -114l129 114h314zM659 1245q-72 0 -116.5 -30.5t-44.5 -88.5q0 -35 22.5 -61t67.5 -51l321 -154q156 -75 224.5 -166.5t68.5 -226.5q0 -215 -164.5 -352.5t-423.5 -137.5q-295 0 -520 146v409q146 -119 285 -179t248 -60
q73 0 117 28t44 82q0 41 -20.5 66.5t-77.5 54.5l-309 146q-145 68 -217 167t-72 246q0 216 156 346t405 130q265 0 463 -115v-391q-128 95 -247 143.5t-210 48.5z" />
    <glyph glyph-name="scaron" unicode="&#x161;" horiz-adv-x="946" 
d="M952 1464l-254 -286h-374l-254 286h311l129 -114l129 114h313zM68 395q85 -80 185 -124t191 -44q48 0 75.5 17t27.5 47q0 41 -55 61l-166 70q-63 26 -106 51.5t-80 62t-55.5 86.5t-18.5 115q0 156 115.5 244t310.5 88t348 -84v-303q-77 68 -166 108.5t-158 40.5
q-46 0 -72 -17t-26 -46q0 -24 13.5 -38t49.5 -28l181 -77q128 -56 184.5 -120.5t56.5 -166.5q0 -88 -36.5 -157.5t-100.5 -113.5t-147.5 -67t-180.5 -23q-99 0 -196.5 26.5t-173.5 72.5v319z" />
    <glyph glyph-name="uni0162" unicode="&#x162;" horiz-adv-x="1341" 
d="M1311 1196h-451v-1196h-379v1196h-450v340h1280v-340zM506 -111h332l-232 -374h-213z" />
    <glyph glyph-name="uni0163" unicode="&#x163;" horiz-adv-x="851" 
d="M811 53q-110 -76 -289 -76q-204 0 -315 108.5t-111 324.5v921h363v-284h348v-293h-348v-303q0 -74 43 -113t116 -39q113 0 193 47v-293zM324 -111h331l-231 -374h-213z" />
    <glyph glyph-name="Tcaron" unicode="&#x164;" horiz-adv-x="1341" 
d="M1122 1935l-254 -286h-374l-254 286h311l129 -114l129 114h313zM1311 1196h-451v-1196h-379v1196h-450v340h1280v-340z" />
    <glyph glyph-name="tcaron" unicode="&#x165;" horiz-adv-x="851" 
d="M770 1163h-217l61 414h320zM811 53q-110 -76 -289 -76q-204 0 -315 108.5t-111 324.5v921h363v-284h348v-293h-348v-303q0 -74 43 -113t116 -39q113 0 193 47v-293z" />
    <glyph glyph-name="Tbar" unicode="&#x166;" horiz-adv-x="1341" 
d="M1114 494h-254v-494h-379v494h-256v268h256v434h-450v340h1280v-340h-451v-434h254v-268z" />
    <glyph glyph-name="tbar" unicode="&#x167;" horiz-adv-x="868" 
d="M825 53q-110 -76 -288 -76q-204 0 -315 108.5t-111 324.5v921h362v-284h348v-293h-348v-125h346v-172h-346v-6q0 -74 43.5 -113t116.5 -39q112 0 192 47v-293z" />
    <glyph glyph-name="Utilde" unicode="&#x168;" horiz-adv-x="1546" 
d="M926 1638q-53 0 -146.5 27t-115.5 27q-30 0 -50 -17t-20 -45h-174q0 146 66 229t184 83q52 0 151.5 -27t114.5 -27q30 0 50 16.5t20 43.5h174q5 -141 -64 -225.5t-190 -84.5zM125 614v922h379v-911q0 -140 71.5 -217.5t196.5 -77.5q124 0 197 78t73 217v911h379v-922
q0 -290 -179 -463.5t-470 -173.5q-292 0 -469.5 173.5t-177.5 463.5z" />
    <glyph glyph-name="utilde" unicode="&#x169;" horiz-adv-x="1212" 
d="M741 1169q-53 0 -146.5 27t-115.5 27q-30 0 -49.5 -16.5t-19.5 -45.5h-174q0 146 65.5 229t183.5 83q52 0 152 -27t115 -27q30 0 49.5 16.5t19.5 43.5h174q5 -141 -64 -225.5t-190 -84.5zM758 467v580h362v-594q0 -217 -145 -346.5t-369 -129.5q-226 0 -370 129.5
t-144 346.5v594h363v-580q0 -74 41 -116t110 -42q68 0 110 42.5t42 115.5z" />
    <glyph glyph-name="Umacron" unicode="&#x16a;" horiz-adv-x="1546" 
d="M422 1921h702v-256h-702v256zM125 614v922h379v-911q0 -140 71.5 -217.5t196.5 -77.5q124 0 197 78t73 217v911h379v-922q0 -290 -179 -463.5t-470 -173.5q-292 0 -469.5 173.5t-177.5 463.5z" />
    <glyph glyph-name="umacron" unicode="&#x16b;" horiz-adv-x="1212" 
d="M248 1450h702v-256h-702v256zM758 467v580h362v-594q0 -217 -145 -346.5t-369 -129.5q-226 0 -370 129.5t-144 346.5v594h363v-580q0 -74 41 -116t110 -42q68 0 110 42.5t42 115.5z" />
    <glyph glyph-name="Ubreve" unicode="&#x16c;" horiz-adv-x="1546" 
d="M772 1855q43 0 74 26t35 67h260q-6 -141 -109.5 -230.5t-261.5 -89.5q-156 0 -258.5 90t-108.5 230h261q5 -41 34.5 -67t73.5 -26zM125 614v922h379v-911q0 -140 71.5 -217.5t196.5 -77.5q124 0 197 78t73 217v911h379v-922q0 -290 -179 -463.5t-470 -173.5
q-292 0 -469.5 173.5t-177.5 463.5z" />
    <glyph glyph-name="ubreve" unicode="&#x16d;" horiz-adv-x="1212" 
d="M594 1384q43 0 73.5 26t34.5 67h261q-6 -141 -109.5 -230.5t-261.5 -89.5q-156 0 -258.5 90t-108.5 230h260q5 -41 35 -67t74 -26zM758 467v580h362v-594q0 -217 -145 -346.5t-369 -129.5q-226 0 -370 129.5t-144 346.5v594h363v-580q0 -74 41 -116t110 -42
q68 0 110 42.5t42 115.5z" />
    <glyph glyph-name="Uring" unicode="&#x16e;" horiz-adv-x="1546" 
d="M774 2025q109 0 179.5 -63.5t70.5 -169.5t-71 -173t-179 -67t-179 65.5t-71 170.5q0 106 70.5 171.5t179.5 65.5zM692 1788q0 -35 22.5 -57.5t59.5 -22.5t58.5 22.5t21.5 59.5q0 35 -22.5 57.5t-57.5 22.5q-37 0 -59.5 -22.5t-22.5 -59.5zM125 614v922h379v-911
q0 -140 71.5 -217.5t196.5 -77.5q124 0 197 78t73 217v911h379v-922q0 -290 -179 -463.5t-470 -173.5q-292 0 -469.5 173.5t-177.5 463.5z" />
    <glyph glyph-name="uring" unicode="&#x16f;" horiz-adv-x="1212" 
d="M596 1612q109 0 179.5 -64t70.5 -170t-71 -172.5t-179 -66.5t-179 65t-71 170q0 106 70.5 172t179.5 66zM514 1374q0 -35 22.5 -57.5t59.5 -22.5t58.5 22.5t21.5 59.5q0 35 -22.5 57.5t-57.5 22.5q-37 0 -59.5 -22.5t-22.5 -59.5zM758 467v580h362v-594
q0 -217 -145 -346.5t-369 -129.5q-226 0 -370 129.5t-144 346.5v594h363v-580q0 -74 41 -116t110 -42q68 0 110 42.5t42 115.5z" />
    <glyph glyph-name="Uhungarumlaut" unicode="&#x170;" horiz-adv-x="1546" 
d="M674 1649h-242l160 286h344zM1071 1649h-244l164 286h350zM125 614v922h379v-911q0 -140 71.5 -217.5t196.5 -77.5q124 0 197 78t73 217v911h379v-922q0 -290 -179 -463.5t-470 -173.5q-292 0 -469.5 173.5t-177.5 463.5z" />
    <glyph glyph-name="uhungarumlaut" unicode="&#x171;" horiz-adv-x="1212" 
d="M498 1178h-242l160 286h344zM895 1178h-244l164 286h350zM758 467v580h362v-594q0 -217 -145 -346.5t-369 -129.5q-226 0 -370 129.5t-144 346.5v594h363v-580q0 -74 41 -116t110 -42q68 0 110 42.5t42 115.5z" />
    <glyph glyph-name="Uogonek" unicode="&#x172;" horiz-adv-x="1546" 
d="M1102 -494q-84 -32 -148 -32q-113 0 -191.5 61t-88.5 170q-17 156 112 275h-14q-292 0 -469.5 173t-177.5 463v920h379v-909q0 -140 71.5 -217.5t196.5 -77.5q124 0 197 78t73 217v909h379v-920q0 -192 -82 -336.5t-229 -222.5q-99 -60 -141.5 -126.5t-30.5 -151.5
q5 -38 31.5 -64t66.5 -26q36 0 66 12v-195z" />
    <glyph glyph-name="uogonek" unicode="&#x173;" horiz-adv-x="1212" 
d="M901 -494q-84 -32 -147 -32q-106 0 -184 56t-95 153q-25 173 115 294q-219 5 -358.5 134t-139.5 342v594h363v-580q0 -74 41 -116t110 -42q68 0 110 42.5t42 115.5v580h362v-594q0 -131 -55 -233t-154 -163q-209 -131 -172 -295q6 -33 33.5 -53t63.5 -20q35 0 65 12v-195
z" />
    <glyph glyph-name="Wcircumflex" unicode="&#x174;" horiz-adv-x="2312" 
d="M1292 1649l-129 114l-129 -114h-299l242 286h375l241 -286h-301zM2304 1536l-741 -1581l-404 819l-414 -819l-739 1581h436l324 -743l397 788l396 -778l325 733h420z" />
    <glyph glyph-name="wcircumflex" unicode="&#x175;" horiz-adv-x="1689" 
d="M987 1178l-129 114l-129 -114h-299l242 286h375l241 -286h-301zM1690 1047l-535 -1088l-295 512l-311 -512l-549 1088h414l192 -390l254 424l248 -426l192 392h390z" />
    <glyph glyph-name="Ycircumflex" unicode="&#x176;" horiz-adv-x="1556" 
d="M907 1649l-129 114l-129 -114h-299l242 286h375l241 -286h-301zM1552 1536l-567 -991v-545h-379v522l-602 1014h436l351 -627l342 627h419z" />
    <glyph glyph-name="ycircumflex" unicode="&#x177;" horiz-adv-x="1208" 
d="M752 1178l-129 114l-129 -114h-299l241 286h375l242 -286h-301zM1208 1047l-766 -1559h-372l356 731l-426 828h418l203 -429l208 429h379z" />
    <glyph glyph-name="Ydieresis" unicode="&#x178;" horiz-adv-x="1556" 
d="M563 1642q-75 0 -122.5 45t-47.5 117q0 71 47.5 115.5t122.5 44.5q73 0 119.5 -44.5t46.5 -115.5q0 -72 -46 -117t-120 -45zM995 1642q-75 0 -122.5 45t-47.5 117q0 71 47.5 115.5t122.5 44.5q73 0 119.5 -44.5t46.5 -115.5q0 -72 -46 -117t-120 -45zM1552 1536
l-567 -991v-545h-379v522l-602 1014h436l351 -627l342 627h419z" />
    <glyph glyph-name="Zacute" unicode="&#x179;" horiz-adv-x="1413" 
d="M702 1935h437l-324 -286h-307zM1329 336v-336h-1306l729 1198h-660v338h1294l-718 -1200h661z" />
    <glyph glyph-name="zacute" unicode="&#x17a;" horiz-adv-x="1064" 
d="M528 1464h437l-324 -286h-307zM997 293v-293h-977l467 754h-405v293h954l-465 -754h426z" />
    <glyph glyph-name="Zdotaccent" unicode="&#x17b;" horiz-adv-x="1413" 
d="M717 1645q-88 0 -147.5 52t-59.5 136q0 86 59 138t148 52q88 0 145.5 -52.5t57.5 -137.5q0 -84 -57.5 -136t-145.5 -52zM1329 336v-336h-1306l729 1198h-660v338h1294l-718 -1200h661z" />
    <glyph glyph-name="zdotaccent" unicode="&#x17c;" horiz-adv-x="1064" 
d="M547 1174q-88 0 -147.5 52t-59.5 136q0 86 59 138t148 52q88 0 145.5 -52.5t57.5 -137.5q0 -84 -57.5 -136t-145.5 -52zM997 293v-293h-977l467 754h-405v293h954l-465 -754h426z" />
    <glyph glyph-name="Zcaron" unicode="&#x17d;" horiz-adv-x="1413" 
d="M1167 1935l-254 -286h-374l-254 286h311l129 -114l129 114h313zM1329 336v-336h-1306l729 1198h-660v338h1294l-718 -1200h661z" />
    <glyph glyph-name="zcaron" unicode="&#x17e;" horiz-adv-x="1064" 
d="M989 1464l-254 -286h-375l-254 286h312l129 -114l129 114h313zM997 293v-293h-977l467 754h-405v293h954l-465 -754h426z" />
    <glyph glyph-name="florin" unicode="&#x192;" horiz-adv-x="1155" 
d="M690 373q-33 -182 -152.5 -289t-304.5 -107q-110 0 -221 46v286q80 -41 160 -41q71 0 115.5 42t56.5 114l129 672q85 463 469 463q115 0 221 -50v-290q-84 43 -157 43t-119 -43t-58 -117l-10 -55h289v-293h-344z" />
    <glyph glyph-name="uni0218" unicode="&#x218;" horiz-adv-x="1247" 
d="M659 1245q-72 0 -116.5 -30.5t-44.5 -88.5q0 -35 22.5 -61t67.5 -51l321 -154q156 -75 224.5 -166.5t68.5 -226.5q0 -215 -164.5 -352.5t-423.5 -137.5q-295 0 -520 146v409q146 -119 285 -179t248 -60q73 0 117 28t44 82q0 41 -20.5 66.5t-77.5 54.5l-309 146
q-145 68 -217 167t-72 246q0 216 156 346t405 130q265 0 463 -115v-391q-128 95 -247 143.5t-210 48.5zM471 -111h332l-232 -374h-213z" />
    <glyph glyph-name="uni0219" unicode="&#x219;" horiz-adv-x="946" 
d="M68 395q85 -80 185 -124t191 -44q48 0 75.5 17t27.5 47q0 41 -55 61l-166 70q-63 26 -106 51.5t-80 62t-55.5 86.5t-18.5 115q0 156 115.5 244t310.5 88t348 -84v-303q-77 68 -166 108.5t-158 40.5q-46 0 -72 -17t-26 -46q0 -24 13.5 -38t49.5 -28l181 -77
q128 -56 184.5 -120.5t56.5 -166.5q0 -88 -36.5 -157.5t-100.5 -113.5t-147.5 -67t-180.5 -23q-99 0 -196.5 26.5t-173.5 72.5v319zM328 -111h331l-231 -374h-213z" />
    <glyph glyph-name="uni021A" unicode="&#x21a;" horiz-adv-x="1341" 
d="M1311 1196h-451v-1196h-379v1196h-450v340h1280v-340zM506 -111h332l-232 -374h-213z" />
    <glyph glyph-name="uni021B" unicode="&#x21b;" horiz-adv-x="851" 
d="M811 53q-110 -76 -289 -76q-204 0 -315 108.5t-111 324.5v921h363v-284h348v-293h-348v-303q0 -74 43 -113t116 -39q113 0 193 47v-293zM324 -111h331l-231 -374h-213z" />
    <glyph glyph-name="dotlessj" unicode="&#x237;" horiz-adv-x="595" 
d="M68 -535q-143 0 -248 50v290q71 -36 164 -36q61 0 97 36.5t36 96.5v1145h362v-1164q0 -187 -113 -302.5t-298 -115.5z" />
    <glyph glyph-name="circumflex" unicode="&#x2c6;" horiz-adv-x="1226" 
d="M748 1178l-130 114l-129 -114h-299l242 286h375l242 -286h-301z" />
    <glyph glyph-name="caron" unicode="&#x2c7;" horiz-adv-x="1226" 
d="M1061 1464l-254 -286h-375l-254 286h311l129 -114l130 114h313z" />
    <glyph glyph-name="breve" unicode="&#x2d8;" horiz-adv-x="1226" 
d="M631 1384q43 0 73.5 26t34.5 67h260q-6 -141 -109 -230.5t-261 -89.5q-156 0 -258.5 90t-108.5 230h260q5 -41 35 -67t74 -26z" />
    <glyph glyph-name="dotaccent" unicode="&#x2d9;" horiz-adv-x="1034" 
d="M575 1174q-88 0 -147 51.5t-59 136.5q0 86 59 138t147 52t145.5 -52.5t57.5 -137.5q0 -84 -57.5 -136t-145.5 -52z" />
    <glyph glyph-name="ring" unicode="&#x2da;" horiz-adv-x="1226" 
d="M623 1612q109 0 179 -64t70 -170t-70.5 -172.5t-178.5 -66.5q-109 0 -179.5 65t-70.5 170q0 106 70.5 172t179.5 66zM541 1374q0 -35 22.5 -57.5t59.5 -22.5q36 0 57.5 22.5t21.5 59.5q0 35 -22 57.5t-57 22.5q-37 0 -59.5 -22.5t-22.5 -59.5z" />
    <glyph glyph-name="ogonek" unicode="&#x2db;" horiz-adv-x="1142" 
d="M510 -319q-13 84 13.5 157t84 127.5t133 94t168.5 65.5l27 -125q-85 -39 -132.5 -101.5t-29.5 -140.5q7 -33 34 -52t62 -19q36 0 66 12v-195q-84 -32 -148 -32q-106 0 -183.5 55.5t-94.5 153.5z" />
    <glyph glyph-name="tilde" unicode="&#x2dc;" horiz-adv-x="1226" 
d="M766 1169q-53 0 -146.5 27t-115.5 27q-30 0 -50 -17t-20 -45h-174q0 146 66 229t184 83q52 0 151.5 -27t114.5 -27q30 0 50 16.5t20 43.5h174q5 -141 -64 -225.5t-190 -84.5z" />
    <glyph glyph-name="hungarumlaut" unicode="&#x2dd;" horiz-adv-x="1226" 
d="M494 1178h-242l160 286h344zM891 1178h-244l164 286h350z" />
    <glyph glyph-name="uni0394" unicode="&#x394;" horiz-adv-x="1611" 
d="M797 1581l807 -1581h-1596zM543 309h526l-270 551z" />
    <glyph glyph-name="uni03A9" unicode="&#x3a9;" horiz-adv-x="1470" 
d="M1339 0h-555v555q106 45 165 139t59 215q0 131 -75 217t-198 86q-124 0 -198 -87t-74 -220q0 -121 55.5 -214t159.5 -136v-555h-555v305h266v90q-141 92 -220 230.5t-79 312.5q0 138 49.5 255t135.5 197t204.5 124.5t255.5 44.5q183 0 329.5 -75t231 -215.5t84.5 -322.5
q0 -177 -81.5 -319t-225.5 -234v-88h266v-305z" />
    <glyph glyph-name="mu" unicode="&#x3bc;" horiz-adv-x="1298" 
d="M135 -512v1559h363v-580q0 -74 35.5 -116t99.5 -42q80 0 124 56t44 139v543h362v-1047h-362v133q-113 -156 -309 -156q-17 0 -35 3v-492h-322z" />
    <glyph glyph-name="pi" unicode="&#x3c0;" horiz-adv-x="1521" 
d="M1452 29q-96 -52 -217 -52q-168 0 -269.5 99t-101.5 264v377h-276v-717h-367v717h-180v330h1366v-330h-180v-338q0 -53 31.5 -86t84.5 -33q56 0 109 23v-254z" />
    <glyph glyph-name="Wgrave" unicode="&#x1e80;" horiz-adv-x="2312" 
d="M735 1935h436l195 -286h-307zM2304 1536l-741 -1581l-404 819l-414 -819l-739 1581h436l324 -743l397 788l396 -778l325 733h420z" />
    <glyph glyph-name="wgrave" unicode="&#x1e81;" horiz-adv-x="1689" 
d="M414 1464h436l194 -286h-307zM1690 1047l-535 -1088l-295 512l-311 -512l-549 1088h414l192 -390l254 424l248 -426l192 392h390z" />
    <glyph glyph-name="Wacute" unicode="&#x1e82;" horiz-adv-x="2312" 
d="M1157 1935h436l-323 -286h-307zM2304 1536l-741 -1581l-404 819l-414 -819l-739 1581h436l324 -743l397 788l396 -778l325 733h420z" />
    <glyph glyph-name="wacute" unicode="&#x1e83;" horiz-adv-x="1689" 
d="M856 1464h436l-323 -286h-307zM1690 1047l-535 -1088l-295 512l-311 -512l-549 1088h414l192 -390l254 424l248 -426l192 392h390z" />
    <glyph glyph-name="Wdieresis" unicode="&#x1e84;" horiz-adv-x="2312" 
d="M952 1642q-75 0 -122.5 45t-47.5 117q0 71 47.5 115.5t122.5 44.5q73 0 119.5 -44.5t46.5 -115.5q0 -72 -46 -117t-120 -45zM1384 1642q-75 0 -122.5 45t-47.5 117q0 71 47.5 115.5t122.5 44.5q73 0 119.5 -44.5t46.5 -115.5q0 -72 -46 -117t-120 -45zM2304 1536
l-741 -1581l-404 819l-414 -819l-739 1581h436l324 -743l397 788l396 -778l325 733h420z" />
    <glyph glyph-name="wdieresis" unicode="&#x1e85;" horiz-adv-x="1689" 
d="M645 1171q-75 0 -122.5 45t-47.5 117q0 71 47.5 115.5t122.5 44.5q73 0 119.5 -44.5t46.5 -115.5q0 -72 -46 -117t-120 -45zM1077 1171q-75 0 -122.5 45t-47.5 117q0 71 47.5 115.5t122.5 44.5q73 0 119.5 -44.5t46.5 -115.5q0 -72 -46 -117t-120 -45zM1690 1047
l-535 -1088l-295 512l-311 -512l-549 1088h414l192 -390l254 424l248 -426l192 392h390z" />
    <glyph glyph-name="Ygrave" unicode="&#x1ef2;" horiz-adv-x="1556" 
d="M375 1935h436l195 -286h-308zM1552 1536l-567 -991v-545h-379v522l-602 1014h436l351 -627l342 627h419z" />
    <glyph glyph-name="ygrave" unicode="&#x1ef3;" horiz-adv-x="1208" 
d="M193 1464h436l194 -286h-307zM1208 1047l-766 -1559h-372l356 731l-426 828h418l203 -429l208 429h379z" />
    <glyph glyph-name="endash" unicode="&#x2013;" horiz-adv-x="1024" 
d="M41 449v305h942v-305h-942z" />
    <glyph glyph-name="emdash" unicode="&#x2014;" horiz-adv-x="2048" 
d="M41 754h1966v-305h-1966v305z" />
    <glyph glyph-name="quoteleft" unicode="&#x2018;" horiz-adv-x="532" 
d="M279 1536h206l-155 -289q61 -28 97 -75t36 -111q0 -87 -57 -140t-148 -53q-89 0 -146 55.5t-57 141.5q0 75 56 174z" />
    <glyph glyph-name="quoteright" unicode="&#x2019;" horiz-adv-x="530" 
d="M252 891h-207l156 287q-131 59 -131 186q0 88 55.5 141.5t146.5 53.5q89 0 145 -56t56 -143q0 -73 -53 -174z" />
    <glyph glyph-name="quotesinglbase" unicode="&#x201a;" horiz-adv-x="530" 
d="M252 -365h-207l156 287q-131 59 -131 184q0 88 55.5 141.5t146.5 53.5q89 0 145 -56t56 -143q0 -71 -53 -172z" />
    <glyph glyph-name="quotedblleft" unicode="&#x201c;" horiz-adv-x="1005" 
d="M276 1536h207l-153 -289q131 -59 131 -186q0 -87 -57 -140t-148 -53q-89 0 -145 55t-56 142q0 75 56 174zM752 1536h206l-153 -289q131 -59 131 -186q0 -87 -56 -140t-147 -53q-89 0 -145 55t-56 142q0 78 54 174z" />
    <glyph glyph-name="quotedblright" unicode="&#x201d;" horiz-adv-x="1005" 
d="M252 891h-207l156 287q-131 59 -131 186q0 88 55.5 141.5t146.5 53.5q89 0 145 -56t56 -143q0 -73 -53 -174zM729 891h-207l154 287q-131 59 -131 186q0 88 56 141.5t147 53.5q89 0 144.5 -56t55.5 -143q0 -80 -53 -174z" />
    <glyph glyph-name="quotedblbase" unicode="&#x201e;" horiz-adv-x="1005" 
d="M252 -365h-207l156 287q-131 59 -131 184q0 88 55.5 141.5t146.5 53.5q89 0 145 -56t56 -143q0 -71 -53 -172zM729 -365h-207l154 287q-131 59 -131 184q0 88 56 141.5t147 53.5q89 0 144.5 -56t55.5 -143q0 -78 -53 -172z" />
    <glyph glyph-name="dagger" unicode="&#x2020;" horiz-adv-x="985" 
d="M881 1012h-265v-568h-247v568h-265v248h265v276h247v-276h265v-248z" />
    <glyph glyph-name="daggerdbl" unicode="&#x2021;" horiz-adv-x="985" 
d="M881 344h-265v-344h-247v344h-265v248h265v375h-265v247h265v322h247v-322h265v-247h-265v-375h265v-248z" />
    <glyph glyph-name="bullet" unicode="&#x2022;" horiz-adv-x="958" 
d="M479 373q-141 0 -243.5 100.5t-102.5 239.5t102.5 240.5t243.5 101.5t242.5 -101t101.5 -241q0 -139 -101.5 -239.5t-242.5 -100.5z" />
    <glyph glyph-name="ellipsis" unicode="&#x2026;" horiz-adv-x="1820" 
d="M299 -23q-98 0 -159.5 57.5t-61.5 151.5q0 92 61.5 150.5t159.5 58.5q97 0 157 -58.5t60 -150.5q0 -94 -60 -151.5t-157 -57.5zM911 -23q-98 0 -159.5 57.5t-61.5 151.5q0 92 61.5 150.5t159.5 58.5q97 0 157 -58.5t60 -150.5q0 -94 -60 -151.5t-157 -57.5zM1524 -23
q-98 0 -159.5 57.5t-61.5 151.5q0 92 61.5 150.5t159.5 58.5q97 0 157 -58.5t60 -150.5q0 -94 -60 -151.5t-157 -57.5z" />
    <glyph glyph-name="perthousand" unicode="&#x2030;" horiz-adv-x="3229" 
d="M514 709q-200 0 -330.5 121t-130.5 305q0 183 131 303.5t330 120.5q198 0 328.5 -120.5t130.5 -303.5q0 -184 -130.5 -305t-328.5 -121zM1831 1536l-1141 -1536h-295l1139 1536h297zM514 942q83 0 139 55t56 138q0 82 -56 136t-139 54q-86 0 -141.5 -54t-55.5 -136
q0 -84 55.5 -138.5t141.5 -54.5zM2716 -23q-199 0 -330 120.5t-131 303.5q0 184 130.5 304t330.5 120t330 -120t130 -304q0 -183 -130.5 -303.5t-329.5 -120.5zM1712 -23q-199 0 -330 120.5t-131 303.5q0 184 130.5 304t330.5 120t329.5 -120t129.5 -304q0 -183 -130 -303.5
t-329 -120.5zM1907 401q0 83 -55 137t-140 54q-86 0 -141 -54t-55 -137q0 -84 55 -138t141 -54q85 0 140 54.5t55 137.5zM2910 401q0 83 -54.5 137t-139.5 54t-140 -54t-55 -137t55 -137.5t140 -54.5t139.5 54.5t54.5 137.5z" />
    <glyph glyph-name="guilsinglleft" unicode="&#x2039;" horiz-adv-x="800" 
d="M367 102l-306 451l306 432h360l-303 -432l303 -451h-360z" />
    <glyph glyph-name="guilsinglright" unicode="&#x203a;" horiz-adv-x="800" 
d="M434 102h-362l305 451l-305 432h362l303 -432z" />
    <glyph glyph-name="fraction" unicode="&#x2044;" horiz-adv-x="966" 
d="M78 0h-293l1104 1536h295z" />
    <glyph glyph-name="zerosuperior" unicode="&#x2070;" horiz-adv-x="1140" 
d="M1067 1049q0 -106 -33 -198.5t-94 -162.5t-157 -110.5t-214 -40.5t-213.5 40.5t-157 110.5t-94 162.5t-32.5 198.5q0 142 55.5 256t170 184t271.5 70q118 0 213.5 -40.5t157 -110t94.5 -162t33 -197.5zM569 766q67 0 112.5 41t64 102.5t18.5 139.5q0 119 -48.5 198.5
t-146.5 79.5q-99 0 -146.5 -79t-47.5 -199q0 -78 18.5 -139.5t63.5 -102.5t112 -41z" />
    <glyph glyph-name="foursuperior" unicode="&#x2074;" horiz-adv-x="987" 
d="M979 733h-121v-186h-283v186h-579l358 803h285l-252 -592h188v240h283v-240h121v-211z" />
    <glyph glyph-name="Euro" unicode="&#x20ac;" horiz-adv-x="1427" 
d="M1341 57q-180 -80 -376 -80q-263 0 -456 138.5t-269 373.5h-201v211h160q-2 23 -2 68q0 43 2 63h-160v209h199q76 237 271.5 378t461.5 141q225 0 418 -111l-105 -303q-143 78 -289 78q-110 0 -197 -48.5t-141 -134.5h586l-72 -209h-583q-2 -18 -2 -59q0 -26 4 -72h538
l-71 -211h-391q58 -85 148 -131.5t202 -46.5q172 0 325 84v-338z" />
    <glyph glyph-name="uni20B9" unicode="&#x20b9;" horiz-adv-x="1269" 
d="M1229 895h-182q-23 -118 -91.5 -205.5t-171.5 -138.5l363 -551h-447l-305 487h-313v285h364q177 0 232 123h-596v213h594q-55 117 -230 117h-364v311h1147v-215h-273q67 -93 88 -213h185v-213z" />
    <glyph glyph-name="uni2113" unicode="&#x2113;" horiz-adv-x="1110" 
d="M78 629q32 0 102 4v475q0 200 126 325.5t329 125.5q194 0 315 -120t121 -313v-63q0 -117 -38.5 -217.5t-108.5 -177.5t-162 -134.5t-205 -95.5q23 -64 83.5 -100.5t139.5 -36.5q106 0 221 59v-292q-133 -91 -350 -91q-194 0 -324 104.5t-145 287.5q-70 -4 -106 -4h-41
v264h43zM643 1243q-47 0 -71.5 -35t-24.5 -88v-387q186 109 186 322v65q0 51 -23.5 87t-66.5 36z" />
    <glyph glyph-name="trademark" unicode="&#x2122;" horiz-adv-x="1773" 
d="M1266 965l-193 153v-276h-205v712l398 -331l397 331v-712h-205v280zM57 1352v184h691v-184h-244v-510h-203v510h-244z" />
    <glyph glyph-name="estimated" unicode="&#x212e;" horiz-adv-x="1597" 
d="M1536 625h-1194q-10 0 -10 -9v-360q0 -25 16 -41q88 -93 205 -145t248 -52q139 0 262 58.5t213 161.5h106q-102 -119 -255 -188.5t-328 -69.5q-150 0 -287 52.5t-235.5 141t-157 211.5t-58.5 258t58.5 258t157 212t235.5 141.5t287 52.5q201 0 370.5 -89t268 -241.5
t98.5 -333.5v-18zM1266 672v364q0 24 -19 43q-89 89 -204 139t-242 50q-129 0 -246 -52t-205 -143q-18 -18 -18 -45v-356q0 -10 10 -10h915q9 0 9 10z" />
    <glyph glyph-name="partialdiff" unicode="&#x2202;" horiz-adv-x="1269" 
d="M1186 645q0 -191 -74 -342t-215 -238.5t-326 -87.5q-145 0 -261.5 59t-186.5 174.5t-70 268.5q0 213 147 344t371 131q114 0 217 -61q-37 169 -154.5 263.5t-291.5 94.5v308q259 0 451.5 -116t292.5 -322.5t100 -475.5zM621 309q82 0 134 50.5t52 129.5q0 80 -52 130.5
t-134 50.5q-80 0 -132.5 -51t-52.5 -130t52.5 -129.5t132.5 -50.5z" />
    <glyph glyph-name="product" unicode="&#x220f;" horiz-adv-x="1593" 
d="M135 -350v1886h1323v-1886h-366v1554h-590v-1554h-367z" />
    <glyph glyph-name="summation" unicode="&#x2211;" horiz-adv-x="1251" 
d="M27 -20l505 620l-505 604v330h1202v-330h-750l496 -604l-508 -620h762v-330h-1202v330z" />
    <glyph glyph-name="minus" unicode="&#x2212;" horiz-adv-x="1347" 
d="M174 635v289h997v-289h-997z" />
    <glyph glyph-name="uni2215" unicode="&#x2215;" horiz-adv-x="966" 
d="M78 0h-293l1104 1536h295z" />
    <glyph glyph-name="radical" unicode="&#x221a;" horiz-adv-x="1513" 
d="M727 -41l-432 770h-295v318h526l205 -406l443 895h382z" />
    <glyph glyph-name="infinity" unicode="&#x221e;" horiz-adv-x="1888" 
d="M1376 258q-132 0 -243 62.5t-189 171.5q-77 -109 -190 -171.5t-246 -62.5q-203 0 -328 139t-125 351q0 220 125.5 363.5t333.5 143.5q132 0 241.5 -65.5t186.5 -177.5q77 112 187.5 177.5t242.5 65.5q208 0 333.5 -143.5t125.5 -363.5q0 -213 -125.5 -351.5
t-329.5 -138.5zM1331 936q-15 0 -29 -3t-25 -7t-24 -13.5t-21 -15t-20.5 -20t-18 -20.5t-18 -25t-16 -24.5t-17 -27.5t-16.5 -26q5 -8 28 -41t30.5 -43.5t28.5 -34t35.5 -32t36.5 -17t46 -8.5q75 0 116.5 50.5t41.5 125.5q0 78 -41 130t-117 52zM555 936q-75 0 -115.5 -52
t-40.5 -130q0 -75 40.5 -125.5t113.5 -50.5q21 0 39.5 4.5t36 16.5t29.5 21t29 30.5t24.5 31t26 37t24.5 35.5q-4 7 -18.5 29t-19.5 30t-18.5 27t-21 26.5t-20.5 22t-24 20.5t-25 13.5t-29 10.5t-31 3z" />
    <glyph glyph-name="integral" unicode="&#x222b;" horiz-adv-x="884" 
d="M129 -535q-136 0 -246 48v305q77 -39 168 -39q64 0 103 40t39 103v1184q0 207 118.5 330t325.5 123q129 0 237 -50v-307q-84 43 -174 43q-60 0 -100.5 -44t-40.5 -118v-1200q0 -193 -116.5 -305.5t-313.5 -112.5z" />
    <glyph glyph-name="approxequal" unicode="&#x2248;" horiz-adv-x="1347" 
d="M469 1190q73 0 207 -49t207 -49q71 0 150.5 30t125.5 76v-289q-43 -42 -122.5 -69t-153.5 -27q-73 0 -207 49t-207 49q-67 0 -147.5 -33t-135.5 -85v288q47 47 128.5 78t154.5 31zM469 719q73 0 207 -49t207 -49q71 0 150.5 30t125.5 76v-289q-43 -42 -122.5 -69
t-153.5 -27q-73 0 -207 49t-207 49q-67 0 -147.5 -33t-135.5 -85v288q47 47 128.5 78t154.5 31z" />
    <glyph glyph-name="notequal" unicode="&#x2260;" horiz-adv-x="1347" 
d="M1171 387h-550l-121 -260h-240l121 260h-207v283h338l88 190h-426v285h559l113 241h237l-112 -241h200v-285h-331l-88 -190h419v-283z" />
    <glyph glyph-name="lessequal" unicode="&#x2264;" horiz-adv-x="1347" 
d="M1114 799v-310l-883 338v316l883 340v-309l-559 -187zM231 700l883 -335v-293l-883 336v292z" />
    <glyph glyph-name="greaterequal" unicode="&#x2265;" horiz-adv-x="1347" 
d="M1114 827l-883 -338v310l562 188l-562 187v309l883 -340v-316zM1114 700v-292l-883 -336v293z" />
    <glyph glyph-name="lozenge" unicode="&#x25ca;" horiz-adv-x="1210" 
d="M1219 756l-613 -797l-612 797l612 821zM821 770l-217 295l-215 -295l215 -301z" />
    <glyph glyph-name="commaaccent" unicode="&#xf6c3;" horiz-adv-x="1024" 
d="M352 -111h332l-231 -374h-213z" />
    <glyph glyph-name="CR" horiz-adv-x="0" 
 />
    <glyph glyph-name="a.alt" horiz-adv-x="1236" 
d="M1120 1047v-1047h-534q-256 0 -396.5 136t-140.5 386q0 243 147.5 384t389.5 141h534zM758 723h-146q-99 0 -146.5 -53.5t-47.5 -147.5q0 -92 46.5 -145t147.5 -53h146v399z" />
    <glyph glyph-name="a.alt2" horiz-adv-x="1159" 
d="M137 782v265h903v-1047h-628q-172 0 -269.5 88t-97.5 246q0 160 102.5 250t284.5 90h246v108h-541zM678 430h-162q-50 0 -76 -26t-26 -70q0 -43 25.5 -67.5t76.5 -24.5h162v188z" />
    <glyph glyph-name="b.alt" horiz-adv-x="1239" 
d="M117 0v1536h362v-489h176q252 0 393.5 -138t141.5 -387q0 -160 -70 -279.5t-190.5 -181t-274.5 -61.5h-538zM479 723v-399h152q92 0 140 52.5t48 145.5q0 94 -47.5 147.5t-140.5 53.5h-152z" />
    <glyph glyph-name="d.alt" horiz-adv-x="1239" 
d="M758 1536h364v-1536h-540q-252 0 -392.5 137.5t-140.5 386.5q0 241 149 382t384 141h176v489zM758 723h-150q-93 0 -141.5 -53t-48.5 -146q0 -94 48.5 -147t141.5 -53h150v399z" />
    <glyph glyph-name="e.alt" horiz-adv-x="1177" 
d="M102 0v629q0 196 146.5 318t386.5 122q136 0 245 -38.5t176.5 -120t67.5 -195.5q0 -103 -62.5 -180.5t-165 -116.5t-228.5 -39h-207v-100h239q191 0 363 30v-309h-961zM461 596h155q74 0 112 22t38 74q0 50 -40 76.5t-105 26.5q-69 0 -114.5 -38t-45.5 -98v-63z" />
    <glyph glyph-name="e.alt2" horiz-adv-x="1191" 
d="M117 0v1047h983v-281q0 -184 -123 -287.5t-328 -103.5h-170v-111h596v-264h-958zM752 795h-273v-181h142q56 0 93.5 33t37.5 86v62z" />
    <glyph glyph-name="h.alt2" horiz-adv-x="1263" 
d="M479 1536v-489h666v-1047h-363v729h-303v-729h-362v1536h362z" />
    <glyph glyph-name="m.alt2" horiz-adv-x="1863" 
d="M117 0v1047h1628v-1047h-363v729h-270v-729h-362v729h-271v-729h-362z" />
    <glyph glyph-name="n.alt2" horiz-adv-x="1263" 
d="M117 0v1047h1028v-1047h-363v729h-303v-729h-362z" />
    <glyph glyph-name="p.alt" horiz-adv-x="1239" 
d="M655 0h-176v-512h-362v1559h538q252 0 393.5 -138t141.5 -387q0 -160 -70 -279.5t-190.5 -181t-274.5 -61.5zM479 723v-399h152q92 0 140 52.5t48 145.5q0 94 -47.5 147.5t-140.5 53.5h-152z" />
    <glyph glyph-name="q.alt" horiz-adv-x="1239" 
d="M582 1047h540v-1559h-364v512h-176q-252 0 -392.5 137.5t-140.5 386.5q0 241 149 382t384 141zM758 723h-150q-93 0 -141.5 -53t-48.5 -146q0 -94 48.5 -147t141.5 -53h150v399z" />
    <glyph glyph-name="r.alt" horiz-adv-x="913" 
d="M920 831l-441 -374v-457h-362v1047h362v-158l221 186z" />
    <glyph glyph-name="r.alt2" horiz-adv-x="856" 
d="M117 0v1047h698v-318h-336v-729h-362z" />
    <glyph glyph-name="aacute.alt" horiz-adv-x="1236" 
d="M672 1464h436l-324 -286h-307zM1120 1047v-1047h-534q-256 0 -396.5 136t-140.5 386q0 243 147.5 384t389.5 141h534zM758 723h-146q-99 0 -146.5 -53.5t-47.5 -147.5q0 -92 46.5 -145t147.5 -53h146v399z" />
    <glyph glyph-name="acircumflex.alt" horiz-adv-x="1236" 
d="M817 1178l-129 114l-129 -114h-299l242 286h375l241 -286h-301zM1120 1047v-1047h-534q-256 0 -396.5 136t-140.5 386q0 243 147.5 384t389.5 141h534zM758 723h-146q-99 0 -146.5 -53.5t-47.5 -147.5q0 -92 46.5 -145t147.5 -53h146v399z" />
    <glyph glyph-name="adieresis.alt" horiz-adv-x="1236" 
d="M479 1171q-75 0 -122.5 45t-47.5 117q0 71 47.5 115.5t122.5 44.5q73 0 119.5 -44.5t46.5 -115.5q0 -72 -46 -117t-120 -45zM911 1171q-75 0 -122.5 45t-47.5 117q0 71 47.5 115.5t122.5 44.5q73 0 119.5 -44.5t46.5 -115.5q0 -72 -46 -117t-120 -45zM1120 1047v-1047
h-534q-256 0 -396.5 136t-140.5 386q0 243 147.5 384t389.5 141h534zM758 723h-146q-99 0 -146.5 -53.5t-47.5 -147.5q0 -92 46.5 -145t147.5 -53h146v399z" />
    <glyph glyph-name="agrave.alt" horiz-adv-x="1236" 
d="M313 1464h437l194 -286h-307zM1120 1047v-1047h-534q-256 0 -396.5 136t-140.5 386q0 243 147.5 384t389.5 141h534zM758 723h-146q-99 0 -146.5 -53.5t-47.5 -147.5q0 -92 46.5 -145t147.5 -53h146v399z" />
    <glyph glyph-name="aring.alt" horiz-adv-x="1236" 
d="M700 1612q109 0 179.5 -64t70.5 -170t-71 -172.5t-179 -66.5t-178.5 65t-70.5 170q0 106 70.5 172t178.5 66zM618 1374q0 -35 22.5 -57.5t59.5 -22.5t58.5 22.5t21.5 59.5q0 35 -22.5 57.5t-57.5 22.5q-37 0 -59.5 -22.5t-22.5 -59.5zM1120 1047v-1047h-534
q-256 0 -396.5 136t-140.5 386q0 243 147.5 384t389.5 141h534zM758 723h-146q-99 0 -146.5 -53.5t-47.5 -147.5q0 -92 46.5 -145t147.5 -53h146v399z" />
    <glyph glyph-name="atilde.alt" horiz-adv-x="1236" 
d="M793 1169q-53 0 -147 27t-116 27q-30 0 -49.5 -16.5t-19.5 -45.5h-174q0 146 66 229t184 83q52 0 151.5 -27t114.5 -27q30 0 49.5 16.5t19.5 43.5h175q5 -141 -64 -225.5t-190 -84.5zM1120 1047v-1047h-534q-256 0 -396.5 136t-140.5 386q0 243 147.5 384t389.5 141h534z
M758 723h-146q-99 0 -146.5 -53.5t-47.5 -147.5q0 -92 46.5 -145t147.5 -53h146v399z" />
    <glyph glyph-name="abreve.alt" horiz-adv-x="1236" 
d="M682 1384q43 0 74 26t35 67h260q-6 -141 -109.5 -230.5t-261.5 -89.5q-156 0 -258.5 90t-108.5 230h260q5 -41 35 -67t74 -26zM1120 1047v-1047h-534q-256 0 -396.5 136t-140.5 386q0 243 147.5 384t389.5 141h534zM758 723h-146q-99 0 -146.5 -53.5t-47.5 -147.5
q0 -92 46.5 -145t147.5 -53h146v399z" />
    <glyph glyph-name="amacron.alt" horiz-adv-x="1236" 
d="M309 1450h703v-256h-703v256zM1120 1047v-1047h-534q-256 0 -396.5 136t-140.5 386q0 243 147.5 384t389.5 141h534zM758 723h-146q-99 0 -146.5 -53.5t-47.5 -147.5q0 -92 46.5 -145t147.5 -53h146v399z" />
    <glyph glyph-name="aogonek.alt" horiz-adv-x="1241" 
d="M1120 -496q-84 -32 -147 -32q-106 0 -184 55.5t-95 153.5q-28 188 137 319h-245q-256 0 -396.5 136t-140.5 386q0 243 147.5 384t389.5 141h534v-1047q-85 -39 -132.5 -101.5t-29.5 -140.5q7 -33 34.5 -52t62.5 -19t65 12v-195zM758 723h-146q-99 0 -146.5 -53.5
t-47.5 -147.5q0 -92 46.5 -145t147.5 -53h146v399z" />
    <glyph glyph-name="aacute.alt2" horiz-adv-x="1159" 
d="M567 1464h437l-324 -286h-307zM137 782v265h903v-1047h-628q-172 0 -269.5 88t-97.5 246q0 160 102.5 250t284.5 90h246v108h-541zM678 430h-162q-50 0 -76 -26t-26 -70q0 -43 25.5 -67.5t76.5 -24.5h162v188z" />
    <glyph glyph-name="acircumflex.alt2" horiz-adv-x="1159" 
d="M725 1178l-129 114l-129 -114h-299l242 286h374l242 -286h-301zM137 782v265h903v-1047h-628q-172 0 -269.5 88t-97.5 246q0 160 102.5 250t284.5 90h246v108h-541zM678 430h-162q-50 0 -76 -26t-26 -70q0 -43 25.5 -67.5t76.5 -24.5h162v188z" />
    <glyph glyph-name="adieresis.alt2" horiz-adv-x="1159" 
d="M393 1171q-75 0 -122.5 45t-47.5 117q0 71 47.5 115.5t122.5 44.5q73 0 119.5 -44.5t46.5 -115.5q0 -72 -46 -117t-120 -45zM825 1171q-75 0 -122.5 45t-47.5 117q0 71 47.5 115.5t122.5 44.5q73 0 119.5 -44.5t46.5 -115.5q0 -72 -46 -117t-120 -45zM137 782v265h903
v-1047h-628q-172 0 -269.5 88t-97.5 246q0 160 102.5 250t284.5 90h246v108h-541zM678 430h-162q-50 0 -76 -26t-26 -70q0 -43 25.5 -67.5t76.5 -24.5h162v188z" />
    <glyph glyph-name="agrave.alt2" horiz-adv-x="1159" 
d="M225 1464h437l194 -286h-307zM137 782v265h903v-1047h-628q-172 0 -269.5 88t-97.5 246q0 160 102.5 250t284.5 90h246v108h-541zM678 430h-162q-50 0 -76 -26t-26 -70q0 -43 25.5 -67.5t76.5 -24.5h162v188z" />
    <glyph glyph-name="aring.alt2" horiz-adv-x="1159" 
d="M606 1612q109 0 179.5 -64t70.5 -170t-71 -172.5t-179 -66.5t-179 65t-71 170q0 106 70.5 172t179.5 66zM524 1374q0 -35 22.5 -57.5t59.5 -22.5t58.5 22.5t21.5 59.5q0 35 -22.5 57.5t-57.5 22.5q-37 0 -59.5 -22.5t-22.5 -59.5zM137 782v265h903v-1047h-628
q-172 0 -269.5 88t-97.5 246q0 160 102.5 250t284.5 90h246v108h-541zM678 430h-162q-50 0 -76 -26t-26 -70q0 -43 25.5 -67.5t76.5 -24.5h162v188z" />
    <glyph glyph-name="atilde.alt2" horiz-adv-x="1159" 
d="M745 1169q-53 0 -146.5 27t-115.5 27q-30 0 -49.5 -16.5t-19.5 -45.5h-174q0 146 65.5 229t183.5 83q52 0 152 -27t115 -27q30 0 49.5 16.5t19.5 43.5h174q5 -141 -64 -225.5t-190 -84.5zM137 782v265h903v-1047h-628q-172 0 -269.5 88t-97.5 246q0 160 102.5 250
t284.5 90h246v108h-541zM678 430h-162q-50 0 -76 -26t-26 -70q0 -43 25.5 -67.5t76.5 -24.5h162v188z" />
    <glyph glyph-name="abreve.alt2" horiz-adv-x="1159" 
d="M610 1384q43 0 74 26t35 67h260q-6 -141 -109.5 -230.5t-261.5 -89.5q-156 0 -258 90t-108 230h260q5 -41 34.5 -67t73.5 -26zM137 782v265h903v-1047h-628q-172 0 -269.5 88t-97.5 246q0 160 102.5 250t284.5 90h246v108h-541zM678 430h-162q-50 0 -76 -26t-26 -70
q0 -43 25.5 -67.5t76.5 -24.5h162v188z" />
    <glyph glyph-name="amacron.alt2" horiz-adv-x="1159" 
d="M248 1450h702v-256h-702v256zM137 782v265h903v-1047h-628q-172 0 -269.5 88t-97.5 246q0 160 102.5 250t284.5 90h246v108h-541zM678 430h-162q-50 0 -76 -26t-26 -70q0 -43 25.5 -67.5t76.5 -24.5h162v188z" />
    <glyph glyph-name="aogonek.alt2" horiz-adv-x="1159" 
d="M137 782v265h903v-1047q-84 -39 -131.5 -101.5t-29.5 -140.5q7 -33 34 -52t62 -19t65 12v-195q-84 -32 -147 -32q-106 0 -184 55.5t-95 153.5q-28 187 138 319h-340q-172 0 -269.5 88t-97.5 246q0 160 102.5 250t284.5 90h246v108h-541zM678 430h-162q-50 0 -76 -26
t-26 -70q0 -43 25.5 -67.5t76.5 -24.5h162v188z" />
    <glyph glyph-name="dcaron.alt" horiz-adv-x="1552" 
d="M758 1536h364v-1536h-540q-252 0 -392.5 137.5t-140.5 386.5q0 241 149 382t384 141h176v489zM1432 1122h-218l62 414h319zM758 723h-150q-93 0 -141.5 -53t-48.5 -146q0 -94 48.5 -147t141.5 -53h150v399z" />
    <glyph glyph-name="dcroat.alt" horiz-adv-x="1243" 
d="M1270 1178h-146v-1178h-538q-253 0 -394 138t-141 386q0 241 150 382t385 141h176v131h-223v219h223v139h362v-139h146v-219zM762 723h-150q-93 0 -141.5 -53t-48.5 -146q0 -94 48.5 -147t141.5 -53h150v399z" />
    <glyph glyph-name="eacute.alt" horiz-adv-x="1177" 
d="M608 1464h436l-323 -286h-307zM102 0v629q0 196 146.5 318t386.5 122q136 0 245 -38.5t176.5 -120t67.5 -195.5q0 -103 -62.5 -180.5t-165 -116.5t-228.5 -39h-207v-100h239q191 0 363 30v-309h-961zM461 596h155q74 0 112 22t38 74q0 50 -40 76.5t-105 26.5
q-69 0 -114.5 -38t-45.5 -98v-63z" />
    <glyph glyph-name="ecircumflex.alt" horiz-adv-x="1177" 
d="M756 1178l-129 114l-129 -114h-299l241 286h375l242 -286h-301zM102 0v629q0 196 146.5 318t386.5 122q136 0 245 -38.5t176.5 -120t67.5 -195.5q0 -103 -62.5 -180.5t-165 -116.5t-228.5 -39h-207v-100h239q191 0 363 30v-309h-961zM461 596h155q74 0 112 22t38 74
q0 50 -40 76.5t-105 26.5q-69 0 -114.5 -38t-45.5 -98v-63z" />
    <glyph glyph-name="edieresis.alt" horiz-adv-x="1177" 
d="M422 1171q-75 0 -122.5 45t-47.5 117q0 71 47.5 115.5t122.5 44.5q73 0 119.5 -44.5t46.5 -115.5q0 -72 -46 -117t-120 -45zM854 1171q-75 0 -122.5 45t-47.5 117q0 71 47.5 115.5t122.5 44.5q73 0 119.5 -44.5t46.5 -115.5q0 -72 -46 -117t-120 -45zM102 0v629
q0 196 146.5 318t386.5 122q136 0 245 -38.5t176.5 -120t67.5 -195.5q0 -103 -62.5 -180.5t-165 -116.5t-228.5 -39h-207v-100h239q191 0 363 30v-309h-961zM461 596h155q74 0 112 22t38 74q0 50 -40 76.5t-105 26.5q-69 0 -114.5 -38t-45.5 -98v-63z" />
    <glyph glyph-name="egrave.alt" horiz-adv-x="1177" 
d="M207 1464h436l195 -286h-308zM102 0v629q0 196 146.5 318t386.5 122q136 0 245 -38.5t176.5 -120t67.5 -195.5q0 -103 -62.5 -180.5t-165 -116.5t-228.5 -39h-207v-100h239q191 0 363 30v-309h-961zM461 596h155q74 0 112 22t38 74q0 50 -40 76.5t-105 26.5
q-69 0 -114.5 -38t-45.5 -98v-63z" />
    <glyph glyph-name="ebreve.alt" horiz-adv-x="1177" 
d="M618 1384q43 0 74 26t35 67h260q-6 -141 -109.5 -230.5t-261.5 -89.5q-156 0 -258 90t-108 230h260q5 -41 34.5 -67t73.5 -26zM102 0v629q0 196 146.5 318t386.5 122q136 0 245 -38.5t176.5 -120t67.5 -195.5q0 -103 -62.5 -180.5t-165 -116.5t-228.5 -39h-207v-100h239
q191 0 363 30v-309h-961zM461 596h155q74 0 112 22t38 74q0 50 -40 76.5t-105 26.5q-69 0 -114.5 -38t-45.5 -98v-63z" />
    <glyph glyph-name="ecaron.alt" horiz-adv-x="1177" 
d="M1069 1464l-254 -286h-375l-254 286h312l129 -114l129 114h313zM102 0v629q0 196 146.5 318t386.5 122q136 0 245 -38.5t176.5 -120t67.5 -195.5q0 -103 -62.5 -180.5t-165 -116.5t-228.5 -39h-207v-100h239q191 0 363 30v-309h-961zM461 596h155q74 0 112 22t38 74
q0 50 -40 76.5t-105 26.5q-69 0 -114.5 -38t-45.5 -98v-63z" />
    <glyph glyph-name="edotaccent.alt" horiz-adv-x="1177" 
d="M621 1174q-88 0 -147.5 52t-59.5 136q0 86 59 138t148 52q88 0 145 -52.5t57 -137.5q0 -84 -57.5 -136t-144.5 -52zM102 0v629q0 196 146.5 318t386.5 122q136 0 245 -38.5t176.5 -120t67.5 -195.5q0 -103 -62.5 -180.5t-165 -116.5t-228.5 -39h-207v-100h239
q191 0 363 30v-309h-961zM461 596h155q74 0 112 22t38 74q0 50 -40 76.5t-105 26.5q-69 0 -114.5 -38t-45.5 -98v-63z" />
    <glyph glyph-name="emacron.alt" horiz-adv-x="1177" 
d="M270 1450h703v-256h-703v256zM102 0v629q0 196 146.5 318t386.5 122q136 0 245 -38.5t176.5 -120t67.5 -195.5q0 -103 -62.5 -180.5t-165 -116.5t-228.5 -39h-207v-100h239q191 0 363 30v-309h-961zM461 596h155q74 0 112 22t38 74q0 50 -40 76.5t-105 26.5
q-69 0 -114.5 -38t-45.5 -98v-63z" />
    <glyph glyph-name="eogonek.alt" horiz-adv-x="1177" 
d="M1063 -496q-84 -32 -148 -32q-106 0 -183.5 55.5t-94.5 153.5q-28 188 137 319h-672v629q0 196 146.5 318t386.5 122q136 0 245 -38.5t176.5 -120t67.5 -195.5q0 -103 -62.5 -180.5t-165 -116.5t-228.5 -39h-207v-100h239q191 0 363 30v-309q-85 -39 -132.5 -101.5
t-29.5 -140.5q7 -33 34 -52t62 -19q36 0 66 12v-195zM461 596h155q74 0 112 22t38 74q0 50 -40 76.5t-105 26.5q-69 0 -114.5 -38t-45.5 -98v-63z" />
    <glyph glyph-name="eacute.alt2" horiz-adv-x="1191" 
d="M586 1464h436l-324 -286h-307zM117 0v1047h983v-281q0 -184 -123 -287.5t-328 -103.5h-170v-111h596v-264h-958zM752 795h-273v-181h142q56 0 93.5 33t37.5 86v62z" />
    <glyph glyph-name="ecircumflex.alt2" horiz-adv-x="1191" 
d="M745 1178l-129 114l-129 -114h-299l242 286h375l242 -286h-302zM117 0v1047h983v-281q0 -184 -123 -287.5t-328 -103.5h-170v-111h596v-264h-958zM752 795h-273v-181h142q56 0 93.5 33t37.5 86v62z" />
    <glyph glyph-name="edieresis.alt2" horiz-adv-x="1191" 
d="M406 1171q-75 0 -122.5 45t-47.5 117q0 71 47.5 115.5t122.5 44.5q73 0 119 -44.5t46 -115.5q0 -72 -46 -117t-119 -45zM838 1171q-75 0 -122.5 45t-47.5 117q0 71 47.5 115.5t122.5 44.5q73 0 119.5 -44.5t46.5 -115.5q0 -72 -46 -117t-120 -45zM117 0v1047h983v-281
q0 -184 -123 -287.5t-328 -103.5h-170v-111h596v-264h-958zM752 795h-273v-181h142q56 0 93.5 33t37.5 86v62z" />
    <glyph glyph-name="egrave.alt2" horiz-adv-x="1191" 
d="M221 1464h436l195 -286h-307zM117 0v1047h983v-281q0 -184 -123 -287.5t-328 -103.5h-170v-111h596v-264h-958zM752 795h-273v-181h142q56 0 93.5 33t37.5 86v62z" />
    <glyph glyph-name="ebreve.alt2" horiz-adv-x="1191" 
d="M616 1384q43 0 74 26t35 67h260q-6 -141 -109.5 -230.5t-261.5 -89.5q-156 0 -258 90t-108 230h260q5 -41 34.5 -67t73.5 -26zM117 0v1047h983v-281q0 -184 -123 -287.5t-328 -103.5h-170v-111h596v-264h-958zM752 795h-273v-181h142q56 0 93.5 33t37.5 86v62z" />
    <glyph glyph-name="ecaron.alt2" horiz-adv-x="1191" 
d="M1059 1464l-254 -286h-375l-254 286h311l129 -114l129 114h314zM117 0v1047h983v-281q0 -184 -123 -287.5t-328 -103.5h-170v-111h596v-264h-958zM752 795h-273v-181h142q56 0 93.5 33t37.5 86v62z" />
    <glyph glyph-name="edotaccent.alt2" horiz-adv-x="1191" 
d="M610 1174q-88 0 -147.5 52t-59.5 136q0 86 59 138t148 52q88 0 145.5 -52.5t57.5 -137.5q0 -84 -57.5 -136t-145.5 -52zM117 0v1047h983v-281q0 -184 -123 -287.5t-328 -103.5h-170v-111h596v-264h-958zM752 795h-273v-181h142q56 0 93.5 33t37.5 86v62z" />
    <glyph glyph-name="emacron.alt2" horiz-adv-x="1191" 
d="M260 1450h703v-256h-703v256zM117 0v1047h983v-281q0 -184 -123 -287.5t-328 -103.5h-170v-111h596v-264h-958zM752 795h-273v-181h142q56 0 93.5 33t37.5 86v62z" />
    <glyph glyph-name="eogonek.alt2" horiz-adv-x="1191" 
d="M117 0v1047h983v-281q0 -184 -123 -287.5t-328 -103.5h-170v-111h596v-264q-85 -39 -132.5 -101.5t-29.5 -140.5q7 -33 34.5 -52t62.5 -19t65 12v-195q-84 -32 -147 -32q-106 0 -184 55.5t-95 153.5q-28 188 137 319h-669zM752 795h-273v-181h142q56 0 93.5 33t37.5 86
v62z" />
    <glyph glyph-name="hbar.alt2" horiz-adv-x="1263" 
d="M690 1178h-211v-131h666v-1047h-363v729h-303v-729h-362v1178h-158v219h158v139h362v-139h211v-219z" />
    <glyph glyph-name="hcircumflex.alt2" horiz-adv-x="1263" 
d="M745 1649l-129 114l-129 -114h-299l242 286h375l242 -286h-302zM479 1536v-489h666v-1047h-363v729h-303v-729h-362v1536h362z" />
    <glyph glyph-name="i.dot" horiz-adv-x="595" 
d="M299 1174q-89 0 -148 51.5t-59 136.5q0 86 58.5 138t148.5 52q87 0 145 -52.5t58 -137.5q0 -83 -58.5 -135.5t-144.5 -52.5zM115 0v1047h364v-1047h-364z" />
    <glyph glyph-name="ntilde.alt2" horiz-adv-x="1263" 
d="M793 1169q-53 0 -147 27t-116 27q-30 0 -49.5 -16.5t-19.5 -45.5h-174q0 146 66 229t184 83q52 0 151.5 -27t114.5 -27q30 0 49.5 16.5t19.5 43.5h175q5 -141 -64 -225.5t-190 -84.5zM117 0v1047h1028v-1047h-363v729h-303v-729h-362z" />
    <glyph glyph-name="nacute.alt2" horiz-adv-x="1263" 
d="M600 1464h436l-323 -286h-307zM117 0v1047h1028v-1047h-363v729h-303v-729h-362z" />
    <glyph glyph-name="ncaron.alt2" horiz-adv-x="1263" 
d="M1077 1464l-254 -286h-374l-254 286h311l129 -114l129 114h313zM117 0v1047h1028v-1047h-363v729h-303v-729h-362z" />
    <glyph glyph-name="ncommaaccent.alt2" horiz-adv-x="1263" 
d="M117 0v1047h1028v-1047h-363v729h-303v-729h-362zM477 -111h332l-231 -374h-213z" />
    <glyph glyph-name="racute.alt" horiz-adv-x="913" 
d="M467 1464h436l-323 -286h-308zM920 831l-441 -374v-457h-362v1047h362v-158l221 186z" />
    <glyph glyph-name="rcaron.alt" horiz-adv-x="913" 
d="M940 1464l-254 -286h-375l-254 286h312l129 -114l129 114h313zM920 831l-441 -374v-457h-362v1047h362v-158l221 186z" />
    <glyph glyph-name="rcommaaccent.alt" horiz-adv-x="913" 
d="M920 831l-441 -374v-457h-362v1047h362v-158l221 186zM158 -111h331l-231 -374h-213z" />
    <glyph glyph-name="racute.alt2" horiz-adv-x="856" 
d="M449 1464h436l-324 -286h-307zM117 0v1047h698v-318h-336v-729h-362z" />
    <glyph glyph-name="rcaron.alt2" horiz-adv-x="856" 
d="M936 1464l-254 -286h-375l-254 286h312l129 -114l129 114h313zM117 0v1047h698v-318h-336v-729h-362z" />
    <glyph glyph-name="rcommaaccent.alt2" horiz-adv-x="856" 
d="M117 0v1047h698v-318h-336v-729h-362zM166 -111h332l-232 -374h-213z" />
    <glyph glyph-name="caron.alt" horiz-adv-x="710" 
d="M350 1122h-217l62 414h319z" />
    <glyph glyph-name="revcommaaccent" horiz-adv-x="1226" 
d="M670 1540h213l-111 -377h-334z" />
    <glyph glyph-name="ampersand.alt" horiz-adv-x="1593" 
d="M84 471q0 186 108.5 317.5t284.5 176.5l-377 571h1039v-295h-432l399 -608q70 175 86 391h332q-39 -434 -215 -698l213 -326h-412l-53 82q-181 -105 -414 -105q-155 0 -280.5 56.5t-202 170.5t-76.5 267zM453 485q0 -89 60.5 -142.5t154.5 -53.5q121 0 215 57l-238 361
q-86 -12 -139 -73t-53 -149z" />
    <glyph glyph-name="Omega" horiz-adv-x="1470" 
d="M1339 0h-555v555q106 45 165 139t59 215q0 131 -75 217t-198 86q-124 0 -198 -87t-74 -220q0 -121 55.5 -214t159.5 -136v-555h-555v305h266v90q-141 92 -220 230.5t-79 312.5q0 138 49.5 255t135.5 197t204.5 124.5t255.5 44.5q183 0 329.5 -75t231 -215.5t84.5 -322.5
q0 -177 -81.5 -319t-225.5 -234v-88h266v-305z" />
    <glyph glyph-name="Delta" horiz-adv-x="1611" 
d="M797 1581l807 -1581h-1596zM543 309h526l-270 551z" />
    </font>
</defs>
</svg>
