<?xml version="1.0" standalone="no"?>
<!DOCTYPE svg PUBLIC "-//W3C//DTD SVG 1.1//EN" "http://www.w3.org/Graphics/SVG/1.1/DTD/svg11.dtd" >
<svg xmlns="http://www.w3.org/2000/svg" xmlns:xlink="http://www.w3.org/1999/xlink" version="1.1">
<metadata>
Created by FontForge 20170731 at Sat May 21 23:58:19 2022
 By Aleksey,,,
Copyright 2017 Indian Type Foundry
</metadata>
<defs>
<font id="Ekster-Regular" horiz-adv-x="1306" >
  <font-face 
    font-family="Ekster"
    font-weight="400"
    font-stretch="normal"
    units-per-em="2048"
    panose-1="2 0 5 0 3 0 0 2 0 0"
    ascent="1638"
    descent="-410"
    x-height="1010"
    cap-height="1536"
    bbox="-215 -676 2738 1960"
    underline-thickness="20"
    underline-position="-266"
    unicode-range="U+0020-FB02"
  />
<missing-glyph horiz-adv-x="1138" 
d="M154 0v1536h831v-1536h-831zM246 86h647v1364h-647v-1364zM788 629l-73 -74l-142 141l-141 -141l-72 74l142 141l-142 139l72 74l141 -141l142 141l73 -74l-141 -139z" />
    <glyph glyph-name="fi" unicode="fi" horiz-adv-x="1200" 
d="M676 856h-340v-856h-166v1180q0 167 96.5 270.5t261.5 103.5q97 0 172 -38v-162q-70 41 -157 41q-95 0 -151 -57.5t-56 -151.5v-176h340v-154zM946 1200q-46 0 -78 32.5t-32 78.5t32 78t78 32q44 0 76.5 -32.5t32.5 -77.5q0 -46 -32.5 -78.5t-76.5 -32.5zM862 0v1010h168
v-1010h-168z" />
    <glyph glyph-name="fl" unicode="fl" horiz-adv-x="1200" 
d="M676 856h-340v-856h-166v1188q0 164 94 265t256 101q100 0 172 -38v-162q-67 41 -157 41t-144.5 -55.5t-54.5 -145.5v-184h340v-154zM862 0v1536h168v-1536h-168z" />
    <glyph glyph-name=".notdef" horiz-adv-x="1138" 
d="M154 0v1536h831v-1536h-831zM246 86h647v1364h-647v-1364zM788 629l-73 -74l-142 141l-141 -141l-72 74l142 141l-142 139l72 74l141 -141l142 141l73 -74l-141 -139z" />
    <glyph glyph-name=".null" horiz-adv-x="0" 
 />
    <glyph glyph-name="nonmarkingreturn" horiz-adv-x="682" 
 />
    <glyph glyph-name="space" unicode=" " horiz-adv-x="468" 
 />
    <glyph glyph-name="exclam" unicode="!" horiz-adv-x="587" 
d="M201 1536h186v-473l-27 -602h-131l-28 602v473zM295 219q53 0 86 -33.5t33 -85.5q0 -54 -33 -86t-86 -32q-55 0 -89 32.5t-34 85.5q0 52 34.5 85.5t88.5 33.5z" />
    <glyph glyph-name="quotedbl" unicode="&#x22;" horiz-adv-x="708" 
d="M125 1047v489h158v-489h-158zM426 1047v489h158v-489h-158z" />
    <glyph glyph-name="numbersign" unicode="#" horiz-adv-x="1427" 
d="M612 0l125 406h-278l-125 -406h-166l125 406h-248v153h295l139 445h-276v153h323l117 379h166l-117 -379h279l116 379h166l-116 -379h243v-153h-290l-140 -445h273v-153h-320l-125 -406h-166zM506 559h278l140 445h-279z" />
    <glyph glyph-name="dollar" unicode="$" horiz-adv-x="1114" 
d="M1042 426q0 -173 -101 -285t-269 -147v-260h-168v248q-243 10 -418 151v219q208 -205 455 -205q86 0 155 25.5t113.5 82.5t44.5 138q0 79 -42 133.5t-148 106.5l-283 137q-130 64 -193 152.5t-63 224.5q0 164 106 270.5t273 130.5v250h168v-248q168 -15 303 -110v-203
q-176 156 -381 156q-123 0 -205 -61.5t-82 -174.5q0 -76 43 -131.5t137 -99.5l306 -150q126 -62 187.5 -147.5t61.5 -202.5z" />
    <glyph glyph-name="percent" unicode="%" horiz-adv-x="1925" 
d="M451 821q-166 0 -274.5 104.5t-108.5 262.5t108.5 262t274.5 104q164 0 272 -104t108 -262t-108 -262.5t-272 -104.5zM424 0h-168l1253 1536h168zM451 1423q-103 0 -170.5 -67t-67.5 -168t67.5 -168.5t170.5 -67.5q101 0 168 67.5t67 168.5t-67 168t-168 67zM1477 -18
q-166 0 -274.5 104t-108.5 262t108.5 261.5t274.5 103.5q164 0 272.5 -103.5t108.5 -261.5t-108.5 -262t-272.5 -104zM1712 348q0 101 -67 167.5t-168 66.5q-103 0 -170.5 -66.5t-67.5 -167.5q0 -102 67.5 -169.5t170.5 -67.5q101 0 168 68t67 169z" />
    <glyph glyph-name="ampersand" unicode="&#x26;" horiz-adv-x="1454" 
d="M1233 0l-184 182q-184 -200 -451 -200q-215 0 -356.5 121t-141.5 325q0 254 267 418l10 6q-123 156 -123 326q0 171 116 273.5t289 102.5q169 0 280.5 -104.5t111.5 -273.5h-164q-3 100 -69 162.5t-165 62.5q-98 0 -163.5 -61.5t-65.5 -161.5q0 -93 48 -171.5t134 -164.5
l416 -418q76 140 117 364h166q-46 -288 -166 -483l305 -305h-211zM281 438q0 -134 91.5 -214.5t231.5 -80.5q194 0 330 152l-451 442l-39 -22q-163 -105 -163 -277z" />
    <glyph glyph-name="quotesingle" unicode="'" horiz-adv-x="409" 
d="M125 1047v489h158v-489h-158z" />
    <glyph glyph-name="parenleft" unicode="(" horiz-adv-x="815" 
d="M141 633q0 170 38 323.5t113 283t193 228t271 150.5v-166q-221 -91 -331 -304t-110 -515q0 -301 110 -512.5t331 -302.5v-166q-153 52 -271 150t-193 227.5t-113 282t-38 321.5z" />
    <glyph glyph-name="parenright" unicode=")" horiz-adv-x="815" 
d="M674 633q0 -169 -38 -321.5t-113 -282t-193 -227.5t-271 -150v166q221 91 331 302.5t110 512.5q0 302 -110 515t-331 304v166q153 -52 271 -150.5t193 -228t113 -283t38 -323.5z" />
    <glyph glyph-name="asterisk" unicode="*" horiz-adv-x="948" 
d="M397 1536h154l-37 -324l262 193l76 -131l-297 -133l297 -131l-76 -131l-262 192l37 -323h-154l35 323l-262 -192l-76 131l297 131l-297 133l76 131l262 -193z" />
    <glyph glyph-name="plus" unicode="+" horiz-adv-x="1161" 
d="M1024 700h-367v-368h-155v368h-365v154h365v367h155v-367h367v-154z" />
    <glyph glyph-name="comma" unicode="," horiz-adv-x="458" 
d="M164 -307h-123l152 291q-89 32 -89 116q0 54 36.5 87.5t90.5 33.5q57 0 92 -35.5t35 -91.5q0 -55 -41 -125z" />
    <glyph glyph-name="hyphen" unicode="-" horiz-adv-x="819" 
d="M102 524v154h615v-154h-615z" />
    <glyph glyph-name="period" unicode="." horiz-adv-x="458" 
d="M229 -18q-53 0 -86.5 32.5t-33.5 85.5q0 52 33.5 85.5t86.5 33.5q54 0 87.5 -33t33.5 -86q0 -54 -33.5 -86t-87.5 -32z" />
    <glyph glyph-name="slash" unicode="/" horiz-adv-x="1083" 
d="M172 -348h-166l903 2009h168z" />
    <glyph glyph-name="zero" unicode="0" horiz-adv-x="1329" 
d="M1233 772q0 -107 -15.5 -205.5t-45.5 -187t-78 -161t-109.5 -125.5t-143.5 -82t-177 -29q-141 0 -251.5 63.5t-179 173.5t-104 251t-35.5 302q0 127 22 242t68 214t112.5 171.5t160.5 113.5t207 41q140 0 250.5 -63t179 -172t104 -248t35.5 -299zM664 143
q84 0 150.5 34.5t110.5 93t73.5 140t42 171t12.5 190.5q0 99 -13 187.5t-42.5 168t-74 137.5t-111 92t-148.5 34q-102 0 -179.5 -51t-122 -139.5t-66.5 -196t-22 -232.5q0 -127 21 -236t65.5 -199t122 -142t181.5 -52z" />
    <glyph glyph-name="one" unicode="1" horiz-adv-x="724" 
d="M381 0v1309l-340 -164v176l512 248v-1569h-172z" />
    <glyph glyph-name="two" unicode="2" horiz-adv-x="1110" 
d="M1067 152v-152h-1038l563 696q4 5 33.5 40.5t35.5 44t31 40.5t32.5 45t25.5 42.5t24.5 48t16.5 45.5t13 52.5t3 51.5q0 128 -87.5 207.5t-219.5 79.5q-197 0 -396 -183v197q198 147 410 147q202 0 336.5 -120t134.5 -314q0 -70 -18.5 -138t-55 -133t-73 -116t-90.5 -117
l-381 -464h700z" />
    <glyph glyph-name="three" unicode="3" horiz-adv-x="1095" 
d="M1014 430q0 -85 -28.5 -158t-79.5 -125.5t-119.5 -90t-149 -56t-168.5 -18.5q-207 0 -408 122v191q203 -156 426 -156q149 0 248 78.5t99 216.5q0 141 -104 215t-257 72q-72 0 -160 -10v151l154 25q137 22 219 88.5t82 183.5q0 109 -77.5 171.5t-192.5 62.5
q-223 0 -392 -166v182q171 145 398 145q188 0 313 -108t125 -287q0 -221 -244 -338q151 -50 233.5 -151.5t82.5 -239.5z" />
    <glyph glyph-name="four" unicode="4" horiz-adv-x="1222" 
d="M1188 375h-195v-375h-174v375h-792l602 1161h186l-514 -1001h518v460h174v-460h195v-160z" />
    <glyph glyph-name="five" unicode="5" horiz-adv-x="1126" 
d="M1053 479q0 -226 -158 -361.5t-397 -135.5q-205 0 -392 108v184q170 -135 388 -135q164 0 272 92.5t108 247.5q0 153 -102 246.5t-260 93.5q-171 0 -360 -84v801h835v-154h-670v-456q107 41 240 41q218 0 357 -136t139 -352z" />
    <glyph glyph-name="six" unicode="6" horiz-adv-x="1171" 
d="M1112 487q0 -226 -150 -365.5t-380 -139.5q-224 0 -370 133t-146 350q0 189 118 366l465 705h197l-397 -592q86 27 161 27q219 0 360.5 -134.5t141.5 -349.5zM582 143q153 0 251.5 96t98.5 248q0 150 -98 243t-250 93q-150 0 -244 -94q-98 -103 -98 -254
q0 -147 95.5 -239.5t244.5 -92.5z" />
    <glyph glyph-name="seven" unicode="7" horiz-adv-x="1093" 
d="M1083 1536l-784 -1536h-188l702 1376h-774v160h1044z" />
    <glyph glyph-name="eight" unicode="8" horiz-adv-x="1196" 
d="M598 -18q-108 0 -203 30t-167.5 86t-114 142t-41.5 192q0 142 85.5 247t223.5 148q-102 40 -168 129t-66 203q0 121 61 212t162.5 137t227.5 46t227.5 -46t162.5 -137t61 -212q0 -113 -66 -202t-168 -130q138 -42 222.5 -147t84.5 -248q0 -106 -41.5 -192t-113 -142
t-166.5 -86t-203 -30zM874 1145q0 113 -78 180.5t-198 67.5t-198 -67.5t-78 -180.5q0 -116 78.5 -185t197.5 -69t197.5 69t78.5 185zM944 440q0 136 -99.5 214.5t-246.5 78.5t-246.5 -78.5t-99.5 -214.5q0 -139 99 -218t247 -79t247 79t99 218z" />
    <glyph glyph-name="nine" unicode="9" horiz-adv-x="1171" 
d="M985 702l-465 -702h-194l395 590q-86 -27 -162 -27q-219 0 -360.5 134.5t-141.5 349.5q0 226 150.5 366.5t382.5 140.5q223 0 368.5 -134t145.5 -351q0 -189 -119 -367zM588 1391q-153 0 -251.5 -96t-98.5 -248q0 -150 98 -243t250 -93q170 0 268 118q74 92 74 228
q0 148 -95.5 241t-244.5 93z" />
    <glyph glyph-name="colon" unicode=":" horiz-adv-x="499" 
d="M250 739q-53 0 -87 33.5t-34 85.5q0 54 34 87.5t87 33.5q54 0 87.5 -33.5t33.5 -87.5q0 -53 -33.5 -86t-87.5 -33zM250 -18q-53 0 -87 32.5t-34 85.5q0 52 34 85.5t87 33.5q54 0 87.5 -33t33.5 -86q0 -54 -33.5 -86t-87.5 -32z" />
    <glyph glyph-name="semicolon" unicode=";" horiz-adv-x="499" 
d="M262 739q-54 0 -88.5 33.5t-34.5 85.5q0 54 34.5 87.5t88.5 33.5q53 0 86 -33.5t33 -87.5q0 -52 -33.5 -85.5t-85.5 -33.5zM184 -307h-121l152 291q-90 31 -90 116q0 54 37.5 87.5t91.5 33.5q57 0 92 -35.5t35 -91.5q0 -55 -41 -125z" />
    <glyph glyph-name="less" unicode="&#x3c;" horiz-adv-x="1161" 
d="M958 467v-166l-774 387v160l774 391v-166l-624 -303z" />
    <glyph glyph-name="equal" unicode="=" horiz-adv-x="1161" 
d="M137 903v154h887v-154h-887zM137 473v154h887v-154h-887z" />
    <glyph glyph-name="greater" unicode="&#x3e;" horiz-adv-x="1161" 
d="M977 688l-776 -387v166l624 303l-624 303v166l776 -391v-160z" />
    <glyph glyph-name="question" unicode="?" horiz-adv-x="1083" 
d="M698 745l-133 -47l-10 -237h-143l-15 342l191 59q113 36 179.5 107.5t66.5 175.5q0 116 -81 186t-206 70q-140 0 -228 -79t-88 -210h-168q0 200 137 321t349 121q130 0 233.5 -48t163.5 -141.5t60 -217.5q0 -139 -82.5 -243.5t-225.5 -158.5zM481 -18q-53 0 -87 32.5
t-34 85.5q0 52 34 85.5t87 33.5q54 0 87.5 -33t33.5 -86q0 -54 -33.5 -86t-87.5 -32z" />
    <glyph glyph-name="at" unicode="@" horiz-adv-x="1908" 
d="M1339 -201q-190 -90 -413 -90q-234 0 -419 102t-288.5 286t-103.5 417q0 178 63 330t174 257t266 164.5t334 59.5q239 0 430.5 -98.5t301.5 -281t110 -417.5q0 -95 -19.5 -176.5t-59 -147t-106.5 -103.5t-155 -38t-151 47.5t-80 127.5q-47 -89 -129 -141t-189 -52
q-190 0 -307 131t-117 328q0 200 116 332.5t308 132.5q106 0 185.5 -48.5t126.5 -134.5v164h149v-639q0 -56 34.5 -88.5t86.5 -32.5q184 0 184 338q0 151 -54.5 278.5t-150 215.5t-228.5 137t-286 49q-204 0 -366.5 -87t-255 -245.5t-92.5 -361.5q0 -302 193 -495t495 -193
q221 0 413 94v-121zM1217 504q0 139 -81.5 230t-215.5 91q-130 0 -207.5 -91t-77.5 -230q0 -135 78 -225.5t207 -90.5q133 0 215 89.5t82 226.5z" />
    <glyph glyph-name="A" unicode="A" horiz-adv-x="1490" 
d="M1270 0l-152 342h-753l-154 -342h-195l732 1569l725 -1569h-203zM434 496h615l-306 684z" />
    <glyph glyph-name="B" unicode="B" horiz-adv-x="1251" 
d="M170 0v1536h459q193 0 318.5 -111.5t125.5 -296.5q0 -209 -186 -309q130 -46 206 -145t76 -240q0 -135 -67.5 -235t-178.5 -149.5t-249 -49.5h-504zM616 1376h-272v-502h287q120 0 191 69t71 185q0 115 -76.5 181.5t-200.5 66.5zM686 715h-342v-557h342q138 0 220.5 73.5
t82.5 202.5q0 128 -82 204.5t-221 76.5z" />
    <glyph glyph-name="C" unicode="C" horiz-adv-x="1423" 
d="M846 -18q-223 0 -398 100.5t-271.5 280t-96.5 405.5q0 171 58 317t160 249t247 161.5t313 58.5q292 0 490 -161v-209q-95 102 -225.5 154.5t-278.5 52.5q-172 0 -306 -82t-206 -223.5t-72 -317.5q0 -178 75 -320.5t212 -223.5t311 -81q316 0 508 183v-195
q-211 -149 -520 -149z" />
    <glyph glyph-name="D" unicode="D" horiz-adv-x="1576" 
d="M170 0v1536h526q234 0 415.5 -94.5t282.5 -269.5t101 -404t-100 -404t-280.5 -269.5t-414.5 -94.5h-530zM711 1378h-367v-1222h367q278 0 442 165.5t164 446.5q0 280 -164 445t-442 165z" />
    <glyph glyph-name="E" unicode="E" horiz-adv-x="1150" 
d="M170 0v1536h903v-160h-729v-516h643v-158h-643v-544h752v-158h-926z" />
    <glyph glyph-name="F" unicode="F" horiz-adv-x="1083" 
d="M170 0v1536h874v-160h-700v-569h614v-160h-614v-647h-174z" />
    <glyph glyph-name="G" unicode="G" horiz-adv-x="1570" 
d="M1462 174q-273 -192 -610 -192q-225 0 -401.5 101t-273.5 280.5t-97 406.5q0 170 58.5 316t162 248.5t249.5 161t316 58.5q317 0 529 -174v-206q-200 219 -531 219q-175 0 -313.5 -80.5t-214.5 -222.5t-76 -320t76 -321t215 -224.5t315 -81.5q239 0 422 121v410h-471v153
h645v-653z" />
    <glyph glyph-name="H" unicode="H" horiz-adv-x="1574" 
d="M1231 0v729h-887v-729h-174v1536h174v-653h887v653h174v-1536h-174z" />
    <glyph glyph-name="I" unicode="I" horiz-adv-x="514" 
d="M170 0v1536h174v-1536h-174z" />
    <glyph glyph-name="J" unicode="J" horiz-adv-x="907" 
d="M317 -18q-78 0 -153.5 24t-128.5 64v182q62 -51 139 -79t143 -28q121 0 188.5 68t67.5 188v1135h175v-1112q0 -212 -114 -327t-317 -115z" />
    <glyph glyph-name="K" unicode="K" horiz-adv-x="1343" 
d="M1126 0l-559 764l-223 -244v-520h-174v1536h174v-776l707 776h221l-588 -643l651 -893h-209z" />
    <glyph glyph-name="L" unicode="L" horiz-adv-x="1105" 
d="M1067 158v-158h-897v1536h174v-1378h723z" />
    <glyph glyph-name="M" unicode="M" horiz-adv-x="1933" 
d="M967 289l-623 790v-1079h-174v1569l803 -1014l790 1014v-1569h-174v1067z" />
    <glyph glyph-name="N" unicode="N" horiz-adv-x="1601" 
d="M1432 -33l-1088 1176v-1143h-174v1569l1087 -1178v1145h175v-1569z" />
    <glyph glyph-name="O" unicode="O" horiz-adv-x="1730" 
d="M1649 770q0 -228 -99.5 -407.5t-278.5 -280t-407 -100.5q-171 0 -317 58.5t-248.5 162t-160.5 250t-58 317.5q0 170 58.5 316t161 248.5t248.5 161t316 58.5q169 0 315 -58.5t249 -161t162 -248.5t59 -316zM864 143q177 0 315.5 81.5t213.5 224t75 321.5q0 178 -75.5 319
t-214 221.5t-314.5 80.5q-175 0 -313.5 -80.5t-214.5 -222t-76 -318.5q0 -179 75.5 -321.5t214 -224t314.5 -81.5z" />
    <glyph glyph-name="P" unicode="P" horiz-adv-x="1200" 
d="M170 0v1536h403q246 0 398.5 -143t152.5 -381q0 -240 -154 -383.5t-401 -143.5h-225v-485h-174zM575 1376h-231v-731h231q169 0 270 100t101 267q0 166 -101 265t-270 99z" />
    <glyph glyph-name="Q" unicode="Q" horiz-adv-x="1730" 
d="M1649 770q0 -211 -86 -381t-242 -274l321 -355h-227l-246 275q-139 -53 -305 -53q-171 0 -317 58.5t-248.5 162t-160.5 250t-58 317.5q0 170 58.5 316t161 248.5t248.5 161t316 58.5q169 0 315 -58.5t249 -161t162 -248.5t59 -316zM260 770q0 -179 75.5 -321.5t214 -224
t314.5 -81.5q177 0 315.5 81.5t213.5 224t75 321.5q0 178 -75.5 319t-214 221.5t-314.5 80.5q-175 0 -313.5 -80.5t-214.5 -222t-76 -318.5z" />
    <glyph glyph-name="R" unicode="R" horiz-adv-x="1251" 
d="M344 569v-569h-174v1536h422q235 0 376.5 -130t141.5 -353q0 -167 -90.5 -286t-235.5 -167l418 -600h-209l-387 569h-262zM586 1376h-242v-649h242q158 0 251 86.5t93 239.5q0 152 -91.5 237.5t-252.5 85.5z" />
    <glyph glyph-name="S" unicode="S" horiz-adv-x="1105" 
d="M586 1395q-122 0 -204.5 -62.5t-82.5 -177.5q0 -76 43 -131.5t137 -101.5l305 -150q126 -61 188 -146t62 -204q0 -206 -142 -323t-364 -117q-278 0 -450 153v217q98 -102 216.5 -154.5t233.5 -52.5q135 0 226.5 63t91.5 181q0 82 -42 136t-149 108l-282 137
q-129 64 -192.5 151.5t-63.5 221.5q0 127 64 222t168.5 142t234.5 47q222 0 383 -114v-205q-185 160 -381 160z" />
    <glyph glyph-name="T" unicode="T" horiz-adv-x="1267" 
d="M1241 1376h-520v-1376h-174v1376h-522v160h1216v-160z" />
    <glyph glyph-name="U" unicode="U" horiz-adv-x="1548" 
d="M150 633v903h174v-905q0 -220 122.5 -354t327.5 -134q201 0 325 134.5t124 353.5v905h174v-903q0 -292 -172 -471.5t-453 -179.5q-283 0 -452.5 179t-169.5 472z" />
    <glyph glyph-name="V" unicode="V" horiz-adv-x="1488" 
d="M1468 1536l-725 -1569l-723 1569h203l525 -1176l526 1176h194z" />
    <glyph glyph-name="W" unicode="W" horiz-adv-x="2332" 
d="M2308 1536l-666 -1569l-477 1178l-479 -1178l-661 1569h198l465 -1149l483 1182l482 -1180l463 1147h192z" />
    <glyph glyph-name="X" unicode="X" horiz-adv-x="1435" 
d="M1196 0l-483 672l-471 -672h-211l575 819l-514 717h209l422 -586l401 586h209l-508 -729l580 -807h-209z" />
    <glyph glyph-name="Y" unicode="Y" horiz-adv-x="1357" 
d="M1341 1536l-571 -952v-584h-172v563l-584 973h203l463 -786l467 786h194z" />
    <glyph glyph-name="Z" unicode="Z" horiz-adv-x="1282" 
d="M1229 152v-152h-1196l909 1382h-858v154h1153l-901 -1384h893z" />
    <glyph glyph-name="bracketleft" unicode="[" horiz-adv-x="722" 
d="M182 -348v1966h469v-154h-309v-1659h309v-153h-469z" />
    <glyph glyph-name="backslash" unicode="\" horiz-adv-x="1083" 
d="M909 -348l-903 2009h166l905 -2009h-168z" />
    <glyph glyph-name="bracketright" unicode="]" horiz-adv-x="722" 
d="M539 -348h-469v153h309v1659h-309v154h469v-1966z" />
    <glyph glyph-name="asciicircum" unicode="^" horiz-adv-x="1161" 
d="M887 731l-307 651l-308 -651h-155l385 805h157l385 -805h-157z" />
    <glyph glyph-name="underscore" unicode="_" horiz-adv-x="1024" 
d="M0 -315v139h1024v-139h-1024z" />
    <glyph glyph-name="grave" unicode="`" horiz-adv-x="956" 
d="M147 1454h211l205 -285h-155z" />
    <glyph glyph-name="a" unicode="a" 
d="M969 0v172q-64 -91 -159 -140.5t-212 -49.5q-221 0 -363.5 146.5t-142.5 371.5q0 229 142.5 378.5t363.5 149.5q117 0 212 -51t159 -143v176h168v-1010h-168zM614 870q-153 0 -251.5 -104t-98.5 -264q0 -157 98.5 -260t251.5 -103q155 0 255 103t100 260q0 160 -100 264
t-255 104z" />
    <glyph glyph-name="b" unicode="b" 
d="M1212 508q0 -229 -142 -377.5t-363 -148.5q-117 0 -212 51t-159 143v-176h-166v1536h166v-700q64 92 159 142t212 50q221 0 363 -147t142 -373zM690 139q153 0 251.5 104.5t98.5 264.5q0 157 -98.5 259.5t-251.5 102.5q-154 0 -254 -102.5t-100 -259.5q0 -160 100 -264.5
t254 -104.5z" />
    <glyph glyph-name="c" unicode="c" horiz-adv-x="1050" 
d="M264 506q0 -161 104 -264t265 -103q195 0 321 109v-170q-138 -96 -338 -96q-232 0 -378 146t-146 378q0 230 149 376t380 146q188 0 323 -102v-187q-122 131 -313 131q-162 0 -264.5 -101.5t-102.5 -262.5z" />
    <glyph glyph-name="d" unicode="d" 
d="M969 0v176q-62 -92 -158 -143t-213 -51q-221 0 -363.5 146.5t-142.5 371.5q0 229 142.5 378.5t363.5 149.5q117 0 212.5 -52.5t158.5 -146.5v707h168v-1536h-168zM614 870q-153 0 -251.5 -104t-98.5 -264q0 -157 98.5 -260t251.5 -103q155 0 255 103t100 260
q0 160 -100 264t-255 104z" />
    <glyph glyph-name="e" unicode="e" horiz-adv-x="1165" 
d="M1071 524q0 -44 -6 -84h-797q19 -137 119 -220t250 -83q202 0 360 113v-160q-159 -108 -360 -108q-240 0 -392.5 142t-152.5 372q0 231 136.5 381.5t361.5 150.5q143 0 253 -65.5t169 -180t59 -258.5zM592 874q-133 0 -217 -83t-105 -216h625q-12 133 -92.5 216
t-210.5 83z" />
    <glyph glyph-name="f" unicode="f" horiz-adv-x="737" 
d="M739 856h-403v-856h-166v1186q0 164 94.5 266t257.5 102q144 0 248 -71v-168q-105 80 -235 80q-90 0 -144.5 -55.5t-54.5 -145.5v-184h403v-154z" />
    <glyph glyph-name="g" unicode="g" 
d="M1137 -6q0 -251 -139.5 -386.5t-393.5 -135.5q-226 0 -405 129v184q83 -76 190.5 -115t214.5 -39q177 0 271 90t94 261v190q-64 -91 -159 -140.5t-212 -49.5q-220 0 -363 147t-143 371q0 229 143 378.5t363 149.5q117 0 212 -51t159 -143v176h168v-1016zM969 502
q0 160 -100 264t-255 104q-153 0 -251.5 -104t-98.5 -264q0 -157 98.5 -260t251.5 -103q155 0 255 103t100 260z" />
    <glyph glyph-name="h" unicode="h" horiz-adv-x="1224" 
d="M336 506v-506h-166v1536h166v-698q58 90 147.5 140t202.5 50q185 0 287 -120.5t102 -313.5v-594h-168v565q0 301 -262 301q-137 0 -223 -103t-86 -257z" />
    <glyph glyph-name="i" unicode="i" horiz-adv-x="503" 
d="M252 1200q-46 0 -78.5 32.5t-32.5 78.5t32.5 78t78.5 32q44 0 76 -32t32 -78t-32 -78.5t-76 -32.5zM168 0v1010h168v-1010h-168z" />
    <glyph glyph-name="j" unicode="j" horiz-adv-x="503" 
d="M252 1200q-46 0 -77.5 32.5t-31.5 78.5t31.5 78t77.5 32t78 -32t32 -78t-32 -78.5t-78 -32.5zM43 -530q-87 0 -172 45v153q68 -41 137 -41q74 0 118 45.5t44 126.5v1211h166v-1207q0 -154 -76.5 -243.5t-216.5 -89.5z" />
    <glyph glyph-name="k" unicode="k" horiz-adv-x="1067" 
d="M848 0l-352 492l-160 -166v-326h-166v1536h166v-997l463 471h198l-387 -400l443 -610h-205z" />
    <glyph glyph-name="l" unicode="l" horiz-adv-x="505" 
d="M170 0v1536h166v-1536h-166z" />
    <glyph glyph-name="m" unicode="m" horiz-adv-x="1861" 
d="M336 506v-506h-166v1010h166v-166q57 87 141 135.5t189 48.5q112 0 192 -54t123 -151q57 96 149 150.5t209 54.5q176 0 274.5 -121t98.5 -313v-594h-168v565q0 301 -239 301q-124 0 -202.5 -99.5t-78.5 -246.5v-520h-168v565q0 301 -238 301q-125 0 -203.5 -103
t-78.5 -257z" />
    <glyph glyph-name="n" unicode="n" horiz-adv-x="1224" 
d="M336 506v-506h-166v1010h166v-172q58 90 147.5 140t202.5 50q185 0 287 -120.5t102 -313.5v-594h-168v565q0 301 -262 301q-137 0 -223 -103t-86 -257z" />
    <glyph glyph-name="o" unicode="o" horiz-adv-x="1234" 
d="M623 -18q-231 0 -381 149t-150 377q0 225 150 372.5t381 147.5q227 0 373.5 -147t146.5 -373q0 -229 -146.5 -377.5t-373.5 -148.5zM971 508q0 157 -98.5 259.5t-251.5 102.5q-155 0 -256 -102.5t-101 -259.5q0 -160 101 -264.5t256 -104.5q153 0 251.5 104.5t98.5 264.5
z" />
    <glyph glyph-name="p" unicode="p" 
d="M707 -18q-115 0 -211 51t-160 143v-688h-166v1522h166v-174q64 91 160 141.5t211 50.5q220 0 362.5 -147.5t142.5 -372.5q0 -229 -142 -377.5t-363 -148.5zM1040 508q0 157 -98.5 259.5t-251.5 102.5q-154 0 -254 -102.5t-100 -259.5q0 -160 100 -264.5t254 -104.5
q153 0 251.5 104.5t98.5 264.5z" />
    <glyph glyph-name="q" unicode="q" 
d="M1137 1010v-1522h-168v684q-64 -91 -159 -140.5t-212 -49.5q-220 0 -363 147t-143 371q0 229 143 378.5t363 149.5q117 0 212 -51t159 -143v176h168zM614 870q-153 0 -251.5 -104t-98.5 -264q0 -157 98.5 -260t251.5 -103q155 0 255 103t100 260q0 160 -100 264t-255 104
z" />
    <glyph glyph-name="r" unicode="r" horiz-adv-x="712" 
d="M336 481v-481h-166v1010h166v-215q60 113 154.5 173t214.5 60v-190q-155 22 -262 -76t-107 -281z" />
    <glyph glyph-name="s" unicode="s" horiz-adv-x="894" 
d="M94 264q154 -145 344 -145q92 0 148.5 38t56.5 105q0 87 -104 129l-240 96q-97 42 -143.5 100.5t-46.5 153.5q0 131 95.5 209t250.5 78q185 0 307 -92v-174q-69 61 -149.5 95t-155.5 34q-81 0 -132 -35.5t-51 -95.5q0 -46 25 -76t84 -53l240 -96q188 -80 188 -242
q0 -143 -104 -227t-271 -84q-206 0 -342 102v180z" />
    <glyph glyph-name="t" unicode="t" horiz-adv-x="790" 
d="M750 53q-97 -71 -250 -71q-169 0 -257.5 86t-88.5 282v981h165v-321h418v-154h-418v-518q0 -100 53.5 -148.5t141.5 -48.5q132 0 236 74v-162z" />
    <glyph glyph-name="u" unicode="u" horiz-adv-x="1169" 
d="M864 428v582h166v-566q0 -214 -120.5 -338t-325.5 -124t-325 124t-120 338v566h166v-582q0 -141 76 -215t203 -74q128 0 204 74t76 215z" />
    <glyph glyph-name="v" unicode="v" horiz-adv-x="1056" 
d="M1040 1010l-510 -1043l-516 1043h197l328 -695l323 695h178z" />
    <glyph glyph-name="w" unicode="w" horiz-adv-x="1658" 
d="M1640 1010l-442 -1043l-360 744l-365 -744l-455 1043h191l283 -678l344 712l346 -710l280 676h178z" />
    <glyph glyph-name="x" unicode="x" horiz-adv-x="1067" 
d="M836 0l-316 401l-303 -401h-194l397 528l-379 482h207l280 -357l269 357h194l-362 -486l413 -524h-206z" />
    <glyph glyph-name="y" unicode="y" horiz-adv-x="1050" 
d="M1034 1010l-731 -1522h-176l324 672l-439 850h199l330 -664l317 664h176z" />
    <glyph glyph-name="z" unicode="z" horiz-adv-x="950" 
d="M895 152v-152h-854l573 856h-530v154h805l-563 -858h569z" />
    <glyph glyph-name="braceleft" unicode="{" horiz-adv-x="839" 
d="M768 -348h-119q-147 0 -237 76t-90 223v401q0 94 -46.5 153.5t-134.5 65.5v138q84 4 132.5 55t48.5 135v406q0 151 92.5 232t249.5 81h104v-154h-96q-183 0 -183 -188v-356q0 -108 -44.5 -186.5t-135.5 -100.5q91 -21 135.5 -99t44.5 -188v-352q0 -189 183 -189h96v-153z
" />
    <glyph glyph-name="bar" unicode="|" horiz-adv-x="464" 
d="M315 -676h-165v2376h165v-2376z" />
    <glyph glyph-name="braceright" unicode="}" horiz-adv-x="839" 
d="M70 -348v153h96q182 0 182 189v352q0 110 44.5 188t135.5 99q-91 22 -135.5 100.5t-44.5 186.5v356q0 188 -182 188h-96v154h104q157 0 249.5 -81t92.5 -232v-406q0 -84 48 -135t132 -55v-138q-88 -6 -134 -65.5t-46 -153.5v-401q0 -147 -90 -223t-238 -76h-118z" />
    <glyph glyph-name="asciitilde" unicode="~" horiz-adv-x="1161" 
d="M381 926q75 0 201.5 -51.5t201.5 -51.5q134 0 240 109v-170q-96 -96 -242 -96q-75 0 -201.5 50t-201.5 50q-118 0 -242 -117v170q104 107 244 107z" />
    <glyph glyph-name="uni00A0" unicode="&#xa0;" horiz-adv-x="468" 
 />
    <glyph glyph-name="exclamdown" unicode="&#xa1;" horiz-adv-x="587" 
d="M293 788q-54 0 -87.5 33.5t-33.5 87.5t33.5 86.5t87.5 32.5t87.5 -32.5t33.5 -86.5t-33.5 -87.5t-87.5 -33.5zM199 -471v420l28 600h131l27 -600v-420h-186z" />
    <glyph glyph-name="cent" unicode="&#xa2;" horiz-adv-x="1048" 
d="M954 78q-115 -76 -266 -92v-211h-166v213q-195 29 -312.5 169.5t-117.5 348.5q0 203 118.5 343t311.5 171v209h166v-205q145 -16 256 -98v-187q-122 131 -313 131q-161 0 -264 -102t-103 -262q0 -161 103 -264t264 -103q197 0 323 109v-170z" />
    <glyph glyph-name="sterling" unicode="&#xa3;" horiz-adv-x="1179" 
d="M1130 152v-152h-1056v152h155v487h-155v152h155v215q0 244 140 396t366 152q173 0 322 -88v-176q-148 105 -312 105q-162 0 -255 -103t-93 -276v-225h527v-152h-527v-487h733z" />
    <glyph glyph-name="currency" unicode="&#xa4;" horiz-adv-x="1159" 
d="M586 356q-138 0 -244 70l-139 -139l-105 106l135 135q-75 104 -75 246q0 135 69 236l-129 127l105 106l131 -127q112 72 252 72q137 0 243 -70l125 125l105 -106l-121 -121q74 -107 74 -242q0 -145 -80 -252l127 -127l-107 -104l-131 129q-103 -64 -235 -64zM326 774
q0 -116 73 -190t187 -74q113 0 185.5 74.5t72.5 189.5q0 114 -72.5 187t-185.5 73q-114 0 -187 -73t-73 -187z" />
    <glyph glyph-name="yen" unicode="&#xa5;" horiz-adv-x="1427" 
d="M1309 438h-502v-438h-174v438h-504v154h487l-131 217h-356v154h264l-342 573h203l461 -786l465 786h196l-344 -573h277v-154h-369l-131 -217h500v-154z" />
    <glyph glyph-name="brokenbar" unicode="&#xa6;" horiz-adv-x="464" 
d="M315 696h-165v1004h165v-1004zM315 -676h-165v1004h165v-1004z" />
    <glyph glyph-name="section" unicode="&#xa7;" horiz-adv-x="1316" 
d="M1067 -119q0 -97 -39 -175.5t-106 -128.5t-155 -76.5t-189 -26.5q-241 0 -418 118v205q214 -162 434 -162q79 0 142.5 23.5t105 76t41.5 126.5q0 140 -166 219l-443 215q-109 52 -159.5 137.5t-36.5 192.5q9 109 73 181.5t168 102.5q-71 93 -71 213q0 129 68 223
t177.5 139.5t245.5 45.5q237 0 416 -119v-205q-214 162 -434 162q-123 0 -206 -57.5t-83 -165.5q0 -73 45.5 -130t120.5 -93l444 -213q108 -54 157.5 -138.5t37.5 -191.5q-12 -110 -76 -183.5t-166 -101.5q72 -94 72 -213zM365 446l458 -217q71 -27 139 -6t99 88
q33 72 0.5 139t-111.5 105l-442 213q-73 36 -148 13.5t-104 -89.5q-33 -76 -2 -143t111 -103z" />
    <glyph glyph-name="dieresis" unicode="&#xa8;" horiz-adv-x="956" 
d="M281 1206q-47 0 -77 29t-30 76q0 46 30 75t77 29t75.5 -29t28.5 -75q0 -47 -28.5 -76t-75.5 -29zM676 1206q-46 0 -75.5 29t-29.5 76q0 46 29.5 75t75.5 29q47 0 75.5 -29t28.5 -75q0 -47 -28.5 -76t-75.5 -29z" />
    <glyph glyph-name="copyright" unicode="&#xa9;" horiz-adv-x="1742" 
d="M868 -18q-228 0 -406.5 99.5t-278 278t-99.5 406.5q0 227 99 406.5t278.5 280.5t406.5 101q229 0 409 -100.5t280 -280t100 -407.5q0 -171 -59 -317t-162.5 -248.5t-250 -160.5t-317.5 -58zM868 80q302 0 493 192t191 494q0 149 -50 277t-139.5 218.5t-217 141.5
t-277.5 51q-199 0 -354 -88t-240.5 -244.5t-85.5 -355.5t86 -355.5t241 -243.5t353 -87zM903 301q-208 0 -335.5 133.5t-127.5 339.5q0 202 130.5 333.5t334.5 131.5q137 0 273 -76v-153q-122 88 -265 88q-138 0 -226.5 -91t-88.5 -231q0 -146 87 -239t226 -93q148 0 269 82
v-151q-135 -74 -277 -74z" />
    <glyph glyph-name="ordfeminine" unicode="&#xaa;" horiz-adv-x="968" 
d="M721 817v117q-45 -64 -113.5 -99.5t-150.5 -35.5q-159 0 -264 106.5t-105 268.5q0 165 104.5 272.5t264.5 107.5q82 0 150.5 -36t113.5 -101v123h123v-723h-123zM467 920q112 0 183 72.5t71 183.5q0 114 -71.5 187t-182.5 73q-110 0 -181 -73t-71 -187q0 -111 71 -183.5
t181 -72.5zM145 666h701v-115h-701v115z" />
    <glyph glyph-name="guillemotleft" unicode="&#xab;" horiz-adv-x="983" 
d="M348 139l-280 412l280 397h176l-280 -397l280 -412h-176zM725 139l-283 412l283 397h176l-283 -397l283 -412h-176z" />
    <glyph glyph-name="logicalnot" unicode="&#xac;" horiz-adv-x="1161" 
d="M137 1057h887v-527h-156v373h-731v154z" />
    <glyph glyph-name="uni00AD" unicode="&#xad;" horiz-adv-x="0" 
 />
    <glyph glyph-name="registered" unicode="&#xae;" horiz-adv-x="1742" 
d="M868 -18q-228 0 -406.5 99.5t-278 278t-99.5 406.5q0 227 99 406.5t278.5 280.5t406.5 101q229 0 409 -100.5t280 -280t100 -407.5q0 -171 -59 -317t-162.5 -248.5t-250 -160.5t-317.5 -58zM868 80q302 0 493 192t191 494q0 149 -50 277t-139.5 218.5t-217 141.5
t-277.5 51q-199 0 -354 -88t-240.5 -244.5t-85.5 -355.5t86 -355.5t241 -243.5t353 -87zM573 315v918h349q134 0 222.5 -81.5t88.5 -213.5q0 -96 -51 -167.5t-138 -102.5l213 -353h-178l-186 330h-168v-330h-152zM913 1098h-188v-318h186q70 0 116 42t46 116
q0 75 -44.5 117.5t-115.5 42.5z" />
    <glyph glyph-name="macron" unicode="&#xaf;" horiz-adv-x="956" 
d="M184 1384h586v-139h-586v139z" />
    <glyph glyph-name="degree" unicode="&#xb0;" horiz-adv-x="907" 
d="M455 821q-166 0 -274.5 103.5t-108.5 263.5q0 158 108.5 262t274.5 104t273.5 -104t107.5 -262q0 -160 -107.5 -263.5t-273.5 -103.5zM690 1188q0 101 -67 168t-168 67q-103 0 -170.5 -67t-67.5 -168t67.5 -168.5t170.5 -67.5q101 0 168 67.5t67 168.5z" />
    <glyph glyph-name="plusminus" unicode="&#xb1;" horiz-adv-x="1161" 
d="M1024 895h-367v-299h-155v299h-365v154h365v299h155v-299h367v-154zM137 336v151h887v-151h-887z" />
    <glyph glyph-name="twosuperior" unicode="&#xb2;" horiz-adv-x="829" 
d="M778 705v-123h-753l378 424q49 57 68.5 81t44 60.5t32 64t7.5 60.5q0 70 -50 112.5t-128 42.5q-139 0 -289 -124v143q133 108 307 108q133 0 219 -74.5t86 -193.5q0 -70 -34.5 -137t-102.5 -150l-254 -294h469z" />
    <glyph glyph-name="threesuperior" unicode="&#xb3;" horiz-adv-x="835" 
d="M741 850q0 -71 -31 -126t-84.5 -89t-120.5 -51t-143 -17q-137 0 -278 74v143q126 -94 283 -94q98 0 163.5 41t65.5 125q0 82 -64 124t-159 40q-58 0 -144 -14v118l131 25q193 34 193 160q0 61 -45.5 92t-116.5 31q-153 0 -282 -113v137q118 98 292 98q123 0 205 -62.5
t82 -174.5q0 -75 -42.5 -131t-115.5 -88q95 -26 153 -90t58 -158z" />
    <glyph glyph-name="acute" unicode="&#xb4;" horiz-adv-x="956" 
d="M594 1454h211l-262 -285h-154z" />
    <glyph glyph-name="paragraph" unicode="&#xb6;" horiz-adv-x="1132" 
d="M684 1536v-1536h-166v739q-198 1 -316 111.5t-118 286.5t123.5 287.5t327.5 111.5h149zM872 0v1536h91v-1536h-91z" />
    <glyph glyph-name="periodcentered" unicode="&#xb7;" horiz-adv-x="956" 
d="M477 739q-45 0 -77.5 32.5t-32.5 76.5q0 46 32 78t78 32t77.5 -32t31.5 -78q0 -45 -32 -77t-77 -32z" />
    <glyph glyph-name="cedilla" unicode="&#xb8;" horiz-adv-x="956" 
d="M678 -319q0 -84 -68.5 -131.5t-171.5 -47.5q-70 0 -141 33v94q66 -37 135 -37q49 0 82 23.5t33 65.5q0 39 -30 64.5t-75 25.5q-28 0 -75 -15l-31 35l96 236h123l-76 -181q87 0 143 -44t56 -121z" />
    <glyph glyph-name="onesuperior" unicode="&#xb9;" horiz-adv-x="552" 
d="M252 578v788l-221 -96v131l360 162v-985h-139z" />
    <glyph glyph-name="ordmasculine" unicode="&#xba;" horiz-adv-x="950" 
d="M477 1554q168 0 275.5 -104.5t107.5 -271.5q0 -168 -107.5 -275.5t-275.5 -107.5q-171 0 -280 107.5t-109 275.5q0 167 109.5 271.5t279.5 104.5zM733 1178q0 114 -71 186t-185 72q-116 0 -189 -71.5t-73 -186.5q0 -116 73 -191.5t189 -75.5q114 0 185 75t71 192z
M127 551v115h700v-115h-700z" />
    <glyph glyph-name="guillemotright" unicode="&#xbb;" horiz-adv-x="983" 
d="M633 139h-176l282 412l-282 397h176l280 -397zM256 139h-176l282 412l-282 397h176l283 -397z" />
    <glyph glyph-name="onequarter" unicode="&#xbc;" horiz-adv-x="2185" 
d="M440 578v788l-221 -96v131l361 162v-985h-140zM551 0h-168l1196 1536h168zM2036 205h-127v-207h-142v207h-555l422 753h152l-350 -630h331v307h142v-307h127v-123z" />
    <glyph glyph-name="onehalf" unicode="&#xbd;" horiz-adv-x="2185" 
d="M440 578v788l-221 -96v131l361 162v-985h-140zM539 0h-168l1196 1536h168zM2064 127v-123h-753l379 424q48 56 68.5 81t44 60.5t31 63.5t7.5 61q0 70 -50.5 113t-127.5 43q-138 0 -289 -125v143q134 109 307 109q133 0 219.5 -74.5t86.5 -193.5q0 -70 -34.5 -136.5
t-103.5 -150.5l-254 -295h469z" />
    <glyph glyph-name="threequarters" unicode="&#xbe;" horiz-adv-x="2185" 
d="M788 850q0 -94 -54 -159.5t-137.5 -94.5t-186.5 -29q-138 0 -279 74v143q126 -94 283 -94q98 0 163.5 41t65.5 125q0 82 -64 124t-159 40q-58 0 -144 -14v118l132 25q192 33 192 160q0 61 -45.5 92t-116.5 31q-153 0 -282 -113v137q118 98 293 98q123 0 204.5 -62.5
t81.5 -174.5q0 -75 -42.5 -131t-114.5 -88q95 -26 152.5 -89.5t57.5 -158.5zM569 0h-168l1196 1536h168zM2042 205h-127v-207h-141v207h-555l421 753h152l-350 -630h332v307h141v-307h127v-123z" />
    <glyph glyph-name="questiondown" unicode="&#xbf;" horiz-adv-x="1060" 
d="M608 1028q53 0 87 -33t34 -86q0 -54 -34 -87.5t-87 -33.5q-54 0 -87.5 33.5t-33.5 87.5t33.5 86.5t87.5 32.5zM1026 -102q0 -200 -136.5 -320.5t-348.5 -120.5q-199 0 -328 110.5t-129 295.5q0 139 82 243t225 158l133 47l11 238h143l14 -342l-190 -60
q-114 -37 -180 -107.5t-66 -172.5q0 -118 80.5 -187t206.5 -69q139 0 227 79t88 208h168z" />
    <glyph glyph-name="Agrave" unicode="&#xc0;" horiz-adv-x="1490" 
d="M428 1931h211l205 -284h-156zM1270 0l-152 342h-753l-154 -342h-195l732 1569l725 -1569h-203zM434 496h615l-306 684z" />
    <glyph glyph-name="Aacute" unicode="&#xc1;" horiz-adv-x="1490" 
d="M836 1931h211l-263 -284h-153zM1270 0l-152 342h-753l-154 -342h-195l732 1569l725 -1569h-203zM434 496h615l-306 684z" />
    <glyph glyph-name="Acircumflex" unicode="&#xc2;" horiz-adv-x="1490" 
d="M915 1647l-172 172l-172 -172h-174l252 284h189l252 -284h-175zM1270 0l-152 342h-753l-154 -342h-195l732 1569l725 -1569h-203zM434 496h615l-306 684z" />
    <glyph glyph-name="Atilde" unicode="&#xc3;" horiz-adv-x="1490" 
d="M868 1690q-46 0 -128 38.5t-109 38.5q-40 0 -63 -23.5t-23 -64.5h-113q-6 105 42.5 168.5t135.5 63.5q47 0 135.5 -40t112.5 -40q40 0 63 23t23 63h113q8 -101 -44.5 -164t-144.5 -63zM1270 0l-152 342h-753l-154 -342h-195l732 1569l725 -1569h-203zM434 496h615
l-306 684z" />
    <glyph glyph-name="Adieresis" unicode="&#xc4;" horiz-adv-x="1490" 
d="M547 1696q-48 0 -77.5 28.5t-29.5 75.5q0 46 30 75.5t77 29.5t75.5 -29.5t28.5 -75.5q0 -47 -28.5 -75.5t-75.5 -28.5zM942 1696q-46 0 -75 28.5t-29 75.5q0 46 29 75.5t75 29.5q47 0 76 -29.5t29 -75.5q0 -47 -29 -75.5t-76 -28.5zM1270 0l-152 342h-753l-154 -342h-195
l732 1569l725 -1569h-203zM434 496h615l-306 684z" />
    <glyph glyph-name="Aring" unicode="&#xc5;" horiz-adv-x="1490" 
d="M365 342l-154 -342h-195l715 1532q-80 5 -131 56t-51 130q0 83 55.5 136t140.5 53q84 0 139.5 -51.5t55.5 -133.5q0 -79 -49.5 -131.5t-126.5 -58.5l709 -1532h-203l-152 342h-753zM647 1718q0 -41 27.5 -67.5t70.5 -26.5t70 26.5t27 69.5q0 41 -28 68t-69 27
q-44 0 -71 -27t-27 -70zM434 496h615l-306 684z" />
    <glyph glyph-name="AE" unicode="&#xc6;" horiz-adv-x="2052" 
d="M1069 0v360h-606l-248 -360h-199l1051 1536h905v-160h-729v-516h643v-158h-643v-544h752v-158h-926zM1069 514v737l-504 -737h504z" />
    <glyph glyph-name="Ccedilla" unicode="&#xc7;" horiz-adv-x="1423" 
d="M1030 -319q0 -84 -68 -131.5t-171 -47.5q-71 0 -142 33v94q66 -37 135 -37q49 0 82 23.5t33 65.5q0 39 -29.5 64.5t-74.5 25.5q-29 0 -76 -15l-31 35l80 195q-152 13 -280 77t-218 166t-140 241t-50 298q0 171 58 317t160 249t247 161.5t313 58.5q292 0 490 -161v-209
q-95 102 -225.5 154.5t-278.5 52.5q-172 0 -306 -82t-206 -223.5t-72 -317.5q0 -178 75 -320.5t212 -223.5t311 -81q316 0 508 183v-195q-195 -139 -477 -149l-58 -136q87 0 143 -44t56 -121z" />
    <glyph glyph-name="Egrave" unicode="&#xc8;" horiz-adv-x="1150" 
d="M367 1931h211l204 -284h-155zM170 0v1536h903v-160h-729v-516h643v-158h-643v-544h752v-158h-926z" />
    <glyph glyph-name="Eacute" unicode="&#xc9;" horiz-adv-x="1150" 
d="M686 1931h211l-262 -284h-154zM170 0v1536h903v-160h-729v-516h643v-158h-643v-544h752v-158h-926z" />
    <glyph glyph-name="Ecircumflex" unicode="&#xca;" horiz-adv-x="1150" 
d="M797 1647l-172 172l-172 -172h-174l251 284h189l252 -284h-174zM170 0v1536h903v-160h-729v-516h643v-158h-643v-544h752v-158h-926z" />
    <glyph glyph-name="Edieresis" unicode="&#xcb;" horiz-adv-x="1150" 
d="M430 1690q-47 0 -76.5 28.5t-29.5 75.5q0 46 29.5 75t76.5 29t76 -29t29 -75q0 -47 -29 -75.5t-76 -28.5zM825 1690q-46 0 -75 28.5t-29 75.5q0 46 29 75t75 29q47 0 76 -29t29 -75q0 -47 -29 -75.5t-76 -28.5zM170 0v1536h903v-160h-729v-516h643v-158h-643v-544h752
v-158h-926z" />
    <glyph glyph-name="Igrave" unicode="&#xcc;" horiz-adv-x="514" 
d="M-47 1931h211l205 -284h-156zM170 0v1536h174v-1536h-174z" />
    <glyph glyph-name="Iacute" unicode="&#xcd;" horiz-adv-x="514" 
d="M350 1931h211l-262 -284h-154zM170 0v1536h174v-1536h-174z" />
    <glyph glyph-name="Icircumflex" unicode="&#xce;" horiz-adv-x="514" 
d="M428 1647l-172 172l-172 -172h-174l252 284h188l252 -284h-174zM170 0v1536h174v-1536h-174z" />
    <glyph glyph-name="Idieresis" unicode="&#xcf;" horiz-adv-x="514" 
d="M59 1690q-47 0 -76.5 28.5t-29.5 75.5q0 46 29.5 75t76.5 29t76 -29t29 -75q0 -47 -29 -75.5t-76 -28.5zM455 1690q-46 0 -75.5 28.5t-29.5 75.5q0 46 29.5 75t75.5 29q47 0 75.5 -29t28.5 -75q0 -47 -28.5 -75.5t-75.5 -28.5zM170 0v1536h174v-1536h-174z" />
    <glyph glyph-name="Eth" unicode="&#xd0;" horiz-adv-x="1634" 
d="M33 852h192v684h527q235 0 416.5 -94.5t282.5 -269.5t101 -404q0 -230 -100 -404.5t-280.5 -269t-415.5 -94.5h-531v694h-192v158zM879 694h-480v-538h369q278 0 441 165.5t163 446.5q0 280 -163 445t-441 165h-369v-526h480v-158z" />
    <glyph glyph-name="Ntilde" unicode="&#xd1;" horiz-adv-x="1601" 
d="M963 1690q-46 0 -128.5 38.5t-109.5 38.5q-40 0 -63 -23.5t-23 -64.5h-113q-6 105 43 168.5t136 63.5q47 0 135 -40t112 -40q40 0 63 23t23 63h113q8 -101 -44 -164t-144 -63zM1432 -33l-1088 1176v-1143h-174v1569l1087 -1178v1145h175v-1569z" />
    <glyph glyph-name="Ograve" unicode="&#xd2;" horiz-adv-x="1730" 
d="M571 1931h211l205 -284h-156zM1649 770q0 -228 -99.5 -407.5t-278.5 -280t-407 -100.5q-171 0 -317 58.5t-248.5 162t-160.5 250t-58 317.5q0 170 58.5 316t161 248.5t248.5 161t316 58.5q169 0 315 -58.5t249 -161t162 -248.5t59 -316zM864 143q177 0 315.5 81.5
t213.5 224t75 321.5q0 178 -75.5 319t-214 221.5t-314.5 80.5q-175 0 -313.5 -80.5t-214.5 -222t-76 -318.5q0 -179 75.5 -321.5t214 -224t314.5 -81.5z" />
    <glyph glyph-name="Oacute" unicode="&#xd3;" horiz-adv-x="1730" 
d="M944 1931h211l-262 -284h-154zM1649 770q0 -228 -99.5 -407.5t-278.5 -280t-407 -100.5q-171 0 -317 58.5t-248.5 162t-160.5 250t-58 317.5q0 170 58.5 316t161 248.5t248.5 161t316 58.5q169 0 315 -58.5t249 -161t162 -248.5t59 -316zM864 143q177 0 315.5 81.5
t213.5 224t75 321.5q0 178 -75.5 319t-214 221.5t-314.5 80.5q-175 0 -313.5 -80.5t-214.5 -222t-76 -318.5q0 -179 75.5 -321.5t214 -224t314.5 -81.5z" />
    <glyph glyph-name="Ocircumflex" unicode="&#xd4;" horiz-adv-x="1730" 
d="M1034 1647l-172 172l-172 -172h-174l252 284h188l252 -284h-174zM1649 770q0 -228 -99.5 -407.5t-278.5 -280t-407 -100.5q-171 0 -317 58.5t-248.5 162t-160.5 250t-58 317.5q0 170 58.5 316t161 248.5t248.5 161t316 58.5q169 0 315 -58.5t249 -161t162 -248.5t59 -316
zM864 143q177 0 315.5 81.5t213.5 224t75 321.5q0 178 -75.5 319t-214 221.5t-314.5 80.5q-175 0 -313.5 -80.5t-214.5 -222t-76 -318.5q0 -179 75.5 -321.5t214 -224t314.5 -81.5z" />
    <glyph glyph-name="Otilde" unicode="&#xd5;" horiz-adv-x="1730" 
d="M987 1690q-46 0 -128 38.5t-109 38.5q-40 0 -63 -23.5t-23 -64.5h-113q-6 105 42.5 168.5t135.5 63.5q47 0 135.5 -40t112.5 -40q40 0 63 23t23 63h113q8 -101 -44.5 -164t-144.5 -63zM1649 770q0 -228 -99.5 -407.5t-278.5 -280t-407 -100.5q-171 0 -317 58.5
t-248.5 162t-160.5 250t-58 317.5q0 170 58.5 316t161 248.5t248.5 161t316 58.5q169 0 315 -58.5t249 -161t162 -248.5t59 -316zM864 143q177 0 315.5 81.5t213.5 224t75 321.5q0 178 -75.5 319t-214 221.5t-314.5 80.5q-175 0 -313.5 -80.5t-214.5 -222t-76 -318.5
q0 -179 75.5 -321.5t214 -224t314.5 -81.5z" />
    <glyph glyph-name="Odieresis" unicode="&#xd6;" horiz-adv-x="1730" 
d="M666 1690q-48 0 -77.5 28.5t-29.5 75.5q0 46 30 75t77 29t75.5 -29t28.5 -75q0 -47 -28.5 -75.5t-75.5 -28.5zM1061 1690q-46 0 -75.5 28.5t-29.5 75.5q0 46 29.5 75t75.5 29q47 0 75.5 -29t28.5 -75q0 -47 -28.5 -75.5t-75.5 -28.5zM1649 770q0 -228 -99.5 -407.5
t-278.5 -280t-407 -100.5q-171 0 -317 58.5t-248.5 162t-160.5 250t-58 317.5q0 170 58.5 316t161 248.5t248.5 161t316 58.5q169 0 315 -58.5t249 -161t162 -248.5t59 -316zM864 143q177 0 315.5 81.5t213.5 224t75 321.5q0 178 -75.5 319t-214 221.5t-314.5 80.5
q-175 0 -313.5 -80.5t-214.5 -222t-76 -318.5q0 -179 75.5 -321.5t214 -224t314.5 -81.5z" />
    <glyph glyph-name="multiply" unicode="&#xd7;" horiz-adv-x="1161" 
d="M991 457l-106 -105l-305 305l-306 -305l-104 105l305 307l-305 305l104 105l306 -306l305 306l106 -105l-305 -305z" />
    <glyph glyph-name="Oslash" unicode="&#xd8;" horiz-adv-x="1812" 
d="M1686 770q0 -228 -99.5 -407.5t-278.5 -280t-407 -100.5q-301 0 -508 170l-149 -152h-205l252 254q-174 212 -174 516q0 170 58.5 316t161 248.5t248.5 161t316 58.5q300 0 510 -172l154 154h207l-256 -258q170 -207 170 -508zM295 770q0 -230 121 -391l872 881
q-160 131 -387 131q-176 0 -315 -80.5t-215 -222t-76 -318.5zM1505 770q0 225 -116 381l-873 -879q157 -129 385 -129q176 0 314.5 81.5t214 224t75.5 321.5z" />
    <glyph glyph-name="Ugrave" unicode="&#xd9;" horiz-adv-x="1548" 
d="M502 1931h211l205 -284h-156zM150 633v903h174v-905q0 -220 122.5 -354t327.5 -134q201 0 325 134.5t124 353.5v905h174v-903q0 -292 -172 -471.5t-453 -179.5q-283 0 -452.5 179t-169.5 472z" />
    <glyph glyph-name="Uacute" unicode="&#xda;" horiz-adv-x="1548" 
d="M848 1931h211l-262 -284h-154zM150 633v903h174v-905q0 -220 122.5 -354t327.5 -134q201 0 325 134.5t124 353.5v905h174v-903q0 -292 -172 -471.5t-453 -179.5q-283 0 -452.5 179t-169.5 472z" />
    <glyph glyph-name="Ucircumflex" unicode="&#xdb;" horiz-adv-x="1548" 
d="M950 1647l-172 172l-172 -172h-174l252 284h188l252 -284h-174zM150 633v903h174v-905q0 -220 122.5 -354t327.5 -134q201 0 325 134.5t124 353.5v905h174v-903q0 -292 -172 -471.5t-453 -179.5q-283 0 -452.5 179t-169.5 472z" />
    <glyph glyph-name="Udieresis" unicode="&#xdc;" horiz-adv-x="1548" 
d="M575 1690q-47 0 -76.5 28.5t-29.5 75.5q0 46 29.5 75t76.5 29t76 -29t29 -75q0 -47 -29 -75.5t-76 -28.5zM971 1690q-46 0 -75.5 28.5t-29.5 75.5q0 46 29.5 75t75.5 29q47 0 75.5 -29t28.5 -75q0 -47 -28.5 -75.5t-75.5 -28.5zM150 633v903h174v-905q0 -220 122.5 -354
t327.5 -134q201 0 325 134.5t124 353.5v905h174v-903q0 -292 -172 -471.5t-453 -179.5q-283 0 -452.5 179t-169.5 472z" />
    <glyph glyph-name="Yacute" unicode="&#xdd;" horiz-adv-x="1357" 
d="M770 1931h211l-262 -284h-154zM1341 1536l-571 -952v-584h-172v563l-584 973h203l463 -786l467 786h194z" />
    <glyph glyph-name="Thorn" unicode="&#xde;" horiz-adv-x="1206" 
d="M580 272h-236v-272h-174v1536h174v-254h240q241 0 390.5 -137.5t149.5 -366.5q0 -231 -151 -368.5t-393 -137.5zM586 1122h-242v-690h242q164 0 262 94t98 252q0 157 -98 250.5t-262 93.5z" />
    <glyph glyph-name="germandbls" unicode="&#xdf;" horiz-adv-x="1245" 
d="M330 0h-168v1139q0 183 114 299t297 116q163 0 271 -89.5t108 -239.5q0 -87 -57 -201l-51 -106q-18 -38 -25 -53.5t-12.5 -35t-5.5 -36.5q0 -35 22 -62t82 -65l150 -99q68 -43 107.5 -106t39.5 -137q0 -157 -110 -249.5t-275 -92.5q-186 0 -305 92v190q120 -139 305 -139
q92 0 152.5 47.5t60.5 132.5q0 89 -96 150l-166 102q-137 86 -137 201q0 39 10 75.5t39 96.5l47 94q53 104 53 174q0 88 -61.5 144.5t-157.5 56.5q-103 0 -167 -69t-64 -173v-1157z" />
    <glyph glyph-name="agrave" unicode="&#xe0;" 
d="M391 1454h211l205 -285h-156zM969 0v172q-64 -91 -159 -140.5t-212 -49.5q-221 0 -363.5 146.5t-142.5 371.5q0 229 142.5 378.5t363.5 149.5q117 0 212 -51t159 -143v176h168v-1010h-168zM614 870q-153 0 -251.5 -104t-98.5 -264q0 -157 98.5 -260t251.5 -103
q155 0 255 103t100 260q0 160 -100 264t-255 104z" />
    <glyph glyph-name="aacute" unicode="&#xe1;" 
d="M737 1454h211l-262 -285h-154zM969 0v172q-64 -91 -159 -140.5t-212 -49.5q-221 0 -363.5 146.5t-142.5 371.5q0 229 142.5 378.5t363.5 149.5q117 0 212 -51t159 -143v176h168v-1010h-168zM614 870q-153 0 -251.5 -104t-98.5 -264q0 -157 98.5 -260t251.5 -103
q155 0 255 103t100 260q0 160 -100 264t-255 104z" />
    <glyph glyph-name="acircumflex" unicode="&#xe2;" 
d="M842 1169l-172 172l-172 -172h-174l251 285h189l252 -285h-174zM969 0v172q-64 -91 -159 -140.5t-212 -49.5q-221 0 -363.5 146.5t-142.5 371.5q0 229 142.5 378.5t363.5 149.5q117 0 212 -51t159 -143v176h168v-1010h-168zM614 870q-153 0 -251.5 -104t-98.5 -264
q0 -157 98.5 -260t251.5 -103q155 0 255 103t100 260q0 160 -100 264t-255 104z" />
    <glyph glyph-name="atilde" unicode="&#xe3;" 
d="M776 1212q-46 0 -128 39t-109 39q-40 0 -63 -23.5t-23 -64.5h-113q-6 105 42.5 168.5t135.5 63.5q47 0 135.5 -40t112.5 -40q40 0 63 23t23 63h113q8 -101 -44.5 -164.5t-144.5 -63.5zM969 0v172q-64 -91 -159 -140.5t-212 -49.5q-221 0 -363.5 146.5t-142.5 371.5
q0 229 142.5 378.5t363.5 149.5q117 0 212 -51t159 -143v176h168v-1010h-168zM614 870q-153 0 -251.5 -104t-98.5 -264q0 -157 98.5 -260t251.5 -103q155 0 255 103t100 260q0 160 -100 264t-255 104z" />
    <glyph glyph-name="adieresis" unicode="&#xe4;" 
d="M461 1206q-47 0 -77 29t-30 76q0 46 30 75t77 29t75.5 -29t28.5 -75q0 -47 -28.5 -76t-75.5 -29zM856 1206q-46 0 -75 29t-29 76q0 46 29 75t75 29q47 0 76 -29t29 -75q0 -47 -29 -76t-76 -29zM969 0v172q-64 -91 -159 -140.5t-212 -49.5q-221 0 -363.5 146.5
t-142.5 371.5q0 229 142.5 378.5t363.5 149.5q117 0 212 -51t159 -143v176h168v-1010h-168zM614 870q-153 0 -251.5 -104t-98.5 -264q0 -157 98.5 -260t251.5 -103q155 0 255 103t100 260q0 160 -100 264t-255 104z" />
    <glyph glyph-name="aring" unicode="&#xe5;" 
d="M664 1528q84 0 139 -51.5t55 -133.5q0 -84 -54.5 -137t-139.5 -53q-86 0 -141.5 52t-55.5 134q0 83 56 136t141 53zM565 1339q0 -41 28 -67.5t71 -26.5t69.5 26.5t26.5 69.5q0 41 -27.5 68t-68.5 27q-44 0 -71.5 -27t-27.5 -70zM969 0v172q-64 -91 -159 -140.5
t-212 -49.5q-221 0 -363.5 146.5t-142.5 371.5q0 229 142.5 378.5t363.5 149.5q117 0 212 -51t159 -143v176h168v-1010h-168zM614 870q-153 0 -251.5 -104t-98.5 -264q0 -157 98.5 -260t251.5 -103q155 0 255 103t100 260q0 160 -100 264t-255 104z" />
    <glyph glyph-name="ae" unicode="&#xe6;" horiz-adv-x="1867" 
d="M1698 86q-157 -104 -361 -104q-283 0 -428 198q-191 -198 -440 -198q-106 0 -191 33.5t-138.5 105t-53.5 172.5q0 136 97.5 213.5t244.5 77.5h373q-1 131 -84 210.5t-213 79.5q-178 0 -334 -108v164q154 98 348 98q128 0 230 -58t157 -167q57 106 158 165.5t227 59.5
q215 0 347.5 -139.5t134.5 -356.5q0 -14 -5 -86h-786q17 -143 115 -226t241 -83q201 0 361 115v-166zM1290 874q-132 0 -215.5 -78.5t-101.5 -211.5h622q-12 134 -94 212t-211 78zM485 137q211 0 355 164q-28 82 -33 145h-377q-75 0 -123.5 -40t-48.5 -109q0 -83 65 -121.5
t162 -38.5z" />
    <glyph glyph-name="ccedilla" unicode="&#xe7;" horiz-adv-x="1048" 
d="M813 -319q0 -84 -68.5 -131.5t-171.5 -47.5q-70 0 -141 33v94q66 -37 135 -37q49 0 82 23.5t33 65.5q0 39 -29.5 64.5t-74.5 25.5q-29 0 -76 -15l-31 35l80 195q-206 22 -332.5 164t-126.5 356q0 230 149 376t380 146q188 0 323 -102v-187q-122 131 -313 131
q-162 0 -264.5 -101.5t-102.5 -262.5t104 -264t265 -103q195 0 321 109v-170q-120 -81 -282 -94l-58 -138q87 0 143 -44t56 -121z" />
    <glyph glyph-name="egrave" unicode="&#xe8;" horiz-adv-x="1167" 
d="M289 1454h211l205 -285h-156zM1071 524q0 -44 -6 -84h-797q19 -137 119 -220t250 -83q202 0 360 113v-160q-159 -108 -360 -108q-240 0 -392.5 142t-152.5 372q0 231 136.5 381.5t361.5 150.5q143 0 253 -65.5t169 -180t59 -258.5zM592 874q-133 0 -217 -83t-105 -216
h625q-12 133 -92.5 216t-210.5 83z" />
    <glyph glyph-name="eacute" unicode="&#xe9;" horiz-adv-x="1167" 
d="M686 1454h211l-262 -285h-154zM1071 524q0 -44 -6 -84h-797q19 -137 119 -220t250 -83q202 0 360 113v-160q-159 -108 -360 -108q-240 0 -392.5 142t-152.5 372q0 231 136.5 381.5t361.5 150.5q143 0 253 -65.5t169 -180t59 -258.5zM592 874q-133 0 -217 -83t-105 -216
h625q-12 133 -92.5 216t-210.5 83z" />
    <glyph glyph-name="ecircumflex" unicode="&#xea;" horiz-adv-x="1167" 
d="M768 1169l-172 172l-172 -172h-174l252 285h188l252 -285h-174zM1071 524q0 -44 -6 -84h-797q19 -137 119 -220t250 -83q202 0 360 113v-160q-159 -108 -360 -108q-240 0 -392.5 142t-152.5 372q0 231 136.5 381.5t361.5 150.5q143 0 253 -65.5t169 -180t59 -258.5z
M592 874q-133 0 -217 -83t-105 -216h625q-12 133 -92.5 216t-210.5 83z" />
    <glyph glyph-name="edieresis" unicode="&#xeb;" horiz-adv-x="1167" 
d="M397 1206q-47 0 -76.5 29t-29.5 76q0 46 29.5 75t76.5 29t76 -29t29 -75q0 -47 -29 -76t-76 -29zM793 1206q-46 0 -75.5 29t-29.5 76q0 46 29.5 75t75.5 29q47 0 75.5 -29t28.5 -75q0 -47 -28.5 -76t-75.5 -29zM1071 524q0 -44 -6 -84h-797q19 -137 119 -220t250 -83
q202 0 360 113v-160q-159 -108 -360 -108q-240 0 -392.5 142t-152.5 372q0 231 136.5 381.5t361.5 150.5q143 0 253 -65.5t169 -180t59 -258.5zM592 874q-133 0 -217 -83t-105 -216h625q-12 133 -92.5 216t-210.5 83z" />
    <glyph glyph-name="igrave" unicode="&#xec;" horiz-adv-x="505" 
d="M-49 1454h211l205 -285h-156zM170 0v1010h166v-1010h-166z" />
    <glyph glyph-name="iacute" unicode="&#xed;" horiz-adv-x="505" 
d="M342 1454h211l-262 -285h-154zM170 0v1010h166v-1010h-166z" />
    <glyph glyph-name="icircumflex" unicode="&#xee;" horiz-adv-x="505" 
d="M426 1169l-172 172l-172 -172h-174l252 285h188l252 -285h-174zM170 0v1010h166v-1010h-166z" />
    <glyph glyph-name="idieresis" unicode="&#xef;" horiz-adv-x="505" 
d="M57 1206q-47 0 -76.5 29t-29.5 76q0 46 29.5 75t76.5 29t76 -29t29 -75q0 -47 -29 -76t-76 -29zM453 1206q-46 0 -75.5 29t-29.5 76q0 46 29.5 75t75.5 29q47 0 75.5 -29t28.5 -75q0 -47 -28.5 -76t-75.5 -29zM170 0v1010h166v-1010h-166z" />
    <glyph glyph-name="eth" unicode="&#xf0;" horiz-adv-x="1159" 
d="M1083 569q0 -167 -60.5 -299t-180.5 -210t-283 -78q-215 0 -354 137.5t-139 355.5q0 216 139 353t354 137q101 0 186.5 -42.5t147.5 -117.5q-18 146 -79.5 261t-158.5 191l-170 -163h-196l246 239q-133 62 -295 62v145q226 0 405 -98l98 94h197l-178 -174
q154 -127 237.5 -331.5t83.5 -461.5zM565 139q149 0 241.5 94t92.5 248q0 144 -93 234t-239 90q-144 0 -235.5 -93.5t-91.5 -240.5q0 -145 91.5 -238.5t233.5 -93.5z" />
    <glyph glyph-name="ntilde" unicode="&#xf1;" horiz-adv-x="1224" 
d="M750 1212q-46 0 -128.5 39t-109.5 39q-40 0 -63 -23.5t-23 -64.5h-113q-6 105 43 168.5t136 63.5q47 0 135 -40t112 -40q40 0 63 23t23 63h113q8 -102 -44 -165t-144 -63zM336 506v-506h-166v1010h166v-172q58 90 147.5 140t202.5 50q185 0 287 -120.5t102 -313.5v-594
h-168v565q0 301 -262 301q-137 0 -223 -103t-86 -257z" />
    <glyph glyph-name="ograve" unicode="&#xf2;" horiz-adv-x="1234" 
d="M324 1454h211l204 -285h-155zM623 -18q-231 0 -381 149t-150 377q0 225 150 372.5t381 147.5q227 0 373.5 -147t146.5 -373q0 -229 -146.5 -377.5t-373.5 -148.5zM971 508q0 157 -98.5 259.5t-251.5 102.5q-155 0 -256 -102.5t-101 -259.5q0 -160 101 -264.5t256 -104.5
q153 0 251.5 104.5t98.5 264.5z" />
    <glyph glyph-name="oacute" unicode="&#xf3;" horiz-adv-x="1234" 
d="M721 1454h211l-262 -285h-154zM623 -18q-231 0 -381 149t-150 377q0 225 150 372.5t381 147.5q227 0 373.5 -147t146.5 -373q0 -229 -146.5 -377.5t-373.5 -148.5zM971 508q0 157 -98.5 259.5t-251.5 102.5q-155 0 -256 -102.5t-101 -259.5q0 -160 101 -264.5t256 -104.5
q153 0 251.5 104.5t98.5 264.5z" />
    <glyph glyph-name="ocircumflex" unicode="&#xf4;" horiz-adv-x="1234" 
d="M788 1169l-172 172l-172 -172h-174l252 285h189l252 -285h-175zM623 -18q-231 0 -381 149t-150 377q0 225 150 372.5t381 147.5q227 0 373.5 -147t146.5 -373q0 -229 -146.5 -377.5t-373.5 -148.5zM971 508q0 157 -98.5 259.5t-251.5 102.5q-155 0 -256 -102.5
t-101 -259.5q0 -160 101 -264.5t256 -104.5q153 0 251.5 104.5t98.5 264.5z" />
    <glyph glyph-name="otilde" unicode="&#xf5;" horiz-adv-x="1234" 
d="M739 1212q-46 0 -128 39t-109 39q-40 0 -63 -23.5t-23 -64.5h-113q-6 105 42.5 168.5t135.5 63.5q47 0 135.5 -40t112.5 -40q40 0 63 23t23 63h113q8 -101 -44.5 -164.5t-144.5 -63.5zM623 -18q-231 0 -381 149t-150 377q0 225 150 372.5t381 147.5q227 0 373.5 -147
t146.5 -373q0 -229 -146.5 -377.5t-373.5 -148.5zM971 508q0 157 -98.5 259.5t-251.5 102.5q-155 0 -256 -102.5t-101 -259.5q0 -160 101 -264.5t256 -104.5q153 0 251.5 104.5t98.5 264.5z" />
    <glyph glyph-name="odieresis" unicode="&#xf6;" horiz-adv-x="1234" 
d="M418 1206q-47 0 -77 29t-30 76q0 46 30 75t77 29t75.5 -29t28.5 -75q0 -47 -28.5 -76t-75.5 -29zM813 1206q-46 0 -75 29t-29 76q0 46 29 75t75 29q47 0 76 -29t29 -75q0 -47 -29 -76t-76 -29zM623 -18q-231 0 -381 149t-150 377q0 225 150 372.5t381 147.5
q227 0 373.5 -147t146.5 -373q0 -229 -146.5 -377.5t-373.5 -148.5zM971 508q0 157 -98.5 259.5t-251.5 102.5q-155 0 -256 -102.5t-101 -259.5q0 -160 101 -264.5t256 -104.5q153 0 251.5 104.5t98.5 264.5z" />
    <glyph glyph-name="divide" unicode="&#xf7;" horiz-adv-x="1161" 
d="M580 1036q-41 0 -71 30t-30 71q0 43 29.5 71.5t71.5 28.5t71 -28t29 -72q0 -41 -29.5 -71t-70.5 -30zM137 700v154h887v-154h-887zM580 315q-41 0 -71 30t-30 71q0 43 29.5 71.5t71.5 28.5t71 -28t29 -72q0 -41 -29.5 -71t-70.5 -30z" />
    <glyph glyph-name="oslash" unicode="&#xf8;" 
d="M1178 508q0 -229 -147 -377.5t-374 -148.5q-194 0 -331 106l-93 -88h-202l196 190q-98 134 -98 318q0 225 149 372.5t379 147.5q187 0 326 -104l88 86h205l-195 -189q97 -134 97 -313zM301 508q0 -110 49 -197l512 496q-88 63 -207 63q-155 0 -254.5 -102.5t-99.5 -259.5
zM1006 508q0 108 -48 190l-512 -493q87 -66 209 -66q153 0 252 104.5t99 264.5z" />
    <glyph glyph-name="ugrave" unicode="&#xf9;" horiz-adv-x="1169" 
d="M299 1454h211l205 -285h-156zM864 428v582h166v-566q0 -214 -120.5 -338t-325.5 -124t-325 124t-120 338v566h166v-582q0 -141 76 -215t203 -74q128 0 204 74t76 215z" />
    <glyph glyph-name="uacute" unicode="&#xfa;" horiz-adv-x="1169" 
d="M672 1454h211l-262 -285h-154zM864 428v582h166v-566q0 -214 -120.5 -338t-325.5 -124t-325 124t-120 338v566h166v-582q0 -141 76 -215t203 -74q128 0 204 74t76 215z" />
    <glyph glyph-name="ucircumflex" unicode="&#xfb;" horiz-adv-x="1169" 
d="M756 1169l-172 172l-172 -172h-174l251 285h189l252 -285h-174zM864 428v582h166v-566q0 -214 -120.5 -338t-325.5 -124t-325 124t-120 338v566h166v-582q0 -141 76 -215t203 -74q128 0 204 74t76 215z" />
    <glyph glyph-name="udieresis" unicode="&#xfc;" horiz-adv-x="1169" 
d="M387 1206q-47 0 -76.5 29t-29.5 76q0 46 29.5 75t76.5 29t76 -29t29 -75q0 -47 -29 -76t-76 -29zM782 1206q-46 0 -75 29t-29 76q0 46 29 75t75 29q47 0 76 -29t29 -75q0 -47 -29 -76t-76 -29zM864 428v582h166v-566q0 -214 -120.5 -338t-325.5 -124t-325 124t-120 338
v566h166v-582q0 -141 76 -215t203 -74q128 0 204 74t76 215z" />
    <glyph glyph-name="yacute" unicode="&#xfd;" horiz-adv-x="1050" 
d="M647 1454h211l-262 -285h-154zM1034 1010l-731 -1522h-176l324 672l-439 850h199l330 -664l317 664h176z" />
    <glyph glyph-name="thorn" unicode="&#xfe;" 
d="M707 -18q-115 0 -211 51t-160 143v-688h-166v2048h166v-700q64 91 160 141.5t211 50.5q220 0 362.5 -147.5t142.5 -372.5q0 -229 -142 -377.5t-363 -148.5zM1040 508q0 157 -98.5 259.5t-251.5 102.5q-154 0 -254 -102.5t-100 -259.5q0 -160 100 -264.5t254 -104.5
q153 0 251.5 104.5t98.5 264.5z" />
    <glyph glyph-name="ydieresis" unicode="&#xff;" horiz-adv-x="1050" 
d="M340 1206q-47 0 -77 29t-30 76q0 46 30 75t77 29t75.5 -29t28.5 -75q0 -47 -28.5 -76t-75.5 -29zM735 1206q-46 0 -75 29t-29 76q0 46 29 75t75 29q47 0 76 -29t29 -75q0 -47 -29 -76t-76 -29zM1034 1010l-731 -1522h-176l324 672l-439 850h199l330 -664l317 664h176z
" />
    <glyph glyph-name="Amacron" unicode="&#x100;" horiz-adv-x="1490" 
d="M451 1862h585v-140h-585v140zM1270 0l-152 342h-753l-154 -342h-195l732 1569l725 -1569h-203zM434 496h615l-306 684z" />
    <glyph glyph-name="amacron" unicode="&#x101;" 
d="M367 1384h585v-139h-585v139zM969 0v172q-64 -91 -159 -140.5t-212 -49.5q-221 0 -363.5 146.5t-142.5 371.5q0 229 142.5 378.5t363.5 149.5q117 0 212 -51t159 -143v176h168v-1010h-168zM614 870q-153 0 -251.5 -104t-98.5 -264q0 -157 98.5 -260t251.5 -103
q155 0 255 103t100 260q0 160 -100 264t-255 104z" />
    <glyph glyph-name="Abreve" unicode="&#x102;" horiz-adv-x="1490" 
d="M743 1780q69 0 115.5 43t46.5 106h142q0 -118 -85 -199t-219 -81q-133 0 -216 81t-83 199h142q0 -63 45 -106t112 -43zM1270 0l-152 342h-753l-154 -342h-195l732 1569l725 -1569h-203zM434 496h615l-306 684z" />
    <glyph glyph-name="abreve" unicode="&#x103;" 
d="M672 1296q69 0 115.5 43.5t46.5 106.5h141q0 -118 -84.5 -199.5t-218.5 -81.5q-133 0 -216 81t-83 200h141q0 -63 45.5 -106.5t112.5 -43.5zM969 0v172q-64 -91 -159 -140.5t-212 -49.5q-221 0 -363.5 146.5t-142.5 371.5q0 229 142.5 378.5t363.5 149.5q117 0 212 -51
t159 -143v176h168v-1010h-168zM614 870q-153 0 -251.5 -104t-98.5 -264q0 -157 98.5 -260t251.5 -103q155 0 255 103t100 260q0 160 -100 264t-255 104z" />
    <glyph glyph-name="Aogonek" unicode="&#x104;" horiz-adv-x="1490" 
d="M1446 -471q-66 -27 -119 -27q-85 0 -146.5 46.5t-76.5 127.5q-16 102 29 184.5t135 141.5l-150 340h-753l-154 -342h-195l732 1569l725 -1569h-27q-223 -120 -191 -285q6 -46 37.5 -73t77.5 -27q38 0 76 18v-104zM434 496h615l-306 684z" />
    <glyph glyph-name="aogonek" unicode="&#x105;" 
d="M1137 -471q-66 -27 -119 -27q-85 0 -146.5 46.5t-76.5 127.5q-16 105 31.5 189t142.5 145v162q-64 -91 -159 -140.5t-212 -49.5q-221 0 -363.5 146.5t-142.5 371.5q0 229 142.5 378.5t363.5 149.5q117 0 212 -51t159 -143v176h168v-1010q-220 -119 -191 -285
q8 -46 38.5 -73t76.5 -27q39 0 76 18v-104zM614 870q-153 0 -251.5 -104t-98.5 -264q0 -157 98.5 -260t251.5 -103q155 0 255 103t100 260q0 160 -100 264t-255 104z" />
    <glyph glyph-name="Cacute" unicode="&#x106;" horiz-adv-x="1423" 
d="M924 1931h211l-263 -284h-153zM846 -18q-223 0 -398 100.5t-271.5 280t-96.5 405.5q0 171 58 317t160 249t247 161.5t313 58.5q292 0 490 -161v-209q-95 102 -225.5 154.5t-278.5 52.5q-172 0 -306 -82t-206 -223.5t-72 -317.5q0 -178 75 -320.5t212 -223.5t311 -81
q316 0 508 183v-195q-211 -149 -520 -149z" />
    <glyph glyph-name="cacute" unicode="&#x107;" horiz-adv-x="1048" 
d="M664 1454h210l-262 -285h-153zM264 506q0 -161 104 -264t265 -103q195 0 321 109v-170q-138 -96 -338 -96q-232 0 -378 146t-146 378q0 230 149 376t380 146q188 0 323 -102v-187q-122 131 -313 131q-162 0 -264.5 -101.5t-102.5 -262.5z" />
    <glyph glyph-name="Ccircumflex" unicode="&#x108;" horiz-adv-x="1423" 
d="M1030 1647l-172 172l-172 -172h-174l252 284h188l252 -284h-174zM846 -18q-223 0 -398 100.5t-271.5 280t-96.5 405.5q0 171 58 317t160 249t247 161.5t313 58.5q292 0 490 -161v-209q-95 102 -225.5 154.5t-278.5 52.5q-172 0 -306 -82t-206 -223.5t-72 -317.5
q0 -178 75 -320.5t212 -223.5t311 -81q316 0 508 183v-195q-211 -149 -520 -149z" />
    <glyph glyph-name="ccircumflex" unicode="&#x109;" horiz-adv-x="1048" 
d="M768 1169l-172 172l-172 -172h-174l252 285h188l252 -285h-174zM264 506q0 -161 104 -264t265 -103q195 0 321 109v-170q-138 -96 -338 -96q-232 0 -378 146t-146 378q0 230 149 376t380 146q188 0 323 -102v-187q-122 131 -313 131q-162 0 -264.5 -101.5t-102.5 -262.5z
" />
    <glyph glyph-name="Cdotaccent" unicode="&#x10a;" horiz-adv-x="1423" 
d="M858 1683q-46 0 -78 32.5t-32 78.5t32 78.5t78 32.5t77.5 -32.5t31.5 -78.5t-31.5 -78.5t-77.5 -32.5zM846 -18q-223 0 -398 100.5t-271.5 280t-96.5 405.5q0 171 58 317t160 249t247 161.5t313 58.5q292 0 490 -161v-209q-95 102 -225.5 154.5t-278.5 52.5
q-172 0 -306 -82t-206 -223.5t-72 -317.5q0 -178 75 -320.5t212 -223.5t311 -81q316 0 508 183v-195q-211 -149 -520 -149z" />
    <glyph glyph-name="cdotaccent" unicode="&#x10b;" horiz-adv-x="1048" 
d="M604 1200q-46 0 -78 32.5t-32 78.5t32 78t78 32t77.5 -32t31.5 -78t-31.5 -78.5t-77.5 -32.5zM264 506q0 -161 104 -264t265 -103q195 0 321 109v-170q-138 -96 -338 -96q-232 0 -378 146t-146 378q0 230 149 376t380 146q188 0 323 -102v-187q-122 131 -313 131
q-162 0 -264.5 -101.5t-102.5 -262.5z" />
    <glyph glyph-name="Ccaron" unicode="&#x10c;" horiz-adv-x="1423" 
d="M1200 1931l-252 -284h-188l-252 284h174l172 -172l172 172h174zM846 -18q-223 0 -398 100.5t-271.5 280t-96.5 405.5q0 171 58 317t160 249t247 161.5t313 58.5q292 0 490 -161v-209q-95 102 -225.5 154.5t-278.5 52.5q-172 0 -306 -82t-206 -223.5t-72 -317.5
q0 -178 75 -320.5t212 -223.5t311 -81q316 0 508 183v-195q-211 -149 -520 -149z" />
    <glyph glyph-name="ccaron" unicode="&#x10d;" horiz-adv-x="1048" 
d="M936 1454l-252 -285h-188l-252 285h174l172 -172l172 172h174zM264 506q0 -161 104 -264t265 -103q195 0 321 109v-170q-138 -96 -338 -96q-232 0 -378 146t-146 378q0 230 149 376t380 146q188 0 323 -102v-187q-122 131 -313 131q-162 0 -264.5 -101.5t-102.5 -262.5z
" />
    <glyph glyph-name="Dcaron" unicode="&#x10e;" horiz-adv-x="1576" 
d="M1098 1931l-252 -284h-189l-251 284h174l172 -172l172 172h174zM170 0v1536h526q234 0 415.5 -94.5t282.5 -269.5t101 -404t-100 -404t-280.5 -269.5t-414.5 -94.5h-530zM711 1378h-367v-1222h367q278 0 442 165.5t164 446.5q0 280 -164 445t-442 165z" />
    <glyph glyph-name="dcaron" unicode="&#x10f;" horiz-adv-x="1433" 
d="M969 0v176q-62 -92 -158 -143t-213 -51q-221 0 -363.5 146.5t-142.5 371.5q0 229 142.5 378.5t363.5 149.5q117 0 212.5 -52.5t158.5 -146.5v707h168v-1536h-168zM1354 1159h-111l66 377h174zM614 870q-153 0 -251.5 -104t-98.5 -264q0 -157 98.5 -260t251.5 -103
q155 0 255 103t100 260q0 160 -100 264t-255 104z" />
    <glyph glyph-name="Dcroat" unicode="&#x110;" horiz-adv-x="1619" 
d="M18 852h195v684h524q235 0 416.5 -94.5t283 -269.5t101.5 -404t-100.5 -404t-281 -269.5t-415.5 -94.5h-528v694h-195v158zM864 694h-479v-538h369q278 0 441 165.5t163 446.5q0 280 -163 445t-441 165h-369v-526h479v-158z" />
    <glyph glyph-name="dcroat" unicode="&#x111;" 
d="M969 0v176q-62 -92 -158 -143t-213 -51q-221 0 -363.5 146.5t-142.5 371.5q0 229 142.5 378.5t363.5 149.5q117 0 212.5 -52.5t158.5 -146.5v371h-273v139h273v197h168v-197h145v-139h-145v-1200h-168zM969 502q0 160 -100 264t-255 104q-153 0 -251.5 -104t-98.5 -264
q0 -157 98.5 -260t251.5 -103q155 0 255 103t100 260z" />
    <glyph glyph-name="Emacron" unicode="&#x112;" horiz-adv-x="1150" 
d="M338 1862h586v-140h-586v140zM170 0v1536h903v-160h-729v-516h643v-158h-643v-544h752v-158h-926z" />
    <glyph glyph-name="emacron" unicode="&#x113;" horiz-adv-x="1167" 
d="M289 1384h585v-139h-585v139zM1071 524q0 -44 -6 -84h-797q19 -137 119 -220t250 -83q202 0 360 113v-160q-159 -108 -360 -108q-240 0 -392.5 142t-152.5 372q0 231 136.5 381.5t361.5 150.5q143 0 253 -65.5t169 -180t59 -258.5zM592 874q-133 0 -217 -83t-105 -216
h625q-12 133 -92.5 216t-210.5 83z" />
    <glyph glyph-name="Ebreve" unicode="&#x114;" horiz-adv-x="1150" 
d="M631 1780q69 0 115.5 43t46.5 106h141q0 -118 -84.5 -199t-218.5 -81q-133 0 -216 81t-83 199h141q0 -63 45.5 -106t112.5 -43zM170 0v1536h903v-160h-729v-516h643v-158h-643v-544h752v-158h-926z" />
    <glyph glyph-name="ebreve" unicode="&#x115;" horiz-adv-x="1167" 
d="M592 1296q69 0 115.5 43.5t46.5 106.5h141q0 -118 -84.5 -199.5t-218.5 -81.5q-133 0 -216 81t-83 200h141q0 -63 45.5 -106.5t112.5 -43.5zM1071 524q0 -44 -6 -84h-797q19 -137 119 -220t250 -83q202 0 360 113v-160q-159 -108 -360 -108q-240 0 -392.5 142t-152.5 372
q0 231 136.5 381.5t361.5 150.5q143 0 253 -65.5t169 -180t59 -258.5zM592 874q-133 0 -217 -83t-105 -216h625q-12 133 -92.5 216t-210.5 83z" />
    <glyph glyph-name="Edotaccent" unicode="&#x116;" horiz-adv-x="1150" 
d="M627 1683q-46 0 -78.5 32.5t-32.5 78.5t32.5 78.5t78.5 32.5q45 0 76.5 -32.5t31.5 -78.5t-31.5 -78.5t-76.5 -32.5zM170 0v1536h903v-160h-729v-516h643v-158h-643v-544h752v-158h-926z" />
    <glyph glyph-name="edotaccent" unicode="&#x117;" horiz-adv-x="1167" 
d="M588 1200q-46 0 -78.5 32.5t-32.5 78.5t32.5 78t78.5 32t77 -32t31 -78t-31.5 -78.5t-76.5 -32.5zM1071 524q0 -44 -6 -84h-797q19 -137 119 -220t250 -83q202 0 360 113v-160q-159 -108 -360 -108q-240 0 -392.5 142t-152.5 372q0 231 136.5 381.5t361.5 150.5
q143 0 253 -65.5t169 -180t59 -258.5zM592 874q-133 0 -217 -83t-105 -216h625q-12 133 -92.5 216t-210.5 83z" />
    <glyph glyph-name="Eogonek" unicode="&#x118;" horiz-adv-x="1150" 
d="M170 0v1536h903v-160h-729v-516h643v-158h-643v-544h752v-158q-225 -121 -191 -285q9 -46 39.5 -73t75.5 -27q38 0 76 18v-104q-66 -27 -119 -27q-85 0 -146.5 46.5t-76.5 127.5q-28 196 159 324h-743z" />
    <glyph glyph-name="eogonek" unicode="&#x119;" horiz-adv-x="1167" 
d="M1071 524q0 -26 -4 -84h-797q17 -140 116.5 -221.5t250.5 -81.5q203 0 360 115v-166q-301 -166 -264 -371q8 -45 39 -72.5t76 -27.5q42 0 76 18v-104q-62 -27 -117 -27q-87 0 -148.5 46.5t-74.5 127.5q-28 180 137 310q-58 -4 -84 -4q-256 0 -400.5 141.5t-144.5 368.5
q0 152 59 273t173.5 192t265.5 71q221 0 351 -140.5t130 -363.5zM592 870q-136 0 -218.5 -80t-101.5 -215h625q-12 137 -93 216t-212 79z" />
    <glyph glyph-name="Ecaron" unicode="&#x11a;" horiz-adv-x="1150" 
d="M985 1931l-252 -284h-188l-252 284h174l172 -172l172 172h174zM170 0v1536h903v-160h-729v-516h643v-158h-643v-544h752v-158h-926z" />
    <glyph glyph-name="ecaron" unicode="&#x11b;" horiz-adv-x="1167" 
d="M936 1454l-252 -285h-188l-252 285h174l172 -172l172 172h174zM1071 524q0 -44 -6 -84h-797q19 -137 119 -220t250 -83q202 0 360 113v-160q-159 -108 -360 -108q-240 0 -392.5 142t-152.5 372q0 231 136.5 381.5t361.5 150.5q143 0 253 -65.5t169 -180t59 -258.5z
M592 874q-133 0 -217 -83t-105 -216h625q-12 133 -92.5 216t-210.5 83z" />
    <glyph glyph-name="Gcircumflex" unicode="&#x11c;" horiz-adv-x="1570" 
d="M1032 1647l-172 172l-172 -172h-174l252 284h188l252 -284h-174zM1462 174q-273 -192 -610 -192q-225 0 -401.5 101t-273.5 280.5t-97 406.5q0 170 58.5 316t162 248.5t249.5 161t316 58.5q317 0 529 -174v-206q-200 219 -531 219q-175 0 -313.5 -80.5t-214.5 -222.5
t-76 -320t76 -321t215 -224.5t315 -81.5q239 0 422 121v410h-471v153h645v-653z" />
    <glyph glyph-name="gcircumflex" unicode="&#x11d;" 
d="M844 1169l-172 172l-172 -172h-174l252 285h188l252 -285h-174zM1137 -6q0 -251 -139.5 -386.5t-393.5 -135.5q-226 0 -405 129v184q83 -76 190.5 -115t214.5 -39q177 0 271 90t94 261v190q-64 -91 -159 -140.5t-212 -49.5q-220 0 -363 147t-143 371q0 229 143 378.5
t363 149.5q117 0 212 -51t159 -143v176h168v-1016zM969 502q0 160 -100 264t-255 104q-153 0 -251.5 -104t-98.5 -264q0 -157 98.5 -260t251.5 -103q155 0 255 103t100 260z" />
    <glyph glyph-name="Gbreve" unicode="&#x11e;" horiz-adv-x="1570" 
d="M829 1780q69 0 115.5 43t46.5 106h142q0 -118 -85 -199t-219 -81q-133 0 -216 81t-83 199h142q0 -63 45 -106t112 -43zM1462 174q-273 -192 -610 -192q-225 0 -401.5 101t-273.5 280.5t-97 406.5q0 170 58.5 316t162 248.5t249.5 161t316 58.5q317 0 529 -174v-206
q-200 219 -531 219q-175 0 -313.5 -80.5t-214.5 -222.5t-76 -320t76 -321t215 -224.5t315 -81.5q239 0 422 121v410h-471v153h645v-653z" />
    <glyph glyph-name="gbreve" unicode="&#x11f;" 
d="M680 1296q69 0 115.5 43.5t46.5 106.5h141q0 -118 -84.5 -199.5t-218.5 -81.5q-133 0 -216 81t-83 200h141q0 -63 45.5 -106.5t112.5 -43.5zM1137 -6q0 -251 -139.5 -386.5t-393.5 -135.5q-226 0 -405 129v184q83 -76 190.5 -115t214.5 -39q177 0 271 90t94 261v190
q-64 -91 -159 -140.5t-212 -49.5q-220 0 -363 147t-143 371q0 229 143 378.5t363 149.5q117 0 212 -51t159 -143v176h168v-1016zM969 502q0 160 -100 264t-255 104q-153 0 -251.5 -104t-98.5 -264q0 -157 98.5 -260t251.5 -103q155 0 255 103t100 260z" />
    <glyph glyph-name="Gdotaccent" unicode="&#x120;" horiz-adv-x="1570" 
d="M854 1683q-46 0 -78.5 32.5t-32.5 78.5t32.5 78.5t78.5 32.5t77.5 -32.5t31.5 -78.5t-31.5 -78.5t-77.5 -32.5zM1462 174q-273 -192 -610 -192q-225 0 -401.5 101t-273.5 280.5t-97 406.5q0 170 58.5 316t162 248.5t249.5 161t316 58.5q317 0 529 -174v-206
q-200 219 -531 219q-175 0 -313.5 -80.5t-214.5 -222.5t-76 -320t76 -321t215 -224.5t315 -81.5q239 0 422 121v410h-471v153h645v-653z" />
    <glyph glyph-name="gdotaccent" unicode="&#x121;" 
d="M692 1200q-46 0 -78 32.5t-32 78.5t32 78t78 32t77.5 -32t31.5 -78t-31.5 -78.5t-77.5 -32.5zM1137 -6q0 -251 -139.5 -386.5t-393.5 -135.5q-226 0 -405 129v184q83 -76 190.5 -115t214.5 -39q177 0 271 90t94 261v190q-64 -91 -159 -140.5t-212 -49.5q-220 0 -363 147
t-143 371q0 229 143 378.5t363 149.5q117 0 212 -51t159 -143v176h168v-1016zM969 502q0 160 -100 264t-255 104q-153 0 -251.5 -104t-98.5 -264q0 -157 98.5 -260t251.5 -103q155 0 255 103t100 260z" />
    <glyph glyph-name="Gcommaaccent" unicode="&#x122;" horiz-adv-x="1570" 
d="M1462 174q-273 -192 -610 -192q-225 0 -401.5 101t-273.5 280.5t-97 406.5q0 170 58.5 316t162 248.5t249.5 161t316 58.5q317 0 529 -174v-206q-200 219 -531 219q-175 0 -313.5 -80.5t-214.5 -222.5t-76 -320t76 -321t215 -224.5t315 -81.5q239 0 422 121v410h-471v153
h645v-653zM766 -129h172l-172 -293h-119z" />
    <glyph glyph-name="gcommaaccent" unicode="&#x123;" 
d="M750 1432h120l-118 -293h-172zM1137 -6q0 -251 -139.5 -386.5t-393.5 -135.5q-226 0 -405 129v184q83 -76 190.5 -115t214.5 -39q177 0 271 90t94 261v190q-64 -91 -159 -140.5t-212 -49.5q-220 0 -363 147t-143 371q0 229 143 378.5t363 149.5q117 0 212 -51t159 -143
v176h168v-1016zM969 502q0 160 -100 264t-255 104q-153 0 -251.5 -104t-98.5 -264q0 -157 98.5 -260t251.5 -103q155 0 255 103t100 260z" />
    <glyph glyph-name="Hcircumflex" unicode="&#x124;" horiz-adv-x="1574" 
d="M958 1647l-172 172l-172 -172h-174l252 284h189l252 -284h-175zM1231 0v729h-887v-729h-174v1536h174v-653h887v653h174v-1536h-174z" />
    <glyph glyph-name="hcircumflex" unicode="&#x125;" horiz-adv-x="1224" 
d="M700 1642l-172 173l-172 -173h-174l252 285h189l251 -285h-174zM336 506v-506h-166v1536h166v-698q58 90 147.5 140t202.5 50q185 0 287 -120.5t102 -313.5v-594h-168v565q0 301 -262 301q-137 0 -223 -103t-86 -257z" />
    <glyph glyph-name="Hbar" unicode="&#x126;" horiz-adv-x="1574" 
d="M1231 0v729h-887v-729h-174v1143h-160v139h160v254h174v-254h887v254h174v-254h160v-139h-160v-1143h-174zM344 883h887v260h-887v-260z" />
    <glyph glyph-name="hbar" unicode="&#x127;" horiz-adv-x="1224" 
d="M336 506v-506h-166v1200h-170v139h170v197h166v-197h248v-139h-248v-362q58 90 147.5 140t202.5 50q185 0 287 -120.5t102 -313.5v-594h-168v565q0 301 -262 301q-137 0 -223 -103t-86 -257z" />
    <glyph glyph-name="Itilde" unicode="&#x128;" horiz-adv-x="514" 
d="M381 1690q-46 0 -128.5 38.5t-109.5 38.5q-40 0 -63 -23.5t-23 -64.5h-112q-6 105 42.5 168.5t135.5 63.5q47 0 135.5 -40t112.5 -40q40 0 63 23t23 63h112q8 -101 -44 -164t-144 -63zM170 0v1536h174v-1536h-174z" />
    <glyph glyph-name="itilde" unicode="&#x129;" horiz-adv-x="505" 
d="M379 1212q-46 0 -128.5 39t-109.5 39q-40 0 -63 -23.5t-23 -64.5h-112q-6 105 42.5 168.5t135.5 63.5q47 0 135.5 -40t112.5 -40q40 0 63 23t23 63h112q8 -102 -44 -165t-144 -63zM170 0v1010h166v-1010h-166z" />
    <glyph glyph-name="Imacron" unicode="&#x12a;" horiz-adv-x="514" 
d="M-37 1862h586v-140h-586v140zM170 0v1536h174v-1536h-174z" />
    <glyph glyph-name="imacron" unicode="&#x12b;" horiz-adv-x="505" 
d="M-39 1384h586v-139h-586v139zM170 0v1010h166v-1010h-166z" />
    <glyph glyph-name="Ibreve" unicode="&#x12c;" horiz-adv-x="514" 
d="M254 1780q69 0 115.5 43t46.5 106h141q0 -118 -84.5 -199t-218.5 -81q-133 0 -216 81t-83 199h141q0 -63 45.5 -106t112.5 -43zM170 0v1536h174v-1536h-174z" />
    <glyph glyph-name="ibreve" unicode="&#x12d;" horiz-adv-x="505" 
d="M252 1296q69 0 115.5 43.5t46.5 106.5h141q0 -118 -84.5 -199.5t-218.5 -81.5q-133 0 -216 81t-83 200h141q0 -63 45.5 -106.5t112.5 -43.5zM170 0v1010h166v-1010h-166z" />
    <glyph glyph-name="Iogonek" unicode="&#x12e;" horiz-adv-x="514" 
d="M344 -471q-66 -27 -119 -27q-85 0 -146.5 46.5t-76.5 127.5q-31 198 168 330v1530h174v-1536q-224 -121 -190 -285q9 -46 39 -73t75 -27q38 0 76 18v-104z" />
    <glyph glyph-name="iogonek" unicode="&#x12f;" horiz-adv-x="505" 
d="M252 1200q-46 0 -78.5 32.5t-32.5 78.5t32.5 78t78.5 32q44 0 76 -32t32 -78t-32 -78.5t-76 -32.5zM336 -471q-66 -27 -119 -27q-85 0 -146.5 46.5t-76.5 127.5q-16 105 31.5 189t142.5 145v1000h168v-1010q-225 -121 -191 -285q9 -46 39.5 -73t75.5 -27q38 0 76 18v-104
z" />
    <glyph glyph-name="Idotaccent" unicode="&#x130;" horiz-adv-x="514" 
d="M256 1683q-46 0 -78.5 32.5t-32.5 78.5t32.5 78.5t78.5 32.5t77.5 -32.5t31.5 -78.5t-31.5 -78.5t-77.5 -32.5zM170 0v1536h174v-1536h-174z" />
    <glyph glyph-name="dotlessi" unicode="&#x131;" horiz-adv-x="505" 
d="M170 0v1010h166v-1010h-166z" />
    <glyph glyph-name="IJ" unicode="&#x132;" horiz-adv-x="1409" 
d="M170 0v1536h174v-1536h-174zM819 -18q-78 0 -153.5 24t-128.5 64v182q62 -51 139 -79t143 -28q121 0 188.5 68t67.5 188v1135h174v-1112q0 -212 -113.5 -327t-316.5 -115z" />
    <glyph glyph-name="ij" unicode="&#x133;" horiz-adv-x="1013" 
d="M252 1200q-46 0 -78.5 32.5t-32.5 78.5t32.5 78t78.5 32q44 0 76 -32t32 -78t-32 -78.5t-76 -32.5zM758 1200q-46 0 -77.5 32.5t-31.5 78.5t31.5 78t77.5 32t78 -32t32 -78t-32 -78.5t-78 -32.5zM168 0v1010h168v-1010h-168zM549 -530q-87 0 -172 45v153q68 -41 137 -41
q74 0 118 45.5t44 126.5v1211h166v-1207q0 -154 -76.5 -243.5t-216.5 -89.5z" />
    <glyph glyph-name="Jcircumflex" unicode="&#x134;" horiz-adv-x="907" 
d="M831 1647l-172 172l-172 -172h-174l252 284h189l252 -284h-175zM317 -18q-78 0 -153.5 24t-128.5 64v182q62 -51 139 -79t143 -28q121 0 188.5 68t67.5 188v1135h175v-1112q0 -212 -114 -327t-317 -115z" />
    <glyph glyph-name="jcircumflex" unicode="&#x135;" horiz-adv-x="505" 
d="M426 1169l-172 172l-172 -172h-174l252 285h188l252 -285h-174zM43 -530q-87 0 -172 45v153q68 -41 137 -41q74 0 118 45.5t44 126.5v1211h166v-1207q0 -154 -76.5 -243.5t-216.5 -89.5z" />
    <glyph glyph-name="Kcommaaccent" unicode="&#x136;" horiz-adv-x="1335" 
d="M1126 0l-559 764l-223 -244v-520h-174v1536h174v-776l707 776h221l-588 -643l651 -893h-209zM616 -129h172l-172 -293h-118z" />
    <glyph glyph-name="kcommaaccent" unicode="&#x137;" horiz-adv-x="1067" 
d="M848 0l-352 492l-160 -166v-326h-166v1536h166v-997l463 471h198l-387 -400l443 -610h-205zM494 -129h172l-172 -293h-119z" />
    <glyph glyph-name="Lacute" unicode="&#x139;" horiz-adv-x="1105" 
d="M346 1931h211l-262 -284h-154zM1067 158v-158h-897v1536h174v-1378h723z" />
    <glyph glyph-name="lacute" unicode="&#x13a;" horiz-adv-x="505" 
d="M346 1931h211l-262 -284h-154zM170 0v1536h166v-1536h-166z" />
    <glyph glyph-name="Lcommaaccent" unicode="&#x13b;" horiz-adv-x="1105" 
d="M1067 158v-158h-897v1536h174v-1378h723zM535 -129h172l-172 -293h-119z" />
    <glyph glyph-name="lcommaaccent" unicode="&#x13c;" horiz-adv-x="505" 
d="M170 0v1536h166v-1536h-166zM164 -129h172l-172 -293h-119z" />
    <glyph glyph-name="Lcaron" unicode="&#x13d;" horiz-adv-x="1105" 
d="M1067 158v-158h-897v1536h174v-1378h723zM608 1159h-110l65 377h174z" />
    <glyph glyph-name="lcaron" unicode="&#x13e;" horiz-adv-x="632" 
d="M170 0v1536h166v-1536h-166zM553 1159h-111l66 377h174z" />
    <glyph glyph-name="Ldot" unicode="&#x13f;" horiz-adv-x="1105" 
d="M1067 158v-158h-897v1536h174v-1378h723zM788 739q-46 0 -78 32.5t-32 76.5q0 46 32 78t78 32t77.5 -32t31.5 -78q0 -45 -32 -77t-77 -32z" />
    <glyph glyph-name="ldot" unicode="&#x140;" horiz-adv-x="636" 
d="M170 0v1536h166v-1536h-166zM565 684q-45 0 -77.5 32t-32.5 77q0 46 32 78t78 32t77.5 -32t31.5 -78q0 -45 -32 -77t-77 -32z" />
    <glyph glyph-name="Lslash" unicode="&#x141;" horiz-adv-x="1202" 
d="M1163 158v-158h-897v641l-237 -147v182l237 147v713h174v-606l316 194v-180l-316 -194v-592h723z" />
    <glyph glyph-name="lslash" unicode="&#x142;" horiz-adv-x="620" 
d="M616 862l-213 -133v-729h-167v625l-205 -129v176l205 127v737h167v-633l213 133v-174z" />
    <glyph glyph-name="Nacute" unicode="&#x143;" horiz-adv-x="1601" 
d="M899 1931h211l-262 -284h-154zM1432 -33l-1088 1176v-1143h-174v1569l1087 -1178v1145h175v-1569z" />
    <glyph glyph-name="nacute" unicode="&#x144;" horiz-adv-x="1224" 
d="M719 1454h211l-262 -285h-154zM336 506v-506h-166v1010h166v-172q58 90 147.5 140t202.5 50q185 0 287 -120.5t102 -313.5v-594h-168v565q0 301 -262 301q-137 0 -223 -103t-86 -257z" />
    <glyph glyph-name="Ncommaaccent" unicode="&#x145;" horiz-adv-x="1601" 
d="M1432 -33l-1088 1176v-1143h-174v1569l1087 -1178v1145h175v-1569zM754 -129h172l-172 -293h-119z" />
    <glyph glyph-name="ncommaaccent" unicode="&#x146;" horiz-adv-x="1224" 
d="M336 506v-506h-166v1010h166v-172q58 90 147.5 140t202.5 50q185 0 287 -120.5t102 -313.5v-594h-168v565q0 301 -262 301q-137 0 -223 -103t-86 -257zM537 -129h172l-172 -293h-119z" />
    <glyph glyph-name="Ncaron" unicode="&#x147;" horiz-adv-x="1601" 
d="M1180 1931l-252 -284h-189l-252 284h175l172 -172l172 172h174zM1432 -33l-1088 1176v-1143h-174v1569l1087 -1178v1145h175v-1569z" />
    <glyph glyph-name="ncaron" unicode="&#x148;" horiz-adv-x="1224" 
d="M989 1454l-252 -285h-188l-252 285h174l172 -172l172 172h174zM336 506v-506h-166v1010h166v-172q58 90 147.5 140t202.5 50q185 0 287 -120.5t102 -313.5v-594h-168v565q0 301 -262 301q-137 0 -223 -103t-86 -257z" />
    <glyph glyph-name="Omacron" unicode="&#x14c;" horiz-adv-x="1730" 
d="M569 1862h586v-140h-586v140zM1649 770q0 -228 -99.5 -407.5t-278.5 -280t-407 -100.5q-171 0 -317 58.5t-248.5 162t-160.5 250t-58 317.5q0 170 58.5 316t161 248.5t248.5 161t316 58.5q169 0 315 -58.5t249 -161t162 -248.5t59 -316zM864 143q177 0 315.5 81.5
t213.5 224t75 321.5q0 178 -75.5 319t-214 221.5t-314.5 80.5q-175 0 -313.5 -80.5t-214.5 -222t-76 -318.5q0 -179 75.5 -321.5t214 -224t314.5 -81.5z" />
    <glyph glyph-name="omacron" unicode="&#x14d;" horiz-adv-x="1234" 
d="M322 1384h585v-139h-585v139zM623 -18q-231 0 -381 149t-150 377q0 225 150 372.5t381 147.5q227 0 373.5 -147t146.5 -373q0 -229 -146.5 -377.5t-373.5 -148.5zM971 508q0 157 -98.5 259.5t-251.5 102.5q-155 0 -256 -102.5t-101 -259.5q0 -160 101 -264.5t256 -104.5
q153 0 251.5 104.5t98.5 264.5z" />
    <glyph glyph-name="Obreve" unicode="&#x14e;" horiz-adv-x="1730" 
d="M860 1780q69 0 115.5 43t46.5 106h141q0 -118 -84.5 -199t-218.5 -81q-133 0 -216 81t-83 199h141q0 -63 45.5 -106t112.5 -43zM1649 770q0 -228 -99.5 -407.5t-278.5 -280t-407 -100.5q-171 0 -317 58.5t-248.5 162t-160.5 250t-58 317.5q0 170 58.5 316t161 248.5
t248.5 161t316 58.5q169 0 315 -58.5t249 -161t162 -248.5t59 -316zM864 143q177 0 315.5 81.5t213.5 224t75 321.5q0 178 -75.5 319t-214 221.5t-314.5 80.5q-175 0 -313.5 -80.5t-214.5 -222t-76 -318.5q0 -179 75.5 -321.5t214 -224t314.5 -81.5z" />
    <glyph glyph-name="obreve" unicode="&#x14f;" horiz-adv-x="1234" 
d="M612 1296q69 0 115.5 43.5t46.5 106.5h141q0 -118 -84.5 -199.5t-218.5 -81.5q-133 0 -216 81t-83 200h142q0 -63 45 -106.5t112 -43.5zM623 -18q-231 0 -381 149t-150 377q0 225 150 372.5t381 147.5q227 0 373.5 -147t146.5 -373q0 -229 -146.5 -377.5t-373.5 -148.5z
M971 508q0 157 -98.5 259.5t-251.5 102.5q-155 0 -256 -102.5t-101 -259.5q0 -160 101 -264.5t256 -104.5q153 0 251.5 104.5t98.5 264.5z" />
    <glyph glyph-name="Ohungarumlaut" unicode="&#x150;" horiz-adv-x="1730" 
d="M764 1647h-137l168 284h178zM1057 1647h-137l174 284h188zM1649 770q0 -228 -99.5 -407.5t-278.5 -280t-407 -100.5q-171 0 -317 58.5t-248.5 162t-160.5 250t-58 317.5q0 170 58.5 316t161 248.5t248.5 161t316 58.5q169 0 315 -58.5t249 -161t162 -248.5t59 -316z
M864 143q177 0 315.5 81.5t213.5 224t75 321.5q0 178 -75.5 319t-214 221.5t-314.5 80.5q-175 0 -313.5 -80.5t-214.5 -222t-76 -318.5q0 -179 75.5 -321.5t214 -224t314.5 -81.5z" />
    <glyph glyph-name="ohungarumlaut" unicode="&#x151;" horiz-adv-x="1234" 
d="M528 1169h-137l168 285h178zM821 1169h-137l174 285h189zM623 -18q-231 0 -381 149t-150 377q0 225 150 372.5t381 147.5q227 0 373.5 -147t146.5 -373q0 -229 -146.5 -377.5t-373.5 -148.5zM971 508q0 157 -98.5 259.5t-251.5 102.5q-155 0 -256 -102.5t-101 -259.5
q0 -160 101 -264.5t256 -104.5q153 0 251.5 104.5t98.5 264.5z" />
    <glyph glyph-name="OE" unicode="&#x152;" horiz-adv-x="2043" 
d="M80 766q0 172 54.5 314.5t155 243.5t247 156.5t325.5 55.5h1104v-160h-731v-516h645v-158h-645v-544h754v-158h-1123q-179 0 -326 55t-248.5 154.5t-156.5 242t-55 314.5zM866 158h197v1220h-197q-284 0 -445 -168t-161 -444q0 -278 160.5 -443t445.5 -165z" />
    <glyph glyph-name="oe" unicode="&#x153;" horiz-adv-x="2041" 
d="M1872 86q-157 -104 -361 -104q-165 0 -283.5 65t-178.5 180q-61 -115 -172 -180t-256 -65q-230 0 -379.5 149t-149.5 377q0 225 149.5 372.5t379.5 147.5q144 0 257.5 -66t174.5 -180q56 114 161.5 180t247.5 66q221 0 352.5 -140.5t131.5 -363.5q0 -26 -4 -84h-797
q19 -140 117 -221.5t249 -81.5q204 0 361 115v-166zM1464 874q-136 0 -217.5 -81t-99.5 -218h622q-12 138 -93 218.5t-212 80.5zM618 139q155 0 252 105t97 264q0 158 -97 260t-252 102t-254.5 -102.5t-99.5 -259.5q0 -161 98.5 -265t255.5 -104z" />
    <glyph glyph-name="Racute" unicode="&#x154;" horiz-adv-x="1251" 
d="M670 1931h211l-263 -284h-153zM344 569v-569h-174v1536h422q235 0 376.5 -130t141.5 -353q0 -167 -90.5 -286t-235.5 -167l418 -600h-209l-387 569h-262zM586 1376h-242v-649h242q158 0 251 86.5t93 239.5q0 152 -91.5 237.5t-252.5 85.5z" />
    <glyph glyph-name="racute" unicode="&#x155;" horiz-adv-x="712" 
d="M504 1454h211l-262 -285h-154zM336 481v-481h-166v1010h166v-215q60 113 154.5 173t214.5 60v-190q-155 22 -262 -76t-107 -281z" />
    <glyph glyph-name="Rcommaaccent" unicode="&#x156;" horiz-adv-x="1251" 
d="M344 569v-569h-174v1536h422q235 0 376.5 -130t141.5 -353q0 -167 -90.5 -286t-235.5 -167l418 -600h-209l-387 569h-262zM586 1376h-242v-649h242q158 0 251 86.5t93 239.5q0 152 -91.5 237.5t-252.5 85.5zM580 -129h172l-172 -293h-119z" />
    <glyph glyph-name="rcommaaccent" unicode="&#x157;" horiz-adv-x="712" 
d="M336 481v-481h-166v1010h166v-215q60 113 154.5 173t214.5 60v-190q-155 22 -262 -76t-107 -281zM164 -129h172l-172 -293h-119z" />
    <glyph glyph-name="Rcaron" unicode="&#x158;" horiz-adv-x="1251" 
d="M952 1931l-252 -284h-188l-252 284h174l172 -172l172 172h174zM344 569v-569h-174v1536h422q235 0 376.5 -130t141.5 -353q0 -167 -90.5 -286t-235.5 -167l418 -600h-209l-387 569h-262zM586 1376h-242v-649h242q158 0 251 86.5t93 239.5q0 152 -91.5 237.5t-252.5 85.5z
" />
    <glyph glyph-name="rcaron" unicode="&#x159;" horiz-adv-x="712" 
d="M784 1454l-252 -285h-188l-252 285h174l172 -172l172 172h174zM336 481v-481h-166v1010h166v-215q60 113 154.5 173t214.5 60v-190q-155 22 -262 -76t-107 -281z" />
    <glyph glyph-name="Sacute" unicode="&#x15a;" horiz-adv-x="1103" 
d="M649 1931h211l-262 -284h-154zM586 1395q-122 0 -204.5 -62.5t-82.5 -177.5q0 -76 43 -131.5t137 -101.5l305 -150q126 -61 188 -146t62 -204q0 -206 -142 -323t-364 -117q-278 0 -450 153v217q98 -102 216.5 -154.5t233.5 -52.5q135 0 226.5 63t91.5 181q0 82 -42 136
t-149 108l-282 137q-129 64 -192.5 151.5t-63.5 221.5q0 127 64 222t168.5 142t234.5 47q222 0 383 -114v-205q-185 160 -381 160z" />
    <glyph glyph-name="sacute" unicode="&#x15b;" horiz-adv-x="894" 
d="M573 1454h211l-262 -285h-153zM94 264q154 -145 344 -145q92 0 148.5 38t56.5 105q0 87 -104 129l-240 96q-97 42 -143.5 100.5t-46.5 153.5q0 131 95.5 209t250.5 78q185 0 307 -92v-174q-69 61 -149.5 95t-155.5 34q-81 0 -132 -35.5t-51 -95.5q0 -46 25 -76t84 -53
l240 -96q188 -80 188 -242q0 -143 -104 -227t-271 -84q-206 0 -342 102v180z" />
    <glyph glyph-name="Scircumflex" unicode="&#x15c;" horiz-adv-x="1103" 
d="M764 1647l-172 172l-172 -172h-174l252 284h188l252 -284h-174zM586 1395q-122 0 -204.5 -62.5t-82.5 -177.5q0 -76 43 -131.5t137 -101.5l305 -150q126 -61 188 -146t62 -204q0 -206 -142 -323t-364 -117q-278 0 -450 153v217q98 -102 216.5 -154.5t233.5 -52.5
q135 0 226.5 63t91.5 181q0 82 -42 136t-149 108l-282 137q-129 64 -192.5 151.5t-63.5 221.5q0 127 64 222t168.5 142t234.5 47q222 0 383 -114v-205q-185 160 -381 160z" />
    <glyph glyph-name="scircumflex" unicode="&#x15d;" horiz-adv-x="894" 
d="M649 1169l-172 172l-172 -172h-174l252 285h188l252 -285h-174zM94 264q154 -145 344 -145q92 0 148.5 38t56.5 105q0 87 -104 129l-240 96q-97 42 -143.5 100.5t-46.5 153.5q0 131 95.5 209t250.5 78q185 0 307 -92v-174q-69 61 -149.5 95t-155.5 34q-81 0 -132 -35.5
t-51 -95.5q0 -46 25 -76t84 -53l240 -96q188 -80 188 -242q0 -143 -104 -227t-271 -84q-206 0 -342 102v180z" />
    <glyph glyph-name="Scedilla" unicode="&#x15e;" horiz-adv-x="1103" 
d="M752 -319q0 -84 -68.5 -131.5t-171.5 -47.5q-70 0 -141 33v94q66 -37 135 -37q49 0 82 23.5t33 65.5q0 39 -30 64.5t-75 25.5q-29 0 -76 -15l-30 35l77 191q-252 13 -409 153v217q98 -102 216.5 -154.5t233.5 -52.5q135 0 226.5 63t91.5 181q0 82 -42 136t-149 108
l-282 137q-129 64 -192.5 151.5t-63.5 221.5q0 127 64 222t168.5 142t234.5 47q222 0 383 -114v-205q-185 160 -381 160q-122 0 -204.5 -62.5t-82.5 -177.5q0 -76 43 -131.5t137 -101.5l305 -150q126 -61 188 -146t62 -204q0 -185 -116.5 -299.5t-305.5 -136.5l-59 -140
q87 0 143 -44t56 -121z" />
    <glyph glyph-name="scedilla" unicode="&#x15f;" horiz-adv-x="894" 
d="M662 -319q0 -84 -68.5 -131.5t-171.5 -47.5q-70 0 -141 33v94q66 -37 135 -37q48 0 81 23.5t33 65.5q0 39 -29.5 64.5t-74.5 25.5q-29 0 -76 -15l-31 35l78 193q-180 9 -303 100v180q154 -145 344 -145q92 0 148.5 38t56.5 105q0 87 -104 129l-240 96
q-97 42 -143.5 100.5t-46.5 153.5q0 131 95.5 209t250.5 78q185 0 307 -92v-174q-69 61 -149.5 95t-155.5 34q-81 0 -132 -35.5t-51 -95.5q0 -46 25 -76t84 -53l240 -96q188 -80 188 -242q0 -122 -78.5 -202.5t-210.5 -102.5l-59 -142q87 0 143 -44t56 -121z" />
    <glyph glyph-name="Scaron" unicode="&#x160;" horiz-adv-x="1103" 
d="M928 1931l-252 -284h-189l-251 284h174l172 -172l172 172h174zM586 1395q-122 0 -204.5 -62.5t-82.5 -177.5q0 -76 43 -131.5t137 -101.5l305 -150q126 -61 188 -146t62 -204q0 -206 -142 -323t-364 -117q-278 0 -450 153v217q98 -102 216.5 -154.5t233.5 -52.5
q135 0 226.5 63t91.5 181q0 82 -42 136t-149 108l-282 137q-129 64 -192.5 151.5t-63.5 221.5q0 127 64 222t168.5 142t234.5 47q222 0 383 -114v-205q-185 160 -381 160z" />
    <glyph glyph-name="scaron" unicode="&#x161;" horiz-adv-x="894" 
d="M840 1454l-252 -285h-189l-252 285h175l172 -172l172 172h174zM94 264q154 -145 344 -145q92 0 148.5 38t56.5 105q0 87 -104 129l-240 96q-97 42 -143.5 100.5t-46.5 153.5q0 131 95.5 209t250.5 78q185 0 307 -92v-174q-69 61 -149.5 95t-155.5 34q-81 0 -132 -35.5
t-51 -95.5q0 -46 25 -76t84 -53l240 -96q188 -80 188 -242q0 -143 -104 -227t-271 -84q-206 0 -342 102v180z" />
    <glyph glyph-name="uni0162" unicode="&#x162;" horiz-adv-x="1267" 
d="M1241 1376h-520v-1376h-174v1376h-522v160h1216v-160zM539 -129h172l-172 -293h-119z" />
    <glyph glyph-name="uni0163" unicode="&#x163;" horiz-adv-x="792" 
d="M750 53q-97 -71 -250 -71q-169 0 -257.5 86t-88.5 282v981h165v-321h418v-154h-418v-518q0 -100 53.5 -148.5t141.5 -48.5q132 0 236 74v-162zM373 -129h172l-172 -293h-119z" />
    <glyph glyph-name="Tcaron" unicode="&#x164;" horiz-adv-x="1267" 
d="M979 1931l-252 -284h-188l-252 284h174l172 -172l172 172h174zM1241 1376h-520v-1376h-174v1376h-522v160h1216v-160z" />
    <glyph glyph-name="tcaron" unicode="&#x165;" horiz-adv-x="792" 
d="M547 1159h-111l66 377h174zM750 53q-97 -71 -250 -71q-169 0 -257.5 86t-88.5 282v981h165v-321h418v-154h-418v-518q0 -100 53.5 -148.5t141.5 -48.5q132 0 236 74v-162z" />
    <glyph glyph-name="Tbar" unicode="&#x166;" horiz-adv-x="1267" 
d="M811 643h-90v-643h-174v643h-92v127h92v606h-522v160h1216v-160h-520v-606h90v-127z" />
    <glyph glyph-name="tbar" unicode="&#x167;" horiz-adv-x="790" 
d="M750 49q-96 -67 -250 -67q-171 0 -258.5 84.5t-87.5 281.5v983h165v-321h418v-154h-418v-256h416v-139h-416v-127q0 -193 199 -193q125 0 232 70v-162z" />
    <glyph glyph-name="Utilde" unicode="&#x168;" horiz-adv-x="1548" 
d="M915 1690q-46 0 -128 38.5t-109 38.5q-40 0 -63 -23.5t-23 -64.5h-113q-6 105 42.5 168.5t135.5 63.5q47 0 135.5 -40t112.5 -40q40 0 63 23t23 63h113q8 -101 -44.5 -164t-144.5 -63zM150 633v903h174v-905q0 -220 122.5 -354t327.5 -134q201 0 325 134.5t124 353.5v905
h174v-903q0 -292 -172 -471.5t-453 -179.5q-283 0 -452.5 179t-169.5 472z" />
    <glyph glyph-name="utilde" unicode="&#x169;" horiz-adv-x="1169" 
d="M725 1212q-46 0 -128.5 39t-109.5 39q-40 0 -63 -23.5t-23 -64.5h-112q-6 105 42.5 168.5t135.5 63.5q47 0 135.5 -40t112.5 -40q40 0 63 23t23 63h112q8 -102 -44 -165t-144 -63zM864 428v582h166v-566q0 -214 -120.5 -338t-325.5 -124t-325 124t-120 338v566h166v-582
q0 -141 76 -215t203 -74q128 0 204 74t76 215z" />
    <glyph glyph-name="Umacron" unicode="&#x16a;" horiz-adv-x="1548" 
d="M479 1862h586v-140h-586v140zM150 633v903h174v-905q0 -220 122.5 -354t327.5 -134q201 0 325 134.5t124 353.5v905h174v-903q0 -292 -172 -471.5t-453 -179.5q-283 0 -452.5 179t-169.5 472z" />
    <glyph glyph-name="umacron" unicode="&#x16b;" horiz-adv-x="1169" 
d="M291 1384h586v-139h-586v139zM864 428v582h166v-566q0 -214 -120.5 -338t-325.5 -124t-325 124t-120 338v566h166v-582q0 -141 76 -215t203 -74q128 0 204 74t76 215z" />
    <glyph glyph-name="Ubreve" unicode="&#x16c;" horiz-adv-x="1548" 
d="M770 1780q69 0 115.5 43t46.5 106h141q0 -118 -84.5 -199t-218.5 -81q-133 0 -216 81t-83 199h141q0 -63 45.5 -106t112.5 -43zM150 633v903h174v-905q0 -220 122.5 -354t327.5 -134q201 0 325 134.5t124 353.5v905h174v-903q0 -292 -172 -471.5t-453 -179.5
q-283 0 -452.5 179t-169.5 472z" />
    <glyph glyph-name="ubreve" unicode="&#x16d;" horiz-adv-x="1169" 
d="M582 1296q69 0 115 43.5t46 106.5h142q0 -118 -84.5 -199.5t-218.5 -81.5q-133 0 -216 81t-83 200h141q0 -63 45.5 -106.5t112.5 -43.5zM864 428v582h166v-566q0 -214 -120.5 -338t-325.5 -124t-325 124t-120 338v566h166v-582q0 -141 76 -215t203 -74q128 0 204 74
t76 215z" />
    <glyph glyph-name="Uring" unicode="&#x16e;" horiz-adv-x="1548" 
d="M772 1960q84 0 139.5 -51t55.5 -133q0 -84 -55 -137.5t-140 -53.5t-141 52t-56 135t56 135.5t141 52.5zM674 1772q0 -41 27.5 -68t70.5 -27t69.5 27t26.5 70q0 41 -27.5 67.5t-68.5 26.5q-44 0 -71 -26.5t-27 -69.5zM150 633v903h174v-905q0 -220 122.5 -354t327.5 -134
q201 0 325 134.5t124 353.5v905h174v-903q0 -292 -172 -471.5t-453 -179.5q-283 0 -452.5 179t-169.5 472z" />
    <glyph glyph-name="uring" unicode="&#x16f;" horiz-adv-x="1169" 
d="M584 1528q84 0 139 -51.5t55 -133.5q0 -84 -54.5 -137t-139.5 -53q-86 0 -141.5 52t-55.5 134q0 83 56 136t141 53zM485 1339q0 -41 28 -67.5t71 -26.5t69.5 26.5t26.5 69.5q0 41 -27.5 68t-68.5 27q-44 0 -71.5 -27t-27.5 -70zM864 428v582h166v-566q0 -214 -120.5 -338
t-325.5 -124t-325 124t-120 338v566h166v-582q0 -141 76 -215t203 -74q128 0 204 74t76 215z" />
    <glyph glyph-name="Uhungarumlaut" unicode="&#x170;" horiz-adv-x="1548" 
d="M678 1647h-137l168 284h178zM971 1647h-137l174 284h188zM150 633v903h174v-905q0 -220 122.5 -354t327.5 -134q201 0 325 134.5t124 353.5v905h174v-903q0 -292 -172 -471.5t-453 -179.5q-283 0 -452.5 179t-169.5 472z" />
    <glyph glyph-name="uhungarumlaut" unicode="&#x171;" horiz-adv-x="1169" 
d="M498 1169h-138l168 285h179zM791 1169h-138l174 285h189zM864 428v582h166v-566q0 -214 -120.5 -338t-325.5 -124t-325 124t-120 338v566h166v-582q0 -141 76 -215t203 -74q128 0 204 74t76 215z" />
    <glyph glyph-name="Uogonek" unicode="&#x172;" horiz-adv-x="1546" 
d="M1075 -471q-66 -27 -119 -27q-98 0 -160 56t-65 155q-9 155 119 273q-54 -4 -80 -4q-283 0 -451.5 179t-168.5 472v903h174v-905q0 -221 121.5 -354.5t326.5 -133.5q201 0 325 134.5t124 353.5v905h174v-903q0 -199 -83.5 -351t-232.5 -229q-213 -127 -200 -309
q5 -55 36 -92t84 -37q39 0 76 18v-104z" />
    <glyph glyph-name="uogonek" unicode="&#x173;" horiz-adv-x="1169" 
d="M836 -471q-62 -27 -117 -27q-87 0 -147.5 45t-75.5 127q-29 179 129 310q-14 -2 -41 -2q-205 0 -325 124t-120 338v566h166v-582q0 -141 76 -215t203 -74q128 0 204 74t76 215v584h166v-568q0 -129 -45 -227.5t-129 -157.5q-112 -76 -170.5 -164.5t-42.5 -181.5
q8 -44 39.5 -71t77.5 -27q38 0 76 18v-104z" />
    <glyph glyph-name="Wcircumflex" unicode="&#x174;" horiz-adv-x="2332" 
d="M1343 1647l-172 172l-172 -172h-174l252 284h189l252 -284h-175zM2308 1536l-666 -1569l-477 1178l-479 -1178l-661 1569h198l465 -1149l483 1182l482 -1180l463 1147h192z" />
    <glyph glyph-name="wcircumflex" unicode="&#x175;" horiz-adv-x="1658" 
d="M999 1169l-172 172l-172 -172h-174l252 285h189l252 -285h-175zM1640 1010l-442 -1043l-360 744l-365 -744l-455 1043h191l283 -678l344 712l346 -710l280 676h178z" />
    <glyph glyph-name="Ycircumflex" unicode="&#x176;" horiz-adv-x="1357" 
d="M852 1647l-172 172l-172 -172h-174l252 284h188l252 -284h-174zM1341 1536l-571 -952v-584h-172v563l-584 973h203l463 -786l467 786h194z" />
    <glyph glyph-name="ycircumflex" unicode="&#x177;" horiz-adv-x="1050" 
d="M700 1169l-172 172l-172 -172h-174l252 285h189l251 -285h-174zM1034 1010l-731 -1522h-176l324 672l-439 850h199l330 -664l317 664h176z" />
    <glyph glyph-name="Ydieresis" unicode="&#x178;" horiz-adv-x="1357" 
d="M483 1690q-47 0 -76.5 28.5t-29.5 75.5q0 46 29.5 75t76.5 29t76 -29t29 -75q0 -47 -29 -75.5t-76 -28.5zM879 1690q-46 0 -75.5 28.5t-29.5 75.5q0 46 29.5 75t75.5 29q47 0 75.5 -29t28.5 -75q0 -47 -28.5 -75.5t-75.5 -28.5zM1341 1536l-571 -952v-584h-172v563
l-584 973h203l463 -786l467 786h194z" />
    <glyph glyph-name="Zacute" unicode="&#x179;" horiz-adv-x="1282" 
d="M739 1931h211l-262 -284h-153zM1229 152v-152h-1196l909 1382h-858v154h1153l-901 -1384h893z" />
    <glyph glyph-name="zacute" unicode="&#x17a;" horiz-adv-x="950" 
d="M563 1454h211l-262 -285h-154zM895 152v-152h-854l573 856h-530v154h805l-563 -858h569z" />
    <glyph glyph-name="Zdotaccent" unicode="&#x17b;" horiz-adv-x="1282" 
d="M637 1683q-46 0 -78.5 32.5t-32.5 78.5t32.5 78.5t78.5 32.5q45 0 76.5 -32.5t31.5 -78.5t-31.5 -78.5t-76.5 -32.5zM1229 152v-152h-1196l909 1382h-858v154h1153l-901 -1384h893z" />
    <glyph glyph-name="zdotaccent" unicode="&#x17c;" horiz-adv-x="950" 
d="M473 1200q-46 0 -78.5 32.5t-32.5 78.5t32.5 78t78.5 32t77.5 -32t31.5 -78t-31.5 -78.5t-77.5 -32.5zM895 152v-152h-854l573 856h-530v154h805l-563 -858h569z" />
    <glyph glyph-name="Zcaron" unicode="&#x17d;" horiz-adv-x="1282" 
d="M1004 1931l-252 -284h-189l-252 284h174l172 -172l172 172h175zM1229 152v-152h-1196l909 1382h-858v154h1153l-901 -1384h893z" />
    <glyph glyph-name="zcaron" unicode="&#x17e;" horiz-adv-x="950" 
d="M829 1454l-251 -285h-189l-252 285h174l172 -172l172 172h174zM895 152v-152h-854l573 856h-530v154h805l-563 -858h569z" />
    <glyph glyph-name="florin" unicode="&#x192;" horiz-adv-x="997" 
d="M506 295q-29 -147 -120 -230t-249 -83q-69 0 -153 32v158q73 -39 157 -39q170 0 209 199l160 842q37 179 125.5 279.5t251.5 100.5q88 0 160 -34v-160q-70 39 -148 39q-181 0 -223 -211l-35 -178h340v-154h-369z" />
    <glyph glyph-name="uni0218" unicode="&#x218;" horiz-adv-x="1103" 
d="M586 1395q-122 0 -204.5 -62.5t-82.5 -177.5q0 -76 43 -131.5t137 -101.5l305 -150q126 -61 188 -146t62 -204q0 -206 -142 -323t-364 -117q-278 0 -450 153v217q98 -102 216.5 -154.5t233.5 -52.5q135 0 226.5 63t91.5 181q0 82 -42 136t-149 108l-282 137
q-129 64 -192.5 151.5t-63.5 221.5q0 127 64 222t168.5 142t234.5 47q222 0 383 -114v-205q-185 160 -381 160zM483 -129h172l-172 -293h-118z" />
    <glyph glyph-name="uni0219" unicode="&#x219;" horiz-adv-x="894" 
d="M94 264q154 -145 344 -145q92 0 148.5 38t56.5 105q0 87 -104 129l-240 96q-97 42 -143.5 100.5t-46.5 153.5q0 131 95.5 209t250.5 78q185 0 307 -92v-174q-69 61 -149.5 95t-155.5 34q-81 0 -132 -35.5t-51 -95.5q0 -46 25 -76t84 -53l240 -96q188 -80 188 -242
q0 -143 -104 -227t-271 -84q-206 0 -342 102v180zM373 -129h172l-172 -293h-119z" />
    <glyph glyph-name="uni021A" unicode="&#x21a;" horiz-adv-x="1267" 
d="M1241 1376h-520v-1376h-174v1376h-522v160h1216v-160zM539 -129h172l-172 -293h-119z" />
    <glyph glyph-name="uni021B" unicode="&#x21b;" horiz-adv-x="792" 
d="M750 53q-97 -71 -250 -71q-169 0 -257.5 86t-88.5 282v981h165v-321h418v-154h-418v-518q0 -100 53.5 -148.5t141.5 -48.5q132 0 236 74v-162zM373 -129h172l-172 -293h-119z" />
    <glyph glyph-name="dotlessj" unicode="&#x237;" horiz-adv-x="505" 
d="M43 -530q-87 0 -172 45v153q68 -41 137 -41q74 0 118 45.5t44 126.5v1211h166v-1207q0 -154 -76.5 -243.5t-216.5 -89.5z" />
    <glyph glyph-name="circumflex" unicode="&#x2c6;" horiz-adv-x="956" 
d="M649 1169l-172 172l-172 -172h-174l252 285h188l252 -285h-174z" />
    <glyph glyph-name="caron" unicode="&#x2c7;" horiz-adv-x="956" 
d="M823 1454l-252 -285h-188l-252 285h174l172 -172l172 172h174z" />
    <glyph glyph-name="breve" unicode="&#x2d8;" horiz-adv-x="956" 
d="M475 1296q69 0 115.5 43.5t46.5 106.5h141q0 -118 -84.5 -199.5t-218.5 -81.5q-133 0 -216 81t-83 200h141q0 -63 45.5 -106.5t112.5 -43.5z" />
    <glyph glyph-name="dotaccent" unicode="&#x2d9;" horiz-adv-x="956" 
d="M477 1200q-46 0 -78 32.5t-32 78.5t32 78t78 32t77.5 -32t31.5 -78t-31.5 -78.5t-77.5 -32.5z" />
    <glyph glyph-name="ring" unicode="&#x2da;" horiz-adv-x="956" 
d="M477 1528q84 0 139.5 -51.5t55.5 -133.5q0 -84 -55 -137t-140 -53t-140.5 51.5t-55.5 134.5t55.5 136t140.5 53zM379 1339q0 -41 27.5 -67.5t70.5 -26.5t69.5 26.5t26.5 69.5q0 41 -27.5 68t-68.5 27q-44 0 -71 -27t-27 -70z" />
    <glyph glyph-name="ogonek" unicode="&#x2db;" horiz-adv-x="956" 
d="M301 -324q-11 74 9.5 138.5t67.5 114t108 87t137 64.5l20 -80q-222 -119 -190 -285q6 -46 37 -73t77 -27q39 0 76 18v-104q-66 -27 -119 -27q-85 0 -146.5 46.5t-76.5 127.5z" />
    <glyph glyph-name="tilde" unicode="&#x2dc;" horiz-adv-x="956" 
d="M602 1212q-46 0 -128 39t-109 39q-40 0 -63 -23.5t-23 -64.5h-113q-6 105 42.5 168.5t135.5 63.5q47 0 135.5 -40t112.5 -40q40 0 63 23t23 63h113q8 -101 -44.5 -164.5t-144.5 -63.5z" />
    <glyph glyph-name="hungarumlaut" unicode="&#x2dd;" horiz-adv-x="956" 
d="M391 1169h-137l168 285h178zM684 1169h-137l174 285h188z" />
    <glyph glyph-name="uni0394" unicode="&#x394;" horiz-adv-x="1503" 
d="M748 1569l733 -1569h-1456zM279 152h946l-477 1054z" />
    <glyph glyph-name="uni03A9" unicode="&#x3a9;" horiz-adv-x="1509" 
d="M307 913q0 -184 101 -321.5t276 -196.5v-395h-483v152h329v159q-184 83 -289.5 241.5t-105.5 365.5q0 281 173.5 458.5t447.5 177.5q271 0 445.5 -176t174.5 -454q0 -209 -109 -369t-296 -244v-159h329v-152h-483v395q178 59 281.5 198t103.5 327q0 210 -123.5 342.5
t-322.5 132.5q-201 0 -325 -135t-124 -347z" />
    <glyph glyph-name="mu" unicode="&#x3bc;" horiz-adv-x="1222" 
d="M170 -512v1522h166v-590q0 -133 66.5 -208t185.5 -75q142 0 223.5 100t81.5 248v525h168v-1010h-168v184q-56 -95 -148 -148.5t-213 -53.5q-115 0 -200 57v-551h-162z" />
    <glyph glyph-name="pi" unicode="&#x3c0;" horiz-adv-x="1492" 
d="M1413 4q-95 -22 -133 -22q-135 0 -210 73t-75 211v590h-524v-856h-172v856h-236v154h1336v-154h-236v-588q0 -68 36.5 -103.5t100.5 -35.5q45 0 113 21v-146z" />
    <glyph glyph-name="Wgrave" unicode="&#x1e80;" horiz-adv-x="2332" 
d="M874 1931h211l205 -284h-155zM2308 1536l-666 -1569l-477 1178l-479 -1178l-661 1569h198l465 -1149l483 1182l482 -1180l463 1147h192z" />
    <glyph glyph-name="wgrave" unicode="&#x1e81;" horiz-adv-x="1658" 
d="M514 1454h211l205 -285h-156zM1640 1010l-442 -1043l-360 744l-365 -744l-455 1043h191l283 -678l344 712l346 -710l280 676h178z" />
    <glyph glyph-name="Wacute" unicode="&#x1e82;" horiz-adv-x="2332" 
d="M1253 1931h211l-262 -284h-153zM2308 1536l-666 -1569l-477 1178l-479 -1178l-661 1569h198l465 -1149l483 1182l482 -1180l463 1147h192z" />
    <glyph glyph-name="wacute" unicode="&#x1e83;" horiz-adv-x="1658" 
d="M936 1454h211l-262 -285h-154zM1640 1010l-442 -1043l-360 744l-365 -744l-455 1043h191l283 -678l344 712l346 -710l280 676h178z" />
    <glyph glyph-name="Wdieresis" unicode="&#x1e84;" horiz-adv-x="2332" 
d="M975 1690q-48 0 -77.5 28.5t-29.5 75.5q0 46 30 75t77 29t75.5 -29t28.5 -75q0 -47 -28.5 -75.5t-75.5 -28.5zM1370 1690q-46 0 -75 28.5t-29 75.5q0 46 29 75t75 29q47 0 76 -29t29 -75q0 -47 -29 -75.5t-76 -28.5zM2308 1536l-666 -1569l-477 1178l-479 -1178
l-661 1569h198l465 -1149l483 1182l482 -1180l463 1147h192z" />
    <glyph glyph-name="wdieresis" unicode="&#x1e85;" horiz-adv-x="1658" 
d="M631 1206q-47 0 -77 29t-30 76q0 46 30 75t77 29t75.5 -29t28.5 -75q0 -47 -28.5 -76t-75.5 -29zM1026 1206q-46 0 -75 29t-29 76q0 46 29 75t75 29q47 0 75.5 -29t28.5 -75q0 -47 -28.5 -76t-75.5 -29zM1640 1010l-442 -1043l-360 744l-365 -744l-455 1043h191l283 -678
l344 712l346 -710l280 676h178z" />
    <glyph glyph-name="Ygrave" unicode="&#x1ef2;" horiz-adv-x="1357" 
d="M385 1931h211l205 -284h-156zM1341 1536l-571 -952v-584h-172v563l-584 973h203l463 -786l467 786h194z" />
    <glyph glyph-name="ygrave" unicode="&#x1ef3;" horiz-adv-x="1050" 
d="M225 1454h211l205 -285h-156zM1034 1010l-731 -1522h-176l324 672l-439 850h199l330 -664l317 664h176z" />
    <glyph glyph-name="endash" unicode="&#x2013;" horiz-adv-x="1024" 
d="M41 524v154h942v-154h-942z" />
    <glyph glyph-name="emdash" unicode="&#x2014;" horiz-adv-x="2048" 
d="M41 678h1966v-154h-1966v154z" />
    <glyph glyph-name="quoteleft" unicode="&#x2018;" horiz-adv-x="425" 
d="M252 1536h119l-138 -266q86 -32 86 -113q0 -52 -33.5 -83.5t-86.5 -31.5q-56 0 -90.5 33.5t-34.5 87.5q0 58 37 121z" />
    <glyph glyph-name="quoteright" unicode="&#x2019;" horiz-adv-x="423" 
d="M174 1061h-121l140 266q-40 12 -64.5 41.5t-24.5 69.5q0 52 35 84t88 32t87 -34t34 -88q0 -53 -39 -119z" />
    <glyph glyph-name="quotesinglbase" unicode="&#x201a;" horiz-adv-x="423" 
d="M174 -291h-121l140 266q-40 13 -64.5 41.5t-24.5 69.5q0 51 35 83t88 32t87 -34.5t34 -88.5q0 -51 -39 -117z" />
    <glyph glyph-name="quotedblleft" unicode="&#x201c;" horiz-adv-x="780" 
d="M248 1536h121l-140 -266q88 -31 88 -113q0 -52 -34.5 -83.5t-87.5 -31.5t-87 33.5t-34 87.5q0 55 39 121zM604 1536h121l-139 -266q88 -31 88 -113q0 -52 -35 -83.5t-88 -31.5t-87 33.5t-34 87.5q0 55 39 121z" />
    <glyph glyph-name="quotedblright" unicode="&#x201d;" horiz-adv-x="780" 
d="M174 1061h-121l140 266q-40 12 -64.5 41.5t-24.5 69.5q0 52 35 84t88 32t87 -34t34 -88q0 -53 -39 -119zM530 1061h-120l139 266q-40 12 -64 41.5t-24 69.5q0 52 35 84t88 32t87 -34t34 -88q0 -53 -39 -119z" />
    <glyph glyph-name="quotedblbase" unicode="&#x201e;" horiz-adv-x="780" 
d="M174 -291h-121l140 266q-40 13 -64.5 41.5t-24.5 69.5q0 51 35 83t88 32t87 -34.5t34 -88.5q0 -51 -39 -117zM530 -291h-120l139 266q-40 13 -64 41.5t-24 69.5q0 51 35 83t88 32t87 -34.5t34 -88.5q0 -51 -39 -117z" />
    <glyph glyph-name="dagger" unicode="&#x2020;" horiz-adv-x="921" 
d="M819 1102h-295v-692h-127v692h-295v125h295v309h127v-309h295v-125z" />
    <glyph glyph-name="daggerdbl" unicode="&#x2021;" horiz-adv-x="921" 
d="M819 381h-295v-381h-127v381h-295v125h295v522h-295v125h295v383h127v-383h295v-125h-295v-522h295v-125z" />
    <glyph glyph-name="bullet" unicode="&#x2022;" horiz-adv-x="753" 
d="M377 432q-94 0 -160.5 65.5t-66.5 157.5q0 95 66.5 161.5t160.5 66.5t160.5 -66.5t66.5 -161.5q0 -92 -66.5 -157.5t-160.5 -65.5z" />
    <glyph glyph-name="ellipsis" unicode="&#x2026;" horiz-adv-x="1411" 
d="M229 -18q-53 0 -86.5 32.5t-33.5 85.5q0 52 33.5 85.5t86.5 33.5q54 0 87.5 -33t33.5 -86q0 -54 -33.5 -86t-87.5 -32zM705 -18q-53 0 -87 32.5t-34 85.5q0 52 34 85.5t87 33.5q54 0 87 -33t33 -86q0 -54 -33 -86t-87 -32zM1182 -18q-55 0 -89 32.5t-34 85.5
q0 52 34.5 85.5t88.5 33.5q53 0 87 -33.5t34 -85.5q0 -53 -34 -85.5t-87 -32.5z" />
    <glyph glyph-name="perthousand" unicode="&#x2030;" horiz-adv-x="2805" 
d="M451 821q-166 0 -274.5 104.5t-108.5 262.5t108.5 262t274.5 104q164 0 272 -104t108 -262t-108 -262.5t-272 -104.5zM1677 1536l-1253 -1536h-168l1253 1536h168zM451 952q101 0 168 67.5t67 168.5t-67 168t-168 67q-103 0 -170.5 -67t-67.5 -168t67.5 -168.5
t170.5 -67.5zM2357 -18q-166 0 -274.5 104t-108.5 262t108.5 261.5t274.5 103.5q164 0 272.5 -103.5t108.5 -261.5t-108.5 -262t-272.5 -104zM1477 -18q-166 0 -274.5 104t-108.5 262t108.5 261.5t274.5 103.5q164 0 272.5 -103.5t108.5 -261.5t-108.5 -262t-272.5 -104z
M1712 348q0 101 -67 167.5t-168 66.5q-103 0 -170.5 -66.5t-67.5 -167.5q0 -102 67.5 -169.5t170.5 -67.5q101 0 168 68t67 169zM2593 348q0 101 -67.5 167.5t-168.5 66.5q-103 0 -170 -66.5t-67 -167.5q0 -102 67.5 -169.5t169.5 -67.5q101 0 168.5 68t67.5 169z" />
    <glyph glyph-name="guilsinglleft" unicode="&#x2039;" horiz-adv-x="606" 
d="M348 139l-280 412l280 397h176l-280 -397l280 -412h-176z" />
    <glyph glyph-name="guilsinglright" unicode="&#x203a;" horiz-adv-x="606" 
d="M256 139h-176l282 412l-282 397h176l283 -397z" />
    <glyph glyph-name="fraction" unicode="&#x2044;" horiz-adv-x="931" 
d="M-47 0h-168l1196 1536h168z" />
    <glyph glyph-name="zerosuperior" unicode="&#x2070;" horiz-adv-x="999" 
d="M895 1065q0 -102 -24.5 -190t-72 -157t-124.5 -109t-174 -40q-129 0 -221 69.5t-134.5 179.5t-42.5 247q0 136 43 244.5t135 176.5t220 68q96 0 172.5 -39t124.5 -106.5t73 -155t25 -188.5zM500 694q65 0 114.5 30.5t78.5 83t43 117.5t14 140q0 73 -14 136.5t-43 116
t-78.5 82.5t-114.5 30t-115 -30t-79 -82.5t-43.5 -116t-14.5 -136.5q0 -75 14 -140t43 -117.5t79 -83t116 -30.5z" />
    <glyph glyph-name="foursuperior" unicode="&#x2074;" horiz-adv-x="858" 
d="M819 782h-127v-207h-141v207h-555l422 754h151l-350 -631h332v307h141v-307h127v-123z" />
    <glyph glyph-name="Euro" unicode="&#x20ac;" horiz-adv-x="1396" 
d="M1303 43q-165 -61 -353 -61q-253 0 -435 142.5t-251 381.5h-201v151h173q-7 65 -7 111q0 43 7 104h-173v152h201q69 241 255.5 385.5t443.5 144.5q202 0 380 -96l-55 -153q-154 86 -340 86q-178 0 -308.5 -99.5t-190.5 -267.5h737l-56 -152h-716q-6 -53 -6 -104
q0 -64 8 -111h637l-54 -151h-546q61 -167 195 -265t315 -98q191 0 340 76v-176z" />
    <glyph glyph-name="uni20B9" unicode="&#x20b9;" horiz-adv-x="1234" 
d="M653 616l426 -616h-209l-397 586h-381v157h357q138 0 227.5 65.5t109.5 182.5h-694v142h694q-23 115 -111 179t-226 64h-357v160h1082v-141h-332q106 -106 127 -262h205v-142h-205q-18 -137 -103 -234t-213 -141z" />
    <glyph glyph-name="uni2113" unicode="&#x2113;" horiz-adv-x="962" 
d="M90 524q70 0 135 15v700q0 136 81.5 225.5t217.5 89.5q135 0 216 -86.5t81 -224.5v-156q0 -220 -116 -395t-306 -262v-94q0 -84 55 -137.5t140 -53.5q105 0 231 68v-160q-104 -71 -260 -71q-153 0 -246.5 95t-93.5 255v45q-65 -12 -133 -12h-53v159h51zM524 1395
q-60 0 -92.5 -44t-32.5 -112v-633q117 71 183.5 192t66.5 279v164q0 66 -33 110t-92 44z" />
    <glyph glyph-name="trademark" unicode="&#x2122;" horiz-adv-x="1673" 
d="M1174 1063l-240 221v-381h-115v649l355 -335l356 335v-649h-115v385zM68 1425v111h618v-111h-250v-522h-114v522h-254z" />
    <glyph glyph-name="estimated" unicode="&#x212e;" horiz-adv-x="1597" 
d="M1536 627h-1194q-10 0 -10 -9v-360q0 -25 16 -41q88 -93 205 -145t248 -52q139 0 262 58.5t213 161.5h106q-101 -119 -254 -187.5t-329 -68.5q-150 0 -287 52t-235.5 140.5t-157 211t-58.5 257.5t58.5 258t157 212t235.5 141.5t287 52.5q201 0 370.5 -89t268 -241.5
t98.5 -333.5v-18zM1266 674v364q0 24 -19 43q-89 89 -204 139t-242 50q-129 0 -246 -52t-205 -143q-18 -18 -18 -45v-356q0 -10 10 -10h915q9 0 9 10z" />
    <glyph glyph-name="partialdiff" unicode="&#x2202;" horiz-adv-x="1196" 
d="M1096 616q0 -104 -22.5 -198.5t-68 -174t-110 -138t-153 -91t-191.5 -32.5q-204 0 -336.5 134.5t-132.5 346.5q0 218 142.5 360t365.5 142q192 0 321 -148q-15 125 -61.5 232t-118 186.5t-170.5 124.5t-215 45v143q140 0 260 -47t209.5 -131.5t153 -200.5t95.5 -256.5
t32 -296.5zM573 139q154 0 248 103t94 260q0 135 -89.5 219t-227.5 84q-150 0 -243 -99t-93 -249q0 -138 87.5 -228t223.5 -90z" />
    <glyph glyph-name="product" unicode="&#x220f;" horiz-adv-x="1503" 
d="M170 -328v1864h1163v-1864h-174v1710h-815v-1710h-174z" />
    <glyph glyph-name="summation" unicode="&#x2211;" horiz-adv-x="1353" 
d="M98 -174l664 792l-664 762v154h1168v-154h-947l658 -759l-658 -795h947v-154h-1168v154z" />
    <glyph glyph-name="minus" unicode="&#x2212;" horiz-adv-x="1161" 
d="M137 700v154h887v-154h-887z" />
    <glyph glyph-name="uni2215" unicode="&#x2215;" horiz-adv-x="931" 
d="M-47 0h-168l1196 1536h168z" />
    <glyph glyph-name="radical" unicode="&#x221a;" horiz-adv-x="1503" 
d="M750 -33l-422 889h-293v154h411l304 -682l550 1208h181z" />
    <glyph glyph-name="infinity" unicode="&#x221e;" horiz-adv-x="1830" 
d="M1339 328q-66 0 -127 21.5t-113 63t-94 88t-87 109.5q-96 -132 -197.5 -207t-228.5 -75q-179 0 -289.5 118t-110.5 304q0 187 111.5 308.5t292.5 121.5q54 0 104.5 -15.5t91 -40t82 -63.5t73 -76t68.5 -88q91 132 192 207.5t228 75.5q182 0 293 -120.5t111 -307.5
q0 -185 -111 -304.5t-289 -119.5zM1327 1024q-26 0 -49.5 -4.5t-45.5 -15t-39.5 -20.5t-37.5 -30l-33 -33t-32.5 -39.5t-29.5 -40t-31 -44t-30 -43.5q13 -18 39.5 -55t41 -56t39 -49t45 -46t47 -33t56 -24.5t62.5 -7.5q112 0 178 76t66 193q0 118 -66.5 195t-179.5 77z
M504 1024q-113 0 -179.5 -77.5t-66.5 -196.5q0 -117 66 -192t178 -75q29 0 56.5 7.5t48 15.5t45.5 29t38.5 33.5t38 43.5t33.5 43.5t35.5 50.5t33.5 48q-11 16 -34 48.5t-35 49.5t-34 44.5t-37 42.5t-38.5 33.5t-44.5 28t-48 16.5t-56 7z" />
    <glyph glyph-name="integral" unicode="&#x222b;" horiz-adv-x="802" 
d="M174 -530q-88 0 -172 41v163q76 -45 156 -45q70 0 113.5 50t43.5 126v1407q0 151 86 246.5t230 95.5q86 0 170 -41v-163q-76 45 -156 45q-70 0 -114 -50t-44 -126v-1407q0 -151 -85 -246.5t-228 -95.5z" />
    <glyph glyph-name="approxequal" unicode="&#x2248;" horiz-adv-x="1161" 
d="M381 1106q63 0 132 -26t138.5 -52.5t132.5 -26.5q132 0 240 111v-166q-98 -98 -242 -98q-62 0 -132 26t-139 52t-132 26q-117 0 -242 -118v163q106 109 244 109zM381 682q75 0 201.5 -51t201.5 -51q135 0 240 108v-164q-94 -98 -242 -98q-75 0 -201.5 51t-201.5 51
q-119 0 -242 -116v163q104 107 244 107z" />
    <glyph glyph-name="notequal" unicode="&#x2260;" horiz-adv-x="1161" 
d="M1024 473h-510l-131 -260h-152l131 260h-225v154h303l140 276h-443v154h520l117 233h154l-119 -233h215v-154h-293l-139 -276h432v-154z" />
    <glyph glyph-name="lessequal" unicode="&#x2264;" horiz-adv-x="1161" 
d="M967 700v-168l-789 340v177l789 342v-166l-639 -262zM178 674l789 -346v-160l-789 346v160z" />
    <glyph glyph-name="greaterequal" unicode="&#x2265;" horiz-adv-x="1161" 
d="M983 872l-788 -340v168l639 263l-639 262v166l788 -342v-177zM983 674v-160l-788 -346v160z" />
    <glyph glyph-name="lozenge" unicode="&#x25ca;" horiz-adv-x="1191" 
d="M1133 729l-537 -768l-539 768l539 770zM942 729l-346 506l-348 -506l348 -504z" />
    <glyph glyph-name="commaaccent" unicode="&#xf6c3;" horiz-adv-x="956" 
d="M446 -129h172l-172 -293h-118z" />
    <glyph glyph-name="CR" horiz-adv-x="0" 
 />
    <glyph glyph-name="a.alt" horiz-adv-x="1198" 
d="M1028 1010v-1010h-407q-244 0 -387.5 133.5t-143.5 370.5q0 235 147.5 370.5t383.5 135.5h407zM862 856h-250q-166 0 -258 -94.5t-92 -257.5t91.5 -257.5t258.5 -94.5h250v704z" />
    <glyph glyph-name="a.alt2" horiz-adv-x="1099" 
d="M170 856v154h760v-1010h-492q-157 0 -249.5 82.5t-92.5 228.5q0 149 94 233.5t254 84.5h318v227h-592zM762 477h-318q-78 0 -127 -44.5t-49 -121.5q0 -75 48.5 -117t127.5 -42h318v325z" />
    <glyph glyph-name="b.alt" horiz-adv-x="1202" 
d="M170 0v1536h166v-526h252q239 0 380.5 -135.5t141.5 -372.5q0 -154 -70.5 -269.5t-188 -174t-263.5 -58.5h-418zM336 856v-704h258q156 0 250 94t94 256q0 166 -94 260t-250 94h-258z" />
    <glyph glyph-name="d.alt" horiz-adv-x="1202" 
d="M864 1536h166v-1536h-418q-237 0 -379.5 135.5t-142.5 372.5q0 154 70.5 269.5t188 174t263.5 58.5h252v526zM864 856h-258q-156 0 -250 -93t-94 -255q0 -168 94 -262t250 -94h258v704z" />
    <glyph glyph-name="e.alt" horiz-adv-x="1091" 
d="M969 156v-156h-819v639q0 177 126 283t322 106q112 0 201 -34.5t143.5 -107t54.5 -173.5q0 -102 -52.5 -175.5t-136 -108t-187.5 -34.5h-304v-239h652zM317 547h306q92 0 150 41t58 119q0 85 -68 126t-171 41q-116 0 -195.5 -59t-79.5 -162v-106z" />
    <glyph glyph-name="e.alt2" horiz-adv-x="1112" 
d="M170 0v1010h827v-265q0 -148 -104 -239.5t-283 -91.5h-274v-262h659v-152h-825zM825 856h-489v-295h295q85 0 139.5 50.5t54.5 131.5v113z" />
    <glyph glyph-name="h.alt2" horiz-adv-x="1216" 
d="M336 1536v-526h708v-1010h-165v856h-543v-856h-166v1536h166z" />
    <glyph glyph-name="m.alt2" horiz-adv-x="1830" 
d="M170 0v1010h1489v-1010h-166v856h-496v-856h-166v856h-495v-856h-166z" />
    <glyph glyph-name="n.alt2" horiz-adv-x="1216" 
d="M170 0v1010h874v-1010h-165v856h-543v-856h-166z" />
    <glyph glyph-name="p.alt" horiz-adv-x="1202" 
d="M588 0h-252v-512h-166v1522h418q239 0 380.5 -135.5t141.5 -372.5q0 -154 -70.5 -269.5t-188 -174t-263.5 -58.5zM336 856v-704h258q156 0 250 94t94 256q0 166 -94 260t-250 94h-258z" />
    <glyph glyph-name="q.alt" horiz-adv-x="1202" 
d="M90 508q0 154 70.5 269.5t188 174t263.5 58.5h418v-1522h-166v512h-252q-237 0 -379.5 135.5t-142.5 372.5zM864 856h-258q-156 0 -250 -93t-94 -255q0 -168 94 -262t250 -94h258v704z" />
    <glyph glyph-name="r.alt" horiz-adv-x="780" 
d="M778 922l-442 -406v-516h-166v1010h166v-269l323 295z" />
    <glyph glyph-name="r.alt2" horiz-adv-x="759" 
d="M170 0v1010h549v-154h-383v-856h-166z" />
    <glyph glyph-name="aacute.alt" horiz-adv-x="1198" 
d="M748 1454h210l-262 -285h-153zM1028 1010v-1010h-407q-244 0 -387.5 133.5t-143.5 370.5q0 235 147.5 370.5t383.5 135.5h407zM862 856h-250q-166 0 -258 -94.5t-92 -257.5t91.5 -257.5t258.5 -94.5h250v704z" />
    <glyph glyph-name="acircumflex.alt" horiz-adv-x="1198" 
d="M846 1169l-172 172l-172 -172h-174l252 285h188l252 -285h-174zM1028 1010v-1010h-407q-244 0 -387.5 133.5t-143.5 370.5q0 235 147.5 370.5t383.5 135.5h407zM862 856h-250q-166 0 -258 -94.5t-92 -257.5t91.5 -257.5t258.5 -94.5h250v704z" />
    <glyph glyph-name="adieresis.alt" horiz-adv-x="1198" 
d="M475 1206q-47 0 -76.5 29t-29.5 76q0 46 29.5 75t76.5 29t76 -29t29 -75q0 -47 -29 -76t-76 -29zM870 1206q-46 0 -75 29t-29 76q0 46 29 75t75 29q47 0 76 -29t29 -75q0 -47 -29 -76t-76 -29zM1028 1010v-1010h-407q-244 0 -387.5 133.5t-143.5 370.5q0 235 147.5 370.5
t383.5 135.5h407zM862 856h-250q-166 0 -258 -94.5t-92 -257.5t91.5 -257.5t258.5 -94.5h250v704z" />
    <glyph glyph-name="agrave.alt" horiz-adv-x="1198" 
d="M403 1454h211l205 -285h-155zM1028 1010v-1010h-407q-244 0 -387.5 133.5t-143.5 370.5q0 235 147.5 370.5t383.5 135.5h407zM862 856h-250q-166 0 -258 -94.5t-92 -257.5t91.5 -257.5t258.5 -94.5h250v704z" />
    <glyph glyph-name="aring.alt" horiz-adv-x="1198" 
d="M686 1528q84 0 139.5 -51.5t55.5 -133.5q0 -84 -55 -137t-140 -53q-86 0 -141.5 52t-55.5 134q0 83 56 136t141 53zM588 1339q0 -41 27.5 -67.5t70.5 -26.5t69.5 26.5t26.5 69.5q0 41 -27.5 68t-68.5 27q-44 0 -71 -27t-27 -70zM1028 1010v-1010h-407
q-244 0 -387.5 133.5t-143.5 370.5q0 235 147.5 370.5t383.5 135.5h407zM862 856h-250q-166 0 -258 -94.5t-92 -257.5t91.5 -257.5t258.5 -94.5h250v704z" />
    <glyph glyph-name="atilde.alt" horiz-adv-x="1198" 
d="M776 1212q-46 0 -128 39t-109 39q-40 0 -63 -23.5t-23 -64.5h-113q-6 105 42.5 168.5t135.5 63.5q47 0 135.5 -40t112.5 -40q40 0 63 23t23 63h113q8 -101 -44.5 -164.5t-144.5 -63.5zM1028 1010v-1010h-407q-244 0 -387.5 133.5t-143.5 370.5q0 235 147.5 370.5
t383.5 135.5h407zM862 856h-250q-166 0 -258 -94.5t-92 -257.5t91.5 -257.5t258.5 -94.5h250v704z" />
    <glyph glyph-name="abreve.alt" horiz-adv-x="1198" 
d="M674 1296q69 0 115.5 43.5t46.5 106.5h141q0 -118 -84.5 -199.5t-218.5 -81.5q-133 0 -216 81t-83 200h141q0 -63 45.5 -106.5t112.5 -43.5zM1028 1010v-1010h-407q-244 0 -387.5 133.5t-143.5 370.5q0 235 147.5 370.5t383.5 135.5h407zM862 856h-250q-166 0 -258 -94.5
t-92 -257.5t91.5 -257.5t258.5 -94.5h250v704z" />
    <glyph glyph-name="amacron.alt" horiz-adv-x="1198" 
d="M375 1384h586v-139h-586v139zM1028 1010v-1010h-407q-244 0 -387.5 133.5t-143.5 370.5q0 235 147.5 370.5t383.5 135.5h407zM862 856h-250q-166 0 -258 -94.5t-92 -257.5t91.5 -257.5t258.5 -94.5h250v704z" />
    <glyph glyph-name="aogonek.alt" horiz-adv-x="1206" 
d="M1028 -471q-66 -27 -119 -27q-85 0 -146.5 46.5t-76.5 127.5q-28 195 160 324h-225q-244 0 -387.5 133.5t-143.5 370.5q0 235 147.5 370.5t383.5 135.5h407v-1010q-222 -119 -190 -285q6 -46 37 -73t77 -27q38 0 76 18v-104zM862 856h-250q-166 0 -258 -94.5t-92 -257.5
t91.5 -257.5t258.5 -94.5h250v704z" />
    <glyph glyph-name="aacute.alt2" horiz-adv-x="1099" 
d="M641 1454h211l-262 -285h-154zM170 856v154h760v-1010h-492q-157 0 -249.5 82.5t-92.5 228.5q0 149 94 233.5t254 84.5h318v227h-592zM762 477h-318q-78 0 -127 -44.5t-49 -121.5q0 -75 48.5 -117t127.5 -42h318v325z" />
    <glyph glyph-name="acircumflex.alt2" horiz-adv-x="1099" 
d="M725 1169l-172 172l-172 -172h-174l252 285h188l252 -285h-174zM170 856v154h760v-1010h-492q-157 0 -249.5 82.5t-92.5 228.5q0 149 94 233.5t254 84.5h318v227h-592zM762 477h-318q-78 0 -127 -44.5t-49 -121.5q0 -75 48.5 -117t127.5 -42h318v325z" />
    <glyph glyph-name="adieresis.alt2" horiz-adv-x="1099" 
d="M371 1206q-47 0 -77 29t-30 76q0 46 30 75t77 29t75.5 -29t28.5 -75q0 -47 -28.5 -76t-75.5 -29zM766 1206q-46 0 -75 29t-29 76q0 46 29 75t75 29q47 0 75.5 -29t28.5 -75q0 -47 -28.5 -76t-75.5 -29zM170 856v154h760v-1010h-492q-157 0 -249.5 82.5t-92.5 228.5
q0 149 94 233.5t254 84.5h318v227h-592zM762 477h-318q-78 0 -127 -44.5t-49 -121.5q0 -75 48.5 -117t127.5 -42h318v325z" />
    <glyph glyph-name="agrave.alt2" horiz-adv-x="1099" 
d="M305 1454h211l205 -285h-156zM170 856v154h760v-1010h-492q-157 0 -249.5 82.5t-92.5 228.5q0 149 94 233.5t254 84.5h318v227h-592zM762 477h-318q-78 0 -127 -44.5t-49 -121.5q0 -75 48.5 -117t127.5 -42h318v325z" />
    <glyph glyph-name="aring.alt2" horiz-adv-x="1099" 
d="M567 1528q84 0 139.5 -51.5t55.5 -133.5q0 -84 -55 -137t-140 -53t-140.5 51.5t-55.5 134.5t55.5 136t140.5 53zM469 1339q0 -41 27.5 -67.5t70.5 -26.5t70 26.5t27 69.5q0 41 -28 68t-69 27q-44 0 -71 -27t-27 -70zM170 856v154h760v-1010h-492q-157 0 -249.5 82.5
t-92.5 228.5q0 149 94 233.5t254 84.5h318v227h-592zM762 477h-318q-78 0 -127 -44.5t-49 -121.5q0 -75 48.5 -117t127.5 -42h318v325z" />
    <glyph glyph-name="atilde.alt2" horiz-adv-x="1099" 
d="M692 1212q-46 0 -128 39t-109 39q-40 0 -63 -23.5t-23 -64.5h-113q-6 105 42.5 168.5t135.5 63.5q47 0 135.5 -40t112.5 -40q40 0 63 23t23 63h113q8 -101 -44.5 -164.5t-144.5 -63.5zM170 856v154h760v-1010h-492q-157 0 -249.5 82.5t-92.5 228.5q0 149 94 233.5
t254 84.5h318v227h-592zM762 477h-318q-78 0 -127 -44.5t-49 -121.5q0 -75 48.5 -117t127.5 -42h318v325z" />
    <glyph glyph-name="abreve.alt2" horiz-adv-x="1099" 
d="M569 1296q69 0 115.5 43.5t46.5 106.5h141q0 -118 -84.5 -199.5t-218.5 -81.5q-133 0 -216 81t-83 200h142q0 -63 45 -106.5t112 -43.5zM170 856v154h760v-1010h-492q-157 0 -249.5 82.5t-92.5 228.5q0 149 94 233.5t254 84.5h318v227h-592zM762 477h-318
q-78 0 -127 -44.5t-49 -121.5q0 -75 48.5 -117t127.5 -42h318v325z" />
    <glyph glyph-name="amacron.alt2" horiz-adv-x="1099" 
d="M264 1384h586v-139h-586v139zM170 856v154h760v-1010h-492q-157 0 -249.5 82.5t-92.5 228.5q0 149 94 233.5t254 84.5h318v227h-592zM762 477h-318q-78 0 -127 -44.5t-49 -121.5q0 -75 48.5 -117t127.5 -42h318v325z" />
    <glyph glyph-name="aogonek.alt2" horiz-adv-x="1099" 
d="M170 856v154h760v-1010q-223 -120 -191 -285q6 -46 37.5 -73t77.5 -27q38 0 76 18v-104q-66 -27 -119 -27q-85 0 -146.5 46.5t-76.5 127.5q-28 195 160 324h-310q-157 0 -249.5 82.5t-92.5 228.5q0 149 94 233.5t254 84.5h318v227h-592zM762 477h-318q-78 0 -127 -44.5
t-49 -121.5q0 -75 48.5 -117t127.5 -42h318v325z" />
    <glyph glyph-name="dcaron.alt" horiz-adv-x="1347" 
d="M864 1536h166v-1536h-418q-237 0 -379.5 135.5t-142.5 372.5q0 154 70.5 269.5t188 174t263.5 58.5h252v526zM1270 1159h-111l66 377h174zM864 856h-258q-156 0 -250 -93t-94 -255q0 -168 94 -262t250 -94h258v704z" />
    <glyph glyph-name="dcroat.alt" horiz-adv-x="1200" 
d="M1178 1206h-148v-1206h-418q-239 0 -380.5 135.5t-141.5 372.5q0 154 70.5 269.5t188 174t263.5 58.5h252v196h-272v140h272v190h166v-190h148v-140zM864 856h-258q-156 0 -250 -93t-94 -255q0 -168 94 -262t250 -94h258v704z" />
    <glyph glyph-name="eacute.alt" horiz-adv-x="1091" 
d="M655 1454h211l-262 -285h-153zM969 156v-156h-819v639q0 177 126 283t322 106q112 0 201 -34.5t143.5 -107t54.5 -173.5q0 -102 -52.5 -175.5t-136 -108t-187.5 -34.5h-304v-239h652zM317 547h306q92 0 150 41t58 119q0 85 -68 126t-171 41q-116 0 -195.5 -59t-79.5 -162
v-106z" />
    <glyph glyph-name="ecircumflex.alt" horiz-adv-x="1091" 
d="M764 1169l-172 172l-172 -172h-174l252 285h188l252 -285h-174zM969 156v-156h-819v639q0 177 126 283t322 106q112 0 201 -34.5t143.5 -107t54.5 -173.5q0 -102 -52.5 -175.5t-136 -108t-187.5 -34.5h-304v-239h652zM317 547h306q92 0 150 41t58 119q0 85 -68 126
t-171 41q-116 0 -195.5 -59t-79.5 -162v-106z" />
    <glyph glyph-name="edieresis.alt" horiz-adv-x="1091" 
d="M401 1206q-47 0 -76.5 29t-29.5 76q0 46 29.5 75t76.5 29t76 -29t29 -75q0 -47 -29 -76t-76 -29zM797 1206q-46 0 -75.5 29t-29.5 76q0 46 29.5 75t75.5 29q47 0 75.5 -29t28.5 -75q0 -47 -28.5 -76t-75.5 -29zM969 156v-156h-819v639q0 177 126 283t322 106
q112 0 201 -34.5t143.5 -107t54.5 -173.5q0 -102 -52.5 -175.5t-136 -108t-187.5 -34.5h-304v-239h652zM317 547h306q92 0 150 41t58 119q0 85 -68 126t-171 41q-116 0 -195.5 -59t-79.5 -162v-106z" />
    <glyph glyph-name="egrave.alt" horiz-adv-x="1091" 
d="M311 1454h211l205 -285h-156zM969 156v-156h-819v639q0 177 126 283t322 106q112 0 201 -34.5t143.5 -107t54.5 -173.5q0 -102 -52.5 -175.5t-136 -108t-187.5 -34.5h-304v-239h652zM317 547h306q92 0 150 41t58 119q0 85 -68 126t-171 41q-116 0 -195.5 -59t-79.5 -162
v-106z" />
    <glyph glyph-name="ebreve.alt" horiz-adv-x="1091" 
d="M588 1296q69 0 115.5 43.5t46.5 106.5h141q0 -118 -84.5 -199.5t-218.5 -81.5q-133 0 -216 81t-83 200h141q0 -63 45.5 -106.5t112.5 -43.5zM969 156v-156h-819v639q0 177 126 283t322 106q112 0 201 -34.5t143.5 -107t54.5 -173.5q0 -102 -52.5 -175.5t-136 -108
t-187.5 -34.5h-304v-239h652zM317 547h306q92 0 150 41t58 119q0 85 -68 126t-171 41q-116 0 -195.5 -59t-79.5 -162v-106z" />
    <glyph glyph-name="ecaron.alt" horiz-adv-x="1091" 
d="M938 1454l-252 -285h-188l-252 285h174l172 -172l172 172h174zM969 156v-156h-819v639q0 177 126 283t322 106q112 0 201 -34.5t143.5 -107t54.5 -173.5q0 -102 -52.5 -175.5t-136 -108t-187.5 -34.5h-304v-239h652zM317 547h306q92 0 150 41t58 119q0 85 -68 126
t-171 41q-116 0 -195.5 -59t-79.5 -162v-106z" />
    <glyph glyph-name="edotaccent.alt" horiz-adv-x="1091" 
d="M588 1200q-46 0 -78.5 32.5t-32.5 78.5t32.5 78t78.5 32t77 -32t31 -78t-31.5 -78.5t-76.5 -32.5zM969 156v-156h-819v639q0 177 126 283t322 106q112 0 201 -34.5t143.5 -107t54.5 -173.5q0 -102 -52.5 -175.5t-136 -108t-187.5 -34.5h-304v-239h652zM317 547h306
q92 0 150 41t58 119q0 85 -68 126t-171 41q-116 0 -195.5 -59t-79.5 -162v-106z" />
    <glyph glyph-name="emacron.alt" horiz-adv-x="1091" 
d="M301 1384h586v-139h-586v139zM969 156v-156h-819v639q0 177 126 283t322 106q112 0 201 -34.5t143.5 -107t54.5 -173.5q0 -102 -52.5 -175.5t-136 -108t-187.5 -34.5h-304v-239h652zM317 547h306q92 0 150 41t58 119q0 85 -68 126t-171 41q-116 0 -195.5 -59t-79.5 -162
v-106z" />
    <glyph glyph-name="eogonek.alt" horiz-adv-x="1091" 
d="M969 -471q-66 -27 -119 -27q-85 0 -146.5 46.5t-76.5 127.5q-28 196 159 324h-636v639q0 177 126 283t322 106q112 0 201 -34.5t143.5 -107t54.5 -173.5q0 -102 -52.5 -175.5t-136 -108t-187.5 -34.5h-304v-239h652v-156q-220 -119 -191 -285q8 -46 38.5 -73t76.5 -27
q39 0 76 18v-104zM317 547h306q92 0 150 41t58 119q0 85 -68 126t-171 41q-116 0 -195.5 -59t-79.5 -162v-106z" />
    <glyph glyph-name="eacute.alt2" horiz-adv-x="1112" 
d="M651 1454h211l-262 -285h-154zM170 0v1010h827v-265q0 -148 -104 -239.5t-283 -91.5h-274v-262h659v-152h-825zM825 856h-489v-295h295q85 0 139.5 50.5t54.5 131.5v113z" />
    <glyph glyph-name="ecircumflex.alt2" horiz-adv-x="1112" 
d="M758 1169l-172 172l-172 -172h-174l252 285h188l252 -285h-174zM170 0v1010h827v-265q0 -148 -104 -239.5t-283 -91.5h-274v-262h659v-152h-825zM825 856h-489v-295h295q85 0 139.5 50.5t54.5 131.5v113z" />
    <glyph glyph-name="edieresis.alt2" horiz-adv-x="1112" 
d="M393 1206q-47 0 -76.5 29t-29.5 76q0 46 29.5 75t76.5 29t76 -29t29 -75q0 -47 -29 -76t-76 -29zM788 1206q-46 0 -75 29t-29 76q0 46 29 75t75 29q47 0 76 -29t29 -75q0 -47 -29 -76t-76 -29zM170 0v1010h827v-265q0 -148 -104 -239.5t-283 -91.5h-274v-262h659v-152
h-825zM825 856h-489v-295h295q85 0 139.5 50.5t54.5 131.5v113z" />
    <glyph glyph-name="egrave.alt2" horiz-adv-x="1112" 
d="M309 1454h211l205 -285h-156zM170 0v1010h827v-265q0 -148 -104 -239.5t-283 -91.5h-274v-262h659v-152h-825zM825 856h-489v-295h295q85 0 139.5 50.5t54.5 131.5v113z" />
    <glyph glyph-name="ebreve.alt2" horiz-adv-x="1112" 
d="M578 1296q69 0 115 43.5t46 106.5h142q0 -118 -84.5 -199.5t-218.5 -81.5q-133 0 -216 81t-83 200h141q0 -63 45.5 -106.5t112.5 -43.5zM170 0v1010h827v-265q0 -148 -104 -239.5t-283 -91.5h-274v-262h659v-152h-825zM825 856h-489v-295h295q85 0 139.5 50.5t54.5 131.5
v113z" />
    <glyph glyph-name="ecaron.alt2" horiz-adv-x="1112" 
d="M932 1454l-252 -285h-188l-252 285h174l172 -172l172 172h174zM170 0v1010h827v-265q0 -148 -104 -239.5t-283 -91.5h-274v-262h659v-152h-825zM825 856h-489v-295h295q85 0 139.5 50.5t54.5 131.5v113z" />
    <glyph glyph-name="edotaccent.alt2" horiz-adv-x="1112" 
d="M582 1200q-46 0 -78.5 32.5t-32.5 78.5t32.5 78t78.5 32t77 -32t31 -78t-31.5 -78.5t-76.5 -32.5zM170 0v1010h827v-265q0 -148 -104 -239.5t-283 -91.5h-274v-262h659v-152h-825zM825 856h-489v-295h295q85 0 139.5 50.5t54.5 131.5v113z" />
    <glyph glyph-name="emacron.alt2" horiz-adv-x="1112" 
d="M285 1384h585v-139h-585v139zM170 0v1010h827v-265q0 -148 -104 -239.5t-283 -91.5h-274v-262h659v-152h-825zM825 856h-489v-295h295q85 0 139.5 50.5t54.5 131.5v113z" />
    <glyph glyph-name="eogonek.alt2" horiz-adv-x="1112" 
d="M170 0v1010h827v-265q0 -148 -104 -239.5t-283 -91.5h-274v-262h659v-152q-219 -118 -190 -285q8 -46 38.5 -73t76.5 -27q38 0 75 18v-104q-66 -27 -118 -27q-85 0 -147 46.5t-77 127.5q-28 195 160 324h-643zM825 856h-489v-295h295q85 0 139.5 50.5t54.5 131.5v113z
" />
    <glyph glyph-name="hbar.alt2" horiz-adv-x="1216" 
d="M584 1200h-248v-190h708v-1010h-165v856h-543v-856h-166v1200h-170v139h170v197h166v-197h248v-139z" />
    <glyph glyph-name="hcircumflex.alt2" horiz-adv-x="1216" 
d="M696 1642l-172 173l-172 -173h-174l252 285h188l252 -285h-174zM336 1536v-526h708v-1010h-165v856h-543v-856h-166v1536h166z" />
    <glyph glyph-name="i.dot" horiz-adv-x="505" 
d="M252 1200q-46 0 -78.5 32.5t-32.5 78.5t32.5 78t78.5 32q44 0 76 -32t32 -78t-32 -78.5t-76 -32.5zM168 0v1010h168v-1010h-168z" />
    <glyph glyph-name="ntilde.alt2" horiz-adv-x="1216" 
d="M754 1212q-46 0 -128.5 39t-109.5 39q-40 0 -63 -23.5t-23 -64.5h-113q-6 105 43 168.5t136 63.5q47 0 135 -40t112 -40q40 0 63 23t23 63h113q8 -102 -44 -165t-144 -63zM170 0v1010h874v-1010h-165v856h-543v-856h-166z" />
    <glyph glyph-name="nacute.alt2" horiz-adv-x="1216" 
d="M670 1454h211l-263 -285h-153zM170 0v1010h874v-1010h-165v856h-543v-856h-166z" />
    <glyph glyph-name="ncaron.alt2" horiz-adv-x="1216" 
d="M958 1454l-251 -285h-189l-252 285h174l172 -172l172 172h174zM170 0v1010h874v-1010h-165v856h-543v-856h-166z" />
    <glyph glyph-name="ncommaaccent.alt2" horiz-adv-x="1216" 
d="M170 0v1010h874v-1010h-165v856h-543v-856h-166zM553 -129h172l-172 -293h-119z" />
    <glyph glyph-name="racute.alt" horiz-adv-x="780" 
d="M520 1454h211l-262 -285h-154zM778 922l-442 -406v-516h-166v1010h166v-269l323 295z" />
    <glyph glyph-name="rcaron.alt" horiz-adv-x="780" 
d="M795 1454l-252 -285h-189l-252 285h174l173 -172l172 172h174zM778 922l-442 -406v-516h-166v1010h166v-269l323 295z" />
    <glyph glyph-name="rcommaaccent.alt" horiz-adv-x="780" 
d="M778 922l-442 -406v-516h-166v1010h166v-269l323 295zM162 -129h172l-172 -293h-119z" />
    <glyph glyph-name="racute.alt2" horiz-adv-x="759" 
d="M506 1454h211l-262 -285h-154zM170 0v1010h549v-154h-383v-856h-166z" />
    <glyph glyph-name="rcaron.alt2" horiz-adv-x="759" 
d="M799 1454l-252 -285h-189l-252 285h175l172 -172l172 172h174zM170 0v1010h549v-154h-383v-856h-166z" />
    <glyph glyph-name="rcommaaccent.alt2" horiz-adv-x="759" 
d="M170 0v1010h549v-154h-383v-856h-166zM164 -129h172l-172 -293h-119z" />
    <glyph glyph-name="caron.alt" horiz-adv-x="956" 
d="M436 1159h-110l65 377h174z" />
    <glyph glyph-name="revcommaaccent" horiz-adv-x="956" 
d="M508 1432h121l-119 -293h-172z" />
    <glyph glyph-name="ampersand.alt" horiz-adv-x="1447" 
d="M109 453q0 195 119.5 327.5t310.5 163.5l-389 592h905v-154h-613l615 -936q103 206 139 564h160q-47 -460 -203 -711l197 -299h-191l-108 166q-181 -184 -455 -184q-213 0 -350 130t-137 341zM287 457q0 -143 93 -230.5t236 -87.5q210 0 347 160l-330 502
q-152 -5 -249 -100t-97 -244z" />
    <glyph glyph-name="Omega" horiz-adv-x="1509" 
d="M307 913q0 -184 101 -321.5t276 -196.5v-395h-483v152h329v159q-184 83 -289.5 241.5t-105.5 365.5q0 281 173.5 458.5t447.5 177.5q271 0 445.5 -176t174.5 -454q0 -209 -109 -369t-296 -244v-159h329v-152h-483v395q178 59 281.5 198t103.5 327q0 210 -123.5 342.5
t-322.5 132.5q-201 0 -325 -135t-124 -347z" />
    <glyph glyph-name="Delta" horiz-adv-x="1503" 
d="M748 1569l733 -1569h-1456zM279 152h946l-477 1054z" />
    </font>
</defs>
</svg>
