<?xml version="1.0" standalone="no"?>
<!DOCTYPE svg PUBLIC "-//W3C//DTD SVG 20010904//EN"
 "http://www.w3.org/TR/2001/REC-SVG-20010904/DTD/svg10.dtd">
<svg version="1.0" xmlns="http://www.w3.org/2000/svg"
 width="16.000000pt" height="19.000000pt" viewBox="0 0 16.000000 19.000000"
 preserveAspectRatio="xMidYMid meet">

<g transform="translate(0.000000,19.000000) scale(0.100000,-0.100000)"
fill="#000000" stroke="none">
<path d="M30 161 c0 -16 -4 -31 -8 -33 -5 -1 -12 -31 -15 -65 l-7 -63 80 0 80
0 -7 63 c-3 34 -10 64 -15 65 -4 2 -8 17 -8 33 0 28 -1 29 -50 29 -49 0 -50
-1 -50 -29z m90 -6 c0 -22 -4 -25 -40 -25 -36 0 -40 3 -40 25 0 23 4 25 40 25
36 0 40 -2 40 -25z"/>
</g>
</svg>
